<svg xmlns="http://www.w3.org/2000/svg" width="2000mm" height="1000mm" viewBox="0 0 2000 1000"><g id="outline"><rect x="0" y="0" width="2000" height="1000" fill="none" stroke="#000" stroke-width="1"/></g><g id="channels"><path d="M 414.8 1000.0 L 418.5 996.5 L 422.5 992.8 L 426.7 988.9 L 430.7 985.1 L 434.8 981.3 L 439.1 977.6 L 443.3 973.9 L 447.5 970.3 L 447.5 970.3 L 451.8 966.7 L 456.1 963.2 L 460.5 959.7 L 464.8 956.2 L 469.2 952.6 L 473.6 949.1 L 478.0 945.7 L 482.5 942.3 L 486.9 938.9 L 491.4 935.6 L 495.9 932.3 L 500.5 929.0 L 505.1 925.8 L 509.6 922.6 L 514.3 919.5 L 519.0 916.4 L 519.0 916.4 L 523.6 913.4 L 528.3 910.3 L 533.1 907.3 L 537.8 904.4 L 542.6 901.4 L 547.4 898.6 L 552.2 895.7 L 557.1 893.0 L 561.9 890.2 L 566.8 887.4 L 571.8 884.8 L 576.7 882.1 L 581.6 879.6 L 586.6 877.1 L 591.7 874.7 L 596.7 872.3 L 596.7 872.3 L 601.8 869.9 L 606.9 867.7 L 612.0 865.5 L 617.2 863.4 L 622.4 861.4 L 627.6 859.4 L 632.8 857.4 L 638.1 855.5 L 643.4 853.5 L 648.7 851.7 L 654.0 849.8 L 659.2 848.1 L 664.6 846.2 L 669.9 844.5 L 675.2 842.6 L 680.5 840.8 L 680.5 840.8 L 685.8 839.0 L 691.1 837.4 L 696.5 835.7 L 701.8 834.1 L 707.2 832.5 L 712.6 830.9 L 718.0 829.4 L 723.4 827.8 L 728.8 826.4 L 734.1 824.8 L 739.5 823.1 L 744.9 821.5 L 750.2 819.8 L 755.5 818.0 L 760.7 816.1 L 766.0 814.2 L 766.0 814.2 L 771.2 812.3 L 776.5 810.2 L 781.7 808.2 L 786.9 806.2 L 792.1 804.2 L 797.4 802.1 L 802.6 800.0 L 807.8 797.8 L 812.9 795.5 L 818.0 793.2 L 823.0 790.7 L 828.0 788.2 L 833.0 785.7 L 837.9 783.1 L 842.6 780.2 L 847.4 777.4 L 847.4 777.4 L 852.1 774.4 L 856.6 771.3 L 861.2 768.1 L 865.6 764.8 L 870.1 761.3 L 874.4 757.9 L 878.7 754.3 L 883.0 750.7 L 887.3 747.0 L 891.4 743.2 L 895.5 739.5 L 899.7 735.6 L 903.8 731.8 L 907.8 728.0 L 911.9 724.1 L 915.9 720.2 L 915.9 720.2 L 919.9 716.4 L 923.8 712.3 L 927.6 708.2 L 931.3 703.9 L 935.0 699.7 L 938.6 695.4 L 942.2 691.1 L 945.7 686.7 L 949.3 682.4 L 953.0 678.1 L 956.6 673.8 L 960.4 669.7 L 964.2 665.6 L 968.0 661.6 L 972.0 657.7 L 976.1 654.0 L 976.1 654.0 L 980.3 650.4 L 984.6 646.7 L 988.9 643.2 L 993.3 639.8 L 997.7 636.4 L 1002.2 633.0 L 1006.7 629.8 L 1011.2 626.5 L 1015.9 623.3 L 1020.6 620.3 L 1025.2 617.2 L 1030.0 614.2 L 1034.7 611.3 L 1039.6 608.5 L 1044.3 605.6 L 1049.3 603.0 L 1049.3 603.0 L 1054.1 600.4 L 1059.1 597.9 L 1064.1 595.4 L 1069.2 593.2 L 1074.3 591.0 L 1079.5 588.8 L 1084.7 586.7 L 1089.9 584.7 L 1095.2 582.7 L 1100.4 580.7 L 1105.7 578.6 L 1111.0 576.6 L 1116.1 574.6 L 1121.3 572.6 L 1126.5 570.4 L 1131.7 568.2 L 1131.7 568.2 L 1136.9 566.0 L 1142.0 563.8 L 1147.1 561.6 L 1152.3 559.4 L 1157.4 557.2 L 1162.6 555.0 L 1167.7 552.8 L 1172.9 550.6 L 1178.0 548.4 L 1183.1 546.1 L 1188.2 543.9 L 1193.3 541.6 L 1198.4 539.3 L 1203.5 536.9 L 1208.6 534.6 L 1213.6 532.3 L 1213.6 532.3 L 1218.8 529.8 L 1223.8 527.3 L 1228.7 524.8 L 1233.7 522.2 L 1238.6 519.6 L 1243.7 517.0 L 1248.6 514.4 L 1253.5 511.8 L 1258.4 509.1 L 1263.5 506.5 L 1268.4 503.9 L 1273.4 501.4 L 1278.4 498.9 L 1283.4 496.5 L 1288.5 494.2 L 1293.6 491.9 L 1293.6 491.9 L 1298.7 489.7 L 1303.9 487.6 L 1309.1 485.6 L 1314.4 483.6 L 1319.6 481.7 L 1324.9 479.9 L 1330.2 478.0 L 1335.5 476.2 L 1340.8 474.4 L 1346.1 472.6 L 1351.4 470.7 L 1356.6 468.9 L 1361.9 467.0 L 1367.2 465.0 L 1372.4 463.0 L 1377.6 460.9 L 1377.6 460.9 L 1382.7 458.7 L 1387.9 456.6 L 1393.0 454.4 L 1398.2 452.3 L 1403.3 450.1 L 1408.5 447.8 L 1413.6 445.6 L 1418.7 443.3 L 1423.8 440.9 L 1428.8 438.5 L 1433.9 436.2 L 1438.9 433.7 L 1443.9 431.1 L 1448.8 428.6 L 1453.7 426.0 L 1458.6 423.2 L 1458.6 423.2 L 1463.4 420.4 L 1468.1 417.6 L 1472.9 414.6 L 1477.6 411.5 L 1482.2 408.4 L 1486.8 405.3 L 1491.5 402.1 L 1496.0 398.8 L 1500.6 395.6 L 1505.1 392.2 L 1509.7 389.0 L 1514.3 385.7 L 1518.8 382.5 L 1523.4 379.2 L 1528.0 376.1 L 1532.6 372.9 L 1532.6 372.9 L 1537.2 369.7 L 1541.9 366.6 L 1546.5 363.4 L 1551.0 360.1 L 1555.6 356.9 L 1560.2 353.6 L 1564.8 350.4 L 1569.3 347.2 L 1574.0 344.0 L 1578.6 340.9 L 1583.2 337.8 L 1587.9 334.7 L 1592.7 331.6 L 1597.3 328.7 L 1602.2 325.8 L 1607.0 323.0 L 1607.0 323.0 L 1611.8 320.3 L 1616.7 317.6 L 1621.6 314.9 L 1626.5 312.3 L 1631.6 309.7 L 1636.5 307.2 L 1641.5 304.6 L 1646.6 302.1 L 1651.6 299.8 L 1656.7 297.5 L 1661.8 295.2 L 1666.9 293.0 L 1672.1 290.8 L 1677.3 288.8 L 1682.5 286.7 L 1687.7 284.8 L 1687.7 284.8 L 1693.0 283.0 L 1698.3 281.3 L 1703.6 279.7 L 1709.0 278.2 L 1714.4 276.8 L 1719.8 275.4 L 1725.3 274.2 L 1730.7 272.9 L 1736.2 271.7 L 1741.7 270.5 L 1747.2 269.2 L 1752.6 268.0 L 1758.1 266.8 L 1763.6 265.4 L 1769.0 264.1 L 1774.5 262.7 L 1774.5 262.7 L 1779.8 261.2 L 1785.2 259.7 L 1790.7 258.3 L 1796.0 256.8 L 1801.4 255.3 L 1806.9 253.9 L 1812.2 252.4 L 1817.6 250.8 L 1823.0 249.3 L 1828.3 247.8 L 1833.7 246.3 L 1839.1 244.7 L 1844.4 243.1 L 1849.8 241.4 L 1855.1 239.7 L 1860.4 238.1 L 1860.4 238.1 L 1865.8 236.1 L 1871.4 234.0 L 1877.0 231.7 L 1882.6 229.3 L 1888.3 226.6 L 1894.1 224.1 L 1899.8 221.4 L 1905.4 218.9 L 1911.0 216.5 L 1916.3 214.2 L 1921.6 212.3 L 1926.7 210.5 L 1931.6 209.2 L 1936.2 208.2 L 1940.5 207.7 L 1944.6 207.7 L 1944.6 207.7 L 1948.4 208.2 L 1952.4 209.1 L 1956.3 210.4 L 1960.2 212.1 L 1963.8 214.1 L 1967.5 216.4 L 1970.8 219.0 L 1974.0 221.7 L 1976.8 224.6 L 1979.2 227.6 L 1981.3 230.8 L 1982.9 233.9 L 1984.1 237.2 L 1984.7 240.4 L 1984.8 243.5 L 1984.2 246.6 L 1984.2 246.6 L 1982.9 249.7 L 1980.8 252.9 L 1978.0 256.2 L 1974.7 259.6 L 1970.8 263.2 L 1966.5 266.8 L 1961.7 270.4 L 1956.7 274.2 L 1951.5 277.8 L 1946.2 281.6 L 1940.8 285.4 L 1935.4 289.1 L 1930.1 292.9 L 1925.0 296.6 L 1920.1 300.2 L 1915.6 303.8 L 1915.6 303.8 L 1911.3 307.3 L 1907.0 310.8 L 1902.6 314.5 L 1898.3 318.0 L 1894.0 321.5 L 1889.6 325.0 L 1885.3 328.5 L 1880.9 332.1 L 1876.6 335.6 L 1872.2 339.0 L 1867.8 342.5 L 1863.4 346.0 L 1859.0 349.6 L 1854.6 353.0 L 1850.3 356.5 L 1845.9 360.0 L 1845.9 360.0 L 1841.5 363.5 L 1837.2 367.0 L 1832.9 370.6 L 1828.6 374.2 L 1824.3 377.7 L 1820.0 381.3 L 1815.7 384.9 L 1811.3 388.6 L 1806.9 392.1 L 1802.5 395.5 L 1798.1 398.9 L 1793.7 402.4 L 1789.2 405.6 L 1784.6 408.8 L 1780.0 411.9 L 1775.4 414.9 L 1775.4 414.9 L 1770.6 417.8 L 1765.8 420.6 L 1760.8 423.2 L 1755.9 425.9 L 1751.0 428.4 L 1746.0 430.9 L 1740.9 433.3 L 1735.8 435.6 L 1730.7 437.9 L 1725.5 440.2 L 1720.4 442.5 L 1715.3 444.8 L 1710.1 447.0 L 1705.0 449.3 L 1699.9 451.5 L 1694.8 453.8 L 1694.8 453.8 L 1689.7 456.0 L 1684.5 458.3 L 1679.4 460.5 L 1674.3 462.7 L 1669.1 464.8 L 1663.9 467.0 L 1658.8 469.2 L 1653.6 471.3 L 1648.4 473.4 L 1643.3 475.5 L 1638.1 477.6 L 1632.9 479.7 L 1627.7 481.9 L 1622.6 484.1 L 1617.4 486.3 L 1612.3 488.6 L 1612.3 488.6 L 1607.2 490.9 L 1602.2 493.3 L 1597.1 495.7 L 1592.0 498.2 L 1587.0 500.8 L 1582.0 503.3 L 1577.0 505.9 L 1572.0 508.3 L 1567.0 510.9 L 1562.0 513.3 L 1556.8 515.7 L 1551.8 518.1 L 1546.7 520.4 L 1541.5 522.5 L 1536.4 524.6 L 1531.2 526.5 L 1531.2 526.5 L 1526.0 528.4 L 1520.7 530.2 L 1515.4 532.1 L 1510.0 533.8 L 1504.7 535.6 L 1499.3 537.3 L 1493.9 538.9 L 1488.6 540.4 L 1483.1 541.8 L 1477.6 543.2 L 1472.3 544.4 L 1466.8 545.5 L 1461.4 546.4 L 1455.8 547.2 L 1450.4 547.8 L 1444.9 548.2 L 1444.9 548.2 L 1439.5 548.4 L 1433.8 548.2 L 1428.2 547.7 L 1422.6 546.9 L 1416.8 546.0 L 1411.0 544.8 L 1405.3 543.7 L 1399.6 542.5 L 1394.0 541.2 L 1388.3 540.1 L 1382.7 538.9 L 1377.2 538.1 L 1371.8 537.4 L 1366.5 536.9 L 1361.4 536.7 L 1356.3 536.9 L 1356.3 536.9 L 1351.5 537.4 L 1346.8 538.2 L 1342.2 539.2 L 1337.7 540.4 L 1333.4 541.7 L 1329.2 543.2 L 1325.0 544.8 L 1320.8 546.4 L 1316.7 548.2 L 1312.5 550.0 L 1308.3 551.9 L 1304.1 553.7 L 1299.8 555.6 L 1295.4 557.3 L 1290.8 559.0 L 1286.2 560.7 L 1286.2 560.7 L 1281.2 562.2 L 1276.0 563.7 L 1270.4 565.2 L 1264.7 566.7 L 1258.8 568.1 L 1252.8 569.6 L 1246.8 571.0 L 1240.9 572.5 L 1235.2 574.1 L 1229.7 575.6 L 1224.4 577.3 L 1219.5 579.1 L 1215.0 580.9 L 1210.9 582.9 L 1207.5 584.9 L 1204.7 587.1 L 1204.7 587.1 L 1202.5 589.5 L 1200.9 591.9 L 1199.8 594.6 L 1199.2 597.4 L 1199.0 600.2 L 1199.2 603.2 L 1199.7 606.2 L 1200.3 609.3 L 1201.1 612.3 L 1202.0 615.4 L 1203.0 618.5 L 1203.9 621.5 L 1204.7 624.4 L 1205.4 627.3 L 1205.8 630.1 L 1206.0 632.8 L 1206.0 632.8 L 1205.9 635.4 L 1205.5 638.0 L 1204.8 640.7 L 1204.1 643.3 L 1203.4 646.0 L 1202.5 648.6 L 1201.7 651.2 L 1200.9 653.8 L 1200.4 656.2 L 1199.9 658.5 L 1199.8 660.8 L 1200.0 662.9 L 1200.5 665.0 L 1201.6 666.8 L 1203.1 668.5 L 1205.1 669.9 L 1205.1 669.9 L 1207.7 671.3 L 1210.7 672.5 L 1214.4 673.7 L 1218.3 674.7 L 1222.6 675.6 L 1227.3 676.4 L 1232.2 677.1 L 1237.3 677.7 L 1242.7 678.2 L 1248.1 678.4 L 1253.5 678.6 L 1259.1 678.6 L 1264.5 678.4 L 1269.9 678.2 L 1275.2 677.6 L 1280.3 677.0 L 1280.3 677.0 L 1285.3 676.1 L 1290.3 675.0 L 1295.4 673.6 L 1300.6 671.9 L 1305.8 670.2 L 1311.1 668.1 L 1316.3 666.1 L 1321.6 663.9 L 1327.0 661.6 L 1332.3 659.3 L 1337.6 657.0 L 1343.0 654.8 L 1348.4 652.6 L 1353.7 650.4 L 1359.0 648.4 L 1364.3 646.6 L 1364.3 646.6 L 1369.7 644.8 L 1375.0 643.0 L 1380.2 641.3 L 1385.6 639.6 L 1391.0 637.9 L 1396.2 636.4 L 1401.6 634.7 L 1407.0 633.1 L 1412.4 631.4 L 1417.7 629.8 L 1423.1 628.2 L 1428.4 626.6 L 1433.7 624.9 L 1439.1 623.3 L 1444.5 621.7 L 1449.8 620.0 L 1449.8 620.0 L 1455.1 618.3 L 1460.5 616.6 L 1465.8 614.9 L 1471.1 613.2 L 1476.4 611.5 L 1481.8 609.8 L 1487.1 608.0 L 1492.4 606.4 L 1497.7 604.6 L 1503.1 602.8 L 1508.4 601.2 L 1513.7 599.4 L 1519.0 597.7 L 1524.4 596.0 L 1529.7 594.3 L 1535.0 592.5 L 1535.0 592.5 L 1540.3 590.9 L 1545.7 589.2 L 1551.0 587.4 L 1556.3 585.8 L 1561.7 584.1 L 1567.0 582.4 L 1572.3 580.7 L 1577.7 579.0 L 1583.0 577.3 L 1588.4 575.6 L 1593.7 574.0 L 1599.0 572.2 L 1604.4 570.5 L 1609.6 568.8 L 1615.0 567.0 L 1620.3 565.3 L 1620.3 565.3 L 1625.6 563.6 L 1630.9 561.8 L 1636.2 560.1 L 1641.5 558.2 L 1646.9 556.5 L 1652.2 554.7 L 1657.4 552.9 L 1662.8 551.1 L 1668.1 549.3 L 1673.4 547.5 L 1678.6 545.7 L 1683.9 543.9 L 1689.2 542.0 L 1694.5 540.2 L 1699.8 538.3 L 1705.0 536.5 L 1705.0 536.5 L 1710.3 534.6 L 1715.7 532.9 L 1721.0 531.0 L 1726.2 529.2 L 1731.5 527.3 L 1736.8 525.5 L 1742.1 523.7 L 1747.4 521.8 L 1752.6 519.9 L 1757.9 518.1 L 1763.2 516.2 L 1768.4 514.1 L 1773.7 512.2 L 1778.9 510.2 L 1784.1 508.1 L 1789.3 505.9 L 1789.3 505.9 L 1794.4 503.7 L 1799.6 501.5 L 1804.7 499.3 L 1809.8 497.1 L 1814.9 494.8 L 1820.0 492.4 L 1825.0 490.0 L 1830.1 487.6 L 1835.1 485.3 L 1840.2 482.8 L 1845.2 480.3 L 1850.2 477.8 L 1855.2 475.2 L 1860.1 472.7 L 1865.0 470.0 L 1870.0 467.4 L 1870.0 467.4 L 1874.9 464.7 L 1879.7 461.9 L 1884.6 459.1 L 1889.4 456.3 L 1894.2 453.4 L 1898.9 450.5 L 1903.7 447.5 L 1908.4 444.5 L 1913.2 441.5 L 1917.9 438.5 L 1922.6 435.5 L 1927.3 432.6 L 1932.1 429.5 L 1936.8 426.5 L 1941.5 423.5 L 1946.2 420.6 L 1946.2 420.6 L 1951.1 417.6 L 1955.8 414.7 L 1960.6 411.7 L 1965.3 408.8 L 1970.1 405.8 L 1974.8 402.9 L 1979.6 399.9 L 1984.4 397.0 L 1989.1 394.0 L 1993.9 391.0 L 1998.6 388.1 L 2000.0 387.2" fill="none" stroke="#a05bff" stroke-width="6.0" stroke-opacity="0.9"/><path d="M 1158.4 0.0 L 1154.2 0.7 L 1148.9 1.7 L 1143.6 2.8 L 1138.2 3.9 L 1132.9 5.0 L 1132.9 5.0 L 1127.6 6.3 L 1122.3 7.6 L 1117.0 8.9 L 1111.7 10.3 L 1106.5 11.8 L 1101.2 13.3 L 1096.0 14.8 L 1090.7 16.4 L 1085.5 18.1 L 1080.3 19.7 L 1075.1 21.4 L 1069.9 23.2 L 1064.8 24.9 L 1059.6 26.7 L 1054.5 28.5 L 1049.4 30.4 L 1049.4 30.4 L 1044.2 32.2 L 1039.1 34.2 L 1034.0 36.1 L 1028.9 38.1 L 1023.8 40.2 L 1018.8 42.3 L 1013.7 44.4 L 1008.7 46.5 L 1003.7 48.7 L 998.7 50.9 L 993.6 53.1 L 988.7 55.3 L 983.7 57.6 L 978.8 59.8 L 973.8 62.1 L 968.8 64.4 L 968.8 64.4 L 963.9 66.6 L 958.9 69.0 L 954.0 71.3 L 949.0 73.7 L 944.2 76.1 L 939.3 78.5 L 934.3 80.9 L 929.5 83.4 L 924.6 85.8 L 919.7 88.4 L 914.9 90.8 L 910.0 93.4 L 905.2 96.0 L 900.4 98.6 L 895.6 101.1 L 890.9 103.8 L 890.9 103.8 L 886.0 106.5 L 881.4 109.2 L 876.6 112.0 L 871.9 114.8 L 867.3 117.7 L 862.7 120.6 L 858.0 123.5 L 853.4 126.4 L 848.8 129.3 L 844.1 132.2 L 839.6 135.1 L 834.9 138.0 L 830.2 140.8 L 825.6 143.6 L 820.8 146.5 L 816.2 149.2 L 816.2 149.2 L 811.4 151.9 L 806.6 154.6 L 801.9 157.2 L 797.1 159.8 L 792.3 162.5 L 787.5 165.0 L 782.7 167.7 L 777.9 170.2 L 773.0 172.8 L 768.2 175.3 L 763.4 177.9 L 758.5 180.4 L 753.7 183.0 L 748.9 185.5 L 744.1 188.1 L 739.2 190.6 L 739.2 190.6 L 734.4 193.2 L 729.6 195.7 L 724.6 198.1 L 719.8 200.5 L 714.9 203.0 L 709.9 205.3 L 705.0 207.8 L 700.1 210.2 L 695.2 212.6 L 690.3 215.1 L 685.5 217.7 L 680.7 220.2 L 675.9 222.8 L 671.2 225.5 L 666.5 228.3 L 661.9 231.1 L 661.9 231.1 L 657.3 234.1 L 652.7 237.1 L 648.2 240.1 L 643.8 243.3 L 639.3 246.4 L 634.9 249.6 L 630.5 252.9 L 626.1 256.1 L 621.8 259.5 L 617.4 262.8 L 613.1 266.2 L 608.8 269.6 L 604.6 273.0 L 600.4 276.5 L 596.2 280.0 L 591.9 283.5 L 591.9 283.5 L 587.7 286.9 L 583.6 290.5 L 579.5 294.1 L 575.4 297.7 L 571.3 301.4 L 567.4 305.0 L 563.3 308.8 L 559.4 312.5 L 555.4 316.3 L 551.4 320.1 L 547.4 323.8 L 543.4 327.6 L 539.5 331.4 L 535.5 335.0 L 531.6 338.8 L 527.5 342.5 L 527.5 342.5 L 523.6 346.3 L 519.6 350.1 L 515.7 353.9 L 511.8 357.8 L 507.9 361.6 L 504.0 365.5 L 500.1 369.4 L 496.3 373.2 L 492.3 377.0 L 488.4 380.9 L 484.4 384.6 L 480.3 388.3 L 476.3 391.9 L 472.2 395.4 L 468.0 398.8 L 463.7 402.2 L 463.7 402.2 L 459.4 405.5 L 455.0 408.8 L 450.6 412.0 L 446.1 415.1 L 441.6 418.3 L 437.1 421.4 L 432.6 424.5 L 428.0 427.4 L 423.3 430.3 L 418.6 433.1 L 413.9 435.8 L 409.1 438.4 L 404.3 441.0 L 399.5 443.4 L 394.5 445.8 L 389.6 448.0 L 389.6 448.0 L 384.6 450.0 L 379.6 451.9 L 374.5 453.8 L 369.4 455.4 L 364.1 457.1 L 358.9 458.6 L 353.6 460.0 L 348.3 461.4 L 343.0 462.6 L 337.6 463.9 L 332.2 465.1 L 326.9 466.3 L 321.5 467.4 L 316.1 468.5 L 310.8 469.7 L 305.5 470.8 L 305.5 470.8 L 300.1 471.9 L 294.8 472.9 L 289.3 473.7 L 283.9 474.5 L 278.5 475.2 L 273.0 475.9 L 267.6 476.6 L 262.1 477.2 L 256.6 477.9 L 251.2 478.6 L 245.8 479.3 L 240.4 480.1 L 235.0 481.0 L 229.6 482.0 L 224.4 483.1 L 219.1 484.3 L 219.1 484.3 L 213.8 485.6 L 208.2 486.8 L 202.7 488.0 L 197.1 489.1 L 191.4 490.4 L 185.6 491.6 L 180.0 492.9 L 174.5 494.3 L 169.0 495.9 L 163.7 497.6 L 158.7 499.5 L 153.9 501.6 L 149.3 504.0 L 145.1 506.7 L 141.2 509.6 L 137.7 513.0 L 137.7 513.0 L 134.6 516.9 L 131.9 521.3 L 129.4 526.4 L 127.3 531.8 L 125.4 537.6 L 123.8 543.7 L 122.4 549.9 L 121.0 556.2 L 120.0 562.4 L 119.0 568.5 L 118.1 574.2 L 117.3 579.7 L 116.6 584.7 L 116.0 589.1 L 115.3 592.9 L 114.6 595.9" fill="none" stroke="#a05bff" stroke-width="6.0" stroke-opacity="0.9"/><path d="M 125.3 617.5 L 128.0 617.9 L 131.3 618.3 L 135.1 618.9 L 139.3 619.6 L 144.0 620.3 L 148.9 621.2 L 154.1 622.0 L 159.6 622.8 L 165.2 623.5 L 170.9 624.2 L 176.7 624.7 L 182.6 625.1 L 188.4 625.3 L 194.1 625.3 L 199.7 625.0 L 205.2 624.5 L 205.2 624.5 L 210.4 623.7 L 215.9 622.6 L 221.4 621.3 L 226.9 619.7 L 232.5 618.1 L 238.2 616.2 L 243.8 614.3 L 249.5 612.2 L 255.2 610.0 L 261.0 607.9 L 266.7 605.7 L 272.5 603.6 L 278.2 601.6 L 283.9 599.6 L 289.6 597.6 L 295.3 595.9 L 295.3 595.9 L 301.0 594.3 L 306.7 592.9 L 312.5 591.6 L 318.4 590.3 L 324.3 589.1 L 330.2 588.0 L 336.1 586.8 L 342.0 585.6 L 347.8 584.4 L 353.5 582.9 L 359.3 581.4 L 364.9 579.8 L 370.3 577.9 L 375.7 575.8 L 381.0 573.5 L 386.0 570.9 L 386.0 570.9 L 390.9 567.9 L 395.7 564.6 L 400.2 561.0 L 404.7 557.2 L 408.9 553.2 L 413.1 549.1 L 417.2 544.8 L 421.4 540.4 L 425.4 536.0 L 429.6 531.5 L 433.6 527.1 L 437.8 522.7 L 442.0 518.4 L 446.3 514.2 L 450.7 510.3 L 455.3 506.6 L 455.3 506.6 L 459.9 503.0 L 464.6 499.3 L 469.3 495.8 L 474.1 492.4 L 478.9 489.0 L 483.8 485.6 L 488.6 482.3 L 493.5 479.0 L 498.6 475.8 L 503.6 472.6 L 508.6 469.5 L 513.6 466.4 L 518.7 463.4 L 523.8 460.4 L 528.9 457.5 L 534.1 454.7 L 534.1 454.7 L 539.3 452.0 L 544.6 449.3 L 549.9 446.7 L 555.2 444.2 L 560.6 441.7 L 566.1 439.3 L 571.5 437.0 L 577.0 434.7 L 582.4 432.4 L 587.9 430.1 L 593.4 427.9 L 599.0 425.7 L 604.4 423.5 L 610.0 421.2 L 615.4 419.0 L 621.0 416.8 L 621.0 416.8 L 626.4 414.5 L 631.9 412.3 L 637.4 410.2 L 643.0 408.0 L 648.5 405.9 L 654.0 403.8 L 659.5 401.7 L 665.1 399.6 L 670.6 397.4 L 676.1 395.4 L 681.7 393.3 L 687.2 391.2 L 692.8 389.1 L 698.3 387.0 L 703.9 384.9 L 709.3 382.7 L 709.3 382.7 L 714.9 380.5 L 720.4 378.4 L 726.0 376.4 L 731.7 374.4 L 737.2 372.4 L 742.8 370.4 L 748.5 368.4 L 754.1 366.4 L 759.7 364.3 L 765.2 362.2 L 770.7 360.0 L 776.1 357.7 L 781.5 355.2 L 786.8 352.7 L 792.0 350.0 L 797.1 347.2 L 797.1 347.2 L 802.2 344.2 L 807.2 341.1 L 812.0 337.8 L 816.8 334.3 L 821.5 330.8 L 826.2 327.2 L 830.8 323.5 L 835.3 319.8 L 839.9 316.0 L 844.5 312.2 L 849.1 308.4 L 853.6 304.6 L 858.2 300.9 L 862.9 297.2 L 867.5 293.6 L 872.3 290.1 L 872.3 290.1 L 877.0 286.6 L 881.7 283.0 L 886.5 279.4 L 891.1 275.7 L 895.8 272.1 L 900.5 268.4 L 905.2 264.8 L 910.0 261.2 L 914.7 257.7 L 919.5 254.3 L 924.3 250.9 L 929.2 247.8 L 934.2 244.7 L 939.3 241.8 L 944.4 239.0 L 949.6 236.6 L 949.6 236.6 L 954.9 234.2 L 960.4 232.1 L 965.8 230.2 L 971.5 228.3 L 977.1 226.6 L 982.8 225.0 L 988.6 223.6 L 994.4 222.2 L 1000.2 220.9 L 1006.1 219.8 L 1012.0 218.5 L 1017.8 217.4 L 1023.7 216.3 L 1029.6 215.2 L 1035.4 214.0 L 1041.3 212.9 L 1041.3 212.9 L 1047.0 211.8 L 1052.8 210.6 L 1058.7 209.6 L 1064.5 208.5 L 1070.3 207.5 L 1076.2 206.6 L 1082.0 205.6 L 1087.9 204.7 L 1093.8 203.9 L 1099.6 203.0 L 1105.5 202.3 L 1111.4 201.6 L 1117.3 200.9 L 1123.2 200.3 L 1129.1 199.7 L 1134.9 199.2 L 1134.9 199.2 L 1140.8 198.6 L 1146.8 198.2 L 1152.7 197.9 L 1158.6 197.4 L 1164.5 197.2 L 1170.4 196.9 L 1176.3 196.6 L 1182.2 196.4 L 1188.2 196.3 L 1194.1 196.2 L 1200.1 196.1 L 1206.0 196.1 L 1211.9 196.1 L 1217.8 196.1 L 1223.7 196.2 L 1229.6 196.4 L 1229.6 196.4 L 1235.7 196.4 L 1242.2 196.4 L 1249.0 196.2 L 1256.1 195.9 L 1263.3 195.7 L 1270.4 195.5 L 1277.5 195.3 L 1284.5 195.3 L 1291.2 195.4 L 1297.5 195.7 L 1303.5 196.3 L 1308.9 197.1 L 1313.7 198.2 L 1317.8 199.6 L 1321.0 201.5 L 1323.4 203.8 L 1323.4 203.8 L 1324.9 206.6 L 1325.6 209.9 L 1325.7 213.7 L 1325.1 217.9 L 1323.9 222.5 L 1322.2 227.3 L 1320.1 232.4 L 1317.6 237.5 L 1314.8 242.8 L 1311.6 248.1 L 1308.2 253.4 L 1304.7 258.6 L 1301.1 263.6 L 1297.4 268.3 L 1293.8 272.8 L 1290.2 277.0 L 1290.2 277.0 L 1286.6 280.8 L 1282.6 284.5 L 1278.3 288.1 L 1273.8 291.7 L 1269.1 295.1 L 1264.2 298.4 L 1259.1 301.7 L 1254.0 304.9 L 1248.7 308.0 L 1243.3 311.1 L 1237.9 314.2 L 1232.5 317.3 L 1227.1 320.3 L 1221.8 323.3 L 1216.6 326.4 L 1211.4 329.4 L 1211.4 329.4 L 1206.3 332.5 L 1201.2 335.5 L 1196.1 338.4 L 1190.9 341.3 L 1185.8 344.2 L 1180.6 347.0 L 1175.4 349.8 L 1170.1 352.6 L 1164.9 355.4 L 1159.7 358.2 L 1154.4 361.0 L 1149.2 363.8 L 1144.0 366.6 L 1138.8 369.5 L 1133.7 372.4 L 1128.6 375.3 L 1128.6 375.3 L 1123.4 378.3 L 1118.3 381.2 L 1113.2 384.2 L 1108.0 387.1 L 1102.9 390.1 L 1097.8 393.1 L 1092.6 396.1 L 1087.5 399.2 L 1082.5 402.2 L 1077.4 405.3 L 1072.3 408.4 L 1067.3 411.4 L 1062.3 414.5 L 1057.3 417.7 L 1052.3 420.8 L 1047.2 424.0 L 1047.2 424.0 L 1042.3 427.2 L 1037.4 430.4 L 1032.5 433.8 L 1027.5 437.0 L 1022.6 440.4 L 1017.8 443.7 L 1012.9 447.2 L 1008.1 450.5 L 1003.2 453.9 L 998.3 457.4 L 993.5 460.7 L 988.6 464.1 L 983.8 467.5 L 978.9 470.9 L 974.0 474.3 L 969.1 477.6 L 969.1 477.6 L 964.2 480.9 L 959.3 484.2 L 954.4 487.6 L 949.5 490.9 L 944.6 494.2 L 939.7 497.6 L 934.8 500.8 L 929.9 504.2 L 925.0 507.4 L 920.1 510.8 L 915.2 514.0 L 910.1 517.3 L 905.2 520.5 L 900.2 523.7 L 895.2 526.9 L 890.2 530.0 L 890.2 530.0 L 885.1 533.1 L 880.0 536.1 L 874.9 539.1 L 869.8 542.1 L 864.7 545.1 L 859.5 548.0 L 854.4 550.9 L 849.2 553.8 L 844.0 556.7 L 838.9 559.6 L 833.8 562.5 L 828.6 565.4 L 823.5 568.4 L 818.4 571.3 L 813.2 574.3 L 808.1 577.4 L 808.1 577.4 L 803.0 580.5 L 797.9 583.5 L 792.8 586.5 L 787.7 589.4 L 782.5 592.4 L 777.4 595.4 L 772.2 598.3 L 767.1 601.4 L 762.1 604.4 L 757.1 607.6 L 752.1 610.8 L 747.2 614.0 L 742.3 617.4 L 737.6 620.8 L 732.8 624.3 L 728.2 628.0 L 728.2 628.0 L 723.8 631.8 L 719.4 635.7 L 715.1 639.8 L 711.0 643.9 L 706.9 648.2 L 702.8 652.6 L 698.8 657.0 L 694.9 661.4 L 690.9 665.8 L 687.1 670.3 L 683.1 674.7 L 679.1 679.2 L 675.2 683.6 L 671.1 687.9 L 667.1 692.2 L 662.9 696.5 L 662.9 696.5 L 658.7 700.6 L 654.5 704.8 L 650.4 709.1 L 646.2 713.4 L 642.1 717.7 L 638.0 722.0 L 633.7 726.3 L 629.6 730.4 L 625.3 734.7 L 621.0 738.7 L 616.7 742.7 L 612.2 746.5 L 607.7 750.2 L 603.1 753.8 L 598.4 757.3 L 593.5 760.5 L 593.5 760.5 L 588.6 763.5 L 583.5 766.4 L 578.3 769.1 L 573.0 771.5 L 567.6 773.9 L 562.2 776.2 L 556.6 778.3 L 551.1 780.4 L 545.5 782.4 L 539.8 784.5 L 534.2 786.4 L 528.7 788.4 L 523.0 790.4 L 517.5 792.6 L 511.9 794.7 L 506.5 797.0 L 506.5 797.0 L 501.0 799.2 L 495.6 801.4 L 490.0 803.6 L 484.5 805.7 L 478.9 807.8 L 473.4 809.9 L 467.8 812.0 L 462.4 814.2 L 456.8 816.4 L 451.4 818.6 L 446.0 821.0 L 440.7 823.4 L 435.5 826.0 L 430.3 828.7 L 425.2 831.5 L 420.2 834.5 L 420.2 834.5 L 415.3 837.8 L 410.5 841.1 L 405.9 844.7 L 401.3 848.4 L 396.8 852.3 L 392.4 856.3 L 388.0 860.2 L 383.6 864.4 L 379.3 868.5 L 375.0 872.6 L 370.7 876.7 L 366.3 880.8 L 361.9 884.8 L 357.5 888.7 L 352.9 892.6 L 348.3 896.3 L 348.3 896.3 L 343.6 899.9 L 338.8 903.4 L 333.9 906.8 L 329.0 910.1 L 324.0 913.4 L 319.0 916.6 L 313.9 919.9 L 308.9 923.1 L 303.9 926.3 L 299.0 929.7 L 294.0 933.0 L 289.2 936.4 L 284.5 940.0 L 280.0 943.6 L 275.5 947.4 L 271.2 951.2 L 271.2 951.2 L 266.7 955.3 L 262.0 959.5 L 257.2 963.8 L 252.2 968.3 L 247.2 972.9 L 242.2 977.5 L 237.4 982.3 L 232.7 987.0 L 228.4 991.7 L 224.4 996.5 L 221.7 1000.0" fill="none" stroke="#a05bff" stroke-width="6.0" stroke-opacity="0.9"/></g><g id="clips"><circle cx="414.8" cy="1000.0" r="2" fill="none" stroke="#0b5" stroke-width="0.6"/><circle cx="2000.0" cy="387.2" r="2" fill="none" stroke="#0b5" stroke-width="0.6"/><circle cx="1158.4" cy="0.0" r="2" fill="none" stroke="#0b5" stroke-width="0.6"/><circle cx="114.6" cy="595.9" r="2" fill="none" stroke="#0b5" stroke-width="0.6"/><circle cx="125.3" cy="617.5" r="2" fill="none" stroke="#0b5" stroke-width="0.6"/><circle cx="221.7" cy="1000.0" r="2" fill="none" stroke="#0b5" stroke-width="0.6"/></g><g id="power"><circle cx="221.8" cy="1000.0" r="5" fill="none" stroke="#e33" stroke-width="1"/><circle cx="414.9" cy="1000.0" r="5" fill="none" stroke="#e33" stroke-width="1"/><circle cx="1158.7" cy="0.0" r="5" fill="none" stroke="#e33" stroke-width="1"/><circle cx="2000.0" cy="387.2" r="5" fill="none" stroke="#e33" stroke-width="1"/></g><g id="bridges"><circle cx="119.9" cy="606.7" r="9" fill="none" stroke="#e6a817" stroke-width="1.5"/><circle cx="119.9" cy="606.7" r="9" fill="none" stroke="#e6a817" stroke-width="1.5"/></g></svg>