<svg xmlns="http://www.w3.org/2000/svg" width="2000mm" height="1000mm" viewBox="0 0 2000 1000"><g id="outline"><rect x="0" y="0" width="2000" height="1000" fill="none" stroke="#000" stroke-width="1"/></g><g id="channels"><path d="M 435.7 1000.0 L 435.9 993.7 L 436.0 986.8 L 436.1 980.0 L 436.1 973.2 L 436.1 966.3 L 436.0 959.5 L 435.9 952.6 L 435.8 945.8 L 435.6 939.0 L 435.3 932.2 L 435.1 925.3 L 434.8 918.5 L 434.8 918.5 L 434.4 911.7 L 433.9 904.9 L 433.3 898.1 L 432.6 891.3 L 431.8 884.5 L 431.0 877.7 L 430.2 870.9 L 429.4 864.1 L 428.5 857.3 L 427.7 850.5 L 426.9 843.7 L 426.1 836.9 L 425.5 830.1 L 424.9 823.3 L 424.3 816.5 L 423.9 809.7 L 423.9 809.7 L 423.6 802.7 L 423.4 795.3 L 423.2 787.7 L 423.1 779.9 L 423.1 771.9 L 423.1 764.0 L 423.1 756.1 L 423.2 748.3 L 423.3 740.7 L 423.3 733.4 L 423.4 726.5 L 423.5 720.1 L 423.6 714.2 L 423.7 708.9 L 423.7 704.3 L 423.8 700.5" fill="none" stroke="#39ff88" stroke-width="6.0" stroke-opacity="0.9"/><path d="M 469.7 694.9 L 473.3 695.4 L 477.7 696.0 L 482.7 696.7 L 488.3 697.4 L 494.5 698.3 L 501.0 699.2 L 507.9 700.1 L 515.1 701.1 L 522.5 702.1 L 530.1 703.1 L 537.7 704.1 L 545.2 705.0 L 552.7 705.9 L 560.0 706.7 L 567.0 707.5 L 573.7 708.1 L 573.7 708.1 L 580.2 708.7 L 586.8 709.2 L 593.3 709.6 L 599.9 710.0 L 606.4 710.3 L 613.0 710.7 L 619.5 710.9 L 626.1 711.2 L 632.6 711.5 L 639.2 711.8 L 645.7 712.1 L 652.3 712.5 L 658.8 712.9 L 665.3 713.3 L 671.9 713.9 L 678.4 714.5 L 678.4 714.5 L 684.9 715.1 L 691.4 715.7 L 698.0 716.2 L 704.5 716.8 L 711.1 717.4 L 717.7 717.9 L 724.2 718.6 L 730.8 719.3 L 737.3 720.0 L 743.8 720.9 L 750.3 721.8 L 756.7 722.9 L 763.1 724.1 L 769.4 725.5 L 775.7 727.1 L 782.0 728.8 L 782.0 728.8 L 788.1 730.7 L 794.2 733.0 L 800.2 735.4 L 806.2 738.1 L 812.1 740.9 L 818.0 743.8 L 823.8 746.9 L 829.7 750.0 L 835.5 753.1 L 841.3 756.2 L 847.2 759.3 L 853.0 762.3 L 858.9 765.1 L 864.9 767.9 L 870.9 770.5 L 876.9 772.8 L 876.9 772.8 L 883.2 775.2 L 889.6 777.7 L 896.3 780.2 L 903.1 782.9 L 910.0 785.6 L 916.9 788.2 L 923.8 790.7 L 930.6 793.0 L 937.4 795.2 L 943.9 797.1 L 950.2 798.8 L 956.3 800.0 L 962.1 800.9 L 967.4 801.3 L 972.4 801.2 L 976.9 800.6 L 976.9 800.6 L 980.7 799.3 L 983.9 797.2 L 986.5 794.5 L 988.6 791.3 L 990.3 787.6 L 991.8 783.5 L 993.0 779.2 L 994.2 774.7 L 995.4 770.1 L 996.7 765.5 L 998.2 761.0 L 1000.0 756.7 L 1002.1 752.7 L 1004.8 749.0 L 1008.1 745.8 L 1012.0 743.2 L 1012.0 743.2 L 1016.8 741.1 L 1022.4 739.3 L 1028.7 737.8 L 1035.6 736.6 L 1042.8 735.6 L 1050.4 734.7 L 1058.2 734.0 L 1066.1 733.4 L 1073.8 732.8 L 1081.4 732.2 L 1088.6 731.6 L 1095.4 731.0 L 1101.6 730.2 L 1107.1 729.2 L 1111.8 728.1 L 1115.5 726.7 L 1115.5 726.7 L 1118.3 725.1 L 1120.4 723.4 L 1121.8 721.6 L 1122.6 719.6 L 1122.9 717.6 L 1122.7 715.5 L 1122.2 713.4 L 1121.5 711.2 L 1120.5 709.0 L 1119.4 706.8 L 1118.2 704.6 L 1117.1 702.5 L 1116.1 700.4 L 1115.3 698.4 L 1114.7 696.5 L 1114.5 694.7 L 1114.5 694.7 L 1114.4 693.0 L 1114.2 691.4 L 1113.8 689.8 L 1113.3 688.4 L 1112.7 686.9 L 1112.2 685.5 L 1111.7 684.1 L 1111.2 682.8 L 1110.9 681.4 L 1110.7 680.0 L 1110.8 678.6 L 1111.0 677.2 L 1111.6 675.7 L 1112.5 674.1 L 1113.7 672.5 L 1115.3 670.7 L 1115.3 670.7 L 1117.6 668.9 L 1120.9 666.8 L 1124.9 664.6 L 1129.6 662.4 L 1134.6 660.0 L 1140.0 657.6 L 1145.4 655.2 L 1150.8 652.8 L 1156.0 650.4 L 1160.9 648.1 L 1165.2 645.9 L 1168.8 643.9 L 1171.6 642.0 L 1173.3 640.3 L 1173.9 638.8 L 1173.2 637.6 L 1173.2 637.6 L 1170.8 636.7 L 1166.8 636.2 L 1161.4 636.0 L 1154.8 636.0 L 1147.3 636.2 L 1139.0 636.6 L 1130.3 637.0 L 1121.3 637.5 L 1112.3 638.0 L 1103.6 638.3 L 1095.2 638.6 L 1087.6 638.6 L 1080.8 638.5 L 1075.2 638.0 L 1071.0 637.1 L 1068.4 635.9 L 1068.4 635.9 L 1067.5 634.2 L 1068.2 632.1 L 1070.2 629.6 L 1073.3 626.8 L 1077.2 623.7 L 1081.9 620.5 L 1087.0 617.1 L 1092.4 613.7 L 1097.7 610.2 L 1102.9 606.8 L 1107.7 603.5 L 1111.8 600.4 L 1115.1 597.5 L 1117.4 594.9 L 1118.3 592.7 L 1117.8 590.9 L 1117.8 590.9 L 1115.9 589.5 L 1112.8 588.4 L 1108.8 587.6 L 1103.9 587.1 L 1098.3 586.8 L 1092.2 586.7 L 1085.5 586.7 L 1078.5 586.7 L 1071.3 586.8 L 1064.0 586.9 L 1056.7 586.9 L 1049.6 586.9 L 1042.8 586.7 L 1036.4 586.3 L 1030.5 585.6 L 1025.4 584.7 L 1025.4 584.7 L 1020.7 583.5 L 1016.5 581.8 L 1012.5 579.9 L 1008.7 577.7 L 1005.1 575.3 L 1001.7 572.8 L 998.3 570.3 L 995.0 567.8 L 991.7 565.4 L 988.3 563.2 L 984.9 561.2 L 981.3 559.5 L 977.4 558.2 L 973.4 557.3 L 969.0 556.9 L 964.3 557.1 L 964.3 557.1 L 959.3 557.9 L 954.1 559.4 L 948.7 561.3 L 943.1 563.7 L 937.3 566.5 L 931.4 569.6 L 925.4 573.0 L 919.3 576.5 L 913.1 580.0 L 906.8 583.6 L 900.5 587.1 L 894.2 590.4 L 887.8 593.5 L 881.5 596.3 L 875.2 598.7 L 869.0 600.7 L 869.0 600.7 L 862.8 602.3 L 856.5 603.9 L 850.2 605.3 L 843.8 606.7 L 837.4 607.9 L 830.9 608.9 L 824.4 609.9 L 817.9 610.7 L 811.4 611.4 L 804.9 611.9 L 798.4 612.3 L 791.9 612.5 L 785.4 612.6 L 778.9 612.6 L 772.5 612.4 L 766.1 612.0 L 766.1 612.0 L 759.7 611.4 L 753.3 610.6 L 746.9 609.6 L 740.5 608.4 L 734.1 607.1 L 727.7 605.6 L 721.3 603.9 L 714.9 602.2 L 708.6 600.3 L 702.2 598.4 L 695.9 596.4 L 689.6 594.3 L 683.3 592.2 L 677.1 590.0 L 670.9 587.9 L 664.7 585.8 L 664.7 585.8 L 658.5 583.6 L 652.4 581.2 L 646.4 578.8 L 640.4 576.2 L 634.4 573.6 L 628.4 570.9 L 622.4 568.2 L 616.5 565.4 L 610.5 562.6 L 604.6 559.8 L 598.6 557.0 L 592.7 554.3 L 586.7 551.6 L 580.7 548.9 L 574.7 546.3 L 568.6 543.8 L 568.6 543.8 L 562.5 541.4 L 556.5 538.8 L 550.4 536.1 L 544.3 533.4 L 538.2 530.7 L 532.1 528.0 L 526.0 525.3 L 519.9 522.8 L 513.8 520.3 L 507.6 517.9 L 501.4 515.7 L 495.3 513.7 L 489.1 511.9 L 482.9 510.3 L 476.6 509.0 L 470.4 508.0 L 470.4 508.0 L 464.0 507.2 L 457.4 506.4 L 450.8 505.8 L 444.0 505.2 L 437.2 504.9 L 430.3 504.7 L 423.4 504.6 L 416.6 504.8 L 409.9 505.3 L 403.3 505.9 L 396.8 506.9 L 390.5 508.1 L 384.4 509.7 L 378.6 511.6 L 373.1 513.9 L 367.9 516.6 L 367.9 516.6 L 362.9 519.7 L 358.2 523.3 L 353.6 527.3 L 349.2 531.7 L 345.0 536.5 L 341.0 541.6 L 337.1 546.9 L 333.4 552.4 L 329.9 558.2 L 326.5 564.0 L 323.3 570.0 L 320.2 576.1 L 317.4 582.1 L 314.6 588.2 L 312.1 594.2 L 309.7 600.1 L 309.7 600.1 L 307.5 606.0 L 305.5 612.1 L 303.9 618.3 L 302.4 624.5 L 301.1 630.9 L 300.0 637.4 L 299.0 643.9 L 298.2 650.5 L 297.5 657.1 L 296.8 663.8 L 296.2 670.5 L 295.7 677.2 L 295.1 683.8 L 294.6 690.4 L 294.0 697.0 L 293.3 703.6 L 293.3 703.6 L 292.7 710.1 L 292.1 716.6 L 291.6 723.1 L 291.1 729.7 L 290.6 736.2 L 290.2 742.7 L 289.9 749.3 L 289.6 755.8 L 289.3 762.4 L 289.0 769.0 L 288.8 775.5 L 288.6 782.1 L 288.4 788.6 L 288.2 795.2 L 288.0 801.7 L 287.8 808.3 L 287.8 808.3 L 287.7 814.9 L 287.9 821.7 L 288.2 828.6 L 288.6 835.6 L 289.1 842.6 L 289.6 849.6 L 290.1 856.6 L 290.6 863.6 L 290.9 870.5 L 291.2 877.2 L 291.2 883.8 L 291.1 890.2 L 290.7 896.4 L 290.0 902.3 L 289.0 907.9 L 287.5 913.2 L 287.5 913.2 L 285.7 918.4 L 283.6 923.7 L 281.2 929.0 L 278.5 934.4 L 275.6 939.6 L 272.4 944.7 L 269.1 949.6 L 265.6 954.2 L 262.0 958.4 L 258.3 962.2 L 254.6 965.5 L 250.8 968.2 L 247.0 970.2 L 243.2 971.5 L 239.5 972.1 L 235.8 971.8 L 235.8 971.8 L 232.2 970.5 L 228.4 968.3 L 224.5 965.1 L 220.5 961.2 L 216.5 956.6 L 212.4 951.4 L 208.3 945.8 L 204.2 939.7 L 200.0 933.3 L 195.9 926.8 L 191.8 920.2 L 187.7 913.5 L 183.7 907.0 L 179.8 900.7 L 176.0 894.6 L 172.3 889.0 L 172.3 889.0 L 168.6 883.6 L 165.0 878.1 L 161.5 872.6 L 157.9 867.1 L 154.5 861.5 L 151.0 855.9 L 147.6 850.3 L 144.2 844.7 L 140.9 839.0 L 137.6 833.3 L 134.4 827.6 L 131.2 821.8 L 128.1 816.1 L 125.0 810.3 L 121.9 804.5 L 118.9 798.7 L 118.9 798.7 L 115.9 792.9 L 112.9 787.0 L 109.8 781.2 L 106.8 775.3 L 103.7 769.4 L 100.7 763.5 L 97.8 757.6 L 94.9 751.6 L 92.2 745.6 L 89.5 739.6 L 87.0 733.6 L 84.7 727.5 L 82.5 721.4 L 80.5 715.2 L 78.7 709.0 L 77.2 702.8 L 77.2 702.8 L 75.9 696.5 L 74.8 690.2 L 73.9 683.8 L 73.2 677.3 L 72.6 670.8 L 72.2 664.3 L 72.0 657.8 L 71.9 651.2 L 71.8 644.6 L 71.9 638.0 L 72.1 631.4 L 72.4 624.8 L 72.7 618.2 L 73.1 611.7 L 73.5 605.1 L 73.9 598.6 L 73.9 598.6 L 74.4 592.1 L 75.0 585.7 L 75.7 579.2 L 76.6 572.7 L 77.5 566.2 L 78.5 559.7 L 79.6 553.2 L 80.8 546.8 L 82.0 540.3 L 83.3 533.8 L 84.5 527.4 L 85.8 520.9 L 87.1 514.5 L 88.4 508.0 L 89.7 501.6 L 90.9 495.1 L 90.9 495.1 L 92.2 488.7 L 93.4 482.3 L 94.6 475.8 L 95.8 469.4 L 97.1 462.9 L 98.3 456.5 L 99.6 450.1 L 100.9 443.6 L 102.3 437.2 L 103.7 430.8 L 105.1 424.4 L 106.6 418.0 L 108.2 411.7 L 109.8 405.3 L 111.4 399.0 L 113.2 392.7 L 113.2 392.7 L 115.1 386.4 L 117.1 380.2 L 119.2 374.0 L 121.4 367.8 L 123.7 361.7 L 126.1 355.5 L 128.5 349.4 L 130.9 343.3 L 133.3 337.2 L 135.7 331.1 L 138.0 324.9 L 140.3 318.8 L 142.4 312.6 L 144.5 306.4 L 146.4 300.2 L 148.2 293.9 L 148.2 293.9 L 149.9 287.6 L 151.6 281.3 L 153.3 274.9 L 155.0 268.6 L 156.6 262.2 L 158.2 255.8 L 159.6 249.4 L 161.1 243.0 L 162.4 236.5 L 163.6 230.1 L 164.6 223.7 L 165.6 217.2 L 166.3 210.8 L 166.9 204.3 L 167.4 197.9 L 167.6 191.4 L 167.6 191.4 L 167.6 185.0 L 167.4 178.6 L 167.0 172.1 L 166.4 165.6 L 165.6 159.1 L 164.7 152.7 L 163.7 146.2 L 162.5 139.7 L 161.3 133.2 L 160.1 126.7 L 158.8 120.2 L 157.4 113.8 L 156.1 107.3 L 154.9 100.8 L 153.6 94.4 L 152.5 87.9 L 152.5 87.9 L 151.3 81.5 L 150.0 75.0 L 148.6 68.6 L 147.0 62.2 L 145.5 55.8 L 143.9 49.4 L 142.3 42.9 L 140.7 36.5 L 139.2 30.1 L 137.7 23.7 L 136.4 17.3 L 135.2 10.9 L 134.2 4.5 L 133.6 0.0" fill="none" stroke="#39ff88" stroke-width="6.0" stroke-opacity="0.9"/><path d="M 94.0 559.3 L 95.9 555.7 L 98.1 551.4 L 100.8 546.5 L 103.7 541.0 L 106.9 534.9 L 110.3 528.5 L 113.9 521.7 L 117.7 514.7 L 121.5 507.4 L 125.4 500.0 L 129.4 492.5 L 133.2 485.1 L 137.1 477.7 L 140.8 470.6 L 144.3 463.6 L 147.7 457.0 L 147.7 457.0 L 150.9 450.6 L 154.2 444.1 L 157.5 437.7 L 160.7 431.2 L 164.0 424.7 L 167.2 418.3 L 170.4 411.8 L 173.6 405.3 L 176.8 398.8 L 179.9 392.3 L 183.0 385.8 L 186.1 379.3 L 189.1 372.7 L 192.1 366.2 L 195.1 359.6 L 198.0 353.0 L 198.0 353.0 L 200.8 346.4 L 203.7 339.7 L 206.6 333.1 L 209.5 326.4 L 212.4 319.8 L 215.2 313.1 L 218.0 306.4 L 220.8 299.7 L 223.5 293.0 L 226.1 286.2 L 228.6 279.4 L 231.0 272.6 L 233.3 265.8 L 235.4 258.9 L 237.4 252.1 L 239.3 245.2 L 239.3 245.2 L 241.0 238.2 L 242.6 231.2 L 244.1 224.2 L 245.5 217.1 L 246.7 210.1 L 247.9 203.0 L 248.9 195.8 L 249.9 188.7 L 250.8 181.5 L 251.6 174.4 L 252.3 167.2 L 253.0 160.0 L 253.6 152.8 L 254.2 145.6 L 254.7 138.4 L 255.2 131.3 L 255.2 131.3 L 255.5 124.1 L 255.6 116.9 L 255.4 109.6 L 255.1 102.3 L 254.6 95.0 L 254.1 87.6 L 253.5 80.3 L 253.0 73.0 L 252.5 65.7 L 252.1 58.4 L 251.9 51.2 L 251.8 44.0 L 252.1 36.9 L 252.6 29.8 L 253.4 22.8 L 254.7 15.9 L 254.7 15.9 L 256.3 9.1 L 258.2 2.3 L 258.9 0.0" fill="none" stroke="#39ff88" stroke-width="6.0" stroke-opacity="0.9"/></g><g id="clips"><circle cx="435.7" cy="1000.0" r="2" fill="none" stroke="#0b5" stroke-width="0.6"/><circle cx="423.8" cy="700.5" r="2" fill="none" stroke="#0b5" stroke-width="0.6"/><circle cx="469.7" cy="694.9" r="2" fill="none" stroke="#0b5" stroke-width="0.6"/><circle cx="133.6" cy="0.0" r="2" fill="none" stroke="#0b5" stroke-width="0.6"/><circle cx="94.0" cy="559.3" r="2" fill="none" stroke="#0b5" stroke-width="0.6"/><circle cx="258.9" cy="0.0" r="2" fill="none" stroke="#0b5" stroke-width="0.6"/></g><g id="power"><circle cx="435.7" cy="1000.0" r="5" fill="none" stroke="#e33" stroke-width="1"/><circle cx="133.6" cy="0.0" r="5" fill="none" stroke="#e33" stroke-width="1"/><circle cx="258.9" cy="0.0" r="5" fill="none" stroke="#e33" stroke-width="1"/></g><g id="bridges"><circle cx="1129.9" cy="649.7" r="9" fill="none" stroke="#e6a817" stroke-width="1.5"/><circle cx="1129.9" cy="649.7" r="9" fill="none" stroke="#e6a817" stroke-width="1.5"/><circle cx="85.3" cy="566.0" r="9" fill="none" stroke="#e6a817" stroke-width="1.5"/><circle cx="85.3" cy="566.0" r="9" fill="none" stroke="#e6a817" stroke-width="1.5"/><circle cx="92.6" cy="537.0" r="9" fill="none" stroke="#e6a817" stroke-width="1.5"/></g></svg>