<svg xmlns="http://www.w3.org/2000/svg" width="2000mm" height="1000mm" viewBox="0 0 2000 1000"><g id="outline"><rect x="0" y="0" width="2000" height="1000" fill="none" stroke="#000" stroke-width="1"/></g><g id="channels"><path d="M 1585.4 1000.0 L 1579.9 996.2 L 1574.1 992.1 L 1568.5 987.8 L 1563.0 983.5 L 1563.0 983.5 L 1557.7 978.9 L 1552.6 974.1 L 1547.7 969.0 L 1543.0 963.8 L 1538.4 958.4 L 1533.9 952.8 L 1529.5 947.2 L 1525.1 941.4 L 1520.7 935.7 L 1516.3 929.9 L 1511.9 924.2 L 1507.4 918.5 L 1502.9 913.0 L 1498.2 907.6 L 1493.4 902.3 L 1488.4 897.3 L 1488.4 897.3 L 1483.2 892.4 L 1478.0 887.6 L 1472.6 883.0 L 1467.2 878.3 L 1461.8 873.8 L 1456.2 869.3 L 1450.7 864.9 L 1445.0 860.5 L 1439.4 856.2 L 1433.7 851.9 L 1428.0 847.5 L 1422.4 843.2 L 1416.7 838.9 L 1411.0 834.6 L 1405.4 830.2 L 1399.8 825.8 L 1399.8 825.8 L 1394.2 821.4 L 1388.6 817.0 L 1383.0 812.6 L 1377.4 808.2 L 1371.7 803.9 L 1366.0 799.6 L 1360.4 795.2 L 1354.7 790.9 L 1349.1 786.5 L 1343.4 782.2 L 1337.8 777.8 L 1332.2 773.4 L 1326.6 769.0 L 1321.1 764.5 L 1315.5 760.0 L 1310.0 755.5 L 1310.0 755.5 L 1304.6 750.9 L 1299.1 746.3 L 1293.8 741.6 L 1288.4 736.8 L 1283.1 732.1 L 1277.8 727.3 L 1272.5 722.5 L 1267.3 717.7 L 1262.0 712.9 L 1256.7 708.1 L 1251.4 703.3 L 1246.1 698.6 L 1240.7 693.9 L 1235.3 689.2 L 1229.8 684.7 L 1224.4 680.1 L 1224.4 680.1 L 1218.8 675.6 L 1213.4 671.0 L 1207.9 666.3 L 1202.4 661.5 L 1197.0 656.8 L 1191.5 652.1 L 1185.9 647.4 L 1180.4 642.8 L 1174.8 638.3 L 1169.1 633.9 L 1163.4 629.7 L 1157.5 625.7 L 1151.6 621.9 L 1145.6 618.4 L 1139.5 615.1 L 1133.3 612.1 L 1133.3 612.1 L 1126.9 609.4 L 1120.4 607.0 L 1113.7 604.9 L 1107.0 603.0 L 1100.2 601.3 L 1093.3 599.8 L 1086.3 598.5 L 1079.2 597.3 L 1072.2 596.2 L 1065.0 595.2 L 1057.9 594.3 L 1050.8 593.4 L 1043.6 592.5 L 1036.5 591.6 L 1029.4 590.7 L 1022.4 589.8 L 1022.4 589.8 L 1015.4 588.9 L 1008.3 588.1 L 1001.2 587.5 L 994.1 587.0 L 987.0 586.6 L 979.9 586.2 L 972.7 585.9 L 965.6 585.6 L 958.5 585.3 L 951.3 584.9 L 944.2 584.5 L 937.1 584.0 L 930.0 583.4 L 922.9 582.6 L 915.9 581.7 L 908.9 580.6 L 908.9 580.6 L 901.9 579.3 L 894.9 577.8 L 888.0 576.2 L 881.1 574.5 L 874.2 572.7 L 867.3 570.9 L 860.5 568.9 L 853.6 566.9 L 846.8 564.9 L 839.9 562.8 L 833.1 560.8 L 826.2 558.7 L 819.4 556.7 L 812.5 554.8 L 805.6 552.9 L 798.7 551.1 L 798.7 551.1 L 791.8 549.4 L 784.9 547.6 L 778.0 545.7 L 771.1 543.9 L 764.2 542.1 L 757.3 540.3 L 750.4 538.5 L 743.4 536.7 L 736.5 535.0 L 729.6 533.3 L 722.7 531.7 L 715.7 530.1 L 708.7 528.7 L 701.8 527.3 L 694.8 526.0 L 687.8 524.8 L 687.8 524.8 L 680.7 523.8 L 673.7 522.8 L 666.6 521.9 L 659.5 521.1 L 652.5 520.3 L 645.4 519.7 L 638.2 519.0 L 631.1 518.5 L 624.0 518.0 L 616.9 517.5 L 609.7 517.1 L 602.6 516.8 L 595.5 516.5 L 588.3 516.2 L 581.2 515.9 L 574.1 515.7 L 574.1 515.7 L 567.0 515.5 L 559.9 515.2 L 552.7 515.0 L 545.6 514.8 L 538.4 514.7 L 531.3 514.6 L 524.1 514.5 L 516.9 514.5 L 509.8 514.6 L 502.7 514.7 L 495.5 514.9 L 488.4 515.3 L 481.3 515.7 L 474.3 516.3 L 467.2 517.0 L 460.2 517.9 L 460.2 517.9 L 453.1 519.0 L 446.1 520.5 L 439.1 522.3 L 432.1 524.3 L 425.1 526.6 L 418.1 528.9 L 411.1 531.3 L 404.1 533.7 L 397.2 536.1 L 390.3 538.3 L 383.4 540.3 L 376.5 542.0 L 369.7 543.4 L 362.9 544.5 L 356.2 545.0 L 349.5 545.1 L 349.5 545.1 L 342.9 544.8 L 336.2 544.1 L 329.5 543.2 L 322.8 542.0 L 316.2 540.6 L 309.6 538.9 L 303.0 537.0 L 296.4 534.9 L 290.0 532.6 L 283.6 530.0 L 277.3 527.3 L 271.0 524.4 L 264.9 521.3 L 258.9 518.1 L 253.0 514.7 L 247.2 511.2 L 247.2 511.2 L 241.7 507.4 L 236.3 503.2 L 231.1 498.6 L 226.1 493.7 L 221.2 488.6 L 216.4 483.3 L 211.7 477.9 L 207.0 472.3 L 202.4 466.7 L 197.7 461.1 L 192.9 455.5 L 188.1 450.1 L 183.2 444.7 L 178.2 439.6 L 172.9 434.7 L 167.5 430.1 L 167.5 430.1 L 161.9 425.8 L 156.1 421.7 L 150.1 417.8 L 143.9 414.1 L 137.7 410.5 L 131.3 407.0 L 124.9 403.6 L 118.5 400.1 L 112.2 396.7 L 105.9 393.2 L 99.7 389.6 L 93.6 385.9 L 87.6 382.0 L 81.9 378.0 L 76.4 373.7 L 71.2 369.1 L 71.2 369.1 L 66.0 364.4 L 60.8 359.5 L 55.5 354.4 L 50.2 349.3 L 45.0 344.0 L 39.8 338.6 L 34.9 333.1 L 30.1 327.5 L 25.5 321.8 L 21.3 316.0 L 17.4 310.1 L 13.9 304.2 L 10.8 298.2 L 8.2 292.2 L 6.1 286.1 L 4.6 279.9 L 4.6 279.9 L 3.7 273.4 L 3.2 266.4 L 3.2 258.8 L 3.7 251.0 L 4.5 242.8 L 5.7 234.6 L 7.3 226.4 L 9.2 218.3 L 11.4 210.5 L 13.9 203.0 L 16.7 195.9 L 19.6 189.5 L 22.8 183.8 L 26.2 178.9 L 29.7 175.0 L 33.3 172.1 L 33.3 172.1 L 37.2 170.2 L 41.5 169.3 L 46.2 169.2 L 51.2 169.8 L 56.5 171.1 L 62.0 173.0 L 67.8 175.4 L 73.7 178.1 L 79.7 181.3 L 85.9 184.7 L 92.1 188.2 L 98.3 191.9 L 104.4 195.5 L 110.5 199.1 L 116.5 202.5 L 122.3 205.7 L 122.3 205.7 L 128.0 208.9 L 133.8 212.3 L 139.6 215.9 L 145.4 219.7 L 151.2 223.7 L 157.1 227.8 L 163.0 231.9 L 168.8 236.2 L 174.8 240.5 L 180.7 244.8 L 186.6 249.1 L 192.5 253.5 L 198.5 257.7 L 204.5 261.9 L 210.4 266.0 L 216.4 269.9 L 216.4 269.9 L 222.3 273.9 L 228.3 277.8 L 234.2 281.8 L 240.2 285.9 L 246.1 289.9 L 252.0 293.9 L 258.0 297.9 L 264.0 301.9 L 270.0 305.8 L 276.0 309.6 L 282.1 313.4 L 288.2 317.0 L 294.4 320.5 L 300.6 323.8 L 306.9 327.0 L 313.3 330.1 L 313.3 330.1 L 319.8 333.0 L 326.3 335.8 L 332.8 338.5 L 339.4 341.1 L 346.1 343.6 L 352.8 346.0 L 359.6 348.3 L 366.4 350.5 L 373.2 352.6 L 380.1 354.5 L 387.0 356.4 L 393.9 358.1 L 400.8 359.8 L 407.7 361.3 L 414.6 362.7 L 421.6 364.0 L 421.6 364.0 L 428.5 365.1 L 435.5 366.0 L 442.6 366.8 L 449.6 367.4 L 456.7 367.9 L 463.9 368.3 L 471.0 368.6 L 478.1 368.8 L 485.3 368.9 L 492.5 368.9 L 499.7 369.0 L 506.8 368.9 L 514.0 368.9 L 521.2 368.8 L 528.3 368.8 L 535.4 368.7 L 535.4 368.7 L 542.5 368.7 L 549.7 368.5 L 556.8 368.3 L 563.9 368.1 L 571.0 367.8 L 578.2 367.4 L 585.3 367.1 L 592.4 366.6 L 599.5 366.2 L 606.7 365.8 L 613.8 365.4 L 620.9 364.9 L 628.0 364.5 L 635.1 364.2 L 642.3 363.8 L 649.4 363.5 L 649.4 363.5 L 656.5 363.2 L 663.7 363.0 L 670.8 362.8 L 677.9 362.5 L 685.0 362.3 L 692.2 362.1 L 699.3 361.9 L 706.4 361.8 L 713.5 361.6 L 720.7 361.4 L 727.8 361.1 L 734.9 360.9 L 742.1 360.7 L 749.2 360.4 L 756.3 360.1 L 763.4 359.8 L 763.4 359.8 L 770.6 359.5 L 777.7 359.2 L 784.8 358.9 L 791.9 358.5 L 799.1 358.2 L 806.2 357.8 L 813.3 357.5 L 820.4 357.1 L 827.5 356.7 L 834.7 356.3 L 841.8 355.8 L 848.9 355.4 L 856.0 354.9 L 863.1 354.4 L 870.2 353.8 L 877.3 353.2 L 877.3 353.2 L 884.4 352.6 L 891.5 351.8 L 898.6 350.9 L 905.7 350.0 L 912.8 349.0 L 919.9 348.0 L 927.0 347.0 L 934.1 345.9 L 941.2 345.0 L 948.3 344.0 L 955.3 343.2 L 962.4 342.4 L 969.5 341.7 L 976.6 341.2 L 983.6 340.8 L 990.7 340.6 L 990.7 340.6 L 997.8 340.5 L 1004.9 340.5 L 1012.0 340.5 L 1019.1 340.6 L 1026.2 340.7 L 1033.3 341.0 L 1040.4 341.3 L 1047.5 341.7 L 1054.6 342.3 L 1061.7 342.9 L 1068.7 343.7 L 1075.8 344.5 L 1082.7 345.6 L 1089.7 346.7 L 1096.6 348.0 L 1103.5 349.5 L 1103.5 349.5 L 1110.3 351.2 L 1117.2 353.0 L 1123.9 355.1 L 1130.7 357.3 L 1137.4 359.6 L 1144.1 362.1 L 1150.7 364.7 L 1157.4 367.4 L 1164.0 370.1 L 1170.6 373.0 L 1177.2 375.8 L 1183.8 378.7 L 1190.4 381.6 L 1197.0 384.4 L 1203.6 387.3 L 1210.1 390.1 L 1210.1 390.1 L 1216.7 392.8 L 1223.2 395.7 L 1229.8 398.5 L 1236.3 401.4 L 1242.8 404.3 L 1249.3 407.2 L 1255.7 410.2 L 1262.2 413.2 L 1268.7 416.2 L 1275.1 419.2 L 1281.6 422.3 L 1288.0 425.3 L 1294.4 428.4 L 1300.9 431.5 L 1307.3 434.6 L 1313.7 437.7 L 1313.7 437.7 L 1320.1 440.8 L 1326.5 444.0 L 1332.9 447.2 L 1339.2 450.4 L 1345.6 453.7 L 1351.9 456.9 L 1358.2 460.2 L 1364.5 463.5 L 1370.9 466.8 L 1377.2 470.1 L 1383.5 473.4 L 1389.9 476.6 L 1396.2 479.8 L 1402.6 483.0 L 1409.0 486.2 L 1415.4 489.3 L 1415.4 489.3 L 1421.9 492.3 L 1428.4 495.3 L 1434.8 498.2 L 1441.4 501.1 L 1447.9 504.0 L 1454.4 506.8 L 1461.0 509.7 L 1467.5 512.5 L 1474.1 515.3 L 1480.6 518.2 L 1487.1 521.1 L 1493.7 523.9 L 1500.2 526.9 L 1506.6 529.8 L 1513.1 532.8 L 1519.5 535.9 L 1519.5 535.9 L 1525.9 539.1 L 1532.3 542.2 L 1538.7 545.5 L 1545.0 548.7 L 1551.3 552.0 L 1557.6 555.3 L 1564.0 558.7 L 1570.2 562.0 L 1576.5 565.4 L 1582.8 568.7 L 1589.1 572.1 L 1595.4 575.4 L 1601.7 578.8 L 1608.0 582.1 L 1614.4 585.4 L 1620.7 588.6 L 1620.7 588.6 L 1627.1 591.8 L 1633.4 595.1 L 1639.8 598.3 L 1646.2 601.5 L 1652.5 604.7 L 1658.9 607.9 L 1665.3 611.1 L 1671.7 614.2 L 1678.1 617.4 L 1684.5 620.6 L 1690.9 623.7 L 1697.3 626.9 L 1703.7 630.0 L 1710.1 633.1 L 1716.5 636.2 L 1722.9 639.4 L 1722.9 639.4 L 1729.3 642.5 L 1735.8 645.5 L 1742.2 648.6 L 1748.6 651.7 L 1755.1 654.7 L 1761.5 657.8 L 1768.0 660.8 L 1774.4 663.9 L 1780.9 666.9 L 1787.3 669.9 L 1793.8 672.9 L 1800.2 676.0 L 1806.7 679.0 L 1813.2 682.0 L 1819.6 685.0 L 1826.1 688.1 L 1826.1 688.1 L 1832.5 691.1 L 1839.0 694.1 L 1845.4 697.2 L 1851.9 700.2 L 1858.4 703.2 L 1864.8 706.2 L 1871.3 709.2 L 1877.7 712.2 L 1884.2 715.3 L 1890.7 718.3 L 1897.1 721.3 L 1903.6 724.3 L 1910.0 727.3 L 1916.5 730.4 L 1923.0 733.4 L 1929.4 736.5 L 1929.4 736.5 L 1935.8 739.5 L 1942.3 742.6 L 1948.7 745.6 L 1955.2 748.7 L 1961.6 751.7 L 1968.0 754.8 L 1974.5 757.9 L 1980.9 761.0 L 1987.4 764.0 L 1993.8 767.1 L 2000.0 770.1" fill="none" stroke="#ff7a1a" stroke-width="6.0" stroke-opacity="0.9"/><path d="M 1136.7 696.0 L 1133.1 697.5 L 1128.8 699.3 L 1123.9 701.2 L 1118.3 703.4 L 1112.2 705.8 L 1105.7 708.4 L 1098.9 711.1 L 1091.8 714.0 L 1084.6 717.0 L 1077.2 720.1 L 1069.9 723.3 L 1062.7 726.6 L 1055.7 730.0 L 1049.0 733.5 L 1042.6 737.0 L 1036.7 740.5 L 1036.7 740.5 L 1031.0 744.1 L 1025.2 747.7 L 1019.4 751.3 L 1013.6 755.1 L 1007.8 758.9 L 1002.1 762.8 L 996.5 766.9 L 991.0 771.0 L 985.7 775.2 L 980.5 779.6 L 975.5 784.1 L 970.8 788.8 L 966.3 793.6 L 962.2 798.6 L 958.3 803.8 L 954.8 809.1 L 954.8 809.1 L 951.8 814.8 L 949.5 821.1 L 947.7 827.7 L 946.4 834.7 L 945.4 841.9 L 944.7 849.4 L 944.1 856.9 L 943.6 864.4 L 943.1 871.8 L 942.5 879.1 L 941.6 886.1 L 940.3 892.8 L 938.7 899.1 L 936.5 904.9 L 933.7 910.2 L 930.2 914.8 L 930.2 914.8 L 926.1 918.7 L 921.4 922.3 L 916.3 925.4 L 910.7 928.1 L 904.8 930.4 L 898.6 932.5 L 892.2 934.3 L 885.5 935.8 L 878.6 937.2 L 871.7 938.4 L 864.6 939.4 L 857.6 940.4 L 850.6 941.3 L 843.6 942.2 L 836.8 943.1 L 830.2 944.1 L 830.2 944.1 L 823.6 945.0 L 817.0 945.6 L 810.3 946.0 L 803.5 946.2 L 796.7 946.2 L 789.8 946.2 L 783.0 946.0 L 776.1 945.9 L 769.2 945.7 L 762.3 945.5 L 755.3 945.4 L 748.5 945.5 L 741.6 945.7 L 734.8 946.0 L 728.0 946.6 L 721.2 947.4 L 721.2 947.4 L 714.5 948.6 L 707.8 950.2 L 701.1 952.1 L 694.4 954.3 L 687.7 956.6 L 681.0 959.1 L 674.4 961.6 L 667.7 964.1 L 661.1 966.5 L 654.5 968.8 L 647.9 970.8 L 641.4 972.6 L 634.8 974.0 L 628.4 975.1 L 621.9 975.6 L 615.5 975.6 L 615.5 975.6 L 609.1 975.2 L 602.6 974.4 L 595.9 973.4 L 589.3 972.1 L 582.6 970.6 L 575.9 968.8 L 569.3 966.7 L 562.7 964.4 L 556.3 961.9 L 550.0 959.1 L 544.0 956.1 L 538.1 952.9 L 532.5 949.5 L 527.1 945.8 L 522.1 942.0 L 517.4 937.9 L 517.4 937.9 L 512.8 933.4 L 508.2 928.3 L 503.5 922.6 L 498.8 916.5 L 494.3 910.0 L 489.9 903.3 L 485.8 896.4 L 482.0 889.4 L 478.6 882.5 L 475.6 875.7 L 473.2 869.1 L 471.4 862.9 L 470.3 857.1 L 469.9 851.8 L 470.3 847.2 L 471.5 843.2 L 471.5 843.2 L 473.8 839.9 L 477.1 837.2 L 481.4 834.8 L 486.4 832.9 L 492.2 831.4 L 498.5 830.2 L 505.4 829.2 L 512.7 828.5 L 520.2 827.9 L 528.0 827.4 L 535.9 827.0 L 543.7 826.6 L 551.5 826.2 L 559.0 825.7 L 566.3 825.0 L 573.1 824.2 L 573.1 824.2 L 579.7 823.4 L 586.4 822.7 L 593.1 822.1 L 599.9 821.6 L 606.7 821.1 L 613.6 820.7 L 620.5 820.4 L 627.4 820.0 L 634.3 819.5 L 641.2 819.1 L 648.0 818.5 L 654.9 817.8 L 661.7 817.0 L 668.5 816.1 L 675.2 815.0 L 681.8 813.6 L 681.8 813.6 L 688.5 812.2 L 695.1 810.6 L 701.8 809.0 L 708.4 807.2 L 715.0 805.4 L 721.6 803.5 L 728.2 801.5 L 734.8 799.4 L 741.3 797.1 L 747.7 794.8 L 754.1 792.3 L 760.4 789.7 L 766.7 787.0 L 772.8 784.1 L 778.9 781.1 L 784.8 778.0 L 784.8 778.0 L 790.6 774.6 L 796.4 771.1 L 802.1 767.5 L 807.7 763.6 L 813.3 759.7 L 818.7 755.6 L 824.1 751.4 L 829.5 747.0 L 834.8 742.6 L 840.0 738.1 L 845.2 733.6 L 850.3 729.0 L 855.4 724.3 L 860.4 719.7 L 865.4 715.0 L 870.3 710.3 L 870.3 710.3 L 875.3 705.4 L 880.5 700.1 L 885.7 694.6 L 891.0 688.8 L 896.3 682.9 L 901.5 676.9 L 906.7 670.9 L 911.7 664.9 L 916.6 659.1 L 921.3 653.5 L 925.7 648.1 L 929.8 643.1 L 933.6 638.5 L 937.0 634.4 L 940.0 630.9 L 942.5 628.0" fill="none" stroke="#ff7a1a" stroke-width="6.0" stroke-opacity="0.9"/><path d="M 1230.8 356.7 L 1233.8 354.1 L 1237.3 350.8 L 1241.4 346.9 L 1245.8 342.5 L 1250.7 337.7 L 1256.0 332.6 L 1261.5 327.3 L 1267.3 321.9 L 1273.3 316.5 L 1279.5 311.2 L 1285.7 306.1 L 1292.1 301.3 L 1298.4 296.9 L 1304.7 293.0 L 1310.9 289.7 L 1317.0 287.2 L 1317.0 287.2 L 1323.1 285.2 L 1329.4 283.4 L 1335.8 282.0 L 1342.4 280.8 L 1349.1 279.9 L 1355.9 279.3 L 1362.8 278.9 L 1369.6 278.8 L 1376.5 279.0 L 1383.4 279.4 L 1390.2 280.1 L 1396.9 281.1 L 1403.5 282.3 L 1410.0 283.8 L 1416.3 285.6 L 1422.5 287.6 L 1422.5 287.6 L 1428.5 290.0 L 1434.3 292.8 L 1440.1 296.0 L 1445.8 299.6 L 1451.3 303.6 L 1456.9 307.8 L 1462.3 312.2 L 1467.7 316.9 L 1473.1 321.6 L 1478.4 326.5 L 1483.7 331.4 L 1489.0 336.4 L 1494.2 341.3 L 1499.5 346.1 L 1504.8 350.8 L 1510.1 355.4 L 1510.1 355.4 L 1515.4 359.8 L 1520.6 364.3 L 1525.9 368.8 L 1531.1 373.4 L 1536.4 378.0 L 1541.5 382.6 L 1546.7 387.2 L 1551.9 391.8 L 1557.0 396.5 L 1562.1 401.2 L 1567.2 405.9 L 1572.3 410.7 L 1577.4 415.4 L 1582.4 420.2 L 1587.4 425.0 L 1592.4 429.8 L 1592.4 429.8 L 1597.4 434.6 L 1602.4 439.4 L 1607.3 444.3 L 1612.3 449.1 L 1617.2 454.0 L 1622.1 458.9 L 1627.0 463.9 L 1631.8 468.8 L 1636.7 473.8 L 1641.5 478.8 L 1646.3 483.8 L 1651.1 488.8 L 1655.9 493.8 L 1660.6 498.9 L 1665.4 503.9 L 1670.1 509.0 L 1670.1 509.0 L 1674.9 514.3 L 1680.0 519.8 L 1685.2 525.6 L 1690.4 531.5 L 1695.8 537.5 L 1701.1 543.6 L 1706.4 549.7 L 1711.6 555.6 L 1716.7 561.4 L 1721.5 567.0 L 1726.1 572.3 L 1730.4 577.2 L 1734.3 581.8 L 1737.8 585.8 L 1740.9 589.4 L 1743.4 592.3" fill="none" stroke="#ff7a1a" stroke-width="6.0" stroke-opacity="0.9"/></g><g id="clips"><circle cx="1585.4" cy="1000.0" r="2" fill="none" stroke="#0b5" stroke-width="0.6"/><circle cx="2000.0" cy="770.1" r="2" fill="none" stroke="#0b5" stroke-width="0.6"/><circle cx="1136.7" cy="696.0" r="2" fill="none" stroke="#0b5" stroke-width="0.6"/><circle cx="942.5" cy="628.0" r="2" fill="none" stroke="#0b5" stroke-width="0.6"/><circle cx="1230.8" cy="356.7" r="2" fill="none" stroke="#0b5" stroke-width="0.6"/><circle cx="1743.4" cy="592.3" r="2" fill="none" stroke="#0b5" stroke-width="0.6"/></g><g id="power"><circle cx="1585.3" cy="1000.0" r="5" fill="none" stroke="#e33" stroke-width="1"/><circle cx="2000.0" cy="770.1" r="5" fill="none" stroke="#e33" stroke-width="1"/></g><g id="bridges"></g></svg>