<svg xmlns="http://www.w3.org/2000/svg" width="2000mm" height="1000mm" viewBox="0 0 2000 1000"><g id="outline"><rect x="0" y="0" width="2000" height="1000" fill="none" stroke="#000" stroke-width="1"/></g><g id="channels"><path d="M 1553.0 515.7 L 1556.2 517.0 L 1560.1 518.6 L 1564.5 520.5 L 1569.4 522.7 L 1574.8 525.1 L 1580.6 527.6 L 1586.7 530.3 L 1593.0 533.0 L 1599.6 535.7 L 1606.3 538.4 L 1613.0 541.0 L 1619.7 543.4 L 1626.4 545.7 L 1633.0 547.8 L 1639.3 549.5 L 1645.5 551.0 L 1645.5 551.0 L 1651.6 552.1 L 1658.0 553.0 L 1664.6 553.5 L 1671.3 553.9 L 1678.1 554.1 L 1685.0 554.1 L 1691.8 554.1 L 1698.6 554.0 L 1705.3 553.9 L 1711.8 553.9 L 1718.1 553.9 L 1724.1 554.1 L 1729.8 554.5 L 1735.1 555.0 L 1739.9 555.8 L 1744.3 556.9 L 1744.3 556.9 L 1748.4 558.3 L 1752.5 559.9 L 1756.4 561.8 L 1760.2 563.8 L 1763.8 566.0 L 1767.2 568.3 L 1770.3 570.7 L 1773.0 573.1 L 1775.4 575.6 L 1777.3 578.1 L 1778.8 580.5 L 1779.7 582.9 L 1780.1 585.2 L 1779.8 587.4 L 1778.9 589.4 L 1777.3 591.2 L 1777.3 591.2 L 1774.6 592.9 L 1770.5 594.3 L 1765.3 595.7 L 1759.2 596.9 L 1752.3 598.0 L 1744.9 599.1 L 1737.1 600.1 L 1729.0 601.1 L 1721.0 602.2 L 1713.2 603.3 L 1705.7 604.4 L 1698.8 605.7 L 1692.7 607.1 L 1687.5 608.6 L 1683.5 610.3 L 1680.7 612.2 L 1680.7 612.2 L 1679.3 614.3 L 1678.9 616.6 L 1679.4 619.1 L 1680.7 621.6 L 1682.7 624.3 L 1685.2 627.1 L 1688.1 630.0 L 1691.3 632.9 L 1694.7 635.9 L 1698.2 638.9 L 1701.6 641.9 L 1704.8 644.8 L 1707.6 647.7 L 1710.1 650.6 L 1711.9 653.3 L 1713.1 656.0 L 1713.1 656.0 L 1713.9 658.6 L 1714.5 661.3 L 1715.0 664.0 L 1715.4 666.7 L 1715.7 669.4 L 1715.8 672.1 L 1715.8 674.8 L 1715.5 677.4 L 1715.1 680.0 L 1714.5 682.5 L 1713.7 684.9 L 1712.7 687.3 L 1711.5 689.5 L 1710.0 691.6 L 1708.2 693.6 L 1706.2 695.4 L 1706.2 695.4 L 1703.7 696.9 L 1700.4 698.2 L 1696.5 699.1 L 1692.0 699.8 L 1687.2 700.4 L 1682.1 700.8 L 1676.9 701.2 L 1671.7 701.6 L 1666.6 702.0 L 1661.8 702.6 L 1657.3 703.4 L 1653.4 704.3 L 1650.0 705.6 L 1647.5 707.1 L 1645.7 709.1 L 1645.0 711.6 L 1645.0 711.6 L 1645.6 714.6 L 1647.4 718.4 L 1650.4 722.8 L 1654.2 727.6 L 1658.8 732.9 L 1663.8 738.3 L 1669.2 743.9 L 1674.8 749.5 L 1680.3 755.0 L 1685.5 760.3 L 1690.3 765.3 L 1694.5 769.8 L 1697.8 773.8 L 1700.1 777.0 L 1701.2 779.5 L 1700.9 781.1 L 1700.9 781.1 L 1699.2 781.7 L 1696.2 781.4 L 1692.3 780.3 L 1687.4 778.6 L 1681.7 776.4 L 1675.5 773.6 L 1668.7 770.6 L 1661.7 767.3 L 1654.4 763.9 L 1647.1 760.5 L 1639.9 757.2 L 1632.9 754.1 L 1626.3 751.3 L 1620.3 748.9 L 1614.9 747.0 L 1610.4 745.8 L 1610.4 745.8 L 1606.5 745.1 L 1602.9 744.6 L 1599.7 744.3 L 1596.7 744.3 L 1593.9 744.5 L 1591.4 744.8 L 1589.0 745.3 L 1586.8 745.9 L 1584.7 746.6 L 1582.7 747.4 L 1580.7 748.3 L 1578.7 749.3 L 1576.6 750.3 L 1574.5 751.2 L 1572.3 752.2 L 1570.0 753.1 L 1570.0 753.1 L 1567.7 754.3 L 1565.6 755.8 L 1563.5 757.6 L 1561.6 759.6 L 1559.7 761.7 L 1557.9 764.0 L 1556.1 766.2 L 1554.2 768.4 L 1552.2 770.5 L 1550.1 772.3 L 1547.9 773.9 L 1545.5 775.2 L 1542.9 776.0 L 1540.1 776.3 L 1536.9 776.1 L 1533.5 775.2 L 1533.5 775.2 L 1529.8 773.7 L 1525.8 771.5 L 1521.5 768.7 L 1517.1 765.3 L 1512.4 761.6 L 1507.6 757.5 L 1502.7 753.2 L 1497.6 748.6 L 1492.4 744.0 L 1487.1 739.3 L 1481.7 734.7 L 1476.3 730.1 L 1470.9 725.8 L 1465.5 721.8 L 1460.0 718.1 L 1454.7 714.8 L 1454.7 714.8 L 1449.3 711.9 L 1443.8 709.0 L 1438.3 706.3 L 1432.7 703.6 L 1427.1 701.0 L 1421.4 698.6 L 1415.7 696.2 L 1409.9 693.9 L 1404.0 691.7 L 1398.2 689.6 L 1392.3 687.6 L 1386.4 685.7 L 1380.5 683.9 L 1374.5 682.3 L 1368.5 680.7 L 1362.6 679.2 L 1362.6 679.2 L 1356.6 677.8 L 1350.6 676.7 L 1344.5 675.7 L 1338.4 674.8 L 1332.2 674.1 L 1326.0 673.4 L 1319.8 672.9 L 1313.6 672.4 L 1307.4 672.0 L 1301.2 671.6 L 1294.9 671.2 L 1288.7 670.8 L 1282.5 670.4 L 1276.2 669.9 L 1270.0 669.3 L 1263.8 668.7 L 1263.8 668.7 L 1257.7 668.0 L 1251.5 667.4 L 1245.3 666.8 L 1239.1 666.2 L 1233.0 665.5 L 1226.8 664.9 L 1220.6 664.3 L 1214.4 663.7 L 1208.2 663.0 L 1202.1 662.3 L 1195.9 661.6 L 1189.7 660.9 L 1183.6 660.1 L 1177.4 659.3 L 1171.3 658.4 L 1165.2 657.5 L 1165.2 657.5 L 1159.0 656.5 L 1152.9 655.5 L 1146.8 654.4 L 1140.7 653.2 L 1134.6 652.0 L 1128.5 650.8 L 1122.5 649.5 L 1116.4 648.2 L 1110.3 646.9 L 1104.2 645.6 L 1098.1 644.3 L 1092.1 643.0 L 1086.0 641.8 L 1079.9 640.5 L 1073.8 639.3 L 1067.7 638.1 L 1067.7 638.1 L 1061.6 636.9 L 1055.5 635.7 L 1049.4 634.5 L 1043.3 633.3 L 1037.3 632.0 L 1031.2 630.8 L 1025.1 629.6 L 1019.0 628.4 L 1012.9 627.3 L 1006.8 626.1 L 1000.7 625.0 L 994.6 623.9 L 988.4 622.8 L 982.3 621.8 L 976.2 620.8 L 970.1 619.9 L 970.1 619.9 L 963.9 619.0 L 957.8 618.1 L 951.6 617.3 L 945.5 616.5 L 939.3 615.7 L 933.1 614.9 L 927.0 614.2 L 920.8 613.5 L 914.6 612.9 L 908.4 612.2 L 902.2 611.6 L 896.1 611.0 L 889.9 610.5 L 883.7 610.0 L 877.5 609.5 L 871.3 609.0 L 871.3 609.0 L 865.1 608.5 L 858.9 608.1 L 852.7 607.7 L 846.5 607.4 L 840.3 607.0 L 834.1 606.7 L 827.9 606.4 L 821.7 606.2 L 815.5 605.9 L 809.3 605.7 L 803.1 605.6 L 796.9 605.4 L 790.7 605.3 L 784.5 605.2 L 778.3 605.1 L 772.0 605.0 L 772.0 605.0 L 765.8 605.0 L 759.6 605.1 L 753.4 605.2 L 747.2 605.3 L 741.0 605.5 L 734.8 605.8 L 728.6 606.0 L 722.4 606.3 L 716.2 606.5 L 710.0 606.8 L 703.8 607.0 L 697.5 607.2 L 691.3 607.4 L 685.1 607.5 L 678.9 607.6 L 672.7 607.6 L 672.7 607.6 L 666.5 607.6 L 660.3 607.6 L 654.1 607.6 L 647.9 607.6 L 641.7 607.6 L 635.4 607.6 L 629.2 607.5 L 623.0 607.4 L 616.8 607.3 L 610.6 607.1 L 604.4 606.9 L 598.2 606.7 L 592.0 606.4 L 585.8 606.0 L 579.6 605.6 L 573.4 605.1 L 573.4 605.1 L 567.3 604.6 L 561.1 604.0 L 554.9 603.4 L 548.7 602.7 L 542.6 602.0 L 536.4 601.3 L 530.2 600.5 L 524.1 599.6 L 517.9 598.8 L 511.8 597.8 L 505.6 596.9 L 499.5 595.9 L 493.4 594.8 L 487.3 593.7 L 481.2 592.6 L 475.1 591.4 L 475.1 591.4 L 469.0 590.2 L 462.9 589.0 L 456.7 587.8 L 450.6 586.6 L 444.5 585.4 L 438.3 584.1 L 432.2 582.8 L 426.1 581.4 L 420.1 579.9 L 414.0 578.4 L 408.0 576.7 L 402.1 575.0 L 396.2 573.1 L 390.4 571.1 L 384.6 568.9 L 379.0 566.6 L 379.0 566.6 L 373.3 564.2 L 367.7 561.7 L 362.1 559.0 L 356.6 556.3 L 351.0 553.4 L 345.5 550.5 L 340.1 547.4 L 334.7 544.2 L 329.4 541.0 L 324.2 537.6 L 319.0 534.1 L 314.0 530.5 L 309.0 526.8 L 304.2 523.1 L 299.5 519.2 L 294.9 515.2 L 294.9 515.2 L 290.4 511.0 L 286.0 506.7 L 281.8 502.3 L 277.7 497.7 L 273.7 493.0 L 269.8 488.2 L 266.0 483.3 L 262.3 478.3 L 258.6 473.2 L 254.9 468.1 L 251.4 463.0 L 247.8 457.8 L 244.3 452.6 L 240.8 447.4 L 237.3 442.3 L 233.7 437.2 L 233.7 437.2 L 230.3 432.0 L 226.9 426.8 L 223.6 421.6 L 220.4 416.3 L 217.3 410.9 L 214.1 405.5 L 211.1 400.1 L 208.0 394.7 L 204.9 389.3 L 201.8 383.9 L 198.7 378.5 L 195.6 373.1 L 192.3 367.8 L 189.1 362.5 L 185.7 357.3 L 182.2 352.2 L 182.2 352.2 L 178.7 347.1 L 175.2 342.0 L 171.6 336.9 L 168.0 331.8 L 164.4 326.7 L 160.8 321.7 L 157.1 316.7 L 153.3 311.7 L 149.5 306.8 L 145.7 301.9 L 141.8 297.1 L 137.8 292.3 L 133.8 287.6 L 129.7 283.0 L 125.5 278.4 L 121.3 274.0 L 121.3 274.0 L 116.9 269.6 L 112.5 265.3 L 108.0 261.0 L 103.4 256.9 L 98.8 252.8 L 94.1 248.7 L 89.3 244.8 L 84.5 240.8 L 79.6 236.9 L 74.7 233.1 L 69.8 229.3 L 64.8 225.5 L 59.8 221.8 L 54.9 218.1 L 49.9 214.4 L 44.9 210.7 L 44.9 210.7 L 39.9 207.1 L 34.8 203.5 L 29.7 200.0 L 24.5 196.5 L 19.4 193.1 L 14.2 189.7 L 8.9 186.3 L 3.7 183.0 L 0.0 180.7" fill="none" stroke="#ff7a1a" stroke-width="6.0" stroke-opacity="0.9"/><path d="M 369.4 0.0 L 372.0 2.7 L 376.9 7.8 L 381.9 13.0 L 386.8 18.2 L 391.7 23.3 L 396.7 28.5 L 401.6 33.6 L 406.6 38.7 L 406.6 38.7 L 411.6 43.8 L 416.6 48.9 L 421.6 53.9 L 426.7 59.0 L 431.8 64.0 L 436.9 69.1 L 441.9 74.1 L 446.9 79.2 L 452.0 84.3 L 456.9 89.4 L 461.8 94.6 L 466.7 99.8 L 471.4 105.1 L 476.1 110.4 L 480.7 115.8 L 485.2 121.3 L 485.2 121.3 L 489.6 126.9 L 493.9 132.5 L 498.2 138.2 L 502.3 144.0 L 506.4 149.8 L 510.4 155.7 L 514.4 161.6 L 518.3 167.6 L 522.2 173.6 L 526.0 179.6 L 529.9 185.6 L 533.7 191.6 L 537.5 197.7 L 541.3 203.7 L 545.1 209.7 L 548.9 215.7 L 548.9 215.7 L 552.7 221.8 L 556.4 227.9 L 560.0 234.0 L 563.6 240.2 L 567.1 246.4 L 570.7 252.7 L 574.2 258.9 L 577.7 265.2 L 581.2 271.4 L 584.8 277.6 L 588.4 283.7 L 592.1 289.8 L 595.9 295.8 L 599.8 301.7 L 603.8 307.6 L 607.9 313.4 L 607.9 313.4 L 612.1 319.1 L 616.4 324.8 L 620.7 330.5 L 625.1 336.2 L 629.5 341.9 L 634.0 347.5 L 638.6 353.0 L 643.2 358.5 L 648.0 363.9 L 652.8 369.2 L 657.7 374.4 L 662.7 379.5 L 667.8 384.4 L 673.0 389.1 L 678.3 393.7 L 683.7 398.1 L 683.7 398.1 L 689.3 402.4 L 695.0 406.5 L 700.8 410.5 L 706.8 414.4 L 712.9 418.2 L 719.0 421.8 L 725.3 425.3 L 731.6 428.7 L 738.0 432.0 L 744.4 435.1 L 751.0 438.1 L 757.5 441.0 L 764.1 443.7 L 770.7 446.3 L 777.4 448.7 L 784.0 451.0 L 784.0 451.0 L 790.7 453.1 L 797.5 455.0 L 804.3 456.7 L 811.2 458.2 L 818.2 459.5 L 825.2 460.8 L 832.3 461.9 L 839.4 462.8 L 846.5 463.7 L 853.6 464.6 L 860.8 465.3 L 867.9 466.1 L 875.1 466.8 L 882.2 467.5 L 889.3 468.3 L 896.4 469.1 L 896.4 469.1 L 903.5 469.8 L 910.6 470.5 L 917.7 471.1 L 924.8 471.6 L 931.9 472.1 L 939.0 472.5 L 946.1 472.9 L 953.3 473.2 L 960.4 473.6 L 967.5 474.0 L 974.6 474.3 L 981.8 474.7 L 988.9 475.2 L 996.0 475.7 L 1003.1 476.2 L 1010.2 476.8 L 1010.2 476.8 L 1017.3 477.5 L 1024.4 478.2 L 1031.5 478.9 L 1038.6 479.6 L 1045.7 480.3 L 1052.8 481.0 L 1059.9 481.8 L 1067.0 482.6 L 1074.1 483.4 L 1081.1 484.3 L 1088.2 485.2 L 1095.3 486.1 L 1102.4 487.0 L 1109.4 488.0 L 1116.5 489.0 L 1123.5 490.0 L 1123.5 490.0 L 1130.6 491.1 L 1137.6 492.3 L 1144.6 493.5 L 1151.6 494.9 L 1158.6 496.2 L 1165.6 497.6 L 1172.6 499.0 L 1179.6 500.4 L 1186.6 501.9 L 1193.6 503.3 L 1200.6 504.6 L 1207.6 506.0 L 1214.7 507.2 L 1221.7 508.5 L 1228.7 509.6 L 1235.7 510.7 L 1235.7 510.7 L 1242.8 511.7 L 1249.9 513.0 L 1257.1 514.3 L 1264.3 515.6 L 1271.5 517.0 L 1278.7 518.4 L 1285.9 519.7 L 1293.1 520.9 L 1300.3 521.9 L 1307.4 522.8 L 1314.5 523.5 L 1321.5 523.9 L 1328.5 524.0 L 1335.3 523.7 L 1342.1 523.1 L 1348.8 522.1 L 1348.8 522.1 L 1355.4 520.7 L 1362.1 519.0 L 1368.7 517.0 L 1375.2 514.7 L 1381.8 512.1 L 1388.2 509.3 L 1394.6 506.2 L 1401.0 502.9 L 1407.3 499.5 L 1413.4 495.8 L 1419.5 492.0 L 1425.5 488.1 L 1431.3 484.0 L 1437.0 479.9 L 1442.6 475.6 L 1448.1 471.3 L 1448.1 471.3 L 1453.4 466.5 L 1458.7 461.1 L 1463.9 455.0 L 1469.1 448.6 L 1474.2 441.7 L 1479.2 434.7 L 1484.0 427.7 L 1488.8 420.7 L 1493.4 413.9 L 1497.8 407.5 L 1502.1 401.5 L 1506.2 396.1 L 1510.0 391.4 L 1513.7 387.6 L 1517.1 384.8 L 1520.3 383.1 L 1520.3 383.1 L 1523.3 382.5 L 1526.2 382.6 L 1528.9 383.6 L 1531.5 385.2 L 1533.9 387.4 L 1536.2 390.3 L 1538.2 393.6 L 1540.0 397.4 L 1541.7 401.6 L 1543.1 406.1 L 1544.2 410.9 L 1545.2 415.8 L 1545.8 420.9 L 1546.2 426.0 L 1546.3 431.2 L 1546.1 436.3 L 1546.1 436.3 L 1545.5 441.7 L 1544.3 447.9 L 1542.6 454.7 L 1540.4 461.9 L 1538.0 469.6 L 1535.3 477.5 L 1532.4 485.5 L 1529.3 493.6 L 1526.2 501.5 L 1523.1 509.3 L 1520.2 516.6 L 1517.4 523.6 L 1514.8 529.9 L 1512.5 535.5 L 1510.7 540.4 L 1509.3 544.2" fill="none" stroke="#ff7a1a" stroke-width="6.0" stroke-opacity="0.9"/><path d="M 404.5 601.3 L 404.0 605.1 L 403.2 609.7 L 402.2 615.0 L 401.2 621.0 L 400.0 627.5 L 398.7 634.4 L 397.4 641.7 L 396.2 649.3 L 394.9 657.1 L 393.7 665.1 L 392.6 673.0 L 391.7 681.0 L 390.9 688.8 L 390.3 696.4 L 389.9 703.8 L 389.9 710.8 L 389.9 710.8 L 389.9 717.6 L 390.0 724.5 L 390.1 731.4 L 390.3 738.4 L 390.6 745.5 L 391.0 752.5 L 391.6 759.5 L 392.3 766.4 L 393.2 773.3 L 394.3 780.1 L 395.6 786.8 L 397.1 793.4 L 399.0 799.8 L 401.1 806.0 L 403.6 812.1 L 406.3 817.9 L 406.3 817.9 L 409.5 823.7 L 413.0 829.4 L 416.8 835.0 L 420.9 840.6 L 425.3 846.1 L 429.9 851.5 L 434.7 856.8 L 439.8 861.9 L 445.0 866.8 L 450.4 871.5 L 455.9 876.0 L 461.6 880.2 L 467.3 884.2 L 473.0 887.9 L 478.8 891.2 L 484.6 894.3 L 484.6 894.3 L 490.6 897.0 L 496.7 899.6 L 503.2 901.9 L 509.8 904.1 L 516.5 906.0 L 523.4 907.6 L 530.4 909.0 L 537.4 910.2 L 544.5 911.1 L 551.5 911.7 L 558.5 912.1 L 565.5 912.1 L 572.3 911.9 L 579.0 911.3 L 585.5 910.5 L 591.9 909.3 L 591.9 909.3 L 598.1 907.7 L 604.4 905.7 L 610.6 903.4 L 616.9 900.8 L 623.1 897.8 L 629.3 894.5 L 635.4 891.0 L 641.4 887.2 L 647.2 883.1 L 653.0 878.9 L 658.6 874.5 L 664.0 870.0 L 669.2 865.3 L 674.1 860.5 L 678.9 855.7 L 683.3 850.7 L 683.3 850.7 L 687.5 845.7 L 691.5 840.3 L 695.3 834.7 L 698.9 828.9 L 702.3 822.9 L 705.5 816.8 L 708.5 810.5 L 711.4 804.1 L 714.1 797.5 L 716.8 790.9 L 719.3 784.3 L 721.7 777.6 L 724.0 770.9 L 726.2 764.3 L 728.4 757.7 L 730.5 751.1 L 730.5 751.1 L 732.5 744.4 L 734.4 737.2 L 736.2 729.8 L 737.9 722.1 L 739.4 714.2 L 740.9 706.3 L 742.2 698.4 L 743.4 690.6 L 744.6 683.0 L 745.6 675.7 L 746.6 668.8 L 747.5 662.3 L 748.3 656.3 L 749.1 651.0 L 749.8 646.4 L 750.4 642.6" fill="none" stroke="#ff7a1a" stroke-width="6.0" stroke-opacity="0.9"/><path d="M 501.6 706.3 L 500.9 705.6 L 500.0 704.8 L 498.9 703.9 L 497.7 703.0 L 496.3 701.9 L 494.9 700.8 L 493.4 699.6 L 491.8 698.3 L 490.3 697.0 L 488.8 695.6 L 487.4 694.2 L 486.1 692.8 L 484.9 691.3 L 483.8 689.8 L 483.0 688.4 L 482.3 686.9 L 482.3 686.9 L 481.8 685.3 L 481.4 683.7 L 481.2 682.0 L 481.0 680.3 L 480.9 678.5 L 480.9 676.7 L 481.0 674.9 L 481.2 673.0 L 481.4 671.1 L 481.7 669.2 L 482.0 667.3 L 482.4 665.5 L 482.8 663.6 L 483.2 661.8 L 483.7 660.1 L 484.1 658.4 L 484.1 658.4 L 484.7 656.7 L 485.4 654.9 L 486.2 653.1 L 487.0 651.2 L 488.0 649.4 L 489.0 647.5 L 490.0 645.7 L 491.1 643.9 L 492.1 642.2 L 493.1 640.6 L 494.1 639.0 L 495.0 637.5 L 495.9 636.2 L 496.6 635.0 L 497.2 633.9 L 497.7 633.1" fill="none" stroke="#ff7a1a" stroke-width="6.0" stroke-opacity="0.9"/><path d="M 1390.5 491.1 L 1389.6 489.2 L 1388.8 486.7 L 1388.0 483.6 L 1387.2 480.2 L 1386.3 476.4 L 1385.3 472.4 L 1384.2 468.3 L 1382.9 464.2 L 1381.4 460.1 L 1379.7 456.1 L 1377.7 452.4 L 1375.3 449.1 L 1372.6 446.2 L 1369.5 443.8 L 1366.0 442.0 L 1362.0 441.0 L 1362.0 441.0 L 1357.5 440.8 L 1352.4 441.2 L 1346.9 442.3 L 1340.9 443.8 L 1334.5 445.8 L 1327.8 448.2 L 1320.9 450.8 L 1313.7 453.5 L 1306.3 456.4 L 1298.9 459.2 L 1291.4 461.9 L 1283.9 464.5 L 1276.5 466.8 L 1269.1 468.7 L 1262.0 470.2 L 1255.0 471.1 L 1255.0 471.1 L 1248.2 471.6 L 1241.3 471.9 L 1234.4 472.0 L 1227.5 471.8 L 1220.6 471.4 L 1213.6 470.9 L 1206.6 470.3 L 1199.6 469.5 L 1192.6 468.6 L 1185.6 467.7 L 1178.7 466.7 L 1171.7 465.7 L 1164.7 464.6 L 1157.7 463.6 L 1150.8 462.7 L 1143.8 461.7 L 1143.8 461.7 L 1136.9 460.8 L 1130.0 459.9 L 1123.1 458.8 L 1116.2 457.7 L 1109.3 456.6 L 1102.4 455.4 L 1095.6 454.2 L 1088.7 453.0 L 1081.8 451.7 L 1074.9 450.5 L 1068.0 449.2 L 1061.1 447.9 L 1054.3 446.7 L 1047.4 445.5 L 1040.5 444.3 L 1033.6 443.1 L 1033.6 443.1 L 1026.7 442.0 L 1019.8 440.8 L 1012.9 439.7 L 1006.0 438.5 L 999.1 437.3 L 992.3 436.1 L 985.4 435.0 L 978.5 433.8 L 971.6 432.7 L 964.7 431.6 L 957.8 430.5 L 950.9 429.4 L 944.0 428.3 L 937.1 427.3 L 930.1 426.4 L 923.2 425.4 L 923.2 425.4 L 916.3 424.6 L 909.4 423.8 L 902.4 423.1 L 895.4 422.4 L 888.5 421.8 L 881.5 421.2 L 874.5 420.6 L 867.6 420.0 L 860.6 419.5 L 853.6 418.9 L 846.7 418.3 L 839.7 417.6 L 832.8 416.9 L 825.8 416.2 L 818.9 415.3 L 812.0 414.4 L 812.0 414.4 L 804.9 413.4 L 797.4 412.3 L 789.7 411.1 L 781.8 409.8 L 773.8 408.4 L 765.8 407.0 L 757.8 405.6 L 750.0 404.2 L 742.4 402.8 L 735.1 401.5 L 728.1 400.2 L 721.6 399.0 L 715.7 397.9 L 710.4 396.9 L 705.7 396.1 L 701.9 395.4" fill="none" stroke="#ff7a1a" stroke-width="6.0" stroke-opacity="0.9"/></g><g id="clips"><circle cx="1553.0" cy="515.7" r="2" fill="none" stroke="#0b5" stroke-width="0.6"/><circle cx="0.0" cy="180.7" r="2" fill="none" stroke="#0b5" stroke-width="0.6"/><circle cx="369.4" cy="0.0" r="2" fill="none" stroke="#0b5" stroke-width="0.6"/><circle cx="1509.3" cy="544.2" r="2" fill="none" stroke="#0b5" stroke-width="0.6"/><circle cx="404.5" cy="601.3" r="2" fill="none" stroke="#0b5" stroke-width="0.6"/><circle cx="750.4" cy="642.6" r="2" fill="none" stroke="#0b5" stroke-width="0.6"/><circle cx="501.6" cy="706.3" r="2" fill="none" stroke="#0b5" stroke-width="0.6"/><circle cx="1390.5" cy="491.1" r="2" fill="none" stroke="#0b5" stroke-width="0.6"/><circle cx="701.9" cy="395.4" r="2" fill="none" stroke="#0b5" stroke-width="0.6"/></g><g id="power"><circle cx="369.4" cy="0.0" r="5" fill="none" stroke="#e33" stroke-width="1"/><circle cx="0.0" cy="180.7" r="5" fill="none" stroke="#e33" stroke-width="1"/></g><g id="bridges"><circle cx="409.2" cy="589.8" r="9" fill="none" stroke="#e6a817" stroke-width="1.5"/><circle cx="690.1" cy="394.5" r="9" fill="none" stroke="#e6a817" stroke-width="1.5"/><circle cx="694.7" cy="397.1" r="9" fill="none" stroke="#e6a817" stroke-width="1.5"/><circle cx="1386.1" cy="501.6" r="9" fill="none" stroke="#e6a817" stroke-width="1.5"/><circle cx="1389.4" cy="500.2" r="9" fill="none" stroke="#e6a817" stroke-width="1.5"/><circle cx="1395.8" cy="497.0" r="9" fill="none" stroke="#e6a817" stroke-width="1.5"/></g></svg>