<svg xmlns="http://www.w3.org/2000/svg" width="2000mm" height="1000mm" viewBox="0 0 2000 1000"><g id="outline"><rect x="0" y="0" width="2000" height="1000" fill="none" stroke="#000" stroke-width="1"/></g><g id="channels"><path d="M 313.1 0.0 L 313.4 0.4 L 317.6 5.3 L 321.8 10.2 L 326.1 15.1 L 330.4 19.9 L 334.7 24.8 L 339.0 29.6 L 343.3 34.4 L 347.6 39.2 L 347.6 39.2 L 351.9 43.9 L 356.3 48.7 L 360.7 53.3 L 365.2 58.0 L 369.7 62.6 L 374.2 67.2 L 378.7 71.8 L 383.3 76.4 L 387.9 80.9 L 392.5 85.5 L 397.1 90.0 L 401.7 94.5 L 406.3 99.0 L 411.0 103.5 L 415.6 108.0 L 420.2 112.5 L 420.2 112.5 L 424.8 117.1 L 429.4 121.7 L 433.9 126.3 L 438.5 130.9 L 443.0 135.5 L 447.5 140.2 L 452.1 144.8 L 456.7 149.4 L 461.3 153.9 L 465.9 158.4 L 470.6 162.8 L 475.4 167.2 L 480.2 171.5 L 485.1 175.6 L 490.0 179.7 L 495.0 183.6 L 495.0 183.6 L 500.2 187.6 L 505.5 191.9 L 510.9 196.3 L 516.4 200.8 L 522.1 205.3 L 527.7 209.8 L 533.4 214.2 L 539.2 218.3 L 544.9 222.2 L 550.5 225.8 L 556.1 229.0 L 561.6 231.6 L 567.0 233.8 L 572.3 235.3 L 577.4 236.1 L 582.4 236.1 L 582.4 236.1 L 587.2 235.3 L 592.0 233.9 L 596.8 231.7 L 601.6 229.0 L 606.3 225.7 L 611.0 222.0 L 615.5 217.8 L 620.0 213.3 L 624.3 208.5 L 628.5 203.5 L 632.6 198.2 L 636.4 192.9 L 640.1 187.5 L 643.6 182.1 L 646.8 176.7 L 649.8 171.5 L 649.8 171.5 L 652.5 166.2 L 655.0 160.7 L 657.1 154.9 L 659.0 148.9 L 660.6 142.8 L 662.1 136.5 L 663.5 130.1 L 664.7 123.6 L 665.9 117.0 L 667.0 110.4 L 668.1 103.8 L 669.2 97.1 L 670.4 90.6 L 671.7 84.0 L 673.2 77.6 L 674.7 71.3 L 674.7 71.3 L 676.4 65.1 L 678.1 58.9 L 679.8 52.6 L 681.4 46.4 L 683.1 40.2 L 684.9 34.0 L 686.6 27.8 L 688.3 21.5 L 690.1 15.3 L 691.9 9.1 L 693.7 3.0 L 694.6 0.0" fill="none" stroke="#ff3ea5" stroke-width="6.0" stroke-opacity="0.9"/><path d="M 925.9 0.0 L 925.6 1.6 L 924.4 7.9 L 923.2 14.2 L 921.9 20.6 L 920.7 26.9 L 919.4 33.2 L 918.0 39.5 L 916.6 45.8 L 915.2 52.1 L 913.8 58.4 L 913.8 58.4 L 912.3 64.7 L 910.7 70.9 L 909.2 77.2 L 907.6 83.4 L 905.9 89.7 L 904.3 95.9 L 902.6 102.1 L 900.8 108.3 L 899.1 114.5 L 897.3 120.7 L 895.5 126.9 L 893.7 133.1 L 891.8 139.3 L 890.0 145.5 L 888.1 151.6 L 886.2 157.8 L 886.2 157.8 L 884.2 163.9 L 882.0 170.1 L 879.7 176.2 L 877.3 182.3 L 874.8 188.3 L 872.3 194.4 L 869.7 200.5 L 867.3 206.5 L 864.8 212.6 L 862.5 218.7 L 860.4 224.8 L 858.4 230.9 L 856.6 237.0 L 855.1 243.1 L 853.9 249.3 L 853.0 255.5 L 853.0 255.5 L 852.3 261.7 L 851.8 268.0 L 851.4 274.4 L 851.2 280.8 L 851.2 287.2 L 851.3 293.7 L 851.6 300.2 L 852.0 306.6 L 852.7 313.0 L 853.5 319.4 L 854.5 325.8 L 855.7 332.0 L 857.1 338.2 L 858.7 344.3 L 860.5 350.3 L 862.5 356.1 L 862.5 356.1 L 864.8 361.9 L 867.4 367.6 L 870.3 373.2 L 873.4 378.7 L 876.7 384.2 L 880.2 389.7 L 883.9 395.1 L 887.7 400.4 L 891.7 405.6 L 895.8 410.8 L 900.0 415.9 L 904.2 421.0 L 908.5 426.0 L 912.7 430.9 L 917.0 435.8 L 921.3 440.6 L 921.3 440.6 L 925.5 445.4 L 929.8 450.2 L 934.2 454.9 L 938.7 459.6 L 943.2 464.2 L 947.9 468.8 L 952.5 473.3 L 957.3 477.7 L 962.1 482.0 L 967.0 486.3 L 971.9 490.5 L 976.9 494.5 L 982.0 498.4 L 987.2 502.3 L 992.4 505.9 L 997.7 509.5 L 997.7 509.5 L 1003.1 512.8 L 1008.6 516.1 L 1014.2 519.1 L 1019.8 522.0 L 1025.6 524.8 L 1031.5 527.5 L 1037.4 530.1 L 1043.3 532.7 L 1049.3 535.1 L 1055.4 537.5 L 1061.4 539.9 L 1067.5 542.2 L 1073.5 544.5 L 1079.6 546.8 L 1085.6 549.2 L 1091.6 551.5 L 1091.6 551.5 L 1097.6 553.9 L 1103.6 556.2 L 1109.7 558.4 L 1115.7 560.6 L 1121.8 562.7 L 1127.9 564.8 L 1134.0 566.9 L 1140.1 569.0 L 1146.2 571.1 L 1152.4 573.1 L 1158.5 575.2 L 1164.6 577.3 L 1170.7 579.4 L 1176.8 581.5 L 1182.9 583.7 L 1188.9 585.9 L 1188.9 585.9 L 1195.0 588.2 L 1201.0 590.5 L 1207.0 592.9 L 1212.9 595.3 L 1218.9 597.8 L 1224.9 600.3 L 1230.9 602.8 L 1236.8 605.3 L 1242.8 607.7 L 1248.8 610.1 L 1254.8 612.5 L 1260.8 614.8 L 1266.8 617.1 L 1272.9 619.2 L 1279.0 621.2 L 1285.1 623.2 L 1285.1 623.2 L 1291.3 625.0 L 1297.5 626.7 L 1303.7 628.4 L 1310.0 630.0 L 1316.2 631.5 L 1322.5 632.9 L 1328.8 634.3 L 1335.1 635.7 L 1341.4 637.0 L 1347.7 638.3 L 1354.1 639.5 L 1360.4 640.7 L 1366.8 641.9 L 1373.1 643.1 L 1379.5 644.3 L 1385.8 645.5 L 1385.8 645.5 L 1392.1 646.6 L 1398.5 647.7 L 1404.9 648.7 L 1411.2 649.7 L 1417.6 650.6 L 1424.0 651.5 L 1430.4 652.4 L 1436.8 653.3 L 1443.2 654.1 L 1449.6 655.0 L 1456.0 655.9 L 1462.4 656.8 L 1468.8 657.7 L 1475.2 658.7 L 1481.5 659.7 L 1487.9 660.7 L 1487.9 660.7 L 1494.3 661.8 L 1500.7 662.8 L 1507.1 663.7 L 1513.6 664.6 L 1520.1 665.5 L 1526.6 666.4 L 1533.0 667.3 L 1539.5 668.3 L 1545.9 669.4 L 1552.3 670.5 L 1558.6 671.8 L 1564.9 673.2 L 1571.1 674.8 L 1577.2 676.5 L 1583.2 678.5 L 1589.1 680.7 L 1589.1 680.7 L 1594.9 683.1 L 1600.8 685.5 L 1606.7 688.2 L 1612.6 690.9 L 1618.5 693.8 L 1624.2 696.8 L 1630.0 699.9 L 1635.6 703.2 L 1641.1 706.6 L 1646.5 710.1 L 1651.8 713.8 L 1656.8 717.7 L 1661.7 721.7 L 1666.4 725.8 L 1670.9 730.2 L 1675.1 734.6 L 1675.1 734.6 L 1679.1 739.3 L 1682.9 744.3 L 1686.4 749.4 L 1689.8 754.8 L 1692.9 760.4 L 1695.9 766.1 L 1698.7 771.9 L 1701.5 777.8 L 1704.1 783.9 L 1706.6 790.0 L 1709.0 796.1 L 1711.4 802.3 L 1713.7 808.5 L 1716.0 814.6 L 1718.3 820.7 L 1720.6 826.7 L 1720.6 826.7 L 1722.9 832.7 L 1725.0 838.8 L 1727.1 844.8 L 1729.0 851.0 L 1730.9 857.1 L 1732.7 863.3 L 1734.5 869.5 L 1736.2 875.8 L 1737.9 882.0 L 1739.5 888.3 L 1741.1 894.6 L 1742.7 900.8 L 1744.3 907.1 L 1745.9 913.4 L 1747.6 919.6 L 1749.2 925.9 L 1749.2 925.9 L 1750.8 932.1 L 1752.4 938.4 L 1754.0 944.6 L 1755.5 950.9 L 1757.0 957.2 L 1758.4 963.5 L 1759.9 969.8 L 1761.3 976.0 L 1762.8 982.3 L 1764.3 988.6 L 1765.8 994.9 L 1767.0 1000.0" fill="none" stroke="#ff3ea5" stroke-width="6.0" stroke-opacity="0.9"/><path d="M 1690.1 1000.0 L 1690.0 999.8 L 1687.5 993.8 L 1685.0 987.9 L 1682.4 981.9 L 1679.8 976.0 L 1677.1 970.1 L 1674.4 964.2 L 1671.7 958.4 L 1668.9 952.6 L 1666.1 946.8 L 1663.2 941.0 L 1663.2 941.0 L 1660.4 935.2 L 1657.5 929.4 L 1654.7 923.5 L 1651.9 917.5 L 1649.0 911.6 L 1646.2 905.7 L 1643.2 899.8 L 1640.2 894.0 L 1637.1 888.3 L 1633.9 882.6 L 1630.6 877.1 L 1627.1 871.7 L 1623.5 866.5 L 1619.7 861.4 L 1615.8 856.6 L 1611.6 852.0 L 1611.6 852.0 L 1607.2 847.5 L 1602.7 843.2 L 1597.9 839.0 L 1593.0 834.9 L 1588.0 831.0 L 1582.8 827.2 L 1577.6 823.5 L 1572.2 819.9 L 1566.7 816.5 L 1561.1 813.3 L 1555.4 810.2 L 1549.7 807.2 L 1543.9 804.4 L 1538.1 801.7 L 1532.3 799.2 L 1526.5 796.9 L 1526.5 796.9 L 1520.6 794.7 L 1514.6 792.9 L 1508.4 791.2 L 1502.2 789.8 L 1496.0 788.5 L 1489.6 787.4 L 1483.2 786.4 L 1476.7 785.6 L 1470.2 784.8 L 1463.7 784.0 L 1457.2 783.3 L 1450.7 782.6 L 1444.2 781.9 L 1437.7 781.2 L 1431.2 780.4 L 1424.8 779.4 L 1424.8 779.4 L 1418.5 778.4 L 1412.1 777.4 L 1405.7 776.4 L 1399.3 775.3 L 1392.9 774.2 L 1386.5 773.1 L 1380.1 772.1 L 1373.7 771.1 L 1367.3 770.1 L 1360.9 769.2 L 1354.5 768.4 L 1348.1 767.7 L 1341.7 767.0 L 1335.3 766.5 L 1328.9 766.1 L 1322.5 765.8 L 1322.5 765.8 L 1316.0 765.6 L 1309.1 765.3 L 1302.0 764.9 L 1294.7 764.6 L 1287.3 764.3 L 1279.9 764.0 L 1272.6 763.9 L 1265.4 763.9 L 1258.3 764.1 L 1251.6 764.5 L 1245.1 765.1 L 1239.1 766.0 L 1233.5 767.2 L 1228.5 768.8 L 1224.1 770.7 L 1220.4 773.1 L 1220.4 773.1 L 1217.3 776.0 L 1214.5 779.5 L 1212.1 783.5 L 1210.1 788.1 L 1208.4 792.9 L 1207.1 798.1 L 1206.2 803.5 L 1205.7 809.0 L 1205.6 814.5 L 1205.9 820.1 L 1206.6 825.5 L 1207.7 830.7 L 1209.1 835.6 L 1211.0 840.2 L 1213.3 844.4 L 1216.0 848.0 L 1216.0 848.0 L 1219.3 851.1 L 1223.3 854.0 L 1228.0 856.6 L 1233.2 858.9 L 1238.9 861.1 L 1245.1 863.0 L 1251.6 864.8 L 1258.3 866.5 L 1265.3 868.1 L 1272.4 869.7 L 1279.5 871.2 L 1286.7 872.8 L 1293.7 874.4 L 1300.5 876.1 L 1307.1 877.9 L 1313.4 879.9 L 1313.4 879.9 L 1319.5 881.9 L 1325.7 883.8 L 1332.0 885.5 L 1338.3 887.3 L 1344.7 889.0 L 1351.0 890.7 L 1357.4 892.4 L 1363.7 894.2 L 1369.9 896.0 L 1376.1 898.0 L 1382.2 900.1 L 1388.1 902.4 L 1393.9 904.9 L 1399.6 907.6 L 1405.1 910.6 L 1410.3 913.8 L 1410.3 913.8 L 1415.5 917.3 L 1420.7 921.1 L 1426.0 925.0 L 1431.2 929.1 L 1436.3 933.4 L 1441.4 937.8 L 1446.3 942.4 L 1451.0 947.2 L 1455.5 952.0 L 1459.8 957.0 L 1463.8 962.1 L 1467.5 967.3 L 1470.8 972.6 L 1473.7 977.9 L 1476.2 983.3 L 1478.3 988.7 L 1478.3 988.7 L 1479.9 994.3 L 1481.2 1000.0" fill="none" stroke="#ff3ea5" stroke-width="6.0" stroke-opacity="0.9"/><path d="M 870.0 1000.0 L 866.0 995.1 L 861.9 990.2 L 857.8 985.2 L 853.6 980.3 L 849.4 975.4 L 845.2 970.5 L 841.0 965.6 L 836.8 960.7 L 836.8 960.7 L 832.5 955.9 L 828.2 951.1 L 823.9 946.3 L 819.6 941.5 L 815.2 936.8 L 810.8 932.1 L 806.4 927.4 L 801.9 922.7 L 797.5 918.0 L 793.0 913.4 L 788.5 908.7 L 784.0 904.1 L 779.5 899.5 L 775.0 894.9 L 770.5 890.3 L 765.9 885.7 L 765.9 885.7 L 761.4 881.1 L 756.8 876.5 L 752.3 872.0 L 747.7 867.4 L 743.1 862.9 L 738.5 858.4 L 733.9 853.9 L 729.3 849.4 L 724.6 844.9 L 720.0 840.4 L 715.3 835.9 L 710.7 831.5 L 706.0 827.0 L 701.3 822.6 L 696.6 818.2 L 691.9 813.8 L 691.9 813.8 L 687.2 809.4 L 682.4 805.0 L 677.7 800.6 L 672.9 796.3 L 668.1 792.0 L 663.3 787.7 L 658.4 783.4 L 653.6 779.2 L 648.8 774.9 L 644.0 770.6 L 639.2 766.3 L 634.4 761.9 L 629.6 757.6 L 624.9 753.2 L 620.1 748.8 L 615.5 744.4 L 615.5 744.4 L 610.8 739.9 L 606.2 735.4 L 601.6 730.9 L 597.1 726.3 L 592.5 721.8 L 588.0 717.2 L 583.5 712.6 L 578.9 707.9 L 574.4 703.3 L 569.9 698.7 L 565.4 694.1 L 560.9 689.5 L 556.4 684.9 L 551.9 680.3 L 547.3 675.7 L 542.8 671.1 L 542.8 671.1 L 538.2 666.6 L 533.6 662.1 L 529.0 657.6 L 524.3 653.1 L 519.7 648.6 L 515.1 644.1 L 510.4 639.6 L 505.8 635.1 L 501.2 630.6 L 496.5 626.1 L 491.9 621.6 L 487.3 617.1 L 482.7 612.6 L 478.1 608.1 L 473.5 603.5 L 469.0 599.0 L 469.0 599.0 L 464.4 594.4 L 459.8 589.8 L 455.3 585.3 L 450.6 580.8 L 446.0 576.2 L 441.4 571.7 L 436.9 567.1 L 432.3 562.6 L 427.8 558.0 L 423.3 553.4 L 418.8 548.7 L 414.4 544.0 L 410.1 539.2 L 405.8 534.4 L 401.6 529.6 L 397.5 524.6 L 397.5 524.6 L 393.4 519.6 L 389.4 514.6 L 385.5 509.5 L 381.6 504.4 L 377.7 499.2 L 374.0 494.0 L 370.2 488.7 L 366.5 483.4 L 362.9 478.1 L 359.3 472.7 L 355.7 467.3 L 352.2 461.9 L 348.7 456.5 L 345.3 451.0 L 341.9 445.5 L 338.5 440.0 L 338.5 440.0 L 335.2 434.5 L 332.0 429.0 L 328.8 423.4 L 325.7 417.7 L 322.6 412.0 L 319.6 406.3 L 316.6 400.6 L 313.7 394.9 L 310.7 389.1 L 307.8 383.4 L 304.9 377.6 L 302.0 371.8 L 299.1 366.0 L 296.2 360.3 L 293.3 354.5 L 290.4 348.8 L 290.4 348.8 L 287.4 343.0 L 284.5 337.3 L 281.6 331.5 L 278.7 325.8 L 275.8 320.0 L 272.9 314.2 L 270.0 308.5 L 267.1 302.7 L 264.3 296.9 L 261.4 291.1 L 258.5 285.4 L 255.6 279.6 L 252.7 273.8 L 249.8 268.1 L 246.9 262.3 L 243.9 256.6 L 243.9 256.6 L 241.0 250.9 L 238.0 245.1 L 235.1 239.4 L 232.1 233.6 L 229.2 227.9 L 226.2 222.2 L 223.2 216.4 L 220.2 210.7 L 217.3 205.0 L 214.2 199.3 L 211.2 193.6 L 208.2 187.9 L 205.1 182.2 L 202.1 176.6 L 199.0 170.9 L 195.8 165.3 L 195.8 165.3 L 192.7 159.6 L 189.5 154.0 L 186.4 148.4 L 183.2 142.8 L 180.0 137.2 L 176.7 131.6 L 173.5 126.0 L 170.2 120.4 L 167.0 114.9 L 163.7 109.3 L 160.4 103.8 L 157.0 98.3 L 153.7 92.8 L 150.3 87.3 L 146.9 81.8 L 143.5 76.3 L 143.5 76.3 L 140.0 70.9 L 136.5 65.5 L 133.0 60.1 L 129.4 54.7 L 125.8 49.4 L 122.2 44.0 L 118.5 38.7 L 114.9 33.4 L 111.2 28.0 L 107.6 22.7 L 103.9 17.4 L 100.3 12.1 L 96.6 6.8 L 93.0 1.5 L 92.0 0.0" fill="none" stroke="#ff3ea5" stroke-width="6.0" stroke-opacity="0.9"/><path d="M 1232.1 948.1 L 1231.9 948.4 L 1231.7 948.8 L 1231.4 949.3 L 1231.1 949.8 L 1230.8 950.4 L 1230.4 951.0 L 1230.1 951.6 L 1229.7 952.3 L 1229.3 953.0 L 1228.9 953.7 L 1228.5 954.4 L 1228.1 955.1 L 1227.8 955.8 L 1227.4 956.4 L 1227.0 957.1 L 1226.7 957.7 L 1226.7 957.7 L 1226.4 958.3 L 1226.0 958.9 L 1225.7 959.5 L 1225.4 960.1 L 1225.1 960.7 L 1224.7 961.3 L 1224.4 962.0 L 1224.1 962.6 L 1223.8 963.2 L 1223.4 963.8 L 1223.1 964.4 L 1222.8 965.0 L 1222.5 965.6 L 1222.1 966.2 L 1221.8 966.8 L 1221.5 967.5 L 1221.5 967.5 L 1221.2 968.1 L 1220.8 968.7 L 1220.5 969.4 L 1220.1 970.1 L 1219.7 970.8 L 1219.4 971.5 L 1219.0 972.3 L 1218.6 973.0 L 1218.3 973.6 L 1217.9 974.3 L 1217.6 974.9 L 1217.3 975.5 L 1217.0 976.0 L 1216.8 976.5 L 1216.6 976.9 L 1216.4 977.2" fill="none" stroke="#ff3ea5" stroke-width="6.0" stroke-opacity="0.9"/></g><g id="clips"><circle cx="313.1" cy="0.0" r="2" fill="none" stroke="#0b5" stroke-width="0.6"/><circle cx="694.6" cy="0.0" r="2" fill="none" stroke="#0b5" stroke-width="0.6"/><circle cx="925.9" cy="0.0" r="2" fill="none" stroke="#0b5" stroke-width="0.6"/><circle cx="1767.0" cy="1000.0" r="2" fill="none" stroke="#0b5" stroke-width="0.6"/><circle cx="1690.1" cy="1000.0" r="2" fill="none" stroke="#0b5" stroke-width="0.6"/><circle cx="1481.2" cy="1000.0" r="2" fill="none" stroke="#0b5" stroke-width="0.6"/><circle cx="870.0" cy="1000.0" r="2" fill="none" stroke="#0b5" stroke-width="0.6"/><circle cx="92.0" cy="0.0" r="2" fill="none" stroke="#0b5" stroke-width="0.6"/><circle cx="1232.1" cy="948.1" r="2" fill="none" stroke="#0b5" stroke-width="0.6"/></g><g id="power"><circle cx="1767.0" cy="1000.0" r="5" fill="none" stroke="#e33" stroke-width="1"/><circle cx="1690.1" cy="1000.0" r="5" fill="none" stroke="#e33" stroke-width="1"/><circle cx="1481.1" cy="1000.0" r="5" fill="none" stroke="#e33" stroke-width="1"/><circle cx="870.0" cy="1000.0" r="5" fill="none" stroke="#e33" stroke-width="1"/><circle cx="313.0" cy="0.0" r="5" fill="none" stroke="#e33" stroke-width="1"/><circle cx="694.6" cy="0.0" r="5" fill="none" stroke="#e33" stroke-width="1"/><circle cx="925.9" cy="0.0" r="5" fill="none" stroke="#e33" stroke-width="1"/><circle cx="91.9" cy="0.0" r="5" fill="none" stroke="#e33" stroke-width="1"/></g></svg>