<svg xmlns="http://www.w3.org/2000/svg" width="2000mm" height="1000mm" viewBox="0 0 2000 1000"><g id="outline"><rect x="0" y="0" width="2000" height="1000" fill="none" stroke="#000" stroke-width="1"/></g><g id="channels"><path d="M 287.3 179.5 L 289.2 182.6 L 291.5 186.3 L 294.1 190.6 L 297.1 195.3 L 300.3 200.5 L 303.8 206.0 L 307.4 211.8 L 311.1 217.9 L 315.0 224.1 L 318.9 230.5 L 322.8 236.9 L 326.6 243.3 L 330.4 249.7 L 334.1 255.9 L 337.6 261.9 L 340.8 267.7 L 340.8 267.7 L 344.0 273.3 L 347.0 279.0 L 350.1 284.7 L 353.1 290.4 L 356.0 296.1 L 359.0 301.9 L 361.9 307.6 L 364.8 313.4 L 367.7 319.1 L 370.6 324.9 L 373.5 330.7 L 376.4 336.5 L 379.3 342.2 L 382.2 348.0 L 385.1 353.7 L 388.1 359.4 L 388.1 359.4 L 391.1 365.2 L 394.0 370.9 L 397.0 376.6 L 400.0 382.4 L 402.9 388.1 L 405.9 393.8 L 408.9 399.6 L 411.8 405.3 L 414.8 411.0 L 417.8 416.7 L 420.8 422.4 L 423.8 428.1 L 426.9 433.8 L 429.9 439.5 L 433.0 445.2 L 436.1 450.9 L 436.1 450.9 L 439.1 456.5 L 442.2 462.2 L 445.2 467.9 L 448.3 473.6 L 451.3 479.3 L 454.4 485.0 L 457.4 490.7 L 460.5 496.4 L 463.7 502.0 L 466.8 507.6 L 470.1 513.2 L 473.3 518.8 L 476.7 524.2 L 480.1 529.7 L 483.6 535.1 L 487.2 540.4 L 487.2 540.4 L 490.9 545.7 L 494.7 550.9 L 498.5 556.0 L 502.4 561.1 L 506.4 566.2 L 510.5 571.2 L 514.6 576.2 L 518.7 581.1 L 522.9 586.1 L 527.1 591.0 L 531.3 595.9 L 535.6 600.7 L 539.8 605.6 L 544.1 610.5 L 548.3 615.3 L 552.5 620.2 L 552.5 620.2 L 556.7 625.1 L 561.0 629.9 L 565.3 634.7 L 569.7 639.5 L 574.0 644.3 L 578.4 649.0 L 582.8 653.7 L 587.2 658.5 L 591.6 663.2 L 596.0 667.9 L 600.3 672.7 L 604.7 677.4 L 609.0 682.2 L 613.3 687.0 L 617.6 691.9 L 621.8 696.7 L 621.8 696.7 L 626.1 701.6 L 630.3 706.5 L 634.6 711.3 L 638.8 716.2 L 643.1 721.0 L 647.4 725.9 L 651.6 730.8 L 655.8 735.7 L 660.0 740.6 L 664.1 745.6 L 668.1 750.6 L 672.1 755.7 L 676.0 760.8 L 679.9 766.0 L 683.6 771.2 L 687.2 776.5 L 687.2 776.5 L 690.7 781.9 L 694.1 787.3 L 697.4 792.8 L 700.6 798.4 L 703.7 804.0 L 706.8 809.7 L 709.8 815.4 L 712.7 821.1 L 715.6 826.9 L 718.5 832.7 L 721.4 838.5 L 724.2 844.3 L 727.1 850.1 L 730.0 855.8 L 732.9 861.6 L 735.9 867.3 L 735.9 867.3 L 738.8 873.1 L 741.7 878.9 L 744.5 884.7 L 747.2 890.5 L 750.0 896.4 L 752.7 902.3 L 755.4 908.1 L 758.1 914.0 L 760.9 919.8 L 763.7 925.7 L 766.6 931.4 L 769.6 937.1 L 772.6 942.8 L 775.8 948.4 L 779.0 953.9 L 782.5 959.3 L 782.5 959.3 L 786.0 964.6 L 789.7 969.9 L 793.4 975.1 L 797.3 980.3 L 801.2 985.4 L 805.2 990.4 L 809.3 995.4 L 813.1 1000.0" fill="none" stroke="#ff3ea5" stroke-width="6.0" stroke-opacity="0.9"/><path d="M 1194.6 1000.0 L 1195.6 996.8 L 1197.4 990.6 L 1199.3 984.5 L 1201.3 978.3 L 1203.3 972.2 L 1203.3 972.2 L 1205.3 966.1 L 1207.4 960.0 L 1209.6 953.9 L 1211.9 947.8 L 1214.2 941.8 L 1216.5 935.8 L 1218.9 929.8 L 1221.2 923.7 L 1223.6 917.7 L 1225.9 911.7 L 1228.2 905.7 L 1230.5 899.6 L 1232.7 893.6 L 1234.8 887.5 L 1236.8 881.4 L 1238.8 875.3 L 1238.8 875.3 L 1240.8 869.1 L 1242.9 862.9 L 1245.0 856.7 L 1247.2 850.5 L 1249.4 844.3 L 1251.6 838.0 L 1253.7 831.8 L 1255.7 825.5 L 1257.6 819.2 L 1259.3 813.0 L 1260.8 806.7 L 1262.1 800.5 L 1263.1 794.3 L 1263.9 788.1 L 1264.3 781.9 L 1264.4 775.7 L 1264.4 775.7 L 1264.1 769.6 L 1263.5 763.4 L 1262.6 757.2 L 1261.5 750.9 L 1260.2 744.7 L 1258.6 738.5 L 1256.8 732.3 L 1254.9 726.1 L 1252.7 720.0 L 1250.4 713.9 L 1248.0 707.9 L 1245.5 701.9 L 1242.8 695.9 L 1240.1 690.1 L 1237.3 684.3 L 1234.4 678.7 L 1234.4 678.7 L 1231.5 673.1 L 1228.2 667.6 L 1224.8 662.3 L 1221.3 657.0 L 1217.5 651.8 L 1213.6 646.6 L 1209.7 641.5 L 1205.6 636.4 L 1201.5 631.4 L 1197.3 626.3 L 1193.1 621.3 L 1188.9 616.3 L 1184.8 611.3 L 1180.7 606.2 L 1176.6 601.1 L 1172.7 596.0 L 1172.7 596.0 L 1168.8 590.9 L 1164.9 585.7 L 1161.1 580.5 L 1157.3 575.3 L 1153.5 570.1 L 1149.6 564.9 L 1145.8 559.7 L 1141.9 554.5 L 1138.1 549.3 L 1134.2 544.1 L 1130.3 539.0 L 1126.3 533.9 L 1122.3 528.9 L 1118.3 523.8 L 1114.2 518.9 L 1110.1 513.9 L 1110.1 513.9 L 1105.9 509.0 L 1101.8 504.1 L 1097.6 499.1 L 1093.4 494.2 L 1089.2 489.2 L 1085.0 484.3 L 1080.7 479.4 L 1076.4 474.6 L 1072.0 469.8 L 1067.6 465.1 L 1063.1 460.5 L 1058.5 456.0 L 1053.9 451.6 L 1049.1 447.4 L 1044.2 443.2 L 1039.3 439.3 L 1039.3 439.3 L 1034.2 435.5 L 1028.9 431.9 L 1023.5 428.5 L 1018.0 425.2 L 1012.4 422.1 L 1006.7 419.1 L 1000.9 416.2 L 995.1 413.3 L 989.2 410.4 L 983.4 407.6 L 977.6 404.7 L 971.8 401.8 L 966.0 398.8 L 960.4 395.7 L 954.8 392.5 L 949.3 389.2 L 949.3 389.2 L 943.8 385.8 L 938.4 382.4 L 932.9 379.0 L 927.4 375.6 L 922.0 372.2 L 916.5 368.7 L 911.1 365.2 L 905.7 361.6 L 900.4 358.0 L 895.2 354.3 L 890.0 350.5 L 885.0 346.6 L 880.0 342.6 L 875.1 338.5 L 870.4 334.3 L 865.8 329.9 L 865.8 329.9 L 861.4 325.3 L 857.2 320.6 L 853.2 315.6 L 849.3 310.5 L 845.6 305.3 L 841.9 300.0 L 838.3 294.6 L 834.7 289.1 L 831.2 283.6 L 827.7 278.1 L 824.1 272.7 L 820.5 267.3 L 816.8 261.9 L 813.0 256.7 L 809.1 251.5 L 805.1 246.5 L 805.1 246.5 L 800.9 241.7 L 796.5 236.9 L 792.1 232.2 L 787.6 227.5 L 783.1 223.0 L 778.5 218.4 L 773.9 213.9 L 769.2 209.4 L 764.6 204.9 L 759.9 200.4 L 755.3 195.9 L 750.7 191.4 L 746.2 186.9 L 741.7 182.2 L 737.3 177.6 L 733.0 172.8 L 733.0 172.8 L 728.6 168.0 L 723.7 162.9 L 718.5 157.7 L 713.1 152.4 L 707.6 147.1 L 702.1 141.7 L 696.7 136.3 L 691.5 131.0 L 686.6 125.7 L 682.1 120.5 L 678.1 115.5 L 674.8 110.7 L 672.1 106.0 L 670.3 101.7 L 669.5 97.6 L 669.6 93.9 L 669.6 93.9 L 670.9 90.3 L 673.3 86.7 L 676.6 83.2 L 680.7 79.8 L 685.6 76.4 L 691.1 73.3 L 697.2 70.3 L 703.6 67.6 L 710.3 65.1 L 717.2 63.0 L 724.1 61.2 L 731.0 59.7 L 737.7 58.7 L 744.2 58.2 L 750.2 58.2 L 755.8 58.6 L 755.8 58.6 L 761.1 59.7 L 766.3 61.5 L 771.6 63.8 L 776.9 66.6 L 782.2 69.9 L 787.4 73.5 L 792.6 77.5 L 797.8 81.8 L 803.0 86.3 L 808.2 90.9 L 813.3 95.6 L 818.4 100.3 L 823.5 105.0 L 828.5 109.7 L 833.4 114.1 L 838.3 118.4 L 838.3 118.4 L 843.2 122.6 L 847.9 126.8 L 852.6 131.2 L 857.3 135.6 L 861.9 140.1 L 866.5 144.7 L 871.0 149.3 L 875.6 153.9 L 880.1 158.5 L 884.6 163.2 L 889.1 167.9 L 893.6 172.5 L 898.1 177.1 L 902.6 181.8 L 907.2 186.3 L 911.8 190.8 L 911.8 190.8 L 916.5 195.3 L 921.1 199.9 L 925.7 204.4 L 930.3 208.9 L 934.9 213.4 L 939.5 218.0 L 944.1 222.5 L 948.7 227.0 L 953.3 231.5 L 958.0 236.0 L 962.7 240.4 L 967.4 244.8 L 972.1 249.2 L 976.9 253.5 L 981.7 257.8 L 986.5 262.1 L 986.5 262.1 L 991.4 266.3 L 996.3 270.5 L 1001.2 274.6 L 1006.2 278.7 L 1011.2 282.8 L 1016.2 286.9 L 1021.2 290.9 L 1026.3 294.9 L 1031.4 298.9 L 1036.5 302.8 L 1041.6 306.7 L 1046.7 310.7 L 1051.9 314.5 L 1057.1 318.4 L 1062.2 322.3 L 1067.4 326.1 L 1067.4 326.1 L 1072.6 329.9 L 1077.8 333.7 L 1083.1 337.4 L 1088.4 341.1 L 1093.7 344.7 L 1099.0 348.4 L 1104.4 352.0 L 1109.7 355.6 L 1115.1 359.2 L 1120.5 362.8 L 1125.8 366.4 L 1131.2 370.0 L 1136.5 373.6 L 1141.9 377.2 L 1147.2 380.8 L 1152.5 384.5 L 1152.5 384.5 L 1157.8 388.2 L 1163.1 391.9 L 1168.4 395.6 L 1173.6 399.3 L 1178.9 403.0 L 1184.2 406.7 L 1189.5 410.4 L 1194.8 414.2 L 1200.0 417.9 L 1205.3 421.6 L 1210.5 425.4 L 1215.8 429.1 L 1221.0 432.9 L 1226.2 436.7 L 1231.4 440.5 L 1236.7 444.3 L 1236.7 444.3 L 1241.8 448.1 L 1247.0 452.0 L 1252.2 455.8 L 1257.3 459.7 L 1262.5 463.6 L 1267.6 467.5 L 1272.7 471.4 L 1277.9 475.3 L 1283.0 479.3 L 1288.1 483.2 L 1293.2 487.1 L 1298.3 491.0 L 1303.5 495.0 L 1308.6 498.9 L 1313.7 502.8 L 1318.9 506.7 L 1318.9 506.7 L 1324.1 510.5 L 1329.3 514.3 L 1334.6 518.0 L 1340.0 521.8 L 1345.4 525.4 L 1350.8 529.1 L 1356.1 532.8 L 1361.5 536.5 L 1366.8 540.2 L 1372.0 544.0 L 1377.2 547.9 L 1382.3 551.8 L 1387.3 555.9 L 1392.1 560.0 L 1396.8 564.3 L 1401.4 568.7 L 1401.4 568.7 L 1405.9 573.2 L 1410.4 577.8 L 1415.0 582.5 L 1419.5 587.2 L 1424.0 592.0 L 1428.4 596.9 L 1432.7 601.8 L 1436.9 606.9 L 1440.9 612.0 L 1444.7 617.2 L 1448.3 622.5 L 1451.7 627.8 L 1454.8 633.3 L 1457.5 638.8 L 1459.9 644.4 L 1462.0 650.1 L 1462.0 650.1 L 1463.7 655.9 L 1464.9 661.9 L 1465.8 668.0 L 1466.4 674.2 L 1466.7 680.6 L 1466.7 687.0 L 1466.5 693.5 L 1466.2 700.0 L 1465.6 706.6 L 1465.0 713.2 L 1464.3 719.8 L 1463.6 726.4 L 1462.9 733.0 L 1462.2 739.6 L 1461.6 746.1 L 1461.1 752.5 L 1461.1 752.5 L 1460.6 758.9 L 1460.0 765.3 L 1459.4 771.7 L 1458.7 778.1 L 1457.9 784.5 L 1457.1 790.9 L 1456.2 797.3 L 1455.3 803.7 L 1454.4 810.1 L 1453.4 816.5 L 1452.5 822.9 L 1451.5 829.3 L 1450.6 835.7 L 1449.6 842.1 L 1448.7 848.5 L 1447.9 854.9 L 1447.9 854.9 L 1447.0 861.3 L 1446.1 867.7 L 1445.3 874.1 L 1444.4 880.5 L 1443.6 886.8 L 1442.7 893.2 L 1441.9 899.6 L 1441.0 906.0 L 1440.1 912.4 L 1439.2 918.8 L 1438.3 925.2 L 1437.4 931.6 L 1436.4 938.0 L 1435.4 944.3 L 1434.4 950.7 L 1433.4 957.1 L 1433.4 957.1 L 1432.3 963.4 L 1431.2 969.8 L 1430.1 976.1 L 1429.0 982.5 L 1427.9 988.9 L 1426.7 995.2 L 1425.9 1000.0" fill="none" stroke="#ff3ea5" stroke-width="6.0" stroke-opacity="0.9"/><path d="M 592.0 1000.0 L 589.3 996.1 L 585.7 990.8 L 585.7 990.8 L 582.1 985.4 L 578.5 980.1 L 574.9 974.7 L 571.3 969.4 L 567.6 964.1 L 564.0 958.7 L 560.4 953.4 L 556.8 948.0 L 553.1 942.7 L 549.6 937.3 L 546.0 932.0 L 542.4 926.6 L 538.9 921.2 L 535.4 915.8 L 531.9 910.3 L 528.5 904.9 L 528.5 904.9 L 525.1 899.4 L 521.6 894.0 L 518.2 888.5 L 514.7 883.0 L 511.3 877.6 L 507.9 872.1 L 504.5 866.6 L 501.1 861.0 L 497.8 855.5 L 494.5 849.9 L 491.3 844.3 L 488.2 838.7 L 485.1 833.1 L 482.1 827.4 L 479.2 821.6 L 476.4 815.9 L 476.4 815.9 L 473.7 810.0 L 471.1 804.2 L 468.6 798.2 L 466.1 792.3 L 463.8 786.3 L 461.5 780.3 L 459.2 774.2 L 457.1 768.1 L 454.9 762.1 L 452.8 756.0 L 450.7 749.8 L 448.6 743.7 L 446.6 737.6 L 444.5 731.5 L 442.4 725.4 L 440.4 719.3 L 440.4 719.3 L 438.3 713.2 L 436.3 707.0 L 434.5 700.8 L 432.6 694.6 L 430.9 688.4 L 429.1 682.2 L 427.4 675.9 L 425.6 669.7 L 423.8 663.5 L 422.0 657.3 L 420.1 651.1 L 418.1 645.0 L 416.1 638.9 L 413.9 632.8 L 411.6 626.8 L 409.2 620.9 L 409.2 620.9 L 406.6 615.0 L 403.9 609.2 L 401.1 603.4 L 398.3 597.7 L 395.3 592.0 L 392.3 586.3 L 389.2 580.6 L 386.1 575.0 L 382.9 569.4 L 379.6 563.8 L 376.3 558.3 L 373.0 552.7 L 369.7 547.2 L 366.3 541.7 L 362.9 536.2 L 359.5 530.8 L 359.5 530.8 L 356.1 525.3 L 352.6 519.9 L 349.1 514.5 L 345.5 509.2 L 341.8 503.9 L 338.2 498.6 L 334.4 493.3 L 330.7 488.1 L 327.0 482.8 L 323.2 477.5 L 319.5 472.3 L 315.7 467.0 L 312.0 461.7 L 308.4 456.4 L 304.7 451.1 L 301.1 445.7 L 301.1 445.7 L 297.6 440.4 L 294.0 435.0 L 290.4 429.6 L 286.7 424.3 L 283.1 418.9 L 279.5 413.5 L 275.9 408.1 L 272.3 402.7 L 268.8 397.3 L 265.3 391.8 L 261.9 386.4 L 258.5 380.9 L 255.2 375.4 L 251.9 369.9 L 248.8 364.3 L 245.7 358.8 L 245.7 358.8 L 242.6 353.2 L 239.4 347.5 L 236.1 341.9 L 232.8 336.2 L 229.4 330.5 L 226.1 324.8 L 222.9 319.1 L 219.8 313.4 L 216.9 307.6 L 214.2 301.8 L 211.8 296.1 L 209.6 290.3 L 207.8 284.4 L 206.4 278.6 L 205.5 272.7 L 205.0 266.9 L 205.0 266.9 L 205.1 260.8 L 205.8 254.4 L 207.1 247.8 L 208.8 240.9 L 210.9 234.0 L 213.4 227.0 L 216.1 220.0 L 218.9 213.2 L 221.9 206.5 L 224.8 200.0 L 227.6 193.9 L 230.3 188.2 L 232.8 183.0 L 235.0 178.3 L 236.7 174.3 L 238.0 170.9" fill="none" stroke="#ff3ea5" stroke-width="6.0" stroke-opacity="0.9"/></g><g id="clips"><circle cx="287.3" cy="179.5" r="2" fill="none" stroke="#0b5" stroke-width="0.6"/><circle cx="813.1" cy="1000.0" r="2" fill="none" stroke="#0b5" stroke-width="0.6"/><circle cx="1194.6" cy="1000.0" r="2" fill="none" stroke="#0b5" stroke-width="0.6"/><circle cx="1425.9" cy="1000.0" r="2" fill="none" stroke="#0b5" stroke-width="0.6"/><circle cx="592.0" cy="1000.0" r="2" fill="none" stroke="#0b5" stroke-width="0.6"/><circle cx="238.0" cy="170.9" r="2" fill="none" stroke="#0b5" stroke-width="0.6"/></g><g id="power"><circle cx="813.0" cy="1000.0" r="5" fill="none" stroke="#e33" stroke-width="1"/><circle cx="1194.6" cy="1000.0" r="5" fill="none" stroke="#e33" stroke-width="1"/><circle cx="1425.9" cy="1000.0" r="5" fill="none" stroke="#e33" stroke-width="1"/><circle cx="591.9" cy="1000.0" r="5" fill="none" stroke="#e33" stroke-width="1"/></g></svg>