<svg xmlns="http://www.w3.org/2000/svg" width="1000mm" height="2000mm" viewBox="0 0 1000 2000"><g id="outline"><rect x="0" y="0" width="1000" height="2000" fill="none" stroke="#000" stroke-width="1"/></g><g id="channels"><path d="M 787.3 379.5 L 789.2 382.6 L 791.5 386.3 L 794.1 390.6 L 797.1 395.3 L 800.3 400.5 L 803.8 406.0 L 807.4 411.8 L 811.1 417.9 L 815.0 424.1 L 818.9 430.5 L 822.8 436.9 L 826.6 443.3 L 830.4 449.7 L 834.1 455.9 L 837.6 461.9 L 840.8 467.7 L 840.8 467.7 L 844.0 473.3 L 847.0 479.0 L 850.1 484.7 L 853.1 490.4 L 856.0 496.1 L 859.0 501.9 L 861.9 507.6 L 864.8 513.4 L 867.7 519.1 L 870.6 524.9 L 873.5 530.7 L 876.4 536.5 L 879.3 542.2 L 882.2 548.0 L 885.1 553.7 L 888.1 559.4 L 888.1 559.4 L 891.1 565.2 L 894.0 570.9 L 897.0 576.6 L 900.0 582.4 L 902.9 588.1 L 905.9 593.8 L 908.9 599.6 L 911.8 605.3 L 914.8 611.0 L 917.8 616.7 L 920.8 622.4 L 923.8 628.1 L 926.9 633.8 L 929.9 639.5 L 933.0 645.2 L 936.1 650.9 L 936.1 650.9 L 939.1 656.5 L 942.2 662.2 L 945.2 667.9 L 948.3 673.6 L 951.3 679.3 L 954.4 685.0 L 957.4 690.7 L 960.5 696.4 L 963.7 702.0 L 966.8 707.6 L 970.1 713.2 L 973.3 718.8 L 976.7 724.2 L 980.1 729.7 L 983.6 735.1 L 987.2 740.4 L 987.2 740.4 L 990.9 745.7 L 994.7 750.9 L 998.5 756.0 L 1000.0 758.0" fill="none" stroke="#ff3ea5" stroke-width="6.0" stroke-opacity="0.9"/><path d="M 1000.0 1059.2 L 997.8 1055.5 L 994.5 1049.9 L 991.3 1044.3 L 988.2 1038.7 L 985.1 1033.1 L 982.1 1027.4 L 979.2 1021.6 L 976.4 1015.9 L 976.4 1015.9 L 973.7 1010.0 L 971.1 1004.2 L 968.6 998.2 L 966.1 992.3 L 963.8 986.3 L 961.5 980.3 L 959.2 974.2 L 957.1 968.1 L 954.9 962.1 L 952.8 956.0 L 950.7 949.8 L 948.6 943.7 L 946.6 937.6 L 944.5 931.5 L 942.4 925.4 L 940.4 919.3 L 940.4 919.3 L 938.3 913.2 L 936.3 907.0 L 934.5 900.8 L 932.6 894.6 L 930.9 888.4 L 929.1 882.2 L 927.4 875.9 L 925.6 869.7 L 923.8 863.5 L 922.0 857.3 L 920.1 851.1 L 918.1 845.0 L 916.1 838.9 L 913.9 832.8 L 911.6 826.8 L 909.2 820.9 L 909.2 820.9 L 906.6 815.0 L 903.9 809.2 L 901.1 803.4 L 898.3 797.7 L 895.3 792.0 L 892.3 786.3 L 889.2 780.6 L 886.1 775.0 L 882.9 769.4 L 879.6 763.8 L 876.3 758.3 L 873.0 752.7 L 869.7 747.2 L 866.3 741.7 L 862.9 736.2 L 859.5 730.8 L 859.5 730.8 L 856.1 725.3 L 852.6 719.9 L 849.1 714.5 L 845.5 709.2 L 841.8 703.9 L 838.2 698.6 L 834.4 693.3 L 830.7 688.1 L 827.0 682.8 L 823.2 677.5 L 819.5 672.3 L 815.7 667.0 L 812.0 661.7 L 808.4 656.4 L 804.7 651.1 L 801.1 645.7 L 801.1 645.7 L 797.6 640.4 L 794.0 635.0 L 790.4 629.6 L 786.7 624.3 L 783.1 618.9 L 779.5 613.5 L 775.9 608.1 L 772.3 602.7 L 768.8 597.3 L 765.3 591.8 L 761.9 586.4 L 758.5 580.9 L 755.2 575.4 L 751.9 569.9 L 748.8 564.3 L 745.7 558.8 L 745.7 558.8 L 742.6 553.2 L 739.4 547.5 L 736.1 541.9 L 732.8 536.2 L 729.4 530.5 L 726.1 524.8 L 722.9 519.1 L 719.8 513.4 L 716.9 507.6 L 714.2 501.8 L 711.8 496.1 L 709.6 490.3 L 707.8 484.4 L 706.4 478.6 L 705.5 472.7 L 705.0 466.9 L 705.0 466.9 L 705.1 460.8 L 705.8 454.4 L 707.1 447.8 L 708.8 440.9 L 710.9 434.0 L 713.4 427.0 L 716.1 420.0 L 718.9 413.2 L 721.9 406.5 L 724.8 400.0 L 727.6 393.9 L 730.3 388.2 L 732.8 383.0 L 735.0 378.3 L 736.7 374.3 L 738.0 370.9" fill="none" stroke="#ff3ea5" stroke-width="6.0" stroke-opacity="0.9"/></g><g id="clips"><circle cx="787.3" cy="379.5" r="2" fill="none" stroke="#0b5" stroke-width="0.6"/><circle cx="1000.0" cy="758.0" r="2" fill="none" stroke="#0b5" stroke-width="0.6"/><circle cx="1000.0" cy="1059.2" r="2" fill="none" stroke="#0b5" stroke-width="0.6"/><circle cx="738.0" cy="370.9" r="2" fill="none" stroke="#0b5" stroke-width="0.6"/></g><g id="power"><circle cx="1000.0" cy="1059.2" r="5" fill="none" stroke="#e33" stroke-width="1"/><circle cx="1000.0" cy="758.0" r="5" fill="none" stroke="#e33" stroke-width="1"/></g><g id="bridges"></g></svg>