<svg xmlns="http://www.w3.org/2000/svg" width="1000mm" height="1500mm" viewBox="0 0 1000 1500"><g id="outline"><rect x="0" y="0" width="1000" height="1500" fill="none" stroke="#000" stroke-width="1"/></g><g id="channels"><path d="M 1000.0 1034.9 L 999.4 1034.2 L 995.2 1029.1 L 991.1 1023.9 L 987.1 1018.7 L 983.1 1013.3 L 979.2 1007.9 L 975.4 1002.5 L 971.5 997.0 L 967.7 991.6 L 963.8 986.2 L 959.9 980.8 L 956.0 975.4 L 952.0 970.1 L 952.0 970.1 L 948.0 964.8 L 944.1 959.5 L 940.2 954.2 L 936.3 948.9 L 932.4 943.5 L 928.6 938.1 L 924.7 932.7 L 920.9 927.4 L 917.0 922.0 L 913.1 916.6 L 909.2 911.3 L 905.3 906.0 L 901.3 900.7 L 897.3 895.5 L 893.3 890.3 L 889.1 885.1 L 889.1 885.1 L 885.0 879.9 L 880.9 874.7 L 876.8 869.5 L 872.7 864.3 L 868.5 859.0 L 864.4 853.8 L 860.2 848.6 L 855.9 843.5 L 851.7 838.4 L 847.3 833.4 L 842.9 828.5 L 838.4 823.7 L 833.8 819.0 L 829.1 814.5 L 824.2 810.1 L 819.3 805.9 L 819.3 805.9 L 814.2 801.8 L 809.0 797.8 L 803.8 793.8 L 798.4 789.9 L 792.9 786.0 L 787.4 782.3 L 781.8 778.7 L 776.1 775.2 L 770.3 771.9 L 764.5 768.7 L 758.6 765.7 L 752.7 762.9 L 746.7 760.2 L 740.7 757.8 L 734.6 755.6 L 728.5 753.7 L 728.5 753.7 L 722.2 752.1 L 715.4 750.7 L 708.2 749.7 L 700.8 748.8 L 693.2 748.3 L 685.6 747.9 L 677.9 747.6 L 670.4 747.5 L 663.0 747.5 L 655.8 747.6 L 649.1 747.7 L 642.7 747.8 L 636.9 747.9 L 631.7 748.0 L 627.3 748.0 L 623.5 747.8" fill="none" stroke="#2b6bff" stroke-width="6.0" stroke-opacity="0.9"/><path d="M 571.1 765.4 L 569.9 766.8 L 568.6 768.6 L 567.0 770.7 L 565.3 773.0 L 563.5 775.6 L 561.5 778.3 L 559.3 781.2 L 557.1 784.1 L 554.8 787.1 L 552.4 790.0 L 549.9 792.9 L 547.4 795.7 L 544.8 798.4 L 542.2 800.8 L 539.7 803.0 L 537.1 805.0 L 537.1 805.0 L 534.4 806.8 L 531.7 808.5 L 528.8 810.2 L 525.9 811.8 L 522.9 813.4 L 519.8 814.9 L 516.7 816.3 L 513.5 817.6 L 510.4 818.8 L 507.2 819.8 L 504.0 820.7 L 500.8 821.4 L 497.7 822.0 L 494.6 822.3 L 491.6 822.5 L 488.6 822.5 L 488.6 822.5 L 485.6 822.1 L 482.5 821.4 L 479.3 820.4 L 476.0 819.1 L 472.7 817.6 L 469.4 815.9 L 466.1 814.1 L 462.9 812.2 L 459.8 810.3 L 456.8 808.4 L 454.0 806.5 L 451.4 804.8 L 448.9 803.2 L 446.8 801.8 L 444.9 800.6 L 443.3 799.7" fill="none" stroke="#2b6bff" stroke-width="6.0" stroke-opacity="0.9"/><path d="M 394.0 787.4 L 390.5 785.4 L 386.2 783.1 L 381.1 780.5 L 375.5 777.6 L 369.2 774.6 L 362.6 771.2 L 355.7 767.7 L 348.6 763.9 L 341.3 760.0 L 334.1 755.8 L 327.1 751.5 L 320.2 747.0 L 313.7 742.4 L 307.7 737.6 L 302.2 732.7 L 297.4 727.7 L 297.4 727.7 L 293.0 722.5 L 288.8 717.0 L 284.8 711.3 L 281.0 705.3 L 277.3 699.2 L 273.9 692.9 L 270.7 686.4 L 267.6 679.8 L 264.8 673.1 L 262.2 666.3 L 259.8 659.4 L 257.7 652.6 L 255.7 645.7 L 254.0 638.8 L 252.6 632.0 L 251.4 625.2 L 251.4 625.2 L 250.4 618.4 L 249.7 611.4 L 249.2 604.4 L 248.9 597.2 L 248.9 590.0 L 249.1 582.7 L 249.5 575.4 L 250.1 568.1 L 251.0 560.8 L 252.0 553.5 L 253.3 546.3 L 254.8 539.2 L 256.4 532.2 L 258.3 525.4 L 260.4 518.7 L 262.6 512.1 L 262.6 512.1 L 265.1 505.7 L 267.8 499.2 L 270.7 492.7 L 273.9 486.2 L 277.2 479.8 L 280.8 473.5 L 284.6 467.2 L 288.5 461.1 L 292.7 455.1 L 297.0 449.3 L 301.5 443.7 L 306.2 438.3 L 311.0 433.1 L 316.0 428.2 L 321.1 423.6 L 326.3 419.3 L 326.3 419.3 L 331.8 415.3 L 337.5 411.6 L 343.5 408.0 L 349.7 404.7 L 356.2 401.6 L 362.7 398.7 L 369.5 396.1 L 376.3 393.6 L 383.3 391.3 L 390.3 389.2 L 397.4 387.3 L 404.5 385.6 L 411.6 384.0 L 418.7 382.6 L 425.7 381.4 L 432.6 380.3 L 432.6 380.3 L 439.5 379.4 L 446.5 378.8 L 453.6 378.3 L 460.7 378.0 L 467.8 378.0 L 475.0 378.1 L 482.2 378.3 L 489.4 378.8 L 496.7 379.4 L 503.9 380.2 L 511.1 381.1 L 518.2 382.1 L 525.3 383.3 L 532.4 384.5 L 539.3 385.9 L 546.2 387.4 L 546.2 387.4 L 553.1 389.1 L 560.0 390.8 L 566.9 392.7 L 573.8 394.7 L 580.6 396.9 L 587.5 399.2 L 594.3 401.6 L 601.1 404.2 L 607.8 406.9 L 614.4 409.7 L 620.9 412.7 L 627.4 415.8 L 633.7 419.1 L 639.9 422.5 L 646.0 426.1 L 652.0 429.8 L 652.0 429.8 L 657.8 433.9 L 663.3 438.4 L 668.7 443.4 L 673.8 448.7 L 678.9 454.2 L 683.8 459.9 L 688.7 465.7 L 693.6 471.5 L 698.4 477.2 L 703.3 482.8 L 708.2 488.2 L 713.2 493.2 L 718.3 497.8 L 723.6 501.9 L 729.0 505.5 L 734.7 508.4 L 734.7 508.4 L 740.6 511.0 L 746.9 513.3 L 753.4 515.4 L 760.2 517.2 L 767.0 518.8 L 774.0 520.2 L 781.0 521.2 L 788.0 521.9 L 795.0 522.2 L 801.8 522.2 L 808.4 521.7 L 814.8 520.8 L 820.9 519.5 L 826.6 517.7 L 832.0 515.4 L 836.9 512.6 L 836.9 512.6 L 841.3 509.2 L 845.4 505.0 L 849.3 500.1 L 852.8 494.7 L 856.1 488.7 L 859.1 482.4 L 861.9 475.6 L 864.6 468.5 L 867.1 461.3 L 869.6 453.8 L 871.9 446.3 L 874.2 438.8 L 876.4 431.4 L 878.7 424.0 L 880.9 416.9 L 883.3 410.1 L 883.3 410.1 L 885.5 403.4 L 887.5 396.6 L 889.3 389.6 L 890.9 382.6 L 892.4 375.6 L 893.8 368.5 L 895.2 361.3 L 896.6 354.2 L 898.0 347.1 L 899.5 340.1 L 901.2 333.1 L 903.0 326.2 L 905.0 319.3 L 907.2 312.7 L 909.8 306.1 L 912.6 299.7 L 912.6 299.7 L 915.8 293.5 L 919.1 287.3 L 922.7 281.2 L 926.5 275.2 L 930.4 269.3 L 934.5 263.5 L 938.7 257.7 L 943.0 252.0 L 947.5 246.4 L 952.0 240.8 L 956.7 235.3 L 961.4 229.9 L 966.2 224.6 L 971.0 219.3 L 975.8 214.0 L 980.7 208.9 L 980.7 208.9 L 985.6 203.8 L 990.7 198.8 L 995.9 193.9 L 1000.0 190.1" fill="none" stroke="#2b6bff" stroke-width="6.0" stroke-opacity="0.9"/></g><g id="clips"><circle cx="1000.0" cy="1034.9" r="2" fill="none" stroke="#0b5" stroke-width="0.6"/><circle cx="623.5" cy="747.8" r="2" fill="none" stroke="#0b5" stroke-width="0.6"/><circle cx="571.1" cy="765.4" r="2" fill="none" stroke="#0b5" stroke-width="0.6"/><circle cx="443.3" cy="799.7" r="2" fill="none" stroke="#0b5" stroke-width="0.6"/><circle cx="394.0" cy="787.4" r="2" fill="none" stroke="#0b5" stroke-width="0.6"/><circle cx="1000.0" cy="190.1" r="2" fill="none" stroke="#0b5" stroke-width="0.6"/></g><g id="power"><circle cx="1000.0" cy="1034.9" r="5" fill="none" stroke="#e33" stroke-width="1"/><circle cx="1000.0" cy="190.1" r="5" fill="none" stroke="#e33" stroke-width="1"/></g><g id="bridges"></g></svg>