<svg xmlns="http://www.w3.org/2000/svg" width="1000mm" height="2000mm" viewBox="0 0 1000 2000"><g id="outline"><rect x="0" y="0" width="1000" height="2000" fill="none" stroke="#000" stroke-width="1"/></g><g id="channels"><path d="M 685.6 0.0 L 685.8 0.7 L 687.3 7.2 L 687.3 7.2 L 688.9 13.7 L 690.4 20.3 L 691.9 26.8 L 693.4 33.4 L 695.0 40.0 L 696.5 46.5 L 698.0 53.1 L 699.6 59.6 L 701.2 66.1 L 702.8 72.7 L 704.4 79.2 L 706.1 85.7 L 707.8 92.2 L 709.6 98.7 L 711.4 105.2 L 713.2 111.6 L 713.2 111.6 L 715.1 118.1 L 717.1 124.5 L 719.0 130.9 L 721.0 137.4 L 723.0 143.8 L 725.0 150.2 L 727.1 156.6 L 729.2 163.0 L 731.4 169.4 L 733.6 175.7 L 735.8 182.0 L 738.1 188.4 L 740.5 194.6 L 742.9 200.9 L 745.4 207.1 L 747.9 213.4 L 747.9 213.4 L 750.6 219.5 L 753.3 225.6 L 756.1 231.7 L 759.0 237.8 L 762.0 243.8 L 765.0 249.8 L 768.1 255.8 L 771.2 261.8 L 774.4 267.7 L 777.5 273.7 L 780.6 279.7 L 783.7 285.6 L 786.8 291.6 L 789.8 297.6 L 792.8 303.6 L 795.7 309.7 L 795.7 309.7 L 798.6 315.8 L 801.6 321.8 L 804.7 327.8 L 807.8 333.9 L 810.9 339.9 L 814.1 345.9 L 817.1 352.0 L 820.2 358.1 L 823.1 364.1 L 826.0 370.2 L 828.7 376.4 L 831.3 382.5 L 833.8 388.7 L 836.0 395.0 L 838.0 401.3 L 839.8 407.6 L 839.8 407.6 L 841.5 414.1 L 843.0 420.6 L 844.5 427.1 L 845.8 433.8 L 847.0 440.5 L 848.1 447.2 L 849.1 453.9 L 849.8 460.7 L 850.5 467.5 L 850.9 474.2 L 851.1 480.9 L 851.2 487.6 L 851.0 494.3 L 850.6 500.8 L 850.0 507.4 L 849.1 513.8 L 849.1 513.8 L 847.9 520.2 L 846.4 526.5 L 844.6 532.8 L 842.6 539.1 L 840.4 545.4 L 837.9 551.6 L 835.3 557.8 L 832.5 564.0 L 829.5 570.1 L 826.5 576.2 L 823.3 582.3 L 820.1 588.3 L 816.8 594.3 L 813.5 600.2 L 810.2 606.1 L 806.9 611.9 L 806.9 611.9 L 803.6 617.7 L 800.1 623.4 L 796.5 629.0 L 792.8 634.5 L 788.9 640.1 L 785.0 645.5 L 781.0 651.0 L 777.0 656.4 L 772.9 661.8 L 768.8 667.1 L 764.7 672.5 L 760.6 677.8 L 756.5 683.2 L 752.4 688.6 L 748.4 694.0 L 744.4 699.4 L 744.4 699.4 L 740.5 704.9 L 736.5 710.3 L 732.6 715.8 L 728.6 721.2 L 724.6 726.6 L 720.6 732.0 L 716.7 737.4 L 712.7 742.9 L 708.7 748.3 L 704.7 753.7 L 700.8 759.1 L 696.8 764.6 L 692.9 770.0 L 688.9 775.5 L 685.0 781.0 L 681.1 786.4 L 681.1 786.4 L 677.3 791.9 L 673.4 797.4 L 669.6 803.0 L 665.7 808.5 L 661.9 814.0 L 658.1 819.6 L 654.3 825.1 L 650.5 830.7 L 646.8 836.2 L 643.0 841.8 L 639.2 847.4 L 635.4 852.9 L 631.6 858.5 L 627.9 864.1 L 624.1 869.6 L 620.3 875.2 L 620.3 875.2 L 616.5 880.7 L 612.5 886.2 L 608.5 891.7 L 604.4 897.1 L 600.3 902.5 L 596.2 908.0 L 592.1 913.4 L 588.1 918.9 L 584.1 924.4 L 580.2 929.9 L 576.4 935.4 L 572.7 941.0 L 569.2 946.7 L 565.9 952.5 L 562.8 958.3 L 559.9 964.2 L 559.9 964.2 L 557.1 970.2 L 554.3 976.3 L 551.6 982.6 L 548.8 988.9 L 546.2 995.2 L 543.7 1001.7 L 541.3 1008.1 L 539.1 1014.6 L 537.1 1021.1 L 535.4 1027.6 L 533.9 1034.1 L 532.8 1040.6 L 532.0 1047.0 L 531.5 1053.3 L 531.5 1059.6 L 531.8 1065.8 L 531.8 1065.8 L 532.7 1071.9 L 534.0 1078.1 L 535.7 1084.2 L 537.8 1090.3 L 540.2 1096.4 L 543.0 1102.5 L 546.0 1108.6 L 549.3 1114.6 L 552.7 1120.6 L 556.3 1126.5 L 560.1 1132.4 L 563.9 1138.2 L 567.8 1143.9 L 571.7 1149.5 L 575.6 1155.1 L 579.4 1160.5 L 579.4 1160.5 L 583.3 1165.9 L 587.4 1171.1 L 591.6 1176.3 L 596.0 1181.3 L 600.5 1186.2 L 605.1 1191.1 L 609.9 1195.9 L 614.6 1200.7 L 619.5 1205.5 L 624.3 1210.2 L 629.2 1214.9 L 634.1 1219.7 L 638.9 1224.4 L 643.7 1229.2 L 648.5 1234.0 L 653.1 1238.9 L 653.1 1238.9 L 657.8 1243.7 L 662.4 1248.6 L 667.1 1253.4 L 671.8 1258.2 L 676.5 1263.0 L 681.3 1267.9 L 686.0 1272.7 L 690.7 1277.5 L 695.3 1282.3 L 700.0 1287.2 L 704.6 1292.1 L 709.2 1297.0 L 713.7 1302.0 L 718.1 1307.0 L 722.5 1312.1 L 726.8 1317.2 L 726.8 1317.2 L 731.1 1322.4 L 735.4 1327.6 L 739.7 1332.8 L 743.9 1338.0 L 748.1 1343.3 L 752.3 1348.6 L 756.4 1353.9 L 760.5 1359.3 L 764.5 1364.7 L 768.4 1370.2 L 772.3 1375.7 L 776.0 1381.2 L 779.6 1386.9 L 783.1 1392.5 L 786.5 1398.3 L 789.7 1404.1 L 789.7 1404.1 L 792.8 1410.0 L 795.8 1416.0 L 798.7 1422.0 L 801.4 1428.2 L 804.1 1434.3 L 806.7 1440.6 L 809.1 1446.9 L 811.5 1453.2 L 813.8 1459.6 L 816.0 1466.0 L 818.2 1472.4 L 820.3 1478.8 L 822.3 1485.2 L 824.2 1491.7 L 826.1 1498.1 L 828.0 1504.5 L 828.0 1504.5 L 829.7 1511.1 L 831.3 1517.9 L 832.7 1524.9 L 834.0 1532.1 L 835.2 1539.4 L 836.3 1546.6 L 837.3 1553.9 L 838.4 1561.1 L 839.4 1568.2 L 840.4 1575.1 L 841.5 1581.7 L 842.7 1588.1 L 844.0 1594.0 L 845.3 1599.6 L 846.9 1604.7 L 848.6 1609.3 L 848.6 1609.3 L 850.4 1613.3 L 852.4 1616.7 L 854.5 1619.5 L 856.7 1621.8 L 859.0 1623.7 L 861.3 1625.4 L 863.7 1626.8 L 866.1 1628.0 L 868.6 1629.2 L 871.0 1630.5 L 873.5 1631.8 L 876.0 1633.3 L 878.5 1635.1 L 880.9 1637.2 L 883.3 1639.7 L 885.7 1642.8 L 885.7 1642.8 L 888.0 1646.5 L 890.3 1650.8 L 892.5 1655.6 L 894.8 1660.8 L 897.0 1666.3 L 899.3 1672.0 L 901.5 1677.8 L 903.7 1683.6 L 906.0 1689.2 L 908.3 1694.6 L 910.6 1699.7 L 913.0 1704.4 L 915.3 1708.4 L 917.8 1711.9 L 920.2 1714.5 L 922.8 1716.3 L 922.8 1716.3 L 925.4 1717.2 L 928.3 1717.3 L 931.3 1716.6 L 934.5 1715.2 L 937.7 1713.4 L 940.9 1711.0 L 944.2 1708.4 L 947.4 1705.5 L 950.6 1702.5 L 953.6 1699.4 L 956.5 1696.3 L 959.3 1693.5 L 961.7 1690.8 L 964.0 1688.6 L 965.9 1686.7 L 967.5 1685.5" fill="none" stroke="#39ff88" stroke-width="6.0" stroke-opacity="0.9"/><path d="M 922.7 1526.1 L 923.3 1527.6 L 924.1 1529.5 L 924.9 1531.7 L 925.8 1534.1 L 926.8 1536.7 L 927.8 1539.5 L 929.0 1542.5 L 930.1 1545.6 L 931.4 1548.7 L 932.6 1551.9 L 934.0 1555.2 L 935.3 1558.4 L 936.6 1561.5 L 938.0 1564.5 L 939.3 1567.4 L 940.7 1570.1 L 940.7 1570.1 L 942.1 1572.9 L 943.5 1575.8 L 944.9 1578.8 L 946.4 1581.9 L 947.9 1585.1 L 949.4 1588.2 L 951.0 1591.3 L 952.5 1594.3 L 954.1 1597.2 L 955.8 1599.9 L 957.4 1602.5 L 959.0 1604.7 L 960.7 1606.7 L 962.4 1608.3 L 964.0 1609.6 L 965.7 1610.4 L 965.7 1610.4 L 967.4 1610.8 L 969.3 1610.6 L 971.2 1610.1 L 973.2 1609.1 L 975.2 1607.8 L 977.3 1606.3 L 979.4 1604.6 L 981.4 1602.7 L 983.4 1600.8 L 985.3 1598.8 L 987.1 1596.9 L 988.8 1595.1 L 990.4 1593.4 L 991.8 1592.0 L 993.0 1590.8 L 994.0 1590.0" fill="none" stroke="#39ff88" stroke-width="6.0" stroke-opacity="0.9"/><path d="M 986.3 1699.8 L 987.5 1702.6 L 989.0 1706.5 L 990.8 1711.3 L 992.9 1716.9 L 995.1 1722.9 L 997.5 1729.3 L 1000.0 1735.8 L 1000.0 1735.8" fill="none" stroke="#39ff88" stroke-width="6.0" stroke-opacity="0.9"/><path d="M 1000.0 1483.1 L 999.7 1482.7 L 999.7 1482.7 L 995.3 1477.5 L 990.9 1472.3 L 986.4 1467.2 L 981.8 1462.1 L 977.2 1457.0 L 972.6 1451.9 L 968.0 1446.9 L 963.4 1441.8 L 958.8 1436.8 L 954.2 1431.7 L 949.6 1426.6 L 945.1 1421.5 L 940.6 1416.3 L 936.2 1411.1 L 931.8 1405.9 L 927.5 1400.6 L 927.5 1400.6 L 923.3 1395.3 L 919.1 1389.9 L 914.9 1384.5 L 910.8 1379.0 L 906.7 1373.6 L 902.6 1368.1 L 898.5 1362.5 L 894.5 1357.0 L 890.6 1351.4 L 886.6 1345.9 L 882.7 1340.3 L 878.8 1334.7 L 874.9 1329.0 L 871.0 1323.4 L 867.2 1317.7 L 863.4 1312.1 L 863.4 1312.1 L 859.6 1306.4 L 855.8 1300.7 L 852.1 1295.0 L 848.4 1289.2 L 844.7 1283.5 L 841.0 1277.7 L 837.4 1271.9 L 833.8 1266.1 L 830.2 1260.3 L 826.7 1254.4 L 823.1 1248.6 L 819.6 1242.7 L 816.1 1236.8 L 812.7 1230.9 L 809.2 1225.0 L 805.8 1219.1 L 805.8 1219.1 L 802.4 1213.2 L 798.9 1207.2 L 795.4 1201.3 L 791.8 1195.4 L 788.2 1189.5 L 784.6 1183.5 L 781.1 1177.5 L 777.6 1171.6 L 774.3 1165.5 L 771.0 1159.5 L 767.9 1153.4 L 764.9 1147.3 L 762.1 1141.1 L 759.4 1134.9 L 757.0 1128.7 L 754.9 1122.4 L 754.9 1122.4 L 752.9 1116.0 L 750.9 1109.5 L 749.1 1102.9 L 747.3 1096.3 L 745.6 1089.6 L 744.1 1082.9 L 742.7 1076.1 L 741.5 1069.3 L 740.6 1062.6 L 739.8 1055.8 L 739.2 1049.1 L 739.0 1042.4 L 739.0 1035.7 L 739.3 1029.2 L 739.9 1022.7 L 740.8 1016.3 L 740.8 1016.3 L 742.1 1010.0 L 743.9 1003.7 L 745.9 997.4 L 748.4 991.2 L 751.1 985.0 L 754.0 978.8 L 757.2 972.7 L 760.6 966.6 L 764.2 960.6 L 767.8 954.6 L 771.6 948.7 L 775.4 942.8 L 779.3 936.9 L 783.1 931.1 L 786.9 925.3 L 790.7 919.6 L 790.7 919.6 L 794.4 913.9 L 798.2 908.3 L 802.1 902.7 L 806.1 897.2 L 810.2 891.7 L 814.3 886.2 L 818.5 880.8 L 822.8 875.4 L 827.1 870.1 L 831.5 864.8 L 836.0 859.6 L 840.4 854.4 L 845.0 849.3 L 849.5 844.2 L 854.1 839.1 L 858.8 834.1 L 858.8 834.1 L 863.4 829.2 L 868.2 824.3 L 873.0 819.5 L 877.9 814.8 L 882.9 810.1 L 887.9 805.4 L 892.9 800.8 L 898.0 796.2 L 903.1 791.7 L 908.3 787.2 L 913.4 782.7 L 918.6 778.2 L 923.8 773.7 L 929.0 769.2 L 934.1 764.7 L 939.3 760.2 L 939.3 760.2 L 944.4 755.8 L 949.6 751.3 L 954.8 746.9 L 960.1 742.5 L 965.3 738.1 L 970.6 733.8 L 975.9 729.5 L 981.2 725.1 L 986.5 720.8 L 991.8 716.5 L 997.0 712.1 L 1000.0 709.7" fill="none" stroke="#39ff88" stroke-width="6.0" stroke-opacity="0.9"/></g><g id="clips"><circle cx="685.6" cy="0.0" r="2" fill="none" stroke="#0b5" stroke-width="0.6"/><circle cx="967.5" cy="1685.5" r="2" fill="none" stroke="#0b5" stroke-width="0.6"/><circle cx="922.7" cy="1526.1" r="2" fill="none" stroke="#0b5" stroke-width="0.6"/><circle cx="994.0" cy="1590.0" r="2" fill="none" stroke="#0b5" stroke-width="0.6"/><circle cx="986.3" cy="1699.8" r="2" fill="none" stroke="#0b5" stroke-width="0.6"/><circle cx="1000.0" cy="1483.1" r="2" fill="none" stroke="#0b5" stroke-width="0.6"/><circle cx="1000.0" cy="709.7" r="2" fill="none" stroke="#0b5" stroke-width="0.6"/></g><g id="power"><circle cx="685.6" cy="0.0" r="5" fill="none" stroke="#e33" stroke-width="1"/><circle cx="1000.0" cy="1483.1" r="5" fill="none" stroke="#e33" stroke-width="1"/><circle cx="1000.0" cy="709.7" r="5" fill="none" stroke="#e33" stroke-width="1"/></g><g id="bridges"><circle cx="975.1" cy="1694.2" r="9" fill="none" stroke="#e6a817" stroke-width="1.5"/><circle cx="975.1" cy="1694.2" r="9" fill="none" stroke="#e6a817" stroke-width="1.5"/></g></svg>