<svg xmlns="http://www.w3.org/2000/svg" width="1000mm" height="2000mm" viewBox="0 0 1000 2000"><g id="outline"><rect x="0" y="0" width="1000" height="2000" fill="none" stroke="#000" stroke-width="1"/></g><g id="channels"><path d="M 663.6 1369.4 L 663.0 1373.1 L 662.3 1377.6 L 661.5 1382.8 L 660.5 1388.5 L 659.5 1394.8 L 658.4 1401.5 L 657.2 1408.5 L 656.0 1415.9 L 654.8 1423.4 L 653.6 1431.1 L 652.4 1438.9 L 651.2 1446.6 L 650.0 1454.2 L 648.9 1461.6 L 647.8 1468.8 L 646.8 1475.7 L 646.8 1475.7 L 645.9 1482.3 L 644.9 1489.0 L 644.0 1495.7 L 643.1 1502.3 L 642.1 1509.0 L 641.2 1515.7 L 640.3 1522.3 L 639.5 1529.0 L 638.6 1535.7 L 637.8 1542.3 L 637.0 1549.0 L 636.3 1555.7 L 635.6 1562.4 L 634.9 1569.1 L 634.3 1575.8 L 633.8 1582.5 L 633.8 1582.5 L 633.3 1589.2 L 632.8 1595.9 L 632.3 1602.6 L 631.9 1609.3 L 631.5 1616.0 L 631.1 1622.7 L 630.8 1629.5 L 630.5 1636.2 L 630.3 1642.9 L 630.1 1649.6 L 630.0 1656.4 L 629.9 1663.1 L 629.9 1669.8 L 630.0 1676.5 L 630.2 1683.2 L 630.4 1689.9 L 630.4 1689.9 L 630.8 1696.6 L 631.2 1703.3 L 631.7 1710.0 L 632.3 1716.7 L 632.9 1723.4 L 633.6 1730.1 L 634.4 1736.7 L 635.2 1743.4 L 636.0 1750.1 L 636.9 1756.8 L 637.9 1763.4 L 638.8 1770.1 L 639.8 1776.8 L 640.9 1783.4 L 641.9 1790.0 L 642.9 1796.7 L 642.9 1796.7 L 644.0 1803.3 L 645.1 1809.9 L 646.3 1816.6 L 647.5 1823.2 L 648.7 1829.8 L 650.0 1836.4 L 651.3 1843.0 L 652.7 1849.6 L 654.0 1856.2 L 655.4 1862.7 L 656.8 1869.3 L 658.2 1875.9 L 659.6 1882.5 L 661.0 1889.1 L 662.4 1895.6 L 663.8 1902.2 L 663.8 1902.2 L 665.2 1908.8 L 666.6 1915.4 L 668.0 1921.9 L 669.4 1928.5 L 670.9 1935.1 L 672.3 1941.7 L 673.8 1948.2 L 675.3 1954.8 L 676.7 1961.3 L 678.2 1967.9 L 679.7 1974.5 L 681.2 1981.0 L 682.7 1987.6 L 684.3 1994.1 L 685.6 2000.0" fill="none" stroke="#39ff88" stroke-width="6.0" stroke-opacity="0.9"/><path d="M 1000.0 386.0 L 999.4 387.3 L 996.8 393.3 L 994.1 399.3 L 991.4 405.3 L 988.8 411.3 L 986.1 417.2 L 983.4 423.2 L 980.8 429.2 L 978.2 435.2 L 975.5 441.2 L 972.9 447.2 L 970.3 453.3 L 967.6 459.3 L 967.6 459.3 L 965.0 465.3 L 962.4 471.3 L 959.8 477.3 L 957.1 483.3 L 954.5 489.3 L 951.9 495.3 L 949.3 501.3 L 946.7 507.3 L 944.1 513.3 L 941.5 519.4 L 938.9 525.4 L 936.3 531.4 L 933.8 537.5 L 931.2 543.5 L 928.7 549.5 L 926.1 555.6 L 926.1 555.6 L 923.6 561.6 L 921.1 567.7 L 918.6 573.7 L 916.1 579.8 L 913.6 585.9 L 911.1 591.9 L 908.6 598.0 L 906.1 604.1 L 903.7 610.1 L 901.2 616.2 L 898.8 622.3 L 896.4 628.4 L 894.0 634.5 L 891.6 640.6 L 889.2 646.7 L 886.9 652.8 L 886.9 652.8 L 884.6 659.0 L 882.3 665.1 L 880.0 671.2 L 877.7 677.4 L 875.5 683.6 L 873.3 689.7 L 871.1 695.9 L 868.9 702.1 L 866.7 708.3 L 864.6 714.5 L 862.4 720.6 L 860.2 726.8 L 858.0 733.0 L 855.9 739.2 L 853.7 745.4 L 851.5 751.6 L 851.5 751.6 L 849.3 757.7 L 847.1 763.9 L 845.0 770.1 L 842.8 776.3 L 840.6 782.5 L 838.5 788.7 L 836.3 794.9 L 834.2 801.1 L 832.0 807.2 L 829.9 813.4 L 827.7 819.6 L 825.5 825.8 L 823.4 832.0 L 821.2 838.2 L 819.0 844.4 L 816.8 850.5 L 816.8 850.5 L 814.6 856.7 L 812.4 862.9 L 810.2 869.0 L 807.9 875.2 L 805.7 881.4 L 803.4 887.5 L 801.2 893.7 L 799.0 899.9 L 796.7 906.0 L 794.5 912.2 L 792.2 918.3 L 790.0 924.5 L 787.7 930.6 L 785.5 936.8 L 783.2 943.0 L 781.0 949.1 L 781.0 949.1 L 778.8 955.3 L 776.5 961.4 L 774.3 967.6 L 772.1 973.8 L 769.8 979.9 L 767.6 986.1 L 765.3 992.2 L 763.1 998.4 L 760.9 1004.6 L 758.6 1010.7 L 756.4 1016.9 L 754.2 1023.1 L 751.9 1029.2 L 749.7 1035.4 L 747.5 1041.6 L 745.3 1047.7 L 745.3 1047.7 L 743.1 1053.9 L 740.9 1060.1 L 738.7 1066.3 L 736.5 1072.4 L 734.2 1078.6 L 732.0 1084.8 L 729.8 1090.9 L 727.6 1097.1 L 725.4 1103.3 L 723.2 1109.5 L 721.1 1115.7 L 718.9 1121.9 L 716.8 1128.1 L 714.8 1134.3 L 712.7 1140.5 L 710.8 1146.8 L 710.8 1146.8 L 708.8 1153.0 L 706.8 1159.3 L 704.8 1165.5 L 702.7 1171.8 L 700.7 1178.0 L 698.7 1184.3 L 696.8 1190.6 L 694.9 1196.9 L 693.0 1203.2 L 691.2 1209.5 L 689.5 1215.8 L 687.9 1222.2 L 686.3 1228.5 L 684.9 1234.9 L 683.6 1241.3 L 682.4 1247.7 L 682.4 1247.7 L 681.4 1254.1 L 680.4 1260.5 L 679.6 1267.0 L 678.8 1273.5 L 678.2 1280.0 L 677.6 1286.6 L 677.1 1293.1 L 676.7 1299.6 L 676.3 1306.2 L 676.1 1312.8 L 675.9 1319.3 L 675.7 1325.9 L 675.6 1332.4 L 675.6 1339.0 L 675.6 1345.5 L 675.7 1352.1 L 675.7 1352.1 L 675.8 1358.6 L 676.1 1365.1 L 676.4 1371.6 L 676.9 1378.2 L 677.4 1384.7 L 677.9 1391.2 L 678.6 1397.8 L 679.2 1404.3 L 680.0 1410.8 L 680.7 1417.4 L 681.5 1423.9 L 682.3 1430.4 L 683.1 1436.9 L 683.9 1443.4 L 684.7 1450.0 L 685.4 1456.5 L 685.4 1456.5 L 686.2 1463.2 L 687.1 1470.2 L 688.1 1477.5 L 689.1 1484.9 L 690.1 1492.4 L 691.2 1500.0 L 692.3 1507.5 L 693.3 1514.9 L 694.4 1522.1 L 695.4 1529.0 L 696.4 1535.6 L 697.3 1541.7 L 698.1 1547.3 L 698.9 1552.3 L 699.5 1556.7 L 700.0 1560.3" fill="none" stroke="#39ff88" stroke-width="6.0" stroke-opacity="0.9"/></g><g id="clips"><circle cx="663.6" cy="1369.4" r="2" fill="none" stroke="#0b5" stroke-width="0.6"/><circle cx="685.6" cy="2000.0" r="2" fill="none" stroke="#0b5" stroke-width="0.6"/><circle cx="1000.0" cy="386.0" r="2" fill="none" stroke="#0b5" stroke-width="0.6"/><circle cx="700.0" cy="1560.3" r="2" fill="none" stroke="#0b5" stroke-width="0.6"/></g><g id="power"><circle cx="685.6" cy="2000.0" r="5" fill="none" stroke="#e33" stroke-width="1"/><circle cx="1000.0" cy="386.0" r="5" fill="none" stroke="#e33" stroke-width="1"/></g><g id="bridges"><circle cx="669.6" cy="1360.8" r="9" fill="none" stroke="#e6a817" stroke-width="1.5"/><circle cx="669.3" cy="1399.6" r="9" fill="none" stroke="#e6a817" stroke-width="1.5"/><circle cx="667.6" cy="1410.1" r="9" fill="none" stroke="#e6a817" stroke-width="1.5"/><circle cx="669.2" cy="1406.2" r="9" fill="none" stroke="#e6a817" stroke-width="1.5"/></g></svg>