<svg xmlns="http://www.w3.org/2000/svg" width="2000mm" height="1000mm" viewBox="0 0 2000 1000"><g id="outline"><rect x="0" y="0" width="2000" height="1000" fill="none" stroke="#000" stroke-width="1"/></g><g id="channels"><path d="M 1130.0 0.0 L 1128.7 1.0 L 1123.1 5.5 L 1117.8 10.1 L 1113.0 14.6 L 1108.6 19.1 L 1104.9 23.5 L 1104.9 23.5 L 1101.5 28.0 L 1098.1 33.0 L 1094.7 38.2 L 1091.5 43.7 L 1088.4 49.4 L 1085.5 55.1 L 1082.8 60.9 L 1080.3 66.5 L 1078.2 72.0 L 1076.4 77.3 L 1074.9 82.3 L 1073.9 86.8 L 1073.3 90.9 L 1073.2 94.5 L 1073.7 97.4 L 1074.7 99.6 L 1074.7 99.6 L 1076.5 100.9 L 1079.2 101.3 L 1082.7 100.9 L 1086.8 99.9 L 1091.5 98.3 L 1096.7 96.4 L 1102.2 94.1 L 1107.8 91.7 L 1113.6 89.2 L 1119.3 86.9 L 1124.9 84.7 L 1130.3 82.9 L 1135.2 81.5 L 1139.6 80.7 L 1143.5 80.7 L 1146.6 81.4 L 1146.6 81.4 L 1149.0 82.9 L 1151.0 85.0 L 1152.5 87.6 L 1153.7 90.6 L 1154.5 93.9 L 1155.1 97.6 L 1155.6 101.6 L 1155.9 105.7 L 1156.1 110.0 L 1156.4 114.3 L 1156.6 118.7 L 1157.0 122.9 L 1157.6 127.1 L 1158.4 131.1 L 1159.5 134.8 L 1160.9 138.3 L 1160.9 138.3 L 1162.7 141.6 L 1164.6 144.9 L 1166.7 148.3 L 1168.9 151.8 L 1171.3 155.2 L 1173.8 158.6 L 1176.3 161.9 L 1178.9 165.2 L 1181.6 168.3 L 1184.2 171.4 L 1186.8 174.3 L 1189.4 177.0 L 1191.8 179.6 L 1194.2 182.0 L 1196.5 184.1 L 1198.6 186.0 L 1198.6 186.0 L 1200.6 187.6 L 1202.5 189.0 L 1204.2 190.1 L 1205.8 191.1 L 1207.3 191.9 L 1208.9 192.5 L 1210.3 193.0 L 1211.8 193.3 L 1213.3 193.6 L 1214.9 193.8 L 1216.5 193.9 L 1218.3 193.9 L 1220.1 194.0 L 1222.1 194.0 L 1224.2 194.0 L 1226.6 194.1 L 1226.6 194.1 L 1229.1 194.1 L 1231.9 193.9 L 1234.8 193.6 L 1237.9 193.1 L 1241.0 192.6 L 1244.3 192.0 L 1247.7 191.4 L 1251.1 190.8 L 1254.5 190.1 L 1257.9 189.6 L 1261.3 189.1 L 1264.6 188.7 L 1267.9 188.5 L 1271.0 188.5 L 1274.0 188.6 L 1276.9 188.9 L 1276.9 188.9 L 1279.7 189.7 L 1282.4 191.1 L 1285.1 192.9 L 1287.8 195.0 L 1290.5 197.4 L 1293.1 199.9 L 1295.7 202.4 L 1298.2 204.9 L 1300.6 207.2 L 1303.0 209.2 L 1305.3 210.8 L 1307.5 211.9 L 1309.7 212.4 L 1311.8 212.2 L 1313.7 211.2 L 1315.6 209.3 L 1315.6 209.3 L 1317.3 206.4 L 1318.7 202.6 L 1319.8 197.9 L 1320.8 192.6 L 1321.6 186.7 L 1322.3 180.3 L 1323.0 173.5 L 1323.7 166.5 L 1324.5 159.2 L 1325.3 151.8 L 1326.3 144.5 L 1327.5 137.2 L 1328.9 130.2 L 1330.7 123.6 L 1332.8 117.3 L 1335.2 111.6 L 1335.2 111.6 L 1338.1 106.2 L 1341.2 101.0 L 1344.6 95.8 L 1348.2 90.8 L 1352.1 85.9 L 1356.2 81.0 L 1360.4 76.3 L 1364.8 71.6 L 1369.2 66.9 L 1373.8 62.4 L 1378.4 57.8 L 1383.0 53.3 L 1387.6 48.8 L 1392.2 44.4 L 1396.8 39.9 L 1401.3 35.4 L 1401.3 35.4 L 1405.7 31.0 L 1410.3 26.6 L 1414.8 22.2 L 1419.5 17.9 L 1424.1 13.6 L 1428.8 9.4 L 1433.6 5.2 L 1438.3 1.0 L 1439.5 0.0" fill="none" stroke="#00e5ff" stroke-width="6.0" stroke-opacity="0.9"/></g><g id="clips"><circle cx="1130.0" cy="0.0" r="2" fill="none" stroke="#0b5" stroke-width="0.6"/><circle cx="1439.5" cy="0.0" r="2" fill="none" stroke="#0b5" stroke-width="0.6"/></g><g id="power"><circle cx="1130.0" cy="0.0" r="5" fill="none" stroke="#e33" stroke-width="1"/><circle cx="1439.5" cy="0.0" r="5" fill="none" stroke="#e33" stroke-width="1"/></g></svg>