<svg xmlns="http://www.w3.org/2000/svg" width="1000mm" height="1000mm" viewBox="0 0 1000 1000"><g id="outline"><rect x="0" y="0" width="1000" height="1000" fill="none" stroke="#000" stroke-width="1"/></g><g id="channels"><path d="M 317.4 92.9 L 319.7 90.7 L 322.4 88.2 L 325.6 85.2 L 329.0 81.8 L 332.9 78.2 L 336.9 74.3 L 341.2 70.3 L 345.7 66.0 L 350.4 61.7 L 355.0 57.2 L 359.8 52.7 L 364.4 48.2 L 369.1 43.8 L 373.7 39.6 L 378.0 35.4 L 382.2 31.5 L 382.2 31.5 L 386.3 27.6 L 390.3 23.7 L 394.4 19.9 L 398.3 16.0 L 402.4 12.1 L 406.4 8.2 L 410.4 4.3 L 414.4 0.4 L 414.8 0.0" fill="none" stroke="#a05bff" stroke-width="6.0" stroke-opacity="0.9"/><path d="M 221.7 0.0 L 220.8 1.2 L 217.8 5.8 L 215.4 10.4 L 213.6 14.8 L 212.6 19.2 L 212.5 23.5 L 212.5 23.5 L 213.4 27.7 L 215.4 32.0 L 218.4 36.4 L 222.2 40.8 L 226.6 45.2 L 231.7 49.6 L 237.1 53.9 L 242.7 58.1 L 248.6 62.3 L 254.4 66.2 L 259.9 69.8 L 265.2 73.3 L 270.0 76.4 L 274.2 79.3 L 277.8 81.7 L 280.4 83.8" fill="none" stroke="#a05bff" stroke-width="6.0" stroke-opacity="0.9"/></g><g id="clips"><circle cx="317.4" cy="92.9" r="2" fill="none" stroke="#0b5" stroke-width="0.6"/><circle cx="414.8" cy="0.0" r="2" fill="none" stroke="#0b5" stroke-width="0.6"/><circle cx="221.7" cy="0.0" r="2" fill="none" stroke="#0b5" stroke-width="0.6"/><circle cx="280.4" cy="83.8" r="2" fill="none" stroke="#0b5" stroke-width="0.6"/></g><g id="power"><circle cx="221.8" cy="0.0" r="5" fill="none" stroke="#e33" stroke-width="1"/><circle cx="414.9" cy="0.0" r="5" fill="none" stroke="#e33" stroke-width="1"/></g><g id="bridges"></g></svg>