<svg xmlns="http://www.w3.org/2000/svg" width="1000mm" height="1000mm" viewBox="0 0 1000 1000"><g id="outline"><rect x="0" y="0" width="1000" height="1000" fill="none" stroke="#000" stroke-width="1"/></g><g id="channels"><path d="M 1000.0 404.0 L 998.4 401.1 L 995.2 395.4 L 992.0 389.8 L 988.8 384.3 L 985.5 378.7 L 982.3 373.1 L 979.0 367.5 L 975.7 362.0 L 972.4 356.4 L 969.1 350.9 L 965.8 345.4 L 962.5 339.8 L 959.2 334.3 L 955.8 328.8 L 955.8 328.8 L 952.5 323.2 L 949.2 317.7 L 945.9 312.1 L 942.7 306.6 L 939.4 301.0 L 936.1 295.5 L 932.8 289.9 L 929.4 284.4 L 926.1 278.9 L 922.7 273.4 L 919.3 267.9 L 915.8 262.5 L 912.3 257.1 L 908.7 251.7 L 905.1 246.4 L 901.4 241.1 L 901.4 241.1 L 897.7 235.9 L 893.9 230.7 L 890.0 225.5 L 886.1 220.4 L 882.2 215.3 L 878.2 210.2 L 874.2 205.2 L 870.1 200.1 L 866.0 195.1 L 861.9 190.2 L 857.8 185.2 L 853.6 180.3 L 849.4 175.4 L 845.2 170.5 L 841.0 165.6 L 836.8 160.7 L 836.8 160.7 L 832.5 155.9 L 828.2 151.1 L 823.9 146.3 L 819.6 141.5 L 815.2 136.8 L 810.8 132.1 L 806.4 127.4 L 801.9 122.7 L 797.5 118.0 L 793.0 113.4 L 788.5 108.7 L 784.0 104.1 L 779.5 99.5 L 775.0 94.9 L 770.5 90.3 L 765.9 85.7 L 765.9 85.7 L 761.4 81.1 L 756.8 76.5 L 752.3 72.0 L 747.7 67.4 L 743.1 62.9 L 738.5 58.4 L 733.9 53.9 L 729.3 49.4 L 724.6 44.9 L 720.0 40.4 L 715.3 35.9 L 710.7 31.5 L 706.0 27.0 L 701.3 22.6 L 696.6 18.2 L 691.9 13.8 L 691.9 13.8 L 687.2 9.4 L 682.4 5.0 L 677.7 0.6 L 677.0 0.0" fill="none" stroke="#ff3ea5" stroke-width="6.0" stroke-opacity="0.9"/></g><g id="clips"><circle cx="1000.0" cy="404.0" r="2" fill="none" stroke="#0b5" stroke-width="0.6"/><circle cx="677.0" cy="0.0" r="2" fill="none" stroke="#0b5" stroke-width="0.6"/></g><g id="power"><circle cx="677.0" cy="0.0" r="5" fill="none" stroke="#e33" stroke-width="1"/><circle cx="1000.0" cy="404.0" r="5" fill="none" stroke="#e33" stroke-width="1"/></g><g id="bridges"></g></svg>