<svg xmlns="http://www.w3.org/2000/svg" width="1000mm" height="2000mm" viewBox="0 0 1000 2000"><g id="outline"><rect x="0" y="0" width="1000" height="2000" fill="none" stroke="#000" stroke-width="1"/></g><g id="channels"><path d="M 0.0 758.0 L 2.4 761.1 L 6.4 766.2 L 10.5 771.2 L 14.6 776.2 L 18.7 781.1 L 22.9 786.1 L 27.1 791.0 L 31.3 795.9 L 35.6 800.7 L 39.8 805.6 L 44.1 810.5 L 48.3 815.3 L 52.5 820.2 L 52.5 820.2 L 56.7 825.1 L 61.0 829.9 L 65.3 834.7 L 69.7 839.5 L 74.0 844.3 L 78.4 849.0 L 82.8 853.7 L 87.2 858.5 L 91.6 863.2 L 96.0 867.9 L 100.3 872.7 L 104.7 877.4 L 109.0 882.2 L 113.3 887.0 L 117.6 891.9 L 121.8 896.7 L 121.8 896.7 L 126.1 901.6 L 130.3 906.5 L 134.6 911.3 L 138.8 916.2 L 143.1 921.0 L 147.4 925.9 L 151.6 930.8 L 155.8 935.7 L 160.0 940.6 L 164.1 945.6 L 168.1 950.6 L 172.1 955.7 L 176.0 960.8 L 179.9 966.0 L 183.6 971.2 L 187.2 976.5 L 187.2 976.5 L 190.7 981.9 L 194.1 987.3 L 197.4 992.8 L 200.6 998.4 L 203.7 1004.0 L 206.8 1009.7 L 209.8 1015.4 L 212.7 1021.1 L 215.6 1026.9 L 218.5 1032.7 L 221.4 1038.5 L 224.2 1044.3 L 227.1 1050.1 L 230.0 1055.8 L 232.9 1061.6 L 235.9 1067.3 L 235.9 1067.3 L 238.8 1073.1 L 241.7 1078.9 L 244.5 1084.7 L 247.2 1090.5 L 250.0 1096.4 L 252.7 1102.3 L 255.4 1108.1 L 258.1 1114.0 L 260.9 1119.8 L 263.7 1125.7 L 266.6 1131.4 L 269.6 1137.1 L 272.6 1142.8 L 275.8 1148.4 L 279.0 1153.9 L 282.5 1159.3 L 282.5 1159.3 L 286.0 1164.6 L 289.7 1169.9 L 293.4 1175.1 L 297.3 1180.3 L 301.2 1185.4 L 305.2 1190.4 L 309.3 1195.4 L 313.4 1200.4 L 317.6 1205.3 L 321.8 1210.2 L 326.1 1215.1 L 330.4 1219.9 L 334.7 1224.8 L 339.0 1229.6 L 343.3 1234.4 L 347.6 1239.2 L 347.6 1239.2 L 351.9 1243.9 L 356.3 1248.7 L 360.7 1253.3 L 365.2 1258.0 L 369.7 1262.6 L 374.2 1267.2 L 378.7 1271.8 L 383.3 1276.4 L 387.9 1280.9 L 392.5 1285.5 L 397.1 1290.0 L 401.7 1294.5 L 406.3 1299.0 L 411.0 1303.5 L 415.6 1308.0 L 420.2 1312.5 L 420.2 1312.5 L 424.8 1317.1 L 429.4 1321.7 L 433.9 1326.3 L 438.5 1330.9 L 443.0 1335.5 L 447.5 1340.2 L 452.1 1344.8 L 456.7 1349.4 L 461.3 1353.9 L 465.9 1358.4 L 470.6 1362.8 L 475.4 1367.2 L 480.2 1371.5 L 485.1 1375.6 L 490.0 1379.7 L 495.0 1383.6 L 495.0 1383.6 L 500.2 1387.6 L 505.5 1391.9 L 510.9 1396.3 L 516.4 1400.8 L 522.1 1405.3 L 527.7 1409.8 L 533.4 1414.2 L 539.2 1418.3 L 544.9 1422.2 L 550.5 1425.8 L 556.1 1429.0 L 561.6 1431.6 L 567.0 1433.8 L 572.3 1435.3 L 577.4 1436.1 L 582.4 1436.1 L 582.4 1436.1 L 587.2 1435.3 L 592.0 1433.9 L 596.8 1431.7 L 601.6 1429.0 L 606.3 1425.7 L 611.0 1422.0 L 615.5 1417.8 L 620.0 1413.3 L 624.3 1408.5 L 628.5 1403.5 L 632.6 1398.2 L 636.4 1392.9 L 640.1 1387.5 L 643.6 1382.1 L 646.8 1376.7 L 649.8 1371.5 L 649.8 1371.5 L 652.5 1366.2 L 655.0 1360.7 L 657.1 1354.9 L 659.0 1348.9 L 660.6 1342.8 L 662.1 1336.5 L 663.5 1330.1 L 664.7 1323.6 L 665.9 1317.0 L 667.0 1310.4 L 668.1 1303.8 L 669.2 1297.1 L 670.4 1290.6 L 671.7 1284.0 L 673.2 1277.6 L 674.7 1271.3 L 674.7 1271.3 L 676.4 1265.1 L 678.1 1258.9 L 679.8 1252.6 L 681.4 1246.4 L 683.1 1240.2 L 684.9 1234.0 L 686.6 1227.8 L 688.3 1221.5 L 690.1 1215.3 L 691.9 1209.1 L 693.7 1203.0 L 695.6 1196.8 L 697.4 1190.6 L 699.3 1184.5 L 701.3 1178.3 L 703.3 1172.2 L 703.3 1172.2 L 705.3 1166.1 L 707.4 1160.0 L 709.6 1153.9 L 711.9 1147.8 L 714.2 1141.8 L 716.5 1135.8 L 718.9 1129.8 L 721.2 1123.7 L 723.6 1117.7 L 725.9 1111.7 L 728.2 1105.7 L 730.5 1099.6 L 732.7 1093.6 L 734.8 1087.5 L 736.8 1081.4 L 738.8 1075.3 L 738.8 1075.3 L 740.8 1069.1 L 742.9 1062.9 L 745.0 1056.7 L 747.2 1050.5 L 749.4 1044.3 L 751.6 1038.0 L 753.7 1031.8 L 755.7 1025.5 L 757.6 1019.2 L 759.3 1013.0 L 760.8 1006.7 L 762.1 1000.5 L 763.1 994.3 L 763.9 988.1 L 764.3 981.9 L 764.4 975.7 L 764.4 975.7 L 764.1 969.6 L 763.5 963.4 L 762.6 957.2 L 761.5 950.9 L 760.2 944.7 L 758.6 938.5 L 756.8 932.3 L 754.9 926.1 L 752.7 920.0 L 750.4 913.9 L 748.0 907.9 L 745.5 901.9 L 742.8 895.9 L 740.1 890.1 L 737.3 884.3 L 734.4 878.7 L 734.4 878.7 L 731.5 873.1 L 728.2 867.6 L 724.8 862.3 L 721.3 857.0 L 717.5 851.8 L 713.6 846.6 L 709.7 841.5 L 705.6 836.4 L 701.5 831.4 L 697.3 826.3 L 693.1 821.3 L 688.9 816.3 L 684.8 811.3 L 680.7 806.2 L 676.6 801.1 L 672.7 796.0 L 672.7 796.0 L 668.8 790.9 L 664.9 785.7 L 661.1 780.5 L 657.3 775.3 L 653.5 770.1 L 649.6 764.9 L 645.8 759.7 L 641.9 754.5 L 638.1 749.3 L 634.2 744.1 L 630.3 739.0 L 626.3 733.9 L 622.3 728.9 L 618.3 723.8 L 614.2 718.9 L 610.1 713.9 L 610.1 713.9 L 605.9 709.0 L 601.8 704.1 L 597.6 699.1 L 593.4 694.2 L 589.2 689.2 L 585.0 684.3 L 580.7 679.4 L 576.4 674.6 L 572.0 669.8 L 567.6 665.1 L 563.1 660.5 L 558.5 656.0 L 553.9 651.6 L 549.1 647.4 L 544.2 643.2 L 539.3 639.3 L 539.3 639.3 L 534.2 635.5 L 528.9 631.9 L 523.5 628.5 L 518.0 625.2 L 512.4 622.1 L 506.7 619.1 L 500.9 616.2 L 495.1 613.3 L 489.2 610.4 L 483.4 607.6 L 477.6 604.7 L 471.8 601.8 L 466.0 598.8 L 460.4 595.7 L 454.8 592.5 L 449.3 589.2 L 449.3 589.2 L 443.8 585.8 L 438.4 582.4 L 432.9 579.0 L 427.4 575.6 L 422.0 572.2 L 416.5 568.7 L 411.1 565.2 L 405.7 561.6 L 400.4 558.0 L 395.2 554.3 L 390.0 550.5 L 385.0 546.6 L 380.0 542.6 L 375.1 538.5 L 370.4 534.3 L 365.8 529.9 L 365.8 529.9 L 361.4 525.3 L 357.2 520.6 L 353.2 515.6 L 349.3 510.5 L 345.6 505.3 L 341.9 500.0 L 338.3 494.6 L 334.7 489.1 L 331.2 483.6 L 327.7 478.1 L 324.1 472.7 L 320.5 467.3 L 316.8 461.9 L 313.0 456.7 L 309.1 451.5 L 305.1 446.5 L 305.1 446.5 L 300.9 441.7 L 296.5 436.9 L 292.1 432.2 L 287.6 427.5 L 283.1 423.0 L 278.5 418.4 L 273.9 413.9 L 269.2 409.4 L 264.6 404.9 L 259.9 400.4 L 255.3 395.9 L 250.7 391.4 L 246.2 386.9 L 241.7 382.2 L 237.3 377.6 L 233.0 372.8 L 233.0 372.8 L 228.6 368.0 L 223.7 362.9 L 218.5 357.7 L 213.1 352.4 L 207.6 347.1 L 202.1 341.7 L 196.7 336.3 L 191.5 331.0 L 186.6 325.7 L 182.1 320.5 L 178.1 315.5 L 174.8 310.7 L 172.1 306.0 L 170.3 301.7 L 169.5 297.6 L 169.6 293.9 L 169.6 293.9 L 170.9 290.3 L 173.3 286.7 L 176.6 283.2 L 180.7 279.8 L 185.6 276.4 L 191.1 273.3 L 197.2 270.3 L 203.6 267.6 L 210.3 265.1 L 217.2 263.0 L 224.1 261.2 L 231.0 259.7 L 237.7 258.7 L 244.2 258.2 L 250.2 258.2 L 255.8 258.6 L 255.8 258.6 L 261.1 259.7 L 266.3 261.5 L 271.6 263.8 L 276.9 266.6 L 282.2 269.9 L 287.4 273.5 L 292.6 277.5 L 297.8 281.8 L 303.0 286.3 L 308.2 290.9 L 313.3 295.6 L 318.4 300.3 L 323.5 305.0 L 328.5 309.7 L 333.4 314.1 L 338.3 318.4 L 338.3 318.4 L 343.2 322.6 L 347.9 326.8 L 352.6 331.2 L 357.3 335.6 L 361.9 340.1 L 366.5 344.7 L 371.0 349.3 L 375.6 353.9 L 380.1 358.5 L 384.6 363.2 L 389.1 367.9 L 393.6 372.5 L 398.1 377.1 L 402.6 381.8 L 407.2 386.3 L 411.8 390.8 L 411.8 390.8 L 416.5 395.3 L 421.1 399.9 L 425.7 404.4 L 430.3 408.9 L 434.9 413.4 L 439.5 418.0 L 444.1 422.5 L 448.7 427.0 L 453.3 431.5 L 458.0 436.0 L 462.7 440.4 L 467.4 444.8 L 472.1 449.2 L 476.9 453.5 L 481.7 457.8 L 486.5 462.1 L 486.5 462.1 L 491.4 466.3 L 496.3 470.5 L 501.2 474.6 L 506.2 478.7 L 511.2 482.8 L 516.2 486.9 L 521.2 490.9 L 526.3 494.9 L 531.4 498.9 L 536.5 502.8 L 541.6 506.7 L 546.7 510.7 L 551.9 514.5 L 557.1 518.4 L 562.2 522.3 L 567.4 526.1 L 567.4 526.1 L 572.6 529.9 L 577.8 533.7 L 583.1 537.4 L 588.4 541.1 L 593.7 544.7 L 599.0 548.4 L 604.4 552.0 L 609.7 555.6 L 615.1 559.2 L 620.5 562.8 L 625.8 566.4 L 631.2 570.0 L 636.5 573.6 L 641.9 577.2 L 647.2 580.8 L 652.5 584.5 L 652.5 584.5 L 657.8 588.2 L 663.1 591.9 L 668.4 595.6 L 673.6 599.3 L 678.9 603.0 L 684.2 606.7 L 689.5 610.4 L 694.8 614.2 L 700.0 617.9 L 705.3 621.6 L 710.5 625.4 L 715.8 629.1 L 721.0 632.9 L 726.2 636.7 L 731.4 640.5 L 736.7 644.3 L 736.7 644.3 L 741.8 648.1 L 747.0 652.0 L 752.2 655.8 L 757.3 659.7 L 762.5 663.6 L 767.6 667.5 L 772.7 671.4 L 777.9 675.3 L 783.0 679.3 L 788.1 683.2 L 793.2 687.1 L 798.3 691.0 L 803.5 695.0 L 808.6 698.9 L 813.7 702.8 L 818.9 706.7 L 818.9 706.7 L 824.1 710.5 L 829.3 714.3 L 834.6 718.0 L 840.0 721.8 L 845.4 725.4 L 850.8 729.1 L 856.1 732.8 L 861.5 736.5 L 866.8 740.2 L 872.0 744.0 L 877.2 747.9 L 882.3 751.8 L 887.3 755.9 L 892.1 760.0 L 896.8 764.3 L 901.4 768.7 L 901.4 768.7 L 905.9 773.2 L 910.4 777.8 L 915.0 782.5 L 919.5 787.2 L 924.0 792.0 L 928.4 796.9 L 932.7 801.8 L 936.9 806.9 L 940.9 812.0 L 944.7 817.2 L 948.3 822.5 L 951.7 827.8 L 954.8 833.3 L 957.5 838.8 L 959.9 844.4 L 962.0 850.1 L 962.0 850.1 L 963.7 855.9 L 964.9 861.9 L 965.8 868.0 L 966.4 874.2 L 966.7 880.6 L 966.7 887.0 L 966.5 893.5 L 966.2 900.0 L 965.6 906.6 L 965.0 913.2 L 964.3 919.8 L 963.6 926.4 L 962.9 933.0 L 962.2 939.6 L 961.6 946.1 L 961.1 952.5 L 961.1 952.5 L 960.6 958.9 L 960.0 965.3 L 959.4 971.7 L 958.7 978.1 L 957.9 984.5 L 957.1 990.9 L 956.2 997.3 L 955.3 1003.7 L 954.4 1010.1 L 953.4 1016.5 L 952.5 1022.9 L 951.5 1029.3 L 950.6 1035.7 L 949.6 1042.1 L 948.7 1048.5 L 947.9 1054.9 L 947.9 1054.9 L 947.0 1061.3 L 946.1 1067.7 L 945.3 1074.1 L 944.4 1080.5 L 943.6 1086.8 L 942.7 1093.2 L 941.9 1099.6 L 941.0 1106.0 L 940.1 1112.4 L 939.2 1118.8 L 938.3 1125.2 L 937.4 1131.6 L 936.4 1138.0 L 935.4 1144.3 L 934.4 1150.7 L 933.4 1157.1 L 933.4 1157.1 L 932.3 1163.4 L 931.2 1169.8 L 930.1 1176.1 L 929.0 1182.5 L 927.9 1188.9 L 926.7 1195.2 L 925.6 1201.6 L 924.4 1207.9 L 923.2 1214.2 L 921.9 1220.6 L 920.7 1226.9 L 919.4 1233.2 L 918.0 1239.5 L 916.6 1245.8 L 915.2 1252.1 L 913.8 1258.4 L 913.8 1258.4 L 912.3 1264.7 L 910.7 1270.9 L 909.2 1277.2 L 907.6 1283.4 L 905.9 1289.7 L 904.3 1295.9 L 902.6 1302.1 L 900.8 1308.3 L 899.1 1314.5 L 897.3 1320.7 L 895.5 1326.9 L 893.7 1333.1 L 891.8 1339.3 L 890.0 1345.5 L 888.1 1351.6 L 886.2 1357.8 L 886.2 1357.8 L 884.2 1363.9 L 882.0 1370.1 L 879.7 1376.2 L 877.3 1382.3 L 874.8 1388.3 L 872.3 1394.4 L 869.7 1400.5 L 867.3 1406.5 L 864.8 1412.6 L 862.5 1418.7 L 860.4 1424.8 L 858.4 1430.9 L 856.6 1437.0 L 855.1 1443.1 L 853.9 1449.3 L 853.0 1455.5 L 853.0 1455.5 L 852.3 1461.7 L 851.8 1468.0 L 851.4 1474.4 L 851.2 1480.8 L 851.2 1487.2 L 851.3 1493.7 L 851.6 1500.2 L 852.0 1506.6 L 852.7 1513.0 L 853.5 1519.4 L 854.5 1525.8 L 855.7 1532.0 L 857.1 1538.2 L 858.7 1544.3 L 860.5 1550.3 L 862.5 1556.1 L 862.5 1556.1 L 864.8 1561.9 L 867.4 1567.6 L 870.3 1573.2 L 873.4 1578.7 L 876.7 1584.2 L 880.2 1589.7 L 883.9 1595.1 L 887.7 1600.4 L 891.7 1605.6 L 895.8 1610.8 L 900.0 1615.9 L 904.2 1621.0 L 908.5 1626.0 L 912.7 1630.9 L 917.0 1635.8 L 921.3 1640.6 L 921.3 1640.6 L 925.5 1645.4 L 929.8 1650.2 L 934.2 1654.9 L 938.7 1659.6 L 943.2 1664.2 L 947.9 1668.8 L 952.5 1673.3 L 957.3 1677.7 L 962.1 1682.0 L 967.0 1686.3 L 971.9 1690.5 L 976.9 1694.5 L 982.0 1698.4 L 987.2 1702.3 L 992.4 1705.9 L 997.7 1709.5 L 997.7 1709.5 L 1000.0 1710.9" fill="none" stroke="#ff3ea5" stroke-width="6.0" stroke-opacity="0.9"/><path d="M 677.0 2000.0 L 672.9 1996.3 L 668.1 1992.0 L 663.3 1987.7 L 658.4 1983.4 L 653.6 1979.2 L 648.8 1974.9 L 644.0 1970.6 L 639.2 1966.3 L 634.4 1961.9 L 629.6 1957.6 L 624.9 1953.2 L 620.1 1948.8 L 615.5 1944.4 L 615.5 1944.4 L 610.8 1939.9 L 606.2 1935.4 L 601.6 1930.9 L 597.1 1926.3 L 592.5 1921.8 L 588.0 1917.2 L 583.5 1912.6 L 578.9 1907.9 L 574.4 1903.3 L 569.9 1898.7 L 565.4 1894.1 L 560.9 1889.5 L 556.4 1884.9 L 551.9 1880.3 L 547.3 1875.7 L 542.8 1871.1 L 542.8 1871.1 L 538.2 1866.6 L 533.6 1862.1 L 529.0 1857.6 L 524.3 1853.1 L 519.7 1848.6 L 515.1 1844.1 L 510.4 1839.6 L 505.8 1835.1 L 501.2 1830.6 L 496.5 1826.1 L 491.9 1821.6 L 487.3 1817.1 L 482.7 1812.6 L 478.1 1808.1 L 473.5 1803.5 L 469.0 1799.0 L 469.0 1799.0 L 464.4 1794.4 L 459.8 1789.8 L 455.3 1785.3 L 450.6 1780.8 L 446.0 1776.2 L 441.4 1771.7 L 436.9 1767.1 L 432.3 1762.6 L 427.8 1758.0 L 423.3 1753.4 L 418.8 1748.7 L 414.4 1744.0 L 410.1 1739.2 L 405.8 1734.4 L 401.6 1729.6 L 397.5 1724.6 L 397.5 1724.6 L 393.4 1719.6 L 389.4 1714.6 L 385.5 1709.5 L 381.6 1704.4 L 377.7 1699.2 L 374.0 1694.0 L 370.2 1688.7 L 366.5 1683.4 L 362.9 1678.1 L 359.3 1672.7 L 355.7 1667.3 L 352.2 1661.9 L 348.7 1656.5 L 345.3 1651.0 L 341.9 1645.5 L 338.5 1640.0 L 338.5 1640.0 L 335.2 1634.5 L 332.0 1629.0 L 328.8 1623.4 L 325.7 1617.7 L 322.6 1612.0 L 319.6 1606.3 L 316.6 1600.6 L 313.7 1594.9 L 310.7 1589.1 L 307.8 1583.4 L 304.9 1577.6 L 302.0 1571.8 L 299.1 1566.0 L 296.2 1560.3 L 293.3 1554.5 L 290.4 1548.8 L 290.4 1548.8 L 287.4 1543.0 L 284.5 1537.3 L 281.6 1531.5 L 278.7 1525.8 L 275.8 1520.0 L 272.9 1514.2 L 270.0 1508.5 L 267.1 1502.7 L 264.3 1496.9 L 261.4 1491.1 L 258.5 1485.4 L 255.6 1479.6 L 252.7 1473.8 L 249.8 1468.1 L 246.9 1462.3 L 243.9 1456.6 L 243.9 1456.6 L 241.0 1450.9 L 238.0 1445.1 L 235.1 1439.4 L 232.1 1433.6 L 229.2 1427.9 L 226.2 1422.2 L 223.2 1416.4 L 220.2 1410.7 L 217.3 1405.0 L 214.2 1399.3 L 211.2 1393.6 L 208.2 1387.9 L 205.1 1382.2 L 202.1 1376.6 L 199.0 1370.9 L 195.8 1365.3 L 195.8 1365.3 L 192.7 1359.6 L 189.5 1354.0 L 186.4 1348.4 L 183.2 1342.8 L 180.0 1337.2 L 176.7 1331.6 L 173.5 1326.0 L 170.2 1320.4 L 167.0 1314.9 L 163.7 1309.3 L 160.4 1303.8 L 157.0 1298.3 L 153.7 1292.8 L 150.3 1287.3 L 146.9 1281.8 L 143.5 1276.3 L 143.5 1276.3 L 140.0 1270.9 L 136.5 1265.5 L 133.0 1260.1 L 129.4 1254.7 L 125.8 1249.4 L 122.2 1244.0 L 118.5 1238.7 L 114.9 1233.4 L 111.2 1228.0 L 107.6 1222.7 L 103.9 1217.4 L 100.3 1212.1 L 96.6 1206.8 L 93.0 1201.5 L 89.3 1196.1 L 85.7 1190.8 L 85.7 1190.8 L 82.1 1185.4 L 78.5 1180.1 L 74.9 1174.7 L 71.3 1169.4 L 67.6 1164.1 L 64.0 1158.7 L 60.4 1153.4 L 56.8 1148.0 L 53.1 1142.7 L 49.6 1137.3 L 46.0 1132.0 L 42.4 1126.6 L 38.9 1121.2 L 35.4 1115.8 L 31.9 1110.3 L 28.5 1104.9 L 28.5 1104.9 L 25.1 1099.4 L 21.6 1094.0 L 18.2 1088.5 L 14.7 1083.0 L 11.3 1077.6 L 7.9 1072.1 L 4.5 1066.6 L 1.1 1061.0 L 0.0 1059.2" fill="none" stroke="#ff3ea5" stroke-width="6.0" stroke-opacity="0.9"/></g><g id="clips"><circle cx="0.0" cy="758.0" r="2" fill="none" stroke="#0b5" stroke-width="0.6"/><circle cx="1000.0" cy="1710.9" r="2" fill="none" stroke="#0b5" stroke-width="0.6"/><circle cx="677.0" cy="2000.0" r="2" fill="none" stroke="#0b5" stroke-width="0.6"/><circle cx="0.0" cy="1059.2" r="2" fill="none" stroke="#0b5" stroke-width="0.6"/></g><g id="power"><circle cx="677.0" cy="2000.0" r="5" fill="none" stroke="#e33" stroke-width="1"/><circle cx="1000.0" cy="1710.9" r="5" fill="none" stroke="#e33" stroke-width="1"/><circle cx="0.0" cy="1059.2" r="5" fill="none" stroke="#e33" stroke-width="1"/><circle cx="0.0" cy="758.0" r="5" fill="none" stroke="#e33" stroke-width="1"/></g><g id="bridges"></g></svg>