<svg xmlns="http://www.w3.org/2000/svg" width="2000mm" height="1000mm" viewBox="0 0 2000 1000"><g id="outline"><rect x="0" y="0" width="2000" height="1000" fill="none" stroke="#000" stroke-width="1"/></g><g id="channels"><path d="M 1740.7 605.4 L 1738.3 602.8 L 1735.3 599.7 L 1731.9 596.1 L 1728.1 592.1 L 1724.0 587.7 L 1719.6 583.0 L 1714.9 578.1 L 1710.1 572.9 L 1705.1 567.7 L 1699.9 562.3 L 1694.8 557.0 L 1689.6 551.7 L 1684.4 546.5 L 1679.3 541.5 L 1674.3 536.7 L 1669.5 532.2 L 1669.5 532.2 L 1664.7 527.9 L 1659.9 523.7 L 1655.0 519.6 L 1650.0 515.5 L 1644.9 511.5 L 1639.8 507.5 L 1634.7 503.5 L 1629.6 499.6 L 1624.5 495.6 L 1619.4 491.6 L 1614.4 487.6 L 1609.3 483.5 L 1604.4 479.4 L 1599.5 475.2 L 1594.7 470.9 L 1590.0 466.5 L 1590.0 466.5 L 1585.3 462.0 L 1580.8 457.5 L 1576.2 452.9 L 1571.8 448.2 L 1567.4 443.5 L 1563.0 438.7 L 1558.6 433.9 L 1554.3 429.1 L 1550.0 424.3 L 1545.8 419.4 L 1541.5 414.5 L 1537.3 409.6 L 1533.1 404.7 L 1528.9 399.8 L 1524.6 394.9 L 1520.4 390.1 L 1520.4 390.1 L 1516.2 385.2 L 1511.9 380.3 L 1507.6 375.5 L 1503.3 370.6 L 1499.1 365.8 L 1494.8 360.9 L 1490.5 356.0 L 1486.3 351.1 L 1482.1 346.2 L 1478.0 341.2 L 1473.9 336.2 L 1469.9 331.2 L 1465.9 326.1 L 1462.0 321.0 L 1458.2 315.8 L 1454.5 310.5 L 1454.5 310.5 L 1450.9 305.2 L 1447.3 299.9 L 1443.8 294.5 L 1440.4 289.0 L 1437.0 283.5 L 1433.7 277.9 L 1430.4 272.4 L 1427.2 266.8 L 1424.1 261.1 L 1420.9 255.4 L 1417.9 249.7 L 1414.8 244.0 L 1411.8 238.3 L 1408.9 232.6 L 1405.9 226.8 L 1403.0 221.1 L 1403.0 221.1 L 1400.1 215.3 L 1397.3 209.5 L 1394.6 203.7 L 1391.9 197.8 L 1389.2 191.9 L 1386.6 186.0 L 1384.0 180.1 L 1381.4 174.2 L 1378.9 168.2 L 1376.4 162.3 L 1373.9 156.3 L 1371.4 150.3 L 1369.0 144.3 L 1366.5 138.4 L 1364.1 132.4 L 1361.7 126.4 L 1361.7 126.4 L 1359.3 120.4 L 1356.9 114.4 L 1354.7 108.3 L 1352.4 102.3 L 1350.2 96.2 L 1348.1 90.1 L 1345.9 84.0 L 1343.7 77.9 L 1341.6 71.8 L 1339.4 65.7 L 1337.1 59.7 L 1334.8 53.6 L 1332.5 47.6 L 1330.1 41.6 L 1327.6 35.7 L 1325.1 29.8 L 1325.1 29.8 L 1322.4 23.9 L 1319.8 18.0 L 1317.1 12.1 L 1314.4 6.2 L 1311.7 0.3 L 1311.6 0.0" fill="none" stroke="#00e5ff" stroke-width="6.0" stroke-opacity="0.9"/><path d="M 416.1 0.0 L 417.8 2.3 L 421.6 7.4 L 425.4 12.5 L 429.2 17.5 L 433.0 22.6 L 436.9 27.6 L 440.7 32.7 L 444.5 37.7 L 448.3 42.8 L 452.1 47.8 L 455.8 53.0 L 459.4 58.1 L 463.0 63.3 L 466.6 68.5 L 470.0 73.8 L 470.0 73.8 L 473.4 79.1 L 476.7 84.5 L 479.8 90.0 L 483.0 95.5 L 486.0 101.0 L 489.0 106.6 L 492.0 112.2 L 495.0 117.8 L 498.0 123.4 L 500.9 129.0 L 503.9 134.5 L 507.0 140.1 L 510.0 145.6 L 513.1 151.1 L 516.3 156.6 L 519.6 162.0 L 519.6 162.0 L 522.9 167.4 L 526.3 172.7 L 529.6 178.1 L 533.0 183.5 L 536.4 188.8 L 539.8 194.1 L 543.2 199.4 L 546.7 204.7 L 550.2 210.0 L 553.8 215.2 L 557.4 220.4 L 561.0 225.6 L 564.8 230.7 L 568.5 235.7 L 572.3 240.8 L 576.2 245.7 L 576.2 245.7 L 580.2 250.6 L 584.2 255.5 L 588.2 260.3 L 592.4 265.1 L 596.6 269.8 L 600.8 274.5 L 605.1 279.2 L 609.4 283.8 L 613.8 288.4 L 618.2 293.0 L 622.6 297.5 L 627.0 302.1 L 631.4 306.6 L 635.9 311.1 L 640.3 315.6 L 644.8 320.0 L 644.8 320.0 L 649.3 324.5 L 653.8 328.9 L 658.3 333.3 L 662.9 337.7 L 667.5 342.1 L 672.1 346.4 L 676.7 350.7 L 681.4 355.0 L 686.0 359.3 L 690.7 363.5 L 695.4 367.8 L 700.1 372.0 L 704.8 376.3 L 709.5 380.5 L 714.1 384.8 L 718.8 389.0 L 718.8 389.0 L 723.5 393.3 L 728.3 397.4 L 733.1 401.6 L 737.9 405.7 L 742.7 409.8 L 747.5 413.9 L 752.4 418.0 L 757.2 422.1 L 762.0 426.2 L 766.8 430.4 L 771.6 434.5 L 776.3 438.8 L 780.9 443.0 L 785.5 447.4 L 790.0 451.7 L 794.5 456.2 L 794.5 456.2 L 798.9 460.7 L 803.3 465.3 L 807.7 469.8 L 812.0 474.4 L 816.4 479.1 L 820.7 483.8 L 824.9 488.5 L 829.1 493.2 L 833.3 498.0 L 837.3 502.9 L 841.3 507.8 L 845.2 512.8 L 848.9 517.8 L 852.6 522.9 L 856.1 528.1 L 859.5 533.4 L 859.5 533.4 L 862.8 538.7 L 865.9 544.1 L 869.0 549.6 L 871.9 555.2 L 874.7 560.8 L 877.5 566.5 L 880.1 572.3 L 882.7 578.1 L 885.2 583.9 L 887.6 589.8 L 889.9 595.7 L 892.2 601.6 L 894.4 607.6 L 896.6 613.5 L 898.7 619.5 L 900.8 625.4 L 900.8 625.4 L 902.8 631.4 L 904.7 637.4 L 906.4 643.4 L 908.1 649.5 L 909.7 655.6 L 911.2 661.8 L 912.7 667.9 L 914.1 674.1 L 915.5 680.3 L 916.9 686.5 L 918.2 692.7 L 919.6 698.9 L 921.0 705.1 L 922.3 711.3 L 923.8 717.4 L 925.2 723.6 L 925.2 723.6 L 926.7 729.8 L 928.0 736.0 L 929.2 742.3 L 930.4 748.6 L 931.6 754.9 L 932.7 761.3 L 933.8 767.6 L 935.0 773.9 L 936.3 780.2 L 937.6 786.4 L 939.0 792.6 L 940.5 798.7 L 942.2 804.7 L 944.1 810.6 L 946.2 816.4 L 948.4 822.1 L 948.4 822.1 L 950.9 827.7 L 953.3 833.5 L 955.9 839.3 L 958.6 845.1 L 961.3 850.9 L 964.2 856.7 L 967.2 862.3 L 970.4 867.9 L 973.7 873.2 L 977.1 878.4 L 980.7 883.3 L 984.5 887.9 L 988.5 892.2 L 992.8 896.2 L 997.2 899.7 L 1001.9 902.9 L 1001.9 902.9 L 1007.0 905.5 L 1012.8 907.7 L 1019.1 909.5 L 1025.9 911.0 L 1032.9 912.1 L 1040.2 912.9 L 1047.6 913.5 L 1055.0 913.9 L 1062.3 914.1 L 1069.4 914.2 L 1076.2 914.3 L 1082.5 914.3 L 1088.3 914.3 L 1093.5 914.3 L 1098.0 914.5 L 1101.5 914.8" fill="none" stroke="#00e5ff" stroke-width="6.0" stroke-opacity="0.9"/><path d="M 1120.4 896.6 L 1121.2 893.9 L 1122.4 890.7 L 1123.9 887.0 L 1125.6 883.0 L 1127.5 878.5 L 1129.5 873.8 L 1131.5 868.8 L 1133.5 863.5 L 1135.3 858.1 L 1137.1 852.5 L 1138.6 846.7 L 1139.8 841.0 L 1140.7 835.2 L 1141.2 829.4 L 1141.1 823.7 L 1140.6 818.1 L 1140.6 818.1 L 1139.4 812.5 L 1137.7 806.8 L 1135.6 801.0 L 1133.0 795.1 L 1130.0 789.1 L 1126.8 783.0 L 1123.3 776.8 L 1119.7 770.6 L 1116.0 764.3 L 1112.3 758.0 L 1108.6 751.7 L 1105.0 745.3 L 1101.6 738.9 L 1098.4 732.5 L 1095.5 726.1 L 1093.0 719.7 L 1093.0 719.7 L 1090.8 713.3 L 1088.8 706.7 L 1087.0 700.1 L 1085.4 693.4 L 1083.9 686.7 L 1082.5 679.9 L 1081.1 673.2 L 1079.8 666.4 L 1078.5 659.6 L 1077.1 652.9 L 1075.6 646.2 L 1074.0 639.5 L 1072.2 633.0 L 1070.3 626.5 L 1068.1 620.2 L 1065.7 613.9 L 1065.7 613.9 L 1063.0 607.8 L 1060.3 601.7 L 1057.4 595.6 L 1054.5 589.6 L 1051.4 583.6 L 1048.2 577.7 L 1044.9 571.9 L 1041.5 566.1 L 1038.0 560.3 L 1034.4 554.7 L 1030.6 549.1 L 1026.8 543.7 L 1022.8 538.3 L 1018.7 533.0 L 1014.5 527.8 L 1010.2 522.8 L 1010.2 522.8 L 1005.7 517.9 L 1000.9 513.2 L 995.9 508.7 L 990.6 504.4 L 985.2 500.2 L 979.7 496.2 L 974.0 492.1 L 968.4 488.1 L 962.7 484.2 L 957.0 480.1 L 951.4 476.1 L 945.9 471.9 L 940.6 467.6 L 935.4 463.1 L 930.4 458.5 L 925.7 453.6 L 925.7 453.6 L 921.3 448.6 L 916.9 443.4 L 912.7 438.1 L 908.5 432.7 L 904.5 427.2 L 900.6 421.6 L 896.7 416.0 L 893.0 410.2 L 889.3 404.5 L 885.6 398.6 L 882.0 392.8 L 878.5 386.9 L 874.9 381.0 L 871.4 375.1 L 867.9 369.2 L 864.4 363.4 L 864.4 363.4 L 861.0 357.5 L 857.6 351.6 L 854.2 345.6 L 850.9 339.6 L 847.7 333.6 L 844.5 327.6 L 841.4 321.5 L 838.2 315.4 L 835.1 309.3 L 832.1 303.2 L 829.0 297.0 L 826.0 290.9 L 822.9 284.8 L 819.9 278.6 L 816.9 272.5 L 813.8 266.4 L 813.8 266.4 L 810.8 260.3 L 807.7 254.2 L 804.7 248.0 L 801.7 241.9 L 798.7 235.7 L 795.7 229.6 L 792.8 223.4 L 789.8 217.2 L 786.9 211.1 L 784.0 204.9 L 781.0 198.7 L 778.1 192.5 L 775.2 186.3 L 772.3 180.1 L 769.4 174.0 L 766.6 167.8 L 766.6 167.8 L 763.7 161.5 L 760.9 155.3 L 758.2 149.0 L 755.5 142.7 L 752.9 136.4 L 750.2 130.0 L 747.6 123.7 L 744.9 117.4 L 742.2 111.1 L 739.5 104.8 L 736.7 98.6 L 733.9 92.4 L 730.9 86.2 L 727.9 80.1 L 724.8 74.0 L 721.6 68.1 L 721.6 68.1 L 718.3 62.1 L 714.9 56.2 L 711.5 50.2 L 708.1 44.3 L 704.6 38.5 L 701.0 32.6 L 697.4 26.8 L 693.7 21.1 L 690.0 15.4 L 686.1 9.7 L 682.2 4.1 L 679.2 0.0" fill="none" stroke="#00e5ff" stroke-width="6.0" stroke-opacity="0.9"/><path d="M 1007.3 0.0 L 1009.3 3.4 L 1012.9 9.2 L 1016.5 15.0 L 1020.1 20.8 L 1023.9 26.5 L 1027.7 32.1 L 1031.6 37.7 L 1035.6 43.2 L 1035.6 43.2 L 1039.8 48.6 L 1043.9 54.0 L 1048.1 59.4 L 1052.4 64.7 L 1056.7 70.0 L 1061.1 75.2 L 1065.5 80.4 L 1070.0 85.6 L 1074.5 90.7 L 1079.1 95.8 L 1083.8 100.7 L 1088.5 105.7 L 1093.3 110.5 L 1098.1 115.3 L 1103.0 120.0 L 1108.0 124.6 L 1108.0 124.6 L 1113.0 129.1 L 1118.3 133.5 L 1123.6 137.7 L 1129.0 141.9 L 1134.6 145.9 L 1140.1 149.9 L 1145.8 153.8 L 1151.4 157.7 L 1157.1 161.5 L 1162.8 165.4 L 1168.4 169.3 L 1174.0 173.3 L 1179.6 177.3 L 1185.1 181.4 L 1190.4 185.6 L 1195.7 189.9 L 1195.7 189.9 L 1200.9 194.3 L 1206.1 198.8 L 1211.4 203.2 L 1216.7 207.6 L 1221.9 212.1 L 1227.1 216.6 L 1232.3 221.1 L 1237.4 225.7 L 1242.4 230.4 L 1247.4 235.1 L 1252.2 240.0 L 1256.9 244.9 L 1261.5 249.9 L 1265.9 255.0 L 1270.1 260.2 L 1274.2 265.6 L 1274.2 265.6 L 1278.0 271.1 L 1281.7 276.7 L 1285.2 282.5 L 1288.5 288.4 L 1291.7 294.4 L 1294.7 300.4 L 1297.7 306.6 L 1300.6 312.8 L 1303.3 319.1 L 1306.1 325.4 L 1308.8 331.7 L 1311.5 338.1 L 1314.2 344.4 L 1316.9 350.7 L 1319.6 357.0 L 1322.4 363.2 L 1322.4 363.2 L 1325.1 369.5 L 1327.7 375.8 L 1330.1 382.3 L 1332.5 388.7 L 1334.8 395.3 L 1337.0 401.8 L 1339.3 408.3 L 1341.6 414.9 L 1343.9 421.3 L 1346.3 427.7 L 1348.9 434.1 L 1351.5 440.3 L 1354.4 446.4 L 1357.5 452.4 L 1360.8 458.2 L 1364.4 463.9 L 1364.4 463.9 L 1368.2 469.3 L 1372.4 474.6 L 1376.7 479.7 L 1381.3 484.7 L 1386.1 489.5 L 1391.0 494.2 L 1396.0 498.9 L 1401.1 503.5 L 1406.3 508.1 L 1411.5 512.6 L 1416.7 517.2 L 1421.8 521.8 L 1426.9 526.4 L 1431.9 531.1 L 1436.8 535.9 L 1441.6 540.8 L 1441.6 540.8 L 1446.2 545.8 L 1450.8 550.8 L 1455.3 555.9 L 1459.9 561.0 L 1464.4 566.1 L 1468.9 571.2 L 1473.3 576.4 L 1477.8 581.6 L 1482.2 586.8 L 1486.6 591.9 L 1491.1 597.1 L 1495.5 602.3 L 1499.9 607.5 L 1504.4 612.7 L 1508.8 617.9 L 1513.3 623.0 L 1513.3 623.0 L 1517.7 628.3 L 1522.1 633.7 L 1526.5 639.2 L 1530.7 644.8 L 1535.0 650.4 L 1539.3 656.1 L 1543.6 661.8 L 1547.9 667.3 L 1552.2 672.8 L 1556.6 678.2 L 1561.1 683.4 L 1565.6 688.3 L 1570.3 693.1 L 1575.0 697.5 L 1579.9 701.6 L 1585.0 705.4 L 1585.0 705.4 L 1590.3 709.0 L 1595.8 712.6 L 1601.6 716.2 L 1607.5 719.8 L 1613.6 723.2 L 1619.8 726.5 L 1626.0 729.5 L 1632.3 732.2 L 1638.5 734.6 L 1644.6 736.6 L 1650.6 738.1 L 1656.5 739.2 L 1662.1 739.7 L 1667.5 739.5 L 1672.7 738.7 L 1677.4 737.2 L 1677.4 737.2 L 1682.0 734.7 L 1686.5 731.0 L 1690.8 726.3 L 1695.1 720.7 L 1699.2 714.5 L 1703.2 707.7 L 1707.0 700.5 L 1710.6 693.1 L 1714.1 685.6 L 1717.4 678.2 L 1720.4 671.1 L 1723.3 664.4 L 1725.9 658.3 L 1728.3 652.9 L 1730.4 648.4 L 1732.2 644.9" fill="none" stroke="#00e5ff" stroke-width="6.0" stroke-opacity="0.9"/></g><g id="clips"><circle cx="1740.7" cy="605.4" r="2" fill="none" stroke="#0b5" stroke-width="0.6"/><circle cx="1311.6" cy="0.0" r="2" fill="none" stroke="#0b5" stroke-width="0.6"/><circle cx="416.1" cy="0.0" r="2" fill="none" stroke="#0b5" stroke-width="0.6"/><circle cx="1101.5" cy="914.8" r="2" fill="none" stroke="#0b5" stroke-width="0.6"/><circle cx="1120.4" cy="896.6" r="2" fill="none" stroke="#0b5" stroke-width="0.6"/><circle cx="679.2" cy="0.0" r="2" fill="none" stroke="#0b5" stroke-width="0.6"/><circle cx="1007.3" cy="0.0" r="2" fill="none" stroke="#0b5" stroke-width="0.6"/><circle cx="1732.2" cy="644.9" r="2" fill="none" stroke="#0b5" stroke-width="0.6"/></g><g id="power"><circle cx="416.1" cy="0.0" r="5" fill="none" stroke="#e33" stroke-width="1"/><circle cx="679.2" cy="0.0" r="5" fill="none" stroke="#e33" stroke-width="1"/><circle cx="1007.3" cy="0.0" r="5" fill="none" stroke="#e33" stroke-width="1"/><circle cx="1311.6" cy="0.0" r="5" fill="none" stroke="#e33" stroke-width="1"/></g><g id="bridges"></g></svg>