<svg xmlns="http://www.w3.org/2000/svg" width="2000mm" height="1000mm" viewBox="0 0 2000 1000"><g id="outline"><rect x="0" y="0" width="2000" height="1000" fill="none" stroke="#000" stroke-width="1"/></g><g id="channels"><path d="M 1671.6 1000.0 L 1671.1 999.1 L 1668.1 993.4 L 1665.0 987.8 L 1661.8 982.2 L 1661.8 982.2 L 1658.5 976.8 L 1655.0 971.4 L 1651.4 966.0 L 1647.8 960.7 L 1644.0 955.5 L 1640.2 950.3 L 1636.3 945.1 L 1632.4 940.0 L 1628.4 934.9 L 1624.4 929.8 L 1620.3 924.7 L 1616.3 919.7 L 1612.2 914.6 L 1608.2 909.6 L 1604.1 904.5 L 1600.1 899.4 L 1600.1 899.4 L 1596.1 894.4 L 1592.1 889.3 L 1588.0 884.3 L 1583.9 879.3 L 1579.8 874.4 L 1575.6 869.4 L 1571.5 864.5 L 1567.3 859.5 L 1563.2 854.6 L 1559.0 849.6 L 1554.8 844.7 L 1550.7 839.7 L 1546.6 834.7 L 1542.5 829.7 L 1538.5 824.7 L 1534.5 819.6 L 1534.5 819.6 L 1530.5 814.6 L 1526.4 809.5 L 1522.4 804.5 L 1518.4 799.4 L 1514.3 794.3 L 1510.3 789.3 L 1506.3 784.2 L 1502.3 779.1 L 1498.4 773.9 L 1494.5 768.8 L 1490.6 763.6 L 1486.8 758.4 L 1483.1 753.1 L 1479.5 747.8 L 1475.9 742.4 L 1472.5 737.0 L 1472.5 737.0 L 1469.1 731.6 L 1465.7 726.0 L 1462.4 720.5 L 1459.2 714.9 L 1456.0 709.3 L 1452.9 703.6 L 1449.9 697.9 L 1446.9 692.2 L 1443.9 686.4 L 1441.1 680.6 L 1438.3 674.8 L 1435.5 668.9 L 1432.8 663.1 L 1430.2 657.2 L 1427.7 651.3 L 1425.2 645.3 L 1425.2 645.3 L 1422.8 639.3 L 1420.6 633.3 L 1418.5 627.2 L 1416.4 621.1 L 1414.5 615.0 L 1412.6 608.8 L 1410.8 602.6 L 1409.0 596.4 L 1407.2 590.2 L 1405.5 583.9 L 1403.8 577.7 L 1402.0 571.5 L 1400.2 565.2 L 1398.4 559.0 L 1396.5 552.9 L 1394.5 546.7 L 1394.5 546.7 L 1392.5 540.6 L 1390.5 534.4 L 1388.6 528.3 L 1386.6 522.1 L 1384.6 516.0 L 1382.7 509.8 L 1380.7 503.6 L 1378.7 497.5 L 1376.6 491.4 L 1374.5 485.3 L 1372.4 479.2 L 1370.2 473.1 L 1368.0 467.1 L 1365.7 461.0 L 1363.4 455.0 L 1360.9 449.1 L 1360.9 449.1 L 1358.3 443.2 L 1355.5 437.3 L 1352.6 431.5 L 1349.6 425.8 L 1346.4 420.0 L 1343.2 414.3 L 1340.0 408.6 L 1336.8 402.9 L 1333.6 397.2 L 1330.5 391.5 L 1327.5 385.8 L 1324.5 380.1 L 1321.8 374.3 L 1319.2 368.4 L 1316.9 362.6 L 1314.8 356.6 L 1314.8 356.6 L 1312.8 350.4 L 1310.6 343.7 L 1308.4 336.6 L 1306.2 329.2 L 1304.1 321.7 L 1302.0 314.2 L 1300.1 306.6 L 1298.4 299.3 L 1296.9 292.1 L 1295.8 285.3 L 1295.0 279.0 L 1294.6 273.3 L 1294.7 268.2 L 1295.3 263.8 L 1296.4 260.3 L 1298.2 257.8 L 1298.2 257.8 L 1300.7 256.3 L 1304.0 255.5 L 1308.0 255.5 L 1312.5 256.2 L 1317.6 257.4 L 1323.0 259.3 L 1328.8 261.6 L 1334.9 264.3 L 1341.1 267.3 L 1347.4 270.7 L 1353.7 274.2 L 1359.9 277.9 L 1365.9 281.7 L 1371.7 285.5 L 1377.1 289.2 L 1382.0 292.9 L 1382.0 292.9 L 1386.7 296.6 L 1391.2 300.6 L 1395.6 304.9 L 1399.9 309.5 L 1404.1 314.3 L 1408.3 319.3 L 1412.4 324.4 L 1416.4 329.6 L 1420.5 334.9 L 1424.5 340.3 L 1428.5 345.7 L 1432.5 351.0 L 1436.6 356.3 L 1440.8 361.4 L 1445.0 366.5 L 1449.3 371.4 L 1449.3 371.4 L 1453.6 376.1 L 1458.0 380.9 L 1462.4 385.6 L 1466.9 390.3 L 1471.3 394.9 L 1475.8 399.6 L 1480.3 404.2 L 1484.8 408.8 L 1489.3 413.5 L 1493.8 418.1 L 1498.3 422.7 L 1502.8 427.3 L 1507.4 431.9 L 1511.8 436.6 L 1516.3 441.2 L 1520.8 445.9 L 1520.8 445.9 L 1525.3 450.6 L 1529.8 455.2 L 1534.4 459.8 L 1538.9 464.3 L 1543.6 468.9 L 1548.2 473.4 L 1552.8 478.0 L 1557.3 482.6 L 1561.9 487.2 L 1566.4 491.8 L 1570.8 496.5 L 1575.2 501.3 L 1579.4 506.1 L 1583.6 511.0 L 1587.6 516.0 L 1591.6 521.0 L 1591.6 521.0 L 1595.4 526.2 L 1599.1 531.4 L 1602.7 536.8 L 1606.2 542.2 L 1609.6 547.6 L 1613.0 553.1 L 1616.3 558.7 L 1619.5 564.3 L 1622.7 569.9 L 1625.9 575.5 L 1629.0 581.2 L 1632.1 586.9 L 1635.2 592.6 L 1638.2 598.3 L 1641.3 604.0 L 1644.3 609.7 L 1644.3 609.7 L 1647.4 615.4 L 1650.3 621.1 L 1653.3 626.9 L 1656.1 632.7 L 1658.9 638.5 L 1661.7 644.3 L 1664.5 650.1 L 1667.2 656.0 L 1670.0 661.8 L 1672.7 667.7 L 1675.5 673.5 L 1678.3 679.4 L 1681.1 685.2 L 1683.9 691.0 L 1686.8 696.8 L 1689.8 702.5 L 1689.8 702.5 L 1692.8 708.2 L 1695.8 713.9 L 1698.9 719.6 L 1702.1 725.2 L 1705.2 730.9 L 1708.4 736.5 L 1711.5 742.1 L 1714.7 747.7 L 1717.9 753.3 L 1721.1 759.0 L 1724.3 764.6 L 1727.5 770.2 L 1730.7 775.8 L 1733.9 781.4 L 1737.0 787.1 L 1740.1 792.7 L 1740.1 792.7 L 1743.3 798.4 L 1746.5 804.0 L 1749.8 809.6 L 1753.1 815.2 L 1756.5 820.8 L 1759.9 826.4 L 1763.2 832.0 L 1766.5 837.6 L 1769.7 843.2 L 1772.9 848.9 L 1776.0 854.6 L 1778.9 860.3 L 1781.7 866.1 L 1784.3 871.9 L 1786.8 877.8 L 1789.0 883.7 L 1789.0 883.7 L 1791.1 889.7 L 1793.0 895.8 L 1794.9 902.0 L 1796.6 908.2 L 1798.2 914.4 L 1799.7 920.7 L 1801.1 927.0 L 1802.4 933.3 L 1803.5 939.7 L 1804.6 946.0 L 1805.5 952.4 L 1806.3 958.8 L 1806.9 965.2 L 1807.5 971.6 L 1807.9 978.0 L 1808.2 984.3 L 1808.2 984.3 L 1808.2 990.8 L 1807.8 997.4 L 1807.5 1000.0" fill="none" stroke="#00e5ff" stroke-width="6.0" stroke-opacity="0.9"/><path d="M 1920.7 1000.0 L 1919.3 995.9 L 1917.2 989.8 L 1915.2 983.7 L 1913.1 977.5 L 1911.1 971.4 L 1909.0 965.3 L 1906.9 959.2 L 1904.7 953.1 L 1902.5 947.0 L 1900.2 941.0 L 1900.2 941.0 L 1897.9 935.0 L 1895.5 929.0 L 1893.1 923.0 L 1890.6 917.0 L 1888.2 911.1 L 1885.7 905.1 L 1883.2 899.2 L 1880.7 893.2 L 1878.1 887.3 L 1875.6 881.3 L 1873.1 875.4 L 1870.6 869.4 L 1868.1 863.5 L 1865.6 857.5 L 1863.1 851.6 L 1860.7 845.6 L 1860.7 845.6 L 1858.2 839.6 L 1855.8 833.6 L 1853.4 827.6 L 1851.0 821.6 L 1848.6 815.6 L 1846.2 809.6 L 1843.8 803.6 L 1841.4 797.6 L 1839.0 791.6 L 1836.6 785.6 L 1834.2 779.6 L 1831.8 773.7 L 1829.4 767.7 L 1827.0 761.7 L 1824.6 755.7 L 1822.2 749.7 L 1822.2 749.7 L 1819.7 743.7 L 1817.3 737.7 L 1814.9 731.7 L 1812.5 725.8 L 1810.0 719.8 L 1807.6 713.8 L 1805.2 707.8 L 1802.7 701.8 L 1800.3 695.9 L 1797.8 689.9 L 1795.4 683.9 L 1792.9 677.9 L 1790.4 672.0 L 1787.9 666.0 L 1785.4 660.1 L 1782.9 654.1 L 1782.9 654.1 L 1780.4 648.2 L 1777.8 642.2 L 1775.3 636.3 L 1772.8 630.4 L 1770.2 624.4 L 1767.6 618.5 L 1765.1 612.6 L 1762.5 606.6 L 1759.9 600.7 L 1757.3 594.8 L 1754.7 588.9 L 1752.1 583.0 L 1749.5 577.1 L 1746.8 571.2 L 1744.2 565.3 L 1741.5 559.4 L 1741.5 559.4 L 1738.9 553.5 L 1736.2 547.6 L 1733.6 541.7 L 1731.0 535.8 L 1728.4 529.9 L 1725.7 524.0 L 1723.1 518.1 L 1720.4 512.2 L 1717.7 506.3 L 1715.0 500.5 L 1712.3 494.6 L 1709.5 488.8 L 1706.6 483.0 L 1703.7 477.3 L 1700.7 471.5 L 1697.7 465.9 L 1697.7 465.9 L 1694.6 460.2 L 1691.4 454.6 L 1688.2 449.0 L 1684.9 443.5 L 1681.6 437.9 L 1678.2 432.4 L 1674.8 426.9 L 1671.4 421.5 L 1667.9 416.0 L 1664.4 410.6 L 1660.8 405.2 L 1657.3 399.8 L 1653.7 394.4 L 1650.1 389.0 L 1646.5 383.7 L 1642.8 378.3 L 1642.8 378.3 L 1639.2 373.0 L 1635.5 367.7 L 1631.7 362.5 L 1628.0 357.3 L 1624.1 352.1 L 1620.3 346.9 L 1616.4 341.7 L 1612.5 336.5 L 1608.6 331.4 L 1604.7 326.2 L 1600.8 321.1 L 1596.9 315.9 L 1593.0 310.8 L 1589.2 305.6 L 1585.3 300.4 L 1581.5 295.2 L 1581.5 295.2 L 1577.6 290.0 L 1573.8 284.8 L 1570.0 279.6 L 1566.2 274.4 L 1562.4 269.2 L 1558.6 263.9 L 1554.8 258.7 L 1551.0 253.5 L 1547.1 248.3 L 1543.3 243.1 L 1539.5 237.8 L 1535.7 232.6 L 1531.9 227.4 L 1528.1 222.2 L 1524.3 217.0 L 1520.5 211.7 L 1520.5 211.7 L 1516.7 206.5 L 1513.0 201.3 L 1509.2 196.0 L 1505.5 190.7 L 1501.7 185.5 L 1498.0 180.2 L 1494.2 174.9 L 1490.5 169.7 L 1486.7 164.4 L 1483.0 159.2 L 1479.2 153.9 L 1475.4 148.7 L 1471.5 143.5 L 1467.6 138.4 L 1463.7 133.3 L 1459.8 128.2 L 1459.8 128.2 L 1455.8 123.1 L 1451.8 118.0 L 1447.8 112.9 L 1443.8 107.8 L 1439.8 102.7 L 1435.8 97.6 L 1431.7 92.6 L 1427.6 87.5 L 1423.5 82.6 L 1419.3 77.6 L 1415.1 72.7 L 1410.8 67.9 L 1406.5 63.1 L 1402.1 58.4 L 1397.6 53.8 L 1393.1 49.2 L 1393.1 49.2 L 1388.5 44.7 L 1383.9 40.2 L 1379.3 35.6 L 1374.6 31.0 L 1369.8 26.4 L 1365.1 21.9 L 1360.2 17.5 L 1355.3 13.1 L 1350.4 8.9 L 1345.3 4.8 L 1340.2 0.9 L 1339.0 0.0" fill="none" stroke="#00e5ff" stroke-width="6.0" stroke-opacity="0.9"/><path d="M 904.0 0.0 L 900.6 5.3 L 896.5 11.1 L 892.1 16.9 L 887.5 22.5 L 882.8 28.0 L 878.0 33.4 L 873.2 38.5 L 868.4 43.5 L 863.7 48.3 L 863.7 48.3 L 858.8 52.7 L 853.5 56.8 L 847.9 60.7 L 842.0 64.3 L 835.9 67.8 L 829.5 71.1 L 823.1 74.3 L 816.6 77.4 L 810.0 80.6 L 803.5 83.8 L 797.1 87.1 L 790.8 90.6 L 784.8 94.2 L 778.9 98.1 L 773.4 102.3 L 768.2 106.8 L 768.2 106.8 L 763.3 111.6 L 758.5 116.5 L 753.9 121.6 L 749.4 126.9 L 745.1 132.4 L 740.8 137.9 L 736.7 143.6 L 732.7 149.4 L 728.8 155.3 L 725.0 161.3 L 721.3 167.3 L 717.7 173.4 L 714.3 179.5 L 710.9 185.6 L 707.6 191.8 L 704.4 197.9 L 704.4 197.9 L 701.3 204.2 L 698.4 210.5 L 695.6 216.8 L 693.0 223.3 L 690.5 229.8 L 688.1 236.4 L 685.8 243.1 L 683.6 249.8 L 681.4 256.5 L 679.3 263.2 L 677.2 270.0 L 675.1 276.8 L 673.1 283.5 L 671.0 290.3 L 668.9 297.0 L 666.7 303.7 L 666.7 303.7 L 664.5 310.3 L 662.4 317.0 L 660.3 323.7 L 658.2 330.4 L 656.1 337.1 L 654.1 343.8 L 652.0 350.5 L 650.0 357.2 L 648.0 364.0 L 646.1 370.7 L 644.1 377.4 L 642.1 384.2 L 640.2 390.9 L 638.3 397.7 L 636.3 404.4 L 634.4 411.1 L 634.4 411.1 L 632.5 417.9 L 630.7 424.7 L 628.9 431.5 L 627.1 438.3 L 625.4 445.1 L 623.7 451.9 L 621.9 458.7 L 620.2 465.5 L 618.5 472.3 L 616.7 479.1 L 614.9 485.9 L 613.1 492.7 L 611.1 499.4 L 609.2 506.1 L 607.1 512.8 L 604.9 519.5 L 604.9 519.5 L 602.7 526.1 L 600.4 532.7 L 598.1 539.3 L 595.7 545.9 L 593.3 552.5 L 590.8 559.1 L 588.3 565.6 L 585.7 572.2 L 583.1 578.7 L 580.5 585.2 L 577.8 591.6 L 575.0 598.1 L 572.2 604.5 L 569.4 611.0 L 566.6 617.4 L 563.7 623.7 L 563.7 623.7 L 560.7 630.1 L 557.8 636.4 L 554.7 642.8 L 551.6 649.0 L 548.5 655.3 L 545.3 661.6 L 542.1 667.8 L 538.8 674.0 L 535.5 680.2 L 532.2 686.4 L 528.8 692.6 L 525.5 698.8 L 522.1 704.9 L 518.7 711.0 L 515.2 717.2 L 511.8 723.3 L 511.8 723.3 L 508.4 729.4 L 504.9 735.5 L 501.5 741.7 L 498.1 747.9 L 494.7 754.0 L 491.2 760.2 L 487.7 766.3 L 484.2 772.4 L 480.6 778.4 L 477.0 784.5 L 473.3 790.4 L 469.5 796.3 L 465.7 802.2 L 461.7 807.9 L 457.7 813.6 L 453.6 819.2 L 453.6 819.2 L 449.4 824.9 L 445.1 830.7 L 440.9 836.7 L 436.6 842.8 L 432.2 848.9 L 427.8 854.9 L 423.3 860.9 L 418.7 866.7 L 414.0 872.3 L 409.3 877.6 L 404.4 882.6 L 399.3 887.2 L 394.2 891.3 L 388.9 895.0 L 383.4 898.1 L 377.8 900.6 L 377.8 900.6 L 372.0 902.4 L 365.8 903.5 L 359.4 904.0 L 352.8 904.0 L 346.0 903.6 L 339.1 902.7 L 332.1 901.6 L 325.1 900.1 L 318.0 898.5 L 310.9 896.8 L 304.0 895.0 L 297.1 893.3 L 290.3 891.7 L 283.7 890.2 L 277.4 888.9 L 271.2 888.0 L 271.2 888.0 L 265.1 887.0 L 258.6 885.8 L 251.8 884.3 L 244.9 882.6 L 238.0 880.9 L 231.1 879.1 L 224.4 877.4 L 217.9 875.8 L 211.8 874.4 L 206.1 873.2 L 200.9 872.4 L 196.4 872.0 L 192.6 872.1 L 189.7 872.7 L 187.7 874.0 L 186.7 875.9 L 186.7 875.9 L 187.0 878.7 L 188.6 882.5 L 191.3 887.2 L 195.1 892.5 L 199.6 898.4 L 204.8 904.7 L 210.6 911.3 L 216.6 918.1 L 222.8 924.9 L 229.0 931.6 L 235.1 938.0 L 240.8 944.1 L 246.0 949.6 L 250.6 954.5 L 254.3 958.6 L 257.1 961.8" fill="none" stroke="#00e5ff" stroke-width="6.0" stroke-opacity="0.9"/><path d="M 184.0 961.4 L 181.2 963.6 L 177.6 966.1 L 173.4 969.0 L 168.7 972.2 L 163.5 975.7 L 158.0 979.5 L 152.3 983.5 L 146.3 987.7 L 140.4 992.0 L 134.5 996.4 L 130.0 1000.0" fill="none" stroke="#00e5ff" stroke-width="6.0" stroke-opacity="0.9"/><path d="M 439.5 1000.0 L 443.1 996.9 L 447.9 992.8 L 452.8 988.7 L 457.6 984.6 L 462.4 980.5 L 467.3 976.4 L 472.1 972.3 L 476.9 968.2 L 476.9 968.2 L 481.8 964.2 L 486.7 960.2 L 491.6 956.2 L 496.6 952.3 L 501.6 948.4 L 506.7 944.6 L 511.7 940.7 L 516.7 936.8 L 521.7 933.0 L 526.7 929.1 L 531.7 925.1 L 536.6 921.1 L 541.4 917.1 L 546.2 913.0 L 550.9 908.8 L 555.6 904.5 L 555.6 904.5 L 560.1 900.2 L 564.7 895.9 L 569.3 891.5 L 573.8 887.0 L 578.3 882.6 L 582.7 878.0 L 587.2 873.5 L 591.5 868.9 L 595.8 864.2 L 600.1 859.5 L 604.2 854.8 L 608.3 850.0 L 612.3 845.1 L 616.3 840.2 L 620.1 835.2 L 623.8 830.2 L 623.8 830.2 L 627.4 825.0 L 630.9 819.8 L 634.4 814.6 L 637.8 809.2 L 641.1 803.8 L 644.3 798.4 L 647.4 792.9 L 650.5 787.3 L 653.5 781.7 L 656.4 776.1 L 659.3 770.5 L 662.1 764.8 L 664.9 759.1 L 667.6 753.3 L 670.2 747.6 L 672.9 741.9 L 672.9 741.9 L 675.4 736.1 L 677.9 730.3 L 680.2 724.5 L 682.5 718.6 L 684.8 712.7 L 686.9 706.7 L 689.0 700.8 L 691.1 694.8 L 693.1 688.8 L 695.1 682.8 L 697.1 676.7 L 699.0 670.7 L 700.9 664.7 L 702.8 658.6 L 704.8 652.6 L 706.7 646.6 L 706.7 646.6 L 708.6 640.5 L 710.5 634.5 L 712.4 628.5 L 714.2 622.4 L 716.0 616.4 L 717.8 610.3 L 719.6 604.2 L 721.4 598.2 L 723.1 592.1 L 724.8 586.0 L 726.5 579.9 L 728.2 573.8 L 729.8 567.7 L 731.5 561.6 L 733.1 555.4 L 734.7 549.3 L 734.7 549.3 L 736.2 543.2 L 737.6 536.9 L 738.9 530.6 L 740.1 524.2 L 741.3 517.8 L 742.4 511.4 L 743.5 505.0 L 744.7 498.7 L 745.9 492.3 L 747.1 486.1 L 748.5 479.9 L 750.0 473.8 L 751.5 467.8 L 753.3 462.0 L 755.2 456.3 L 757.4 450.7 L 757.4 450.7 L 759.8 445.1 L 762.4 439.1 L 765.1 432.8 L 768.1 426.4 L 771.2 419.9 L 774.3 413.5 L 777.6 407.2 L 781.0 401.2 L 784.3 395.6 L 787.7 390.5 L 791.1 385.9 L 794.5 382.0 L 797.8 378.9 L 800.9 376.7 L 804.0 375.5 L 807.0 375.4 L 807.0 375.4 L 809.8 376.4 L 812.7 378.7 L 815.5 381.9 L 818.2 386.1 L 821.0 391.2 L 823.7 396.8 L 826.4 403.1 L 829.1 409.8 L 831.7 416.8 L 834.3 424.1 L 836.8 431.5 L 839.4 438.8 L 841.9 446.0 L 844.3 452.9 L 846.8 459.5 L 849.2 465.6 L 849.2 465.6 L 851.5 471.4 L 853.7 477.3 L 855.9 483.2 L 858.0 489.2 L 860.1 495.1 L 862.1 501.1 L 864.1 507.1 L 866.1 513.2 L 868.1 519.2 L 870.0 525.2 L 872.1 531.2 L 874.1 537.2 L 876.2 543.2 L 878.4 549.2 L 880.6 555.1 L 882.9 561.0 L 882.9 561.0 L 885.3 566.8 L 887.7 572.6 L 890.2 578.4 L 892.8 584.2 L 895.3 590.0 L 898.0 595.8 L 900.6 601.5 L 903.3 607.2 L 906.0 613.0 L 908.6 618.7 L 911.3 624.5 L 914.0 630.2 L 916.6 636.0 L 919.2 641.7 L 921.7 647.5 L 924.3 653.3 L 924.3 653.3 L 926.8 659.1 L 929.3 664.9 L 931.8 670.7 L 934.3 676.5 L 936.8 682.3 L 939.3 688.2 L 941.8 694.0 L 944.2 699.8 L 946.7 705.7 L 949.1 711.5 L 951.4 717.4 L 953.8 723.2 L 956.0 729.1 L 958.3 735.1 L 960.4 741.0 L 962.5 746.9 L 962.5 746.9 L 964.6 752.9 L 966.5 758.9 L 968.5 764.9 L 970.3 771.0 L 972.2 777.0 L 974.0 783.1 L 975.7 789.2 L 977.4 795.2 L 979.1 801.3 L 980.8 807.5 L 982.4 813.6 L 984.0 819.7 L 985.6 825.8 L 987.1 832.0 L 988.7 838.1 L 990.2 844.2 L 990.2 844.2 L 991.7 850.4 L 993.2 856.5 L 994.6 862.7 L 996.0 868.8 L 997.3 875.0 L 998.6 881.2 L 999.9 887.4 L 1001.2 893.6 L 1002.5 899.8 L 1003.8 906.0 L 1005.0 912.2 L 1006.3 918.4 L 1007.6 924.6 L 1008.8 930.8 L 1010.1 937.0 L 1011.4 943.2 L 1011.4 943.2 L 1012.8 949.3 L 1014.1 955.5 L 1015.4 961.7 L 1016.7 967.9 L 1018.0 974.1 L 1019.2 980.3 L 1020.5 986.5 L 1021.8 992.7 L 1023.1 998.9 L 1023.3 1000.0" fill="none" stroke="#00e5ff" stroke-width="6.0" stroke-opacity="0.9"/></g><g id="clips"><circle cx="1671.6" cy="1000.0" r="2" fill="none" stroke="#0b5" stroke-width="0.6"/><circle cx="1807.5" cy="1000.0" r="2" fill="none" stroke="#0b5" stroke-width="0.6"/><circle cx="1920.7" cy="1000.0" r="2" fill="none" stroke="#0b5" stroke-width="0.6"/><circle cx="1339.0" cy="0.0" r="2" fill="none" stroke="#0b5" stroke-width="0.6"/><circle cx="904.0" cy="0.0" r="2" fill="none" stroke="#0b5" stroke-width="0.6"/><circle cx="257.1" cy="961.8" r="2" fill="none" stroke="#0b5" stroke-width="0.6"/><circle cx="184.0" cy="961.4" r="2" fill="none" stroke="#0b5" stroke-width="0.6"/><circle cx="439.5" cy="1000.0" r="2" fill="none" stroke="#0b5" stroke-width="0.6"/><circle cx="1023.3" cy="1000.0" r="2" fill="none" stroke="#0b5" stroke-width="0.6"/></g><g id="power"><circle cx="1671.5" cy="1000.0" r="5" fill="none" stroke="#e33" stroke-width="1"/><circle cx="1807.5" cy="1000.0" r="5" fill="none" stroke="#e33" stroke-width="1"/><circle cx="1920.7" cy="1000.0" r="5" fill="none" stroke="#e33" stroke-width="1"/><circle cx="130.0" cy="1000.0" r="5" fill="none" stroke="#e33" stroke-width="1"/><circle cx="439.5" cy="1000.0" r="5" fill="none" stroke="#e33" stroke-width="1"/><circle cx="1023.3" cy="1000.0" r="5" fill="none" stroke="#e33" stroke-width="1"/><circle cx="1338.9" cy="0.0" r="5" fill="none" stroke="#e33" stroke-width="1"/><circle cx="904.0" cy="0.0" r="5" fill="none" stroke="#e33" stroke-width="1"/></g></svg>