<svg xmlns="http://www.w3.org/2000/svg" width="1000mm" height="1000mm" viewBox="0 0 1000 1000"><g id="outline"><rect x="0" y="0" width="1000" height="1000" fill="none" stroke="#000" stroke-width="1"/></g><g id="channels"><path d="M 1000.0 577.8 L 995.7 576.5 L 989.3 574.5 L 983.0 572.4 L 976.8 570.2 L 970.6 568.0 L 964.6 565.4 L 958.5 562.8 L 952.6 560.1 L 946.8 557.2 L 946.8 557.2 L 941.0 554.1 L 935.4 550.9 L 929.8 547.6 L 924.1 544.1 L 918.6 540.5 L 913.2 536.8 L 907.8 532.9 L 902.5 529.0 L 897.3 525.0 L 892.1 520.8 L 887.0 516.6 L 882.0 512.2 L 877.2 507.9 L 872.4 503.3 L 867.7 498.8 L 863.2 494.1 L 863.2 494.1 L 858.7 489.4 L 854.5 484.5 L 850.3 479.4 L 846.3 474.2 L 842.4 468.9 L 838.5 463.5 L 834.8 458.1 L 831.1 452.5 L 827.5 446.9 L 824.0 441.3 L 820.4 435.6 L 816.9 430.0 L 813.2 424.4 L 809.6 418.8 L 806.0 413.2 L 802.3 407.7 L 802.3 407.7 L 798.6 402.2 L 795.0 396.7 L 791.3 391.2 L 787.7 385.7 L 784.1 380.1 L 780.6 374.5 L 777.0 369.0 L 773.5 363.5 L 769.9 357.9 L 766.3 352.3 L 762.6 346.8 L 759.0 341.3 L 755.3 335.8 L 751.6 330.4 L 747.9 325.0 L 743.9 319.6 L 743.9 319.6 L 740.1 314.1 L 736.3 308.7 L 732.5 303.3 L 728.6 297.9 L 724.7 292.4 L 720.9 287.0 L 717.0 281.6 L 713.0 276.3 L 709.0 271.0 L 704.9 265.7 L 700.8 260.6 L 696.5 255.6 L 692.2 250.6 L 687.7 245.9 L 683.1 241.3 L 678.4 236.8 L 678.4 236.8 L 673.5 232.4 L 668.5 228.2 L 663.5 223.9 L 658.3 219.7 L 653.1 215.6 L 647.8 211.6 L 642.4 207.7 L 636.8 203.9 L 631.2 200.3 L 625.6 196.8 L 619.9 193.5 L 614.1 190.4 L 608.3 187.4 L 602.4 184.7 L 596.4 182.1 L 590.4 179.9 L 590.4 179.9 L 584.2 178.0 L 577.5 176.2 L 570.4 174.9 L 563.0 173.6 L 555.5 172.7 L 547.9 171.9 L 540.2 171.2 L 532.7 170.7 L 525.3 170.3 L 518.2 170.0 L 511.5 169.8 L 505.1 169.5 L 499.3 169.3 L 494.1 169.2 L 489.7 168.9 L 485.9 168.5" fill="none" stroke="#2b6bff" stroke-width="6.0" stroke-opacity="0.9"/><path d="M 432.6 183.4 L 431.4 184.7 L 430.0 186.4 L 428.3 188.5 L 426.4 190.7 L 424.5 193.2 L 422.4 195.8 L 420.0 198.5 L 417.7 201.3 L 415.2 204.2 L 412.7 207.0 L 410.0 209.7 L 407.4 212.4 L 404.6 215.0 L 401.9 217.2 L 399.3 219.3 L 396.6 221.1 L 396.6 221.1 L 393.8 222.8 L 391.0 224.4 L 388.0 225.9 L 385.1 227.3 L 382.0 228.8 L 378.8 230.1 L 375.6 231.4 L 372.4 232.5 L 369.2 233.5 L 366.0 234.4 L 362.7 235.1 L 359.5 235.6 L 356.4 236.1 L 353.3 236.2 L 350.3 236.2 L 347.3 236.1 L 347.3 236.1 L 344.3 235.5 L 341.2 234.7 L 338.1 233.5 L 334.9 232.0 L 331.6 230.4 L 328.4 228.5 L 325.2 226.5 L 322.1 224.4 L 319.1 222.4 L 316.2 220.3 L 313.5 218.3 L 311.0 216.5 L 308.6 214.7 L 306.6 213.2 L 304.8 211.9 L 303.2 210.9" fill="none" stroke="#2b6bff" stroke-width="6.0" stroke-opacity="0.9"/><path d="M 254.6 196.1 L 251.2 193.9 L 247.1 191.4 L 242.1 188.5 L 236.7 185.3 L 230.5 182.0 L 224.1 178.3 L 217.4 174.4 L 210.5 170.2 L 203.4 166.0 L 196.5 161.4 L 189.7 156.7 L 183.0 151.9 L 176.8 146.9 L 171.1 141.8 L 165.8 136.6 L 161.3 131.4 L 161.3 131.4 L 157.2 126.0 L 153.3 120.3 L 149.6 114.4 L 146.1 108.2 L 142.7 101.9 L 139.6 95.4 L 136.8 88.8 L 134.0 82.0 L 131.6 75.2 L 129.3 68.2 L 127.3 61.2 L 125.6 54.3 L 123.9 47.3 L 122.6 40.4 L 121.6 33.5 L 120.7 26.6 L 120.7 26.6 L 120.1 19.8 L 119.7 12.8 L 119.6 5.7 L 119.7 0.0" fill="none" stroke="#2b6bff" stroke-width="6.0" stroke-opacity="0.9"/></g><g id="clips"><circle cx="1000.0" cy="577.8" r="2" fill="none" stroke="#0b5" stroke-width="0.6"/><circle cx="485.9" cy="168.5" r="2" fill="none" stroke="#0b5" stroke-width="0.6"/><circle cx="432.6" cy="183.4" r="2" fill="none" stroke="#0b5" stroke-width="0.6"/><circle cx="303.2" cy="210.9" r="2" fill="none" stroke="#0b5" stroke-width="0.6"/><circle cx="254.6" cy="196.1" r="2" fill="none" stroke="#0b5" stroke-width="0.6"/><circle cx="119.7" cy="0.0" r="2" fill="none" stroke="#0b5" stroke-width="0.6"/></g><g id="power"><circle cx="1000.0" cy="577.8" r="5" fill="none" stroke="#e33" stroke-width="1"/><circle cx="119.7" cy="0.0" r="5" fill="none" stroke="#e33" stroke-width="1"/></g><g id="bridges"></g></svg>