<svg xmlns="http://www.w3.org/2000/svg" width="1000mm" height="1000mm" viewBox="0 0 1000 1000"><g id="outline"><rect x="0" y="0" width="1000" height="1000" fill="none" stroke="#000" stroke-width="1"/></g><g id="channels"><path d="M 0.0 709.7 L 2.3 707.8 L 7.6 703.4 L 12.8 699.0 L 18.0 694.6 L 23.2 690.1 L 23.2 690.1 L 28.3 685.5 L 33.3 680.6 L 38.3 675.6 L 43.3 670.5 L 48.2 665.2 L 53.1 660.0 L 58.0 654.7 L 63.0 649.5 L 67.9 644.5 L 72.9 639.6 L 77.9 635.0 L 83.0 630.6 L 88.2 626.5 L 93.4 622.8 L 98.8 619.5 L 104.2 616.7 L 104.2 616.7 L 109.9 614.2 L 116.0 611.8 L 122.3 609.5 L 128.8 607.4 L 135.4 605.5 L 142.1 603.8 L 148.8 602.4 L 155.5 601.3 L 162.1 600.6 L 168.5 600.2 L 174.6 600.3 L 180.5 600.8 L 186.0 601.9 L 191.1 603.4 L 195.7 605.5 L 199.8 608.3 L 199.8 608.3 L 203.3 611.7 L 206.1 616.1 L 208.5 621.2 L 210.3 627.0 L 211.8 633.3 L 213.0 640.1 L 214.0 647.3 L 214.9 654.8 L 215.6 662.4 L 216.4 670.2 L 217.2 678.0 L 218.2 685.7 L 219.4 693.2 L 220.9 700.5 L 222.8 707.4 L 225.1 713.8 L 225.1 713.8 L 227.7 720.0 L 230.5 726.3 L 233.3 732.7 L 236.2 739.0 L 239.2 745.4 L 242.4 751.7 L 245.7 757.9 L 249.1 764.0 L 252.7 770.0 L 256.4 775.9 L 260.3 781.5 L 264.4 786.9 L 268.6 792.1 L 273.0 797.0 L 277.7 801.5 L 282.5 805.7 L 282.5 805.7 L 287.6 809.6 L 292.9 813.2 L 298.5 816.4 L 304.4 819.4 L 310.4 822.2 L 316.6 824.7 L 323.0 827.0 L 329.5 829.2 L 336.1 831.2 L 342.7 833.1 L 349.4 834.9 L 356.2 836.6 L 362.9 838.2 L 369.6 839.8 L 376.2 841.5 L 382.8 843.1 L 382.8 843.1 L 389.3 844.7 L 396.0 846.3 L 402.6 847.9 L 409.3 849.4 L 416.1 850.8 L 422.9 852.2 L 429.7 853.4 L 436.5 854.6 L 443.4 855.6 L 450.2 856.5 L 457.1 857.3 L 463.9 857.9 L 470.7 858.4 L 477.5 858.7 L 484.3 858.8 L 491.0 858.7 L 491.0 858.7 L 497.7 858.4 L 504.5 858.1 L 511.3 857.6 L 518.2 857.0 L 525.0 856.2 L 531.9 855.3 L 538.7 854.2 L 545.6 853.0 L 552.3 851.7 L 559.0 850.1 L 565.6 848.4 L 572.1 846.5 L 578.5 844.4 L 584.8 842.0 L 590.9 839.5 L 596.9 836.8 L 596.9 836.8 L 602.8 833.8 L 608.7 830.6 L 614.6 827.2 L 620.5 823.5 L 626.3 819.7 L 632.0 815.7 L 637.6 811.5 L 643.1 807.2 L 648.4 802.6 L 653.5 798.0 L 658.5 793.1 L 663.2 788.2 L 667.7 783.1 L 671.9 777.9 L 675.8 772.6 L 679.4 767.2 L 679.4 767.2 L 682.8 761.7 L 685.9 755.9 L 688.9 749.8 L 691.6 743.6 L 694.2 737.2 L 696.5 730.6 L 698.6 723.9 L 700.5 717.2 L 702.1 710.3 L 703.6 703.5 L 704.8 696.6 L 705.7 689.7 L 706.5 682.9 L 707.0 676.1 L 707.2 669.5 L 707.2 662.9 L 707.2 662.9 L 706.9 656.4 L 706.4 649.8 L 705.6 643.1 L 704.6 636.3 L 703.4 629.6 L 701.9 622.8 L 700.2 616.0 L 698.2 609.3 L 696.1 602.7 L 693.7 596.1 L 691.1 589.7 L 688.3 583.5 L 685.3 577.4 L 682.1 571.5 L 678.7 565.8 L 675.1 560.4 L 675.1 560.4 L 671.3 555.1 L 667.2 550.0 L 662.8 545.1 L 658.1 540.2 L 653.1 535.5 L 648.0 530.9 L 642.7 526.5 L 637.2 522.2 L 631.5 518.1 L 625.7 514.1 L 619.9 510.3 L 613.9 506.6 L 608.0 503.1 L 601.9 499.8 L 595.9 496.6 L 589.9 493.7 L 589.9 493.7 L 583.9 490.9 L 577.7 488.5 L 571.4 486.3 L 564.9 484.4 L 558.4 482.7 L 551.7 481.2 L 545.0 479.8 L 538.2 478.5 L 531.5 477.2 L 524.6 476.1 L 517.8 474.9 L 511.0 473.7 L 504.2 472.4 L 497.5 471.1 L 490.8 469.6 L 484.2 468.0 L 484.2 468.0 L 477.5 466.4 L 470.6 465.0 L 463.5 463.8 L 456.3 462.7 L 449.1 461.6 L 441.8 460.5 L 434.6 459.4 L 427.5 458.1 L 420.5 456.8 L 413.7 455.2 L 407.2 453.4 L 400.9 451.4 L 395.0 449.0 L 389.6 446.2 L 384.5 442.9 L 380.0 439.2 L 380.0 439.2 L 375.9 435.0 L 372.1 430.3 L 368.5 425.2 L 365.3 419.7 L 362.3 413.9 L 359.6 407.7 L 357.2 401.4 L 355.0 394.8 L 353.2 388.1 L 351.6 381.3 L 350.3 374.5 L 349.4 367.7 L 348.6 360.9 L 348.2 354.2 L 348.1 347.7 L 348.2 341.4 L 348.2 341.4 L 348.8 335.2 L 350.0 328.9 L 351.6 322.7 L 353.6 316.4 L 356.0 310.1 L 358.7 303.9 L 361.7 297.6 L 364.8 291.3 L 368.1 284.9 L 371.4 278.6 L 374.8 272.3 L 378.1 265.9 L 381.2 259.5 L 384.3 253.2 L 387.0 246.8 L 389.5 240.4 L 389.5 240.4 L 391.8 234.0 L 394.2 227.5 L 396.5 221.1 L 398.8 214.7 L 401.1 208.2 L 403.4 201.8 L 405.6 195.3 L 407.8 188.9 L 409.9 182.4 L 412.0 175.9 L 414.0 169.3 L 415.9 162.8 L 417.7 156.2 L 419.4 149.6 L 421.0 143.0 L 422.5 136.4 L 422.5 136.4 L 423.8 129.7 L 425.0 123.0 L 426.2 116.3 L 427.2 109.6 L 428.2 102.8 L 429.0 96.0 L 429.8 89.2 L 430.6 82.4 L 431.2 75.6 L 431.8 68.8 L 432.4 61.9 L 432.9 55.1 L 433.3 48.3 L 433.8 41.4 L 434.2 34.6 L 434.6 27.8 L 434.6 27.8 L 434.9 21.0 L 435.2 14.1 L 435.5 7.3 L 435.7 0.5 L 435.7 0.0" fill="none" stroke="#39ff88" stroke-width="6.0" stroke-opacity="0.9"/><path d="M 412.3 533.9 L 413.4 533.9 L 414.6 533.8 L 416.1 533.7 L 417.7 533.5 L 419.4 533.4 L 421.3 533.3 L 423.3 533.1 L 425.3 533.0 L 427.4 532.8 L 429.6 532.7 L 431.7 532.6 L 433.9 532.6 L 436.0 532.5 L 438.1 532.5 L 440.1 532.6 L 441.9 532.7 L 441.9 532.7 L 443.8 532.8 L 445.6 532.9 L 447.5 533.1 L 449.4 533.3 L 451.2 533.5 L 453.1 533.7 L 454.9 534.0 L 456.8 534.2 L 458.7 534.5 L 460.5 534.9 L 462.3 535.2 L 464.1 535.6 L 466.0 536.1 L 467.7 536.5 L 469.5 537.0 L 471.3 537.6 L 471.3 537.6 L 473.1 538.2 L 474.9 538.9 L 476.8 539.7 L 478.7 540.6 L 480.7 541.5 L 482.6 542.4 L 484.5 543.4 L 486.4 544.4 L 488.2 545.3 L 489.9 546.3 L 491.6 547.2 L 493.1 548.0 L 494.5 548.8 L 495.8 549.5 L 496.9 550.1 L 497.8 550.5" fill="none" stroke="#39ff88" stroke-width="6.0" stroke-opacity="0.9"/></g><g id="clips"><circle cx="0.0" cy="709.7" r="2" fill="none" stroke="#0b5" stroke-width="0.6"/><circle cx="435.7" cy="0.0" r="2" fill="none" stroke="#0b5" stroke-width="0.6"/><circle cx="412.3" cy="533.9" r="2" fill="none" stroke="#0b5" stroke-width="0.6"/><circle cx="497.8" cy="550.5" r="2" fill="none" stroke="#0b5" stroke-width="0.6"/></g><g id="power"><circle cx="435.7" cy="0.0" r="5" fill="none" stroke="#e33" stroke-width="1"/><circle cx="0.0" cy="709.7" r="5" fill="none" stroke="#e33" stroke-width="1"/></g><g id="bridges"></g></svg>