<svg xmlns="http://www.w3.org/2000/svg" width="2000mm" height="1000mm" viewBox="0 0 2000 1000"><g id="outline"><rect x="0" y="0" width="2000" height="1000" fill="none" stroke="#000" stroke-width="1"/></g><g id="channels"><path d="M 1071.9 0.0 L 1068.6 1.3 L 1062.4 3.6 L 1056.2 5.9 L 1049.9 8.0 L 1043.6 10.0 L 1037.3 12.0 L 1030.9 13.9 L 1024.5 15.8 L 1018.1 17.5 L 1011.7 19.3 L 1005.3 21.1 L 998.9 22.8 L 992.6 24.6 L 992.6 24.6 L 986.2 26.3 L 979.8 27.9 L 973.4 29.5 L 966.9 31.0 L 960.5 32.4 L 954.0 33.8 L 947.6 35.2 L 941.1 36.4 L 934.6 37.8 L 928.1 39.0 L 921.7 40.3 L 915.1 41.6 L 908.6 42.8 L 902.1 44.1 L 895.7 45.5 L 889.2 46.8 L 889.2 46.8 L 882.7 48.1 L 876.2 49.4 L 869.7 50.8 L 863.3 52.1 L 856.8 53.4 L 850.3 54.7 L 843.8 56.1 L 837.4 57.3 L 830.9 58.7 L 824.4 59.9 L 817.9 61.3 L 811.4 62.6 L 805.0 63.9 L 798.5 65.2 L 792.0 66.6 L 785.6 67.9 L 785.6 67.9 L 779.2 69.3 L 772.7 70.7 L 766.2 71.9 L 759.7 73.3 L 753.1 74.5 L 746.7 75.9 L 740.2 77.2 L 733.7 78.5 L 727.2 79.9 L 720.8 81.3 L 714.4 82.7 L 707.9 84.2 L 701.5 85.6 L 695.1 87.2 L 688.7 88.9 L 682.3 90.6 L 682.3 90.6 L 676.0 92.4 L 669.6 94.2 L 663.3 96.1 L 657.0 98.0 L 650.7 100.0 L 644.4 102.0 L 638.0 104.1 L 631.8 106.1 L 625.5 108.2 L 619.3 110.4 L 613.1 112.7 L 606.8 114.8 L 600.7 117.1 L 594.5 119.5 L 588.3 121.9 L 582.2 124.3 L 582.2 124.3 L 576.1 126.7 L 569.9 129.2 L 563.9 131.9 L 557.9 134.6 L 551.9 137.4 L 545.9 140.2 L 540.0 143.0 L 534.0 145.9 L 527.9 148.8 L 522.0 151.6 L 516.0 154.4 L 510.1 157.2 L 504.1 160.0 L 498.1 162.8 L 492.0 165.5 L 486.0 168.1 L 486.0 168.1 L 479.8 170.7 L 473.8 173.3 L 467.7 175.7 L 461.6 178.3 L 455.5 180.9 L 449.3 183.4 L 443.3 185.9 L 437.2 188.4 L 430.9 190.7 L 424.8 193.1 L 418.7 195.5 L 412.4 197.8 L 406.2 199.9 L 400.0 202.1 L 393.8 204.2 L 387.4 206.3 L 387.4 206.3 L 381.1 208.1 L 374.7 209.8 L 368.3 211.4 L 361.8 212.8 L 355.2 214.1 L 348.6 215.5 L 342.0 216.6 L 335.5 217.9 L 329.0 219.1 L 322.4 220.5 L 315.9 222.0 L 309.5 223.5 L 303.2 225.2 L 297.0 227.1 L 290.8 229.3 L 284.8 231.6 L 284.8 231.6 L 278.7 234.2 L 272.3 236.9 L 265.6 239.7 L 258.9 242.7 L 252.0 245.7 L 245.2 249.0 L 238.5 252.2 L 232.0 255.7 L 225.9 259.2 L 220.0 262.8 L 214.6 266.5 L 209.6 270.4 L 205.3 274.2 L 201.6 278.3 L 198.8 282.3 L 196.7 286.4 L 196.7 286.4 L 195.5 290.7 L 194.9 295.5 L 195.0 300.4 L 195.6 305.7 L 196.7 311.0 L 198.4 316.4 L 200.5 322.0 L 203.1 327.5 L 206.1 333.1 L 209.3 338.3 L 212.8 343.6 L 216.7 348.6 L 220.6 353.3 L 224.7 357.7 L 229.0 361.7 L 233.3 365.3 L 233.3 365.3 L 237.9 368.5 L 242.9 371.2 L 248.3 373.7 L 254.2 375.9 L 260.3 378.0 L 266.7 379.7 L 273.2 381.3 L 280.1 382.8 L 287.0 384.2 L 294.0 385.3 L 301.1 386.6 L 308.1 387.8 L 315.1 389.0 L 321.9 390.3 L 328.7 391.7 L 335.2 393.2 L 335.2 393.2 L 341.6 394.7 L 348.0 396.3 L 354.5 397.9 L 360.9 399.5 L 367.3 401.0 L 373.8 402.5 L 380.2 404.0 L 386.7 405.5 L 393.2 406.9 L 399.6 408.3 L 406.1 409.6 L 412.6 410.9 L 419.0 412.1 L 425.6 413.3 L 432.0 414.4 L 438.6 415.3 L 438.6 415.3 L 445.1 416.4 L 451.7 417.3 L 458.2 418.4 L 464.8 419.3 L 471.4 420.3 L 478.0 421.2 L 484.6 422.1 L 491.2 422.8 L 497.8 423.5 L 504.4 424.0 L 511.0 424.5 L 517.6 424.8 L 524.2 425.0 L 530.7 425.0 L 537.2 424.8 L 543.7 424.5 L 543.7 424.5 L 550.2 424.0 L 556.7 423.3 L 563.2 422.5 L 569.7 421.5 L 576.2 420.4 L 582.8 419.2 L 589.2 417.9 L 595.6 416.5 L 602.1 414.9 L 608.5 413.1 L 614.9 411.4 L 621.2 409.5 L 627.5 407.5 L 633.8 405.4 L 640.0 403.3 L 646.1 401.0 L 646.1 401.0 L 652.1 398.6 L 658.2 396.0 L 664.1 393.2 L 670.0 390.3 L 675.9 387.3 L 681.7 384.2 L 687.5 381.0 L 693.3 377.7 L 699.0 374.3 L 704.8 370.9 L 710.5 367.5 L 716.1 364.2 L 721.9 360.8 L 727.6 357.4 L 733.4 354.2 L 739.2 351.0 L 739.2 351.0 L 744.9 347.8 L 750.7 344.5 L 756.5 341.2 L 762.2 337.9 L 768.0 334.6 L 773.6 331.3 L 779.3 327.9 L 785.1 324.6 L 790.8 321.2 L 796.6 318.0 L 802.3 314.8 L 808.1 311.6 L 814.0 308.5 L 819.8 305.5 L 825.7 302.5 L 831.7 299.8 L 831.7 299.8 L 837.7 297.1 L 843.8 294.5 L 849.9 291.9 L 856.0 289.5 L 862.2 287.2 L 868.4 285.0 L 874.6 282.7 L 880.8 280.5 L 887.1 278.3 L 893.4 276.2 L 899.6 273.9 L 905.7 271.6 L 912.0 269.3 L 918.1 266.9 L 924.2 264.4 L 930.3 262.0 L 930.3 262.0 L 936.3 259.4 L 942.5 256.8 L 948.7 254.3 L 954.8 251.8 L 961.1 249.4 L 967.2 246.9 L 973.5 244.4 L 979.5 241.7 L 985.6 239.0 L 991.6 236.2 L 997.5 233.3 L 1003.2 230.2 L 1008.9 227.0 L 1014.4 223.6 L 1019.7 220.0 L 1024.9 216.2 L 1024.9 216.2 L 1029.8 212.1 L 1034.6 207.7 L 1039.1 203.1 L 1043.6 198.3 L 1047.8 193.3 L 1052.0 188.2 L 1056.0 182.9 L 1060.0 177.6 L 1064.0 172.2 L 1067.8 166.8 L 1071.8 161.3 L 1075.8 155.9 L 1079.8 150.6 L 1083.9 145.3 L 1088.1 140.3 L 1092.4 135.3 L 1092.4 135.3 L 1096.8 130.2 L 1101.3 125.0 L 1105.9 119.7 L 1110.5 114.2 L 1115.0 108.7 L 1119.6 103.2 L 1124.3 97.7 L 1129.0 92.3 L 1133.6 87.2 L 1138.3 82.1 L 1142.9 77.4 L 1147.5 73.0 L 1152.0 68.9 L 1156.5 65.2 L 1160.9 62.0 L 1165.2 59.3 L 1165.2 59.3 L 1169.5 57.0 L 1174.0 55.1 L 1178.7 53.7 L 1183.4 52.5 L 1188.0 51.8 L 1192.7 51.2 L 1197.3 51.0 L 1201.8 51.0 L 1206.2 51.2 L 1210.4 51.6 L 1214.3 52.2 L 1218.0 52.9 L 1221.5 53.8 L 1224.5 54.8 L 1227.3 55.7 L 1229.6 56.8 L 1229.6 56.8 L 1231.4 58.2 L 1232.3 60.2 L 1232.9 62.8 L 1233.0 65.7 L 1232.6 69.0 L 1232.0 72.5 L 1231.2 76.0 L 1230.3 79.5 L 1229.5 82.9 L 1228.8 85.9 L 1228.3 88.6 L 1228.0 90.9 L 1228.2 92.6 L 1228.9 93.6 L 1230.2 93.7 L 1232.2 92.9 L 1232.2 92.9 L 1235.0 91.1 L 1238.5 88.1 L 1242.6 84.0 L 1247.3 79.0 L 1252.4 73.5 L 1257.7 67.4 L 1263.3 61.0 L 1269.0 54.4 L 1274.8 47.9 L 1280.3 41.6 L 1285.7 35.7 L 1290.7 30.2 L 1295.4 25.4 L 1299.6 21.6 L 1303.0 18.7 L 1305.9 17.2 L 1305.9 17.2 L 1307.9 16.8 L 1309.5 17.4 L 1310.5 18.8 L 1311.2 21.0 L 1311.5 23.8 L 1311.4 27.2 L 1311.1 30.9 L 1310.7 34.9 L 1310.2 39.0 L 1309.5 43.3 L 1309.0 47.5 L 1308.5 51.5 L 1308.2 55.2 L 1308.1 58.5 L 1308.4 61.2 L 1309.0 63.2 L 1309.0 63.2 L 1309.8 64.9 L 1310.6 66.2 L 1311.7 67.4 L 1312.6 68.3 L 1313.8 69.1 L 1315.0 69.7 L 1316.2 70.2 L 1317.5 70.6 L 1319.0 70.8 L 1320.4 71.1 L 1322.0 71.3 L 1323.6 71.5 L 1325.2 71.6 L 1326.9 71.8 L 1328.7 72.1 L 1330.5 72.4 L 1330.5 72.4 L 1332.5 72.6 L 1334.9 72.5 L 1337.6 72.3 L 1340.4 72.0 L 1343.3 71.5 L 1346.4 71.1 L 1349.5 70.6 L 1352.5 70.2 L 1355.5 69.9 L 1358.3 69.7 L 1360.9 69.6 L 1363.2 69.9 L 1365.2 70.4 L 1366.9 71.2 L 1368.0 72.3 L 1368.6 73.8 L 1368.6 73.8 L 1368.6 76.0 L 1367.9 78.8 L 1366.5 82.0 L 1364.6 85.8 L 1362.3 89.7 L 1359.8 94.0 L 1357.0 98.4 L 1354.2 102.8 L 1351.4 107.3 L 1348.8 111.7 L 1346.5 115.7 L 1344.6 119.6 L 1343.2 123.0 L 1342.4 125.8 L 1342.3 128.2 L 1343.1 129.9 L 1343.1 129.9 L 1344.9 130.7 L 1347.8 130.8 L 1351.5 130.2 L 1356.0 129.1 L 1361.0 127.5 L 1366.5 125.6 L 1372.2 123.5 L 1378.0 121.3 L 1383.7 119.2 L 1389.2 117.3 L 1394.3 115.5 L 1398.8 114.3 L 1402.6 113.5 L 1405.6 113.3 L 1407.5 114.0 L 1408.3 115.5 L 1408.3 115.5 L 1407.7 118.0 L 1405.7 121.5 L 1402.6 125.6 L 1398.4 130.5 L 1393.6 135.9 L 1388.2 141.8 L 1382.5 147.8 L 1376.5 154.1 L 1370.6 160.3 L 1364.9 166.4 L 1359.6 172.3 L 1354.9 177.8 L 1351.0 182.8 L 1348.1 187.1 L 1346.4 190.7 L 1346.0 193.4 L 1346.0 193.4 L 1347.2 195.2 L 1349.9 196.1 L 1353.9 196.4 L 1358.9 196.1 L 1364.7 195.2 L 1371.1 194.0 L 1377.9 192.5 L 1385.0 191.0 L 1391.9 189.3 L 1398.6 187.8 L 1404.9 186.4 L 1410.3 185.4 L 1415.0 184.7 L 1418.5 184.6 L 1420.7 185.1 L 1421.3 186.5 L 1421.3 186.5 L 1420.5 188.5 L 1418.5 191.2 L 1415.7 194.4 L 1412.0 198.0 L 1407.6 202.0 L 1402.4 206.2 L 1396.7 210.7 L 1390.6 215.4 L 1384.1 220.1 L 1377.4 224.8 L 1370.6 229.5 L 1363.7 234.0 L 1356.9 238.3 L 1350.3 242.2 L 1343.9 245.8 L 1337.9 249.0 L 1337.9 249.0 L 1332.1 251.8 L 1326.1 254.4 L 1320.0 256.7 L 1313.9 258.8 L 1307.6 260.8 L 1301.2 262.7 L 1294.8 264.4 L 1288.3 266.1 L 1281.9 267.7 L 1275.4 269.3 L 1268.9 270.9 L 1262.4 272.6 L 1256.0 274.2 L 1249.5 276.0 L 1243.2 277.9 L 1236.9 279.9 L 1236.9 279.9 L 1230.6 282.0 L 1224.3 284.1 L 1218.0 286.2 L 1211.8 288.2 L 1205.5 290.3 L 1199.2 292.4 L 1192.9 294.5 L 1186.7 296.6 L 1180.5 298.8 L 1174.3 301.1 L 1168.0 303.4 L 1161.9 305.7 L 1155.8 308.2 L 1149.7 310.8 L 1143.7 313.4 L 1137.7 316.2 L 1137.7 316.2 L 1131.8 319.0 L 1125.9 322.0 L 1120.1 325.1 L 1114.4 328.3 L 1108.6 331.5 L 1102.9 334.8 L 1097.2 338.2 L 1091.5 341.6 L 1085.8 345.1 L 1080.2 348.6 L 1074.7 352.1 L 1069.0 355.6 L 1063.4 359.1 L 1057.8 362.6 L 1052.1 366.1 L 1046.4 369.4 L 1046.4 369.4 L 1040.7 372.8 L 1035.1 376.2 L 1029.4 379.7 L 1023.8 383.1 L 1018.2 386.5 L 1012.6 390.0 L 1006.9 393.5 L 1001.3 397.0 L 995.6 400.4 L 990.0 403.9 L 984.3 407.3 L 978.8 410.7 L 973.1 414.2 L 967.4 417.5 L 961.7 420.9 L 956.0 424.2 L 956.0 424.2 L 950.3 427.5 L 944.6 430.8 L 938.8 434.1 L 933.1 437.4 L 927.3 440.7 L 921.5 443.9 L 915.8 447.1 L 910.0 450.3 L 904.2 453.5 L 898.4 456.7 L 892.7 459.9 L 886.8 463.1 L 881.0 466.2 L 875.2 469.4 L 869.5 472.6 L 863.6 475.7 L 863.6 475.7 L 857.8 478.9 L 852.0 482.1 L 846.2 485.2 L 840.4 488.4 L 834.6 491.6 L 828.9 494.7 L 823.0 497.9 L 817.2 501.0 L 811.3 504.1 L 805.6 507.2 L 799.7 510.3 L 793.8 513.4 L 788.0 516.4 L 782.1 519.4 L 776.1 522.4 L 770.3 525.3 L 770.3 525.3 L 764.3 528.2 L 758.4 531.1 L 752.4 534.0 L 746.5 536.9 L 740.6 539.8 L 734.5 542.6 L 728.6 545.4 L 722.6 548.2 L 716.6 551.0 L 710.5 553.7 L 704.5 556.3 L 698.4 559.0 L 692.4 561.6 L 686.2 564.1 L 680.1 566.6 L 674.0 569.0 L 674.0 569.0 L 667.8 571.4 L 661.7 573.7 L 655.5 576.1 L 649.2 578.4 L 643.0 580.7 L 636.8 582.9 L 630.6 585.1 L 624.2 587.3 L 618.0 589.4 L 611.7 591.3 L 605.4 593.2 L 599.0 595.1 L 592.7 596.9 L 586.3 598.4 L 579.9 600.0 L 573.4 601.4 L 573.4 601.4 L 567.0 602.7 L 560.6 603.9 L 554.1 604.9 L 547.6 605.9 L 541.0 606.8 L 534.4 607.5 L 527.9 608.2 L 521.3 608.8 L 514.7 609.4 L 508.1 609.8 L 501.5 610.3 L 494.8 610.8 L 488.3 611.1 L 481.7 611.5 L 475.0 611.8 L 468.4 612.2 L 468.4 612.2 L 461.9 612.4 L 455.3 612.7 L 448.7 612.8 L 442.0 612.9 L 435.4 612.9 L 428.8 613.0 L 422.2 613.0 L 415.6 612.9 L 409.0 612.8 L 402.4 612.7 L 395.8 612.6 L 389.2 612.4 L 382.6 612.4 L 376.0 612.2 L 369.4 612.2 L 362.7 612.1 L 362.7 612.1 L 356.1 612.1 L 349.5 612.0 L 342.8 612.1 L 336.2 612.1 L 329.6 612.0 L 323.0 612.0 L 316.4 611.9 L 309.8 612.0 L 303.2 611.9 L 296.6 611.9 L 290.0 611.7 L 283.4 611.7 L 276.8 611.6 L 270.2 611.5 L 263.6 611.3 L 257.0 611.3 L 257.0 611.3 L 250.4 611.2 L 243.8 611.0 L 237.2 610.9 L 230.6 610.8 L 224.0 610.7 L 217.3 610.6 L 210.6 610.5 L 204.0 610.3 L 197.4 610.2 L 190.9 609.9 L 184.3 609.7 L 177.7 609.3 L 171.1 609.0 L 164.5 608.6 L 157.9 608.0 L 151.3 607.4 L 151.3 607.4 L 144.8 606.7 L 138.2 606.0 L 131.6 605.2 L 125.1 604.4 L 118.6 603.5 L 112.0 602.6 L 105.5 601.6 L 98.9 600.5 L 92.4 599.5 L 85.9 598.3 L 79.4 597.1 L 72.9 595.8 L 66.4 594.5 L 60.0 593.1 L 53.5 591.6 L 47.2 590.1 L 47.2 590.1 L 40.8 588.6 L 34.3 586.9 L 27.8 585.3 L 21.4 583.6 L 15.0 582.0 L 8.6 580.3 L 2.0 578.4 L 0.0 577.8" fill="none" stroke="#2b6bff" stroke-width="6.0" stroke-opacity="0.9"/></g><g id="clips"><circle cx="1071.9" cy="0.0" r="2" fill="none" stroke="#0b5" stroke-width="0.6"/><circle cx="0.0" cy="577.8" r="2" fill="none" stroke="#0b5" stroke-width="0.6"/></g><g id="power"><circle cx="0.0" cy="577.8" r="5" fill="none" stroke="#e33" stroke-width="1"/><circle cx="1071.9" cy="0.0" r="5" fill="none" stroke="#e33" stroke-width="1"/></g><g id="bridges"><circle cx="1241.9" cy="65.8" r="9" fill="none" stroke="#e6a817" stroke-width="1.5"/><circle cx="1241.9" cy="65.8" r="9" fill="none" stroke="#e6a817" stroke-width="1.5"/></g></svg>