<svg xmlns="http://www.w3.org/2000/svg" width="1000mm" height="2000mm" viewBox="0 0 1000 2000"><g id="outline"><rect x="0" y="0" width="1000" height="2000" fill="none" stroke="#000" stroke-width="1"/></g><g id="channels"><path d="M 133.6 2000.0 L 133.3 1998.0 L 132.7 1991.6 L 132.3 1985.1 L 132.3 1985.1 L 132.1 1978.7 L 132.2 1972.2 L 132.3 1965.7 L 132.7 1959.2 L 133.2 1952.7 L 133.8 1946.2 L 134.5 1939.7 L 135.3 1933.2 L 136.3 1926.7 L 137.3 1920.2 L 138.4 1913.7 L 139.5 1907.2 L 140.7 1900.7 L 141.9 1894.3 L 143.1 1887.8 L 144.4 1881.4 L 144.4 1881.4 L 145.7 1875.0 L 147.1 1868.7 L 148.7 1862.3 L 150.3 1856.0 L 152.0 1849.6 L 153.7 1843.3 L 155.6 1837.0 L 157.4 1830.7 L 159.3 1824.4 L 161.2 1818.1 L 163.1 1811.8 L 165.1 1805.6 L 166.9 1799.3 L 168.8 1793.0 L 170.6 1786.7 L 172.4 1780.3 L 172.4 1780.3 L 174.2 1774.0 L 175.9 1767.7 L 177.7 1761.4 L 179.4 1755.1 L 181.2 1748.8 L 182.9 1742.4 L 184.7 1736.1 L 186.4 1729.8 L 188.2 1723.5 L 189.9 1717.2 L 191.7 1710.9 L 193.4 1704.5 L 195.1 1698.2 L 196.9 1691.9 L 198.6 1685.6 L 200.3 1679.2 L 200.3 1679.2 L 202.0 1672.9 L 203.7 1666.6 L 205.4 1660.3 L 207.1 1653.9 L 208.8 1647.6 L 210.5 1641.3 L 212.2 1634.9 L 213.9 1628.6 L 215.6 1622.3 L 217.3 1615.9 L 218.9 1609.6 L 220.6 1603.2 L 222.2 1596.9 L 223.9 1590.5 L 225.5 1584.2 L 227.1 1577.8 L 227.1 1577.8 L 228.7 1571.5 L 230.2 1565.1 L 231.8 1558.7 L 233.2 1552.3 L 234.7 1545.9 L 236.1 1539.5 L 237.6 1533.1 L 239.0 1526.7 L 240.5 1520.3 L 242.0 1513.9 L 243.5 1507.6 L 245.1 1501.2 L 246.7 1494.9 L 248.4 1488.5 L 250.1 1482.2 L 252.0 1475.9 L 252.0 1475.9 L 253.8 1469.7 L 255.7 1463.4 L 257.5 1457.1 L 259.4 1450.8 L 261.3 1444.5 L 263.2 1438.2 L 265.2 1431.9 L 267.2 1425.6 L 269.3 1419.4 L 271.5 1413.2 L 273.7 1407.1 L 276.1 1401.0 L 278.5 1394.9 L 281.1 1388.9 L 283.7 1383.0 L 286.6 1377.2 L 286.6 1377.2 L 289.5 1371.4 L 292.7 1365.7 L 295.9 1360.0 L 299.3 1354.5 L 302.8 1348.9 L 306.4 1343.5 L 310.1 1338.0 L 313.8 1332.6 L 317.6 1327.3 L 321.4 1321.9 L 325.2 1316.6 L 329.1 1311.2 L 332.9 1305.9 L 336.7 1300.5 L 340.5 1295.1 L 344.2 1289.8 L 344.2 1289.8 L 348.0 1284.4 L 351.7 1279.0 L 355.6 1273.7 L 359.4 1268.4 L 363.3 1263.1 L 367.2 1257.8 L 371.1 1252.5 L 375.0 1247.2 L 378.8 1241.9 L 382.7 1236.6 L 386.5 1231.3 L 390.3 1225.9 L 393.9 1220.5 L 397.6 1215.1 L 401.1 1209.6 L 404.6 1204.0 L 404.6 1204.0 L 408.0 1198.4 L 411.3 1192.8 L 414.5 1187.1 L 417.7 1181.4 L 420.9 1175.7 L 424.0 1169.9 L 427.0 1164.1 L 430.0 1158.3 L 433.0 1152.4 L 436.0 1146.6 L 438.9 1140.7 L 441.8 1134.8 L 444.7 1128.9 L 447.6 1123.0 L 450.5 1117.1 L 453.3 1111.2 L 453.3 1111.2 L 456.2 1105.3 L 459.0 1099.4 L 461.8 1093.5 L 464.6 1087.6 L 467.3 1081.6 L 470.1 1075.7 L 472.8 1069.7 L 475.4 1063.7 L 478.1 1057.7 L 480.8 1051.7 L 483.4 1045.7 L 486.0 1039.7 L 488.6 1033.7 L 491.2 1027.6 L 493.7 1021.6 L 496.3 1015.6 L 496.3 1015.6 L 498.8 1009.5 L 501.4 1003.5 L 503.9 997.4 L 506.4 991.4 L 508.9 985.3 L 511.4 979.2 L 513.9 973.2 L 516.3 967.1 L 518.8 961.0 L 521.2 954.9 L 523.5 948.8 L 525.9 942.7 L 528.2 936.5 L 530.4 930.4 L 532.6 924.2 L 534.8 918.0 L 534.8 918.0 L 536.9 911.8 L 539.1 905.6 L 541.1 899.4 L 543.2 893.2 L 545.2 887.0 L 547.2 880.7 L 549.1 874.4 L 551.0 868.2 L 552.9 861.9 L 554.8 855.6 L 556.6 849.3 L 558.4 843.0 L 560.1 836.7 L 561.9 830.4 L 563.6 824.0 L 565.2 817.7 L 565.2 817.7 L 566.8 811.3 L 568.3 805.0 L 569.8 798.6 L 571.2 792.2 L 572.6 785.8 L 573.9 779.4 L 575.2 772.9 L 576.5 766.5 L 577.7 760.1 L 579.0 753.6 L 580.3 747.2 L 581.6 740.8 L 583.0 734.3 L 584.4 727.9 L 585.8 721.6 L 587.3 715.2 L 587.3 715.2 L 588.9 708.8 L 590.3 702.4 L 591.8 696.0 L 593.2 689.5 L 594.6 683.0 L 596.0 676.6 L 597.5 670.2 L 599.0 663.7 L 600.6 657.3 L 602.3 651.0 L 604.0 644.7 L 605.9 638.4 L 607.9 632.2 L 610.1 626.1 L 612.4 620.1 L 615.0 614.1 L 615.0 614.1 L 617.7 608.3 L 620.6 602.5 L 623.7 596.8 L 626.9 591.2 L 630.3 585.7 L 633.8 580.2 L 637.4 574.7 L 641.1 569.3 L 644.9 563.9 L 648.6 558.6 L 652.5 553.2 L 656.3 547.9 L 660.1 542.6 L 663.9 537.2 L 667.7 531.9 L 671.4 526.5 L 671.4 526.5 L 675.1 521.2 L 678.9 515.9 L 682.9 510.7 L 686.9 505.5 L 691.0 500.3 L 695.1 495.2 L 699.2 490.1 L 703.3 484.9 L 707.4 479.8 L 711.3 474.6 L 715.2 469.3 L 718.9 464.0 L 722.4 458.6 L 725.8 453.1 L 729.0 447.5 L 731.9 441.7 L 731.9 441.7 L 734.6 435.9 L 736.9 429.8 L 739.0 423.7 L 740.8 417.4 L 742.5 411.0 L 744.0 404.6 L 745.5 398.1 L 746.9 391.6 L 748.3 385.1 L 749.7 378.6 L 751.2 372.2 L 752.8 365.8 L 754.5 359.4 L 756.5 353.2 L 758.7 347.1 L 761.1 341.1 L 761.1 341.1 L 763.8 335.2 L 766.6 329.3 L 769.5 323.5 L 772.5 317.7 L 775.5 311.9 L 778.7 306.2 L 782.0 300.5 L 785.4 294.9 L 788.9 289.4 L 792.4 283.9 L 796.1 278.5 L 799.9 273.2 L 803.7 267.9 L 807.7 262.8 L 811.7 257.7 L 815.9 252.8 L 815.9 252.8 L 820.3 248.0 L 825.0 243.4 L 830.0 239.0 L 835.3 234.7 L 840.7 230.5 L 846.3 226.5 L 851.9 222.4 L 857.5 218.5 L 863.0 214.5 L 868.5 210.5 L 873.7 206.4 L 878.8 202.3 L 883.5 198.1 L 887.9 193.7 L 891.9 189.2 L 895.4 184.5 L 895.4 184.5 L 898.7 179.5 L 902.0 174.1 L 905.3 168.5 L 908.5 162.7 L 911.6 156.7 L 914.5 150.6 L 917.1 144.5 L 919.4 138.5 L 921.4 132.5 L 922.9 126.7 L 924.0 121.2 L 924.6 115.9 L 924.6 111.0 L 923.9 106.5 L 922.6 102.4 L 920.6 99.0 L 920.6 99.0 L 917.6 96.0 L 913.8 93.5 L 909.2 91.4 L 903.8 89.6 L 897.8 88.2 L 891.3 87.0 L 884.3 86.1 L 877.0 85.4 L 869.4 84.9 L 861.7 84.5 L 853.9 84.2 L 846.1 83.9 L 838.5 83.7 L 831.1 83.4 L 824.0 83.1 L 817.3 82.7 L 817.3 82.7 L 810.7 82.2 L 803.9 81.5 L 797.0 80.7 L 790.1 79.9 L 783.0 79.0 L 776.0 78.3 L 768.9 77.6 L 762.0 77.1 L 755.1 76.7 L 748.4 76.7 L 741.9 76.9 L 735.6 77.6 L 729.5 78.6 L 723.7 80.1 L 718.3 82.1 L 713.3 84.7 L 713.3 84.7 L 708.7 87.9 L 704.4 91.7 L 700.4 96.1 L 696.7 101.0 L 693.3 106.3 L 690.1 111.9 L 687.0 117.9 L 684.2 124.1 L 681.4 130.5 L 678.8 137.0 L 676.1 143.5 L 673.6 150.1 L 671.0 156.6 L 668.3 163.0 L 665.6 169.2 L 662.8 175.2 L 662.8 175.2 L 659.9 181.1 L 657.0 186.9 L 654.2 192.8 L 651.5 198.8 L 648.7 204.7 L 646.0 210.7 L 643.4 216.7 L 640.7 222.7 L 638.1 228.7 L 635.5 234.8 L 633.0 240.8 L 630.5 246.9 L 628.0 253.0 L 625.5 259.1 L 623.1 265.2 L 620.7 271.3 L 620.7 271.3 L 618.3 277.4 L 616.0 283.5 L 613.7 289.6 L 611.4 295.8 L 609.2 301.9 L 607.0 308.1 L 604.8 314.3 L 602.7 320.5 L 600.6 326.7 L 598.5 332.9 L 596.4 339.1 L 594.3 345.4 L 592.2 351.6 L 590.1 357.8 L 588.1 364.0 L 586.0 370.2 L 586.0 370.2 L 583.9 376.4 L 581.9 382.7 L 579.9 388.9 L 577.9 395.2 L 576.0 401.5 L 574.1 407.7 L 572.2 414.0 L 570.2 420.3 L 568.3 426.5 L 566.3 432.8 L 564.3 439.0 L 562.3 445.3 L 560.2 451.5 L 558.1 457.7 L 555.8 463.8 L 553.6 470.0 L 553.6 470.0 L 551.2 476.1 L 548.8 482.2 L 546.4 488.2 L 543.9 494.3 L 541.4 500.4 L 538.9 506.4 L 536.3 512.4 L 533.7 518.5 L 531.0 524.5 L 528.4 530.4 L 525.6 536.4 L 522.9 542.3 L 520.1 548.3 L 517.3 554.2 L 514.4 560.1 L 511.5 565.9 L 511.5 565.9 L 508.6 571.8 L 505.6 577.6 L 502.6 583.4 L 499.5 589.2 L 496.4 595.0 L 493.2 600.8 L 490.1 606.5 L 486.9 612.2 L 483.6 617.9 L 480.4 623.6 L 477.1 629.3 L 473.8 635.0 L 470.5 640.6 L 467.2 646.3 L 463.8 651.9 L 460.5 657.6 L 460.5 657.6 L 457.1 663.2 L 453.7 668.8 L 450.3 674.4 L 446.8 679.9 L 443.3 685.5 L 439.8 691.0 L 436.3 696.5 L 432.7 702.1 L 429.2 707.6 L 425.6 713.1 L 422.1 718.6 L 418.5 724.1 L 414.9 729.6 L 411.3 735.0 L 407.7 740.5 L 404.2 746.0 L 404.2 746.0 L 400.6 751.5 L 397.0 757.0 L 393.4 762.5 L 389.7 767.9 L 386.1 773.4 L 382.5 778.8 L 378.8 784.3 L 375.2 789.7 L 371.5 795.2 L 367.9 800.6 L 364.2 806.1 L 360.6 811.5 L 357.0 817.0 L 353.4 822.5 L 349.8 827.9 L 346.2 833.4 L 346.2 833.4 L 342.6 838.9 L 339.1 844.5 L 335.6 850.0 L 332.0 855.5 L 328.5 861.0 L 325.0 866.6 L 321.5 872.1 L 318.0 877.7 L 314.5 883.2 L 311.0 888.7 L 307.5 894.3 L 304.0 899.9 L 300.6 905.4 L 297.1 911.0 L 293.6 916.5 L 290.1 922.1 L 290.1 922.1 L 286.7 927.6 L 283.2 933.2 L 279.8 938.8 L 276.4 944.4 L 273.0 950.0 L 269.5 955.6 L 266.1 961.2 L 262.7 966.8 L 259.3 972.4 L 255.9 978.0 L 252.4 983.6 L 249.0 989.1 L 245.5 994.7 L 242.0 1000.2 L 238.4 1005.7 L 234.8 1011.2 L 234.8 1011.2 L 231.2 1016.6 L 227.5 1022.1 L 223.9 1027.5 L 220.2 1032.9 L 216.5 1038.4 L 212.8 1043.7 L 209.0 1049.1 L 205.3 1054.5 L 201.5 1059.9 L 197.7 1065.2 L 193.9 1070.5 L 190.0 1075.8 L 186.2 1081.1 L 182.3 1086.4 L 178.4 1091.7 L 174.5 1096.9 L 174.5 1096.9 L 170.5 1102.1 L 166.5 1107.3 L 162.4 1112.4 L 158.3 1117.5 L 154.1 1122.6 L 149.9 1127.6 L 145.7 1132.7 L 141.5 1137.7 L 137.3 1142.8 L 133.1 1147.8 L 128.9 1152.9 L 124.9 1158.0 L 120.8 1163.2 L 116.8 1168.4 L 113.0 1173.6 L 109.2 1179.0 L 109.2 1179.0 L 105.4 1184.3 L 101.8 1189.8 L 98.1 1195.2 L 94.5 1200.7 L 91.0 1206.2 L 87.5 1211.7 L 84.0 1217.3 L 80.6 1222.9 L 77.2 1228.5 L 73.9 1234.1 L 70.6 1239.8 L 67.3 1245.5 L 64.1 1251.2 L 60.9 1256.9 L 57.8 1262.7 L 54.7 1268.4 L 54.7 1268.4 L 51.6 1274.2 L 48.6 1280.0 L 45.7 1285.9 L 42.8 1291.8 L 40.0 1297.7 L 37.2 1303.6 L 34.4 1309.6 L 31.7 1315.5 L 29.0 1321.5 L 26.3 1327.5 L 23.6 1333.5 L 21.0 1339.5 L 18.3 1345.5 L 15.6 1351.5 L 12.9 1357.4 L 10.2 1363.4 L 10.2 1363.4 L 7.5 1369.4 L 4.8 1375.4 L 2.1 1381.3 L 0.0 1386.0" fill="none" stroke="#39ff88" stroke-width="6.0" stroke-opacity="0.9"/><path d="M 258.9 2000.0 L 260.3 1995.6 L 262.7 1988.9 L 265.3 1982.2 L 268.0 1975.6 L 271.0 1969.0 L 274.1 1962.5 L 277.3 1956.0 L 280.6 1949.6 L 284.1 1943.2 L 287.6 1936.8 L 291.2 1930.5 L 294.8 1924.3 L 298.5 1918.0 L 302.2 1911.9 L 302.2 1911.9 L 305.9 1905.8 L 309.8 1899.8 L 313.9 1893.9 L 318.0 1888.0 L 322.3 1882.2 L 326.7 1876.5 L 331.2 1870.8 L 335.7 1865.1 L 340.2 1859.4 L 344.8 1853.8 L 349.4 1848.1 L 353.9 1842.5 L 358.4 1836.8 L 362.9 1831.1 L 367.2 1825.3 L 371.5 1819.5 L 371.5 1819.5 L 375.7 1813.6 L 380.0 1807.8 L 384.2 1801.9 L 388.4 1796.0 L 392.7 1790.2 L 396.9 1784.3 L 401.1 1778.4 L 405.2 1772.5 L 409.4 1766.6 L 413.5 1760.7 L 417.6 1754.7 L 421.6 1748.8 L 425.7 1742.8 L 429.6 1736.7 L 433.6 1730.7 L 437.4 1724.6 L 437.4 1724.6 L 441.3 1718.5 L 445.0 1712.3 L 448.8 1706.2 L 452.4 1699.9 L 456.1 1693.7 L 459.7 1687.4 L 463.2 1681.2 L 466.8 1674.9 L 470.3 1668.6 L 473.8 1662.2 L 477.3 1655.9 L 480.8 1649.6 L 484.3 1643.3 L 487.8 1637.0 L 491.3 1630.6 L 494.8 1624.3 L 494.8 1624.3 L 498.3 1618.0 L 501.8 1611.7 L 505.3 1605.4 L 508.7 1599.0 L 512.1 1592.7 L 515.6 1586.3 L 519.0 1579.9 L 522.4 1573.6 L 525.8 1567.2 L 529.3 1560.9 L 532.7 1554.5 L 536.2 1548.2 L 539.7 1541.9 L 543.2 1535.6 L 546.7 1529.3 L 550.3 1523.0 L 550.3 1523.0 L 553.9 1516.7 L 557.5 1510.4 L 561.0 1504.1 L 564.5 1497.8 L 568.1 1491.4 L 571.6 1485.1 L 575.2 1478.8 L 578.8 1472.5 L 582.4 1466.3 L 586.1 1460.1 L 589.9 1453.9 L 593.7 1447.8 L 597.6 1441.7 L 601.6 1435.7 L 605.7 1429.9 L 609.9 1424.0 L 609.9 1424.0 L 614.2 1418.3 L 618.6 1412.6 L 623.0 1406.9 L 627.5 1401.2 L 632.1 1395.6 L 636.7 1390.1 L 641.4 1384.6 L 646.1 1379.1 L 650.9 1373.8 L 655.9 1368.5 L 660.8 1363.3 L 665.9 1358.1 L 671.0 1353.1 L 676.2 1348.2 L 681.5 1343.3 L 686.9 1338.6 L 686.9 1338.6 L 692.4 1334.0 L 698.0 1329.6 L 703.8 1325.4 L 709.7 1321.3 L 715.7 1317.3 L 721.8 1313.4 L 728.0 1309.6 L 734.2 1305.8 L 740.4 1302.1 L 746.6 1298.3 L 752.8 1294.6 L 759.0 1290.8 L 765.2 1286.9 L 771.3 1283.0 L 777.2 1278.9 L 783.1 1274.8 L 783.1 1274.8 L 789.0 1270.5 L 794.8 1266.3 L 800.6 1262.0 L 806.4 1257.7 L 812.2 1253.3 L 817.9 1248.9 L 823.6 1244.5 L 829.3 1240.1 L 835.0 1235.6 L 840.6 1231.1 L 846.2 1226.6 L 851.8 1222.0 L 857.3 1217.3 L 862.8 1212.6 L 868.2 1207.9 L 873.6 1203.1 L 873.6 1203.1 L 878.9 1198.3 L 884.2 1193.3 L 889.3 1188.3 L 894.5 1183.2 L 899.5 1178.1 L 904.5 1172.9 L 909.5 1167.7 L 914.5 1162.4 L 919.5 1157.2 L 924.4 1151.9 L 929.4 1146.6 L 934.4 1141.4 L 939.4 1136.1 L 944.4 1131.0 L 949.5 1125.8 L 954.6 1120.7 L 954.6 1120.7 L 959.7 1115.7 L 964.9 1110.6 L 970.0 1105.5 L 975.2 1100.4 L 980.3 1095.4 L 985.5 1090.3 L 990.7 1085.3 L 995.9 1080.2 L 1000.0 1076.3" fill="none" stroke="#39ff88" stroke-width="6.0" stroke-opacity="0.9"/><path d="M 1000.0 891.7 L 997.8 893.1 L 991.7 896.9 L 985.5 900.7 L 979.3 904.4 L 973.1 908.2 L 966.9 911.9 L 960.7 915.5 L 954.5 919.2 L 948.2 922.8 L 942.0 926.5 L 935.8 930.1 L 929.5 933.7 L 923.3 937.4 L 917.0 941.0 L 910.8 944.7 L 910.8 944.7 L 904.6 948.3 L 898.3 951.9 L 892.1 955.5 L 885.8 959.1 L 879.5 962.7 L 873.2 966.2 L 866.9 969.8 L 860.6 973.4 L 854.4 976.9 L 848.1 980.5 L 841.8 984.1 L 835.6 987.7 L 829.3 991.4 L 823.1 995.0 L 816.9 998.7 L 810.8 1002.5 L 810.8 1002.5 L 804.6 1006.3 L 798.5 1010.1 L 792.4 1014.0 L 786.3 1017.8 L 780.2 1021.7 L 774.2 1025.7 L 768.1 1029.6 L 762.1 1033.6 L 756.1 1037.6 L 750.0 1041.5 L 744.0 1045.5 L 738.0 1049.5 L 732.0 1053.5 L 725.9 1057.5 L 719.9 1061.4 L 713.9 1065.4 L 713.9 1065.4 L 707.8 1069.3 L 701.8 1073.3 L 695.7 1077.2 L 689.7 1081.2 L 683.6 1085.2 L 677.6 1089.1 L 671.6 1093.1 L 665.5 1097.0 L 659.5 1101.0 L 653.5 1105.0 L 647.4 1109.0 L 641.4 1113.0 L 635.4 1116.9 L 629.4 1120.9 L 623.4 1124.9 L 617.4 1128.9 L 617.4 1128.9 L 611.3 1132.9 L 605.3 1136.9 L 599.2 1140.8 L 593.2 1144.7 L 587.1 1148.7 L 581.0 1152.6 L 574.9 1156.5 L 568.8 1160.4 L 562.8 1164.4 L 556.8 1168.4 L 550.8 1172.5 L 544.9 1176.6 L 539.0 1180.7 L 533.2 1185.0 L 527.5 1189.3 L 521.8 1193.8 L 521.8 1193.8 L 516.2 1198.3 L 510.6 1202.9 L 505.1 1207.6 L 499.7 1212.3 L 494.3 1217.1 L 489.0 1221.9 L 483.7 1226.8 L 478.4 1231.8 L 473.2 1236.8 L 468.0 1241.8 L 462.8 1246.8 L 457.6 1251.9 L 452.5 1257.0 L 447.4 1262.1 L 442.2 1267.2 L 437.1 1272.3 L 437.1 1272.3 L 432.1 1277.4 L 427.0 1282.5 L 422.0 1287.7 L 417.0 1293.0 L 412.1 1298.2 L 407.1 1303.5 L 402.2 1308.8 L 397.3 1314.1 L 392.4 1319.4 L 387.6 1324.8 L 382.7 1330.1 L 377.9 1335.5 L 373.0 1340.8 L 368.1 1346.2 L 363.3 1351.5 L 358.4 1356.8 L 358.4 1356.8 L 353.4 1362.3 L 348.1 1368.1 L 342.7 1374.1 L 337.1 1380.2 L 331.5 1386.4 L 325.8 1392.7 L 320.2 1398.9 L 314.7 1405.0 L 309.4 1410.9 L 304.2 1416.6 L 299.4 1422.1 L 294.8 1427.1 L 290.6 1431.8 L 286.9 1435.9 L 283.6 1439.5 L 280.9 1442.5" fill="none" stroke="#39ff88" stroke-width="6.0" stroke-opacity="0.9"/></g><g id="clips"><circle cx="133.6" cy="2000.0" r="2" fill="none" stroke="#0b5" stroke-width="0.6"/><circle cx="0.0" cy="1386.0" r="2" fill="none" stroke="#0b5" stroke-width="0.6"/><circle cx="258.9" cy="2000.0" r="2" fill="none" stroke="#0b5" stroke-width="0.6"/><circle cx="1000.0" cy="1076.3" r="2" fill="none" stroke="#0b5" stroke-width="0.6"/><circle cx="1000.0" cy="891.7" r="2" fill="none" stroke="#0b5" stroke-width="0.6"/><circle cx="280.9" cy="1442.5" r="2" fill="none" stroke="#0b5" stroke-width="0.6"/></g><g id="power"><circle cx="133.6" cy="2000.0" r="5" fill="none" stroke="#e33" stroke-width="1"/><circle cx="258.9" cy="2000.0" r="5" fill="none" stroke="#e33" stroke-width="1"/><circle cx="1000.0" cy="1076.3" r="5" fill="none" stroke="#e33" stroke-width="1"/><circle cx="1000.0" cy="891.7" r="5" fill="none" stroke="#e33" stroke-width="1"/><circle cx="0.0" cy="1386.0" r="5" fill="none" stroke="#e33" stroke-width="1"/></g><g id="bridges"><circle cx="270.1" cy="1446.7" r="9" fill="none" stroke="#e6a817" stroke-width="1.5"/><circle cx="272.4" cy="1442.0" r="9" fill="none" stroke="#e6a817" stroke-width="1.5"/></g></svg>