<svg xmlns="http://www.w3.org/2000/svg" width="2000mm" height="1000mm" viewBox="0 0 2000 1000"><g id="outline"><rect x="0" y="0" width="2000" height="1000" fill="none" stroke="#000" stroke-width="1"/></g><g id="channels"><path d="M 244.4 0.0 L 243.7 1.7 L 241.3 8.1 L 239.1 14.6 L 237.1 21.1 L 235.4 27.6 L 233.9 34.1 L 232.8 40.6 L 232.0 47.0 L 231.5 53.3 L 231.5 59.6 L 231.8 65.8 L 231.8 65.8 L 232.7 71.9 L 234.0 78.1 L 235.7 84.2 L 237.8 90.3 L 240.2 96.4 L 243.0 102.5 L 246.0 108.6 L 249.3 114.6 L 252.7 120.6 L 256.3 126.5 L 260.1 132.4 L 263.9 138.2 L 267.8 143.9 L 271.7 149.5 L 275.6 155.1 L 279.4 160.5 L 279.4 160.5 L 283.3 165.9 L 287.4 171.1 L 291.6 176.3 L 296.0 181.3 L 300.5 186.2 L 305.1 191.1 L 309.9 195.9 L 314.6 200.7 L 319.5 205.5 L 324.3 210.2 L 329.2 214.9 L 334.1 219.7 L 338.9 224.4 L 343.7 229.2 L 348.5 234.0 L 353.1 238.9 L 353.1 238.9 L 357.8 243.7 L 362.4 248.6 L 367.1 253.4 L 371.8 258.2 L 376.5 263.0 L 381.3 267.9 L 386.0 272.7 L 390.7 277.5 L 395.3 282.3 L 400.0 287.2 L 404.6 292.1 L 409.2 297.0 L 413.7 302.0 L 418.1 307.0 L 422.5 312.1 L 426.8 317.2 L 426.8 317.2 L 431.1 322.4 L 435.4 327.6 L 439.7 332.8 L 443.9 338.0 L 448.1 343.3 L 452.3 348.6 L 456.4 353.9 L 460.5 359.3 L 464.5 364.7 L 468.4 370.2 L 472.3 375.7 L 476.0 381.2 L 479.6 386.9 L 483.1 392.5 L 486.5 398.3 L 489.7 404.1 L 489.7 404.1 L 492.8 410.0 L 495.8 416.0 L 498.7 422.0 L 501.4 428.2 L 504.1 434.3 L 506.7 440.6 L 509.1 446.9 L 511.5 453.2 L 513.8 459.6 L 516.0 466.0 L 518.2 472.4 L 520.3 478.8 L 522.3 485.2 L 524.2 491.7 L 526.1 498.1 L 528.0 504.5 L 528.0 504.5 L 529.7 511.1 L 531.3 517.9 L 532.7 524.9 L 534.0 532.1 L 535.2 539.4 L 536.3 546.6 L 537.3 553.9 L 538.4 561.1 L 539.4 568.2 L 540.4 575.1 L 541.5 581.7 L 542.7 588.1 L 544.0 594.0 L 545.3 599.6 L 546.9 604.7 L 548.6 609.3 L 548.6 609.3 L 550.4 613.3 L 552.4 616.7 L 554.5 619.5 L 556.7 621.8 L 559.0 623.7 L 561.3 625.4 L 563.7 626.8 L 566.1 628.0 L 568.6 629.2 L 571.0 630.5 L 573.5 631.8 L 576.0 633.3 L 578.5 635.1 L 580.9 637.2 L 583.3 639.7 L 585.7 642.8 L 585.7 642.8 L 588.0 646.5 L 590.3 650.8 L 592.5 655.6 L 594.8 660.8 L 597.0 666.3 L 599.3 672.0 L 601.5 677.8 L 603.7 683.6 L 606.0 689.2 L 608.3 694.6 L 610.6 699.7 L 613.0 704.4 L 615.3 708.4 L 617.8 711.9 L 620.2 714.5 L 622.8 716.3 L 622.8 716.3 L 625.4 717.2 L 628.3 717.3 L 631.3 716.6 L 634.5 715.2 L 637.7 713.4 L 640.9 711.0 L 644.2 708.4 L 647.4 705.5 L 650.6 702.5 L 653.6 699.4 L 656.5 696.3 L 659.3 693.5 L 661.7 690.8 L 664.0 688.6 L 665.9 686.7 L 667.5 685.5" fill="none" stroke="#39ff88" stroke-width="6.0" stroke-opacity="0.9"/><path d="M 622.7 526.1 L 623.3 527.6 L 624.1 529.5 L 624.9 531.7 L 625.8 534.1 L 626.8 536.7 L 627.8 539.5 L 629.0 542.5 L 630.1 545.6 L 631.4 548.7 L 632.6 551.9 L 634.0 555.2 L 635.3 558.4 L 636.6 561.5 L 638.0 564.5 L 639.3 567.4 L 640.7 570.1 L 640.7 570.1 L 642.1 572.9 L 643.5 575.8 L 644.9 578.8 L 646.4 581.9 L 647.9 585.1 L 649.4 588.2 L 651.0 591.3 L 652.5 594.3 L 654.1 597.2 L 655.8 599.9 L 657.4 602.5 L 659.0 604.7 L 660.7 606.7 L 662.4 608.3 L 664.0 609.6 L 665.7 610.4 L 665.7 610.4 L 667.4 610.8 L 669.3 610.6 L 671.2 610.1 L 673.2 609.1 L 675.2 607.8 L 677.3 606.3 L 679.4 604.6 L 681.4 602.7 L 683.4 600.8 L 685.3 598.8 L 687.1 596.9 L 688.8 595.1 L 690.4 593.4 L 691.8 592.0 L 693.0 590.8 L 694.0 590.0" fill="none" stroke="#39ff88" stroke-width="6.0" stroke-opacity="0.9"/><path d="M 686.3 699.8 L 687.5 702.6 L 689.0 706.5 L 690.8 711.3 L 692.9 716.9 L 695.1 722.9 L 697.5 729.3 L 700.0 735.8 L 702.5 742.4 L 705.0 748.7 L 707.5 754.6 L 709.9 759.9 L 712.2 764.5 L 714.3 768.1 L 716.2 770.6 L 717.9 771.7 L 719.2 771.4 L 719.2 771.4 L 720.1 769.2 L 720.7 765.4 L 721.0 759.9 L 721.1 753.2 L 720.9 745.5 L 720.7 737.0 L 720.3 727.9 L 720.0 718.5 L 719.6 709.1 L 719.4 699.9 L 719.3 691.2 L 719.4 683.1 L 719.8 676.0 L 720.4 670.0 L 721.5 665.5 L 723.0 662.7 L 723.0 662.7 L 724.9 661.5 L 727.2 661.7 L 729.8 663.2 L 732.8 665.6 L 736.0 668.9 L 739.4 672.9 L 742.9 677.3 L 746.5 682.1 L 750.3 687.0 L 754.0 691.8 L 757.6 696.5 L 761.2 700.7 L 764.7 704.3 L 768.0 707.2 L 771.1 709.2 L 773.9 710.0 L 773.9 710.0 L 776.6 710.0 L 779.4 709.6 L 782.3 708.7 L 785.2 707.5 L 788.1 705.9 L 791.0 704.0 L 793.7 701.7 L 796.4 699.1 L 798.8 696.3 L 801.0 693.1 L 803.0 689.7 L 804.7 686.1 L 806.0 682.3 L 806.9 678.3 L 807.4 674.1 L 807.4 669.7 L 807.4 669.7 L 807.0 665.1 L 806.1 659.9 L 804.8 654.4 L 803.1 648.4 L 801.1 642.2 L 798.8 635.7 L 796.2 629.0 L 793.4 622.2 L 790.4 615.3 L 787.2 608.3 L 783.9 601.4 L 780.5 594.5 L 777.1 587.8 L 773.6 581.2 L 770.2 574.9 L 766.8 568.9 L 766.8 568.9 L 763.3 563.1 L 759.7 557.4 L 755.9 551.8 L 752.0 546.2 L 747.9 540.7 L 743.8 535.3 L 739.5 530.0 L 735.2 524.6 L 730.8 519.3 L 726.4 514.1 L 721.9 508.9 L 717.4 503.6 L 713.0 498.4 L 708.5 493.2 L 704.1 488.0 L 699.7 482.7 L 699.7 482.7 L 695.3 477.5 L 690.9 472.3 L 686.4 467.2 L 681.8 462.1 L 677.2 457.0 L 672.6 451.9 L 668.0 446.9 L 663.4 441.8 L 658.8 436.8 L 654.2 431.7 L 649.6 426.6 L 645.1 421.5 L 640.6 416.3 L 636.2 411.1 L 631.8 405.9 L 627.5 400.6 L 627.5 400.6 L 623.3 395.3 L 619.1 389.9 L 614.9 384.5 L 610.8 379.0 L 606.7 373.6 L 602.6 368.1 L 598.5 362.5 L 594.5 357.0 L 590.6 351.4 L 586.6 345.9 L 582.7 340.3 L 578.8 334.7 L 574.9 329.0 L 571.0 323.4 L 567.2 317.7 L 563.4 312.1 L 563.4 312.1 L 559.6 306.4 L 555.8 300.7 L 552.1 295.0 L 548.4 289.2 L 544.7 283.5 L 541.0 277.7 L 537.4 271.9 L 533.8 266.1 L 530.2 260.3 L 526.7 254.4 L 523.1 248.6 L 519.6 242.7 L 516.1 236.8 L 512.7 230.9 L 509.2 225.0 L 505.8 219.1 L 505.8 219.1 L 502.4 213.2 L 498.9 207.2 L 495.4 201.3 L 491.8 195.4 L 488.2 189.5 L 484.6 183.5 L 481.1 177.5 L 477.6 171.6 L 474.3 165.5 L 471.0 159.5 L 467.9 153.4 L 464.9 147.3 L 462.1 141.1 L 459.4 134.9 L 457.0 128.7 L 454.9 122.4 L 454.9 122.4 L 452.9 116.0 L 450.9 109.5 L 449.1 102.9 L 447.3 96.3 L 445.6 89.6 L 444.1 82.9 L 442.7 76.1 L 441.5 69.3 L 440.6 62.6 L 439.8 55.8 L 439.2 49.1 L 439.0 42.4 L 439.0 35.7 L 439.3 29.2 L 439.9 22.7 L 440.8 16.3 L 440.8 16.3 L 442.1 10.0 L 443.9 3.7 L 445.1 0.0" fill="none" stroke="#39ff88" stroke-width="6.0" stroke-opacity="0.9"/><path d="M 1380.0 1000.0 L 1380.5 999.1 L 1383.6 992.7 L 1386.7 986.3 L 1389.8 979.8 L 1392.9 973.4 L 1396.0 966.9 L 1399.1 960.4 L 1402.2 954.0 L 1405.2 947.5 L 1408.3 941.1 L 1411.5 934.6 L 1414.6 928.2 L 1414.6 928.2 L 1417.8 921.8 L 1421.0 915.4 L 1424.2 909.0 L 1427.4 902.6 L 1430.6 896.2 L 1433.9 889.8 L 1437.1 883.4 L 1440.3 877.0 L 1443.5 870.6 L 1446.7 864.2 L 1449.9 857.8 L 1453.0 851.4 L 1456.1 844.9 L 1459.1 838.5 L 1462.1 832.0 L 1465.1 825.4 L 1465.1 825.4 L 1468.0 818.9 L 1470.9 812.4 L 1473.9 805.9 L 1476.9 799.3 L 1479.8 792.8 L 1482.7 786.2 L 1485.6 779.6 L 1488.4 773.0 L 1491.2 766.4 L 1493.9 759.8 L 1496.5 753.1 L 1498.9 746.4 L 1501.3 739.7 L 1503.5 732.9 L 1505.6 726.2 L 1507.5 719.3 L 1507.5 719.3 L 1509.3 712.5 L 1511.1 705.5 L 1512.7 698.6 L 1514.2 691.6 L 1515.7 684.5 L 1517.0 677.5 L 1518.3 670.4 L 1519.4 663.2 L 1520.4 656.1 L 1521.3 649.0 L 1522.1 641.9 L 1522.7 634.7 L 1523.3 627.6 L 1523.6 620.5 L 1523.9 613.4 L 1523.9 606.3 L 1523.9 606.3 L 1523.7 599.1 L 1523.0 591.7 L 1522.0 584.1 L 1520.6 576.3 L 1519.1 568.5 L 1517.3 560.7 L 1515.5 552.9 L 1513.7 545.2 L 1512.0 537.6 L 1510.4 530.3 L 1509.0 523.2 L 1507.9 516.4 L 1507.1 510.0 L 1506.8 504.0 L 1507.0 498.5 L 1507.7 493.5 L 1507.7 493.5 L 1509.0 488.8 L 1510.8 484.2 L 1512.9 479.8 L 1515.4 475.6 L 1518.3 471.5 L 1521.4 467.8 L 1524.7 464.4 L 1528.3 461.3 L 1531.9 458.7 L 1535.7 456.6 L 1539.5 454.9 L 1543.3 453.8 L 1547.0 453.3 L 1550.7 453.4 L 1554.2 454.3 L 1557.6 455.8 L 1557.6 455.8 L 1560.9 458.5 L 1564.5 462.5 L 1568.2 467.5 L 1572.0 473.6 L 1575.9 480.4 L 1579.9 487.7 L 1583.8 495.6 L 1587.6 503.6 L 1591.4 511.8 L 1595.0 519.8 L 1598.4 527.5 L 1601.7 534.9 L 1604.6 541.5 L 1607.2 547.4 L 1609.5 552.3 L 1611.4 556.1" fill="none" stroke="#2b6bff" stroke-width="6.0" stroke-opacity="0.9"/><path d="M 1622.1 485.8 L 1623.2 482.6 L 1624.4 478.4 L 1625.9 473.5 L 1627.5 467.9 L 1629.2 461.9 L 1631.1 455.4 L 1633.1 448.7 L 1635.2 441.9 L 1637.3 435.0 L 1639.6 428.2 L 1641.8 421.6 L 1644.1 415.4 L 1646.4 409.7 L 1648.8 404.5 L 1651.1 400.1 L 1653.3 396.5 L 1653.3 396.5 L 1655.7 393.4 L 1658.2 390.6 L 1661.0 388.0 L 1663.8 385.7 L 1666.8 383.6 L 1669.8 381.9 L 1672.8 380.4 L 1675.8 379.3 L 1678.7 378.6 L 1681.5 378.2 L 1684.1 378.3 L 1686.5 378.7 L 1688.7 379.6 L 1690.7 380.9 L 1692.3 382.7 L 1693.5 385.0 L 1693.5 385.0 L 1694.3 388.3 L 1694.6 392.8 L 1694.4 398.4 L 1693.8 404.9 L 1693.0 412.1 L 1691.9 419.7 L 1690.8 427.6 L 1689.5 435.6 L 1688.3 443.5 L 1687.2 451.0 L 1686.3 458.0 L 1685.7 464.3 L 1685.4 469.7 L 1685.5 474.0 L 1686.1 476.9 L 1687.3 478.4 L 1687.3 478.4 L 1689.1 478.2 L 1691.4 476.5 L 1694.2 473.5 L 1697.3 469.4 L 1700.8 464.4 L 1704.6 458.7 L 1708.5 452.4 L 1712.6 445.9 L 1716.7 439.1 L 1720.9 432.5 L 1724.9 426.1 L 1728.8 420.1 L 1732.5 414.7 L 1736.0 410.2 L 1739.0 406.6 L 1741.7 404.3 L 1741.7 404.3 L 1744.1 402.9 L 1746.4 402.0 L 1748.6 401.6 L 1750.8 401.7 L 1752.8 402.1 L 1754.6 403.0 L 1756.4 404.1 L 1758.0 405.6 L 1759.5 407.4 L 1760.9 409.5 L 1762.1 411.7 L 1763.1 414.2 L 1764.0 416.8 L 1764.7 419.6 L 1765.3 422.5 L 1765.6 425.4 L 1765.6 425.4 L 1765.6 428.8 L 1765.1 433.1 L 1764.2 438.1 L 1762.9 443.7 L 1761.4 449.6 L 1759.7 455.8 L 1757.9 462.1 L 1756.0 468.4 L 1754.3 474.4 L 1752.6 480.2 L 1751.2 485.4 L 1750.1 490.0 L 1749.4 493.8 L 1749.2 496.7 L 1749.4 498.5 L 1750.4 499.1 L 1750.4 499.1 L 1752.0 498.1 L 1754.2 495.7 L 1757.1 492.0 L 1760.4 487.2 L 1764.1 481.6 L 1768.2 475.3 L 1772.4 468.5 L 1776.8 461.5 L 1781.2 454.5 L 1785.5 447.7 L 1789.7 441.2 L 1793.7 435.4 L 1797.4 430.3 L 1800.7 426.4 L 1803.4 423.6 L 1805.6 422.3 L 1805.6 422.3 L 1807.3 422.2 L 1808.8 423.1 L 1810.0 424.8 L 1811.0 427.3 L 1811.8 430.4 L 1812.3 434.0 L 1812.7 438.1 L 1812.9 442.7 L 1813.0 447.5 L 1812.8 452.5 L 1812.6 457.7 L 1812.2 462.9 L 1811.6 468.1 L 1811.0 473.1 L 1810.2 477.9 L 1809.4 482.4 L 1809.4 482.4 L 1808.2 487.0 L 1806.4 492.3 L 1804.1 498.0 L 1801.5 504.0 L 1798.6 510.3 L 1795.6 516.6 L 1792.4 523.0 L 1789.3 529.3 L 1786.3 535.2 L 1783.6 540.9 L 1781.1 546.0 L 1779.1 550.6 L 1777.6 554.4 L 1776.7 557.4 L 1776.6 559.4 L 1777.2 560.3 L 1777.2 560.3 L 1778.8 559.9 L 1781.4 558.0 L 1784.8 554.9 L 1788.8 550.7 L 1793.4 545.7 L 1798.5 540.1 L 1803.8 534.0 L 1809.4 527.7 L 1814.9 521.4 L 1820.4 515.3 L 1825.7 509.6 L 1830.7 504.5 L 1835.2 500.2 L 1839.1 496.9 L 1842.3 494.9 L 1844.7 494.2 L 1844.7 494.2 L 1846.4 494.9 L 1847.8 496.6 L 1848.8 499.1 L 1849.5 502.3 L 1849.9 506.3 L 1850.1 510.8 L 1849.9 515.8 L 1849.4 521.2 L 1848.8 526.8 L 1847.8 532.6 L 1846.7 538.5 L 1845.3 544.3 L 1843.8 550.0 L 1842.1 555.5 L 1840.2 560.7 L 1838.2 565.4 L 1838.2 565.4 L 1835.9 569.9 L 1833.3 574.4 L 1830.3 579.0 L 1827.1 583.6 L 1823.6 588.3 L 1819.9 592.9 L 1816.0 597.5 L 1812.0 602.1 L 1807.8 606.7 L 1803.5 611.3 L 1799.2 615.8 L 1794.8 620.3 L 1790.4 624.8 L 1786.1 629.2 L 1781.8 633.5 L 1777.6 637.7 L 1777.6 637.7 L 1773.4 641.9 L 1769.1 645.9 L 1764.7 649.8 L 1760.2 653.7 L 1755.7 657.5 L 1751.1 661.2 L 1746.4 664.9 L 1741.8 668.6 L 1737.1 672.3 L 1732.5 676.1 L 1727.9 679.8 L 1723.3 683.6 L 1718.9 687.5 L 1714.5 691.4 L 1710.2 695.5 L 1706.0 699.6 L 1706.0 699.6 L 1701.9 703.8 L 1697.8 708.1 L 1693.7 712.4 L 1689.7 716.7 L 1685.7 721.1 L 1681.7 725.5 L 1677.8 730.0 L 1674.0 734.5 L 1670.2 739.0 L 1666.4 743.6 L 1662.8 748.3 L 1659.2 753.0 L 1655.7 757.7 L 1652.4 762.5 L 1649.1 767.4 L 1645.9 772.3 L 1645.9 772.3 L 1642.8 777.3 L 1639.9 782.4 L 1637.0 787.5 L 1634.3 792.7 L 1631.7 798.0 L 1629.2 803.4 L 1626.7 808.7 L 1624.3 814.2 L 1621.9 819.6 L 1619.6 825.1 L 1617.3 830.6 L 1615.0 836.1 L 1612.7 841.5 L 1610.4 847.0 L 1608.1 852.5 L 1605.8 857.9 L 1605.8 857.9 L 1603.4 863.4 L 1601.2 868.8 L 1598.9 874.3 L 1596.7 879.8 L 1594.5 885.3 L 1592.3 890.8 L 1590.1 896.3 L 1588.0 901.8 L 1585.9 907.3 L 1583.7 912.8 L 1581.6 918.4 L 1579.4 923.9 L 1577.3 929.4 L 1575.1 934.9 L 1572.9 940.4 L 1570.6 945.9 L 1570.6 945.9 L 1568.4 951.3 L 1566.1 956.8 L 1563.8 962.3 L 1561.6 967.7 L 1559.3 973.2 L 1557.0 978.6 L 1554.7 984.1 L 1552.4 989.5 L 1550.0 995.0 L 1547.9 1000.0" fill="none" stroke="#2b6bff" stroke-width="6.0" stroke-opacity="0.9"/><path d="M 1912.4 1000.0 L 1912.6 999.8 L 1917.5 994.3 L 1922.4 988.7 L 1927.2 983.2 L 1932.1 977.6 L 1937.0 972.0 L 1941.8 966.5 L 1946.6 960.9 L 1946.6 960.9 L 1951.4 955.3 L 1956.2 949.6 L 1961.0 944.0 L 1965.8 938.4 L 1970.5 932.7 L 1975.3 927.1 L 1980.0 921.4 L 1984.8 915.7 L 1989.5 910.0 L 1994.2 904.4 L 1998.9 898.7 L 2000.0 897.4" fill="none" stroke="#2b6bff" stroke-width="6.0" stroke-opacity="0.9"/></g><g id="clips"><circle cx="244.4" cy="0.0" r="2" fill="none" stroke="#0b5" stroke-width="0.6"/><circle cx="667.5" cy="685.5" r="2" fill="none" stroke="#0b5" stroke-width="0.6"/><circle cx="622.7" cy="526.1" r="2" fill="none" stroke="#0b5" stroke-width="0.6"/><circle cx="694.0" cy="590.0" r="2" fill="none" stroke="#0b5" stroke-width="0.6"/><circle cx="686.3" cy="699.8" r="2" fill="none" stroke="#0b5" stroke-width="0.6"/><circle cx="445.1" cy="0.0" r="2" fill="none" stroke="#0b5" stroke-width="0.6"/><circle cx="1380.0" cy="1000.0" r="2" fill="none" stroke="#0b5" stroke-width="0.6"/><circle cx="1611.4" cy="556.1" r="2" fill="none" stroke="#0b5" stroke-width="0.6"/><circle cx="1622.1" cy="485.8" r="2" fill="none" stroke="#0b5" stroke-width="0.6"/><circle cx="1547.9" cy="1000.0" r="2" fill="none" stroke="#0b5" stroke-width="0.6"/><circle cx="1912.4" cy="1000.0" r="2" fill="none" stroke="#0b5" stroke-width="0.6"/><circle cx="2000.0" cy="897.4" r="2" fill="none" stroke="#0b5" stroke-width="0.6"/></g><g id="power"><circle cx="2000.0" cy="897.5" r="5" fill="none" stroke="#e33" stroke-width="1"/><circle cx="1380.1" cy="1000.0" r="5" fill="none" stroke="#e33" stroke-width="1"/><circle cx="1547.9" cy="1000.0" r="5" fill="none" stroke="#e33" stroke-width="1"/><circle cx="1912.5" cy="1000.0" r="5" fill="none" stroke="#e33" stroke-width="1"/><circle cx="244.4" cy="0.0" r="5" fill="none" stroke="#e33" stroke-width="1"/><circle cx="445.1" cy="0.0" r="5" fill="none" stroke="#e33" stroke-width="1"/></g></svg>