<svg xmlns="http://www.w3.org/2000/svg" width="1500mm" height="1000mm" viewBox="0 0 1500 1000"><g id="outline"><rect x="0" y="0" width="1500" height="1000" fill="none" stroke="#000" stroke-width="1"/></g><g id="channels"><path d="M 1067.1 0.0 L 1065.7 2.2 L 1061.7 7.9 L 1057.7 13.6 L 1053.6 19.2 L 1053.6 19.2 L 1049.4 24.9 L 1045.1 30.7 L 1040.9 36.7 L 1036.6 42.8 L 1032.2 48.9 L 1027.8 54.9 L 1023.3 60.9 L 1018.7 66.7 L 1014.0 72.3 L 1009.3 77.6 L 1004.4 82.6 L 999.3 87.2 L 994.2 91.3 L 988.9 95.0 L 983.4 98.1 L 977.8 100.6 L 977.8 100.6 L 972.0 102.4 L 965.8 103.5 L 959.4 104.0 L 952.8 104.0 L 946.0 103.6 L 939.1 102.7 L 932.1 101.6 L 925.1 100.1 L 918.0 98.5 L 910.9 96.8 L 904.0 95.0 L 897.1 93.3 L 890.3 91.7 L 883.7 90.2 L 877.4 88.9 L 871.2 88.0 L 871.2 88.0 L 865.1 87.0 L 858.6 85.8 L 851.8 84.3 L 844.9 82.6 L 838.0 80.9 L 831.1 79.1 L 824.4 77.4 L 817.9 75.8 L 811.8 74.4 L 806.1 73.2 L 800.9 72.4 L 796.4 72.0 L 792.6 72.1 L 789.7 72.7 L 787.7 74.0 L 786.7 75.9 L 786.7 75.9 L 787.0 78.7 L 788.6 82.5 L 791.3 87.2 L 795.1 92.5 L 799.6 98.4 L 804.8 104.7 L 810.6 111.3 L 816.6 118.1 L 822.8 124.9 L 829.0 131.6 L 835.1 138.0 L 840.8 144.1 L 846.0 149.6 L 850.6 154.5 L 854.3 158.6 L 857.1 161.8" fill="none" stroke="#00e5ff" stroke-width="6.0" stroke-opacity="0.9"/><path d="M 784.0 161.4 L 781.2 163.6 L 777.6 166.1 L 773.4 169.0 L 768.7 172.2 L 763.5 175.7 L 758.0 179.5 L 752.3 183.5 L 746.3 187.7 L 740.4 192.0 L 734.5 196.4 L 728.7 201.0 L 723.1 205.5 L 717.8 210.1 L 713.0 214.6 L 708.6 219.1 L 704.9 223.5 L 704.9 223.5 L 701.5 228.0 L 698.1 233.0 L 694.7 238.2 L 691.5 243.7 L 688.4 249.4 L 685.5 255.1 L 682.8 260.9 L 680.3 266.5 L 678.2 272.0 L 676.4 277.3 L 674.9 282.3 L 673.9 286.8 L 673.3 290.9 L 673.2 294.5 L 673.7 297.4 L 674.7 299.6 L 674.7 299.6 L 676.5 300.9 L 679.2 301.3 L 682.7 300.9 L 686.8 299.9 L 691.5 298.3 L 696.7 296.4 L 702.2 294.1 L 707.8 291.7 L 713.6 289.2 L 719.3 286.9 L 724.9 284.7 L 730.3 282.9 L 735.2 281.5 L 739.6 280.7 L 743.5 280.7 L 746.6 281.4 L 746.6 281.4 L 749.0 282.9 L 751.0 285.0 L 752.5 287.6 L 753.7 290.6 L 754.5 293.9 L 755.1 297.6 L 755.6 301.6 L 755.9 305.7 L 756.1 310.0 L 756.4 314.3 L 756.6 318.7 L 757.0 322.9 L 757.6 327.1 L 758.4 331.1 L 759.5 334.8 L 760.9 338.3 L 760.9 338.3 L 762.7 341.6 L 764.6 344.9 L 766.7 348.3 L 768.9 351.8 L 771.3 355.2 L 773.8 358.6 L 776.3 361.9 L 778.9 365.2 L 781.6 368.3 L 784.2 371.4 L 786.8 374.3 L 789.4 377.0 L 791.8 379.6 L 794.2 382.0 L 796.5 384.1 L 798.6 386.0 L 798.6 386.0 L 800.6 387.6 L 802.5 389.0 L 804.2 390.1 L 805.8 391.1 L 807.3 391.9 L 808.9 392.5 L 810.3 393.0 L 811.8 393.3 L 813.3 393.6 L 814.9 393.8 L 816.5 393.9 L 818.3 393.9 L 820.1 394.0 L 822.1 394.0 L 824.2 394.0 L 826.6 394.1 L 826.6 394.1 L 829.1 394.1 L 831.9 393.9 L 834.8 393.6 L 837.9 393.1 L 841.0 392.6 L 844.3 392.0 L 847.7 391.4 L 851.1 390.8 L 854.5 390.1 L 857.9 389.6 L 861.3 389.1 L 864.6 388.7 L 867.9 388.5 L 871.0 388.5 L 874.0 388.6 L 876.9 388.9 L 876.9 388.9 L 879.7 389.7 L 882.4 391.1 L 885.1 392.9 L 887.8 395.0 L 890.5 397.4 L 893.1 399.9 L 895.7 402.4 L 898.2 404.9 L 900.6 407.2 L 903.0 409.2 L 905.3 410.8 L 907.5 411.9 L 909.7 412.4 L 911.8 412.2 L 913.7 411.2 L 915.6 409.3 L 915.6 409.3 L 917.3 406.4 L 918.7 402.6 L 919.8 397.9 L 920.8 392.6 L 921.6 386.7 L 922.3 380.3 L 923.0 373.5 L 923.7 366.5 L 924.5 359.2 L 925.3 351.8 L 926.3 344.5 L 927.5 337.2 L 928.9 330.2 L 930.7 323.6 L 932.8 317.3 L 935.2 311.6 L 935.2 311.6 L 938.1 306.2 L 941.2 301.0 L 944.6 295.8 L 948.2 290.8 L 952.1 285.9 L 956.2 281.0 L 960.4 276.3 L 964.8 271.6 L 969.2 266.9 L 973.8 262.4 L 978.4 257.8 L 983.0 253.3 L 987.6 248.8 L 992.2 244.4 L 996.8 239.9 L 1001.3 235.4 L 1001.3 235.4 L 1005.7 231.0 L 1010.3 226.6 L 1014.8 222.2 L 1019.5 217.9 L 1024.1 213.6 L 1028.8 209.4 L 1033.6 205.2 L 1038.3 201.0 L 1043.1 196.9 L 1047.9 192.8 L 1052.8 188.7 L 1057.6 184.6 L 1062.4 180.5 L 1067.3 176.4 L 1072.1 172.3 L 1076.9 168.2 L 1076.9 168.2 L 1081.8 164.2 L 1086.7 160.2 L 1091.6 156.2 L 1096.6 152.3 L 1101.6 148.4 L 1106.7 144.6 L 1111.7 140.7 L 1116.7 136.8 L 1121.7 133.0 L 1126.7 129.1 L 1131.7 125.1 L 1136.6 121.1 L 1141.4 117.1 L 1146.2 113.0 L 1150.9 108.8 L 1155.6 104.5 L 1155.6 104.5 L 1160.1 100.2 L 1164.7 95.9 L 1169.3 91.5 L 1173.8 87.0 L 1178.3 82.6 L 1182.7 78.0 L 1187.2 73.5 L 1191.5 68.9 L 1195.8 64.2 L 1200.1 59.5 L 1204.2 54.8 L 1208.3 50.0 L 1212.3 45.1 L 1216.3 40.2 L 1220.1 35.2 L 1223.8 30.2 L 1223.8 30.2 L 1227.4 25.0 L 1230.9 19.8 L 1234.4 14.6 L 1237.8 9.2 L 1241.1 3.8 L 1243.4 0.0" fill="none" stroke="#00e5ff" stroke-width="6.0" stroke-opacity="0.9"/></g><g id="clips"><circle cx="1067.1" cy="0.0" r="2" fill="none" stroke="#0b5" stroke-width="0.6"/><circle cx="857.1" cy="161.8" r="2" fill="none" stroke="#0b5" stroke-width="0.6"/><circle cx="784.0" cy="161.4" r="2" fill="none" stroke="#0b5" stroke-width="0.6"/><circle cx="1243.4" cy="0.0" r="2" fill="none" stroke="#0b5" stroke-width="0.6"/></g><g id="power"><circle cx="1067.1" cy="0.0" r="5" fill="none" stroke="#e33" stroke-width="1"/><circle cx="1243.4" cy="0.0" r="5" fill="none" stroke="#e33" stroke-width="1"/></g><g id="bridges"></g></svg>