<svg xmlns="http://www.w3.org/2000/svg" width="1000mm" height="1000mm" viewBox="0 0 1000 1000"><g id="outline"><rect x="0" y="0" width="1000" height="1000" fill="none" stroke="#000" stroke-width="1"/></g><g id="channels"><path d="M 1000.0 731.8 L 996.4 730.4 L 990.8 728.1 L 985.1 726.0 L 979.4 723.8 L 973.8 721.7 L 968.1 719.6 L 962.4 717.5 L 956.7 715.4 L 951.0 713.3 L 945.4 711.2 L 939.7 709.0 L 939.7 709.0 L 934.0 706.9 L 928.4 704.9 L 922.7 702.9 L 916.9 700.8 L 911.2 698.9 L 905.5 696.9 L 899.8 694.9 L 894.1 693.0 L 888.3 691.1 L 882.6 689.0 L 876.9 687.0 L 871.3 685.0 L 865.6 682.9 L 859.9 680.8 L 854.3 678.6 L 848.7 676.3 L 848.7 676.3 L 843.1 674.0 L 837.6 671.6 L 832.0 669.2 L 826.5 666.9 L 820.9 664.4 L 815.4 661.9 L 809.9 659.5 L 804.5 656.9 L 798.9 654.4 L 793.5 651.7 L 788.1 649.1 L 782.7 646.4 L 777.3 643.6 L 771.9 640.9 L 766.6 638.1 L 761.3 635.2 L 761.3 635.2 L 756.0 632.3 L 750.7 629.4 L 745.5 626.4 L 740.2 623.3 L 735.0 620.2 L 729.9 617.1 L 724.8 614.0 L 719.6 610.8 L 714.5 607.6 L 709.4 604.3 L 704.2 601.0 L 699.2 597.7 L 694.2 594.4 L 689.2 590.9 L 684.2 587.6 L 679.2 584.1 L 679.2 584.1 L 674.2 580.7 L 669.0 577.4 L 663.9 574.0 L 658.7 570.7 L 653.4 567.3 L 648.2 563.9 L 643.0 560.5 L 637.9 557.0 L 632.9 553.5 L 628.0 549.9 L 623.2 546.2 L 618.5 542.3 L 614.1 538.5 L 609.9 534.4 L 605.9 530.2 L 602.2 525.8 L 602.2 525.8 L 598.6 521.3 L 595.0 516.6 L 591.5 511.7 L 588.1 506.8 L 584.7 501.7 L 581.6 496.5 L 578.7 491.1 L 575.9 485.8 L 573.3 480.4 L 571.0 474.8 L 569.0 469.4 L 567.2 463.8 L 565.9 458.4 L 564.9 452.9 L 564.3 447.5 L 564.2 442.0 L 564.2 442.0 L 564.7 436.5 L 566.1 430.5 L 568.4 424.2 L 571.2 417.6 L 574.5 411.0 L 578.3 404.3 L 582.2 397.6 L 586.2 391.1 L 590.1 384.8 L 593.8 378.8 L 597.2 373.2 L 600.0 368.1 L 602.2 363.5 L 603.7 359.7 L 604.2 356.5 L 603.7 354.3 L 603.7 354.3 L 602.0 352.9 L 599.4 352.5 L 595.7 352.9 L 591.3 353.9 L 586.3 355.7 L 580.8 357.9 L 575.0 360.4 L 568.9 363.3 L 562.7 366.3 L 556.7 369.4 L 550.8 372.5 L 545.2 375.3 L 540.1 378.0 L 535.6 380.2 L 531.9 382.1 L 529.1 383.3" fill="none" stroke="#a05bff" stroke-width="6.0" stroke-opacity="0.9"/><path d="M 526.7 327.2 L 524.7 324.6 L 522.3 321.3 L 519.4 317.3 L 516.3 312.8 L 512.8 307.9 L 509.1 302.7 L 505.1 297.4 L 501.1 291.8 L 497.1 286.4 L 493.0 281.2 L 489.1 276.1 L 485.3 271.5 L 481.7 267.3 L 478.4 263.8 L 475.4 261.0 L 472.8 259.0 L 472.8 259.0 L 470.6 257.8 L 468.8 257.2 L 467.2 257.2 L 465.8 257.7 L 464.6 258.5 L 463.6 259.8 L 462.6 261.3 L 461.7 263.1 L 460.8 265.1 L 459.9 267.2 L 458.9 269.3 L 457.7 271.5 L 456.4 273.5 L 454.8 275.5 L 452.9 277.3 L 450.7 278.8 L 450.7 278.8 L 448.3 280.2 L 445.5 281.7 L 442.6 283.1 L 439.5 284.6 L 436.4 286.1 L 433.0 287.6 L 429.6 289.2 L 426.0 290.7 L 422.5 292.2 L 418.8 293.8 L 415.1 295.5 L 411.5 297.1 L 407.8 298.8 L 404.2 300.3 L 400.6 302.0 L 397.1 303.7 L 397.1 303.7 L 393.5 305.4 L 389.6 306.9 L 385.4 308.6 L 381.1 310.2 L 376.7 311.8 L 372.3 313.4 L 367.8 315.0 L 363.5 316.7 L 359.4 318.4 L 355.5 320.1 L 351.9 321.9 L 348.6 323.8 L 345.9 325.8 L 343.6 327.9 L 342.0 330.0 L 340.9 332.3 L 340.9 332.3 L 340.6 334.8 L 341.2 337.3 L 342.7 339.9 L 344.7 342.8 L 347.1 345.7 L 350.0 348.7 L 353.3 351.6 L 356.6 354.7 L 360.0 357.8 L 363.2 360.9 L 366.3 364.0 L 369.1 367.0 L 371.3 370.0 L 373.1 372.9 L 374.2 375.7 L 374.4 378.4 L 374.4 378.4 L 373.7 381.0 L 372.1 383.6 L 369.8 386.1 L 366.9 388.7 L 363.4 391.2 L 359.6 393.7 L 355.7 396.2 L 351.7 398.6 L 347.8 400.9 L 344.2 403.3 L 340.8 405.6 L 338.1 407.9 L 335.9 410.2 L 334.6 412.4 L 334.2 414.6 L 334.9 416.7 L 334.9 416.7 L 336.8 418.7 L 339.5 420.6 L 343.0 422.2 L 347.2 423.8 L 352.2 425.3 L 357.5 426.8 L 363.2 428.3 L 369.3 429.8 L 375.6 431.3 L 382.0 432.9 L 388.3 434.6 L 394.5 436.5 L 400.6 438.5 L 406.2 440.7 L 411.5 443.3 L 416.1 446.0 L 416.1 446.0 L 420.4 449.0 L 424.7 452.2 L 428.8 455.7 L 432.8 459.3 L 436.6 463.1 L 440.5 466.9 L 444.2 471.0 L 447.9 475.1 L 451.5 479.3 L 455.0 483.6 L 458.6 488.0 L 462.1 492.3 L 465.5 496.6 L 468.9 500.9 L 472.5 505.2 L 475.9 509.4 L 475.9 509.4 L 479.3 513.7 L 482.7 518.0 L 486.0 522.3 L 489.3 526.7 L 492.4 531.1 L 495.7 535.5 L 498.8 540.0 L 501.9 544.5 L 505.0 548.9 L 508.2 553.4 L 511.3 557.9 L 514.4 562.4 L 517.6 566.9 L 520.8 571.3 L 524.0 575.7 L 527.3 580.1 L 527.3 580.1 L 530.6 584.5 L 533.9 588.8 L 537.1 593.3 L 540.4 597.7 L 543.6 602.1 L 546.8 606.5 L 550.2 610.9 L 553.4 615.3 L 556.8 619.6 L 560.1 623.9 L 563.5 628.2 L 567.1 632.4 L 570.6 636.5 L 574.3 640.6 L 578.0 644.5 L 581.8 648.3 L 581.8 648.3 L 585.7 652.1 L 589.7 655.8 L 593.7 659.5 L 597.8 663.0 L 602.0 666.5 L 606.2 670.0 L 610.4 673.5 L 614.8 676.8 L 619.2 680.1 L 623.6 683.3 L 628.0 686.5 L 632.6 689.6 L 637.1 692.6 L 641.7 695.6 L 646.3 698.5 L 650.9 701.4 L 650.9 701.4 L 655.6 704.2 L 660.2 706.9 L 665.0 709.5 L 669.8 712.0 L 674.7 714.5 L 679.6 716.9 L 684.5 719.3 L 689.6 721.6 L 694.5 723.8 L 699.5 726.1 L 704.5 728.2 L 709.6 730.4 L 714.6 732.5 L 719.6 734.6 L 724.8 736.8 L 729.8 738.9 L 729.8 738.9 L 734.8 741.0 L 739.9 743.1 L 744.9 745.0 L 750.0 747.0 L 755.1 749.0 L 760.2 750.9 L 765.4 752.8 L 770.5 754.6 L 775.6 756.4 L 780.8 758.3 L 786.0 760.1 L 791.1 761.9 L 796.3 763.7 L 801.5 765.5 L 806.6 767.3 L 811.8 769.1 L 811.8 769.1 L 817.1 770.9 L 822.6 772.5 L 828.3 774.0 L 834.2 775.6 L 840.2 777.0 L 846.2 778.5 L 852.1 780.0 L 858.0 781.5 L 863.7 783.0 L 869.2 784.6 L 874.4 786.3 L 879.4 788.0 L 883.9 790.0 L 888.0 792.0 L 891.7 794.2 L 894.8 796.6 L 894.8 796.6 L 897.4 799.1 L 899.8 802.0 L 902.0 805.1 L 903.8 808.4 L 905.4 811.8 L 906.6 815.3 L 907.6 818.8 L 908.3 822.4 L 908.7 826.1 L 908.7 829.7 L 908.3 833.1 L 907.6 836.4 L 906.6 839.6 L 905.1 842.6 L 903.2 845.3 L 901.0 847.9 L 901.0 847.9 L 898.2 850.1 L 894.8 852.1 L 890.8 853.9 L 886.3 855.5 L 881.3 857.0 L 876.0 858.4 L 870.3 859.7 L 864.5 860.9 L 858.4 862.1 L 852.3 863.3 L 846.0 864.4 L 839.9 865.6 L 833.8 866.8 L 827.9 868.1 L 822.2 869.5 L 816.8 871.1 L 816.8 871.1 L 811.5 872.7 L 806.3 874.4 L 801.1 876.0 L 795.9 877.7 L 790.8 879.5 L 785.6 881.2 L 780.5 883.0 L 775.3 884.8 L 770.2 886.6 L 765.0 888.4 L 759.8 890.1 L 754.7 892.0 L 749.5 893.7 L 744.3 895.5 L 739.2 897.2 L 734.0 899.0 L 734.0 899.0 L 728.8 900.8 L 723.6 902.5 L 718.4 904.3 L 713.3 906.1 L 708.1 907.9 L 702.9 909.7 L 697.8 911.5 L 692.6 913.3 L 687.4 915.1 L 682.2 916.8 L 677.1 918.5 L 671.9 920.2 L 666.7 921.8 L 661.5 923.4 L 656.2 924.9 L 651.0 926.4 L 651.0 926.4 L 645.7 927.8 L 640.4 929.1 L 635.1 930.4 L 629.8 931.7 L 624.5 932.9 L 619.2 934.0 L 613.8 935.2 L 608.4 936.3 L 603.0 937.4 L 597.8 938.4 L 592.4 939.4 L 586.9 940.5 L 581.6 941.4 L 576.2 942.4 L 570.8 943.4 L 565.5 944.3 L 565.5 944.3 L 560.1 945.2 L 554.7 946.1 L 549.3 946.9 L 543.9 947.7 L 538.5 948.5 L 533.1 949.2 L 527.6 949.9 L 522.3 950.6 L 516.8 951.3 L 511.4 951.9 L 506.0 952.6 L 500.5 953.3 L 495.2 954.0 L 489.7 954.7 L 484.3 955.5 L 478.9 956.3 L 478.9 956.3 L 473.5 957.1 L 468.1 957.9 L 462.7 958.7 L 457.3 959.6 L 451.9 960.3 L 446.5 961.1 L 441.1 962.0 L 435.7 962.8 L 430.3 963.7 L 424.9 964.6 L 419.5 965.4 L 414.1 966.2 L 408.7 967.1 L 403.3 967.9 L 397.9 968.8 L 392.6 969.7 L 392.6 969.7 L 387.1 970.5 L 381.7 971.3 L 376.4 972.3 L 371.0 973.2 L 365.5 974.1 L 360.2 975.0 L 354.8 975.9 L 349.4 976.9 L 344.1 977.8 L 338.6 978.6 L 333.2 979.5 L 327.9 980.4 L 322.4 981.2 L 317.0 982.0 L 311.6 982.7 L 306.2 983.5 L 306.2 983.5 L 300.8 984.1 L 295.4 984.7 L 289.9 985.2 L 284.5 985.8 L 279.0 986.2 L 273.6 986.7 L 268.1 987.1 L 262.8 987.5 L 257.3 988.0 L 251.8 988.4 L 246.4 988.9 L 240.9 989.4 L 235.5 989.8 L 230.0 990.4 L 224.6 991.0 L 219.2 991.6 L 219.2 991.6 L 213.8 992.3 L 208.4 993.0 L 202.9 993.6 L 197.5 994.3 L 192.1 995.0 L 186.6 995.7 L 181.3 996.5 L 175.8 997.2 L 170.4 998.1 L 165.1 998.9 L 159.6 999.8 L 158.4 1000.0" fill="none" stroke="#a05bff" stroke-width="6.0" stroke-opacity="0.9"/></g><g id="clips"><circle cx="1000.0" cy="731.8" r="2" fill="none" stroke="#0b5" stroke-width="0.6"/><circle cx="529.1" cy="383.3" r="2" fill="none" stroke="#0b5" stroke-width="0.6"/><circle cx="526.7" cy="327.2" r="2" fill="none" stroke="#0b5" stroke-width="0.6"/><circle cx="158.4" cy="1000.0" r="2" fill="none" stroke="#0b5" stroke-width="0.6"/></g><g id="power"><circle cx="158.7" cy="1000.0" r="5" fill="none" stroke="#e33" stroke-width="1"/><circle cx="1000.0" cy="731.8" r="5" fill="none" stroke="#e33" stroke-width="1"/></g><g id="bridges"></g></svg>