<svg xmlns="http://www.w3.org/2000/svg" width="2000mm" height="1000mm" viewBox="0 0 2000 1000"><g id="outline"><rect x="0" y="0" width="2000" height="1000" fill="none" stroke="#000" stroke-width="1"/></g><g id="channels"><path d="M 1475.2 131.9 L 1477.4 133.5 L 1480.5 135.4 L 1484.2 137.5 L 1488.4 139.8 L 1493.0 142.3 L 1497.9 145.0 L 1502.9 147.9 L 1508.0 150.9 L 1512.9 154.2 L 1517.6 157.6 L 1522.0 161.2 L 1525.8 165.0 L 1529.1 169.0 L 1531.5 173.1 L 1533.2 177.4 L 1533.8 181.8 L 1533.8 181.8 L 1533.5 186.5 L 1532.5 191.6 L 1530.8 197.0 L 1528.4 202.7 L 1525.6 208.6 L 1522.3 214.7 L 1518.6 221.0 L 1514.5 227.3 L 1510.2 233.7 L 1505.7 240.2 L 1501.0 246.5 L 1496.3 252.9 L 1491.6 259.1 L 1486.9 265.1 L 1482.4 270.9 L 1478.0 276.5 L 1478.0 276.5 L 1473.7 281.8 L 1469.1 287.0 L 1464.3 292.0 L 1459.3 296.9 L 1454.1 301.7 L 1448.9 306.4 L 1443.6 311.1 L 1438.2 315.8 L 1432.9 320.5 L 1427.6 325.2 L 1422.4 330.0 L 1417.3 334.8 L 1412.4 339.8 L 1407.7 344.9 L 1403.3 350.2 L 1399.1 355.7 L 1399.1 355.7 L 1395.2 361.5 L 1391.7 367.7 L 1388.5 374.1 L 1385.6 380.7 L 1382.8 387.5 L 1380.2 394.4 L 1377.6 401.3 L 1375.1 408.2 L 1372.5 415.1 L 1369.8 421.8 L 1367.0 428.3 L 1364.0 434.5 L 1360.7 440.5 L 1357.1 446.0 L 1353.1 451.2 L 1348.6 455.8 L 1348.6 455.8 L 1343.8 460.1 L 1338.7 464.0 L 1333.3 467.7 L 1327.6 471.1 L 1321.8 474.2 L 1315.7 477.1 L 1309.4 479.8 L 1303.0 482.3 L 1296.5 484.5 L 1289.9 486.6 L 1283.3 488.5 L 1276.5 490.3 L 1269.8 491.9 L 1263.1 493.3 L 1256.4 494.6 L 1249.8 495.8 L 1249.8 495.8 L 1243.1 496.8 L 1236.3 497.2 L 1229.5 497.4 L 1222.5 497.1 L 1215.5 496.7 L 1208.4 496.0 L 1201.3 495.3 L 1194.1 494.4 L 1187.0 493.6 L 1179.8 492.8 L 1172.7 492.1 L 1165.6 491.7 L 1158.5 491.4 L 1151.5 491.5 L 1144.6 492.0 L 1137.8 492.9 L 1137.8 492.9 L 1131.1 494.1 L 1124.3 495.6 L 1117.6 497.3 L 1110.9 499.2 L 1104.3 501.3 L 1097.7 503.5 L 1091.1 506.0 L 1084.5 508.5 L 1078.0 511.2 L 1071.5 513.9 L 1065.0 516.8 L 1058.6 519.7 L 1052.2 522.7 L 1045.8 525.7 L 1039.5 528.7 L 1033.2 531.8 L 1033.2 531.8 L 1027.0 534.8 L 1020.8 538.1 L 1014.6 541.4 L 1008.5 544.9 L 1002.5 548.4 L 996.5 552.0 L 990.5 555.7 L 984.5 559.4 L 978.6 563.2 L 972.7 567.0 L 966.7 570.8 L 960.8 574.6 L 954.9 578.4 L 948.9 582.2 L 943.0 585.9 L 937.0 589.6 L 937.0 589.6 L 931.0 593.2 L 925.0 596.9 L 919.0 600.5 L 913.0 604.2 L 907.1 607.9 L 901.1 611.6 L 895.1 615.3 L 889.2 619.0 L 883.2 622.7 L 877.2 626.3 L 871.3 630.0 L 865.3 633.7 L 859.3 637.3 L 853.3 641.0 L 847.3 644.6 L 841.3 648.2 L 841.3 648.2 L 835.3 651.9 L 829.3 655.5 L 823.3 659.2 L 817.3 662.9 L 811.3 666.5 L 805.3 670.2 L 799.3 673.9 L 793.3 677.5 L 787.3 681.2 L 781.2 684.7 L 775.2 688.3 L 769.1 691.7 L 763.0 695.1 L 756.8 698.5 L 750.6 701.7 L 744.4 704.9 L 744.4 704.9 L 738.1 708.0 L 731.8 711.1 L 725.5 714.2 L 719.2 717.2 L 712.8 720.2 L 706.4 723.2 L 700.0 726.1 L 693.6 728.9 L 687.1 731.7 L 680.6 734.3 L 674.1 736.9 L 667.6 739.4 L 661.0 741.8 L 654.4 744.0 L 647.7 746.1 L 641.1 748.1 L 641.1 748.1 L 634.4 749.9 L 627.6 751.5 L 620.7 752.9 L 613.9 754.2 L 606.9 755.3 L 600.0 756.3 L 593.0 757.3 L 586.0 758.1 L 579.0 759.0 L 572.0 759.8 L 565.0 760.7 L 558.0 761.6 L 551.1 762.6 L 544.1 763.7 L 537.3 764.9 L 530.4 766.3 L 530.4 766.3 L 523.5 767.7 L 516.6 769.0 L 509.6 770.3 L 502.6 771.6 L 495.6 772.9 L 488.6 774.2 L 481.6 775.5 L 474.7 776.9 L 467.8 778.5 L 461.0 780.2 L 454.2 782.0 L 447.6 784.1 L 441.1 786.3 L 434.7 788.8 L 428.5 791.6 L 422.4 794.6 L 422.4 794.6 L 416.5 798.0 L 410.7 801.6 L 405.1 805.5 L 399.5 809.6 L 394.1 813.9 L 388.7 818.4 L 383.5 823.1 L 378.3 827.9 L 373.2 832.8 L 368.2 837.9 L 363.3 843.0 L 358.4 848.1 L 353.5 853.3 L 348.7 858.5 L 344.0 863.7 L 339.2 868.8 L 339.2 868.8 L 334.6 874.0 L 330.0 879.3 L 325.5 884.6 L 321.1 890.1 L 316.8 895.6 L 312.6 901.2 L 308.3 906.8 L 304.2 912.5 L 300.1 918.2 L 296.0 923.9 L 291.9 929.7 L 287.8 935.4 L 283.8 941.2 L 279.7 946.9 L 275.6 952.7 L 271.5 958.3 L 271.5 958.3 L 267.4 964.0 L 263.3 969.7 L 259.3 975.5 L 255.2 981.2 L 251.2 986.9 L 247.2 992.7 L 243.2 998.4 L 242.1 1000.0" fill="none" stroke="#2b6bff" stroke-width="6.0" stroke-opacity="0.9"/><path d="M 605.6 1000.0 L 605.6 1000.0 L 612.3 998.1 L 619.0 996.2 L 619.0 996.2 L 625.7 994.6 L 632.5 993.2 L 639.4 991.9 L 646.3 990.8 L 653.2 989.8 L 660.2 989.0 L 667.2 988.2 L 674.2 987.5 L 681.2 986.8 L 688.2 986.1 L 695.3 985.4 L 702.3 984.6 L 709.3 983.8 L 716.3 982.8 L 723.2 981.8 L 730.1 980.6 L 730.1 980.6 L 737.0 979.3 L 743.9 977.9 L 750.7 976.4 L 757.6 974.9 L 764.4 973.3 L 771.2 971.7 L 778.0 970.0 L 784.9 968.4 L 791.7 966.7 L 798.5 965.0 L 805.3 963.3 L 812.1 961.6 L 818.9 960.0 L 825.8 958.4 L 832.6 956.8 L 839.5 955.3 L 839.5 955.3 L 846.3 953.8 L 853.2 952.4 L 860.0 950.9 L 866.9 949.5 L 873.8 948.1 L 880.7 946.7 L 887.5 945.3 L 894.4 943.9 L 901.3 942.5 L 908.2 941.2 L 915.1 939.8 L 921.9 938.5 L 928.8 937.1 L 935.7 935.8 L 942.6 934.4 L 949.5 933.1 L 949.5 933.1 L 956.4 931.7 L 963.3 930.4 L 970.2 929.2 L 977.1 927.9 L 984.0 926.7 L 990.9 925.5 L 997.8 924.3 L 1004.7 923.1 L 1011.7 921.8 L 1018.6 920.5 L 1025.5 919.3 L 1032.3 917.9 L 1039.2 916.5 L 1046.1 915.1 L 1052.9 913.6 L 1059.8 912.0 L 1059.8 912.0 L 1066.6 910.4 L 1073.4 908.8 L 1080.2 907.1 L 1087.0 905.4 L 1093.8 903.7 L 1100.6 901.9 L 1107.4 900.1 L 1114.2 898.3 L 1121.0 896.4 L 1127.7 894.5 L 1134.4 892.5 L 1141.2 890.4 L 1147.8 888.3 L 1154.5 886.2 L 1161.1 884.0 L 1167.8 881.7 L 1167.8 881.7 L 1174.4 879.4 L 1181.0 877.0 L 1187.7 874.7 L 1194.3 872.3 L 1201.0 869.9 L 1207.6 867.5 L 1214.3 865.0 L 1220.8 862.4 L 1227.4 859.7 L 1233.9 857.0 L 1240.3 854.1 L 1246.6 851.1 L 1252.8 848.0 L 1259.0 844.8 L 1265.0 841.4 L 1270.9 837.8 L 1270.9 837.8 L 1276.7 834.0 L 1282.5 830.1 L 1288.1 826.1 L 1293.7 821.9 L 1299.2 817.7 L 1304.7 813.2 L 1310.0 808.7 L 1315.3 804.1 L 1320.5 799.4 L 1325.7 794.6 L 1330.8 789.7 L 1335.7 784.8 L 1340.7 779.8 L 1345.5 774.7 L 1350.3 769.6 L 1355.0 764.5 L 1355.0 764.5 L 1359.6 759.3 L 1364.1 754.0 L 1368.4 748.5 L 1372.7 743.0 L 1377.0 737.4 L 1381.1 731.7 L 1385.2 726.0 L 1389.2 720.2 L 1393.1 714.4 L 1397.0 708.5 L 1400.9 702.6 L 1404.7 696.7 L 1408.5 690.7 L 1412.3 684.8 L 1416.1 678.9 L 1419.9 673.0 L 1419.9 673.0 L 1423.7 667.1 L 1427.5 661.2 L 1431.2 655.2 L 1435.0 649.3 L 1438.7 643.3 L 1442.3 637.3 L 1446.0 631.3 L 1449.6 625.3 L 1453.1 619.2 L 1456.6 613.1 L 1460.1 607.0 L 1463.5 600.9 L 1466.8 594.7 L 1470.1 588.5 L 1473.3 582.3 L 1476.5 576.0 L 1476.5 576.0 L 1479.5 569.8 L 1482.5 563.4 L 1485.4 557.1 L 1488.2 550.6 L 1491.0 544.2 L 1493.7 537.7 L 1496.4 531.2 L 1499.0 524.7 L 1501.6 518.2 L 1504.2 511.7 L 1506.7 505.1 L 1509.3 498.6 L 1511.8 492.0 L 1514.3 485.5 L 1516.9 479.0 L 1519.4 472.5 L 1519.4 472.5 L 1521.9 465.7 L 1524.2 458.4 L 1526.4 450.7 L 1528.6 442.8 L 1530.7 434.7 L 1532.7 426.6 L 1534.8 418.5 L 1536.9 410.6 L 1539.0 403.0 L 1541.3 395.9 L 1543.6 389.3 L 1546.2 383.3 L 1548.9 378.1 L 1551.8 373.7 L 1555.0 370.4 L 1558.5 368.1 L 1558.5 368.1 L 1562.3 367.1 L 1566.7 367.4 L 1571.5 368.8 L 1576.7 371.2 L 1582.1 374.4 L 1587.6 378.2 L 1593.3 382.5 L 1599.0 387.2 L 1604.6 392.1 L 1610.0 397.1 L 1615.2 401.9 L 1620.0 406.5 L 1624.5 410.7 L 1628.5 414.4 L 1631.9 417.3 L 1634.6 419.4" fill="none" stroke="#2b6bff" stroke-width="6.0" stroke-opacity="0.9"/><path d="M 1662.4 411.7 L 1663.8 415.1 L 1665.8 419.3 L 1668.2 424.0 L 1671.0 429.3 L 1674.0 435.1 L 1677.2 441.3 L 1680.5 447.9 L 1683.8 454.7 L 1687.0 461.6 L 1690.0 468.7 L 1692.8 475.9 L 1695.2 483.0 L 1697.3 490.0 L 1698.8 496.8 L 1699.7 503.4 L 1699.9 509.6 L 1699.9 509.6 L 1699.5 515.7 L 1698.6 521.7 L 1697.1 527.7 L 1695.3 533.8 L 1693.0 539.8 L 1690.4 545.8 L 1687.6 551.8 L 1684.5 557.8 L 1681.2 563.8 L 1677.9 569.8 L 1674.5 575.7 L 1671.0 581.7 L 1667.7 587.6 L 1664.4 593.6 L 1661.2 599.5 L 1658.3 605.5 L 1658.3 605.5 L 1655.4 611.4 L 1652.5 617.2 L 1649.5 623.1 L 1646.4 628.9 L 1643.3 634.7 L 1640.1 640.5 L 1637.0 646.3 L 1633.8 652.1 L 1630.6 658.0 L 1627.5 663.8 L 1624.4 669.6 L 1621.4 675.5 L 1618.4 681.4 L 1615.5 687.3 L 1612.7 693.3 L 1610.0 699.3 L 1610.0 699.3 L 1607.5 705.4 L 1605.3 711.6 L 1603.2 718.0 L 1601.3 724.5 L 1599.5 731.0 L 1597.7 737.5 L 1596.0 744.1 L 1594.2 750.6 L 1592.4 757.1 L 1590.5 763.5 L 1588.4 769.8 L 1586.2 775.9 L 1583.7 781.9 L 1581.0 787.7 L 1577.9 793.3 L 1574.5 798.7 L 1574.5 798.7 L 1570.8 803.8 L 1566.9 808.8 L 1562.6 813.6 L 1558.2 818.3 L 1553.6 822.8 L 1548.8 827.2 L 1543.8 831.5 L 1538.7 835.7 L 1533.5 839.8 L 1528.2 843.8 L 1522.8 847.7 L 1517.4 851.5 L 1511.9 855.2 L 1506.4 858.9 L 1500.9 862.5 L 1495.4 866.0 L 1495.4 866.0 L 1489.9 869.5 L 1484.2 872.7 L 1478.5 875.8 L 1472.6 878.7 L 1466.6 881.5 L 1460.6 884.2 L 1454.5 886.9 L 1448.3 889.5 L 1442.2 892.1 L 1436.0 894.7 L 1429.9 897.3 L 1423.8 899.9 L 1417.8 902.7 L 1411.8 905.5 L 1405.9 908.5 L 1400.0 911.7 L 1400.0 911.7 L 1394.3 914.9 L 1388.6 918.2 L 1382.9 921.5 L 1377.2 924.9 L 1371.6 928.4 L 1366.0 931.9 L 1360.4 935.4 L 1354.8 939.0 L 1349.3 942.6 L 1343.8 946.2 L 1338.3 949.9 L 1332.9 953.7 L 1327.4 957.4 L 1322.0 961.2 L 1316.6 965.0 L 1311.2 968.9 L 1311.2 968.9 L 1305.9 972.7 L 1300.6 976.7 L 1295.4 980.7 L 1290.2 984.8 L 1285.0 988.9 L 1279.9 993.1 L 1274.8 997.3 L 1271.5 1000.0" fill="none" stroke="#2b6bff" stroke-width="6.0" stroke-opacity="0.9"/><path d="M 0.0 897.4 L 3.7 893.0 L 8.4 887.3 L 13.1 881.6 L 17.8 875.9 L 22.5 870.2 L 22.5 870.2 L 27.1 864.5 L 31.8 858.7 L 36.4 853.0 L 41.1 847.2 L 45.7 841.4 L 50.3 835.6 L 54.9 829.9 L 59.5 824.1 L 64.1 818.3 L 68.7 812.5 L 73.3 806.8 L 78.0 801.0 L 82.6 795.3 L 87.4 789.6 L 92.1 784.0 L 96.9 778.3 L 96.9 778.3 L 101.6 772.7 L 106.4 767.0 L 111.2 761.4 L 115.9 755.7 L 120.7 750.0 L 125.5 744.3 L 130.3 738.7 L 135.1 733.1 L 140.0 727.5 L 144.9 722.0 L 149.9 716.5 L 155.0 711.1 L 160.1 705.8 L 165.2 700.6 L 170.5 695.4 L 175.9 690.4 L 175.9 690.4 L 181.3 685.5 L 186.8 680.5 L 192.3 675.7 L 197.9 670.8 L 203.6 666.1 L 209.3 661.4 L 215.0 656.7 L 220.9 652.2 L 226.8 647.7 L 232.7 643.3 L 238.7 639.0 L 244.8 634.8 L 250.9 630.7 L 257.1 626.7 L 263.3 622.8 L 269.6 619.1 L 269.6 619.1 L 276.0 615.5 L 282.5 612.0 L 289.0 608.7 L 295.6 605.6 L 302.3 602.5 L 309.1 599.5 L 315.9 596.7 L 322.8 593.9 L 329.7 591.1 L 336.6 588.4 L 343.6 585.8 L 350.5 583.2 L 357.5 580.6 L 364.4 578.0 L 371.3 575.4 L 378.2 572.7 L 378.2 572.7 L 385.1 570.1 L 392.0 567.5 L 399.0 564.9 L 405.9 562.4 L 412.9 559.9 L 419.8 557.5 L 426.8 555.0 L 433.8 552.6 L 440.8 550.3 L 447.8 547.9 L 454.8 545.6 L 461.9 543.3 L 468.9 541.0 L 475.9 538.7 L 483.0 536.4 L 490.0 534.2 L 490.0 534.2 L 497.0 532.0 L 504.1 529.8 L 511.1 527.6 L 518.2 525.5 L 525.3 523.3 L 532.4 521.2 L 539.5 519.1 L 546.6 517.1 L 553.7 515.0 L 560.8 513.0 L 567.9 511.0 L 575.0 509.0 L 582.1 507.0 L 589.2 505.0 L 596.3 503.1 L 603.5 501.1 L 603.5 501.1 L 610.6 499.2 L 617.7 497.3 L 624.9 495.4 L 632.0 493.6 L 639.2 491.8 L 646.4 489.9 L 653.5 488.2 L 660.7 486.4 L 667.9 484.6 L 675.1 482.8 L 682.2 481.0 L 689.4 479.3 L 696.6 477.5 L 703.7 475.7 L 710.9 473.9 L 718.1 472.1 L 718.1 472.1 L 725.2 470.2 L 732.4 468.4 L 739.5 466.6 L 746.7 464.7 L 753.9 462.9 L 761.0 461.1 L 768.2 459.2 L 775.3 457.4 L 782.5 455.5 L 789.6 453.7 L 796.8 451.8 L 803.9 450.0 L 811.1 448.2 L 818.3 446.4 L 825.4 444.5 L 832.6 442.7 L 832.6 442.7 L 839.7 440.9 L 846.9 439.1 L 854.1 437.3 L 861.2 435.5 L 868.4 433.7 L 875.6 431.9 L 882.7 430.1 L 889.9 428.3 L 897.1 426.5 L 904.2 424.7 L 911.4 422.9 L 918.6 421.2 L 925.8 419.4 L 932.9 417.6 L 940.1 415.9 L 947.3 414.1 L 947.3 414.1 L 954.5 412.4 L 961.7 410.7 L 968.9 409.2 L 976.2 407.6 L 983.4 406.1 L 990.7 404.6 L 997.9 403.1 L 1005.2 401.6 L 1012.4 400.0 L 1019.7 398.4 L 1026.8 396.7 L 1034.0 394.9 L 1041.1 393.0 L 1048.2 391.1 L 1055.3 388.9 L 1062.2 386.7 L 1062.2 386.7 L 1069.2 384.3 L 1076.1 381.8 L 1083.0 379.2 L 1089.9 376.5 L 1096.7 373.7 L 1103.5 370.9 L 1110.3 367.9 L 1117.1 364.9 L 1123.8 361.9 L 1130.5 358.7 L 1137.1 355.5 L 1143.8 352.3 L 1150.4 349.0 L 1157.0 345.6 L 1163.5 342.3 L 1170.0 338.8 L 1170.0 338.8 L 1176.5 335.3 L 1183.0 331.8 L 1189.5 328.2 L 1195.9 324.6 L 1202.4 320.9 L 1208.8 317.2 L 1215.1 313.4 L 1221.5 309.5 L 1227.7 305.6 L 1234.0 301.6 L 1240.2 297.6 L 1246.3 293.5 L 1252.4 289.3 L 1258.5 285.0 L 1264.4 280.7 L 1270.3 276.3 L 1270.3 276.3 L 1276.1 271.8 L 1281.9 267.3 L 1287.6 262.6 L 1293.3 257.9 L 1298.8 253.1 L 1304.4 248.2 L 1309.9 243.3 L 1315.3 238.3 L 1320.7 233.3 L 1326.1 228.2 L 1331.4 223.1 L 1336.7 217.9 L 1342.0 212.7 L 1347.2 207.5 L 1352.4 202.3 L 1357.6 197.1 L 1357.6 197.1 L 1362.9 191.7 L 1368.4 186.0 L 1374.1 180.0 L 1379.8 173.7 L 1385.6 167.4 L 1391.3 161.0 L 1397.0 154.6 L 1402.6 148.3 L 1408.0 142.2 L 1413.1 136.3 L 1418.0 130.6 L 1422.6 125.4 L 1426.8 120.6 L 1430.5 116.2 L 1433.8 112.5 L 1436.6 109.4" fill="none" stroke="#2b6bff" stroke-width="6.0" stroke-opacity="0.9"/></g><g id="clips"><circle cx="1475.2" cy="131.9" r="2" fill="none" stroke="#0b5" stroke-width="0.6"/><circle cx="242.1" cy="1000.0" r="2" fill="none" stroke="#0b5" stroke-width="0.6"/><circle cx="605.6" cy="1000.0" r="2" fill="none" stroke="#0b5" stroke-width="0.6"/><circle cx="1634.6" cy="419.4" r="2" fill="none" stroke="#0b5" stroke-width="0.6"/><circle cx="1662.4" cy="411.7" r="2" fill="none" stroke="#0b5" stroke-width="0.6"/><circle cx="1271.5" cy="1000.0" r="2" fill="none" stroke="#0b5" stroke-width="0.6"/><circle cx="0.0" cy="897.4" r="2" fill="none" stroke="#0b5" stroke-width="0.6"/><circle cx="1436.6" cy="109.4" r="2" fill="none" stroke="#0b5" stroke-width="0.6"/></g><g id="power"><circle cx="0.0" cy="897.5" r="5" fill="none" stroke="#e33" stroke-width="1"/><circle cx="242.1" cy="1000.0" r="5" fill="none" stroke="#e33" stroke-width="1"/><circle cx="605.8" cy="1000.0" r="5" fill="none" stroke="#e33" stroke-width="1"/><circle cx="1271.6" cy="1000.0" r="5" fill="none" stroke="#e33" stroke-width="1"/></g></svg>