<svg xmlns="http://www.w3.org/2000/svg" width="2000mm" height="1000mm" viewBox="0 0 2000 1000"><g id="outline"><rect x="0" y="0" width="2000" height="1000" fill="none" stroke="#000" stroke-width="1"/></g><g id="channels"><path d="M 1311.6 1000.0 L 1309.0 994.4 L 1306.2 988.6 L 1303.3 982.7 L 1300.4 977.0 L 1297.4 971.2 L 1294.4 965.5 L 1291.2 959.9 L 1288.0 954.3 L 1284.7 948.8 L 1281.3 943.4 L 1277.8 938.0 L 1277.8 938.0 L 1274.2 932.7 L 1270.5 927.4 L 1266.7 922.2 L 1262.9 917.1 L 1258.9 911.9 L 1254.9 906.9 L 1250.8 901.9 L 1246.7 896.9 L 1242.4 892.0 L 1238.1 887.2 L 1233.8 882.4 L 1229.3 877.7 L 1224.9 873.1 L 1220.3 868.5 L 1215.7 864.0 L 1211.1 859.6 L 1211.1 859.6 L 1206.3 855.2 L 1201.5 851.1 L 1196.5 847.0 L 1191.4 843.1 L 1186.2 839.2 L 1181.0 835.4 L 1175.7 831.7 L 1170.4 828.0 L 1165.1 824.3 L 1159.7 820.6 L 1154.4 816.9 L 1149.1 813.1 L 1143.8 809.3 L 1138.6 805.5 L 1133.5 801.6 L 1128.5 797.5 L 1128.5 797.5 L 1123.5 793.4 L 1118.5 789.4 L 1113.4 785.3 L 1108.4 781.2 L 1103.4 777.1 L 1098.4 773.0 L 1093.4 768.8 L 1088.5 764.6 L 1083.6 760.4 L 1078.8 756.1 L 1074.0 751.7 L 1069.4 747.2 L 1064.8 742.7 L 1060.4 738.1 L 1056.1 733.4 L 1051.9 728.5 L 1051.9 728.5 L 1047.9 723.6 L 1044.0 718.5 L 1040.2 713.4 L 1036.5 708.1 L 1032.9 702.8 L 1029.4 697.4 L 1025.9 691.9 L 1022.6 686.3 L 1019.3 680.8 L 1016.0 675.1 L 1012.8 669.5 L 1009.7 663.8 L 1006.5 658.1 L 1003.4 652.5 L 1000.3 646.8 L 997.2 641.1 L 997.2 641.1 L 994.1 635.5 L 991.2 629.8 L 988.3 624.0 L 985.4 618.2 L 982.6 612.4 L 979.9 606.5 L 977.2 600.7 L 974.5 594.8 L 971.8 588.9 L 969.1 583.0 L 966.4 577.1 L 963.7 571.3 L 961.0 565.4 L 958.2 559.6 L 955.3 553.8 L 952.4 548.0 L 952.4 548.0 L 949.5 542.2 L 946.6 536.5 L 943.6 530.7 L 940.7 525.0 L 937.7 519.3 L 934.7 513.6 L 931.7 507.8 L 928.7 502.1 L 925.6 496.4 L 922.5 490.8 L 919.4 485.1 L 916.3 479.4 L 913.2 473.8 L 910.0 468.2 L 906.8 462.6 L 903.6 457.0 L 903.6 457.0 L 900.3 451.4 L 896.9 445.9 L 893.5 440.5 L 890.0 435.0 L 886.4 429.6 L 882.9 424.2 L 879.3 418.8 L 875.7 413.4 L 872.1 408.0 L 868.6 402.6 L 865.1 397.2 L 861.6 391.7 L 858.2 386.2 L 854.9 380.7 L 851.7 375.1 L 848.6 369.5 L 848.6 369.5 L 845.5 363.8 L 842.6 358.1 L 839.7 352.3 L 836.9 346.5 L 834.2 340.7 L 831.5 334.8 L 828.9 328.9 L 826.3 323.0 L 823.7 317.1 L 821.1 311.2 L 818.5 305.2 L 815.9 299.3 L 813.4 293.4 L 810.7 287.5 L 808.1 281.6 L 805.4 275.8 L 805.4 275.8 L 802.7 269.9 L 800.1 264.0 L 797.5 258.1 L 795.0 252.1 L 792.4 246.2 L 789.9 240.2 L 787.3 234.3 L 784.8 228.3 L 782.2 222.4 L 779.5 216.5 L 776.8 210.7 L 774.0 204.9 L 771.1 199.1 L 768.1 193.4 L 765.0 187.8 L 761.8 182.2 L 761.8 182.2 L 758.5 176.8 L 755.0 171.4 L 751.4 166.0 L 747.8 160.7 L 744.0 155.5 L 740.2 150.3 L 736.3 145.1 L 732.4 140.0 L 728.4 134.9 L 724.4 129.8 L 720.3 124.7 L 716.3 119.7 L 712.2 114.6 L 708.2 109.6 L 704.1 104.5 L 700.1 99.4 L 700.1 99.4 L 696.1 94.4 L 692.1 89.3 L 688.0 84.3 L 683.9 79.3 L 679.8 74.4 L 675.6 69.4 L 671.5 64.5 L 667.3 59.5 L 663.2 54.6 L 659.0 49.6 L 654.8 44.7 L 650.7 39.7 L 646.6 34.7 L 642.5 29.7 L 638.5 24.7 L 634.5 19.6 L 634.5 19.6 L 630.5 14.6 L 626.4 9.5 L 622.4 4.5 L 618.9 0.0" fill="none" stroke="#00e5ff" stroke-width="6.0" stroke-opacity="0.9"/><path d="M 844.2 0.0 L 846.5 4.0 L 849.8 9.6 L 853.1 15.2 L 856.5 20.8 L 859.9 26.4 L 863.2 32.0 L 866.5 37.6 L 869.7 43.2 L 872.9 48.9 L 876.0 54.6 L 878.9 60.3 L 881.7 66.1 L 884.3 71.9 L 886.8 77.8 L 889.0 83.7 L 889.0 83.7 L 891.1 89.7 L 893.0 95.8 L 894.9 102.0 L 896.6 108.2 L 898.2 114.4 L 899.7 120.7 L 901.1 127.0 L 902.4 133.3 L 903.5 139.7 L 904.6 146.0 L 905.5 152.4 L 906.3 158.8 L 906.9 165.2 L 907.5 171.6 L 907.9 178.0 L 908.2 184.3 L 908.2 184.3 L 908.2 190.8 L 907.8 197.4 L 907.1 204.1 L 906.2 210.9 L 905.0 217.8 L 903.7 224.7 L 902.4 231.5 L 901.0 238.4 L 899.6 245.1 L 898.3 251.7 L 897.2 258.2 L 896.4 264.4 L 895.8 270.5 L 895.5 276.3 L 895.7 281.8 L 896.3 287.0 L 896.3 287.0 L 897.3 291.8 L 898.8 296.2 L 900.5 300.2 L 902.6 304.0 L 904.9 307.6 L 907.5 310.9 L 910.2 314.1 L 913.0 317.2 L 916.0 320.3 L 919.0 323.4 L 922.0 326.5 L 924.9 329.7 L 927.8 333.0 L 930.6 336.5 L 933.2 340.3 L 935.6 344.3 L 935.6 344.3 L 938.0 348.7 L 940.2 353.4 L 942.5 358.4 L 944.8 363.6 L 947.0 369.0 L 949.2 374.4 L 951.4 379.9 L 953.6 385.4 L 955.7 390.8 L 957.9 396.0 L 960.0 401.1 L 962.1 405.9 L 964.2 410.4 L 966.2 414.6 L 968.2 418.3 L 970.3 421.5 L 970.3 421.5 L 972.2 424.3 L 974.1 426.6 L 976.0 428.5 L 977.8 430.0 L 979.5 431.3 L 981.2 432.3 L 983.0 433.1 L 984.7 433.7 L 986.4 434.3 L 988.2 434.8 L 989.9 435.3 L 991.8 435.9 L 993.7 436.6 L 995.7 437.5 L 997.7 438.5 L 999.9 439.9 L 999.9 439.9 L 1002.1 441.5 L 1004.5 443.5 L 1007.0 445.6 L 1009.5 448.0 L 1012.1 450.5 L 1014.7 453.0 L 1017.4 455.5 L 1020.1 458.0 L 1022.9 460.4 L 1025.6 462.6 L 1028.2 464.5 L 1030.9 466.2 L 1033.5 467.5 L 1036.0 468.4 L 1038.4 468.8 L 1040.7 468.7 L 1040.7 468.7 L 1043.0 468.0 L 1045.2 466.6 L 1047.3 464.7 L 1049.3 462.3 L 1051.4 459.6 L 1053.4 456.5 L 1055.3 453.2 L 1057.3 449.8 L 1059.2 446.3 L 1061.1 442.8 L 1063.0 439.5 L 1064.9 436.4 L 1066.9 433.5 L 1068.8 431.1 L 1070.8 429.0 L 1072.8 427.5 L 1072.8 427.5 L 1075.0 426.7 L 1077.3 426.4 L 1079.8 426.7 L 1082.4 427.5 L 1085.0 428.5 L 1087.7 429.7 L 1090.3 431.1 L 1092.9 432.4 L 1095.3 433.6 L 1097.7 434.6 L 1099.8 435.3 L 1101.7 435.5 L 1103.3 435.2 L 1104.6 434.3 L 1105.5 432.6 L 1106.0 430.0 L 1106.0 430.0 L 1106.1 426.5 L 1105.9 422.3 L 1105.4 417.4 L 1104.7 412.0 L 1103.6 406.0 L 1102.4 399.6 L 1100.9 392.9 L 1099.3 385.9 L 1097.5 378.7 L 1095.5 371.4 L 1093.5 364.1 L 1091.4 356.8 L 1089.2 349.7 L 1087.0 342.8 L 1084.7 336.2 L 1082.5 330.0 L 1082.5 330.0 L 1080.2 324.0 L 1077.6 318.2 L 1074.9 312.3 L 1072.0 306.6 L 1069.0 300.9 L 1065.9 295.2 L 1062.8 289.5 L 1059.6 283.9 L 1056.3 278.3 L 1053.1 272.6 L 1049.9 267.0 L 1046.7 261.3 L 1043.6 255.6 L 1040.7 249.8 L 1037.8 244.0 L 1035.2 238.1 L 1035.2 238.1 L 1032.7 232.2 L 1030.3 226.2 L 1027.9 220.2 L 1025.7 214.2 L 1023.5 208.1 L 1021.4 202.0 L 1019.3 195.9 L 1017.2 189.8 L 1015.2 183.7 L 1013.1 177.5 L 1011.1 171.4 L 1009.0 165.3 L 1006.9 159.2 L 1004.7 153.1 L 1002.5 147.0 L 1000.2 141.0 L 1000.2 141.0 L 997.9 135.0 L 995.5 129.0 L 993.1 123.0 L 990.6 117.0 L 988.2 111.1 L 985.7 105.1 L 983.2 99.2 L 980.7 93.2 L 978.1 87.3 L 975.6 81.3 L 973.1 75.4 L 970.6 69.4 L 968.1 63.5 L 965.6 57.5 L 963.1 51.6 L 960.7 45.6 L 960.7 45.6 L 958.2 39.6 L 955.8 33.6 L 953.4 27.6 L 951.0 21.6 L 948.6 15.6 L 946.2 9.6 L 943.8 3.6 L 942.4 0.0" fill="none" stroke="#00e5ff" stroke-width="6.0" stroke-opacity="0.9"/><path d="M 78.7 0.0 L 79.1 1.3 L 80.8 7.5 L 82.4 13.6 L 84.0 19.7 L 85.6 25.8 L 87.1 32.0 L 88.7 38.1 L 90.2 44.2 L 90.2 44.2 L 91.7 50.4 L 93.2 56.5 L 94.6 62.7 L 96.0 68.8 L 97.3 75.0 L 98.6 81.2 L 99.9 87.4 L 101.2 93.6 L 102.5 99.8 L 103.8 106.0 L 105.0 112.2 L 106.3 118.4 L 107.6 124.6 L 108.8 130.8 L 110.1 137.0 L 111.4 143.2 L 111.4 143.2 L 112.8 149.3 L 114.1 155.5 L 115.4 161.7 L 116.7 167.9 L 118.0 174.1 L 119.2 180.3 L 120.5 186.5 L 121.8 192.7 L 123.1 198.9 L 124.5 205.1 L 125.8 211.2 L 127.1 217.4 L 128.5 223.6 L 129.9 229.8 L 131.3 235.9 L 132.7 242.1 L 132.7 242.1 L 134.2 248.2 L 135.7 254.4 L 137.3 260.5 L 138.9 266.6 L 140.5 272.7 L 142.1 278.8 L 143.8 285.0 L 145.4 291.1 L 147.1 297.2 L 148.7 303.3 L 150.3 309.4 L 151.9 315.5 L 153.5 321.6 L 155.0 327.8 L 156.5 333.9 L 157.9 340.1 L 157.9 340.1 L 159.3 346.2 L 160.7 352.4 L 162.1 358.6 L 163.4 364.8 L 164.7 370.9 L 166.0 377.1 L 167.3 383.3 L 168.6 389.5 L 169.8 395.7 L 171.0 401.9 L 172.2 408.1 L 173.4 414.4 L 174.6 420.6 L 175.7 426.8 L 176.8 433.0 L 177.9 439.2 L 177.9 439.2 L 179.0 445.5 L 180.0 451.7 L 181.0 458.0 L 181.9 464.2 L 182.8 470.5 L 183.6 476.8 L 184.5 483.0 L 185.3 489.3 L 186.2 495.6 L 187.0 501.9 L 188.0 508.1 L 188.9 514.4 L 189.9 520.6 L 191.0 526.8 L 192.1 533.0 L 193.4 539.2 L 193.4 539.2 L 194.7 545.4 L 196.0 551.6 L 197.4 557.8 L 198.8 563.9 L 200.2 570.1 L 201.7 576.2 L 203.3 582.4 L 204.8 588.5 L 206.4 594.6 L 208.1 600.7 L 209.8 606.8 L 211.5 612.9 L 213.3 619.0 L 215.2 625.0 L 217.1 631.0 L 219.0 637.0 L 219.0 637.0 L 221.0 643.0 L 223.1 649.0 L 225.2 654.9 L 227.4 660.9 L 229.6 666.8 L 231.9 672.7 L 234.2 678.6 L 236.6 684.5 L 239.0 690.3 L 241.4 696.2 L 243.9 702.0 L 246.3 707.8 L 248.9 713.6 L 251.4 719.4 L 254.0 725.2 L 256.6 730.9 L 256.6 730.9 L 259.2 736.7 L 261.9 742.4 L 264.6 748.1 L 267.4 753.8 L 270.1 759.5 L 272.9 765.2 L 275.8 770.8 L 278.7 776.4 L 281.6 782.1 L 284.5 787.7 L 287.4 793.3 L 290.4 798.9 L 293.4 804.4 L 296.4 810.0 L 299.4 815.6 L 302.4 821.1 L 302.4 821.1 L 305.5 826.7 L 308.5 832.2 L 311.6 837.7 L 314.7 843.2 L 317.8 848.7 L 321.0 854.2 L 324.1 859.7 L 327.3 865.2 L 330.5 870.6 L 333.8 876.1 L 337.0 881.5 L 340.3 886.9 L 343.6 892.3 L 346.9 897.7 L 350.2 903.1 L 353.6 908.4 L 353.6 908.4 L 357.0 913.8 L 360.4 919.1 L 363.9 924.4 L 367.3 929.6 L 370.9 934.9 L 374.4 940.1 L 377.9 945.4 L 381.5 950.6 L 385.1 955.8 L 388.7 961.0 L 392.3 966.2 L 395.9 971.4 L 399.5 976.6 L 403.2 981.7 L 406.8 986.9 L 410.4 992.1 L 410.4 992.1 L 414.1 997.2 L 416.1 1000.0" fill="none" stroke="#00e5ff" stroke-width="6.0" stroke-opacity="0.9"/><path d="M 679.2 1000.0 L 678.2 998.6 L 674.1 993.2 L 670.0 987.8 L 665.7 982.6 L 661.3 977.4 L 661.3 977.4 L 656.8 972.4 L 652.0 967.6 L 647.0 962.9 L 641.8 958.4 L 636.5 954.0 L 631.1 949.7 L 625.7 945.4 L 620.2 941.2 L 614.8 936.9 L 609.4 932.6 L 604.0 928.2 L 598.8 923.8 L 593.8 919.2 L 588.9 914.5 L 584.2 909.6 L 579.8 904.5 L 579.8 904.5 L 575.6 899.3 L 571.6 893.9 L 567.6 888.4 L 563.7 882.8 L 560.0 877.2 L 556.3 871.4 L 552.8 865.6 L 549.3 859.7 L 546.0 853.8 L 542.8 847.7 L 539.6 841.7 L 536.5 835.6 L 533.6 829.4 L 530.7 823.3 L 527.9 817.1 L 525.2 810.9 L 525.2 810.9 L 522.6 804.6 L 520.2 798.3 L 517.9 791.9 L 515.8 785.5 L 513.7 778.9 L 511.7 772.4 L 509.9 765.8 L 508.1 759.2 L 506.3 752.5 L 504.6 745.8 L 503.0 739.2 L 501.4 732.5 L 499.7 725.8 L 498.1 719.1 L 496.5 712.5 L 494.8 705.8 L 494.8 705.8 L 493.1 699.2 L 491.4 692.6 L 489.8 686.0 L 488.1 679.3 L 486.5 672.7 L 484.9 666.0 L 483.3 659.4 L 481.7 652.7 L 480.2 646.0 L 478.8 639.3 L 477.4 632.7 L 476.0 626.0 L 474.7 619.3 L 473.4 612.5 L 472.3 605.8 L 471.2 599.1 L 471.2 599.1 L 470.1 592.3 L 469.2 585.6 L 468.3 578.8 L 467.5 572.0 L 466.8 565.2 L 466.1 558.4 L 465.4 551.6 L 464.8 544.8 L 464.2 538.0 L 463.7 531.2 L 463.1 524.4 L 462.6 517.5 L 462.1 510.7 L 461.5 503.9 L 461.0 497.1 L 460.4 490.3 L 460.4 490.3 L 459.7 483.3 L 458.7 476.2 L 457.7 468.8 L 456.5 461.4 L 455.2 453.9 L 453.9 446.3 L 452.7 438.8 L 451.6 431.4 L 450.6 424.1 L 449.8 417.0 L 449.3 410.2 L 449.0 403.6 L 449.1 397.4 L 449.6 391.5 L 450.6 386.1 L 452.0 381.2 L 452.0 381.2 L 454.0 376.6 L 456.4 372.2 L 459.3 367.9 L 462.6 363.8 L 466.1 359.9 L 470.0 356.2 L 474.1 352.9 L 478.5 349.9 L 483.0 347.3 L 487.6 345.0 L 492.3 343.3 L 497.0 341.9 L 501.7 341.1 L 506.4 340.9 L 510.9 341.2 L 515.3 342.1 L 515.3 342.1 L 519.7 343.8 L 524.2 346.3 L 528.9 349.5 L 533.6 353.3 L 538.3 357.7 L 543.2 362.7 L 548.0 368.0 L 552.9 373.6 L 557.8 379.5 L 562.6 385.6 L 567.4 391.7 L 572.2 397.9 L 576.9 404.0 L 581.6 410.0 L 586.1 415.7 L 590.5 421.1 L 590.5 421.1 L 594.8 426.4 L 599.1 431.7 L 603.3 437.1 L 607.4 442.5 L 611.5 448.0 L 615.5 453.5 L 619.5 459.0 L 623.5 464.6 L 627.4 470.2 L 631.4 475.8 L 635.2 481.5 L 639.1 487.1 L 643.0 492.8 L 646.8 498.5 L 650.6 504.1 L 654.5 509.8 L 654.5 509.8 L 658.3 515.5 L 662.0 521.2 L 665.7 526.9 L 669.4 532.7 L 673.1 538.5 L 676.7 544.3 L 680.3 550.1 L 683.9 555.9 L 687.5 561.7 L 691.1 567.5 L 694.7 573.3 L 698.3 579.1 L 702.0 584.9 L 705.7 590.7 L 709.4 596.4 L 713.2 602.1 L 713.2 602.1 L 717.0 607.7 L 720.8 613.4 L 724.7 619.1 L 728.5 624.7 L 732.4 630.3 L 736.3 635.9 L 740.2 641.6 L 744.1 647.2 L 748.1 652.7 L 752.1 658.3 L 756.1 663.8 L 760.1 669.4 L 764.1 674.9 L 768.2 680.4 L 772.2 685.9 L 776.3 691.3 L 776.3 691.3 L 780.5 696.8 L 784.7 702.2 L 788.9 707.6 L 793.1 712.9 L 797.4 718.2 L 801.7 723.6 L 806.0 728.9 L 810.3 734.2 L 814.7 739.4 L 819.0 744.7 L 823.4 750.0 L 827.7 755.3 L 832.0 760.6 L 836.3 765.9 L 840.6 771.2 L 844.9 776.5 L 844.9 776.5 L 849.2 781.9 L 853.5 787.2 L 857.7 792.6 L 862.0 797.9 L 866.3 803.2 L 870.6 808.5 L 874.9 813.9 L 879.1 819.2 L 883.4 824.6 L 887.6 829.9 L 891.9 835.3 L 896.1 840.7 L 900.3 846.1 L 904.5 851.5 L 908.7 856.9 L 912.8 862.3 L 912.8 862.3 L 916.9 867.8 L 921.0 873.2 L 925.1 878.7 L 929.2 884.2 L 933.3 889.7 L 937.4 895.2 L 941.4 900.7 L 945.4 906.2 L 949.4 911.7 L 953.4 917.3 L 957.4 922.8 L 961.4 928.4 L 965.3 934.0 L 969.2 939.6 L 973.1 945.3 L 976.9 950.9 L 976.9 950.9 L 980.7 956.6 L 984.4 962.3 L 988.1 968.1 L 991.7 974.0 L 995.2 979.8 L 998.7 985.7 L 1002.3 991.6 L 1005.8 997.5 L 1007.3 1000.0" fill="none" stroke="#00e5ff" stroke-width="6.0" stroke-opacity="0.9"/></g><g id="clips"><circle cx="1311.6" cy="1000.0" r="2" fill="none" stroke="#0b5" stroke-width="0.6"/><circle cx="618.9" cy="0.0" r="2" fill="none" stroke="#0b5" stroke-width="0.6"/><circle cx="844.2" cy="0.0" r="2" fill="none" stroke="#0b5" stroke-width="0.6"/><circle cx="942.4" cy="0.0" r="2" fill="none" stroke="#0b5" stroke-width="0.6"/><circle cx="78.7" cy="0.0" r="2" fill="none" stroke="#0b5" stroke-width="0.6"/><circle cx="416.1" cy="1000.0" r="2" fill="none" stroke="#0b5" stroke-width="0.6"/><circle cx="679.2" cy="1000.0" r="2" fill="none" stroke="#0b5" stroke-width="0.6"/><circle cx="1007.3" cy="1000.0" r="2" fill="none" stroke="#0b5" stroke-width="0.6"/></g><g id="power"><circle cx="416.1" cy="1000.0" r="5" fill="none" stroke="#e33" stroke-width="1"/><circle cx="679.2" cy="1000.0" r="5" fill="none" stroke="#e33" stroke-width="1"/><circle cx="1007.3" cy="1000.0" r="5" fill="none" stroke="#e33" stroke-width="1"/><circle cx="1311.6" cy="1000.0" r="5" fill="none" stroke="#e33" stroke-width="1"/><circle cx="78.7" cy="0.0" r="5" fill="none" stroke="#e33" stroke-width="1"/><circle cx="618.9" cy="0.0" r="5" fill="none" stroke="#e33" stroke-width="1"/><circle cx="844.2" cy="0.0" r="5" fill="none" stroke="#e33" stroke-width="1"/><circle cx="942.4" cy="0.0" r="5" fill="none" stroke="#e33" stroke-width="1"/></g><g id="bridges"></g></svg>