<svg xmlns="http://www.w3.org/2000/svg" width="2000mm" height="1000mm" viewBox="0 0 2000 1000"><g id="outline"><rect x="0" y="0" width="2000" height="1000" fill="none" stroke="#000" stroke-width="1"/></g><g id="channels"><path d="M 119.7 1000.0 L 119.7 998.5 L 120.1 991.4 L 120.6 984.1 L 121.4 976.8 L 122.4 969.5 L 123.7 962.3 L 125.1 955.1 L 126.7 947.9 L 128.6 940.9 L 130.6 934.0 L 132.8 927.3 L 135.3 920.8 L 137.8 914.3 L 137.8 914.3 L 140.6 908.0 L 143.7 901.7 L 146.9 895.3 L 150.5 889.0 L 154.1 882.8 L 158.0 876.7 L 162.1 870.6 L 166.3 864.7 L 170.9 858.9 L 175.5 853.4 L 180.2 848.0 L 185.2 842.9 L 190.3 837.9 L 195.5 833.3 L 200.9 829.0 L 206.3 824.9 L 206.3 824.9 L 212.0 821.2 L 217.9 817.8 L 224.1 814.6 L 230.4 811.6 L 237.1 808.8 L 243.7 806.3 L 250.6 804.0 L 257.6 801.9 L 264.7 800.0 L 271.8 798.2 L 279.0 796.7 L 286.1 795.4 L 293.3 794.1 L 300.5 793.1 L 307.5 792.3 L 314.5 791.6 L 314.5 791.6 L 321.4 791.0 L 328.4 790.8 L 335.6 790.7 L 342.7 790.7 L 349.8 791.1 L 356.9 791.6 L 364.1 792.2 L 371.3 793.0 L 378.5 794.0 L 385.7 795.2 L 392.8 796.5 L 399.9 797.8 L 406.9 799.4 L 413.9 801.0 L 420.7 802.7 L 427.6 804.6 L 427.6 804.6 L 434.4 806.6 L 441.2 808.7 L 447.9 811.0 L 454.7 813.3 L 461.4 815.9 L 468.2 818.5 L 474.8 821.3 L 481.5 824.2 L 488.0 827.3 L 494.5 830.4 L 500.8 833.8 L 507.2 837.2 L 513.3 840.8 L 519.3 844.5 L 525.2 848.5 L 531.0 852.5 L 531.0 852.5 L 536.6 856.9 L 541.8 861.6 L 547.0 866.9 L 551.8 872.5 L 556.6 878.2 L 561.2 884.2 L 565.8 890.2 L 570.3 896.3 L 574.8 902.2 L 579.4 908.1 L 584.1 913.7 L 588.8 919.0 L 593.6 923.8 L 598.7 928.2 L 603.9 932.1 L 609.5 935.3 L 609.5 935.3 L 615.2 938.2 L 621.4 940.8 L 627.8 943.3 L 634.5 945.4 L 641.2 947.4 L 648.1 949.1 L 655.0 950.5 L 662.0 951.6 L 669.0 952.2 L 675.7 952.6 L 682.4 952.4 L 688.8 951.9 L 695.0 950.9 L 700.7 949.4 L 706.3 947.4 L 711.3 944.8 L 711.3 944.8 L 715.9 941.7 L 720.2 937.7 L 724.3 933.0 L 728.1 927.8 L 731.7 922.0 L 735.1 915.8 L 738.2 909.2 L 741.3 902.2 L 744.1 895.2 L 747.0 887.8 L 749.7 880.5 L 752.4 873.1 L 755.0 865.8 L 757.7 858.5 L 760.3 851.6 L 763.0 844.9 L 763.0 844.9 L 765.6 838.3 L 767.9 831.6 L 770.1 824.7 L 772.0 817.8 L 773.9 810.9 L 775.7 803.9 L 777.4 796.8 L 779.2 789.8 L 781.0 782.8 L 782.8 775.8 L 784.9 768.9 L 787.1 762.1 L 789.4 755.4 L 792.0 748.9 L 794.9 742.4 L 798.0 736.2 L 798.0 736.2 L 801.6 730.2 L 805.2 724.1 L 809.1 718.2 L 813.2 712.4 L 817.4 706.8 L 821.8 701.2 L 826.3 695.6 L 830.9 690.1 L 835.7 684.8 L 840.5 679.4 L 845.5 674.2 L 850.4 669.0 L 855.5 664.0 L 860.6 659.0 L 865.6 653.9 L 870.8 649.1 L 870.8 649.1 L 876.0 644.2 L 881.3 639.5 L 886.8 634.9 L 892.2 630.4 L 897.8 626.1 L 903.6 621.7 L 909.3 617.4 L 915.1 613.1 L 921.0 609.0 L 926.9 604.8 L 932.7 600.7 L 938.6 596.6 L 944.5 592.5 L 950.4 588.3 L 956.2 584.1 L 961.9 579.8 L 961.9 579.8 L 967.7 575.5 L 973.4 571.3 L 979.2 567.0 L 985.0 562.8 L 990.8 558.6 L 996.5 554.4 L 1002.4 550.2 L 1008.1 546.0 L 1013.9 541.8 L 1019.7 537.6 L 1025.6 533.4 L 1031.3 529.2 L 1037.1 525.1 L 1042.9 520.9 L 1048.8 516.7 L 1054.6 512.6 L 1054.6 512.6 L 1060.4 508.4 L 1066.2 504.3 L 1072.1 500.1 L 1077.9 496.0 L 1083.8 491.9 L 1089.6 487.8 L 1095.5 483.7 L 1101.4 479.6 L 1107.2 475.5 L 1113.1 471.4 L 1119.0 467.3 L 1124.8 463.1 L 1130.6 459.0 L 1136.4 454.8 L 1142.2 450.6 L 1148.0 446.4 L 1148.0 446.4 L 1153.7 442.2 L 1159.5 438.0 L 1165.4 433.8 L 1171.2 429.6 L 1177.0 425.4 L 1182.9 421.2 L 1188.7 417.0 L 1194.4 412.8 L 1200.1 408.5 L 1205.9 404.2 L 1211.5 399.8 L 1217.2 395.4 L 1222.7 390.9 L 1228.2 386.3 L 1233.6 381.7 L 1238.9 377.0 L 1238.9 377.0 L 1244.2 372.1 L 1249.4 367.3 L 1254.5 362.4 L 1259.7 357.3 L 1264.8 352.3 L 1269.7 347.1 L 1274.7 342.0 L 1279.6 336.7 L 1284.5 331.5 L 1289.3 326.2 L 1294.0 320.8 L 1298.6 315.4 L 1303.2 309.9 L 1307.8 304.5 L 1312.3 298.9 L 1316.7 293.2 L 1316.7 293.2 L 1321.0 287.6 L 1325.2 281.9 L 1329.4 276.1 L 1333.5 270.2 L 1337.5 264.3 L 1341.4 258.3 L 1345.2 252.3 L 1349.0 246.3 L 1352.9 240.1 L 1356.6 234.0 L 1360.3 227.9 L 1364.0 221.7 L 1367.7 215.6 L 1371.4 209.4 L 1375.0 203.3 L 1378.6 197.1 L 1378.6 197.1 L 1382.4 191.0 L 1385.9 184.8 L 1389.5 178.6 L 1393.1 172.4 L 1396.6 166.1 L 1400.0 159.9 L 1403.5 153.7 L 1406.9 147.3 L 1410.3 141.1 L 1413.8 134.8 L 1417.2 128.5 L 1420.6 122.2 L 1424.0 115.9 L 1427.4 109.7 L 1430.9 103.3 L 1434.4 97.1 L 1434.4 97.1 L 1437.9 90.9 L 1441.4 84.7 L 1445.0 78.4 L 1448.5 72.2 L 1452.0 66.0 L 1455.6 59.8 L 1459.2 53.6 L 1462.7 47.3 L 1466.2 41.1 L 1469.8 34.9 L 1473.3 28.7 L 1476.7 22.4 L 1480.2 16.1 L 1483.5 9.9 L 1486.8 3.5 L 1488.7 0.0" fill="none" stroke="#2b6bff" stroke-width="6.0" stroke-opacity="0.9"/><path d="M 1646.9 0.0 L 1644.5 4.9 L 1641.9 10.3 L 1639.3 15.6 L 1636.7 20.9 L 1634.1 26.3 L 1631.6 31.6 L 1629.0 36.9 L 1629.0 36.9 L 1626.3 42.3 L 1623.8 47.6 L 1621.2 52.9 L 1618.7 58.3 L 1616.3 63.7 L 1613.8 69.1 L 1611.3 74.4 L 1608.9 79.8 L 1606.5 85.2 L 1604.0 90.6 L 1601.6 96.1 L 1599.2 101.4 L 1596.8 106.8 L 1594.3 112.2 L 1591.8 117.6 L 1589.2 123.0 L 1589.2 123.0 L 1586.7 128.2 L 1584.2 133.6 L 1581.6 139.0 L 1579.1 144.3 L 1576.5 149.6 L 1573.9 154.9 L 1571.3 160.3 L 1568.8 165.5 L 1566.1 170.9 L 1563.5 176.2 L 1560.9 181.6 L 1558.3 186.8 L 1555.7 192.2 L 1553.2 197.5 L 1550.6 202.8 L 1548.0 208.1 L 1548.0 208.1 L 1545.5 213.5 L 1542.9 218.9 L 1540.5 224.2 L 1538.0 229.6 L 1535.6 235.0 L 1533.1 240.4 L 1530.6 245.8 L 1528.1 251.1 L 1525.6 256.5 L 1523.2 261.9 L 1520.6 267.3 L 1518.0 272.5 L 1515.4 277.9 L 1512.7 283.2 L 1510.0 288.3 L 1507.2 293.6 L 1507.2 293.6 L 1504.3 298.7 L 1501.5 303.9 L 1498.7 309.1 L 1495.7 314.3 L 1492.8 319.5 L 1489.8 324.5 L 1486.9 329.7 L 1483.8 334.7 L 1480.7 339.9 L 1477.6 344.8 L 1474.4 349.9 L 1471.1 354.7 L 1467.8 359.6 L 1464.3 364.3 L 1460.9 369.2 L 1457.3 373.8 L 1457.3 373.8 L 1453.6 378.4 L 1449.8 382.9 L 1446.0 387.4 L 1442.1 391.8 L 1438.1 396.1 L 1434.1 400.5 L 1430.0 404.7 L 1425.8 409.0 L 1421.6 413.2 L 1417.4 417.3 L 1413.1 421.4 L 1408.7 425.5 L 1404.5 429.6 L 1400.2 433.7 L 1395.9 437.8 L 1391.6 441.8 L 1391.6 441.8 L 1387.2 445.8 L 1382.9 449.9 L 1378.5 453.9 L 1374.1 457.8 L 1369.7 461.7 L 1365.2 465.6 L 1360.8 469.5 L 1356.3 473.3 L 1351.8 477.1 L 1347.2 481.0 L 1342.6 484.7 L 1338.1 488.5 L 1333.5 492.4 L 1329.0 496.1 L 1324.4 499.9 L 1319.9 503.7 L 1319.9 503.7 L 1315.4 507.5 L 1310.8 511.3 L 1306.2 515.0 L 1301.6 518.7 L 1297.0 522.5 L 1292.4 526.2 L 1287.8 529.9 L 1283.2 533.6 L 1278.6 537.3 L 1274.0 541.0 L 1269.3 544.7 L 1264.7 548.4 L 1260.1 552.1 L 1255.5 555.9 L 1250.9 559.5 L 1246.4 563.3 L 1246.4 563.3 L 1241.7 567.2 L 1236.8 571.2 L 1231.6 575.5 L 1226.4 579.8 L 1221.2 584.2 L 1215.8 588.6 L 1210.6 593.1 L 1205.4 597.4 L 1200.4 601.6 L 1195.5 605.6 L 1191.0 609.5 L 1186.7 613.1 L 1182.7 616.4 L 1179.3 619.3 L 1176.2 621.8 L 1173.6 624.0" fill="none" stroke="#2b6bff" stroke-width="6.0" stroke-opacity="0.9"/><path d="M 964.5 745.1 L 968.3 743.4 L 972.8 741.3 L 978.0 738.9 L 983.8 736.2 L 990.2 733.3 L 996.9 730.2 L 1004.1 727.0 L 1011.5 723.5 L 1019.2 720.0 L 1027.0 716.4 L 1034.8 712.9 L 1042.7 709.5 L 1050.4 705.9 L 1058.0 702.6 L 1065.2 699.4 L 1072.3 696.5 L 1072.3 696.5 L 1079.1 693.5 L 1085.8 690.7 L 1092.7 687.7 L 1099.4 684.9 L 1106.2 681.9 L 1113.1 679.1 L 1119.9 676.2 L 1126.7 673.5 L 1133.5 670.7 L 1140.4 667.9 L 1147.3 665.3 L 1154.2 662.5 L 1161.1 660.0 L 1168.1 657.4 L 1175.0 654.9 L 1181.9 652.6 L 1181.9 652.6 L 1189.0 650.2 L 1196.0 647.9 L 1203.0 645.8 L 1210.1 643.6 L 1217.2 641.6 L 1224.3 639.6 L 1231.4 637.5 L 1238.5 635.6 L 1245.7 633.7 L 1252.8 631.8 L 1259.9 629.9 L 1267.1 628.1 L 1274.3 626.2 L 1281.5 624.2 L 1288.6 622.3 L 1295.7 620.4 L 1295.7 620.4 L 1302.8 618.4 L 1310.0 616.5 L 1317.1 614.7 L 1324.3 612.9 L 1331.5 611.1 L 1338.7 609.3 L 1345.9 607.6 L 1353.0 605.8 L 1360.2 603.9 L 1367.3 602.1 L 1374.5 600.2 L 1381.7 598.1 L 1388.7 596.1 L 1395.7 593.9 L 1402.7 591.6 L 1409.7 589.2 L 1409.7 589.2 L 1416.6 586.8 L 1423.6 584.1 L 1430.4 581.6 L 1437.3 578.8 L 1444.1 576.1 L 1451.0 573.2 L 1457.7 570.4 L 1464.6 567.3 L 1471.3 564.4 L 1478.0 561.2 L 1484.7 558.1 L 1491.4 554.9 L 1498.0 551.7 L 1504.5 548.3 L 1511.0 544.8 L 1517.5 541.4 L 1517.5 541.4 L 1524.0 537.8 L 1530.4 534.2 L 1536.7 530.5 L 1543.0 526.7 L 1549.3 522.8 L 1555.6 518.8 L 1561.8 514.8 L 1568.0 510.8 L 1574.1 506.6 L 1580.2 502.5 L 1586.4 498.3 L 1592.5 494.1 L 1598.5 489.8 L 1604.7 485.7 L 1610.7 481.4 L 1616.8 477.2 L 1616.8 477.2 L 1622.8 473.0 L 1628.9 468.7 L 1634.9 464.5 L 1640.9 460.2 L 1647.0 455.9 L 1653.0 451.6 L 1658.9 447.2 L 1665.0 442.9 L 1670.8 438.5 L 1676.8 434.1 L 1682.7 429.6 L 1688.5 425.1 L 1694.3 420.5 L 1700.0 415.9 L 1705.8 411.2 L 1711.4 406.5 L 1711.4 406.5 L 1717.1 401.7 L 1722.7 396.9 L 1728.2 392.0 L 1733.7 387.1 L 1739.2 382.2 L 1744.5 377.1 L 1749.9 372.0 L 1755.3 367.0 L 1760.7 361.9 L 1765.9 356.7 L 1771.3 351.5 L 1776.6 346.4 L 1781.9 341.2 L 1787.1 336.0 L 1792.4 330.9 L 1797.7 325.7 L 1797.7 325.7 L 1803.1 320.6 L 1808.3 315.4 L 1813.5 310.2 L 1818.8 305.0 L 1824.0 299.8 L 1829.3 294.6 L 1834.4 289.3 L 1839.6 284.1 L 1844.8 278.8 L 1850.1 273.6 L 1855.3 268.3 L 1860.5 263.0 L 1865.6 257.8 L 1870.8 252.5 L 1876.0 247.2 L 1881.2 242.0 L 1881.2 242.0 L 1886.4 236.8 L 1891.6 231.4 L 1896.7 226.2 L 1901.9 221.0 L 1907.2 215.7 L 1912.4 210.5 L 1917.6 205.2 L 1922.7 199.9 L 1927.9 194.7 L 1933.1 189.4 L 1938.3 184.1 L 1943.4 178.9 L 1948.6 173.5 L 1953.8 168.2 L 1958.8 163.0 L 1963.9 157.6 L 1963.9 157.6 L 1969.0 152.3 L 1974.1 146.8 L 1979.2 141.5 L 1984.3 136.1 L 1989.3 130.7 L 1994.3 125.4 L 1999.3 119.9 L 2000.0 119.2" fill="none" stroke="#2b6bff" stroke-width="6.0" stroke-opacity="0.9"/></g><g id="clips"><circle cx="119.7" cy="1000.0" r="2" fill="none" stroke="#0b5" stroke-width="0.6"/><circle cx="1488.7" cy="0.0" r="2" fill="none" stroke="#0b5" stroke-width="0.6"/><circle cx="1646.9" cy="0.0" r="2" fill="none" stroke="#0b5" stroke-width="0.6"/><circle cx="1173.6" cy="624.0" r="2" fill="none" stroke="#0b5" stroke-width="0.6"/><circle cx="964.5" cy="745.1" r="2" fill="none" stroke="#0b5" stroke-width="0.6"/><circle cx="2000.0" cy="119.2" r="2" fill="none" stroke="#0b5" stroke-width="0.6"/></g><g id="power"><circle cx="2000.0" cy="119.2" r="5" fill="none" stroke="#e33" stroke-width="1"/><circle cx="1488.7" cy="0.0" r="5" fill="none" stroke="#e33" stroke-width="1"/><circle cx="1646.9" cy="0.0" r="5" fill="none" stroke="#e33" stroke-width="1"/><circle cx="119.7" cy="1000.0" r="5" fill="none" stroke="#e33" stroke-width="1"/></g><g id="bridges"></g></svg>