<svg xmlns="http://www.w3.org/2000/svg" width="1000mm" height="2000mm" viewBox="0 0 1000 2000"><g id="outline"><rect x="0" y="0" width="1000" height="2000" fill="none" stroke="#000" stroke-width="1"/></g><g id="channels"><path d="M 0.0 210.9 L 3.1 212.8 L 8.6 216.1 L 14.2 219.1 L 19.8 222.0 L 25.6 224.8 L 31.5 227.5 L 37.4 230.1 L 43.3 232.7 L 49.3 235.1 L 55.4 237.5 L 61.4 239.9 L 67.5 242.2 L 73.5 244.5 L 79.6 246.8 L 85.6 249.2 L 91.6 251.5 L 91.6 251.5 L 97.6 253.9 L 103.6 256.2 L 109.7 258.4 L 115.7 260.6 L 121.8 262.7 L 127.9 264.8 L 134.0 266.9 L 140.1 269.0 L 146.2 271.1 L 152.4 273.1 L 158.5 275.2 L 164.6 277.3 L 170.7 279.4 L 176.8 281.5 L 182.9 283.7 L 188.9 285.9 L 188.9 285.9 L 195.0 288.2 L 201.0 290.5 L 207.0 292.9 L 212.9 295.3 L 218.9 297.8 L 224.9 300.3 L 230.9 302.8 L 236.8 305.3 L 242.8 307.7 L 248.8 310.1 L 254.8 312.5 L 260.8 314.8 L 266.8 317.1 L 272.9 319.2 L 279.0 321.2 L 285.1 323.2 L 285.1 323.2 L 291.3 325.0 L 297.5 326.7 L 303.7 328.4 L 310.0 330.0 L 316.2 331.5 L 322.5 332.9 L 328.8 334.3 L 335.1 335.7 L 341.4 337.0 L 347.7 338.3 L 354.1 339.5 L 360.4 340.7 L 366.8 341.9 L 373.1 343.1 L 379.5 344.3 L 385.8 345.5 L 385.8 345.5 L 392.1 346.6 L 398.5 347.7 L 404.9 348.7 L 411.2 349.7 L 417.6 350.6 L 424.0 351.5 L 430.4 352.4 L 436.8 353.3 L 443.2 354.1 L 449.6 355.0 L 456.0 355.9 L 462.4 356.8 L 468.8 357.7 L 475.2 358.7 L 481.5 359.7 L 487.9 360.7 L 487.9 360.7 L 494.3 361.8 L 500.7 362.8 L 507.1 363.7 L 513.6 364.6 L 520.1 365.5 L 526.6 366.4 L 533.0 367.3 L 539.5 368.3 L 545.9 369.4 L 552.3 370.5 L 558.6 371.8 L 564.9 373.2 L 571.1 374.8 L 577.2 376.5 L 583.2 378.5 L 589.1 380.7 L 589.1 380.7 L 594.9 383.1 L 600.8 385.5 L 606.7 388.2 L 612.6 390.9 L 618.5 393.8 L 624.2 396.8 L 630.0 399.9 L 635.6 403.2 L 641.1 406.6 L 646.5 410.1 L 651.8 413.8 L 656.8 417.7 L 661.7 421.7 L 666.4 425.8 L 670.9 430.2 L 675.1 434.6 L 675.1 434.6 L 679.1 439.3 L 682.9 444.3 L 686.4 449.4 L 689.8 454.8 L 692.9 460.4 L 695.9 466.1 L 698.7 471.9 L 701.5 477.8 L 704.1 483.9 L 706.6 490.0 L 709.0 496.1 L 711.4 502.3 L 713.7 508.5 L 716.0 514.6 L 718.3 520.7 L 720.6 526.7 L 720.6 526.7 L 722.9 532.7 L 725.0 538.8 L 727.1 544.8 L 729.0 551.0 L 730.9 557.1 L 732.7 563.3 L 734.5 569.5 L 736.2 575.8 L 737.9 582.0 L 739.5 588.3 L 741.1 594.6 L 742.7 600.8 L 744.3 607.1 L 745.9 613.4 L 747.6 619.6 L 749.2 625.9 L 749.2 625.9 L 750.8 632.1 L 752.4 638.4 L 754.0 644.6 L 755.5 650.9 L 757.0 657.2 L 758.4 663.5 L 759.9 669.8 L 761.3 676.0 L 762.8 682.3 L 764.3 688.6 L 765.8 694.9 L 767.3 701.2 L 768.9 707.4 L 770.5 713.7 L 772.2 719.9 L 773.9 726.1 L 773.9 726.1 L 775.7 732.3 L 777.5 738.5 L 779.3 744.7 L 781.1 750.8 L 783.0 757.0 L 784.8 763.2 L 786.8 769.4 L 788.7 775.5 L 790.7 781.6 L 792.7 787.8 L 794.8 793.9 L 796.9 800.0 L 799.1 806.0 L 801.3 812.1 L 803.6 818.1 L 806.0 824.1 L 806.0 824.1 L 808.5 830.0 L 811.1 835.9 L 813.8 841.7 L 816.7 847.5 L 819.7 853.3 L 822.7 859.1 L 825.7 864.8 L 828.7 870.6 L 831.8 876.3 L 834.7 882.1 L 837.7 887.8 L 840.5 893.6 L 843.2 899.4 L 845.8 905.3 L 848.2 911.2 L 850.5 917.2 L 850.5 917.2 L 852.7 923.3 L 855.0 929.8 L 857.4 936.4 L 859.7 943.3 L 862.1 950.2 L 864.4 957.1 L 866.6 964.1 L 868.6 971.0 L 870.4 977.7 L 872.0 984.2 L 873.4 990.5 L 874.4 996.5 L 875.1 1002.1 L 875.4 1007.2 L 875.3 1011.9 L 874.7 1016.0 L 874.7 1016.0 L 873.5 1019.5 L 871.7 1022.5 L 869.4 1025.1 L 866.7 1027.2 L 863.6 1029.0 L 860.1 1030.5 L 856.4 1031.7 L 852.5 1032.6 L 848.5 1033.5 L 844.5 1034.2 L 840.5 1034.8 L 836.5 1035.5 L 832.8 1036.2 L 829.3 1037.0 L 826.1 1037.9 L 823.2 1039.0 L 823.2 1039.0 L 820.7 1040.3 L 818.3 1041.7 L 816.1 1043.2 L 814.0 1044.8 L 812.0 1046.3 L 810.1 1047.9 L 808.2 1049.3 L 806.4 1050.8 L 804.6 1052.1 L 802.8 1053.3 L 800.9 1054.3 L 799.0 1055.1 L 797.1 1055.7 L 795.0 1056.0 L 792.8 1056.0 L 790.5 1055.7 L 790.5 1055.7 L 788.1 1055.2 L 785.5 1054.5 L 782.8 1053.7 L 780.0 1052.7 L 777.2 1051.5 L 774.3 1050.1 L 771.4 1048.5 L 768.4 1046.8 L 765.5 1044.8 L 762.6 1042.6 L 759.8 1040.2 L 757.0 1037.6 L 754.3 1034.7 L 751.6 1031.6 L 749.1 1028.2 L 746.8 1024.6 L 746.8 1024.6 L 744.5 1020.7 L 742.1 1016.4 L 739.8 1011.8 L 737.4 1006.9 L 735.1 1001.7 L 732.8 996.2 L 730.6 990.6 L 728.4 984.8 L 726.4 978.9 L 724.6 972.8 L 722.9 966.7 L 721.3 960.6 L 720.0 954.4 L 718.9 948.3 L 718.0 942.2 L 717.4 936.2 L 717.4 936.2 L 717.2 930.2 L 717.4 924.1 L 718.1 918.0 L 719.0 911.7 L 720.2 905.4 L 721.6 899.0 L 723.1 892.6 L 724.7 886.2 L 726.3 879.7 L 727.9 873.2 L 729.3 866.8 L 730.5 860.3 L 731.4 853.9 L 732.1 847.5 L 732.4 841.1 L 732.2 834.8 L 732.2 834.8 L 731.6 828.6 L 730.8 822.3 L 729.7 816.1 L 728.4 809.8 L 726.9 803.6 L 725.2 797.4 L 723.4 791.2 L 721.4 785.0 L 719.4 778.8 L 717.2 772.6 L 715.0 766.5 L 712.7 760.3 L 710.5 754.2 L 708.2 748.1 L 706.0 742.0 L 703.8 735.9 L 703.8 735.9 L 701.6 729.9 L 699.4 723.8 L 697.1 717.8 L 694.8 711.8 L 692.4 705.8 L 690.0 699.8 L 687.5 693.8 L 685.0 687.9 L 682.4 681.9 L 679.8 676.0 L 677.1 670.1 L 674.4 664.2 L 671.7 658.4 L 668.9 652.6 L 666.1 646.8 L 663.2 641.0 L 663.2 641.0 L 660.4 635.2 L 657.5 629.4 L 654.7 623.5 L 651.9 617.5 L 649.0 611.6 L 646.2 605.7 L 643.2 599.8 L 640.2 594.0 L 637.1 588.3 L 633.9 582.6 L 630.6 577.1 L 627.1 571.7 L 623.5 566.5 L 619.7 561.4 L 615.8 556.6 L 611.6 552.0 L 611.6 552.0 L 607.2 547.5 L 602.7 543.2 L 597.9 539.0 L 593.0 534.9 L 588.0 531.0 L 582.8 527.2 L 577.6 523.5 L 572.2 519.9 L 566.7 516.5 L 561.1 513.3 L 555.4 510.2 L 549.7 507.2 L 543.9 504.4 L 538.1 501.7 L 532.3 499.2 L 526.5 496.9 L 526.5 496.9 L 520.6 494.7 L 514.6 492.9 L 508.4 491.2 L 502.2 489.8 L 496.0 488.5 L 489.6 487.4 L 483.2 486.4 L 476.7 485.6 L 470.2 484.8 L 463.7 484.0 L 457.2 483.3 L 450.7 482.6 L 444.2 481.9 L 437.7 481.2 L 431.2 480.4 L 424.8 479.4 L 424.8 479.4 L 418.5 478.4 L 412.1 477.4 L 405.7 476.4 L 399.3 475.3 L 392.9 474.2 L 386.5 473.1 L 380.1 472.1 L 373.7 471.1 L 367.3 470.1 L 360.9 469.2 L 354.5 468.4 L 348.1 467.7 L 341.7 467.0 L 335.3 466.5 L 328.9 466.1 L 322.5 465.8 L 322.5 465.8 L 316.0 465.6 L 309.1 465.3 L 302.0 464.9 L 294.7 464.6 L 287.3 464.3 L 279.9 464.0 L 272.6 463.9 L 265.4 463.9 L 258.3 464.1 L 251.6 464.5 L 245.1 465.1 L 239.1 466.0 L 233.5 467.2 L 228.5 468.8 L 224.1 470.7 L 220.4 473.1 L 220.4 473.1 L 217.3 476.0 L 214.5 479.5 L 212.1 483.5 L 210.1 488.1 L 208.4 492.9 L 207.1 498.1 L 206.2 503.5 L 205.7 509.0 L 205.6 514.5 L 205.9 520.1 L 206.6 525.5 L 207.7 530.7 L 209.1 535.6 L 211.0 540.2 L 213.3 544.4 L 216.0 548.0 L 216.0 548.0 L 219.3 551.1 L 223.3 554.0 L 228.0 556.6 L 233.2 558.9 L 238.9 561.1 L 245.1 563.0 L 251.6 564.8 L 258.3 566.5 L 265.3 568.1 L 272.4 569.7 L 279.5 571.2 L 286.7 572.8 L 293.7 574.4 L 300.5 576.1 L 307.1 577.9 L 313.4 579.9 L 313.4 579.9 L 319.5 581.9 L 325.7 583.8 L 332.0 585.5 L 338.3 587.3 L 344.7 589.0 L 351.0 590.7 L 357.4 592.4 L 363.7 594.2 L 369.9 596.0 L 376.1 598.0 L 382.2 600.1 L 388.1 602.4 L 393.9 604.9 L 399.6 607.6 L 405.1 610.6 L 410.3 613.8 L 410.3 613.8 L 415.5 617.3 L 420.7 621.1 L 426.0 625.0 L 431.2 629.1 L 436.3 633.4 L 441.4 637.8 L 446.3 642.4 L 451.0 647.2 L 455.5 652.0 L 459.8 657.0 L 463.8 662.1 L 467.5 667.3 L 470.8 672.6 L 473.7 677.9 L 476.2 683.3 L 478.3 688.7 L 478.3 688.7 L 479.9 694.3 L 481.2 700.2 L 482.2 706.4 L 482.9 712.8 L 483.3 719.4 L 483.4 726.1 L 483.2 732.8 L 482.7 739.6 L 481.8 746.3 L 480.7 752.9 L 479.3 759.4 L 477.6 765.7 L 475.7 771.8 L 473.4 777.5 L 470.9 783.0 L 468.1 788.0 L 468.1 788.0 L 464.9 792.7 L 461.3 797.4 L 457.2 801.9 L 452.8 806.2 L 448.0 810.4 L 442.9 814.4 L 437.5 818.2 L 432.0 821.9 L 426.2 825.3 L 420.3 828.5 L 414.3 831.5 L 408.3 834.3 L 402.2 836.8 L 396.2 839.0 L 390.2 840.9 L 384.3 842.6 L 384.3 842.6 L 378.4 844.0 L 372.3 845.1 L 366.1 845.8 L 359.7 846.4 L 353.3 846.7 L 346.7 846.7 L 340.1 846.5 L 333.5 846.1 L 326.8 845.5 L 320.2 844.7 L 313.6 843.7 L 307.1 842.5 L 300.6 841.2 L 294.3 839.8 L 288.0 838.2 L 282.0 836.5 L 282.0 836.5 L 276.0 834.7 L 270.0 832.7 L 264.1 830.4 L 258.2 828.0 L 252.3 825.4 L 246.4 822.6 L 240.7 819.6 L 235.0 816.5 L 229.3 813.3 L 223.8 809.9 L 218.4 806.3 L 213.0 802.7 L 207.8 798.9 L 202.7 795.0 L 197.8 791.0 L 193.0 787.0 L 193.0 787.0 L 188.3 782.5 L 183.8 777.4 L 179.3 771.7 L 175.0 765.7 L 170.7 759.4 L 166.6 752.9 L 162.6 746.4 L 158.6 739.9 L 154.8 733.6 L 151.1 727.6 L 147.4 722.1 L 143.9 717.1 L 140.5 712.7 L 137.1 709.2 L 133.9 706.5 L 130.7 704.8 L 130.7 704.8 L 127.6 704.1 L 124.4 704.2 L 121.1 704.9 L 117.8 706.3 L 114.6 708.3 L 111.5 710.8 L 108.5 713.7 L 105.7 717.1 L 103.0 720.8 L 100.6 724.8 L 98.5 729.0 L 96.8 733.4 L 95.3 737.9 L 94.3 742.4 L 93.7 747.0 L 93.6 751.4 L 93.6 751.4 L 94.1 756.0 L 95.1 760.9 L 96.7 766.1 L 98.7 771.6 L 101.1 777.3 L 103.8 783.2 L 106.8 789.3 L 110.0 795.4 L 113.3 801.7 L 116.8 808.1 L 120.2 814.5 L 123.6 820.8 L 126.9 827.2 L 130.1 833.5 L 133.0 839.6 L 135.7 845.6 L 135.7 845.6 L 138.2 851.6 L 140.6 857.6 L 142.9 863.6 L 145.2 869.6 L 147.5 875.7 L 149.8 881.7 L 152.0 887.8 L 154.3 893.8 L 156.6 899.9 L 158.8 905.9 L 161.2 911.9 L 163.5 917.9 L 165.9 923.9 L 168.4 929.9 L 171.0 935.8 L 173.6 941.7 L 173.6 941.7 L 176.2 947.5 L 178.9 953.4 L 181.5 959.3 L 184.2 965.2 L 186.9 971.2 L 189.6 977.1 L 192.4 982.9 L 195.2 988.8 L 198.1 994.5 L 201.1 1000.3 L 204.1 1005.9 L 207.3 1011.5 L 210.6 1017.0 L 214.0 1022.4 L 217.6 1027.7 L 221.3 1032.8 L 221.3 1032.8 L 225.2 1037.9 L 229.2 1042.8 L 233.4 1047.6 L 237.7 1052.4 L 242.1 1057.0 L 246.6 1061.6 L 251.2 1066.1 L 255.9 1070.6 L 260.7 1075.0 L 265.5 1079.3 L 270.4 1083.6 L 275.3 1087.8 L 280.2 1092.1 L 285.1 1096.3 L 290.1 1100.4 L 295.0 1104.6 L 295.0 1104.6 L 299.9 1108.7 L 304.9 1112.8 L 310.0 1116.7 L 315.1 1120.6 L 320.3 1124.4 L 325.5 1128.2 L 330.8 1132.0 L 336.1 1135.7 L 341.4 1139.4 L 346.7 1143.1 L 351.9 1146.9 L 357.2 1150.6 L 362.4 1154.4 L 367.6 1158.2 L 372.8 1162.1 L 377.9 1166.1 L 377.9 1166.1 L 382.9 1170.1 L 388.0 1174.1 L 392.9 1178.2 L 397.9 1182.4 L 402.8 1186.5 L 407.8 1190.7 L 412.7 1194.9 L 417.6 1199.1 L 422.5 1203.3 L 427.4 1207.5 L 432.3 1211.6 L 437.3 1215.8 L 442.2 1219.9 L 447.2 1224.0 L 452.2 1228.0 L 457.3 1232.0 L 457.3 1232.0 L 462.3 1236.1 L 467.3 1240.3 L 472.3 1244.5 L 477.3 1248.9 L 482.2 1253.3 L 487.2 1257.7 L 492.2 1262.0 L 497.3 1266.2 L 502.3 1270.4 L 507.5 1274.4 L 512.7 1278.1 L 518.0 1281.7 L 523.3 1285.0 L 528.8 1288.0 L 534.4 1290.7 L 540.0 1293.0 L 540.0 1293.0 L 546.0 1294.7 L 552.1 1295.9 L 558.5 1296.6 L 565.1 1296.9 L 571.8 1296.8 L 578.6 1296.5 L 585.4 1296.1 L 592.2 1295.6 L 599.0 1295.1 L 605.7 1294.6 L 612.3 1294.4 L 618.7 1294.4 L 624.8 1294.8 L 630.7 1295.7 L 636.3 1297.0 L 641.6 1299.0 L 641.6 1299.0 L 646.6 1301.5 L 651.3 1304.5 L 655.9 1307.9 L 660.3 1311.7 L 664.5 1315.8 L 668.6 1320.1 L 672.5 1324.7 L 676.3 1329.4 L 679.9 1334.2 L 683.4 1339.0 L 686.8 1343.9 L 690.0 1348.7 L 693.2 1353.3 L 696.3 1357.9 L 699.3 1362.2 L 702.2 1366.2 L 702.2 1366.2 L 705.0 1370.2 L 707.7 1374.0 L 710.4 1377.9 L 713.0 1381.7 L 715.4 1385.5 L 717.8 1389.3 L 720.0 1393.0 L 722.1 1396.7 L 724.1 1400.3 L 725.9 1403.9 L 727.6 1407.4 L 729.1 1410.9 L 730.5 1414.3 L 731.6 1417.7 L 732.7 1420.9 L 733.5 1424.1 L 733.5 1424.1 L 734.2 1427.3 L 734.6 1430.2 L 735.0 1433.1 L 735.1 1435.8 L 735.1 1438.5 L 735.0 1441.1 L 734.7 1443.6 L 734.3 1446.2 L 733.7 1448.7 L 733.0 1451.3 L 732.1 1453.8 L 731.1 1456.5 L 730.0 1459.2 L 728.7 1461.9 L 727.4 1464.8 L 725.9 1467.8 L 725.9 1467.8 L 724.3 1471.2 L 722.5 1474.9 L 720.7 1479.0 L 718.7 1483.4 L 716.6 1487.9 L 714.4 1492.5 L 712.0 1497.1 L 709.5 1501.6 L 706.9 1505.9 L 704.1 1509.9 L 701.1 1513.5 L 698.0 1516.7 L 694.7 1519.2 L 691.3 1521.2 L 687.7 1522.4 L 683.9 1522.7 L 683.9 1522.7 L 679.9 1522.3 L 675.6 1521.0 L 671.0 1519.1 L 666.2 1516.5 L 661.2 1513.5 L 656.0 1509.9 L 650.8 1506.0 L 645.4 1501.7 L 639.9 1497.2 L 634.4 1492.6 L 628.9 1487.8 L 623.4 1483.1 L 617.9 1478.4 L 612.6 1473.8 L 607.3 1469.5 L 602.3 1465.4 L 602.3 1465.4 L 597.3 1461.5 L 592.4 1457.4 L 587.5 1453.3 L 582.6 1449.2 L 577.7 1444.9 L 572.9 1440.7 L 568.0 1436.4 L 563.2 1432.1 L 558.4 1427.7 L 553.5 1423.4 L 548.7 1419.1 L 543.8 1414.8 L 539.0 1410.5 L 534.1 1406.2 L 529.1 1402.1 L 524.2 1397.9 L 524.2 1397.9 L 519.2 1393.8 L 514.2 1389.7 L 509.2 1385.6 L 504.2 1381.5 L 499.2 1377.4 L 494.2 1373.4 L 489.2 1369.3 L 484.2 1365.3 L 479.1 1361.3 L 474.0 1357.3 L 468.9 1353.4 L 463.8 1349.5 L 458.6 1345.6 L 453.4 1341.8 L 448.2 1338.0 L 442.9 1334.3 L 442.9 1334.3 L 437.6 1330.7 L 432.2 1327.1 L 426.8 1323.6 L 421.4 1320.1 L 416.0 1316.7 L 410.5 1313.3 L 405.0 1309.9 L 399.4 1306.6 L 393.9 1303.3 L 388.3 1300.0 L 382.8 1296.8 L 377.2 1293.5 L 371.6 1290.3 L 366.0 1287.1 L 360.4 1283.8 L 354.8 1280.6 L 354.8 1280.6 L 349.3 1277.4 L 343.6 1274.2 L 338.0 1271.1 L 332.3 1268.0 L 326.6 1265.0 L 320.9 1261.9 L 315.2 1258.9 L 309.5 1255.9 L 303.8 1252.9 L 298.1 1249.8 L 292.4 1246.7 L 286.8 1243.6 L 281.2 1240.4 L 275.6 1237.2 L 270.1 1233.9 L 264.6 1230.5 L 264.6 1230.5 L 259.1 1227.1 L 253.7 1223.7 L 248.2 1220.2 L 242.8 1216.7 L 237.4 1213.2 L 232.0 1209.6 L 226.6 1206.0 L 221.3 1202.4 L 216.0 1198.7 L 210.7 1195.0 L 205.5 1191.2 L 200.3 1187.3 L 195.2 1183.4 L 190.1 1179.5 L 185.1 1175.4 L 180.2 1171.3 L 180.2 1171.3 L 175.3 1167.2 L 170.4 1163.0 L 165.5 1158.7 L 160.7 1154.4 L 155.9 1150.0 L 151.2 1145.6 L 146.5 1141.1 L 141.9 1136.6 L 137.3 1132.0 L 132.8 1127.4 L 128.4 1122.7 L 124.0 1117.9 L 119.8 1113.1 L 115.6 1108.2 L 111.5 1103.2 L 107.6 1098.2 L 107.6 1098.2 L 103.7 1093.1 L 100.0 1087.9 L 96.3 1082.6 L 92.8 1077.3 L 89.4 1071.8 L 86.0 1066.3 L 82.8 1060.8 L 79.5 1055.2 L 76.4 1049.6 L 73.2 1043.9 L 70.1 1038.2 L 67.1 1032.5 L 64.0 1026.9 L 60.9 1021.2 L 57.8 1015.5 L 54.7 1009.8 L 54.7 1009.8 L 51.7 1004.2 L 48.6 998.5 L 45.6 992.8 L 42.7 987.1 L 39.8 981.3 L 36.9 975.5 L 34.1 969.8 L 31.2 964.0 L 28.4 958.2 L 25.5 952.4 L 22.6 946.6 L 19.7 940.8 L 16.8 935.1 L 13.9 929.4 L 10.8 923.6 L 7.8 918.0 L 7.8 918.0 L 4.7 912.3 L 1.5 906.7 L 0.0 904.0" fill="none" stroke="#ff3ea5" stroke-width="6.0" stroke-opacity="0.9"/><path d="M 232.1 648.1 L 231.9 648.4 L 231.7 648.8 L 231.4 649.3 L 231.1 649.8 L 230.8 650.4 L 230.4 651.0 L 230.1 651.6 L 229.7 652.3 L 229.3 653.0 L 228.9 653.7 L 228.5 654.4 L 228.1 655.1 L 227.8 655.8 L 227.4 656.4 L 227.0 657.1 L 226.7 657.7 L 226.7 657.7 L 226.4 658.3 L 226.0 658.9 L 225.7 659.5 L 225.4 660.1 L 225.1 660.7 L 224.7 661.3 L 224.4 662.0 L 224.1 662.6 L 223.8 663.2 L 223.4 663.8 L 223.1 664.4 L 222.8 665.0 L 222.5 665.6 L 222.1 666.2 L 221.8 666.8 L 221.5 667.5 L 221.5 667.5 L 221.2 668.1 L 220.8 668.7 L 220.5 669.4 L 220.1 670.1 L 219.7 670.8 L 219.4 671.5 L 219.0 672.3 L 218.6 673.0 L 218.3 673.6 L 217.9 674.3 L 217.6 674.9 L 217.3 675.5 L 217.0 676.0 L 216.8 676.5 L 216.6 676.9 L 216.4 677.2" fill="none" stroke="#ff3ea5" stroke-width="6.0" stroke-opacity="0.9"/></g><g id="clips"><circle cx="0.0" cy="210.9" r="2" fill="none" stroke="#0b5" stroke-width="0.6"/><circle cx="0.0" cy="904.0" r="2" fill="none" stroke="#0b5" stroke-width="0.6"/><circle cx="232.1" cy="648.1" r="2" fill="none" stroke="#0b5" stroke-width="0.6"/></g><g id="power"><circle cx="0.0" cy="904.0" r="5" fill="none" stroke="#e33" stroke-width="1"/><circle cx="0.0" cy="210.9" r="5" fill="none" stroke="#e33" stroke-width="1"/></g><g id="bridges"><circle cx="228.9" cy="653.8" r="9" fill="none" stroke="#e6a817" stroke-width="1.5"/><circle cx="227.5" cy="656.5" r="9" fill="none" stroke="#e6a817" stroke-width="1.5"/><circle cx="225.5" cy="660.2" r="9" fill="none" stroke="#e6a817" stroke-width="1.5"/></g></svg>