<svg xmlns="http://www.w3.org/2000/svg" width="2000mm" height="1000mm" viewBox="0 0 2000 1000"><g id="outline"><rect x="0" y="0" width="2000" height="1000" fill="none" stroke="#000" stroke-width="1"/></g><g id="channels"><path d="M 511.4 0.0 L 507.9 0.5 L 500.9 1.5 L 494.0 2.7 L 487.1 4.1 L 480.2 5.5 L 473.5 7.3 L 466.9 9.1 L 460.4 11.3 L 454.0 13.8 L 447.8 16.4 L 447.8 16.4 L 441.7 19.5 L 435.7 22.8 L 429.9 26.4 L 424.1 30.2 L 418.5 34.2 L 412.9 38.4 L 407.4 42.9 L 402.0 47.4 L 396.6 52.0 L 391.4 56.8 L 386.2 61.7 L 381.1 66.5 L 375.9 71.5 L 370.8 76.4 L 365.9 81.3 L 360.8 86.2 L 360.8 86.2 L 355.9 91.1 L 351.1 96.2 L 346.3 101.2 L 341.6 106.5 L 337.0 111.8 L 332.5 117.1 L 328.0 122.5 L 323.6 128.0 L 319.2 133.5 L 314.8 138.9 L 310.4 144.5 L 306.0 150.0 L 301.7 155.6 L 297.3 161.1 L 292.9 166.6 L 288.5 172.0 L 288.5 172.0 L 284.1 177.5 L 279.7 183.0 L 275.4 188.6 L 271.0 194.0 L 266.7 199.5 L 262.4 205.1 L 258.2 210.6 L 253.9 216.2 L 249.6 221.7 L 245.3 227.3 L 241.1 232.9 L 236.8 238.5 L 232.5 244.0 L 228.3 249.6 L 224.0 255.2 L 219.7 260.7 L 219.7 260.7 L 215.4 266.3 L 211.2 271.9 L 206.9 277.5 L 202.7 283.1 L 198.5 288.7 L 194.2 294.2 L 190.0 299.8 L 185.8 305.4 L 181.5 311.0 L 177.3 316.6 L 173.1 322.3 L 168.8 327.9 L 164.6 333.5 L 160.3 338.9 L 156.0 344.5 L 151.7 350.1 L 151.7 350.1 L 147.4 355.6 L 142.9 361.2 L 138.4 366.6 L 133.8 372.1 L 129.2 377.5 L 124.6 382.9 L 120.1 388.4 L 115.5 393.9 L 111.0 399.3 L 106.5 404.8 L 102.1 410.3 L 97.9 415.8 L 93.7 421.4 L 89.8 427.0 L 85.9 432.6 L 82.3 438.3 L 82.3 438.3 L 78.7 444.3 L 74.6 450.9 L 70.6 457.8 L 66.3 465.0 L 62.1 472.4 L 57.9 479.8 L 53.9 487.2 L 50.1 494.5 L 46.6 501.4 L 43.6 508.1 L 41.1 514.1 L 39.2 519.6 L 37.9 524.5 L 37.4 528.6 L 37.7 531.6 L 38.9 533.7 L 38.9 533.7 L 41.3 534.7 L 44.6 534.7 L 48.8 533.9 L 53.9 532.3 L 59.7 530.0 L 66.0 527.2 L 72.8 523.8 L 80.0 520.1 L 87.5 516.0 L 95.2 511.7 L 102.9 507.3 L 110.6 502.9 L 118.0 498.5 L 125.2 494.3 L 132.0 490.5 L 138.3 486.9 L 138.3 486.9 L 144.4 483.4 L 150.4 479.9 L 156.3 476.2 L 162.2 472.5 L 168.1 468.7 L 173.9 464.8 L 179.7 460.9 L 185.7 457.0 L 191.5 453.0 L 197.3 449.0 L 203.1 445.1 L 209.0 441.2 L 214.9 437.3 L 220.8 433.5 L 226.7 429.7 L 232.7 426.1 L 232.7 426.1 L 238.7 422.6 L 244.8 419.0 L 250.9 415.5 L 257.0 412.0 L 263.1 408.5 L 269.2 405.1 L 275.4 401.6 L 281.5 398.3 L 287.6 394.9 L 293.8 391.6 L 299.9 388.2 L 306.1 384.8 L 312.3 381.4 L 318.5 378.1 L 324.5 374.8 L 330.7 371.3 L 330.7 371.3 L 336.8 367.9 L 343.0 364.5 L 349.2 361.2 L 355.3 357.8 L 361.5 354.4 L 367.7 351.0 L 373.7 347.7 L 379.9 344.3 L 386.1 341.0 L 392.2 337.6 L 398.4 334.2 L 404.6 330.8 L 410.7 327.5 L 416.8 324.1 L 423.0 320.8 L 429.2 317.4 L 429.2 317.4 L 435.3 314.0 L 441.4 310.5 L 447.5 306.9 L 453.6 303.4 L 459.7 299.8 L 465.8 296.3 L 471.7 292.7 L 477.8 289.2 L 483.9 285.7 L 490.1 282.2 L 496.2 278.8 L 502.4 275.5 L 508.6 272.3 L 514.8 269.2 L 521.2 266.1 L 527.6 263.3 L 527.6 263.3 L 533.9 260.6 L 540.4 257.8 L 546.8 255.1 L 553.4 252.6 L 559.9 250.0 L 566.4 247.6 L 573.1 245.2 L 579.7 243.0 L 586.3 240.7 L 593.0 238.6 L 599.8 236.6 L 606.5 234.6 L 613.2 232.9 L 620.0 231.1 L 626.8 229.6 L 633.6 228.1 L 633.6 228.1 L 640.3 226.8 L 647.2 225.8 L 654.1 224.8 L 661.1 224.1 L 668.0 223.5 L 675.1 223.0 L 682.1 222.6 L 689.1 222.3 L 696.2 221.9 L 703.2 221.6 L 710.3 221.3 L 717.3 220.8 L 724.4 220.4 L 731.4 219.8 L 738.4 219.1 L 745.3 218.3 L 745.3 218.3 L 752.3 217.4 L 759.2 216.3 L 766.1 215.2 L 773.1 214.0 L 779.9 212.8 L 786.8 211.6 L 793.7 210.2 L 800.7 209.0 L 807.6 207.6 L 814.4 206.3 L 821.3 204.9 L 828.2 203.6 L 835.1 202.4 L 842.0 201.1 L 848.9 199.9 L 855.9 198.7 L 855.9 198.7 L 862.8 197.6 L 869.7 196.6 L 876.6 195.4 L 883.6 194.4 L 890.5 193.4 L 897.5 192.3 L 904.3 191.3 L 911.3 190.2 L 918.3 189.2 L 925.2 188.3 L 932.2 187.2 L 939.1 186.3 L 946.0 185.2 L 953.0 184.3 L 959.9 183.3 L 966.9 182.3 L 966.9 182.3 L 973.9 181.3 L 980.8 180.4 L 987.8 179.5 L 994.7 178.6 L 1001.7 177.8 L 1008.6 176.9 L 1015.6 176.1 L 1022.5 175.2 L 1029.6 174.3 L 1036.6 173.4 L 1043.5 172.5 L 1050.4 171.5 L 1057.3 170.5 L 1064.3 169.4 L 1071.2 168.3 L 1078.2 167.0 L 1078.2 167.0 L 1085.0 165.8 L 1091.9 164.6 L 1098.8 163.2 L 1105.7 161.9 L 1112.5 160.5 L 1119.4 159.1 L 1126.3 157.6 L 1133.2 156.2 L 1140.1 154.7 L 1146.9 153.1 L 1153.7 151.5 L 1160.6 149.7 L 1167.3 148.0 L 1174.1 146.2 L 1180.8 144.4 L 1187.6 142.4 L 1187.6 142.4 L 1194.3 140.5 L 1201.0 138.4 L 1207.8 136.5 L 1214.5 134.4 L 1221.4 132.4 L 1228.1 130.3 L 1234.9 128.2 L 1241.5 125.9 L 1248.3 123.6 L 1254.9 121.2 L 1261.4 118.7 L 1267.9 116.0 L 1274.2 113.2 L 1280.6 110.4 L 1286.8 107.3 L 1292.8 104.0 L 1292.8 104.0 L 1298.8 100.5 L 1304.8 96.9 L 1310.6 93.2 L 1316.4 89.3 L 1322.2 85.4 L 1327.9 81.2 L 1333.4 77.0 L 1338.9 72.7 L 1344.4 68.2 L 1349.8 63.7 L 1355.2 59.1 L 1360.3 54.5 L 1365.6 49.7 L 1370.6 44.9 L 1375.7 40.0 L 1380.7 35.2 L 1380.7 35.2 L 1385.5 30.2 L 1390.3 25.2 L 1394.9 19.9 L 1399.5 14.6 L 1404.1 9.3 L 1408.4 3.8 L 1411.4 0.0" fill="none" stroke="#2b6bff" stroke-width="6.0" stroke-opacity="0.9"/><path d="M 1631.7 0.0 L 1631.0 1.7 L 1628.7 8.1 L 1626.6 14.5 L 1624.4 20.9 L 1622.4 27.4 L 1620.3 33.8 L 1618.1 40.2 L 1615.9 46.5 L 1613.5 52.7 L 1611.0 58.7 L 1608.1 64.5 L 1605.1 70.2 L 1601.8 75.6 L 1598.1 80.8 L 1598.1 80.8 L 1594.1 85.7 L 1590.0 90.5 L 1585.4 95.1 L 1580.8 99.5 L 1575.9 103.8 L 1570.9 107.9 L 1565.7 112.0 L 1560.4 115.9 L 1555.0 119.7 L 1549.5 123.4 L 1543.9 127.1 L 1538.3 130.6 L 1532.6 134.0 L 1526.9 137.4 L 1521.2 140.7 L 1515.6 143.9 L 1515.6 143.9 L 1509.9 147.1 L 1504.0 150.0 L 1498.2 152.8 L 1492.1 155.4 L 1486.0 157.9 L 1479.9 160.3 L 1473.6 162.6 L 1467.3 164.9 L 1461.1 167.2 L 1454.7 169.4 L 1448.5 171.7 L 1442.3 174.0 L 1436.1 176.5 L 1430.0 179.0 L 1424.0 181.7 L 1417.9 184.5 L 1417.9 184.5 L 1412.0 187.4 L 1406.2 190.4 L 1400.3 193.4 L 1394.4 196.5 L 1388.7 199.7 L 1382.9 202.9 L 1377.1 206.1 L 1371.3 209.4 L 1365.7 212.7 L 1360.0 216.1 L 1354.3 219.5 L 1348.7 223.0 L 1343.0 226.4 L 1337.4 229.9 L 1331.8 233.4 L 1326.2 237.0 L 1326.2 237.0 L 1320.7 240.5 L 1315.2 244.3 L 1309.8 248.0 L 1304.4 251.8 L 1299.0 255.6 L 1293.7 259.5 L 1288.4 263.5 L 1283.1 267.4 L 1277.8 271.3 L 1272.5 275.3 L 1267.1 279.3 L 1261.8 283.2 L 1256.5 287.1 L 1251.2 291.0 L 1245.8 294.8 L 1240.4 298.6 L 1240.4 298.6 L 1235.0 302.4 L 1229.6 306.2 L 1224.2 310.0 L 1218.7 313.8 L 1213.3 317.5 L 1207.9 321.3 L 1202.5 325.1 L 1197.0 328.8 L 1191.4 332.5 L 1186.0 336.2 L 1180.5 339.9 L 1175.0 343.6 L 1169.5 347.2 L 1164.0 350.8 L 1158.4 354.3 L 1152.8 357.8 L 1152.8 357.8 L 1147.1 361.2 L 1141.5 364.6 L 1135.8 368.0 L 1130.1 371.4 L 1124.4 374.8 L 1118.8 378.2 L 1113.0 381.5 L 1107.3 384.8 L 1101.5 388.0 L 1095.7 391.2 L 1089.9 394.4 L 1084.1 397.5 L 1078.2 400.6 L 1072.4 403.6 L 1066.4 406.5 L 1060.5 409.3 L 1060.5 409.3 L 1054.6 412.2 L 1048.6 415.0 L 1042.6 417.8 L 1036.6 420.6 L 1030.6 423.3 L 1024.5 426.0 L 1018.4 428.7 L 1012.3 431.2 L 1006.2 433.7 L 1000.1 436.2 L 993.9 438.6 L 987.7 440.9 L 981.5 443.2 L 975.2 445.3 L 969.0 447.4 L 962.7 449.4 L 962.7 449.4 L 956.4 451.4 L 950.1 453.1 L 943.8 454.9 L 937.4 456.6 L 931.0 458.1 L 924.5 459.7 L 918.1 461.2 L 911.7 462.5 L 905.2 463.9 L 898.7 465.2 L 892.1 466.4 L 885.7 467.6 L 879.1 468.8 L 872.6 469.9 L 866.2 471.1 L 859.6 472.1 L 859.6 472.1 L 853.1 473.2 L 846.6 474.0 L 839.9 474.8 L 833.4 475.4 L 826.7 476.1 L 820.2 476.7 L 813.6 477.2 L 806.9 477.7 L 800.4 478.2 L 793.7 478.8 L 787.1 479.4 L 780.6 480.1 L 774.0 480.9 L 767.5 481.8 L 761.0 482.9 L 754.5 484.0 L 754.5 484.0 L 748.0 485.3 L 741.6 486.6 L 735.1 487.8 L 728.6 489.2 L 722.1 490.5 L 715.6 492.0 L 709.2 493.6 L 702.8 495.1 L 696.4 496.9 L 690.0 498.7 L 683.8 500.7 L 677.4 502.6 L 671.3 504.9 L 665.2 507.2 L 659.2 509.8 L 653.3 512.5 L 653.3 512.5 L 647.5 515.4 L 641.8 518.5 L 636.2 521.8 L 630.6 525.3 L 625.2 528.9 L 619.7 532.6 L 614.4 536.6 L 609.1 540.5 L 603.7 544.5 L 598.5 548.7 L 593.3 552.8 L 588.1 557.0 L 582.8 561.2 L 577.7 565.3 L 572.5 569.4 L 567.3 573.5 L 567.3 573.5 L 562.1 577.6 L 556.8 581.6 L 551.7 585.8 L 546.6 590.0 L 541.6 594.1 L 536.4 598.4 L 531.4 602.6 L 526.4 607.0 L 521.3 611.2 L 516.3 615.5 L 511.3 619.8 L 506.2 624.1 L 501.2 628.4 L 496.2 632.7 L 491.2 637.0 L 486.0 641.2 L 486.0 641.2 L 481.0 645.4 L 475.9 649.7 L 470.8 653.9 L 465.7 658.2 L 460.7 662.4 L 455.6 666.6 L 450.5 670.9 L 445.4 675.1 L 440.4 679.4 L 435.2 683.5 L 430.2 687.7 L 425.2 692.0 L 420.1 696.2 L 415.0 700.5 L 409.9 704.7 L 404.9 708.9 L 404.9 708.9 L 399.7 713.2 L 394.6 717.4 L 389.6 721.6 L 384.5 725.8 L 379.3 729.9 L 374.1 734.1 L 369.0 738.3 L 364.0 742.4 L 358.8 746.7 L 353.7 750.9 L 348.7 755.1 L 343.5 759.4 L 338.5 763.6 L 333.6 768.0 L 328.6 772.3 L 323.7 776.8 L 323.7 776.8 L 318.9 781.2 L 313.9 785.7 L 309.1 790.1 L 304.3 794.7 L 299.5 799.3 L 294.8 803.8 L 290.0 808.4 L 285.3 813.0 L 280.6 817.7 L 275.9 822.3 L 271.2 827.0 L 266.7 831.7 L 262.0 836.4 L 257.4 841.2 L 252.9 846.0 L 248.3 850.7 L 248.3 850.7 L 243.9 855.6 L 239.4 860.6 L 235.1 865.6 L 230.9 870.7 L 226.7 875.8 L 222.5 881.0 L 218.3 886.2 L 214.2 891.3 L 210.0 896.5 L 205.7 901.6 L 201.4 906.7 L 197.1 911.6 L 192.7 916.4 L 188.2 921.2 L 183.5 925.9 L 178.7 930.3 L 178.7 930.3 L 173.7 934.7 L 168.8 938.9 L 163.8 943.1 L 158.7 947.4 L 153.4 951.5 L 148.2 955.5 L 142.9 959.5 L 137.5 963.4 L 132.1 967.1 L 126.6 970.8 L 121.0 974.4 L 115.4 978.0 L 109.8 981.3 L 104.0 984.6 L 98.4 987.7 L 92.5 990.7 L 92.5 990.7 L 86.6 993.6 L 80.7 996.3 L 74.6 998.9 L 71.9 1000.0" fill="none" stroke="#2b6bff" stroke-width="6.0" stroke-opacity="0.9"/><path d="M 0.0 119.2 L 4.4 114.5 L 9.4 109.0 L 14.4 103.7 L 19.4 98.2 L 24.5 92.8 L 29.5 87.3 L 34.5 81.9 L 39.5 76.5 L 44.5 71.0 L 44.5 71.0 L 49.4 65.6 L 54.4 60.0 L 59.2 54.6 L 64.2 49.0 L 69.1 43.5 L 74.0 37.9 L 78.9 32.5 L 83.8 26.9 L 88.7 21.4 L 93.6 15.8 L 98.5 10.4 L 103.5 4.8 L 107.9 0.0" fill="none" stroke="#2b6bff" stroke-width="6.0" stroke-opacity="0.9"/></g><g id="clips"><circle cx="511.4" cy="0.0" r="2" fill="none" stroke="#0b5" stroke-width="0.6"/><circle cx="1411.4" cy="0.0" r="2" fill="none" stroke="#0b5" stroke-width="0.6"/><circle cx="1631.7" cy="0.0" r="2" fill="none" stroke="#0b5" stroke-width="0.6"/><circle cx="71.9" cy="1000.0" r="2" fill="none" stroke="#0b5" stroke-width="0.6"/><circle cx="0.0" cy="119.2" r="2" fill="none" stroke="#0b5" stroke-width="0.6"/><circle cx="107.9" cy="0.0" r="2" fill="none" stroke="#0b5" stroke-width="0.6"/></g><g id="power"><circle cx="0.0" cy="119.2" r="5" fill="none" stroke="#e33" stroke-width="1"/><circle cx="107.9" cy="0.0" r="5" fill="none" stroke="#e33" stroke-width="1"/><circle cx="511.4" cy="0.0" r="5" fill="none" stroke="#e33" stroke-width="1"/><circle cx="1411.4" cy="0.0" r="5" fill="none" stroke="#e33" stroke-width="1"/><circle cx="1631.7" cy="0.0" r="5" fill="none" stroke="#e33" stroke-width="1"/><circle cx="71.9" cy="1000.0" r="5" fill="none" stroke="#e33" stroke-width="1"/></g><g id="bridges"></g></svg>