<svg xmlns="http://www.w3.org/2000/svg" width="2000mm" height="1000mm" viewBox="0 0 2000 1000"><g id="outline"><rect x="0" y="0" width="2000" height="1000" fill="none" stroke="#000" stroke-width="1"/></g><g id="channels"><path d="M 1118.9 1000.0 L 1118.4 999.4 L 1114.3 994.3 L 1110.3 989.3 L 1106.3 984.2 L 1102.3 979.1 L 1098.4 973.9 L 1094.5 968.8 L 1090.6 963.6 L 1086.8 958.4 L 1083.1 953.1 L 1079.5 947.8 L 1075.9 942.4 L 1072.5 937.0 L 1072.5 937.0 L 1069.1 931.6 L 1065.7 926.0 L 1062.4 920.5 L 1059.2 914.9 L 1056.0 909.3 L 1052.9 903.6 L 1049.9 897.9 L 1046.9 892.2 L 1043.9 886.4 L 1041.1 880.6 L 1038.3 874.8 L 1035.5 868.9 L 1032.8 863.1 L 1030.2 857.2 L 1027.7 851.3 L 1025.2 845.3 L 1025.2 845.3 L 1022.8 839.3 L 1020.6 833.3 L 1018.5 827.2 L 1016.4 821.1 L 1014.5 815.0 L 1012.6 808.8 L 1010.8 802.6 L 1009.0 796.4 L 1007.2 790.2 L 1005.5 783.9 L 1003.8 777.7 L 1002.0 771.5 L 1000.2 765.2 L 998.4 759.0 L 996.5 752.9 L 994.5 746.7 L 994.5 746.7 L 992.5 740.6 L 990.5 734.4 L 988.6 728.3 L 986.6 722.1 L 984.6 716.0 L 982.7 709.8 L 980.7 703.6 L 978.7 697.5 L 976.6 691.4 L 974.5 685.3 L 972.4 679.2 L 970.2 673.1 L 968.0 667.1 L 965.7 661.0 L 963.4 655.0 L 960.9 649.1 L 960.9 649.1 L 958.3 643.2 L 955.5 637.3 L 952.6 631.5 L 949.6 625.8 L 946.4 620.0 L 943.2 614.3 L 940.0 608.6 L 936.8 602.9 L 933.6 597.2 L 930.5 591.5 L 927.5 585.8 L 924.5 580.1 L 921.8 574.3 L 919.2 568.4 L 916.9 562.6 L 914.8 556.6 L 914.8 556.6 L 912.8 550.4 L 910.6 543.7 L 908.4 536.6 L 906.2 529.2 L 904.1 521.7 L 902.0 514.2 L 900.1 506.6 L 898.4 499.3 L 896.9 492.1 L 895.8 485.3 L 895.0 479.0 L 894.6 473.3 L 894.7 468.2 L 895.3 463.8 L 896.4 460.3 L 898.2 457.8 L 898.2 457.8 L 900.7 456.3 L 904.0 455.5 L 908.0 455.5 L 912.5 456.2 L 917.6 457.4 L 923.0 459.3 L 928.8 461.6 L 934.9 464.3 L 941.1 467.3 L 947.4 470.7 L 953.7 474.2 L 959.9 477.9 L 965.9 481.7 L 971.7 485.5 L 977.1 489.2 L 982.0 492.9 L 982.0 492.9 L 986.7 496.6 L 991.2 500.6 L 995.6 504.9 L 999.9 509.5 L 1004.1 514.3 L 1008.3 519.3 L 1012.4 524.4 L 1016.4 529.6 L 1020.5 534.9 L 1024.5 540.3 L 1028.5 545.7 L 1032.5 551.0 L 1036.6 556.3 L 1040.8 561.4 L 1045.0 566.5 L 1049.3 571.4 L 1049.3 571.4 L 1053.6 576.1 L 1058.0 580.9 L 1062.4 585.6 L 1066.9 590.3 L 1071.3 594.9 L 1075.8 599.6 L 1080.3 604.2 L 1084.8 608.8 L 1089.3 613.5 L 1093.8 618.1 L 1098.3 622.7 L 1102.8 627.3 L 1107.4 631.9 L 1111.8 636.6 L 1116.3 641.2 L 1120.8 645.9 L 1120.8 645.9 L 1125.3 650.6 L 1129.8 655.2 L 1134.4 659.8 L 1138.9 664.3 L 1143.6 668.9 L 1148.2 673.4 L 1152.8 678.0 L 1157.3 682.6 L 1161.9 687.2 L 1166.4 691.8 L 1170.8 696.5 L 1175.2 701.3 L 1179.4 706.1 L 1183.6 711.0 L 1187.6 716.0 L 1191.6 721.0 L 1191.6 721.0 L 1195.4 726.2 L 1199.1 731.4 L 1202.7 736.8 L 1206.2 742.2 L 1209.6 747.6 L 1213.0 753.1 L 1216.3 758.7 L 1219.5 764.3 L 1222.7 769.9 L 1225.9 775.5 L 1229.0 781.2 L 1232.1 786.9 L 1235.2 792.6 L 1238.2 798.3 L 1241.3 804.0 L 1244.3 809.7 L 1244.3 809.7 L 1247.4 815.4 L 1250.3 821.1 L 1253.3 826.9 L 1256.1 832.7 L 1258.9 838.5 L 1261.7 844.3 L 1264.5 850.1 L 1267.2 856.0 L 1270.0 861.8 L 1272.7 867.7 L 1275.5 873.5 L 1278.3 879.4 L 1281.1 885.2 L 1283.9 891.0 L 1286.8 896.8 L 1289.8 902.5 L 1289.8 902.5 L 1292.8 908.2 L 1295.8 913.9 L 1298.9 919.6 L 1302.1 925.2 L 1305.2 930.9 L 1308.4 936.5 L 1311.5 942.1 L 1314.7 947.7 L 1317.9 953.3 L 1321.1 959.0 L 1324.3 964.6 L 1327.5 970.2 L 1330.7 975.8 L 1333.9 981.4 L 1337.0 987.1 L 1340.1 992.7 L 1340.1 992.7 L 1343.3 998.4 L 1344.2 1000.0" fill="none" stroke="#00e5ff" stroke-width="6.0" stroke-opacity="0.9"/><path d="M 1442.4 1000.0 L 1441.4 997.6 L 1439.0 991.6 L 1436.6 985.6 L 1434.2 979.6 L 1431.8 973.7 L 1429.4 967.7 L 1427.0 961.7 L 1424.6 955.7 L 1422.2 949.7 L 1422.2 949.7 L 1419.7 943.7 L 1417.3 937.7 L 1414.9 931.7 L 1412.5 925.8 L 1410.0 919.8 L 1407.6 913.8 L 1405.2 907.8 L 1402.7 901.8 L 1400.3 895.9 L 1397.8 889.9 L 1395.4 883.9 L 1392.9 877.9 L 1390.4 872.0 L 1387.9 866.0 L 1385.4 860.1 L 1382.9 854.1 L 1382.9 854.1 L 1380.4 848.2 L 1377.8 842.2 L 1375.3 836.3 L 1372.8 830.4 L 1370.2 824.4 L 1367.6 818.5 L 1365.1 812.6 L 1362.5 806.6 L 1359.9 800.7 L 1357.3 794.8 L 1354.7 788.9 L 1352.1 783.0 L 1349.5 777.1 L 1346.8 771.2 L 1344.2 765.3 L 1341.5 759.4 L 1341.5 759.4 L 1338.9 753.5 L 1336.2 747.6 L 1333.6 741.7 L 1331.0 735.8 L 1328.4 729.9 L 1325.7 724.0 L 1323.1 718.1 L 1320.4 712.2 L 1317.7 706.3 L 1315.0 700.5 L 1312.3 694.6 L 1309.5 688.8 L 1306.6 683.0 L 1303.7 677.3 L 1300.7 671.5 L 1297.7 665.9 L 1297.7 665.9 L 1294.6 660.2 L 1291.4 654.6 L 1288.2 649.0 L 1284.9 643.5 L 1281.6 637.9 L 1278.2 632.4 L 1274.8 626.9 L 1271.4 621.5 L 1267.9 616.0 L 1264.4 610.6 L 1260.8 605.2 L 1257.3 599.8 L 1253.7 594.4 L 1250.1 589.0 L 1246.5 583.7 L 1242.8 578.3 L 1242.8 578.3 L 1239.2 573.0 L 1235.5 567.7 L 1231.7 562.5 L 1228.0 557.3 L 1224.1 552.1 L 1220.3 546.9 L 1216.4 541.7 L 1212.5 536.5 L 1208.6 531.4 L 1204.7 526.2 L 1200.8 521.1 L 1196.9 515.9 L 1193.0 510.8 L 1189.2 505.6 L 1185.3 500.4 L 1181.5 495.2 L 1181.5 495.2 L 1177.6 490.0 L 1173.8 484.8 L 1170.0 479.6 L 1166.2 474.4 L 1162.4 469.2 L 1158.6 463.9 L 1154.8 458.7 L 1151.0 453.5 L 1147.1 448.3 L 1143.3 443.1 L 1139.5 437.8 L 1135.7 432.6 L 1131.9 427.4 L 1128.1 422.2 L 1124.3 417.0 L 1120.5 411.7 L 1120.5 411.7 L 1116.7 406.5 L 1113.0 401.3 L 1109.2 396.0 L 1105.5 390.7 L 1101.7 385.5 L 1098.0 380.2 L 1094.2 374.9 L 1090.5 369.7 L 1086.7 364.4 L 1083.0 359.2 L 1079.2 353.9 L 1075.4 348.7 L 1071.5 343.5 L 1067.6 338.4 L 1063.7 333.3 L 1059.8 328.2 L 1059.8 328.2 L 1055.8 323.1 L 1051.8 318.0 L 1047.8 312.9 L 1043.8 307.8 L 1039.8 302.7 L 1035.8 297.6 L 1031.7 292.6 L 1027.6 287.5 L 1023.5 282.6 L 1019.3 277.6 L 1015.1 272.7 L 1010.8 267.9 L 1006.5 263.1 L 1002.1 258.4 L 997.6 253.8 L 993.1 249.2 L 993.1 249.2 L 988.5 244.7 L 983.9 240.2 L 979.3 235.6 L 974.6 231.0 L 969.8 226.4 L 965.1 221.9 L 960.2 217.5 L 955.3 213.1 L 950.4 208.9 L 945.3 204.8 L 940.2 200.9 L 935.0 197.1 L 929.8 193.5 L 924.4 190.2 L 918.9 187.1 L 913.4 184.3 L 913.4 184.3 L 907.6 181.8 L 901.8 179.7 L 895.8 177.8 L 889.6 176.2 L 883.4 174.8 L 877.1 173.7 L 870.7 172.6 L 864.2 171.7 L 857.8 170.9 L 851.3 170.0 L 844.8 169.2 L 838.3 168.3 L 831.9 167.4 L 825.6 166.3 L 819.3 165.1 L 813.1 163.6 L 813.1 163.6 L 806.9 162.2 L 800.4 160.9 L 793.7 159.8 L 786.9 158.7 L 780.0 157.6 L 773.1 156.6 L 766.3 155.4 L 759.6 154.2 L 753.1 152.8 L 746.8 151.2 L 740.9 149.4 L 735.3 147.2 L 730.1 144.8 L 725.4 141.9 L 721.2 138.6 L 717.7 134.9 L 717.7 134.9 L 714.8 130.4 L 712.5 125.1 L 710.7 119.2 L 709.4 112.6 L 708.5 105.6 L 708.0 98.3 L 707.8 90.8 L 707.9 83.3 L 708.1 75.8 L 708.5 68.4 L 708.9 61.4 L 709.3 54.8 L 709.7 48.8 L 710.0 43.4 L 710.1 38.9 L 710.0 35.3" fill="none" stroke="#00e5ff" stroke-width="6.0" stroke-opacity="0.9"/><path d="M 426.8 0.0 L 427.6 3.6 L 429.3 10.4 L 431.2 17.2 L 433.2 23.9 L 435.4 30.6 L 437.8 37.2 L 440.3 43.7 L 442.9 50.2 L 445.6 56.5 L 448.5 62.8 L 451.4 69.0 L 451.4 69.0 L 454.8 75.0 L 458.7 81.0 L 463.2 86.8 L 468.1 92.5 L 473.3 98.2 L 478.7 103.8 L 484.2 109.3 L 489.6 114.8 L 494.8 120.2 L 499.8 125.6 L 504.3 131.1 L 508.4 136.5 L 511.8 141.9 L 514.5 147.4 L 516.4 152.9 L 517.3 158.5 L 517.3 158.5 L 517.3 164.2 L 516.6 169.9 L 515.2 175.8 L 513.3 181.7 L 510.8 187.6 L 507.8 193.5 L 504.4 199.4 L 500.6 205.3 L 496.5 211.1 L 492.1 216.9 L 487.5 222.5 L 482.8 228.0 L 478.0 233.4 L 473.2 238.5 L 468.4 243.5 L 463.7 248.3 L 463.7 248.3 L 458.8 252.7 L 453.5 256.8 L 447.9 260.7 L 442.0 264.3 L 435.9 267.8 L 429.5 271.1 L 423.1 274.3 L 416.6 277.4 L 410.0 280.6 L 403.5 283.8 L 397.1 287.1 L 390.8 290.6 L 384.8 294.2 L 378.9 298.1 L 373.4 302.3 L 368.2 306.8 L 368.2 306.8 L 363.3 311.6 L 358.5 316.5 L 353.9 321.6 L 349.4 326.9 L 345.1 332.4 L 340.8 337.9 L 336.7 343.6 L 332.7 349.4 L 328.8 355.3 L 325.0 361.3 L 321.3 367.3 L 317.7 373.4 L 314.3 379.5 L 310.9 385.6 L 307.6 391.8 L 304.4 397.9 L 304.4 397.9 L 301.3 404.2 L 298.4 410.5 L 295.6 416.8 L 293.0 423.3 L 290.5 429.8 L 288.1 436.4 L 285.8 443.1 L 283.6 449.8 L 281.4 456.5 L 279.3 463.2 L 277.2 470.0 L 275.1 476.8 L 273.1 483.5 L 271.0 490.3 L 268.9 497.0 L 266.7 503.7 L 266.7 503.7 L 264.5 510.3 L 262.4 517.0 L 260.3 523.7 L 258.2 530.4 L 256.1 537.1 L 254.1 543.8 L 252.0 550.5 L 250.0 557.2 L 248.0 564.0 L 246.1 570.7 L 244.1 577.4 L 242.1 584.2 L 240.2 590.9 L 238.3 597.7 L 236.3 604.4 L 234.4 611.1 L 234.4 611.1 L 232.5 617.9 L 230.7 624.7 L 228.9 631.5 L 227.1 638.3 L 225.4 645.1 L 223.7 651.9 L 221.9 658.7 L 220.2 665.5 L 218.5 672.3 L 216.7 679.1 L 214.9 685.9 L 213.1 692.7 L 211.1 699.4 L 209.2 706.1 L 207.1 712.8 L 204.9 719.5 L 204.9 719.5 L 202.7 726.1 L 200.4 732.7 L 198.1 739.3 L 195.7 745.9 L 193.3 752.5 L 190.8 759.1 L 188.3 765.6 L 185.7 772.2 L 183.1 778.7 L 180.5 785.2 L 177.8 791.6 L 175.0 798.1 L 172.2 804.5 L 169.4 811.0 L 166.6 817.4 L 163.7 823.7 L 163.7 823.7 L 160.7 830.1 L 157.8 836.4 L 154.7 842.8 L 151.6 849.0 L 148.5 855.3 L 145.3 861.6 L 142.1 867.8 L 138.8 874.0 L 135.5 880.2 L 132.2 886.4 L 128.8 892.6 L 125.5 898.8 L 122.1 904.9 L 118.7 911.0 L 115.2 917.2 L 111.8 923.3 L 111.8 923.3 L 108.4 929.4 L 104.9 935.5 L 101.5 941.7 L 98.1 947.9 L 94.7 954.0 L 91.2 960.2 L 87.7 966.3 L 84.2 972.4 L 80.6 978.4 L 77.0 984.5 L 73.3 990.4 L 69.5 996.3 L 67.1 1000.0" fill="none" stroke="#00e5ff" stroke-width="6.0" stroke-opacity="0.9"/><path d="M 243.4 1000.0 L 244.3 998.4 L 247.4 992.9 L 250.5 987.3 L 253.5 981.7 L 256.4 976.1 L 259.3 970.5 L 262.1 964.8 L 264.9 959.1 L 267.6 953.3 L 270.2 947.6 L 272.9 941.9 L 272.9 941.9 L 275.4 936.1 L 277.9 930.3 L 280.2 924.5 L 282.5 918.6 L 284.8 912.7 L 286.9 906.7 L 289.0 900.8 L 291.1 894.8 L 293.1 888.8 L 295.1 882.8 L 297.1 876.7 L 299.0 870.7 L 300.9 864.7 L 302.8 858.6 L 304.8 852.6 L 306.7 846.6 L 306.7 846.6 L 308.6 840.5 L 310.5 834.5 L 312.4 828.5 L 314.2 822.4 L 316.0 816.4 L 317.8 810.3 L 319.6 804.2 L 321.4 798.2 L 323.1 792.1 L 324.8 786.0 L 326.5 779.9 L 328.2 773.8 L 329.8 767.7 L 331.5 761.6 L 333.1 755.4 L 334.7 749.3 L 334.7 749.3 L 336.2 743.2 L 337.6 736.9 L 338.9 730.6 L 340.1 724.2 L 341.3 717.8 L 342.4 711.4 L 343.5 705.0 L 344.7 698.7 L 345.9 692.3 L 347.1 686.1 L 348.5 679.9 L 350.0 673.8 L 351.5 667.8 L 353.3 662.0 L 355.2 656.3 L 357.4 650.7 L 357.4 650.7 L 359.8 645.1 L 362.4 639.1 L 365.1 632.8 L 368.1 626.4 L 371.2 619.9 L 374.3 613.5 L 377.6 607.2 L 381.0 601.2 L 384.3 595.6 L 387.7 590.5 L 391.1 585.9 L 394.5 582.0 L 397.8 578.9 L 400.9 576.7 L 404.0 575.5 L 407.0 575.4 L 407.0 575.4 L 409.8 576.4 L 412.7 578.7 L 415.5 581.9 L 418.2 586.1 L 421.0 591.2 L 423.7 596.8 L 426.4 603.1 L 429.1 609.8 L 431.7 616.8 L 434.3 624.1 L 436.8 631.5 L 439.4 638.8 L 441.9 646.0 L 444.3 652.9 L 446.8 659.5 L 449.2 665.6 L 449.2 665.6 L 451.5 671.4 L 453.7 677.3 L 455.9 683.2 L 458.0 689.2 L 460.1 695.1 L 462.1 701.1 L 464.1 707.1 L 466.1 713.2 L 468.1 719.2 L 470.0 725.2 L 472.1 731.2 L 474.1 737.2 L 476.2 743.2 L 478.4 749.2 L 480.6 755.1 L 482.9 761.0 L 482.9 761.0 L 485.3 766.8 L 487.7 772.6 L 490.2 778.4 L 492.8 784.2 L 495.3 790.0 L 498.0 795.8 L 500.6 801.5 L 503.3 807.2 L 506.0 813.0 L 508.6 818.7 L 511.3 824.5 L 514.0 830.2 L 516.6 836.0 L 519.2 841.7 L 521.7 847.5 L 524.3 853.3 L 524.3 853.3 L 526.8 859.1 L 529.3 864.9 L 531.8 870.7 L 534.3 876.5 L 536.8 882.3 L 539.3 888.2 L 541.8 894.0 L 544.2 899.8 L 546.7 905.7 L 549.1 911.5 L 551.4 917.4 L 553.8 923.2 L 556.0 929.1 L 558.3 935.1 L 560.4 941.0 L 562.5 946.9 L 562.5 946.9 L 564.6 952.9 L 566.5 958.9 L 568.5 964.9 L 570.3 971.0 L 572.2 977.0 L 574.0 983.1 L 575.7 989.2 L 577.4 995.2 L 578.7 1000.0" fill="none" stroke="#00e5ff" stroke-width="6.0" stroke-opacity="0.9"/><path d="M 614.7 18.9 L 613.2 19.0 L 611.3 19.2 L 609.2 19.3 L 606.9 19.5 L 604.3 19.6 L 601.6 19.8 L 598.7 20.0 L 595.7 20.3 L 592.6 20.5 L 589.4 20.7 L 586.2 21.0 L 583.1 21.2 L 580.0 21.5 L 576.9 21.7 L 574.0 22.0 L 571.2 22.2 L 571.2 22.2 L 568.5 22.5 L 565.8 22.7 L 563.1 22.9 L 560.4 23.2 L 557.6 23.4 L 554.9 23.7 L 552.2 24.0 L 549.5 24.2 L 546.8 24.5 L 544.1 24.8 L 541.4 25.1 L 538.7 25.4 L 536.0 25.8 L 533.3 26.1 L 530.6 26.5 L 527.9 26.9 L 527.9 26.9 L 525.1 27.3 L 522.2 27.8 L 519.2 28.3 L 516.2 28.9 L 513.0 29.5 L 509.9 30.1 L 506.8 30.7 L 503.8 31.3 L 500.9 31.9 L 498.0 32.5 L 495.3 33.1 L 492.8 33.6 L 490.5 34.1 L 488.5 34.5 L 486.7 34.9 L 485.2 35.2" fill="none" stroke="#00e5ff" stroke-width="6.0" stroke-opacity="0.9"/></g><g id="clips"><circle cx="1118.9" cy="1000.0" r="2" fill="none" stroke="#0b5" stroke-width="0.6"/><circle cx="1344.2" cy="1000.0" r="2" fill="none" stroke="#0b5" stroke-width="0.6"/><circle cx="1442.4" cy="1000.0" r="2" fill="none" stroke="#0b5" stroke-width="0.6"/><circle cx="710.0" cy="35.3" r="2" fill="none" stroke="#0b5" stroke-width="0.6"/><circle cx="426.8" cy="0.0" r="2" fill="none" stroke="#0b5" stroke-width="0.6"/><circle cx="67.1" cy="1000.0" r="2" fill="none" stroke="#0b5" stroke-width="0.6"/><circle cx="243.4" cy="1000.0" r="2" fill="none" stroke="#0b5" stroke-width="0.6"/><circle cx="578.7" cy="1000.0" r="2" fill="none" stroke="#0b5" stroke-width="0.6"/><circle cx="614.7" cy="18.9" r="2" fill="none" stroke="#0b5" stroke-width="0.6"/><circle cx="485.2" cy="35.2" r="2" fill="none" stroke="#0b5" stroke-width="0.6"/></g><g id="power"><circle cx="426.8" cy="0.0" r="5" fill="none" stroke="#e33" stroke-width="1"/><circle cx="67.1" cy="1000.0" r="5" fill="none" stroke="#e33" stroke-width="1"/><circle cx="243.4" cy="1000.0" r="5" fill="none" stroke="#e33" stroke-width="1"/><circle cx="578.7" cy="1000.0" r="5" fill="none" stroke="#e33" stroke-width="1"/><circle cx="1118.9" cy="1000.0" r="5" fill="none" stroke="#e33" stroke-width="1"/><circle cx="1344.2" cy="1000.0" r="5" fill="none" stroke="#e33" stroke-width="1"/><circle cx="1442.4" cy="1000.0" r="5" fill="none" stroke="#e33" stroke-width="1"/></g><g id="bridges"></g></svg>