<svg xmlns="http://www.w3.org/2000/svg" width="2000mm" height="1000mm" viewBox="0 0 2000 1000"><g id="outline"><rect x="0" y="0" width="2000" height="1000" fill="none" stroke="#000" stroke-width="1"/></g><g id="channels"><path d="M 385.6 0.0 L 385.8 0.7 L 387.3 7.2 L 387.3 7.2 L 388.9 13.7 L 390.4 20.3 L 391.9 26.8 L 393.4 33.4 L 395.0 40.0 L 396.5 46.5 L 398.0 53.1 L 399.6 59.6 L 401.2 66.1 L 402.8 72.7 L 404.4 79.2 L 406.1 85.7 L 407.8 92.2 L 409.6 98.7 L 411.4 105.2 L 413.2 111.6 L 413.2 111.6 L 415.1 118.1 L 417.1 124.5 L 419.0 130.9 L 421.0 137.4 L 423.0 143.8 L 425.0 150.2 L 427.1 156.6 L 429.2 163.0 L 431.4 169.4 L 433.6 175.7 L 435.8 182.0 L 438.1 188.4 L 440.5 194.6 L 442.9 200.9 L 445.4 207.1 L 447.9 213.4 L 447.9 213.4 L 450.6 219.5 L 453.3 225.6 L 456.1 231.7 L 459.0 237.8 L 462.0 243.8 L 465.0 249.8 L 468.1 255.8 L 471.2 261.8 L 474.4 267.7 L 477.5 273.7 L 480.6 279.7 L 483.7 285.6 L 486.8 291.6 L 489.8 297.6 L 492.8 303.6 L 495.7 309.7 L 495.7 309.7 L 498.6 315.8 L 501.6 321.8 L 504.7 327.8 L 507.8 333.9 L 510.9 339.9 L 514.1 345.9 L 517.1 352.0 L 520.2 358.1 L 523.1 364.1 L 526.0 370.2 L 528.7 376.4 L 531.3 382.5 L 533.8 388.7 L 536.0 395.0 L 538.0 401.3 L 539.8 407.6 L 539.8 407.6 L 541.5 414.1 L 543.0 420.6 L 544.5 427.1 L 545.8 433.8 L 547.0 440.5 L 548.1 447.2 L 549.1 453.9 L 549.8 460.7 L 550.5 467.5 L 550.9 474.2 L 551.1 480.9 L 551.2 487.6 L 551.0 494.3 L 550.6 500.8 L 550.0 507.4 L 549.1 513.8 L 549.1 513.8 L 547.9 520.2 L 546.4 526.5 L 544.6 532.8 L 542.6 539.1 L 540.4 545.4 L 537.9 551.6 L 535.3 557.8 L 532.5 564.0 L 529.5 570.1 L 526.5 576.2 L 523.3 582.3 L 520.1 588.3 L 516.8 594.3 L 513.5 600.2 L 510.2 606.1 L 506.9 611.9 L 506.9 611.9 L 503.6 617.7 L 500.1 623.4 L 496.5 629.0 L 492.8 634.5 L 488.9 640.1 L 485.0 645.5 L 481.0 651.0 L 477.0 656.4 L 472.9 661.8 L 468.8 667.1 L 464.7 672.5 L 460.6 677.8 L 456.5 683.2 L 452.4 688.6 L 448.4 694.0 L 444.4 699.4 L 444.4 699.4 L 440.5 704.9 L 436.5 710.3 L 432.6 715.8 L 428.6 721.2 L 424.6 726.6 L 420.6 732.0 L 416.7 737.4 L 412.7 742.9 L 408.7 748.3 L 404.7 753.7 L 400.8 759.1 L 396.8 764.6 L 392.9 770.0 L 388.9 775.5 L 385.0 781.0 L 381.1 786.4 L 381.1 786.4 L 377.3 791.9 L 373.4 797.4 L 369.6 803.0 L 365.7 808.5 L 361.9 814.0 L 358.1 819.6 L 354.3 825.1 L 350.5 830.7 L 346.8 836.2 L 343.0 841.8 L 339.2 847.4 L 335.4 852.9 L 331.6 858.5 L 327.9 864.1 L 324.1 869.6 L 320.3 875.2 L 320.3 875.2 L 316.5 880.7 L 312.5 886.2 L 308.5 891.7 L 304.4 897.1 L 300.3 902.5 L 296.2 908.0 L 292.1 913.4 L 288.1 918.9 L 284.1 924.4 L 280.2 929.9 L 276.4 935.4 L 272.7 941.0 L 269.2 946.7 L 265.9 952.5 L 262.8 958.3 L 259.9 964.2 L 259.9 964.2 L 257.1 970.2 L 254.3 976.3 L 251.6 982.6 L 248.8 988.9 L 246.2 995.2 L 244.4 1000.0" fill="none" stroke="#39ff88" stroke-width="6.0" stroke-opacity="0.9"/><path d="M 445.1 1000.0 L 445.9 997.4 L 448.4 991.2 L 451.1 985.0 L 454.0 978.8 L 457.2 972.7 L 460.6 966.6 L 464.2 960.6 L 467.8 954.6 L 471.6 948.7 L 475.4 942.8 L 479.3 936.9 L 483.1 931.1 L 486.9 925.3 L 490.7 919.6 L 490.7 919.6 L 494.4 913.9 L 498.2 908.3 L 502.1 902.7 L 506.1 897.2 L 510.2 891.7 L 514.3 886.2 L 518.5 880.8 L 522.8 875.4 L 527.1 870.1 L 531.5 864.8 L 536.0 859.6 L 540.4 854.4 L 545.0 849.3 L 549.5 844.2 L 554.1 839.1 L 558.8 834.1 L 558.8 834.1 L 563.4 829.2 L 568.2 824.3 L 573.0 819.5 L 577.9 814.8 L 582.9 810.1 L 587.9 805.4 L 592.9 800.8 L 598.0 796.2 L 603.1 791.7 L 608.3 787.2 L 613.4 782.7 L 618.6 778.2 L 623.8 773.7 L 629.0 769.2 L 634.1 764.7 L 639.3 760.2 L 639.3 760.2 L 644.4 755.8 L 649.6 751.3 L 654.8 746.9 L 660.1 742.5 L 665.3 738.1 L 670.6 733.8 L 675.9 729.5 L 681.2 725.1 L 686.5 720.8 L 691.8 716.5 L 697.0 712.1 L 702.3 707.8 L 707.6 703.4 L 712.8 699.0 L 718.0 694.6 L 723.2 690.1 L 723.2 690.1 L 728.3 685.5 L 733.3 680.6 L 738.3 675.6 L 743.3 670.5 L 748.2 665.2 L 753.1 660.0 L 758.0 654.7 L 763.0 649.5 L 767.9 644.5 L 772.9 639.6 L 777.9 635.0 L 783.0 630.6 L 788.2 626.5 L 793.4 622.8 L 798.8 619.5 L 804.2 616.7 L 804.2 616.7 L 809.9 614.2 L 816.0 611.8 L 822.3 609.5 L 828.8 607.4 L 835.4 605.5 L 842.1 603.8 L 848.8 602.4 L 855.5 601.3 L 862.1 600.6 L 868.5 600.2 L 874.6 600.3 L 880.5 600.8 L 886.0 601.9 L 891.1 603.4 L 895.7 605.5 L 899.8 608.3 L 899.8 608.3 L 903.3 611.7 L 906.1 616.1 L 908.5 621.2 L 910.3 627.0 L 911.8 633.3 L 913.0 640.1 L 914.0 647.3 L 914.9 654.8 L 915.6 662.4 L 916.4 670.2 L 917.2 678.0 L 918.2 685.7 L 919.4 693.2 L 920.9 700.5 L 922.8 707.4 L 925.1 713.8 L 925.1 713.8 L 927.7 720.0 L 930.5 726.3 L 933.3 732.7 L 936.2 739.0 L 939.2 745.4 L 942.4 751.7 L 945.7 757.9 L 949.1 764.0 L 952.7 770.0 L 956.4 775.9 L 960.3 781.5 L 964.4 786.9 L 968.6 792.1 L 973.0 797.0 L 977.7 801.5 L 982.5 805.7 L 982.5 805.7 L 987.6 809.6 L 992.9 813.2 L 998.5 816.4 L 1004.4 819.4 L 1010.4 822.2 L 1016.6 824.7 L 1023.0 827.0 L 1029.5 829.2 L 1036.1 831.2 L 1042.7 833.1 L 1049.4 834.9 L 1056.2 836.6 L 1062.9 838.2 L 1069.6 839.8 L 1076.2 841.5 L 1082.8 843.1 L 1082.8 843.1 L 1089.3 844.7 L 1096.0 846.3 L 1102.6 847.9 L 1109.3 849.4 L 1116.1 850.8 L 1122.9 852.2 L 1129.7 853.4 L 1136.5 854.6 L 1143.4 855.6 L 1150.2 856.5 L 1157.1 857.3 L 1163.9 857.9 L 1170.7 858.4 L 1177.5 858.7 L 1184.3 858.8 L 1191.0 858.7 L 1191.0 858.7 L 1197.7 858.4 L 1204.5 858.1 L 1211.3 857.6 L 1218.2 857.0 L 1225.0 856.2 L 1231.9 855.3 L 1238.7 854.2 L 1245.6 853.0 L 1252.3 851.7 L 1259.0 850.1 L 1265.6 848.4 L 1272.1 846.5 L 1278.5 844.4 L 1284.8 842.0 L 1290.9 839.5 L 1296.9 836.8 L 1296.9 836.8 L 1302.8 833.8 L 1308.7 830.6 L 1314.6 827.2 L 1320.5 823.5 L 1326.3 819.7 L 1332.0 815.7 L 1337.6 811.5 L 1343.1 807.2 L 1348.4 802.6 L 1353.5 798.0 L 1358.5 793.1 L 1363.2 788.2 L 1367.7 783.1 L 1371.9 777.9 L 1375.8 772.6 L 1379.4 767.2 L 1379.4 767.2 L 1382.8 761.7 L 1385.9 755.9 L 1388.9 749.8 L 1391.6 743.6 L 1394.2 737.2 L 1396.5 730.6 L 1398.6 723.9 L 1400.5 717.2 L 1402.1 710.3 L 1403.6 703.5 L 1404.8 696.6 L 1405.7 689.7 L 1406.5 682.9 L 1407.0 676.1 L 1407.2 669.5 L 1407.2 662.9 L 1407.2 662.9 L 1406.9 656.4 L 1406.4 649.8 L 1405.6 643.1 L 1404.6 636.3 L 1403.4 629.6 L 1401.9 622.8 L 1400.2 616.0 L 1398.2 609.3 L 1396.1 602.7 L 1393.7 596.1 L 1391.1 589.7 L 1388.3 583.5 L 1385.3 577.4 L 1382.1 571.5 L 1378.7 565.8 L 1375.1 560.4 L 1375.1 560.4 L 1371.3 555.1 L 1367.2 550.0 L 1362.8 545.1 L 1358.1 540.2 L 1353.1 535.5 L 1348.0 530.9 L 1342.7 526.5 L 1337.2 522.2 L 1331.5 518.1 L 1325.7 514.1 L 1319.9 510.3 L 1313.9 506.6 L 1308.0 503.1 L 1301.9 499.8 L 1295.9 496.6 L 1289.9 493.7 L 1289.9 493.7 L 1283.9 490.9 L 1277.7 488.5 L 1271.4 486.3 L 1264.9 484.4 L 1258.4 482.7 L 1251.7 481.2 L 1245.0 479.8 L 1238.2 478.5 L 1231.5 477.2 L 1224.6 476.1 L 1217.8 474.9 L 1211.0 473.7 L 1204.2 472.4 L 1197.5 471.1 L 1190.8 469.6 L 1184.2 468.0 L 1184.2 468.0 L 1177.5 466.4 L 1170.6 465.0 L 1163.5 463.8 L 1156.3 462.7 L 1149.1 461.6 L 1141.8 460.5 L 1134.6 459.4 L 1127.5 458.1 L 1120.5 456.8 L 1113.7 455.2 L 1107.2 453.4 L 1100.9 451.4 L 1095.0 449.0 L 1089.6 446.2 L 1084.5 442.9 L 1080.0 439.2 L 1080.0 439.2 L 1075.9 435.0 L 1072.1 430.3 L 1068.5 425.2 L 1065.3 419.7 L 1062.3 413.9 L 1059.6 407.7 L 1057.2 401.4 L 1055.0 394.8 L 1053.2 388.1 L 1051.6 381.3 L 1050.3 374.5 L 1049.4 367.7 L 1048.6 360.9 L 1048.2 354.2 L 1048.1 347.7 L 1048.2 341.4 L 1048.2 341.4 L 1048.8 335.2 L 1050.0 328.9 L 1051.6 322.7 L 1053.6 316.4 L 1056.0 310.1 L 1058.7 303.9 L 1061.7 297.6 L 1064.8 291.3 L 1068.1 284.9 L 1071.4 278.6 L 1074.8 272.3 L 1078.1 265.9 L 1081.2 259.5 L 1084.3 253.2 L 1087.0 246.8 L 1089.5 240.4 L 1089.5 240.4 L 1091.8 234.0 L 1094.2 227.5 L 1096.5 221.1 L 1098.8 214.7 L 1101.1 208.2 L 1103.4 201.8 L 1105.6 195.3 L 1107.8 188.9 L 1109.9 182.4 L 1112.0 175.9 L 1114.0 169.3 L 1115.9 162.8 L 1117.7 156.2 L 1119.4 149.6 L 1121.0 143.0 L 1122.5 136.4 L 1122.5 136.4 L 1123.8 129.7 L 1125.0 123.0 L 1126.2 116.3 L 1127.2 109.6 L 1128.2 102.8 L 1129.0 96.0 L 1129.8 89.2 L 1130.6 82.4 L 1131.2 75.6 L 1131.8 68.8 L 1132.4 61.9 L 1132.9 55.1 L 1133.3 48.3 L 1133.8 41.4 L 1134.2 34.6 L 1134.6 27.8 L 1134.6 27.8 L 1134.9 21.0 L 1135.2 14.1 L 1135.5 7.3 L 1135.7 0.5 L 1135.7 0.0" fill="none" stroke="#39ff88" stroke-width="6.0" stroke-opacity="0.9"/><path d="M 1112.3 533.9 L 1113.4 533.9 L 1114.6 533.8 L 1116.1 533.7 L 1117.7 533.5 L 1119.4 533.4 L 1121.3 533.3 L 1123.3 533.1 L 1125.3 533.0 L 1127.4 532.8 L 1129.6 532.7 L 1131.7 532.6 L 1133.9 532.6 L 1136.0 532.5 L 1138.1 532.5 L 1140.1 532.6 L 1141.9 532.7 L 1141.9 532.7 L 1143.8 532.8 L 1145.6 532.9 L 1147.5 533.1 L 1149.4 533.3 L 1151.2 533.5 L 1153.1 533.7 L 1154.9 534.0 L 1156.8 534.2 L 1158.7 534.5 L 1160.5 534.9 L 1162.3 535.2 L 1164.1 535.6 L 1166.0 536.1 L 1167.7 536.5 L 1169.5 537.0 L 1171.3 537.6 L 1171.3 537.6 L 1173.1 538.2 L 1174.9 538.9 L 1176.8 539.7 L 1178.7 540.6 L 1180.7 541.5 L 1182.6 542.4 L 1184.5 543.4 L 1186.4 544.4 L 1188.2 545.3 L 1189.9 546.3 L 1191.6 547.2 L 1193.1 548.0 L 1194.5 548.8 L 1195.8 549.5 L 1196.9 550.1 L 1197.8 550.5" fill="none" stroke="#39ff88" stroke-width="6.0" stroke-opacity="0.9"/></g><g id="clips"><circle cx="385.6" cy="0.0" r="2" fill="none" stroke="#0b5" stroke-width="0.6"/><circle cx="244.4" cy="1000.0" r="2" fill="none" stroke="#0b5" stroke-width="0.6"/><circle cx="445.1" cy="1000.0" r="2" fill="none" stroke="#0b5" stroke-width="0.6"/><circle cx="1135.7" cy="0.0" r="2" fill="none" stroke="#0b5" stroke-width="0.6"/><circle cx="1112.3" cy="533.9" r="2" fill="none" stroke="#0b5" stroke-width="0.6"/><circle cx="1197.8" cy="550.5" r="2" fill="none" stroke="#0b5" stroke-width="0.6"/></g><g id="power"><circle cx="244.4" cy="1000.0" r="5" fill="none" stroke="#e33" stroke-width="1"/><circle cx="445.1" cy="1000.0" r="5" fill="none" stroke="#e33" stroke-width="1"/><circle cx="385.6" cy="0.0" r="5" fill="none" stroke="#e33" stroke-width="1"/><circle cx="1135.7" cy="0.0" r="5" fill="none" stroke="#e33" stroke-width="1"/></g></svg>