<svg xmlns="http://www.w3.org/2000/svg" width="2000mm" height="1000mm" viewBox="0 0 2000 1000"><g id="outline"><rect x="0" y="0" width="2000" height="1000" fill="none" stroke="#000" stroke-width="1"/></g><g id="channels"><path d="M 1830.1 901.7 L 1829.2 898.1 L 1828.0 893.8 L 1826.6 888.9 L 1825.0 883.3 L 1823.3 877.3 L 1821.5 870.9 L 1819.6 864.1 L 1817.6 857.0 L 1815.6 849.7 L 1813.6 842.3 L 1811.7 834.8 L 1809.8 827.3 L 1808.1 819.9 L 1806.4 812.7 L 1804.9 805.7 L 1803.6 799.0 L 1803.6 799.0 L 1802.5 792.5 L 1801.5 785.9 L 1800.6 779.3 L 1799.8 772.8 L 1799.0 766.2 L 1798.3 759.5 L 1797.7 752.9 L 1797.1 746.3 L 1796.5 739.6 L 1796.0 733.0 L 1795.4 726.3 L 1794.8 719.7 L 1794.2 713.1 L 1793.6 706.4 L 1792.9 699.8 L 1792.2 693.2 L 1792.2 693.2 L 1791.4 686.6 L 1790.6 680.0 L 1789.8 673.4 L 1789.0 666.8 L 1788.1 660.2 L 1787.3 653.6 L 1786.5 647.0 L 1785.6 640.4 L 1784.8 633.8 L 1783.9 627.2 L 1783.1 620.6 L 1782.2 614.0 L 1781.3 607.4 L 1780.4 600.8 L 1779.6 594.2 L 1778.7 587.6 L 1778.7 587.6 L 1777.8 581.1 L 1776.9 574.5 L 1775.9 567.9 L 1775.0 561.3 L 1774.0 554.7 L 1773.1 548.1 L 1772.1 541.5 L 1771.2 535.0 L 1770.2 528.4 L 1769.2 521.8 L 1768.3 515.2 L 1767.4 508.6 L 1766.5 502.0 L 1765.6 495.5 L 1764.7 488.9 L 1763.9 482.3 L 1763.9 482.3 L 1763.1 475.7 L 1762.4 469.0 L 1761.8 462.4 L 1761.2 455.8 L 1760.7 449.1 L 1760.2 442.5 L 1759.6 435.8 L 1759.1 429.2 L 1758.5 422.5 L 1757.9 415.9 L 1757.3 409.3 L 1756.5 402.7 L 1755.7 396.1 L 1754.8 389.5 L 1753.7 383.0 L 1752.5 376.5 L 1752.5 376.5 L 1751.2 370.0 L 1749.8 363.5 L 1748.3 357.0 L 1746.8 350.6 L 1745.1 344.2 L 1743.4 337.7 L 1741.6 331.3 L 1739.8 324.9 L 1737.9 318.6 L 1736.0 312.2 L 1734.0 305.8 L 1732.0 299.5 L 1729.9 293.2 L 1727.8 286.9 L 1725.7 280.6 L 1723.6 274.3 L 1723.6 274.3 L 1721.4 268.0 L 1719.2 261.8 L 1716.9 255.5 L 1714.5 249.3 L 1712.1 243.1 L 1709.6 237.0 L 1707.1 230.8 L 1704.6 224.6 L 1702.1 218.5 L 1699.5 212.3 L 1696.9 206.2 L 1694.4 200.0 L 1691.8 193.9 L 1689.3 187.7 L 1686.8 181.6 L 1684.3 175.4 L 1684.3 175.4 L 1681.8 169.2 L 1679.3 163.1 L 1676.8 156.9 L 1674.4 150.7 L 1671.9 144.5 L 1669.4 138.4 L 1666.9 132.2 L 1664.4 126.0 L 1661.9 119.9 L 1659.4 113.7 L 1657.0 107.5 L 1654.5 101.4 L 1652.0 95.2 L 1649.5 89.0 L 1647.1 82.8 L 1644.6 76.6 L 1644.6 76.6 L 1642.2 70.5 L 1639.6 64.3 L 1637.1 58.2 L 1634.5 52.0 L 1631.9 45.9 L 1629.3 39.7 L 1626.8 33.6 L 1624.2 27.4 L 1621.7 21.2 L 1619.2 15.1 L 1616.8 8.9 L 1614.4 2.7 L 1613.5 0.0" fill="none" stroke="#ffd23d" stroke-width="6.0" stroke-opacity="0.9"/><path d="M 915.7 0.0 L 917.0 4.8 L 918.8 11.2 L 920.6 17.6 L 922.4 24.0 L 924.2 30.4 L 926.0 36.8 L 927.8 43.2 L 929.6 49.6 L 931.4 56.0 L 933.3 62.4 L 935.2 68.7 L 937.2 75.1 L 939.3 81.4 L 939.3 81.4 L 941.3 87.7 L 943.3 94.1 L 945.3 100.5 L 947.2 106.9 L 949.2 113.3 L 951.2 119.6 L 953.2 126.0 L 955.3 132.4 L 957.5 138.7 L 959.7 145.0 L 962.0 151.2 L 964.4 157.4 L 967.0 163.5 L 969.6 169.5 L 972.5 175.4 L 975.5 181.3 L 975.5 181.3 L 978.6 187.0 L 981.9 192.7 L 985.3 198.4 L 988.9 204.0 L 992.5 209.5 L 996.3 215.0 L 1000.1 220.4 L 1004.1 225.8 L 1008.1 231.1 L 1012.2 236.4 L 1016.4 241.6 L 1020.6 246.7 L 1024.9 251.8 L 1029.2 256.9 L 1033.6 261.9 L 1037.9 266.9 L 1037.9 266.9 L 1042.4 271.7 L 1047.1 276.4 L 1052.0 281.0 L 1057.0 285.4 L 1062.0 289.8 L 1067.2 294.1 L 1072.4 298.4 L 1077.6 302.7 L 1082.8 307.0 L 1087.9 311.3 L 1093.0 315.6 L 1097.9 320.1 L 1102.7 324.7 L 1107.3 329.4 L 1111.8 334.2 L 1115.9 339.2 L 1115.9 339.2 L 1120.0 344.4 L 1123.9 349.6 L 1127.8 355.0 L 1131.5 360.4 L 1135.2 365.9 L 1138.8 371.5 L 1142.2 377.1 L 1145.6 382.9 L 1148.8 388.7 L 1152.0 394.5 L 1155.0 400.4 L 1157.9 406.3 L 1160.6 412.3 L 1163.3 418.3 L 1165.8 424.4 L 1168.2 430.5 L 1168.2 430.5 L 1170.4 436.7 L 1172.3 442.9 L 1174.0 449.3 L 1175.4 455.7 L 1176.8 462.2 L 1178.0 468.8 L 1179.1 475.4 L 1180.1 482.0 L 1181.1 488.7 L 1182.1 495.3 L 1183.2 502.0 L 1184.3 508.6 L 1185.5 515.2 L 1186.8 521.7 L 1188.4 528.2 L 1190.1 534.6 L 1190.1 534.6 L 1192.0 541.0 L 1193.9 547.3 L 1195.9 553.6 L 1197.9 560.0 L 1200.0 566.3 L 1202.2 572.5 L 1204.4 578.8 L 1206.7 585.1 L 1209.1 591.3 L 1211.5 597.5 L 1213.9 603.6 L 1216.5 609.8 L 1219.0 615.9 L 1221.7 622.0 L 1224.4 628.0 L 1227.2 634.1 L 1227.2 634.1 L 1230.1 640.0 L 1233.2 645.9 L 1236.4 651.7 L 1239.8 657.5 L 1243.3 663.3 L 1246.8 669.0 L 1250.4 674.7 L 1254.0 680.3 L 1257.6 686.0 L 1261.1 691.7 L 1264.6 697.4 L 1268.0 703.1 L 1271.2 708.9 L 1274.2 714.7 L 1277.1 720.6 L 1279.7 726.6 L 1279.7 726.6 L 1282.3 732.8 L 1285.2 739.3 L 1288.3 746.0 L 1291.4 752.9 L 1294.5 760.0 L 1297.6 767.1 L 1300.5 774.2 L 1303.1 781.1 L 1305.5 788.0 L 1307.5 794.6 L 1309.1 800.9 L 1310.1 806.9 L 1310.5 812.4 L 1310.2 817.5 L 1309.2 822.0 L 1307.3 825.9 L 1307.3 825.9 L 1304.4 829.2 L 1300.6 832.2 L 1295.9 834.9 L 1290.4 837.2 L 1284.3 839.1 L 1277.6 840.8 L 1270.5 842.1 L 1263.0 843.0 L 1255.4 843.7 L 1247.7 844.0 L 1239.9 844.0 L 1232.3 843.8 L 1225.0 843.2 L 1218.0 842.3 L 1211.4 841.1 L 1205.5 839.7 L 1205.5 839.7 L 1199.9 837.8 L 1194.3 835.6 L 1188.7 832.8 L 1183.3 829.8 L 1177.9 826.3 L 1172.6 822.6 L 1167.4 818.5 L 1162.3 814.2 L 1157.3 809.7 L 1152.4 805.0 L 1147.7 800.1 L 1143.2 795.2 L 1138.8 790.1 L 1134.6 785.0 L 1130.5 779.9 L 1126.7 774.8 L 1126.7 774.8 L 1123.1 769.5 L 1119.8 764.1 L 1116.8 758.4 L 1114.0 752.5 L 1111.3 746.4 L 1108.9 740.2 L 1106.5 733.9 L 1104.3 727.5 L 1102.1 721.1 L 1100.0 714.6 L 1097.8 708.1 L 1095.6 701.7 L 1093.3 695.2 L 1091.0 688.9 L 1088.5 682.7 L 1085.8 676.5 L 1085.8 676.5 L 1083.0 670.5 L 1080.2 664.5 L 1077.3 658.5 L 1074.3 652.6 L 1071.3 646.6 L 1068.3 640.7 L 1065.3 634.8 L 1062.3 628.8 L 1059.2 622.9 L 1056.2 617.0 L 1053.1 611.1 L 1050.1 605.2 L 1047.1 599.2 L 1044.1 593.3 L 1041.2 587.3 L 1038.3 581.3 L 1038.3 581.3 L 1035.4 575.3 L 1032.6 569.3 L 1029.8 563.3 L 1027.1 557.2 L 1024.3 551.1 L 1021.6 545.1 L 1018.9 539.0 L 1016.2 532.9 L 1013.5 526.8 L 1010.8 520.8 L 1008.0 514.7 L 1005.2 508.7 L 1002.4 502.6 L 999.6 496.6 L 996.7 490.7 L 993.7 484.7 L 993.7 484.7 L 990.8 478.8 L 987.7 472.8 L 984.7 466.9 L 981.7 461.0 L 978.6 455.1 L 975.5 449.2 L 972.4 443.3 L 969.3 437.5 L 966.1 431.6 L 962.9 425.8 L 959.7 420.0 L 956.4 414.2 L 953.1 408.4 L 949.7 402.7 L 946.3 397.0 L 942.9 391.3 L 942.9 391.3 L 939.4 385.7 L 935.8 380.0 L 932.2 374.5 L 928.6 368.9 L 924.9 363.4 L 921.2 357.9 L 917.4 352.4 L 913.6 346.9 L 909.8 341.5 L 906.0 336.0 L 902.1 330.6 L 898.3 325.2 L 894.4 319.7 L 890.6 314.3 L 886.8 308.8 L 882.9 303.4 L 882.9 303.4 L 879.1 298.0 L 875.3 292.5 L 871.4 287.1 L 867.6 281.7 L 863.7 276.3 L 859.8 270.9 L 855.9 265.5 L 852.0 260.1 L 848.1 254.7 L 844.2 249.3 L 840.3 243.9 L 836.5 238.5 L 832.6 233.1 L 828.7 227.7 L 824.9 222.3 L 821.0 216.8 L 821.0 216.8 L 817.2 211.4 L 813.4 206.0 L 809.5 200.5 L 805.7 195.1 L 801.9 189.7 L 798.0 184.2 L 794.2 178.8 L 790.4 173.3 L 786.6 167.9 L 782.8 162.4 L 779.0 156.9 L 775.3 151.5 L 771.5 146.0 L 767.8 140.5 L 764.1 134.9 L 760.4 129.4 L 760.4 129.4 L 756.7 123.9 L 753.0 118.3 L 749.4 112.7 L 745.8 107.2 L 742.2 101.6 L 738.6 96.0 L 735.1 90.3 L 731.5 84.7 L 728.0 79.1 L 724.4 73.5 L 720.9 67.8 L 717.3 62.2 L 713.8 56.6 L 710.2 51.0 L 706.7 45.3 L 703.1 39.7 L 703.1 39.7 L 699.6 34.1 L 696.0 28.5 L 692.5 22.8 L 689.0 17.2 L 685.4 11.6 L 681.9 5.9 L 678.4 0.3 L 678.2 0.0" fill="none" stroke="#ffd23d" stroke-width="6.0" stroke-opacity="0.9"/><path d="M 1886.6 0.0 L 1886.8 1.6 L 1887.5 8.2 L 1888.1 14.8 L 1888.5 21.5 L 1888.9 28.1 L 1889.2 34.7 L 1889.2 34.7 L 1889.4 41.3 L 1889.4 47.9 L 1889.3 54.6 L 1889.1 61.2 L 1888.8 67.8 L 1888.5 74.5 L 1888.0 81.1 L 1887.6 87.7 L 1887.0 94.4 L 1886.5 101.0 L 1885.9 107.7 L 1885.4 114.3 L 1884.8 121.0 L 1884.3 127.6 L 1883.8 134.3 L 1883.4 140.9 L 1883.4 140.9 L 1882.9 147.5 L 1882.4 154.2 L 1881.9 160.8 L 1881.4 167.4 L 1880.8 174.1 L 1880.2 180.7 L 1879.6 187.3 L 1879.1 194.0 L 1878.5 200.6 L 1878.0 207.3 L 1877.5 213.9 L 1877.1 220.5 L 1876.8 227.2 L 1876.5 233.8 L 1876.3 240.4 L 1876.2 247.1 L 1876.2 247.1 L 1876.1 253.7 L 1876.1 260.3 L 1876.0 267.0 L 1876.0 273.7 L 1876.1 280.4 L 1876.1 287.0 L 1876.3 293.7 L 1876.5 300.4 L 1876.7 307.0 L 1877.1 313.7 L 1877.5 320.3 L 1878.1 326.9 L 1878.8 333.5 L 1879.6 340.1 L 1880.5 346.6 L 1881.6 353.1 L 1881.6 353.1 L 1882.9 359.6 L 1884.3 366.0 L 1886.0 372.4 L 1887.9 378.7 L 1889.8 385.1 L 1891.9 391.4 L 1894.1 397.7 L 1896.4 403.9 L 1898.6 410.2 L 1900.9 416.5 L 1903.2 422.8 L 1905.4 429.1 L 1907.5 435.4 L 1909.6 441.7 L 1911.5 448.1 L 1913.3 454.5 L 1913.3 454.5 L 1915.0 460.9 L 1916.6 467.3 L 1918.2 473.7 L 1919.8 480.2 L 1921.3 486.6 L 1922.7 493.1 L 1924.2 499.6 L 1925.6 506.0 L 1927.0 512.5 L 1928.3 519.0 L 1929.7 525.5 L 1931.0 532.0 L 1932.3 538.5 L 1933.6 545.0 L 1934.8 551.5 L 1936.1 558.0 L 1936.1 558.0 L 1937.3 564.5 L 1938.4 571.1 L 1939.4 577.6 L 1940.4 584.2 L 1941.3 590.8 L 1942.3 597.4 L 1943.1 604.0 L 1944.1 610.5 L 1945.0 617.1 L 1945.9 623.7 L 1947.0 630.2 L 1948.1 636.8 L 1949.2 643.3 L 1950.5 649.8 L 1951.9 656.2 L 1953.5 662.6 L 1953.5 662.6 L 1955.3 669.0 L 1957.5 675.4 L 1960.0 681.8 L 1962.7 688.1 L 1965.6 694.5 L 1968.6 700.8 L 1971.6 707.1 L 1974.5 713.4 L 1977.3 719.7 L 1980.0 725.9 L 1982.4 732.1 L 1984.4 738.3 L 1986.1 744.5 L 1987.3 750.7 L 1988.0 756.8 L 1988.0 762.9 L 1988.0 762.9 L 1987.5 769.1 L 1986.6 775.2 L 1985.1 781.4 L 1983.3 787.5 L 1981.1 793.7 L 1978.6 799.8 L 1975.8 806.0 L 1972.8 812.0 L 1969.7 818.1 L 1966.3 824.0 L 1962.9 829.9 L 1959.4 835.7 L 1955.9 841.5 L 1952.4 847.1 L 1948.9 852.6 L 1945.6 857.9 L 1945.6 857.9 L 1942.2 863.3 L 1938.4 868.8 L 1934.4 874.3 L 1930.1 879.8 L 1925.7 885.3 L 1921.2 890.7 L 1916.6 896.0 L 1912.1 901.2 L 1907.7 906.2 L 1903.4 911.0 L 1899.3 915.5 L 1895.5 919.6 L 1891.9 923.5 L 1888.8 927.0 L 1886.1 930.0 L 1883.9 932.6" fill="none" stroke="#ffd23d" stroke-width="6.0" stroke-opacity="0.9"/></g><g id="clips"><circle cx="1830.1" cy="901.7" r="2" fill="none" stroke="#0b5" stroke-width="0.6"/><circle cx="1613.5" cy="0.0" r="2" fill="none" stroke="#0b5" stroke-width="0.6"/><circle cx="915.7" cy="0.0" r="2" fill="none" stroke="#0b5" stroke-width="0.6"/><circle cx="678.2" cy="0.0" r="2" fill="none" stroke="#0b5" stroke-width="0.6"/><circle cx="1886.6" cy="0.0" r="2" fill="none" stroke="#0b5" stroke-width="0.6"/><circle cx="1883.9" cy="932.6" r="2" fill="none" stroke="#0b5" stroke-width="0.6"/></g><g id="power"><circle cx="1613.4" cy="0.0" r="5" fill="none" stroke="#e33" stroke-width="1"/><circle cx="915.6" cy="0.0" r="5" fill="none" stroke="#e33" stroke-width="1"/><circle cx="678.2" cy="0.0" r="5" fill="none" stroke="#e33" stroke-width="1"/><circle cx="1886.6" cy="0.0" r="5" fill="none" stroke="#e33" stroke-width="1"/></g></svg>