<svg xmlns="http://www.w3.org/2000/svg" width="1000mm" height="2000mm" viewBox="0 0 1000 2000"><g id="outline"><rect x="0" y="0" width="1000" height="2000" fill="none" stroke="#000" stroke-width="1"/></g><g id="channels"><path d="M 0.0 1076.3 L 1.1 1075.2 L 6.3 1070.3 L 11.6 1065.3 L 16.9 1060.4 L 22.2 1055.5 L 27.6 1050.7 L 33.0 1045.9 L 38.4 1041.2 L 38.4 1041.2 L 43.9 1036.5 L 49.3 1031.7 L 54.7 1026.9 L 60.2 1022.0 L 65.7 1017.2 L 71.2 1012.4 L 76.7 1007.6 L 82.3 1002.9 L 87.9 998.3 L 93.6 993.8 L 99.3 989.5 L 105.1 985.2 L 111.0 981.2 L 117.0 977.3 L 123.1 973.7 L 129.3 970.3 L 129.3 970.3 L 135.7 967.2 L 142.3 964.4 L 149.0 962.0 L 155.9 959.8 L 162.8 957.8 L 169.9 956.0 L 177.0 954.3 L 184.1 952.7 L 191.3 951.1 L 198.4 949.4 L 205.4 947.6 L 212.4 945.7 L 219.3 943.7 L 226.0 941.4 L 232.6 938.8 L 239.0 935.8 L 239.0 935.8 L 245.3 932.6 L 251.5 929.3 L 257.6 925.9 L 263.6 922.2 L 269.6 918.5 L 275.5 914.7 L 281.3 910.7 L 287.1 906.6 L 292.8 902.4 L 298.4 898.2 L 304.0 893.8 L 309.4 889.3 L 314.9 884.8 L 320.2 880.2 L 325.5 875.5 L 330.7 870.7 L 330.7 870.7 L 335.8 865.8 L 340.8 860.8 L 345.7 855.6 L 350.4 850.2 L 355.1 844.7 L 359.7 839.2 L 364.2 833.5 L 368.7 827.8 L 373.1 822.1 L 377.6 816.4 L 382.1 810.6 L 386.5 804.9 L 391.1 799.2 L 395.6 793.6 L 400.3 788.0 L 405.0 782.6 L 405.0 782.6 L 409.9 777.3 L 415.0 772.1 L 420.3 766.9 L 425.8 761.9 L 431.3 756.9 L 436.8 751.9 L 442.3 746.9 L 447.8 741.9 L 453.2 736.9 L 458.4 731.7 L 463.4 726.5 L 468.1 721.2 L 472.6 715.8 L 476.7 710.2 L 480.4 704.4 L 483.7 698.4 L 483.7 698.4 L 486.7 692.2 L 489.5 685.7 L 492.2 679.0 L 494.7 672.1 L 496.9 665.0 L 499.0 657.8 L 500.8 650.5 L 502.3 643.2 L 503.6 635.9 L 504.5 628.6 L 505.2 621.4 L 505.4 614.4 L 505.4 607.5 L 504.9 600.8 L 504.1 594.3 L 502.8 588.1 L 502.8 588.1 L 501.0 581.9 L 498.6 575.3 L 495.7 568.5 L 492.4 561.6 L 488.6 554.6 L 484.5 547.7 L 480.1 541.0 L 475.4 534.6 L 470.5 528.5 L 465.6 522.9 L 460.5 518.0 L 455.4 513.7 L 450.4 510.2 L 445.5 507.6 L 440.7 506.0 L 436.1 505.5 L 436.1 505.5 L 431.6 506.2 L 427.0 508.0 L 422.4 510.9 L 417.6 514.8 L 412.9 519.4 L 408.1 524.8 L 403.2 530.7 L 398.4 537.1 L 393.5 543.9 L 388.6 550.8 L 383.8 557.9 L 379.0 564.9 L 374.2 571.8 L 369.5 578.5 L 364.8 584.8 L 360.2 590.6 L 360.2 590.6 L 355.7 596.2 L 351.4 601.9 L 347.1 607.7 L 342.9 613.6 L 338.7 619.6 L 334.6 625.5 L 330.4 631.5 L 326.3 637.5 L 322.1 643.4 L 317.9 649.3 L 313.7 655.2 L 309.3 660.9 L 304.8 666.5 L 300.2 672.0 L 295.4 677.4 L 290.5 682.6 L 290.5 682.6 L 285.4 687.6 L 280.2 692.5 L 274.8 697.2 L 269.4 701.9 L 263.8 706.4 L 258.1 710.9 L 252.4 715.3 L 246.6 719.6 L 240.8 723.9 L 234.9 728.1 L 229.0 732.3 L 223.1 736.5 L 217.2 740.7 L 211.3 745.0 L 205.4 749.2 L 199.6 753.5 L 199.6 753.5 L 193.8 757.8 L 188.0 762.0 L 182.2 766.3 L 176.3 770.5 L 170.4 774.7 L 164.5 778.8 L 158.6 783.0 L 152.7 787.2 L 146.8 791.3 L 140.9 795.4 L 134.9 799.5 L 129.0 803.7 L 123.1 807.8 L 117.1 811.9 L 111.2 816.0 L 105.3 820.1 L 105.3 820.1 L 99.4 824.3 L 93.4 828.4 L 87.5 832.5 L 81.6 836.7 L 75.7 840.8 L 69.8 845.0 L 63.9 849.1 L 58.0 853.2 L 52.0 857.4 L 46.1 861.5 L 40.1 865.5 L 34.1 869.6 L 28.1 873.6 L 22.1 877.6 L 16.1 881.5 L 10.0 885.4 L 10.0 885.4 L 3.9 889.3 L 0.0 891.7" fill="none" stroke="#39ff88" stroke-width="6.0" stroke-opacity="0.9"/></g><g id="clips"><circle cx="0.0" cy="1076.3" r="2" fill="none" stroke="#0b5" stroke-width="0.6"/><circle cx="0.0" cy="891.7" r="2" fill="none" stroke="#0b5" stroke-width="0.6"/></g><g id="power"><circle cx="0.0" cy="1076.3" r="5" fill="none" stroke="#e33" stroke-width="1"/><circle cx="0.0" cy="891.7" r="5" fill="none" stroke="#e33" stroke-width="1"/></g><g id="bridges"></g></svg>