<svg xmlns="http://www.w3.org/2000/svg" width="1000mm" height="1000mm" viewBox="0 0 1000 1000"><g id="outline"><rect x="0" y="0" width="1000" height="1000" fill="none" stroke="#000" stroke-width="1"/></g><g id="channels"><path d="M 488.7 1000.0 L 490.2 997.1 L 490.2 997.1 L 493.4 990.8 L 496.6 984.4 L 500.0 978.1 L 503.3 971.6 L 506.6 965.3 L 509.8 958.9 L 513.0 952.4 L 516.2 946.0 L 519.3 939.5 L 522.4 933.1 L 525.3 926.5 L 528.1 920.0 L 530.8 913.4 L 533.4 906.7 L 535.8 900.2 L 538.1 893.4 L 538.1 893.4 L 540.2 886.7 L 542.4 879.8 L 544.3 873.0 L 546.2 866.0 L 548.1 859.0 L 549.7 852.1 L 551.4 845.1 L 552.9 838.0 L 554.3 830.9 L 555.5 823.9 L 556.7 816.8 L 557.7 809.7 L 558.6 802.6 L 559.3 795.5 L 560.0 788.5 L 560.4 781.4 L 560.4 781.4 L 560.5 774.2 L 560.2 766.7 L 559.6 759.1 L 558.6 751.2 L 557.5 743.4 L 556.2 735.5 L 554.8 727.6 L 553.4 719.8 L 552.1 712.1 L 550.9 704.8 L 549.8 697.6 L 549.1 690.8 L 548.6 684.3 L 548.6 678.3 L 549.1 672.8 L 550.1 667.9 L 550.1 667.9 L 551.6 663.3 L 553.7 658.8 L 556.0 654.5 L 558.7 650.4 L 561.8 646.5 L 565.1 642.9 L 568.6 639.7 L 572.3 636.8 L 576.1 634.4 L 580.0 632.5 L 583.9 631.0 L 587.7 630.1 L 591.4 629.8 L 595.1 630.1 L 598.6 631.2 L 601.9 632.8 L 601.9 632.8 L 605.0 635.7 L 608.4 639.9 L 611.9 645.1 L 615.3 651.4 L 618.9 658.4 L 622.5 665.9 L 626.0 674.0 L 629.3 682.1 L 632.7 690.5 L 635.9 698.7 L 638.9 706.6 L 641.8 714.1 L 644.3 720.9 L 646.6 726.9 L 648.7 731.9 L 650.4 735.8" fill="none" stroke="#2b6bff" stroke-width="6.0" stroke-opacity="0.9"/><path d="M 664.7 666.2 L 666.0 663.0 L 667.4 658.9 L 669.2 654.1 L 671.1 648.6 L 673.1 642.7 L 675.3 636.3 L 677.7 629.7 L 680.1 623.0 L 682.6 616.2 L 685.2 609.6 L 687.8 603.1 L 690.4 597.0 L 693.0 591.5 L 695.6 586.4 L 698.2 582.1 L 700.6 578.6 L 700.6 578.6 L 703.1 575.7 L 705.8 573.0 L 708.7 570.5 L 711.6 568.4 L 714.7 566.5 L 717.8 564.9 L 720.9 563.6 L 723.9 562.6 L 726.9 562.1 L 729.7 561.8 L 732.3 562.1 L 734.6 562.6 L 736.8 563.6 L 738.7 565.0 L 740.2 566.9 L 741.3 569.3 L 741.3 569.3 L 741.9 572.6 L 742.0 577.1 L 741.5 582.7 L 740.6 589.1 L 739.4 596.3 L 737.9 603.8 L 736.4 611.7 L 734.7 619.6 L 733.1 627.4 L 731.6 634.8 L 730.3 641.8 L 729.4 648.0 L 728.8 653.4 L 728.7 657.7 L 729.1 660.6 L 730.2 662.2 L 730.2 662.2 L 732.0 662.1 L 734.4 660.5 L 737.4 657.7 L 740.7 653.7 L 744.4 648.9 L 748.5 643.4 L 752.8 637.3 L 757.2 631.1 L 761.6 624.5 L 766.2 618.1 L 770.5 611.9 L 774.7 606.2 L 778.7 601.0 L 782.4 596.6 L 785.6 593.2 L 788.4 591.0 L 788.4 591.0 L 790.9 589.8 L 793.2 589.0 L 795.5 588.7 L 797.7 588.9 L 799.6 589.4 L 801.4 590.4 L 803.1 591.6 L 804.6 593.2 L 806.0 595.1 L 807.3 597.2 L 808.4 599.5 L 809.3 602.1 L 810.0 604.7 L 810.6 607.5 L 811.0 610.5 L 811.2 613.4 L 811.2 613.4 L 811.0 616.8 L 810.3 621.0 L 809.1 626.0 L 807.5 631.5 L 805.7 637.3 L 803.7 643.4 L 801.6 649.6 L 799.4 655.8 L 797.3 661.7 L 795.3 667.4 L 793.7 672.5 L 792.3 677.1 L 791.4 680.8 L 791.1 683.7 L 791.2 685.5 L 792.2 686.2 L 792.2 686.2 L 793.8 685.3 L 796.1 683.0 L 799.2 679.4 L 802.8 674.8 L 806.8 669.4 L 811.2 663.3 L 815.7 656.8 L 820.5 650.0 L 825.2 643.2 L 829.9 636.7 L 834.4 630.4 L 838.7 624.8 L 842.7 619.9 L 846.2 616.2 L 849.0 613.6 L 851.3 612.4 L 851.3 612.4 L 853.0 612.4 L 854.5 613.3 L 855.6 615.1 L 856.4 617.6 L 857.1 620.8 L 857.4 624.4 L 857.6 628.5 L 857.5 633.1 L 857.4 637.9 L 856.9 642.9 L 856.4 648.1 L 855.8 653.3 L 854.9 658.4 L 854.0 663.4 L 853.0 668.1 L 852.0 672.6 L 852.0 672.6 L 850.5 677.1 L 848.4 682.3 L 845.8 687.9 L 842.9 693.7 L 839.7 699.9 L 836.4 706.0 L 832.8 712.2 L 829.4 718.4 L 826.1 724.1 L 823.1 729.7 L 820.4 734.6 L 818.1 739.1 L 816.4 742.8 L 815.4 745.8 L 815.2 747.8 L 815.7 748.7 L 815.7 748.7 L 817.3 748.4 L 820.0 746.6 L 823.6 743.7 L 827.8 739.7 L 832.7 735.0 L 838.0 729.6 L 843.7 723.8 L 849.6 717.8 L 855.4 711.8 L 861.2 706.0 L 866.8 700.6 L 872.1 695.8 L 876.8 691.7 L 880.9 688.6 L 884.2 686.8 L 886.6 686.2 L 886.6 686.2 L 888.2 687.0 L 889.6 688.8 L 890.4 691.3 L 891.0 694.6 L 891.1 698.6 L 891.1 703.1 L 890.6 708.1 L 889.9 713.4 L 889.0 719.0 L 887.7 724.7 L 886.3 730.6 L 884.6 736.3 L 882.8 741.9 L 880.8 747.3 L 878.6 752.4 L 876.4 757.0 L 876.4 757.0 L 873.8 761.4 L 871.0 765.7 L 867.8 770.1 L 864.3 774.6 L 860.6 779.1 L 856.7 783.5 L 852.5 787.9 L 848.3 792.3 L 843.8 796.6 L 839.3 801.0 L 834.8 805.3 L 830.2 809.5 L 825.5 813.8 L 821.0 818.0 L 816.5 822.0 L 812.1 826.0 L 812.1 826.0 L 807.7 830.0 L 803.1 833.8 L 798.6 837.4 L 793.9 841.1 L 789.2 844.6 L 784.4 848.1 L 779.5 851.5 L 774.7 855.0 L 769.8 858.4 L 765.0 862.0 L 760.2 865.4 L 755.4 869.0 L 750.8 872.7 L 746.2 876.3 L 741.7 880.2 L 737.3 884.1 L 737.3 884.1 L 733.0 888.1 L 728.7 892.1 L 724.4 896.2 L 720.2 900.3 L 715.9 904.5 L 711.7 908.7 L 707.6 913.0 L 703.5 917.3 L 699.5 921.5 L 695.5 925.9 L 691.6 930.4 L 687.8 935.0 L 684.1 939.5 L 680.5 944.1 L 677.0 948.8 L 673.5 953.5 L 673.5 953.5 L 670.1 958.4 L 667.0 963.3 L 663.8 968.2 L 660.9 973.3 L 658.0 978.5 L 655.2 983.7 L 652.4 988.9 L 649.7 994.2 L 647.1 999.5 L 646.9 1000.0" fill="none" stroke="#2b6bff" stroke-width="6.0" stroke-opacity="0.9"/></g><g id="clips"><circle cx="488.7" cy="1000.0" r="2" fill="none" stroke="#0b5" stroke-width="0.6"/><circle cx="650.4" cy="735.8" r="2" fill="none" stroke="#0b5" stroke-width="0.6"/><circle cx="664.7" cy="666.2" r="2" fill="none" stroke="#0b5" stroke-width="0.6"/><circle cx="646.9" cy="1000.0" r="2" fill="none" stroke="#0b5" stroke-width="0.6"/></g><g id="power"><circle cx="488.7" cy="1000.0" r="5" fill="none" stroke="#e33" stroke-width="1"/><circle cx="646.9" cy="1000.0" r="5" fill="none" stroke="#e33" stroke-width="1"/></g><g id="bridges"><circle cx="817.2" cy="634.6" r="9" fill="none" stroke="#e6a817" stroke-width="1.5"/><circle cx="814.0" cy="640.8" r="9" fill="none" stroke="#e6a817" stroke-width="1.5"/><circle cx="857.6" cy="691.5" r="9" fill="none" stroke="#e6a817" stroke-width="1.5"/><circle cx="846.3" cy="705.8" r="9" fill="none" stroke="#e6a817" stroke-width="1.5"/><circle cx="844.7" cy="708.9" r="9" fill="none" stroke="#e6a817" stroke-width="1.5"/></g></svg>