<svg xmlns="http://www.w3.org/2000/svg" width="2000mm" height="1000mm" viewBox="0 0 2000 1000"><g id="outline"><rect x="0" y="0" width="2000" height="1000" fill="none" stroke="#000" stroke-width="1"/></g><g id="channels"><path d="M 1533.8 409.7 L 1535.9 411.5 L 1538.9 413.5 L 1542.5 415.8 L 1546.6 418.3 L 1551.0 421.1 L 1555.8 424.0 L 1560.6 427.2 L 1565.6 430.4 L 1570.3 434.0 L 1574.8 437.6 L 1579.0 441.5 L 1582.6 445.4 L 1585.7 449.6 L 1587.9 453.8 L 1589.4 458.2 L 1589.7 462.6 L 1589.7 462.6 L 1589.2 467.3 L 1587.9 472.4 L 1585.9 477.7 L 1583.2 483.2 L 1580.1 489.0 L 1576.5 494.9 L 1572.5 501.0 L 1568.1 507.1 L 1563.4 513.2 L 1558.6 519.5 L 1553.6 525.5 L 1548.5 531.7 L 1543.5 537.6 L 1538.5 543.4 L 1533.7 548.9 L 1529.0 554.3 L 1529.0 554.3 L 1524.5 559.4 L 1519.6 564.3 L 1514.5 569.1 L 1509.3 573.7 L 1503.9 578.2 L 1498.4 582.6 L 1492.9 587.0 L 1487.2 591.5 L 1481.7 595.9 L 1476.2 600.3 L 1470.7 604.8 L 1465.4 609.3 L 1460.2 614.1 L 1455.3 618.9 L 1450.6 624.0 L 1446.1 629.3 L 1446.1 629.3 L 1441.9 634.8 L 1438.1 640.9 L 1434.6 647.1 L 1431.3 653.5 L 1428.2 660.2 L 1425.2 666.9 L 1422.2 673.7 L 1419.4 680.4 L 1416.4 687.2 L 1413.4 693.7 L 1410.2 700.1 L 1406.9 706.1 L 1403.3 711.9 L 1399.4 717.2 L 1395.2 722.2 L 1390.4 726.6 L 1390.4 726.6 L 1385.4 730.6 L 1380.1 734.2 L 1374.5 737.7 L 1368.7 740.8 L 1362.7 743.5 L 1356.5 746.1 L 1350.0 748.5 L 1343.5 750.7 L 1336.9 752.5 L 1330.2 754.3 L 1323.5 755.8 L 1316.6 757.3 L 1309.9 758.5 L 1303.1 759.6 L 1296.3 760.5 L 1289.7 761.4 L 1289.7 761.4 L 1282.9 762.0 L 1276.1 762.0 L 1269.3 761.9 L 1262.3 761.2 L 1255.4 760.5 L 1248.3 759.4 L 1241.3 758.3 L 1234.1 757.0 L 1227.1 755.9 L 1219.9 754.7 L 1212.9 753.6 L 1205.8 752.9 L 1198.7 752.2 L 1191.7 751.9 L 1184.8 752.1 L 1178.0 752.6 L 1178.0 752.6 L 1171.2 753.4 L 1164.4 754.6 L 1157.6 755.9 L 1150.8 757.5 L 1144.1 759.2 L 1137.4 761.1 L 1130.7 763.2 L 1123.9 765.4 L 1117.3 767.7 L 1110.7 770.1 L 1104.0 772.7 L 1097.5 775.2 L 1090.9 777.9 L 1084.4 780.5 L 1077.9 783.2 L 1071.5 786.0 L 1071.5 786.0 L 1065.1 788.6 L 1058.8 791.6 L 1052.4 794.6 L 1046.1 797.8 L 1040.0 800.9 L 1033.8 804.2 L 1027.6 807.6 L 1021.4 811.0 L 1015.3 814.5 L 1009.2 818.0 L 1003.0 821.4 L 996.9 824.9 L 990.9 828.4 L 984.7 831.9 L 978.6 835.3 L 972.4 838.7 L 972.4 838.7 L 966.2 841.9 L 960.0 845.3 L 953.8 848.6 L 947.7 852.0 L 941.6 855.4 L 935.4 858.7 L 929.2 862.1 L 923.1 865.5 L 916.9 868.9 L 910.8 872.2 L 904.7 875.6 L 898.5 878.9 L 892.3 882.2 L 886.1 885.6 L 879.9 888.9 L 873.8 892.2 L 873.8 892.2 L 867.6 895.5 L 861.4 898.8 L 855.2 902.2 L 849.0 905.6 L 842.8 908.9 L 836.7 912.2 L 830.5 915.6 L 824.3 918.9 L 818.1 922.3 L 811.8 925.5 L 805.7 928.7 L 799.4 931.8 L 793.1 934.9 L 786.7 938.0 L 780.4 940.8 L 774.0 943.7 L 774.0 943.7 L 767.6 946.5 L 761.1 949.2 L 754.7 952.0 L 748.2 954.7 L 741.7 957.3 L 735.1 960.0 L 728.6 962.6 L 722.0 965.0 L 715.4 967.5 L 708.8 969.7 L 702.1 972.0 L 695.5 974.1 L 688.8 976.2 L 682.1 978.1 L 675.3 979.8 L 668.6 981.4 L 668.6 981.4 L 661.8 982.9 L 654.9 984.1 L 648.0 985.2 L 641.1 986.1 L 634.1 986.8 L 627.1 987.5 L 620.1 988.1 L 613.1 988.6 L 606.0 989.1 L 599.0 989.5 L 591.9 990.0 L 584.9 990.6 L 578.0 991.2 L 570.9 992.0 L 564.1 992.8 L 557.1 993.8 L 557.1 993.8 L 550.1 994.9 L 543.2 995.8 L 536.1 996.7 L 529.1 997.7 L 522.0 998.6 L 514.9 999.5 L 511.4 1000.0" fill="none" stroke="#2b6bff" stroke-width="6.0" stroke-opacity="0.9"/><path d="M 1411.4 1000.0 L 1412.8 998.3 L 1417.1 992.7 L 1421.3 987.2 L 1425.5 981.5 L 1429.7 975.8 L 1433.8 970.1 L 1438.0 964.3 L 1442.1 958.6 L 1446.2 952.9 L 1450.3 947.2 L 1450.3 947.2 L 1454.4 941.5 L 1458.5 935.8 L 1462.5 930.0 L 1466.6 924.3 L 1470.6 918.5 L 1474.5 912.7 L 1478.5 906.9 L 1482.4 901.1 L 1486.2 895.2 L 1490.1 889.3 L 1493.9 883.4 L 1497.6 877.5 L 1501.2 871.5 L 1504.8 865.5 L 1508.3 859.4 L 1511.9 853.3 L 1511.9 853.3 L 1515.2 847.3 L 1518.5 841.0 L 1521.7 834.9 L 1524.9 828.6 L 1528.0 822.3 L 1531.0 816.0 L 1534.1 809.6 L 1537.0 803.3 L 1540.0 796.9 L 1542.9 790.5 L 1545.7 784.1 L 1548.7 777.7 L 1551.5 771.3 L 1554.4 764.9 L 1557.3 758.6 L 1560.1 752.2 L 1560.1 752.2 L 1563.0 745.5 L 1565.7 738.4 L 1568.3 730.8 L 1570.9 723.0 L 1573.4 715.0 L 1575.8 707.1 L 1578.3 699.1 L 1580.8 691.3 L 1583.3 683.8 L 1586.0 676.8 L 1588.6 670.4 L 1591.6 664.5 L 1594.5 659.5 L 1597.7 655.2 L 1601.0 652.1 L 1604.6 650.0 L 1604.6 650.0 L 1608.5 649.2 L 1612.9 649.7 L 1617.6 651.4 L 1622.6 654.0 L 1627.9 657.5 L 1633.2 661.6 L 1638.6 666.2 L 1644.1 671.2 L 1649.4 676.4 L 1654.5 681.6 L 1659.5 686.7 L 1664.0 691.5 L 1668.3 696.0 L 1672.1 699.9 L 1675.4 703.0 L 1677.9 705.2" fill="none" stroke="#2b6bff" stroke-width="6.0" stroke-opacity="0.9"/><path d="M 1706.1 699.0 L 1707.3 702.4 L 1709.1 706.7 L 1711.3 711.5 L 1713.8 717.0 L 1716.5 722.9 L 1719.3 729.3 L 1722.3 736.1 L 1725.2 743.0 L 1728.1 750.1 L 1730.7 757.3 L 1733.1 764.7 L 1735.1 771.9 L 1736.9 779.0 L 1738.0 785.8 L 1738.6 792.5 L 1738.4 798.7 L 1738.4 798.7 L 1737.7 804.8 L 1736.5 810.7 L 1734.7 816.6 L 1732.6 822.6 L 1730.0 828.5 L 1727.1 834.3 L 1723.9 840.2 L 1720.5 846.0 L 1716.9 851.8 L 1713.3 857.7 L 1709.6 863.4 L 1705.8 869.2 L 1702.2 874.9 L 1698.6 880.7 L 1695.1 886.4 L 1691.9 892.3 L 1691.9 892.3 L 1688.7 898.0 L 1685.5 903.7 L 1682.2 909.4 L 1678.8 915.0 L 1675.4 920.7 L 1671.9 926.3 L 1668.5 931.9 L 1665.0 937.5 L 1661.5 943.3 L 1658.1 948.9 L 1654.7 954.5 L 1651.4 960.3 L 1648.1 966.0 L 1644.9 971.7 L 1641.7 977.6 L 1638.7 983.4 L 1638.7 983.4 L 1635.9 989.4 L 1633.4 995.5 L 1631.7 1000.0" fill="none" stroke="#2b6bff" stroke-width="6.0" stroke-opacity="0.9"/><path d="M 107.9 1000.0 L 108.4 999.4 L 113.5 993.9 L 118.5 988.6 L 123.6 983.1 L 123.6 983.1 L 128.6 977.8 L 133.6 972.3 L 138.7 967.0 L 143.7 961.6 L 148.8 956.1 L 153.9 950.7 L 159.0 945.3 L 164.1 940.0 L 169.3 934.7 L 174.5 929.4 L 179.7 924.2 L 185.1 919.1 L 190.5 914.0 L 195.8 909.1 L 201.4 904.2 L 207.1 899.5 L 207.1 899.5 L 212.7 894.9 L 218.5 890.2 L 224.2 885.7 L 230.1 881.1 L 236.0 876.7 L 241.9 872.3 L 247.9 867.9 L 254.0 863.7 L 260.1 859.5 L 266.2 855.4 L 272.5 851.4 L 278.8 847.6 L 285.1 843.8 L 291.5 840.1 L 297.9 836.5 L 304.4 833.2 L 304.4 833.2 L 310.9 829.9 L 317.6 826.8 L 324.3 823.8 L 331.0 821.1 L 337.9 818.3 L 344.8 815.7 L 351.8 813.2 L 358.8 810.8 L 365.8 808.4 L 372.9 806.0 L 380.0 803.8 L 387.0 801.6 L 394.2 799.3 L 401.2 797.1 L 408.2 794.9 L 415.2 792.5 L 415.2 792.5 L 422.3 790.3 L 429.3 788.1 L 436.4 785.8 L 443.4 783.7 L 450.6 781.6 L 457.6 779.5 L 464.7 777.4 L 471.8 775.4 L 478.9 773.4 L 486.0 771.4 L 493.2 769.5 L 500.4 767.6 L 507.5 765.6 L 514.6 763.7 L 521.8 761.8 L 528.9 759.9 L 528.9 759.9 L 536.0 758.1 L 543.2 756.3 L 550.3 754.4 L 557.5 752.7 L 564.7 750.9 L 571.9 749.2 L 579.1 747.4 L 586.3 745.8 L 593.5 744.1 L 600.7 742.5 L 607.9 740.8 L 615.1 739.2 L 622.3 737.6 L 629.5 736.0 L 636.7 734.4 L 644.0 732.8 L 644.0 732.8 L 651.2 731.3 L 658.4 729.8 L 665.7 728.2 L 672.8 726.8 L 680.1 725.4 L 687.4 723.9 L 694.6 722.6 L 701.9 721.1 L 709.2 719.7 L 716.4 718.3 L 723.6 716.9 L 730.9 715.5 L 738.2 714.1 L 745.4 712.7 L 752.7 711.3 L 759.9 709.9 L 759.9 709.9 L 767.1 708.3 L 774.4 706.9 L 781.6 705.5 L 788.9 704.0 L 796.2 702.5 L 803.4 701.1 L 810.7 699.6 L 817.8 698.2 L 825.1 696.7 L 832.3 695.2 L 839.6 693.7 L 846.8 692.3 L 854.1 690.9 L 861.4 689.4 L 868.5 687.9 L 875.8 686.5 L 875.8 686.5 L 883.0 685.1 L 890.3 683.6 L 897.6 682.2 L 904.8 680.8 L 912.0 679.4 L 919.3 678.0 L 926.5 676.5 L 933.8 675.1 L 941.1 673.7 L 948.3 672.3 L 955.6 670.8 L 962.8 669.5 L 970.1 668.1 L 977.3 666.7 L 984.6 665.4 L 991.9 663.9 L 991.9 663.9 L 999.1 662.6 L 1006.4 661.3 L 1013.7 660.2 L 1021.1 659.0 L 1028.3 657.8 L 1035.7 656.7 L 1043.0 655.6 L 1050.3 654.5 L 1057.6 653.3 L 1065.0 652.0 L 1072.2 650.7 L 1079.5 649.3 L 1086.6 647.8 L 1093.8 646.2 L 1101.0 644.4 L 1108.0 642.6 L 1108.0 642.6 L 1115.2 640.6 L 1122.2 638.4 L 1129.2 636.2 L 1136.2 633.8 L 1143.2 631.4 L 1150.1 629.0 L 1157.1 626.3 L 1164.0 623.7 L 1170.9 621.0 L 1177.7 618.2 L 1184.5 615.3 L 1191.3 612.5 L 1198.1 609.6 L 1204.9 606.5 L 1211.5 603.5 L 1218.2 600.4 L 1218.2 600.4 L 1224.9 597.2 L 1231.5 594.1 L 1238.2 590.8 L 1244.8 587.6 L 1251.5 584.2 L 1258.1 580.9 L 1264.6 577.4 L 1271.2 573.8 L 1277.6 570.3 L 1284.1 566.6 L 1290.5 562.9 L 1296.8 559.1 L 1303.1 555.3 L 1309.4 551.3 L 1315.5 547.3 L 1321.6 543.2 L 1321.6 543.2 L 1327.7 539.0 L 1333.7 534.8 L 1339.6 530.4 L 1345.6 526.1 L 1351.3 521.5 L 1357.2 516.9 L 1362.9 512.3 L 1368.6 507.6 L 1374.2 502.9 L 1379.9 498.1 L 1385.4 493.3 L 1391.0 488.4 L 1396.6 483.5 L 1402.0 478.5 L 1407.5 473.6 L 1413.0 468.7 L 1413.0 468.7 L 1418.5 463.6 L 1424.3 458.2 L 1430.3 452.5 L 1436.4 446.5 L 1442.5 440.5 L 1448.5 434.4 L 1454.5 428.3 L 1460.5 422.3 L 1466.2 416.5 L 1471.6 410.9 L 1476.8 405.5 L 1481.6 400.5 L 1486.1 395.9 L 1490.0 391.7 L 1493.5 388.2 L 1496.4 385.3" fill="none" stroke="#2b6bff" stroke-width="6.0" stroke-opacity="0.9"/></g><g id="clips"><circle cx="1533.8" cy="409.7" r="2" fill="none" stroke="#0b5" stroke-width="0.6"/><circle cx="511.4" cy="1000.0" r="2" fill="none" stroke="#0b5" stroke-width="0.6"/><circle cx="1411.4" cy="1000.0" r="2" fill="none" stroke="#0b5" stroke-width="0.6"/><circle cx="1677.9" cy="705.2" r="2" fill="none" stroke="#0b5" stroke-width="0.6"/><circle cx="1706.1" cy="699.0" r="2" fill="none" stroke="#0b5" stroke-width="0.6"/><circle cx="1631.7" cy="1000.0" r="2" fill="none" stroke="#0b5" stroke-width="0.6"/><circle cx="107.9" cy="1000.0" r="2" fill="none" stroke="#0b5" stroke-width="0.6"/><circle cx="1496.4" cy="385.3" r="2" fill="none" stroke="#0b5" stroke-width="0.6"/></g><g id="power"><circle cx="107.9" cy="1000.0" r="5" fill="none" stroke="#e33" stroke-width="1"/><circle cx="511.4" cy="1000.0" r="5" fill="none" stroke="#e33" stroke-width="1"/><circle cx="1411.4" cy="1000.0" r="5" fill="none" stroke="#e33" stroke-width="1"/><circle cx="1631.7" cy="1000.0" r="5" fill="none" stroke="#e33" stroke-width="1"/></g><g id="bridges"></g></svg>