<svg xmlns="http://www.w3.org/2000/svg" width="1000mm" height="2000mm" viewBox="0 0 1000 2000"><g id="outline"><rect x="0" y="0" width="1000" height="2000" fill="none" stroke="#000" stroke-width="1"/></g><g id="channels"><path d="M 0.0 1387.2 L 3.4 1385.1 L 8.0 1382.1 L 12.8 1379.1 L 17.5 1376.1 L 22.3 1373.2 L 22.3 1373.2 L 27.0 1370.2 L 31.8 1367.3 L 36.5 1364.4 L 41.3 1361.4 L 46.1 1358.5 L 50.9 1355.6 L 55.6 1352.6 L 60.4 1349.7 L 65.1 1346.7 L 69.9 1343.7 L 74.6 1340.7 L 79.3 1337.7 L 84.0 1334.6 L 88.6 1331.4 L 93.2 1328.3 L 97.8 1325.0 L 97.8 1325.0 L 102.4 1321.8 L 106.9 1318.6 L 111.6 1315.3 L 116.2 1312.1 L 120.8 1308.8 L 125.4 1305.6 L 130.1 1302.2 L 134.6 1298.9 L 139.1 1295.4 L 143.5 1292.0 L 147.8 1288.4 L 152.0 1284.8 L 156.1 1281.1 L 160.1 1277.2 L 164.0 1273.4 L 167.7 1269.3 L 167.7 1269.3 L 171.3 1265.1 L 174.7 1260.9 L 178.0 1256.5 L 181.3 1252.0 L 184.5 1247.5 L 187.5 1242.8 L 190.5 1238.2 L 193.4 1233.3 L 196.2 1228.5 L 198.9 1223.6 L 201.5 1218.7 L 204.0 1213.7 L 206.5 1208.8 L 208.8 1203.7 L 211.0 1198.6 L 213.2 1193.6 L 213.2 1193.6 L 215.2 1188.4 L 216.8 1182.9 L 218.1 1177.2 L 219.2 1171.3 L 220.1 1165.3 L 220.9 1159.2 L 221.7 1153.2 L 222.4 1147.1 L 223.3 1141.2 L 224.2 1135.5 L 225.4 1129.9 L 226.8 1124.6 L 228.5 1119.7 L 230.6 1115.2 L 233.0 1111.1 L 236.0 1107.5 L 236.0 1107.5 L 239.6 1104.4 L 243.9 1101.7 L 248.7 1099.3 L 254.1 1097.3 L 259.7 1095.6 L 265.6 1094.1 L 271.8 1093.0 L 277.8 1091.9 L 284.0 1091.0 L 289.9 1090.3 L 295.6 1089.7 L 301.0 1089.2 L 305.9 1088.6 L 310.2 1088.2 L 313.9 1087.7 L 316.9 1087.1" fill="none" stroke="#a05bff" stroke-width="6.0" stroke-opacity="0.9"/><path d="M 382.2 1116.3 L 385.5 1115.5 L 389.4 1114.6 L 394.1 1113.6 L 399.3 1112.7 L 405.0 1111.6 L 411.1 1110.5 L 417.4 1109.2 L 424.0 1107.8 L 430.7 1106.2 L 437.4 1104.6 L 444.0 1102.6 L 450.4 1100.5 L 456.6 1098.2 L 462.4 1095.6 L 467.6 1092.7 L 472.5 1089.6 L 472.5 1089.6 L 477.0 1086.2 L 481.5 1082.4 L 485.9 1078.3 L 490.2 1074.0 L 494.4 1069.4 L 498.5 1064.5 L 502.5 1059.6 L 506.2 1054.4 L 509.8 1049.1 L 513.1 1043.9 L 516.0 1038.4 L 518.7 1032.9 L 521.1 1027.5 L 523.0 1022.1 L 524.6 1016.8 L 525.6 1011.5 L 525.6 1011.5 L 526.4 1006.1 L 526.8 1000.5 L 526.8 994.7 L 526.4 988.8 L 525.8 982.7 L 524.9 976.6 L 523.7 970.5 L 522.2 964.4 L 520.4 958.4 L 518.3 952.5 L 516.0 946.8 L 513.6 941.2 L 510.8 936.0 L 507.9 931.0 L 504.7 926.4 L 501.3 922.1 L 501.3 922.1 L 497.7 918.1 L 493.5 914.3 L 489.1 910.7 L 484.4 907.3 L 479.3 904.0 L 474.0 900.9 L 468.4 898.1 L 462.7 895.5 L 456.8 893.0 L 450.9 890.7 L 444.9 888.6 L 438.9 886.8 L 432.8 885.1 L 426.9 883.6 L 421.0 882.3 L 415.3 881.2 L 415.3 881.2 L 409.7 880.4 L 403.8 879.8 L 398.0 879.5 L 392.1 879.3 L 386.1 879.4 L 380.1 879.7 L 374.1 880.2 L 368.0 880.9 L 362.0 881.7 L 356.0 882.6 L 350.0 883.8 L 344.0 885.0 L 338.1 886.3 L 332.3 887.7 L 326.5 889.3 L 320.9 890.9 L 320.9 890.9 L 315.2 892.8 L 309.6 895.4 L 304.0 898.3 L 298.4 901.6 L 292.9 905.3 L 287.3 909.0 L 281.9 912.9 L 276.4 916.7 L 271.1 920.3 L 265.7 923.7 L 260.4 926.8 L 255.2 929.5 L 250.1 931.6 L 245.1 933.0 L 240.2 933.8 L 235.3 933.6 L 235.3 933.6 L 230.6 932.6 L 225.9 931.0 L 221.3 928.8 L 216.8 926.0 L 212.4 922.8 L 208.0 919.0 L 203.6 914.9 L 199.4 910.6 L 195.3 906.0 L 191.2 901.2 L 187.1 896.3 L 183.1 891.4 L 179.1 886.4 L 175.2 881.6 L 171.3 876.8 L 167.5 872.3 L 167.5 872.3 L 163.7 867.9 L 160.2 863.2 L 156.7 858.3 L 153.5 853.2 L 150.3 848.1 L 147.2 842.8 L 144.1 837.5 L 141.0 832.2 L 137.9 826.9 L 134.7 821.7 L 131.4 816.6 L 128.1 811.5 L 124.4 806.7 L 120.8 802.1 L 116.8 797.7 L 112.7 793.6 L 112.7 793.6 L 108.3 789.6 L 103.7 785.9 L 98.9 782.4 L 94.0 779.0 L 89.0 775.7 L 83.8 772.6 L 78.6 769.5 L 73.2 766.6 L 67.9 763.7 L 62.4 760.8 L 57.0 758.1 L 51.4 755.5 L 46.0 752.8 L 40.4 750.1 L 35.0 747.6 L 29.5 744.9 L 29.5 744.9 L 24.1 742.3 L 18.6 739.7 L 13.1 737.4 L 7.6 735.0 L 2.0 732.6 L 0.0 731.8" fill="none" stroke="#a05bff" stroke-width="6.0" stroke-opacity="0.9"/><path d="M 340.0 1012.8 L 340.0 1011.7 L 340.0 1010.5 L 340.0 1009.1 L 340.0 1007.5 L 340.0 1005.8 L 340.0 1004.0 L 340.0 1002.0 L 339.9 999.9 L 339.9 997.9 L 339.9 995.8 L 339.9 993.6 L 339.8 991.5 L 339.8 989.4 L 339.8 987.4 L 339.7 985.3 L 339.7 983.5 L 339.7 983.5 L 339.6 981.6 L 339.5 979.8 L 339.5 978.0 L 339.4 976.2 L 339.4 974.3 L 339.3 972.5 L 339.3 970.6 L 339.2 968.9 L 339.1 967.0 L 339.0 965.2 L 338.9 963.3 L 338.8 961.5 L 338.7 959.7 L 338.6 957.9 L 338.5 956.0 L 338.4 954.2 L 338.4 954.2 L 338.2 952.3 L 338.0 950.3 L 337.8 948.3 L 337.7 946.3 L 337.5 944.1 L 337.2 942.0 L 337.1 939.8 L 336.8 937.8 L 336.6 935.8 L 336.4 933.9 L 336.2 932.0 L 336.0 930.2 L 335.8 928.8 L 335.6 927.3 L 335.5 926.1 L 335.4 925.1" fill="none" stroke="#a05bff" stroke-width="6.0" stroke-opacity="0.9"/></g><g id="clips"><circle cx="0.0" cy="1387.2" r="2" fill="none" stroke="#0b5" stroke-width="0.6"/><circle cx="316.9" cy="1087.1" r="2" fill="none" stroke="#0b5" stroke-width="0.6"/><circle cx="382.2" cy="1116.3" r="2" fill="none" stroke="#0b5" stroke-width="0.6"/><circle cx="0.0" cy="731.8" r="2" fill="none" stroke="#0b5" stroke-width="0.6"/><circle cx="340.0" cy="1012.8" r="2" fill="none" stroke="#0b5" stroke-width="0.6"/><circle cx="335.4" cy="925.1" r="2" fill="none" stroke="#0b5" stroke-width="0.6"/></g><g id="power"><circle cx="0.0" cy="1387.2" r="5" fill="none" stroke="#e33" stroke-width="1"/><circle cx="0.0" cy="731.8" r="5" fill="none" stroke="#e33" stroke-width="1"/></g><g id="bridges"></g></svg>