<svg xmlns="http://www.w3.org/2000/svg" width="2000mm" height="1000mm" viewBox="0 0 2000 1000"><g id="outline"><rect x="0" y="0" width="2000" height="1000" fill="none" stroke="#000" stroke-width="1"/></g><g id="channels"><path d="M 738.5 959.3 L 737.7 955.6 L 736.9 951.0 L 736.1 945.7 L 735.2 939.7 L 734.3 933.2 L 733.2 926.3 L 732.1 919.0 L 730.8 911.4 L 729.3 903.8 L 727.7 896.0 L 725.8 888.4 L 723.7 880.9 L 721.4 873.6 L 718.7 866.7 L 715.8 860.3 L 712.6 854.4 L 712.6 854.4 L 709.0 848.9 L 705.1 843.3 L 700.9 837.8 L 696.4 832.4 L 691.6 827.0 L 686.7 821.8 L 681.5 816.7 L 676.1 811.7 L 670.6 807.0 L 664.9 802.5 L 659.1 798.2 L 653.2 794.2 L 647.3 790.5 L 641.3 787.1 L 635.3 784.1 L 629.2 781.5 L 629.2 781.5 L 623.0 779.1 L 616.6 777.0 L 609.8 775.1 L 602.9 773.4 L 595.8 772.0 L 588.6 770.8 L 581.3 769.9 L 574.0 769.3 L 566.7 769.0 L 559.5 769.0 L 552.4 769.3 L 545.4 770.0 L 538.6 770.9 L 532.0 772.3 L 525.7 773.9 L 519.7 776.0 L 519.7 776.0 L 513.9 778.5 L 508.1 781.5 L 502.5 784.9 L 496.9 788.7 L 491.4 793.0 L 486.1 797.5 L 480.9 802.3 L 475.8 807.5 L 471.0 812.8 L 466.3 818.3 L 461.8 824.0 L 457.5 829.8 L 453.5 835.6 L 449.7 841.5 L 446.2 847.4 L 443.0 853.3 L 443.0 853.3 L 440.1 859.3 L 437.4 865.5 L 434.9 871.9 L 432.6 878.5 L 430.6 885.3 L 428.8 892.2 L 427.2 899.2 L 425.8 906.3 L 424.6 913.4 L 423.6 920.6 L 422.8 927.8 L 422.3 935.0 L 421.9 942.1 L 421.7 949.1 L 421.7 956.1 L 421.8 962.9 L 421.8 962.9 L 422.2 969.6 L 422.9 976.4 L 423.7 983.2 L 424.8 990.0 L 426.1 996.8 L 426.8 1000.0" fill="none" stroke="#00e5ff" stroke-width="6.0" stroke-opacity="0.9"/></g><g id="clips"><circle cx="738.5" cy="959.3" r="2" fill="none" stroke="#0b5" stroke-width="0.6"/><circle cx="426.8" cy="1000.0" r="2" fill="none" stroke="#0b5" stroke-width="0.6"/></g><g id="power"><circle cx="426.8" cy="1000.0" r="5" fill="none" stroke="#e33" stroke-width="1"/></g><g id="bridges"></g></svg>