<svg xmlns="http://www.w3.org/2000/svg" width="2000mm" height="1000mm" viewBox="0 0 2000 1000"><g id="outline"><rect x="0" y="0" width="2000" height="1000" fill="none" stroke="#000" stroke-width="1"/></g><g id="channels"><path d="M 1113.5 1000.0 L 1112.2 996.4 L 1110.0 990.2 L 1107.9 983.9 L 1105.9 977.6 L 1105.9 977.6 L 1104.0 971.2 L 1102.1 964.8 L 1100.3 958.4 L 1098.6 952.0 L 1096.9 945.6 L 1095.3 939.1 L 1093.7 932.7 L 1092.2 926.2 L 1090.8 919.7 L 1089.4 913.2 L 1088.1 906.7 L 1086.9 900.1 L 1085.8 893.6 L 1084.7 887.1 L 1083.7 880.5 L 1082.7 873.9 L 1082.7 873.9 L 1081.9 867.4 L 1081.2 860.8 L 1080.7 854.2 L 1080.3 847.6 L 1079.9 840.9 L 1079.7 834.3 L 1079.4 827.6 L 1079.3 820.9 L 1079.1 814.3 L 1079.0 807.6 L 1078.8 800.9 L 1078.6 794.3 L 1078.4 787.6 L 1078.1 781.0 L 1077.7 774.3 L 1077.2 767.7 L 1077.2 767.7 L 1076.7 761.1 L 1076.2 754.4 L 1075.7 747.8 L 1075.3 741.1 L 1074.8 734.5 L 1074.3 727.8 L 1073.7 721.2 L 1073.1 714.5 L 1072.5 707.9 L 1071.8 701.3 L 1071.0 694.7 L 1070.1 688.1 L 1069.1 681.6 L 1068.0 675.0 L 1066.8 668.5 L 1065.4 662.1 L 1065.4 662.1 L 1063.9 655.7 L 1062.2 649.3 L 1060.4 642.9 L 1058.5 636.5 L 1056.5 630.2 L 1054.4 623.9 L 1052.3 617.6 L 1050.0 611.4 L 1047.7 605.1 L 1045.3 598.9 L 1042.9 592.6 L 1040.5 586.4 L 1038.1 580.2 L 1035.6 574.0 L 1033.1 567.9 L 1030.7 561.7 L 1030.7 561.7 L 1028.2 555.5 L 1025.7 549.4 L 1023.1 543.3 L 1020.4 537.2 L 1017.8 531.1 L 1015.0 525.0 L 1012.3 518.9 L 1009.5 512.9 L 1006.7 506.8 L 1003.9 500.8 L 1001.1 494.8 L 998.3 488.7 L 995.5 482.7 L 992.7 476.7 L 989.9 470.6 L 987.2 464.6 L 987.2 464.6 L 984.4 458.5 L 981.6 452.5 L 978.9 446.4 L 976.1 440.4 L 973.4 434.3 L 970.6 428.3 L 967.8 422.2 L 965.1 416.2 L 962.3 410.1 L 959.5 404.1 L 956.7 398.1 L 953.9 392.0 L 951.0 386.0 L 948.2 380.0 L 945.4 374.0 L 942.5 368.0 L 942.5 368.0 L 939.6 362.0 L 936.8 356.0 L 933.9 349.9 L 931.1 343.9 L 928.3 337.9 L 925.4 331.9 L 922.6 325.8 L 919.7 319.8 L 916.8 313.8 L 913.9 307.9 L 910.9 301.9 L 907.9 296.0 L 904.8 290.1 L 901.7 284.2 L 898.6 278.4 L 895.3 272.6 L 895.3 272.6 L 892.1 266.7 L 888.9 260.7 L 885.7 254.5 L 882.6 248.2 L 879.4 241.8 L 876.2 235.5 L 872.9 229.3 L 869.6 223.1 L 866.1 217.1 L 862.6 211.3 L 858.9 205.7 L 855.1 200.4 L 851.2 195.5 L 847.0 191.0 L 842.6 186.9 L 838.0 183.2 L 838.0 183.2 L 833.1 180.0 L 827.9 176.9 L 822.4 174.0 L 816.6 171.3 L 810.6 168.9 L 804.5 166.8 L 798.3 164.9 L 792.0 163.4 L 785.6 162.2 L 779.3 161.4 L 773.1 160.9 L 767.0 160.8 L 761.1 161.2 L 755.4 162.0 L 749.9 163.3 L 744.7 165.0 L 744.7 165.0 L 739.8 167.4 L 735.1 170.5 L 730.5 174.2 L 726.1 178.5 L 721.7 183.2 L 717.5 188.3 L 713.4 193.9 L 709.4 199.6 L 705.4 205.6 L 701.5 211.8 L 697.6 218.0 L 693.8 224.2 L 690.0 230.3 L 686.1 236.3 L 682.3 242.1 L 678.4 247.6 L 678.4 247.6 L 674.5 253.0 L 670.7 258.5 L 667.0 263.9 L 663.3 269.5 L 659.7 275.0 L 656.1 280.6 L 652.5 286.2 L 648.9 291.9 L 645.4 297.5 L 641.8 303.1 L 638.3 308.8 L 634.7 314.4 L 631.1 320.0 L 627.4 325.6 L 623.8 331.1 L 620.1 336.6 L 620.1 336.6 L 616.3 342.1 L 612.6 347.6 L 608.8 353.1 L 605.0 358.6 L 601.3 364.1 L 597.5 369.5 L 593.7 375.0 L 589.9 380.4 L 586.0 385.9 L 582.2 391.3 L 578.3 396.7 L 574.4 402.1 L 570.5 407.4 L 566.5 412.8 L 562.5 418.1 L 558.5 423.4 L 558.5 423.4 L 554.4 428.6 L 550.3 433.9 L 546.2 439.1 L 542.0 444.2 L 537.8 449.4 L 533.6 454.5 L 529.3 459.7 L 525.1 464.8 L 520.8 469.9 L 516.5 474.9 L 512.2 480.0 L 507.9 485.1 L 503.5 490.1 L 499.2 495.2 L 494.9 500.2 L 490.6 505.3 L 490.6 505.3 L 486.2 510.3 L 481.8 515.3 L 477.4 520.3 L 472.9 525.2 L 468.4 530.2 L 463.9 535.1 L 459.4 540.0 L 455.0 544.9 L 450.5 549.8 L 446.0 554.8 L 441.6 559.7 L 437.2 564.7 L 432.8 569.7 L 428.5 574.8 L 424.3 579.9 L 420.1 585.1 L 420.1 585.1 L 416.0 590.3 L 411.7 595.4 L 407.3 600.6 L 402.9 605.8 L 398.5 611.0 L 394.2 616.2 L 389.8 621.4 L 385.6 626.7 L 381.5 632.0 L 377.5 637.4 L 373.7 642.9 L 370.2 648.4 L 366.8 654.0 L 363.7 659.7 L 361.0 665.5 L 358.6 671.4 L 358.6 671.4 L 356.4 677.4 L 354.5 683.6 L 352.9 689.8 L 351.4 696.2 L 350.2 702.7 L 349.2 709.2 L 348.3 715.8 L 347.7 722.5 L 347.2 729.2 L 346.9 735.9 L 346.7 742.6 L 346.7 749.3 L 346.9 755.9 L 347.1 762.6 L 347.5 769.1 L 348.0 775.6 L 348.0 775.6 L 348.7 782.1 L 349.7 788.5 L 350.9 795.0 L 352.3 801.4 L 353.8 807.8 L 355.6 814.2 L 357.5 820.7 L 359.5 827.1 L 361.5 833.5 L 363.7 839.9 L 365.8 846.2 L 368.0 852.6 L 370.2 859.0 L 372.3 865.4 L 374.4 871.7 L 376.3 878.1 L 376.3 878.1 L 378.3 884.5 L 380.3 890.8 L 382.3 897.1 L 384.4 903.5 L 386.4 909.8 L 388.5 916.1 L 390.7 922.4 L 392.8 928.7 L 394.9 935.0 L 397.1 941.3 L 399.2 947.6 L 401.3 953.9 L 403.4 960.2 L 405.4 966.6 L 407.5 972.9 L 409.5 979.2 L 409.5 979.2 L 411.4 985.6 L 413.3 992.0 L 415.2 998.4 L 415.7 1000.0" fill="none" stroke="#ffd23d" stroke-width="6.0" stroke-opacity="0.9"/><path d="M 178.2 1000.0 L 174.9 994.6 L 171.3 989.0 L 167.8 983.4 L 164.2 977.7 L 160.7 972.1 L 157.1 966.5 L 153.5 960.9 L 149.9 955.3 L 146.3 949.7 L 146.3 949.7 L 142.6 944.2 L 138.9 938.7 L 135.1 933.2 L 131.2 927.8 L 127.3 922.3 L 123.3 916.9 L 119.4 911.5 L 115.5 906.1 L 111.6 900.6 L 107.8 895.2 L 104.1 889.7 L 100.4 884.1 L 96.8 878.6 L 93.4 872.9 L 90.1 867.2 L 86.9 861.4 L 86.9 861.4 L 83.8 855.6 L 80.6 849.7 L 77.4 843.7 L 74.2 837.7 L 71.0 831.7 L 67.9 825.6 L 64.9 819.5 L 62.0 813.3 L 59.3 807.1 L 56.8 800.9 L 54.5 794.7 L 52.5 788.5 L 50.8 782.3 L 49.5 776.0 L 48.4 769.8 L 47.8 763.6 L 47.8 763.6 L 47.6 757.3 L 47.8 751.0 L 48.3 744.7 L 49.1 738.3 L 50.3 731.9 L 51.7 725.4 L 53.3 719.0 L 55.1 712.5 L 57.2 706.1 L 59.3 699.7 L 61.6 693.3 L 64.0 687.0 L 66.5 680.7 L 69.0 674.5 L 71.5 668.3 L 74.0 662.3 L 74.0 662.3 L 76.6 656.3 L 79.5 650.4 L 82.5 644.5 L 85.7 638.7 L 89.0 633.0 L 92.5 627.3 L 96.0 621.6 L 99.6 616.0 L 103.2 610.3 L 106.9 604.7 L 110.5 599.1 L 114.1 593.4 L 117.7 587.7 L 121.1 582.0 L 124.5 576.2 L 127.7 570.4 L 127.7 570.4 L 130.8 564.5 L 133.8 558.6 L 136.8 552.7 L 139.7 546.7 L 142.6 540.7 L 145.5 534.7 L 148.3 528.7 L 151.2 522.7 L 154.0 516.6 L 156.8 510.6 L 159.6 504.6 L 162.5 498.6 L 165.4 492.6 L 168.3 486.6 L 171.3 480.6 L 174.3 474.7 L 174.3 474.7 L 177.3 468.8 L 180.4 462.9 L 183.5 457.0 L 186.6 451.1 L 189.7 445.3 L 192.9 439.4 L 196.0 433.6 L 199.2 427.7 L 202.4 421.9 L 205.6 416.0 L 208.8 410.2 L 212.0 404.4 L 215.3 398.6 L 218.5 392.8 L 221.8 387.0 L 225.0 381.2 L 225.0 381.2 L 228.3 375.4 L 231.6 369.6 L 234.9 363.9 L 238.2 358.1 L 241.6 352.4 L 244.9 346.6 L 248.3 340.9 L 251.7 335.1 L 255.0 329.4 L 258.4 323.7 L 261.8 318.0 L 265.3 312.3 L 268.7 306.6 L 272.1 300.9 L 275.6 295.2 L 279.1 289.5 L 279.1 289.5 L 282.5 283.9 L 286.0 278.2 L 289.5 272.5 L 293.0 266.8 L 296.5 261.2 L 300.0 255.5 L 303.5 249.9 L 307.0 244.2 L 310.6 238.6 L 314.2 233.0 L 317.8 227.4 L 321.4 221.8 L 325.1 216.3 L 328.8 210.8 L 332.5 205.3 L 336.3 199.8 L 336.3 199.8 L 340.1 194.4 L 344.0 189.0 L 347.8 183.6 L 351.7 178.2 L 355.7 172.8 L 359.6 167.5 L 363.6 162.1 L 367.6 156.8 L 371.7 151.6 L 375.7 146.3 L 379.8 141.1 L 384.0 135.9 L 388.1 130.7 L 392.3 125.5 L 396.5 120.3 L 400.7 115.2 L 400.7 115.2 L 405.1 110.2 L 409.5 105.2 L 414.0 100.3 L 418.7 95.4 L 423.4 90.7 L 428.1 85.9 L 432.8 81.1 L 437.5 76.4 L 442.2 71.6 L 446.9 66.8 L 451.4 61.9 L 455.9 57.0 L 460.2 52.0 L 464.3 46.9 L 468.3 41.6 L 472.1 36.3 L 472.1 36.3 L 475.8 30.9 L 479.5 25.3 L 483.2 19.8 L 486.9 14.1 L 490.5 8.4 L 494.0 2.6 L 495.5 0.0" fill="none" stroke="#ffd23d" stroke-width="6.0" stroke-opacity="0.9"/><path d="M 1213.4 0.0 L 1213.5 0.3 L 1214.8 6.8 L 1216.0 13.3 L 1217.2 19.9 L 1218.3 26.4 L 1219.3 33.0 L 1220.3 39.6 L 1221.3 46.1 L 1222.2 52.7 L 1223.2 59.3 L 1224.1 65.9 L 1224.9 72.5 L 1225.8 79.1 L 1226.7 85.7 L 1227.6 92.3 L 1227.6 92.3 L 1228.4 98.9 L 1229.2 105.5 L 1230.0 112.1 L 1230.8 118.7 L 1231.5 125.3 L 1232.2 131.9 L 1232.8 138.6 L 1233.5 145.2 L 1234.1 151.8 L 1234.8 158.4 L 1235.4 165.0 L 1236.1 171.7 L 1236.7 178.3 L 1237.4 184.9 L 1238.1 191.5 L 1238.8 198.1 L 1238.8 198.1 L 1239.6 204.7 L 1240.3 211.3 L 1241.0 218.0 L 1241.8 224.6 L 1242.5 231.2 L 1243.3 237.8 L 1244.0 244.4 L 1244.8 251.0 L 1245.5 257.6 L 1246.3 264.2 L 1247.0 270.8 L 1247.8 277.4 L 1248.6 284.0 L 1249.3 290.6 L 1250.1 297.3 L 1250.9 303.9 L 1250.9 303.9 L 1251.7 310.5 L 1252.5 317.1 L 1253.3 323.7 L 1254.1 330.3 L 1254.9 336.9 L 1255.7 343.5 L 1256.5 350.1 L 1257.3 356.7 L 1258.1 363.3 L 1259.0 369.9 L 1259.8 376.5 L 1260.7 383.1 L 1261.5 389.7 L 1262.4 396.3 L 1263.3 402.9 L 1264.2 409.4 L 1264.2 409.4 L 1265.1 416.0 L 1266.0 422.6 L 1266.9 429.2 L 1267.8 435.8 L 1268.7 442.4 L 1269.7 449.0 L 1270.6 455.6 L 1271.5 462.2 L 1272.5 468.7 L 1273.5 475.3 L 1274.5 481.9 L 1275.5 488.5 L 1276.6 495.0 L 1277.7 501.6 L 1278.8 508.1 L 1280.0 514.7 L 1280.0 514.7 L 1281.2 521.2 L 1282.4 527.8 L 1283.6 534.3 L 1284.9 540.8 L 1286.2 547.3 L 1287.5 553.9 L 1288.8 560.4 L 1290.2 566.9 L 1291.6 573.4 L 1293.0 579.9 L 1294.4 586.4 L 1295.9 592.9 L 1297.3 599.4 L 1298.8 605.9 L 1300.3 612.3 L 1301.8 618.8 L 1301.8 618.8 L 1303.3 625.3 L 1304.9 631.7 L 1306.5 638.2 L 1308.2 644.6 L 1309.9 651.1 L 1311.6 657.5 L 1313.3 663.9 L 1315.0 670.3 L 1316.7 676.8 L 1318.5 683.2 L 1320.2 689.6 L 1321.9 696.0 L 1323.6 702.5 L 1325.3 708.9 L 1327.0 715.3 L 1328.6 721.8 L 1328.6 721.8 L 1330.2 728.2 L 1331.8 734.7 L 1333.4 741.2 L 1335.0 747.6 L 1336.5 754.1 L 1338.1 760.6 L 1339.6 767.0 L 1341.2 773.5 L 1342.7 780.0 L 1344.3 786.4 L 1345.8 792.9 L 1347.3 799.4 L 1348.8 805.9 L 1350.3 812.3 L 1351.8 818.8 L 1353.3 825.3 L 1353.3 825.3 L 1354.8 831.8 L 1356.3 838.3 L 1357.8 844.7 L 1359.4 851.2 L 1360.9 857.7 L 1362.4 864.2 L 1363.9 870.7 L 1365.4 877.2 L 1366.9 883.6 L 1368.3 890.1 L 1369.8 896.6 L 1371.1 903.1 L 1372.5 909.7 L 1373.7 916.2 L 1375.0 922.7 L 1376.1 929.2 L 1376.1 929.2 L 1377.2 935.8 L 1378.3 942.3 L 1379.4 948.9 L 1380.5 955.5 L 1381.6 962.1 L 1382.6 968.6 L 1383.5 975.2 L 1384.4 981.8 L 1385.3 988.4 L 1386.1 995.0 L 1386.6 1000.0" fill="none" stroke="#ffd23d" stroke-width="6.0" stroke-opacity="0.9"/></g><g id="clips"><circle cx="1113.5" cy="1000.0" r="2" fill="none" stroke="#0b5" stroke-width="0.6"/><circle cx="415.7" cy="1000.0" r="2" fill="none" stroke="#0b5" stroke-width="0.6"/><circle cx="178.2" cy="1000.0" r="2" fill="none" stroke="#0b5" stroke-width="0.6"/><circle cx="495.5" cy="0.0" r="2" fill="none" stroke="#0b5" stroke-width="0.6"/><circle cx="1213.4" cy="0.0" r="2" fill="none" stroke="#0b5" stroke-width="0.6"/><circle cx="1386.6" cy="1000.0" r="2" fill="none" stroke="#0b5" stroke-width="0.6"/></g><g id="power"><circle cx="1113.4" cy="1000.0" r="5" fill="none" stroke="#e33" stroke-width="1"/><circle cx="415.6" cy="1000.0" r="5" fill="none" stroke="#e33" stroke-width="1"/><circle cx="178.2" cy="1000.0" r="5" fill="none" stroke="#e33" stroke-width="1"/><circle cx="1386.6" cy="1000.0" r="5" fill="none" stroke="#e33" stroke-width="1"/><circle cx="495.5" cy="0.0" r="5" fill="none" stroke="#e33" stroke-width="1"/><circle cx="1213.4" cy="0.0" r="5" fill="none" stroke="#e33" stroke-width="1"/></g></svg>