<svg xmlns="http://www.w3.org/2000/svg" width="1000mm" height="1500mm" viewBox="0 0 1000 1500"><g id="outline"><rect x="0" y="0" width="1000" height="1500" fill="none" stroke="#000" stroke-width="1"/></g><g id="channels"><path d="M 575.2 331.9 L 577.4 333.5 L 580.5 335.4 L 584.2 337.5 L 588.4 339.8 L 593.0 342.3 L 597.9 345.0 L 602.9 347.9 L 608.0 350.9 L 612.9 354.2 L 617.6 357.6 L 622.0 361.2 L 625.8 365.0 L 629.1 369.0 L 631.5 373.1 L 633.2 377.4 L 633.8 381.8 L 633.8 381.8 L 633.5 386.5 L 632.5 391.6 L 630.8 397.0 L 628.4 402.7 L 625.6 408.6 L 622.3 414.7 L 618.6 421.0 L 614.5 427.3 L 610.2 433.7 L 605.7 440.2 L 601.0 446.5 L 596.3 452.9 L 591.6 459.1 L 586.9 465.1 L 582.4 470.9 L 578.0 476.5 L 578.0 476.5 L 573.7 481.8 L 569.1 487.0 L 564.3 492.0 L 559.3 496.9 L 554.1 501.7 L 548.9 506.4 L 543.6 511.1 L 538.2 515.8 L 532.9 520.5 L 527.6 525.2 L 522.4 530.0 L 517.3 534.8 L 512.4 539.8 L 507.7 544.9 L 503.3 550.2 L 499.1 555.7 L 499.1 555.7 L 495.2 561.5 L 491.7 567.7 L 488.5 574.1 L 485.6 580.7 L 482.8 587.5 L 480.2 594.4 L 477.6 601.3 L 475.1 608.2 L 472.5 615.1 L 469.8 621.8 L 467.0 628.3 L 464.0 634.5 L 460.7 640.5 L 457.1 646.0 L 453.1 651.2 L 448.6 655.8 L 448.6 655.8 L 443.8 660.1 L 438.7 664.0 L 433.3 667.7 L 427.6 671.1 L 421.8 674.2 L 415.7 677.1 L 409.4 679.8 L 403.0 682.3 L 396.5 684.5 L 389.9 686.6 L 383.3 688.5 L 376.5 690.3 L 369.8 691.9 L 363.1 693.3 L 356.4 694.6 L 349.8 695.8 L 349.8 695.8 L 343.1 696.8 L 336.3 697.2 L 329.5 697.4 L 322.5 697.1 L 315.5 696.7 L 308.4 696.0 L 301.3 695.3 L 294.1 694.4 L 287.0 693.6 L 279.8 692.8 L 272.7 692.1 L 265.6 691.7 L 258.5 691.4 L 251.5 691.5 L 244.6 692.0 L 237.8 692.9 L 237.8 692.9 L 231.1 694.1 L 224.3 695.6 L 217.6 697.3 L 210.9 699.2 L 204.3 701.3 L 197.7 703.5 L 191.1 706.0 L 184.5 708.5 L 178.0 711.2 L 171.5 713.9 L 165.0 716.8 L 158.6 719.7 L 152.2 722.7 L 145.8 725.7 L 139.5 728.7 L 133.2 731.8 L 133.2 731.8 L 127.0 734.8 L 120.8 738.1 L 114.6 741.4 L 108.5 744.9 L 102.5 748.4 L 96.5 752.0 L 90.5 755.7 L 84.5 759.4 L 78.6 763.2 L 72.7 767.0 L 66.7 770.8 L 60.8 774.6 L 54.9 778.4 L 48.9 782.2 L 43.0 785.9 L 37.0 789.6 L 37.0 789.6 L 31.0 793.2 L 25.0 796.9 L 19.0 800.5 L 13.0 804.2 L 7.1 807.9 L 1.1 811.6 L 0.0 812.3" fill="none" stroke="#2b6bff" stroke-width="6.0" stroke-opacity="0.9"/><path d="M 0.0 1142.8 L 1.3 1142.5 L 8.2 1141.2 L 15.1 1139.8 L 21.9 1138.5 L 28.8 1137.1 L 35.7 1135.8 L 42.6 1134.4 L 49.5 1133.1 L 49.5 1133.1 L 56.4 1131.7 L 63.3 1130.4 L 70.2 1129.2 L 77.1 1127.9 L 84.0 1126.7 L 90.9 1125.5 L 97.8 1124.3 L 104.7 1123.1 L 111.7 1121.8 L 118.6 1120.5 L 125.5 1119.3 L 132.3 1117.9 L 139.2 1116.5 L 146.1 1115.1 L 152.9 1113.6 L 159.8 1112.0 L 159.8 1112.0 L 166.6 1110.4 L 173.4 1108.8 L 180.2 1107.1 L 187.0 1105.4 L 193.8 1103.7 L 200.6 1101.9 L 207.4 1100.1 L 214.2 1098.3 L 221.0 1096.4 L 227.7 1094.5 L 234.4 1092.5 L 241.2 1090.4 L 247.8 1088.3 L 254.5 1086.2 L 261.1 1084.0 L 267.8 1081.7 L 267.8 1081.7 L 274.4 1079.4 L 281.0 1077.0 L 287.7 1074.7 L 294.3 1072.3 L 301.0 1069.9 L 307.6 1067.5 L 314.3 1065.0 L 320.8 1062.4 L 327.4 1059.7 L 333.9 1057.0 L 340.3 1054.1 L 346.6 1051.1 L 352.8 1048.0 L 359.0 1044.8 L 365.0 1041.4 L 370.9 1037.8 L 370.9 1037.8 L 376.7 1034.0 L 382.5 1030.1 L 388.1 1026.1 L 393.7 1021.9 L 399.2 1017.7 L 404.7 1013.2 L 410.0 1008.7 L 415.3 1004.1 L 420.5 999.4 L 425.7 994.6 L 430.8 989.7 L 435.7 984.8 L 440.7 979.8 L 445.5 974.7 L 450.3 969.6 L 455.0 964.5 L 455.0 964.5 L 459.6 959.3 L 464.1 954.0 L 468.4 948.5 L 472.7 943.0 L 477.0 937.4 L 481.1 931.7 L 485.2 926.0 L 489.2 920.2 L 493.1 914.4 L 497.0 908.5 L 500.9 902.6 L 504.7 896.7 L 508.5 890.7 L 512.3 884.8 L 516.1 878.9 L 519.9 873.0 L 519.9 873.0 L 523.7 867.1 L 527.5 861.2 L 531.2 855.2 L 535.0 849.3 L 538.7 843.3 L 542.3 837.3 L 546.0 831.3 L 549.6 825.3 L 553.1 819.2 L 556.6 813.1 L 560.1 807.0 L 563.5 800.9 L 566.8 794.7 L 570.1 788.5 L 573.3 782.3 L 576.5 776.0 L 576.5 776.0 L 579.5 769.8 L 582.5 763.4 L 585.4 757.1 L 588.2 750.6 L 591.0 744.2 L 593.7 737.7 L 596.4 731.2 L 599.0 724.7 L 601.6 718.2 L 604.2 711.7 L 606.7 705.1 L 609.3 698.6 L 611.8 692.0 L 614.3 685.5 L 616.9 679.0 L 619.4 672.5 L 619.4 672.5 L 621.9 665.7 L 624.2 658.4 L 626.4 650.7 L 628.6 642.8 L 630.7 634.7 L 632.7 626.6 L 634.8 618.5 L 636.9 610.6 L 639.0 603.0 L 641.3 595.9 L 643.6 589.3 L 646.2 583.3 L 648.9 578.1 L 651.8 573.7 L 655.0 570.4 L 658.5 568.1 L 658.5 568.1 L 662.3 567.1 L 666.7 567.4 L 671.5 568.8 L 676.7 571.2 L 682.1 574.4 L 687.6 578.2 L 693.3 582.5 L 699.0 587.2 L 704.6 592.1 L 710.0 597.1 L 715.2 601.9 L 720.0 606.5 L 724.5 610.7 L 728.5 614.4 L 731.9 617.3 L 734.6 619.4" fill="none" stroke="#2b6bff" stroke-width="6.0" stroke-opacity="0.9"/><path d="M 762.4 611.7 L 763.8 615.1 L 765.8 619.3 L 768.2 624.0 L 771.0 629.3 L 774.0 635.1 L 777.2 641.3 L 780.5 647.9 L 783.8 654.7 L 787.0 661.6 L 790.0 668.7 L 792.8 675.9 L 795.2 683.0 L 797.3 690.0 L 798.8 696.8 L 799.7 703.4 L 799.9 709.6 L 799.9 709.6 L 799.5 715.7 L 798.6 721.7 L 797.1 727.7 L 795.3 733.8 L 793.0 739.8 L 790.4 745.8 L 787.6 751.8 L 784.5 757.8 L 781.2 763.8 L 777.9 769.8 L 774.5 775.7 L 771.0 781.7 L 767.7 787.6 L 764.4 793.6 L 761.2 799.5 L 758.3 805.5 L 758.3 805.5 L 755.4 811.4 L 752.5 817.2 L 749.5 823.1 L 746.4 828.9 L 743.3 834.7 L 740.1 840.5 L 737.0 846.3 L 733.8 852.1 L 730.6 858.0 L 727.5 863.8 L 724.4 869.6 L 721.4 875.5 L 718.4 881.4 L 715.5 887.3 L 712.7 893.3 L 710.0 899.3 L 710.0 899.3 L 707.5 905.4 L 705.3 911.6 L 703.2 918.0 L 701.3 924.5 L 699.5 931.0 L 697.7 937.5 L 696.0 944.1 L 694.2 950.6 L 692.4 957.1 L 690.5 963.5 L 688.4 969.8 L 686.2 975.9 L 683.7 981.9 L 681.0 987.7 L 677.9 993.3 L 674.5 998.7 L 674.5 998.7 L 670.8 1003.8 L 666.9 1008.8 L 662.6 1013.6 L 658.2 1018.3 L 653.6 1022.8 L 648.8 1027.2 L 643.8 1031.5 L 638.7 1035.7 L 633.5 1039.8 L 628.2 1043.8 L 622.8 1047.7 L 617.4 1051.5 L 611.9 1055.2 L 606.4 1058.9 L 600.9 1062.5 L 595.4 1066.0 L 595.4 1066.0 L 589.9 1069.5 L 584.2 1072.7 L 578.5 1075.8 L 572.6 1078.7 L 566.6 1081.5 L 560.6 1084.2 L 554.5 1086.9 L 548.3 1089.5 L 542.2 1092.1 L 536.0 1094.7 L 529.9 1097.3 L 523.8 1099.9 L 517.8 1102.7 L 511.8 1105.5 L 505.9 1108.5 L 500.0 1111.7 L 500.0 1111.7 L 494.3 1114.9 L 488.6 1118.2 L 482.9 1121.5 L 477.2 1124.9 L 471.6 1128.4 L 466.0 1131.9 L 460.4 1135.4 L 454.8 1139.0 L 449.3 1142.6 L 443.8 1146.2 L 438.3 1149.9 L 432.9 1153.7 L 427.4 1157.4 L 422.0 1161.2 L 416.6 1165.0 L 411.2 1168.9 L 411.2 1168.9 L 405.9 1172.7 L 400.6 1176.7 L 395.4 1180.7 L 390.2 1184.8 L 385.0 1188.9 L 379.9 1193.1 L 374.8 1197.3 L 369.7 1201.5 L 364.6 1205.7 L 359.5 1209.9 L 354.4 1214.2 L 349.3 1218.4 L 344.2 1222.6 L 339.1 1226.7 L 333.9 1230.8 L 328.7 1234.9 L 328.7 1234.9 L 323.5 1239.0 L 318.3 1243.0 L 313.1 1247.1 L 307.8 1251.2 L 302.6 1255.2 L 297.4 1259.3 L 292.2 1263.3 L 286.9 1267.3 L 281.6 1271.3 L 276.4 1275.3 L 271.1 1279.3 L 265.8 1283.2 L 260.4 1287.1 L 255.1 1291.0 L 249.7 1294.8 L 244.3 1298.6 L 244.3 1298.6 L 238.8 1302.3 L 233.4 1306.0 L 227.9 1309.7 L 222.4 1313.4 L 216.9 1317.1 L 211.4 1320.7 L 205.8 1324.3 L 200.3 1327.9 L 194.7 1331.4 L 189.1 1334.9 L 183.4 1338.4 L 177.8 1341.8 L 172.1 1345.2 L 166.4 1348.5 L 160.6 1351.7 L 154.9 1354.9 L 154.9 1354.9 L 149.1 1358.1 L 143.3 1361.2 L 137.4 1364.3 L 131.6 1367.4 L 125.7 1370.4 L 119.8 1373.4 L 113.8 1376.4 L 107.9 1379.2 L 101.9 1382.1 L 95.9 1384.9 L 89.9 1387.6 L 83.8 1390.2 L 77.7 1392.8 L 71.6 1395.3 L 65.5 1397.7 L 59.3 1400.0 L 59.3 1400.0 L 53.1 1402.3 L 46.9 1404.4 L 40.7 1406.5 L 34.4 1408.5 L 28.1 1410.4 L 21.7 1412.3 L 15.4 1414.1 L 9.0 1415.8 L 2.6 1417.5 L 0.0 1418.2" fill="none" stroke="#2b6bff" stroke-width="6.0" stroke-opacity="0.9"/><path d="M 0.0 625.8 L 4.2 624.7 L 11.4 622.9 L 18.6 621.2 L 25.8 619.4 L 32.9 617.6 L 40.1 615.9 L 47.3 614.1 L 47.3 614.1 L 54.5 612.4 L 61.7 610.7 L 68.9 609.2 L 76.2 607.6 L 83.4 606.1 L 90.7 604.6 L 97.9 603.1 L 105.2 601.6 L 112.4 600.0 L 119.7 598.4 L 126.8 596.7 L 134.0 594.9 L 141.1 593.0 L 148.2 591.1 L 155.3 588.9 L 162.2 586.7 L 162.2 586.7 L 169.2 584.3 L 176.1 581.8 L 183.0 579.2 L 189.9 576.5 L 196.7 573.7 L 203.5 570.9 L 210.3 567.9 L 217.1 564.9 L 223.8 561.9 L 230.5 558.7 L 237.1 555.5 L 243.8 552.3 L 250.4 549.0 L 257.0 545.6 L 263.5 542.3 L 270.0 538.8 L 270.0 538.8 L 276.5 535.3 L 283.0 531.8 L 289.5 528.2 L 295.9 524.6 L 302.4 520.9 L 308.8 517.2 L 315.1 513.4 L 321.5 509.5 L 327.7 505.6 L 334.0 501.6 L 340.2 497.6 L 346.3 493.5 L 352.4 489.3 L 358.5 485.0 L 364.4 480.7 L 370.3 476.3 L 370.3 476.3 L 376.1 471.8 L 381.9 467.3 L 387.6 462.6 L 393.3 457.9 L 398.8 453.1 L 404.4 448.2 L 409.9 443.3 L 415.3 438.3 L 420.7 433.3 L 426.1 428.2 L 431.4 423.1 L 436.7 417.9 L 442.0 412.7 L 447.2 407.5 L 452.4 402.3 L 457.6 397.1 L 457.6 397.1 L 462.9 391.7 L 468.4 386.0 L 474.1 380.0 L 479.8 373.7 L 485.6 367.4 L 491.3 361.0 L 497.0 354.6 L 502.6 348.3 L 508.0 342.2 L 513.1 336.3 L 518.0 330.6 L 522.6 325.4 L 526.8 320.6 L 530.5 316.2 L 533.8 312.5 L 536.6 309.4" fill="none" stroke="#2b6bff" stroke-width="6.0" stroke-opacity="0.9"/></g><g id="clips"><circle cx="575.2" cy="331.9" r="2" fill="none" stroke="#0b5" stroke-width="0.6"/><circle cx="0.0" cy="812.3" r="2" fill="none" stroke="#0b5" stroke-width="0.6"/><circle cx="0.0" cy="1142.8" r="2" fill="none" stroke="#0b5" stroke-width="0.6"/><circle cx="734.6" cy="619.4" r="2" fill="none" stroke="#0b5" stroke-width="0.6"/><circle cx="762.4" cy="611.7" r="2" fill="none" stroke="#0b5" stroke-width="0.6"/><circle cx="0.0" cy="1418.2" r="2" fill="none" stroke="#0b5" stroke-width="0.6"/><circle cx="0.0" cy="625.8" r="2" fill="none" stroke="#0b5" stroke-width="0.6"/><circle cx="536.6" cy="309.4" r="2" fill="none" stroke="#0b5" stroke-width="0.6"/></g><g id="power"><circle cx="0.0" cy="1418.1" r="5" fill="none" stroke="#e33" stroke-width="1"/><circle cx="0.0" cy="1142.8" r="5" fill="none" stroke="#e33" stroke-width="1"/><circle cx="0.0" cy="812.3" r="5" fill="none" stroke="#e33" stroke-width="1"/><circle cx="0.0" cy="625.8" r="5" fill="none" stroke="#e33" stroke-width="1"/></g><g id="bridges"></g></svg>