<svg xmlns="http://www.w3.org/2000/svg" width="2000mm" height="1000mm" viewBox="0 0 2000 1000"><g id="outline"><rect x="0" y="0" width="2000" height="1000" fill="none" stroke="#000" stroke-width="1"/></g><g id="channels"><path d="M 995.5 1000.0 L 997.3 996.8 L 1000.6 990.9 L 1003.7 984.9 L 1006.6 978.9 L 1009.3 972.9 L 1011.7 966.8 L 1013.9 960.7 L 1015.8 954.6 L 1017.4 948.4 L 1018.6 942.2 L 1018.6 942.2 L 1019.5 935.9 L 1020.1 929.6 L 1020.3 923.1 L 1020.3 916.6 L 1019.9 910.1 L 1019.4 903.5 L 1018.6 896.8 L 1017.6 890.2 L 1016.5 883.5 L 1015.3 876.8 L 1013.9 870.2 L 1012.5 863.5 L 1011.0 856.9 L 1009.5 850.3 L 1008.1 843.8 L 1006.6 837.3 L 1006.6 837.3 L 1005.1 830.9 L 1003.6 824.5 L 1001.9 818.1 L 1000.1 811.7 L 998.2 805.3 L 996.3 798.9 L 994.2 792.5 L 992.1 786.2 L 989.9 779.9 L 987.7 773.6 L 985.4 767.3 L 983.0 761.1 L 980.6 754.8 L 978.2 748.6 L 975.7 742.5 L 973.2 736.3 L 973.2 736.3 L 970.7 730.2 L 968.1 724.0 L 965.5 717.9 L 962.9 711.7 L 960.2 705.6 L 957.5 699.5 L 954.8 693.4 L 951.9 687.4 L 949.0 681.4 L 946.0 675.4 L 942.9 669.5 L 939.7 663.7 L 936.4 658.0 L 933.0 652.3 L 929.5 646.8 L 925.8 641.4 L 925.8 641.4 L 922.0 636.0 L 918.0 630.7 L 913.9 625.6 L 909.7 620.5 L 905.4 615.4 L 901.0 610.5 L 896.5 605.6 L 891.9 600.8 L 887.2 596.0 L 882.5 591.3 L 877.7 586.6 L 872.9 582.0 L 868.0 577.4 L 863.1 572.9 L 858.2 568.4 L 853.3 563.9 L 853.3 563.9 L 848.4 559.6 L 843.3 555.3 L 838.2 551.1 L 833.0 547.0 L 827.7 542.9 L 822.4 538.9 L 817.0 535.0 L 811.6 531.1 L 806.2 527.1 L 800.8 523.2 L 795.4 519.3 L 790.0 515.4 L 784.7 511.4 L 779.4 507.4 L 774.1 503.3 L 769.0 499.1 L 769.0 499.1 L 763.8 494.9 L 758.7 490.6 L 753.6 486.3 L 748.6 482.0 L 743.5 477.7 L 738.5 473.4 L 733.5 469.0 L 728.5 464.6 L 723.5 460.2 L 718.5 455.8 L 713.6 451.4 L 708.6 446.9 L 703.7 442.5 L 698.7 438.0 L 693.8 433.6 L 688.9 429.1 L 688.9 429.1 L 684.0 424.6 L 679.1 420.0 L 674.3 415.4 L 669.6 410.8 L 664.8 406.1 L 660.1 401.4 L 655.4 396.6 L 650.7 391.9 L 645.9 387.3 L 641.2 382.6 L 636.4 378.0 L 631.5 373.5 L 626.6 369.0 L 621.6 364.6 L 616.6 360.3 L 611.4 356.2 L 611.4 356.2 L 606.2 352.1 L 600.9 348.1 L 595.6 344.1 L 590.2 340.3 L 584.8 336.5 L 579.3 332.7 L 573.8 329.0 L 568.2 325.3 L 562.6 321.7 L 557.0 318.1 L 551.4 314.6 L 545.7 311.1 L 540.1 307.6 L 534.4 304.1 L 528.7 300.7 L 523.0 297.2 L 523.0 297.2 L 517.3 293.8 L 511.6 290.5 L 505.8 287.2 L 500.0 284.0 L 494.2 280.8 L 488.3 277.6 L 482.5 274.5 L 476.6 271.3 L 470.7 268.2 L 464.8 265.1 L 458.9 262.0 L 453.0 258.9 L 447.1 255.8 L 441.3 252.7 L 435.4 249.5 L 429.6 246.4 L 429.6 246.4 L 423.7 243.2 L 417.9 240.0 L 412.0 236.8 L 406.2 233.6 L 400.4 230.4 L 394.5 227.2 L 388.7 224.0 L 382.9 220.8 L 377.0 217.6 L 371.2 214.4 L 365.4 211.2 L 359.6 207.9 L 353.8 204.7 L 348.0 201.4 L 342.2 198.2 L 336.4 194.9 L 336.4 194.9 L 330.6 191.6 L 324.8 188.4 L 318.9 185.2 L 313.0 182.0 L 307.1 178.9 L 301.2 175.7 L 295.3 172.5 L 289.5 169.3 L 283.6 166.0 L 277.9 162.7 L 272.1 159.3 L 266.5 155.8 L 260.9 152.2 L 255.4 148.6 L 250.1 144.8 L 244.8 140.8 L 244.8 140.8 L 239.6 136.8 L 234.3 132.7 L 229.0 128.5 L 223.7 124.3 L 218.5 120.0 L 213.3 115.7 L 208.2 111.2 L 203.2 106.7 L 198.3 102.1 L 193.6 97.3 L 189.1 92.5 L 184.8 87.6 L 180.7 82.5 L 176.8 77.3 L 173.2 72.0 L 169.9 66.6 L 169.9 66.6 L 166.9 60.9 L 164.2 55.1 L 161.7 49.2 L 159.5 43.0 L 157.4 36.8 L 155.6 30.4 L 153.9 23.9 L 152.5 17.4 L 151.1 10.8 L 149.9 4.1 L 149.2 0.0" fill="none" stroke="#ffd23d" stroke-width="6.0" stroke-opacity="0.9"/><path d="M 345.9 0.0 L 349.4 3.1 L 354.5 7.2 L 359.7 11.2 L 365.2 15.0 L 370.8 18.7 L 376.5 22.3 L 382.2 25.8 L 388.1 29.2 L 394.0 32.6 L 399.9 35.9 L 405.8 39.2 L 411.7 42.6 L 417.5 45.9 L 423.3 49.3 L 423.3 49.3 L 429.0 52.6 L 434.8 55.9 L 440.6 59.0 L 446.5 62.2 L 452.4 65.2 L 458.3 68.2 L 464.2 71.2 L 470.2 74.2 L 476.2 77.1 L 482.2 80.1 L 488.2 83.0 L 494.1 85.9 L 500.1 88.9 L 506.0 91.9 L 511.9 95.0 L 517.8 98.1 L 517.8 98.1 L 523.6 101.3 L 529.5 104.5 L 535.2 107.8 L 541.0 111.2 L 546.8 114.5 L 552.5 117.9 L 558.3 121.2 L 564.0 124.6 L 569.8 127.9 L 575.6 131.3 L 581.3 134.6 L 587.1 137.8 L 593.0 141.0 L 598.8 144.1 L 604.7 147.1 L 610.7 150.0 L 610.7 150.0 L 616.7 152.9 L 622.7 155.9 L 628.7 158.9 L 634.7 161.9 L 640.7 164.9 L 646.8 167.8 L 652.9 170.7 L 659.0 173.5 L 665.1 176.2 L 671.3 178.8 L 677.5 181.2 L 683.7 183.5 L 689.9 185.6 L 696.1 187.5 L 702.4 189.1 L 708.7 190.5 L 708.7 190.5 L 715.3 191.7 L 722.2 193.0 L 729.5 194.3 L 737.0 195.4 L 744.7 196.5 L 752.4 197.4 L 760.1 198.2 L 767.6 198.7 L 774.9 198.9 L 782.0 198.8 L 788.6 198.4 L 794.8 197.7 L 800.4 196.5 L 805.3 194.8 L 809.5 192.6 L 812.8 189.9 L 812.8 189.9 L 815.4 186.5 L 817.4 182.4 L 818.8 177.5 L 819.7 172.1 L 820.1 166.2 L 820.1 159.8 L 819.6 153.2 L 818.7 146.4 L 817.5 139.4 L 815.9 132.4 L 814.0 125.5 L 811.8 118.7 L 809.4 112.1 L 806.8 105.9 L 804.1 100.2 L 801.1 94.9 L 801.1 94.9 L 797.9 90.0 L 794.2 85.4 L 790.0 80.9 L 785.4 76.6 L 780.5 72.4 L 775.3 68.3 L 769.8 64.4 L 764.1 60.5 L 758.3 56.7 L 752.4 53.0 L 746.4 49.3 L 740.4 45.7 L 734.5 42.1 L 728.6 38.4 L 722.9 34.7 L 717.3 31.0 L 717.3 31.0 L 711.9 27.4 L 706.3 23.8 L 700.6 20.4 L 694.8 17.1 L 689.1 13.8 L 683.2 10.5 L 677.4 7.3 L 671.6 4.1 L 665.8 0.8 L 664.4 0.0" fill="none" stroke="#ffd23d" stroke-width="6.0" stroke-opacity="0.9"/><path d="M 1283.6 0.0 L 1283.8 0.7 L 1285.5 7.1 L 1287.3 13.5 L 1287.3 13.5 L 1289.1 19.9 L 1290.9 26.3 L 1292.8 32.7 L 1294.8 39.0 L 1296.8 45.4 L 1298.8 51.7 L 1300.9 58.0 L 1303.0 64.3 L 1305.1 70.6 L 1307.3 76.9 L 1309.5 83.2 L 1311.7 89.5 L 1314.0 95.7 L 1316.3 102.0 L 1318.6 108.2 L 1320.9 114.5 L 1320.9 114.5 L 1323.3 120.7 L 1325.7 126.9 L 1328.1 133.0 L 1330.6 139.2 L 1333.1 145.4 L 1335.6 151.5 L 1338.2 157.7 L 1340.8 163.8 L 1343.4 169.9 L 1346.0 176.0 L 1348.7 182.1 L 1351.3 188.2 L 1353.9 194.3 L 1356.6 200.4 L 1359.2 206.5 L 1361.9 212.7 L 1361.9 212.7 L 1364.5 218.8 L 1367.2 224.9 L 1369.8 231.0 L 1372.5 237.1 L 1375.2 243.1 L 1377.8 249.2 L 1380.5 255.3 L 1383.2 261.4 L 1385.9 267.5 L 1388.7 273.5 L 1391.4 279.6 L 1394.2 285.7 L 1396.9 291.7 L 1399.7 297.7 L 1402.5 303.8 L 1405.3 309.8 L 1405.3 309.8 L 1408.1 315.8 L 1411.0 321.8 L 1413.8 327.9 L 1416.7 333.9 L 1419.5 339.9 L 1422.4 345.9 L 1425.3 351.8 L 1428.2 357.8 L 1431.2 363.8 L 1434.1 369.8 L 1437.1 375.7 L 1440.0 381.7 L 1443.0 387.6 L 1446.0 393.5 L 1449.1 399.5 L 1452.1 405.4 L 1452.1 405.4 L 1455.2 411.3 L 1458.3 417.1 L 1461.5 423.0 L 1464.7 428.8 L 1467.9 434.6 L 1471.2 440.4 L 1474.4 446.2 L 1477.7 452.0 L 1481.0 457.8 L 1484.2 463.6 L 1487.4 469.4 L 1490.7 475.3 L 1493.8 481.1 L 1496.9 487.0 L 1500.0 492.9 L 1503.0 498.8 L 1503.0 498.8 L 1506.0 504.7 L 1508.9 510.7 L 1511.8 516.7 L 1514.7 522.7 L 1517.5 528.7 L 1520.3 534.7 L 1523.1 540.8 L 1525.9 546.8 L 1528.6 552.9 L 1531.4 558.9 L 1534.1 565.0 L 1536.8 571.1 L 1539.5 577.2 L 1542.2 583.2 L 1544.9 589.3 L 1547.6 595.4 L 1547.6 595.4 L 1550.3 601.5 L 1553.0 607.6 L 1555.6 613.7 L 1558.2 619.8 L 1560.8 625.9 L 1563.3 632.1 L 1565.9 638.2 L 1568.5 644.3 L 1571.1 650.5 L 1573.6 656.6 L 1576.2 662.7 L 1578.9 668.8 L 1581.5 674.9 L 1584.2 681.0 L 1587.0 687.0 L 1589.8 693.1 L 1589.8 693.1 L 1592.6 699.1 L 1595.5 705.1 L 1598.5 711.0 L 1601.5 716.9 L 1604.5 722.9 L 1607.6 728.8 L 1610.7 734.7 L 1613.8 740.6 L 1616.9 746.4 L 1620.0 752.3 L 1623.0 758.2 L 1626.1 764.1 L 1629.1 770.1 L 1632.1 776.0 L 1635.0 782.0 L 1637.9 788.0 L 1637.9 788.0 L 1640.8 794.0 L 1643.7 800.0 L 1646.5 806.0 L 1649.4 812.0 L 1652.2 818.0 L 1655.1 824.0 L 1657.9 830.1 L 1660.7 836.1 L 1663.4 842.2 L 1666.1 848.3 L 1668.8 854.4 L 1671.4 860.5 L 1673.9 866.6 L 1676.4 872.8 L 1678.8 879.0 L 1681.1 885.2 L 1681.1 885.2 L 1683.3 891.4 L 1685.5 897.7 L 1687.7 904.0 L 1689.8 910.3 L 1691.8 916.6 L 1693.8 923.0 L 1695.7 929.3 L 1697.6 935.7 L 1699.4 942.1 L 1701.2 948.6 L 1702.9 955.0 L 1704.6 961.4 L 1706.2 967.9 L 1707.8 974.3 L 1709.3 980.8 L 1710.8 987.3 L 1710.8 987.3 L 1712.2 993.8 L 1713.4 1000.0" fill="none" stroke="#ffd23d" stroke-width="6.0" stroke-opacity="0.9"/></g><g id="clips"><circle cx="995.5" cy="1000.0" r="2" fill="none" stroke="#0b5" stroke-width="0.6"/><circle cx="149.2" cy="0.0" r="2" fill="none" stroke="#0b5" stroke-width="0.6"/><circle cx="345.9" cy="0.0" r="2" fill="none" stroke="#0b5" stroke-width="0.6"/><circle cx="664.4" cy="0.0" r="2" fill="none" stroke="#0b5" stroke-width="0.6"/><circle cx="1283.6" cy="0.0" r="2" fill="none" stroke="#0b5" stroke-width="0.6"/><circle cx="1713.4" cy="1000.0" r="2" fill="none" stroke="#0b5" stroke-width="0.6"/></g><g id="power"><circle cx="995.5" cy="1000.0" r="5" fill="none" stroke="#e33" stroke-width="1"/><circle cx="1713.4" cy="1000.0" r="5" fill="none" stroke="#e33" stroke-width="1"/><circle cx="149.2" cy="0.0" r="5" fill="none" stroke="#e33" stroke-width="1"/><circle cx="345.8" cy="0.0" r="5" fill="none" stroke="#e33" stroke-width="1"/><circle cx="664.3" cy="0.0" r="5" fill="none" stroke="#e33" stroke-width="1"/><circle cx="1283.6" cy="0.0" r="5" fill="none" stroke="#e33" stroke-width="1"/></g></svg>