<svg xmlns="http://www.w3.org/2000/svg" width="1000mm" height="500mm" viewBox="0 0 1000 500"><g id="outline"><rect x="0" y="0" width="1000" height="500" fill="none" stroke="#000" stroke-width="1"/></g><g id="channels"><path d="M 1000.0 180.7 L 998.4 179.7 L 993.1 176.4 L 987.9 173.1 L 982.6 169.8 L 977.3 166.5 L 972.0 163.3 L 966.8 160.0 L 961.5 156.6 L 961.5 156.6 L 956.1 153.2 L 950.4 149.6 L 944.6 145.9 L 938.5 142.2 L 932.4 138.3 L 926.3 134.5 L 920.1 130.7 L 914.1 127.0 L 908.3 123.3 L 902.7 119.9 L 897.3 116.6 L 892.4 113.5 L 887.8 110.6 L 883.7 108.1 L 880.1 105.9 L 877.2 104.1" fill="none" stroke="#ff7a1a" stroke-width="6.0" stroke-opacity="0.9"/><path d="M 774.7 52.9 L 770.7 52.4 L 765.9 52.0 L 760.3 51.6 L 754.1 51.1 L 747.3 50.6 L 740.0 50.1 L 732.3 49.5 L 724.4 48.8 L 716.3 48.0 L 708.0 47.1 L 699.8 46.1 L 691.6 44.8 L 683.7 43.4 L 675.9 41.8 L 668.6 40.0 L 661.7 38.0 L 661.7 38.0 L 655.1 35.7 L 648.6 33.3 L 642.0 30.7 L 635.5 27.9 L 629.0 24.9 L 622.6 21.8 L 616.3 18.6 L 610.0 15.2 L 603.8 11.6 L 597.7 8.0 L 591.6 4.2 L 585.7 0.2 L 585.4 0.0" fill="none" stroke="#ff7a1a" stroke-width="6.0" stroke-opacity="0.9"/><path d="M 750.1 78.6 L 748.3 78.4 L 746.1 78.3 L 743.6 78.1 L 740.8 77.9 L 737.8 77.7 L 734.6 77.5 L 731.1 77.2 L 727.6 77.0 L 723.9 76.7 L 720.2 76.3 L 716.5 76.0 L 712.8 75.6 L 709.1 75.2 L 705.5 74.8 L 702.1 74.3 L 698.8 73.8 L 698.8 73.8 L 695.7 73.3 L 692.5 72.8 L 689.4 72.2 L 686.2 71.6 L 683.0 71.0 L 679.9 70.3 L 676.7 69.7 L 673.6 68.9 L 670.4 68.2 L 667.3 67.5 L 664.2 66.7 L 661.1 65.8 L 658.0 65.0 L 654.9 64.1 L 651.8 63.2 L 648.8 62.2 L 648.8 62.2 L 645.6 61.2 L 642.4 60.0 L 639.0 58.7 L 635.6 57.4 L 632.1 56.0 L 628.7 54.6 L 625.3 53.1 L 621.9 51.7 L 618.6 50.3 L 615.5 48.9 L 612.5 47.6 L 609.7 46.3 L 607.2 45.2 L 604.9 44.2 L 602.9 43.3 L 601.3 42.6" fill="none" stroke="#ff7a1a" stroke-width="6.0" stroke-opacity="0.9"/></g><g id="clips"><circle cx="1000.0" cy="180.7" r="2" fill="none" stroke="#0b5" stroke-width="0.6"/><circle cx="877.2" cy="104.1" r="2" fill="none" stroke="#0b5" stroke-width="0.6"/><circle cx="774.7" cy="52.9" r="2" fill="none" stroke="#0b5" stroke-width="0.6"/><circle cx="585.4" cy="0.0" r="2" fill="none" stroke="#0b5" stroke-width="0.6"/><circle cx="750.1" cy="78.6" r="2" fill="none" stroke="#0b5" stroke-width="0.6"/><circle cx="601.3" cy="42.6" r="2" fill="none" stroke="#0b5" stroke-width="0.6"/></g><g id="power"><circle cx="585.3" cy="0.0" r="5" fill="none" stroke="#e33" stroke-width="1"/><circle cx="1000.0" cy="180.7" r="5" fill="none" stroke="#e33" stroke-width="1"/></g><g id="bridges"></g></svg>