<svg xmlns="http://www.w3.org/2000/svg" width="2000mm" height="1000mm" viewBox="0 0 2000 1000"><g id="outline"><rect x="0" y="0" width="2000" height="1000" fill="none" stroke="#000" stroke-width="1"/></g><g id="channels"><path d="M 1649.2 1000.0 L 1648.8 997.4 L 1647.9 990.7 L 1647.0 984.1 L 1646.1 977.4 L 1645.4 970.8 L 1644.6 964.2 L 1644.6 964.2 L 1644.0 957.7 L 1643.5 951.1 L 1643.2 944.5 L 1643.0 937.9 L 1643.0 931.3 L 1643.1 924.6 L 1643.2 918.0 L 1643.5 911.3 L 1643.8 904.6 L 1644.2 897.9 L 1644.6 891.2 L 1645.0 884.5 L 1645.4 877.9 L 1645.9 871.2 L 1646.3 864.5 L 1646.7 857.9 L 1646.7 857.9 L 1647.0 851.2 L 1647.4 844.6 L 1647.9 838.0 L 1648.4 831.3 L 1648.9 824.7 L 1649.4 818.1 L 1650.0 811.5 L 1650.6 804.8 L 1651.2 798.2 L 1651.9 791.6 L 1652.5 785.0 L 1653.2 778.3 L 1653.8 771.7 L 1654.5 765.1 L 1655.2 758.5 L 1655.8 751.9 L 1655.8 751.9 L 1656.5 745.2 L 1657.2 738.6 L 1657.9 732.0 L 1658.6 725.4 L 1659.4 718.8 L 1660.1 712.2 L 1660.9 705.6 L 1661.7 699.0 L 1662.4 692.4 L 1663.2 685.8 L 1664.0 679.2 L 1664.8 672.6 L 1665.6 665.9 L 1666.3 659.3 L 1667.1 652.7 L 1667.9 646.1 L 1667.9 646.1 L 1668.6 639.5 L 1669.5 632.9 L 1670.4 626.3 L 1671.3 619.7 L 1672.2 613.1 L 1673.1 606.5 L 1674.0 599.9 L 1674.9 593.3 L 1675.8 586.7 L 1676.6 580.1 L 1677.4 573.5 L 1678.0 566.9 L 1678.7 560.3 L 1679.2 553.6 L 1679.6 547.0 L 1679.9 540.4 L 1679.9 540.4 L 1680.1 533.8 L 1680.2 527.2 L 1680.2 520.5 L 1680.2 513.9 L 1680.1 507.3 L 1679.9 500.6 L 1679.6 494.0 L 1679.3 487.3 L 1678.9 480.7 L 1678.5 474.1 L 1678.1 467.4 L 1677.6 460.8 L 1677.1 454.2 L 1676.6 447.5 L 1676.1 440.9 L 1675.5 434.3 L 1675.5 434.3 L 1674.9 427.7 L 1674.2 421.1 L 1673.3 414.5 L 1672.4 407.9 L 1671.4 401.3 L 1670.4 394.7 L 1669.4 388.1 L 1668.4 381.5 L 1667.3 374.9 L 1666.3 368.3 L 1665.4 361.7 L 1664.5 355.2 L 1663.8 348.6 L 1663.1 342.0 L 1662.6 335.4 L 1662.2 328.7 L 1662.2 328.7 L 1661.8 321.9 L 1661.5 314.8 L 1661.2 307.3 L 1660.9 299.7 L 1660.7 292.0 L 1660.5 284.3 L 1660.4 276.6 L 1660.4 269.0 L 1660.5 261.7 L 1660.7 254.6 L 1661.1 247.9 L 1661.6 241.6 L 1662.3 235.9 L 1663.2 230.8 L 1664.3 226.3 L 1665.6 222.7 L 1665.6 222.7 L 1667.2 219.9 L 1669.0 218.2 L 1671.1 217.4 L 1673.4 217.2 L 1675.9 217.7 L 1678.5 218.7 L 1681.3 219.9 L 1684.2 221.4 L 1687.2 222.9 L 1690.2 224.4 L 1693.2 225.7 L 1696.3 226.6 L 1699.3 227.0 L 1702.3 226.8 L 1705.2 225.9 L 1708.0 224.2 L 1708.0 224.2 L 1710.8 221.4 L 1713.7 217.8 L 1716.7 213.4 L 1719.7 208.4 L 1722.8 202.9 L 1726.0 197.1 L 1729.1 191.1 L 1732.2 185.0 L 1735.2 178.9 L 1738.1 173.1 L 1741.0 167.7 L 1743.8 162.7 L 1746.4 158.3 L 1748.8 154.6 L 1751.0 151.9 L 1753.1 150.2 L 1753.1 150.2 L 1754.8 149.5 L 1756.3 149.9 L 1757.6 151.2 L 1758.7 153.2 L 1759.6 155.9 L 1760.3 159.0 L 1761.0 162.4 L 1761.7 166.1 L 1762.3 169.8 L 1762.9 173.5 L 1763.7 176.9 L 1764.5 180.1 L 1765.4 182.8 L 1766.6 184.9 L 1767.9 186.2 L 1769.5 186.7 L 1769.5 186.7 L 1771.4 186.3 L 1773.5 185.0 L 1775.8 183.0 L 1778.3 180.5 L 1780.9 177.6 L 1783.6 174.3 L 1786.3 170.8 L 1789.1 167.2 L 1791.9 163.6 L 1794.7 160.3 L 1797.4 157.2 L 1800.0 154.6 L 1802.5 152.4 L 1804.8 151.0 L 1806.9 150.3 L 1808.8 150.6 L 1808.8 150.6 L 1810.4 151.8 L 1811.8 153.8 L 1813.1 156.5 L 1814.2 159.9 L 1815.2 163.8 L 1816.2 168.1 L 1817.0 172.7 L 1817.8 177.6 L 1818.6 182.5 L 1819.3 187.3 L 1820.2 192.1 L 1821.0 196.6 L 1822.0 200.8 L 1823.0 204.6 L 1824.2 207.8 L 1825.6 210.4 L 1825.6 210.4 L 1827.2 212.2 L 1829.0 213.4 L 1831.0 214.2 L 1833.1 214.4 L 1835.3 214.4 L 1837.6 214.1 L 1839.9 213.8 L 1842.2 213.3 L 1844.4 213.0 L 1846.6 212.8 L 1848.6 212.9 L 1850.4 213.3 L 1852.1 214.3 L 1853.4 215.7 L 1854.5 217.9 L 1855.2 220.8 L 1855.2 220.8 L 1855.6 224.5 L 1855.7 228.8 L 1855.6 233.8 L 1855.2 239.3 L 1854.6 245.3 L 1853.8 251.6 L 1852.9 258.2 L 1851.9 265.0 L 1850.8 271.8 L 1849.7 278.8 L 1848.5 285.6 L 1847.4 292.4 L 1846.3 298.9 L 1845.3 305.1 L 1844.4 311.0 L 1843.6 316.3 L 1843.6 316.3 L 1843.0 321.3 L 1842.5 326.0 L 1842.2 330.5 L 1841.9 334.8 L 1841.7 339.0 L 1841.5 343.0 L 1841.3 347.0 L 1841.0 350.9 L 1840.7 354.8 L 1840.2 358.7 L 1839.6 362.6 L 1838.8 366.7 L 1837.7 370.9 L 1836.4 375.2 L 1834.8 379.7 L 1832.8 384.5 L 1832.8 384.5 L 1830.4 389.4 L 1827.6 394.5 L 1824.3 399.6 L 1820.7 404.8 L 1816.9 410.1 L 1812.8 415.5 L 1808.6 420.9 L 1804.3 426.4 L 1800.0 432.0 L 1795.8 437.7 L 1791.7 443.4 L 1787.9 449.2 L 1784.2 455.1 L 1781.0 461.0 L 1778.1 467.0 L 1775.7 473.0 L 1775.7 473.0 L 1773.7 479.1 L 1772.0 485.4 L 1770.6 491.7 L 1769.3 498.2 L 1768.3 504.7 L 1767.5 511.3 L 1766.9 517.9 L 1766.3 524.6 L 1765.9 531.3 L 1765.6 538.0 L 1765.4 544.8 L 1765.2 551.6 L 1765.0 558.3 L 1764.8 565.0 L 1764.6 571.7 L 1764.4 578.4 L 1764.4 578.4 L 1764.2 585.0 L 1764.0 591.6 L 1763.9 598.3 L 1763.9 604.9 L 1764.0 611.5 L 1764.1 618.2 L 1764.2 624.9 L 1764.4 631.5 L 1764.7 638.2 L 1764.9 644.8 L 1765.2 651.5 L 1765.5 658.2 L 1765.8 664.8 L 1766.1 671.5 L 1766.4 678.1 L 1766.7 684.8 L 1766.7 684.8 L 1767.0 691.4 L 1767.2 698.0 L 1767.5 704.7 L 1767.8 711.3 L 1768.1 718.0 L 1768.4 724.6 L 1768.8 731.3 L 1769.1 737.9 L 1769.5 744.6 L 1769.9 751.2 L 1770.4 757.8 L 1770.9 764.5 L 1771.4 771.1 L 1771.9 777.7 L 1772.5 784.3 L 1773.2 790.9 L 1773.2 790.9 L 1773.8 797.6 L 1774.4 804.2 L 1775.0 810.9 L 1775.6 817.6 L 1776.2 824.3 L 1776.8 831.0 L 1777.4 837.7 L 1778.2 844.4 L 1779.0 851.0 L 1779.8 857.7 L 1780.9 864.2 L 1782.0 870.8 L 1783.3 877.3 L 1784.7 883.7 L 1786.4 890.0 L 1788.2 896.2 L 1788.2 896.2 L 1790.2 902.5 L 1792.3 908.7 L 1794.5 915.0 L 1796.8 921.2 L 1799.3 927.5 L 1801.8 933.6 L 1804.5 939.8 L 1807.3 945.8 L 1810.3 951.8 L 1813.4 957.7 L 1816.7 963.4 L 1820.1 969.0 L 1823.7 974.4 L 1827.5 979.7 L 1831.4 984.8 L 1835.5 989.7 L 1835.5 989.7 L 1839.9 994.4 L 1844.5 998.8 L 1845.9 1000.0" fill="none" stroke="#ffd23d" stroke-width="6.0" stroke-opacity="0.9"/></g><g id="clips"><circle cx="1649.2" cy="1000.0" r="2" fill="none" stroke="#0b5" stroke-width="0.6"/><circle cx="1845.9" cy="1000.0" r="2" fill="none" stroke="#0b5" stroke-width="0.6"/></g><g id="power"><circle cx="1649.2" cy="1000.0" r="5" fill="none" stroke="#e33" stroke-width="1"/><circle cx="1845.8" cy="1000.0" r="5" fill="none" stroke="#e33" stroke-width="1"/></g></svg>