<svg xmlns="http://www.w3.org/2000/svg" width="2000mm" height="1000mm" viewBox="0 0 2000 1000"><g id="outline"><rect x="0" y="0" width="2000" height="1000" fill="none" stroke="#000" stroke-width="1"/></g><g id="channels"><path d="M 164.4 1000.0 L 160.0 997.5 L 154.3 994.1 L 148.6 990.6 L 143.1 987.0 L 137.7 983.3 L 132.4 979.4 L 127.2 975.4 L 127.2 975.4 L 122.1 971.1 L 117.0 966.9 L 111.9 962.5 L 106.9 958.0 L 101.9 953.5 L 97.0 948.8 L 92.1 944.1 L 87.4 939.3 L 82.7 934.4 L 78.2 929.4 L 73.8 924.3 L 69.6 919.2 L 65.6 914.0 L 61.8 908.6 L 58.1 903.2 L 54.7 897.8 L 54.7 897.8 L 51.4 892.1 L 48.2 886.4 L 45.1 880.5 L 42.1 874.4 L 39.2 868.3 L 36.5 862.1 L 33.9 855.8 L 31.5 849.4 L 29.3 843.0 L 27.4 836.6 L 25.7 830.2 L 24.3 823.7 L 23.2 817.3 L 22.3 811.0 L 21.9 804.7 L 21.7 798.4 L 21.7 798.4 L 21.9 792.2 L 22.5 785.8 L 23.3 779.4 L 24.4 772.8 L 25.8 766.3 L 27.5 759.7 L 29.4 753.1 L 31.6 746.6 L 34.0 740.2 L 36.6 733.9 L 39.4 727.7 L 42.4 721.7 L 45.7 715.9 L 49.1 710.3 L 52.6 705.0 L 56.4 699.9 L 56.4 699.9 L 60.3 695.1 L 64.6 690.2 L 69.2 685.5 L 74.0 680.9 L 79.0 676.4 L 84.3 672.1 L 89.8 668.0 L 95.4 664.0 L 101.2 660.2 L 107.0 656.7 L 113.0 653.4 L 119.0 650.4 L 125.1 647.7 L 131.1 645.3 L 137.1 643.2 L 143.1 641.4 L 143.1 641.4 L 149.2 640.1 L 155.4 639.1 L 161.7 638.4 L 168.1 638.0 L 174.6 637.9 L 181.2 638.1 L 187.9 638.6 L 194.6 639.2 L 201.3 640.1 L 208.0 641.1 L 214.7 642.4 L 221.3 643.7 L 227.9 645.2 L 234.4 646.7 L 240.8 648.4 L 247.1 650.1 L 247.1 650.1 L 253.4 651.9 L 259.6 653.9 L 265.8 656.1 L 272.1 658.4 L 278.3 660.9 L 284.4 663.6 L 290.5 666.4 L 296.6 669.3 L 302.6 672.3 L 308.6 675.5 L 314.5 678.8 L 320.3 682.2 L 326.1 685.6 L 331.8 689.2 L 337.3 692.8 L 342.8 696.4 L 342.8 696.4 L 348.2 700.2 L 353.6 704.0 L 359.1 708.0 L 364.4 712.0 L 369.8 716.2 L 375.0 720.5 L 380.2 724.8 L 385.3 729.3 L 390.3 733.8 L 395.1 738.5 L 399.8 743.2 L 404.4 748.1 L 408.7 753.1 L 412.8 758.1 L 416.8 763.3 L 420.5 768.5 L 420.5 768.5 L 423.9 773.9 L 427.1 779.5 L 430.0 785.2 L 432.8 791.1 L 435.3 797.1 L 437.7 803.2 L 439.9 809.4 L 442.1 815.6 L 444.1 821.9 L 446.0 828.3 L 447.9 834.6 L 449.7 841.0 L 451.5 847.4 L 453.4 853.8 L 455.3 860.1 L 457.2 866.3 L 457.2 866.3 L 459.0 872.8 L 460.7 879.7 L 462.1 887.0 L 463.5 894.5 L 464.7 902.1 L 465.9 909.8 L 467.1 917.5 L 468.3 925.0 L 469.5 932.2 L 470.9 939.1 L 472.3 945.6 L 474.0 951.5 L 475.9 956.8 L 478.0 961.3 L 480.4 965.0 L 483.1 967.8 L 483.1 967.8 L 486.3 969.7 L 490.0 970.9 L 494.2 971.5 L 498.7 971.5 L 503.5 971.0 L 508.5 969.9 L 513.6 968.4 L 518.7 966.3 L 523.7 963.9 L 528.6 961.2 L 533.2 958.1 L 537.6 954.7 L 541.5 951.0 L 545.0 947.2 L 547.8 943.2 L 550.1 939.0 L 550.1 939.0 L 551.6 934.5 L 552.7 929.5 L 553.3 923.9 L 553.5 917.9 L 553.3 911.6 L 552.8 904.9 L 552.0 898.0 L 551.1 890.9 L 550.0 883.6 L 548.8 876.2 L 547.5 868.8 L 546.3 861.4 L 545.2 854.0 L 544.2 846.8 L 543.3 839.8 L 542.7 833.0 L 542.7 833.0 L 542.2 826.4 L 541.7 819.8 L 541.2 813.2 L 540.6 806.5 L 540.1 799.9 L 539.5 793.3 L 538.9 786.7 L 538.4 780.0 L 537.8 773.4 L 537.3 766.8 L 536.8 760.2 L 536.3 753.5 L 535.9 746.9 L 535.6 740.3 L 535.2 733.6 L 535.0 727.0 L 535.0 727.0 L 534.8 720.3 L 534.7 713.7 L 534.7 707.0 L 534.7 700.4 L 534.8 693.7 L 534.9 687.1 L 535.1 680.4 L 535.2 673.8 L 535.4 667.1 L 535.5 660.5 L 535.6 653.8 L 535.7 647.1 L 535.8 640.5 L 535.8 633.8 L 535.7 627.2 L 535.5 620.6 L 535.5 620.6 L 535.3 613.9 L 535.2 607.3 L 535.0 600.6 L 534.9 593.9 L 534.7 587.2 L 534.6 580.5 L 534.4 573.8 L 534.1 567.1 L 533.7 560.5 L 533.3 553.8 L 532.8 547.2 L 532.2 540.6 L 531.4 534.0 L 530.5 527.5 L 529.5 521.0 L 528.2 514.5 L 528.2 514.5 L 526.9 508.1 L 525.4 501.7 L 523.7 495.3 L 522.0 488.9 L 520.1 482.5 L 518.2 476.1 L 516.1 469.8 L 513.9 463.5 L 511.7 457.2 L 509.3 451.0 L 506.9 444.8 L 504.3 438.6 L 501.7 432.5 L 499.0 426.5 L 496.2 420.4 L 493.4 414.5 L 493.4 414.5 L 490.5 408.6 L 487.4 402.8 L 484.1 397.0 L 480.8 391.3 L 477.3 385.6 L 473.8 380.0 L 470.1 374.4 L 466.5 368.8 L 462.7 363.3 L 459.0 357.8 L 455.2 352.3 L 451.4 346.8 L 447.6 341.3 L 443.8 335.7 L 440.1 330.2 L 436.5 324.6 L 436.5 324.6 L 432.8 319.1 L 429.2 313.5 L 425.5 308.0 L 421.7 302.5 L 418.0 297.0 L 414.3 291.5 L 410.5 286.0 L 406.8 280.5 L 403.0 275.0 L 399.3 269.5 L 395.6 264.0 L 391.9 258.4 L 388.2 252.9 L 384.6 247.3 L 381.0 241.7 L 377.5 236.1 L 377.5 236.1 L 374.0 230.5 L 370.5 224.8 L 367.0 219.1 L 363.6 213.4 L 360.2 207.7 L 356.8 202.0 L 353.4 196.3 L 350.0 190.5 L 346.7 184.8 L 343.4 179.0 L 340.1 173.2 L 336.8 167.4 L 333.6 161.6 L 330.3 155.8 L 327.1 150.0 L 323.9 144.2 L 323.9 144.2 L 320.7 138.3 L 317.6 132.4 L 314.7 126.4 L 311.7 120.4 L 308.8 114.4 L 306.0 108.3 L 303.1 102.3 L 300.2 96.2 L 297.3 90.2 L 294.4 84.2 L 291.4 78.3 L 288.3 72.4 L 285.1 66.6 L 281.8 60.9 L 278.3 55.3 L 274.7 49.8 L 274.7 49.8 L 271.0 44.3 L 267.3 38.8 L 263.5 33.2 L 259.7 27.5 L 255.9 21.9 L 251.9 16.4 L 247.9 10.9 L 243.8 5.5 L 239.5 0.3 L 239.2 0.0" fill="none" stroke="#ffd23d" stroke-width="6.0" stroke-opacity="0.9"/><path d="M 378.6 0.0 L 379.6 1.4 L 383.5 6.8 L 387.5 12.1 L 391.5 17.4 L 395.6 22.7 L 399.7 28.0 L 403.7 33.2 L 407.8 38.5 L 411.9 43.7 L 416.0 48.9 L 416.0 48.9 L 420.2 54.1 L 424.3 59.3 L 428.5 64.5 L 432.7 69.6 L 437.0 74.8 L 441.2 79.9 L 445.5 84.9 L 449.8 90.0 L 454.1 95.1 L 458.5 100.1 L 462.8 105.2 L 467.2 110.2 L 471.5 115.2 L 475.9 120.3 L 480.2 125.3 L 484.6 130.3 L 484.6 130.3 L 488.9 135.4 L 493.3 140.3 L 497.8 145.3 L 502.2 150.2 L 506.7 155.2 L 511.2 160.1 L 515.7 165.0 L 520.2 169.9 L 524.7 174.8 L 529.1 179.8 L 533.6 184.7 L 538.0 189.7 L 542.4 194.7 L 546.7 199.8 L 550.9 204.8 L 555.1 210.0 L 555.1 210.0 L 559.3 215.2 L 563.5 220.3 L 567.6 225.5 L 571.7 230.8 L 575.8 236.0 L 579.9 241.3 L 583.9 246.6 L 587.9 251.9 L 591.9 257.2 L 595.8 262.6 L 599.7 268.0 L 603.5 273.5 L 607.2 279.0 L 610.9 284.5 L 614.6 290.0 L 618.1 295.6 L 618.1 295.6 L 621.6 301.2 L 625.1 306.9 L 628.5 312.6 L 631.8 318.4 L 635.1 324.2 L 638.3 330.0 L 641.5 335.8 L 644.7 341.7 L 647.8 347.6 L 650.8 353.5 L 653.8 359.5 L 656.7 365.5 L 659.6 371.5 L 662.5 377.5 L 665.3 383.5 L 668.1 389.5 L 668.1 389.5 L 670.8 395.6 L 673.5 401.6 L 676.2 407.7 L 678.9 413.8 L 681.6 420.0 L 684.2 426.1 L 686.8 432.3 L 689.3 438.5 L 691.7 444.7 L 694.0 450.9 L 696.3 457.2 L 698.4 463.4 L 700.5 469.8 L 702.4 476.1 L 704.2 482.4 L 705.8 488.8 L 705.8 488.8 L 707.3 495.3 L 708.5 501.7 L 709.7 508.2 L 710.7 514.8 L 711.6 521.3 L 712.3 527.9 L 713.0 534.5 L 713.6 541.2 L 714.2 547.8 L 714.7 554.5 L 715.2 561.1 L 715.7 567.8 L 716.2 574.4 L 716.7 581.1 L 717.3 587.7 L 717.9 594.3 L 717.9 594.3 L 718.5 600.9 L 719.1 607.5 L 719.7 614.2 L 720.2 620.8 L 720.7 627.4 L 721.1 634.1 L 721.6 640.7 L 722.1 647.3 L 722.6 654.0 L 723.1 660.6 L 723.6 667.2 L 724.2 673.8 L 724.9 680.4 L 725.6 687.0 L 726.5 693.6 L 727.4 700.2 L 727.4 700.2 L 728.4 706.8 L 729.5 713.3 L 730.7 719.8 L 732.0 726.4 L 733.3 732.9 L 734.7 739.4 L 736.2 745.9 L 737.6 752.4 L 739.1 758.9 L 740.6 765.4 L 742.0 771.9 L 743.5 778.4 L 744.8 784.9 L 746.2 791.4 L 747.4 797.9 L 748.6 804.5 L 748.6 804.5 L 749.7 811.0 L 750.8 817.6 L 751.8 824.2 L 752.7 830.8 L 753.6 837.4 L 754.5 843.9 L 755.3 850.5 L 756.2 857.2 L 757.0 863.8 L 757.9 870.3 L 758.8 876.9 L 759.7 883.5 L 760.7 890.1 L 761.7 896.7 L 762.8 903.2 L 764.0 909.8 L 764.0 909.8 L 765.2 916.3 L 766.4 922.8 L 767.7 929.4 L 769.0 935.9 L 770.3 942.4 L 771.7 948.9 L 773.1 955.4 L 774.5 961.9 L 775.9 968.4 L 777.4 974.9 L 779.0 981.4 L 780.5 987.8 L 782.2 994.3 L 783.6 1000.0" fill="none" stroke="#ffd23d" stroke-width="6.0" stroke-opacity="0.9"/><path d="M 308.8 977.7 L 309.5 977.1 L 310.4 976.4 L 311.5 975.5 L 312.6 974.6 L 313.8 973.6 L 315.2 972.5 L 316.6 971.4 L 318.1 970.2 L 319.6 968.9 L 321.1 967.7 L 322.6 966.4 L 324.1 965.2 L 325.6 963.9 L 327.1 962.7 L 328.5 961.5 L 329.8 960.4 L 329.8 960.4 L 331.1 959.3 L 332.4 958.1 L 333.7 957.0 L 335.0 955.9 L 336.3 954.8 L 337.5 953.7 L 338.8 952.5 L 340.1 951.4 L 341.4 950.2 L 342.6 949.1 L 343.9 948.0 L 345.1 946.8 L 346.4 945.7 L 347.6 944.5 L 348.9 943.3 L 350.1 942.2 L 350.1 942.2 L 351.4 941.0 L 352.8 939.7 L 354.2 938.4 L 355.6 937.1 L 357.0 935.7 L 358.4 934.3 L 359.8 933.0 L 361.2 931.6 L 362.6 930.3 L 363.9 929.0 L 365.1 927.8 L 366.3 926.7 L 367.3 925.7 L 368.3 924.8 L 369.1 924.0 L 369.8 923.3" fill="none" stroke="#ffd23d" stroke-width="6.0" stroke-opacity="0.9"/></g><g id="clips"><circle cx="164.4" cy="1000.0" r="2" fill="none" stroke="#0b5" stroke-width="0.6"/><circle cx="239.2" cy="0.0" r="2" fill="none" stroke="#0b5" stroke-width="0.6"/><circle cx="378.6" cy="0.0" r="2" fill="none" stroke="#0b5" stroke-width="0.6"/><circle cx="783.6" cy="1000.0" r="2" fill="none" stroke="#0b5" stroke-width="0.6"/><circle cx="308.8" cy="977.7" r="2" fill="none" stroke="#0b5" stroke-width="0.6"/><circle cx="369.8" cy="923.3" r="2" fill="none" stroke="#0b5" stroke-width="0.6"/></g><g id="power"><circle cx="164.3" cy="1000.0" r="5" fill="none" stroke="#e33" stroke-width="1"/><circle cx="783.6" cy="1000.0" r="5" fill="none" stroke="#e33" stroke-width="1"/><circle cx="239.2" cy="0.0" r="5" fill="none" stroke="#e33" stroke-width="1"/><circle cx="378.5" cy="0.0" r="5" fill="none" stroke="#e33" stroke-width="1"/></g></svg>