<svg xmlns="http://www.w3.org/2000/svg" width="1000mm" height="2000mm" viewBox="0 0 1000 2000"><g id="outline"><rect x="0" y="0" width="1000" height="2000" fill="none" stroke="#000" stroke-width="1"/></g><g id="channels"><path d="M 1000.0 83.9 L 999.6 83.5 L 994.6 78.6 L 989.4 73.8 L 984.1 69.3 L 978.6 65.0 L 973.1 60.9 L 967.4 57.0 L 961.7 53.5 L 956.0 50.2 L 950.2 47.3 L 944.4 44.8 L 944.4 44.8 L 938.4 42.5 L 932.3 40.5 L 925.7 38.7 L 919.1 37.0 L 912.3 35.7 L 905.4 34.6 L 898.4 33.7 L 891.4 33.1 L 884.4 32.8 L 877.4 32.8 L 870.6 33.1 L 863.9 33.8 L 857.4 34.6 L 851.0 36.0 L 845.0 37.5 L 839.2 39.5 L 839.2 39.5 L 833.7 41.9 L 828.1 44.8 L 822.7 48.1 L 817.3 51.7 L 812.1 55.9 L 807.0 60.2 L 802.0 64.8 L 797.1 69.8 L 792.5 74.9 L 788.0 80.2 L 783.7 85.6 L 779.5 91.2 L 775.7 96.8 L 772.0 102.4 L 768.7 108.1 L 765.6 113.8 L 765.6 113.8 L 762.8 119.5 L 760.2 125.5 L 757.8 131.6 L 755.6 137.9 L 753.7 144.5 L 752.0 151.1 L 750.4 157.8 L 749.1 164.6 L 747.9 171.4 L 747.0 178.4 L 746.2 185.3 L 745.7 192.2 L 745.3 199.0 L 745.2 205.7 L 745.2 212.4 L 745.3 219.0 L 745.3 219.0 L 745.6 225.4 L 746.3 231.9 L 747.1 238.5 L 748.1 245.0 L 749.4 251.5 L 750.8 258.0 L 752.5 264.6 L 754.3 271.1 L 756.2 277.5 L 758.3 284.0 L 760.6 290.3 L 763.0 296.5 L 765.5 302.8 L 768.1 308.8 L 770.9 314.9 L 773.7 320.8 L 773.7 320.8 L 776.9 326.6 L 780.7 332.3 L 785.0 337.9 L 789.7 343.4 L 794.7 348.9 L 799.9 354.2 L 805.2 359.5 L 810.3 364.8 L 815.3 370.0 L 820.1 375.2 L 824.5 380.4 L 828.4 385.6 L 831.7 390.8 L 834.2 396.1 L 836.1 401.4 L 836.9 406.7 L 836.9 406.7 L 836.9 412.2 L 836.3 417.7 L 834.9 423.4 L 833.1 429.0 L 830.7 434.7 L 827.8 440.3 L 824.5 446.0 L 820.9 451.7 L 817.0 457.2 L 812.7 462.8 L 808.3 468.2 L 803.8 473.5 L 799.2 478.6 L 794.6 483.5 L 790.0 488.3 L 785.5 493.0 L 785.5 493.0 L 780.8 497.2 L 775.7 501.1 L 770.3 504.9 L 764.6 508.3 L 758.8 511.7 L 752.6 514.8 L 746.5 517.9 L 740.3 520.9 L 733.9 524.0 L 727.7 527.0 L 721.5 530.2 L 715.5 533.6 L 709.7 537.0 L 704.1 540.8 L 698.8 544.8 L 693.8 549.1 L 693.8 549.1 L 689.1 553.7 L 684.5 558.4 L 680.1 563.3 L 675.7 568.4 L 671.6 573.7 L 667.5 579.0 L 663.6 584.4 L 659.7 590.0 L 656.0 595.7 L 652.3 601.4 L 648.8 607.2 L 645.3 613.0 L 642.1 618.9 L 638.8 624.8 L 635.6 630.7 L 632.5 636.6 L 632.5 636.6 L 629.6 642.6 L 626.8 648.7 L 624.1 654.7 L 621.6 661.0 L 619.2 667.2 L 616.9 673.5 L 614.7 680.0 L 612.6 686.4 L 610.5 692.8 L 608.5 699.3 L 606.4 705.8 L 604.4 712.3 L 602.5 718.7 L 600.5 725.3 L 598.5 731.7 L 596.4 738.1 L 596.4 738.1 L 594.2 744.5 L 592.2 750.9 L 590.2 757.3 L 588.2 763.8 L 586.2 770.2 L 584.3 776.6 L 582.2 783.1 L 580.3 789.5 L 578.4 796.0 L 576.6 802.5 L 574.7 808.9 L 572.7 815.4 L 570.9 821.8 L 569.1 828.4 L 567.2 834.8 L 565.3 841.2 L 565.3 841.2 L 563.5 847.8 L 561.8 854.3 L 560.1 860.8 L 558.3 867.4 L 556.7 873.9 L 555.1 880.4 L 553.3 886.9 L 551.7 893.5 L 550.1 900.0 L 548.4 906.5 L 546.6 913.0 L 544.9 919.6 L 543.0 926.0 L 541.2 932.4 L 539.1 938.9 L 537.0 945.3 L 537.0 945.3 L 534.9 951.6 L 532.7 958.0 L 530.5 964.3 L 528.2 970.6 L 525.9 977.0 L 523.5 983.3 L 521.1 989.6 L 518.6 995.9 L 516.1 1002.1 L 513.6 1008.4 L 511.0 1014.5 L 508.3 1020.8 L 505.6 1026.9 L 502.9 1033.1 L 500.3 1039.3 L 497.5 1045.3 L 497.5 1045.3 L 494.6 1051.5 L 491.8 1057.5 L 488.8 1063.7 L 485.9 1069.6 L 482.9 1075.7 L 479.8 1081.7 L 476.7 1087.7 L 473.6 1093.6 L 470.4 1099.6 L 467.2 1105.5 L 464.0 1111.5 L 460.8 1117.4 L 457.5 1123.3 L 454.3 1129.1 L 450.9 1135.1 L 447.7 1141.0 L 447.7 1141.0 L 444.4 1146.8 L 441.0 1152.7 L 437.8 1158.6 L 434.5 1164.6 L 431.2 1170.4 L 427.9 1176.4 L 424.5 1182.2 L 421.2 1188.1 L 417.7 1193.8 L 414.2 1199.7 L 410.7 1205.4 L 407.0 1211.0 L 403.4 1216.7 L 399.6 1222.2 L 395.7 1227.6 L 391.8 1233.0 L 391.8 1233.0 L 387.7 1238.5 L 383.6 1244.1 L 379.6 1249.8 L 375.5 1255.7 L 371.2 1261.5 L 367.0 1267.3 L 362.7 1273.0 L 358.3 1278.6 L 353.8 1284.0 L 349.3 1289.1 L 344.5 1293.9 L 339.7 1298.3 L 334.8 1302.2 L 329.7 1305.8 L 324.4 1308.8 L 319.0 1311.2 L 319.0 1311.2 L 313.4 1312.9 L 307.5 1313.9 L 301.3 1314.4 L 295.0 1314.4 L 288.5 1314.0 L 281.9 1313.2 L 275.1 1312.1 L 268.4 1310.7 L 261.6 1309.1 L 254.8 1307.5 L 248.2 1305.8 L 241.5 1304.2 L 235.0 1302.6 L 228.7 1301.2 L 222.6 1299.9 L 216.7 1299.1 L 216.7 1299.1 L 210.8 1298.1 L 204.6 1297.0 L 198.1 1295.5 L 191.4 1293.9 L 184.8 1292.2 L 178.2 1290.5 L 171.7 1288.9 L 165.5 1287.4 L 159.7 1286.0 L 154.2 1284.9 L 149.2 1284.1 L 144.9 1283.7 L 141.2 1283.8 L 138.4 1284.4 L 136.5 1285.6 L 135.6 1287.4 L 135.6 1287.4 L 135.8 1290.1 L 137.4 1293.8 L 140.0 1298.3 L 143.6 1303.4 L 147.9 1309.0 L 152.9 1315.1 L 158.5 1321.4 L 164.3 1328.0 L 170.2 1334.5 L 176.2 1340.9 L 182.0 1347.1 L 187.5 1352.9 L 192.5 1358.2 L 196.9 1362.9 L 200.5 1366.8 L 203.1 1369.9" fill="none" stroke="#00e5ff" stroke-width="6.0" stroke-opacity="0.9"/><path d="M 133.0 1369.5 L 130.3 1371.6 L 126.8 1374.0 L 122.8 1376.8 L 118.3 1379.9 L 113.3 1383.3 L 108.0 1386.9 L 102.5 1390.7 L 96.8 1394.8 L 91.1 1398.9 L 85.4 1403.1 L 79.9 1407.5 L 74.5 1411.9 L 69.4 1416.3 L 64.8 1420.6 L 60.6 1424.9 L 57.0 1429.1 L 57.0 1429.1 L 53.8 1433.5 L 50.5 1438.3 L 47.2 1443.3 L 44.2 1448.5 L 41.2 1454.0 L 38.4 1459.5 L 35.8 1465.0 L 33.4 1470.4 L 31.4 1475.7 L 29.7 1480.8 L 28.2 1485.6 L 27.3 1489.9 L 26.7 1493.8 L 26.6 1497.3 L 27.1 1500.1 L 28.0 1502.2 L 28.0 1502.2 L 29.8 1503.4 L 32.4 1503.8 L 35.7 1503.4 L 39.7 1502.5 L 44.2 1501.0 L 49.2 1499.1 L 54.4 1496.9 L 59.8 1494.6 L 65.4 1492.2 L 70.9 1490.0 L 76.2 1487.9 L 81.4 1486.2 L 86.1 1484.8 L 90.3 1484.1 L 94.1 1484.1 L 97.1 1484.7 L 97.1 1484.7 L 99.4 1486.2 L 101.3 1488.2 L 102.7 1490.7 L 103.9 1493.6 L 104.6 1496.7 L 105.2 1500.3 L 105.7 1504.1 L 106.0 1508.1 L 106.2 1512.2 L 106.5 1516.3 L 106.7 1520.5 L 107.0 1524.6 L 107.6 1528.6 L 108.4 1532.4 L 109.4 1536.0 L 110.8 1539.4 L 110.8 1539.4 L 112.5 1542.5 L 114.3 1545.7 L 116.4 1549.0 L 118.5 1552.3 L 120.8 1555.6 L 123.2 1558.8 L 125.6 1562.0 L 128.1 1565.2 L 130.7 1568.2 L 133.2 1571.1 L 135.7 1573.9 L 138.1 1576.5 L 140.5 1579.0 L 142.8 1581.3 L 145.0 1583.3 L 147.0 1585.1 L 147.0 1585.1 L 148.9 1586.7 L 150.7 1588.0 L 152.4 1589.1 L 153.9 1590.0 L 155.3 1590.8 L 156.9 1591.4 L 158.2 1591.9 L 159.7 1592.2 L 161.1 1592.4 L 162.6 1592.6 L 164.2 1592.7 L 165.9 1592.7 L 167.6 1592.8 L 169.5 1592.8 L 171.6 1592.8 L 173.9 1592.9 L 173.9 1592.9 L 176.3 1592.9 L 178.9 1592.7 L 181.7 1592.4 L 184.7 1592.0 L 187.7 1591.5 L 190.9 1590.9 L 194.1 1590.3 L 197.4 1589.8 L 200.6 1589.1 L 203.9 1588.6 L 207.2 1588.1 L 210.3 1587.7 L 213.5 1587.5 L 216.5 1587.5 L 219.4 1587.6 L 222.1 1587.9 L 222.1 1587.9 L 224.8 1588.7 L 227.4 1590.0 L 230.0 1591.8 L 232.6 1593.8 L 235.2 1596.1 L 237.7 1598.5 L 240.2 1600.9 L 242.6 1603.3 L 244.9 1605.5 L 247.2 1607.4 L 249.4 1609.0 L 251.5 1610.0 L 253.6 1610.5 L 255.7 1610.3 L 257.5 1609.3 L 259.3 1607.5 L 259.3 1607.5 L 260.9 1604.7 L 262.3 1601.1 L 263.3 1596.6 L 264.3 1591.5 L 265.1 1585.8 L 265.7 1579.7 L 266.4 1573.1 L 267.1 1566.4 L 267.8 1559.4 L 268.6 1552.3 L 269.6 1545.3 L 270.7 1538.3 L 272.1 1531.6 L 273.8 1525.2 L 275.8 1519.2 L 278.1 1513.7 L 278.1 1513.7 L 280.9 1508.5 L 283.9 1503.5 L 287.1 1498.6 L 290.6 1493.8 L 294.3 1489.0 L 298.3 1484.3 L 302.3 1479.8 L 306.5 1475.3 L 310.8 1470.8 L 315.2 1466.5 L 319.6 1462.1 L 324.0 1457.8 L 328.4 1453.4 L 332.8 1449.2 L 337.3 1444.9 L 341.6 1440.6 L 341.6 1440.6 L 345.8 1436.3 L 350.2 1432.1 L 354.5 1427.9 L 359.0 1423.8 L 363.5 1419.6 L 368.0 1415.6 L 372.6 1411.6 L 377.1 1407.5 L 381.7 1403.6 L 386.3 1399.7 L 391.0 1395.7 L 395.6 1391.8 L 400.2 1387.9 L 404.9 1383.9 L 409.5 1380.0 L 414.1 1376.1 L 414.1 1376.1 L 418.9 1372.2 L 423.6 1368.4 L 428.3 1364.5 L 433.1 1360.8 L 437.9 1357.0 L 442.8 1353.4 L 447.6 1349.7 L 452.4 1345.9 L 457.2 1342.3 L 462.0 1338.5 L 466.8 1334.7 L 471.5 1330.8 L 476.1 1327.0 L 480.7 1323.1 L 485.2 1319.0 L 489.7 1314.9 L 489.7 1314.9 L 494.0 1310.8 L 498.4 1306.6 L 502.9 1302.4 L 507.2 1298.1 L 511.5 1293.9 L 515.7 1289.5 L 520.0 1285.1 L 524.2 1280.7 L 528.3 1276.2 L 532.4 1271.7 L 536.4 1267.2 L 540.3 1262.6 L 544.1 1257.9 L 548.0 1253.2 L 551.6 1248.4 L 555.2 1243.6 L 555.2 1243.6 L 558.6 1238.6 L 562.0 1233.6 L 565.3 1228.6 L 568.6 1223.4 L 571.8 1218.2 L 574.9 1213.0 L 577.8 1207.8 L 580.8 1202.4 L 583.7 1197.0 L 586.5 1191.6 L 589.3 1186.3 L 591.9 1180.8 L 594.6 1175.3 L 597.2 1169.8 L 599.7 1164.3 L 602.3 1158.8 L 602.3 1158.8 L 604.7 1153.2 L 607.1 1147.7 L 609.3 1142.1 L 611.5 1136.4 L 613.7 1130.8 L 615.7 1125.0 L 617.8 1119.4 L 619.8 1113.6 L 621.7 1107.8 L 623.6 1102.1 L 625.5 1096.2 L 627.4 1090.5 L 629.2 1084.7 L 631.0 1078.8 L 632.9 1073.1 L 634.8 1067.3 L 634.8 1067.3 L 636.6 1061.5 L 638.4 1055.7 L 640.2 1049.9 L 642.0 1044.1 L 643.7 1038.3 L 645.4 1032.5 L 647.1 1026.6 L 648.9 1020.9 L 650.5 1015.0 L 652.1 1009.1 L 653.8 1003.3 L 655.4 997.4 L 656.9 991.6 L 658.6 985.7 L 660.1 979.8 L 661.6 973.9 L 661.6 973.9 L 663.1 968.1 L 664.4 962.0 L 665.7 956.0 L 666.8 949.8 L 668.0 943.7 L 669.0 937.5 L 670.1 931.4 L 671.2 925.3 L 672.4 919.2 L 673.5 913.2 L 674.9 907.3 L 676.3 901.4 L 677.8 895.7 L 679.5 890.1 L 681.3 884.6 L 683.4 879.3 L 683.4 879.3 L 685.7 873.9 L 688.2 868.1 L 690.8 862.1 L 693.7 855.9 L 696.7 849.7 L 699.7 843.5 L 702.8 837.5 L 706.1 831.7 L 709.3 826.4 L 712.5 821.5 L 715.8 817.0 L 719.0 813.3 L 722.2 810.3 L 725.2 808.2 L 728.2 807.1 L 731.0 807.0 L 731.0 807.0 L 733.7 807.9 L 736.5 810.1 L 739.2 813.2 L 741.8 817.2 L 744.5 822.1 L 747.1 827.5 L 749.7 833.6 L 752.3 840.0 L 754.8 846.7 L 757.3 853.7 L 759.7 860.8 L 762.1 867.8 L 764.5 874.7 L 766.9 881.4 L 769.3 887.7 L 771.6 893.6 L 771.6 893.6 L 773.8 899.1 L 775.9 904.8 L 778.0 910.5 L 780.0 916.2 L 782.0 921.9 L 783.9 927.6 L 785.9 933.4 L 787.8 939.3 L 789.7 945.0 L 791.5 950.8 L 793.5 956.5 L 795.5 962.3 L 797.5 968.1 L 799.6 973.8 L 801.7 979.5 L 803.9 985.1 L 803.9 985.1 L 806.2 990.7 L 808.5 996.3 L 810.9 1001.8 L 813.4 1007.4 L 815.8 1013.0 L 818.4 1018.6 L 820.9 1024.0 L 823.5 1029.5 L 826.1 1035.1 L 828.6 1040.5 L 831.2 1046.1 L 833.8 1051.6 L 836.3 1057.1 L 838.8 1062.6 L 841.2 1068.2 L 843.7 1073.8 L 843.7 1073.8 L 846.1 1079.3 L 848.5 1084.9 L 850.9 1090.5 L 853.3 1096.0 L 855.7 1101.6 L 858.1 1107.3 L 860.5 1112.8 L 862.8 1118.4 L 865.2 1124.1 L 867.5 1129.6 L 869.7 1135.3 L 872.0 1140.9 L 874.1 1146.5 L 876.3 1152.3 L 878.3 1157.9 L 880.3 1163.6 L 880.3 1163.6 L 882.3 1169.4 L 884.2 1175.1 L 886.1 1180.9 L 887.8 1186.7 L 889.6 1192.5 L 891.4 1198.4 L 893.0 1204.2 L 894.6 1210.0 L 896.3 1215.8 L 897.9 1221.8 L 899.4 1227.6 L 901.0 1233.5 L 902.5 1239.4 L 903.9 1245.3 L 905.5 1251.2 L 906.9 1257.0 L 906.9 1257.0 L 908.4 1263.0 L 909.8 1268.8 L 911.1 1274.8 L 912.5 1280.6 L 913.7 1286.6 L 915.0 1292.5 L 916.2 1298.5 L 917.5 1304.4 L 918.7 1310.4 L 920.0 1316.3 L 921.1 1322.3 L 922.4 1328.2 L 923.6 1334.2 L 924.8 1340.2 L 926.0 1346.1 L 927.3 1352.1 L 927.3 1352.1 L 928.6 1357.9 L 929.9 1363.9 L 931.1 1369.8 L 932.4 1375.8 L 933.6 1381.7 L 934.8 1387.7 L 936.0 1393.6 L 937.3 1399.6 L 938.5 1405.5 L 939.8 1411.5 L 941.1 1417.3 L 942.3 1423.3 L 943.7 1429.2 L 945.0 1435.2 L 946.4 1441.0 L 947.7 1447.0 L 947.7 1447.0 L 949.2 1452.9 L 950.6 1458.8 L 952.1 1464.7 L 953.7 1470.5 L 955.2 1476.4 L 956.7 1482.2 L 958.4 1488.2 L 959.9 1494.0 L 961.5 1499.9 L 963.1 1505.8 L 964.6 1511.6 L 966.1 1517.5 L 967.7 1523.3 L 969.1 1529.3 L 970.6 1535.1 L 971.9 1541.1 L 971.9 1541.1 L 973.3 1546.9 L 974.6 1552.9 L 975.9 1558.8 L 977.2 1564.8 L 978.4 1570.6 L 979.7 1576.6 L 980.9 1582.6 L 982.2 1588.5 L 983.3 1594.5 L 984.5 1600.4 L 985.6 1606.4 L 986.8 1612.4 L 987.9 1618.4 L 989.0 1624.3 L 990.1 1630.3 L 991.1 1636.2 L 991.1 1636.2 L 992.2 1642.3 L 993.1 1648.2 L 994.1 1654.3 L 994.9 1660.2 L 995.8 1666.3 L 996.6 1672.3 L 997.4 1678.3 L 998.2 1684.3 L 999.1 1690.4 L 999.8 1696.4 L 1000.0 1697.6" fill="none" stroke="#00e5ff" stroke-width="6.0" stroke-opacity="0.9"/><path d="M 930.4 272.7 L 929.0 272.8 L 927.2 273.0 L 925.2 273.1 L 922.9 273.3 L 920.5 273.4 L 917.9 273.6 L 915.1 273.8 L 912.2 274.1 L 909.2 274.3 L 906.1 274.5 L 903.1 274.7 L 900.1 274.9 L 897.1 275.2 L 894.1 275.4 L 891.4 275.7 L 888.7 275.9 L 888.7 275.9 L 886.1 276.2 L 883.5 276.4 L 880.9 276.6 L 878.3 276.9 L 875.6 277.0 L 873.0 277.3 L 870.4 277.6 L 867.8 277.8 L 865.3 278.1 L 862.7 278.4 L 860.1 278.7 L 857.5 279.0 L 854.9 279.4 L 852.3 279.6 L 849.7 280.0 L 847.1 280.4 L 847.1 280.4 L 844.4 280.8 L 841.6 281.3 L 838.8 281.8 L 835.9 282.3 L 832.8 282.9 L 829.8 283.5 L 826.9 284.1 L 824.0 284.6 L 821.2 285.2 L 818.4 285.8 L 815.8 286.4 L 813.4 286.8 L 811.2 287.3 L 809.3 287.7 L 807.6 288.1 L 806.1 288.4" fill="none" stroke="#00e5ff" stroke-width="6.0" stroke-opacity="0.9"/></g><g id="clips"><circle cx="1000.0" cy="83.9" r="2" fill="none" stroke="#0b5" stroke-width="0.6"/><circle cx="203.1" cy="1369.9" r="2" fill="none" stroke="#0b5" stroke-width="0.6"/><circle cx="133.0" cy="1369.5" r="2" fill="none" stroke="#0b5" stroke-width="0.6"/><circle cx="1000.0" cy="1697.6" r="2" fill="none" stroke="#0b5" stroke-width="0.6"/><circle cx="930.4" cy="272.7" r="2" fill="none" stroke="#0b5" stroke-width="0.6"/><circle cx="806.1" cy="288.4" r="2" fill="none" stroke="#0b5" stroke-width="0.6"/></g><g id="power"><circle cx="1000.0" cy="1697.6" r="5" fill="none" stroke="#e33" stroke-width="1"/><circle cx="1000.0" cy="83.9" r="5" fill="none" stroke="#e33" stroke-width="1"/></g><g id="bridges"></g></svg>