<svg xmlns="http://www.w3.org/2000/svg" width="1000mm" height="2000mm" viewBox="0 0 1000 2000"><g id="outline"><rect x="0" y="0" width="1000" height="2000" fill="none" stroke="#000" stroke-width="1"/></g><g id="channels"><path d="M 1000.0 1784.0 L 1000.0 1784.0 L 994.2 1780.8 L 988.3 1777.6 L 982.5 1774.5 L 976.6 1771.3 L 970.7 1768.2 L 964.8 1765.1 L 958.9 1762.0 L 953.0 1758.9 L 947.1 1755.8 L 941.3 1752.7 L 935.4 1749.5 L 929.6 1746.4 L 929.6 1746.4 L 923.7 1743.2 L 917.9 1740.0 L 912.0 1736.8 L 906.2 1733.6 L 900.4 1730.4 L 894.5 1727.2 L 888.7 1724.0 L 882.9 1720.8 L 877.0 1717.6 L 871.2 1714.4 L 865.4 1711.2 L 859.6 1707.9 L 853.8 1704.7 L 848.0 1701.4 L 842.2 1698.2 L 836.4 1694.9 L 836.4 1694.9 L 830.6 1691.6 L 824.8 1688.4 L 818.9 1685.2 L 813.0 1682.0 L 807.1 1678.9 L 801.2 1675.7 L 795.3 1672.5 L 789.5 1669.3 L 783.6 1666.0 L 777.9 1662.7 L 772.1 1659.3 L 766.5 1655.8 L 760.9 1652.2 L 755.4 1648.6 L 750.1 1644.8 L 744.8 1640.8 L 744.8 1640.8 L 739.6 1636.8 L 734.3 1632.7 L 729.0 1628.5 L 723.7 1624.3 L 718.5 1620.0 L 713.3 1615.7 L 708.2 1611.2 L 703.2 1606.7 L 698.3 1602.1 L 693.6 1597.3 L 689.1 1592.5 L 684.8 1587.6 L 680.7 1582.5 L 676.8 1577.3 L 673.2 1572.0 L 669.9 1566.6 L 669.9 1566.6 L 666.9 1560.9 L 664.2 1555.1 L 661.7 1549.2 L 659.5 1543.0 L 657.4 1536.8 L 655.6 1530.4 L 653.9 1523.9 L 652.5 1517.4 L 651.1 1510.8 L 649.9 1504.1 L 648.8 1497.4 L 647.9 1490.7 L 647.0 1484.1 L 646.1 1477.4 L 645.4 1470.8 L 644.6 1464.2 L 644.6 1464.2 L 644.0 1457.7 L 643.5 1451.1 L 643.2 1444.5 L 643.0 1437.9 L 643.0 1431.3 L 643.1 1424.6 L 643.2 1418.0 L 643.5 1411.3 L 643.8 1404.6 L 644.2 1397.9 L 644.6 1391.2 L 645.0 1384.5 L 645.4 1377.9 L 645.9 1371.2 L 646.3 1364.5 L 646.7 1357.9 L 646.7 1357.9 L 647.0 1351.2 L 647.4 1344.6 L 647.9 1338.0 L 648.4 1331.3 L 648.9 1324.7 L 649.4 1318.1 L 650.0 1311.5 L 650.6 1304.8 L 651.2 1298.2 L 651.9 1291.6 L 652.5 1285.0 L 653.2 1278.3 L 653.8 1271.7 L 654.5 1265.1 L 655.2 1258.5 L 655.8 1251.9 L 655.8 1251.9 L 656.5 1245.2 L 657.2 1238.6 L 657.9 1232.0 L 658.6 1225.4 L 659.4 1218.8 L 660.1 1212.2 L 660.9 1205.6 L 661.7 1199.0 L 662.4 1192.4 L 663.2 1185.8 L 664.0 1179.2 L 664.8 1172.6 L 665.6 1165.9 L 666.3 1159.3 L 667.1 1152.7 L 667.9 1146.1 L 667.9 1146.1 L 668.6 1139.5 L 669.5 1132.9 L 670.4 1126.3 L 671.3 1119.7 L 672.2 1113.1 L 673.1 1106.5 L 674.0 1099.9 L 674.9 1093.3 L 675.8 1086.7 L 676.6 1080.1 L 677.4 1073.5 L 678.0 1066.9 L 678.7 1060.3 L 679.2 1053.6 L 679.6 1047.0 L 679.9 1040.4 L 679.9 1040.4 L 680.1 1033.8 L 680.2 1027.2 L 680.2 1020.5 L 680.2 1013.9 L 680.1 1007.3 L 679.9 1000.6 L 679.6 994.0 L 679.3 987.3 L 678.9 980.7 L 678.5 974.1 L 678.1 967.4 L 677.6 960.8 L 677.1 954.2 L 676.6 947.5 L 676.1 940.9 L 675.5 934.3 L 675.5 934.3 L 674.9 927.7 L 674.2 921.1 L 673.3 914.5 L 672.4 907.9 L 671.4 901.3 L 670.4 894.7 L 669.4 888.1 L 668.4 881.5 L 667.3 874.9 L 666.3 868.3 L 665.4 861.7 L 664.5 855.2 L 663.8 848.6 L 663.1 842.0 L 662.6 835.4 L 662.2 828.7 L 662.2 828.7 L 661.8 821.9 L 661.5 814.8 L 661.2 807.3 L 660.9 799.7 L 660.7 792.0 L 660.5 784.3 L 660.4 776.6 L 660.4 769.0 L 660.5 761.7 L 660.7 754.6 L 661.1 747.9 L 661.6 741.6 L 662.3 735.9 L 663.2 730.8 L 664.3 726.3 L 665.6 722.7 L 665.6 722.7 L 667.2 719.9 L 669.0 718.2 L 671.1 717.4 L 673.4 717.2 L 675.9 717.7 L 678.5 718.7 L 681.3 719.9 L 684.2 721.4 L 687.2 722.9 L 690.2 724.4 L 693.2 725.7 L 696.3 726.6 L 699.3 727.0 L 702.3 726.8 L 705.2 725.9 L 708.0 724.2 L 708.0 724.2 L 710.8 721.4 L 713.7 717.8 L 716.7 713.4 L 719.7 708.4 L 722.8 702.9 L 726.0 697.1 L 729.1 691.1 L 732.2 685.0 L 735.2 678.9 L 738.1 673.1 L 741.0 667.7 L 743.8 662.7 L 746.4 658.3 L 748.8 654.6 L 751.0 651.9 L 753.1 650.2 L 753.1 650.2 L 754.8 649.5 L 756.3 649.9 L 757.6 651.2 L 758.7 653.2 L 759.6 655.9 L 760.3 659.0 L 761.0 662.4 L 761.7 666.1 L 762.3 669.8 L 762.9 673.5 L 763.7 676.9 L 764.5 680.1 L 765.4 682.8 L 766.6 684.9 L 767.9 686.2 L 769.5 686.7 L 769.5 686.7 L 771.4 686.3 L 773.5 685.0 L 775.8 683.0 L 778.3 680.5 L 780.9 677.6 L 783.6 674.3 L 786.3 670.8 L 789.1 667.2 L 791.9 663.6 L 794.7 660.3 L 797.4 657.2 L 800.0 654.6 L 802.5 652.4 L 804.8 651.0 L 806.9 650.3 L 808.8 650.6 L 808.8 650.6 L 810.4 651.8 L 811.8 653.8 L 813.1 656.5 L 814.2 659.9 L 815.2 663.8 L 816.2 668.1 L 817.0 672.7 L 817.8 677.6 L 818.6 682.5 L 819.3 687.3 L 820.2 692.1 L 821.0 696.6 L 822.0 700.8 L 823.0 704.6 L 824.2 707.8 L 825.6 710.4 L 825.6 710.4 L 827.2 712.2 L 829.0 713.4 L 831.0 714.2 L 833.1 714.4 L 835.3 714.4 L 837.6 714.1 L 839.9 713.8 L 842.2 713.3 L 844.4 713.0 L 846.6 712.8 L 848.6 712.9 L 850.4 713.3 L 852.1 714.3 L 853.4 715.7 L 854.5 717.9 L 855.2 720.8 L 855.2 720.8 L 855.6 724.5 L 855.7 728.8 L 855.6 733.8 L 855.2 739.3 L 854.6 745.3 L 853.8 751.6 L 852.9 758.2 L 851.9 765.0 L 850.8 771.8 L 849.7 778.8 L 848.5 785.6 L 847.4 792.4 L 846.3 798.9 L 845.3 805.1 L 844.4 811.0 L 843.6 816.3 L 843.6 816.3 L 843.0 821.3 L 842.5 826.0 L 842.2 830.5 L 841.9 834.8 L 841.7 839.0 L 841.5 843.0 L 841.3 847.0 L 841.0 850.9 L 840.7 854.8 L 840.2 858.7 L 839.6 862.6 L 838.8 866.7 L 837.7 870.9 L 836.4 875.2 L 834.8 879.7 L 832.8 884.5 L 832.8 884.5 L 830.4 889.4 L 827.6 894.5 L 824.3 899.6 L 820.7 904.8 L 816.9 910.1 L 812.8 915.5 L 808.6 920.9 L 804.3 926.4 L 800.0 932.0 L 795.8 937.7 L 791.7 943.4 L 787.9 949.2 L 784.2 955.1 L 781.0 961.0 L 778.1 967.0 L 775.7 973.0 L 775.7 973.0 L 773.7 979.1 L 772.0 985.4 L 770.6 991.7 L 769.3 998.2 L 768.3 1004.7 L 767.5 1011.3 L 766.9 1017.9 L 766.3 1024.6 L 765.9 1031.3 L 765.6 1038.0 L 765.4 1044.8 L 765.2 1051.6 L 765.0 1058.3 L 764.8 1065.0 L 764.6 1071.7 L 764.4 1078.4 L 764.4 1078.4 L 764.2 1085.0 L 764.0 1091.6 L 763.9 1098.3 L 763.9 1104.9 L 764.0 1111.5 L 764.1 1118.2 L 764.2 1124.9 L 764.4 1131.5 L 764.7 1138.2 L 764.9 1144.8 L 765.2 1151.5 L 765.5 1158.2 L 765.8 1164.8 L 766.1 1171.5 L 766.4 1178.1 L 766.7 1184.8 L 766.7 1184.8 L 767.0 1191.4 L 767.2 1198.0 L 767.5 1204.7 L 767.8 1211.3 L 768.1 1218.0 L 768.4 1224.6 L 768.8 1231.3 L 769.1 1237.9 L 769.5 1244.6 L 769.9 1251.2 L 770.4 1257.8 L 770.9 1264.5 L 771.4 1271.1 L 771.9 1277.7 L 772.5 1284.3 L 773.2 1290.9 L 773.2 1290.9 L 773.8 1297.6 L 774.4 1304.2 L 775.0 1310.9 L 775.6 1317.6 L 776.2 1324.3 L 776.8 1331.0 L 777.4 1337.7 L 778.2 1344.4 L 779.0 1351.0 L 779.8 1357.7 L 780.9 1364.2 L 782.0 1370.8 L 783.3 1377.3 L 784.7 1383.7 L 786.4 1390.0 L 788.2 1396.2 L 788.2 1396.2 L 790.2 1402.5 L 792.3 1408.7 L 794.5 1415.0 L 796.8 1421.2 L 799.3 1427.5 L 801.8 1433.6 L 804.5 1439.8 L 807.3 1445.8 L 810.3 1451.8 L 813.4 1457.7 L 816.7 1463.4 L 820.1 1469.0 L 823.7 1474.4 L 827.5 1479.7 L 831.4 1484.8 L 835.5 1489.7 L 835.5 1489.7 L 839.9 1494.4 L 844.5 1498.8 L 849.4 1503.1 L 854.5 1507.2 L 859.7 1511.2 L 865.2 1515.0 L 870.8 1518.7 L 876.5 1522.3 L 882.2 1525.8 L 888.1 1529.2 L 894.0 1532.6 L 899.9 1535.9 L 905.8 1539.2 L 911.7 1542.6 L 917.5 1545.9 L 923.3 1549.3 L 923.3 1549.3 L 929.0 1552.6 L 934.8 1555.9 L 940.6 1559.0 L 946.5 1562.2 L 952.4 1565.2 L 958.3 1568.2 L 964.2 1571.2 L 970.2 1574.2 L 976.2 1577.1 L 982.2 1580.1 L 988.2 1583.0 L 994.1 1585.9 L 1000.0 1588.8" fill="none" stroke="#ffd23d" stroke-width="6.0" stroke-opacity="0.9"/></g><g id="clips"><circle cx="1000.0" cy="1784.0" r="2" fill="none" stroke="#0b5" stroke-width="0.6"/><circle cx="1000.0" cy="1588.8" r="2" fill="none" stroke="#0b5" stroke-width="0.6"/></g><g id="power"><circle cx="1000.0" cy="1588.8" r="5" fill="none" stroke="#e33" stroke-width="1"/></g><g id="bridges"></g></svg>