<svg xmlns="http://www.w3.org/2000/svg" width="1000mm" height="500mm" viewBox="0 0 1000 500"><g id="outline"><rect x="0" y="0" width="1000" height="500" fill="none" stroke="#000" stroke-width="1"/></g><g id="channels"><path d="M 0.0 270.1 L 0.2 270.2 L 6.7 273.3 L 13.1 276.3 L 19.5 279.4 L 26.0 282.5 L 32.4 285.5 L 32.4 285.5 L 38.8 288.6 L 45.3 291.6 L 51.8 294.6 L 58.2 297.7 L 64.7 300.7 L 71.2 303.7 L 77.6 306.7 L 84.1 309.7 L 90.5 312.7 L 97.0 315.8 L 103.4 318.8 L 109.9 321.9 L 116.3 325.0 L 122.7 328.1 L 129.1 331.3 L 135.5 334.5 L 135.5 334.5 L 141.8 337.6 L 148.2 340.8 L 154.6 344.0 L 161.1 347.1 L 167.5 350.3 L 173.9 353.5 L 180.3 356.7 L 186.6 359.9 L 193.0 363.2 L 199.3 366.5 L 205.6 369.9 L 211.8 373.3 L 218.0 376.9 L 224.1 380.5 L 230.2 384.2 L 236.2 388.0 L 236.2 388.0 L 242.1 391.9 L 248.0 395.9 L 253.8 399.9 L 259.6 404.1 L 265.4 408.3 L 271.1 412.5 L 276.7 416.8 L 282.4 421.2 L 288.0 425.7 L 293.5 430.2 L 299.0 434.7 L 304.5 439.3 L 309.9 443.9 L 315.3 448.5 L 320.7 453.2 L 326.0 457.9 L 326.0 457.9 L 331.3 462.7 L 336.6 467.5 L 341.8 472.4 L 346.9 477.3 L 352.0 482.3 L 357.0 487.3 L 362.0 492.4 L 367.0 497.5 L 369.4 500.0" fill="none" stroke="#ff7a1a" stroke-width="6.0" stroke-opacity="0.9"/></g><g id="clips"><circle cx="0.0" cy="270.1" r="2" fill="none" stroke="#0b5" stroke-width="0.6"/><circle cx="369.4" cy="500.0" r="2" fill="none" stroke="#0b5" stroke-width="0.6"/></g><g id="power"><circle cx="369.4" cy="500.0" r="5" fill="none" stroke="#e33" stroke-width="1"/><circle cx="0.0" cy="270.1" r="5" fill="none" stroke="#e33" stroke-width="1"/></g><g id="bridges"></g></svg>