<svg xmlns="http://www.w3.org/2000/svg" width="2000mm" height="1000mm" viewBox="0 0 2000 1000"><g id="outline"><rect x="0" y="0" width="2000" height="1000" fill="none" stroke="#000" stroke-width="1"/></g><g id="channels"><path d="M 184.8 907.5 L 187.4 905.7 L 190.5 903.7 L 194.2 901.3 L 198.1 898.6 L 202.6 895.7 L 207.2 892.6 L 212.2 889.3 L 217.3 885.9 L 222.7 882.4 L 228.0 878.8 L 233.5 875.2 L 238.9 871.6 L 244.2 868.1 L 249.5 864.7 L 254.4 861.4 L 259.3 858.2 L 259.3 858.2 L 263.9 855.1 L 268.6 852.0 L 273.3 848.9 L 277.8 845.8 L 282.5 842.7 L 287.2 839.6 L 291.7 836.4 L 296.4 833.2 L 301.1 830.1 L 305.7 827.1 L 310.4 824.0 L 315.1 821.0 L 319.8 818.0 L 324.6 815.1 L 329.4 812.2 L 334.2 809.4 L 334.2 809.4 L 339.1 806.6 L 343.9 803.8 L 348.8 801.1 L 353.7 798.4 L 358.6 795.7 L 363.5 793.0 L 368.5 790.4 L 373.5 787.9 L 378.5 785.3 L 383.5 782.7 L 388.5 780.3 L 393.6 777.9 L 398.6 775.5 L 403.7 773.2 L 408.8 770.9 L 413.9 768.6 L 413.9 768.6 L 419.1 766.5 L 424.2 764.3 L 429.4 762.2 L 434.6 760.1 L 439.8 758.0 L 445.0 756.1 L 450.3 754.0 L 455.5 752.2 L 460.8 750.3 L 466.1 748.4 L 471.4 746.7 L 476.7 745.0 L 482.0 743.3 L 487.4 741.7 L 492.8 740.2 L 498.1 738.7 L 498.1 738.7 L 503.6 737.3 L 509.0 736.0 L 514.4 734.7 L 519.9 733.5 L 525.3 732.4 L 530.8 731.3 L 536.3 730.3 L 541.9 729.4 L 547.4 728.4 L 552.9 727.5 L 558.4 726.6 L 563.9 725.7 L 569.6 724.9 L 575.1 724.0 L 580.6 723.1 L 586.1 722.2 L 586.1 722.2 L 591.7 721.4 L 597.2 720.7 L 602.8 720.0 L 608.3 719.4 L 613.9 718.7 L 619.4 718.1 L 625.1 717.6 L 630.6 717.0 L 636.2 716.4 L 641.7 715.8 L 647.3 715.1 L 652.9 714.4 L 658.4 713.6 L 664.0 712.8 L 669.4 711.9 L 675.0 710.9 L 675.0 710.9 L 680.4 709.9 L 686.0 708.8 L 691.4 707.7 L 697.0 706.7 L 702.4 705.6 L 708.0 704.4 L 713.5 703.2 L 719.0 702.0 L 724.4 700.6 L 729.8 699.2 L 735.2 697.7 L 740.6 696.1 L 745.9 694.5 L 751.2 692.7 L 756.3 690.8 L 761.5 688.8 L 761.5 688.8 L 766.6 686.7 L 771.7 684.4 L 776.7 682.0 L 781.6 679.5 L 786.7 676.9 L 791.5 674.3 L 796.4 671.5 L 801.2 668.7 L 806.1 665.8 L 810.8 662.8 L 815.5 659.8 L 820.2 656.7 L 825.0 653.7 L 829.6 650.6 L 834.3 647.5 L 838.9 644.4 L 838.9 644.4 L 843.5 641.3 L 848.0 638.0 L 852.5 634.5 L 856.9 631.0 L 861.2 627.5 L 865.5 623.9 L 869.8 620.3 L 874.1 616.5 L 878.4 612.9 L 882.8 609.3 L 887.0 605.8 L 891.5 602.4 L 895.9 599.0 L 900.4 595.7 L 905.0 592.6 L 909.7 589.6 L 909.7 589.6 L 914.4 586.8 L 919.3 584.0 L 924.2 581.2 L 929.1 578.6 L 934.0 576.0 L 939.0 573.5 L 944.0 571.1 L 949.1 568.7 L 954.2 566.3 L 959.4 564.1 L 964.5 561.9 L 969.7 559.8 L 974.9 557.7 L 980.1 555.8 L 985.3 553.9 L 990.6 552.1 L 990.6 552.1 L 995.8 550.4 L 1001.2 548.8 L 1006.6 547.2 L 1012.0 545.9 L 1017.4 544.6 L 1022.9 543.4 L 1028.3 542.2 L 1033.8 541.1 L 1039.4 540.1 L 1044.8 539.0 L 1050.4 537.9 L 1055.9 536.8 L 1061.4 535.7 L 1066.9 534.6 L 1072.3 533.5 L 1077.8 532.2 L 1077.8 532.2 L 1083.3 530.9 L 1088.7 529.7 L 1094.1 528.4 L 1099.6 527.1 L 1105.1 525.8 L 1110.5 524.6 L 1116.0 523.3 L 1121.5 521.9 L 1126.9 520.7 L 1132.3 519.3 L 1137.7 518.0 L 1143.1 516.6 L 1148.6 515.3 L 1154.0 513.8 L 1159.4 512.5 L 1164.8 511.0 L 1164.8 511.0 L 1170.2 509.4 L 1175.6 507.9 L 1180.9 506.2 L 1186.3 504.6 L 1191.6 502.8 L 1197.0 501.2 L 1202.3 499.5 L 1207.6 497.7 L 1212.9 496.0 L 1218.3 494.2 L 1223.6 492.6 L 1229.0 490.9 L 1234.3 489.4 L 1239.7 487.9 L 1245.1 486.5 L 1250.6 485.1 L 1250.6 485.1 L 1256.0 483.8 L 1261.4 482.7 L 1266.9 481.6 L 1272.4 480.6 L 1277.9 479.6 L 1283.4 478.7 L 1289.0 477.8 L 1294.5 476.9 L 1300.1 476.0 L 1305.6 475.2 L 1311.1 474.3 L 1316.6 473.4 L 1322.1 472.4 L 1327.7 471.4 L 1333.1 470.3 L 1338.6 469.2 L 1338.6 469.2 L 1344.0 467.9 L 1349.5 466.7 L 1354.9 465.4 L 1360.4 464.3 L 1365.8 463.0 L 1371.3 461.6 L 1376.7 460.3 L 1382.1 459.0 L 1387.6 457.5 L 1392.9 456.0 L 1398.4 454.6 L 1403.7 453.0 L 1409.0 451.4 L 1414.3 449.7 L 1419.6 448.0 L 1424.9 446.1 L 1424.9 446.1 L 1430.1 444.2 L 1435.3 442.3 L 1440.5 440.1 L 1445.6 437.9 L 1450.8 435.7 L 1455.8 433.4 L 1461.0 431.1 L 1466.0 428.6 L 1471.1 426.2 L 1476.1 423.7 L 1481.2 421.3 L 1486.3 418.9 L 1491.3 416.5 L 1496.4 414.1 L 1501.5 411.7 L 1506.6 409.4 L 1506.6 409.4 L 1511.7 407.1 L 1516.8 404.8 L 1521.9 402.5 L 1526.9 400.1 L 1532.0 397.6 L 1537.1 395.2 L 1542.1 392.9 L 1547.2 390.5 L 1552.3 388.2 L 1557.4 385.9 L 1562.5 383.6 L 1567.7 381.4 L 1572.9 379.2 L 1578.0 377.2 L 1583.2 375.1 L 1588.5 373.2 L 1588.5 373.2 L 1593.7 371.4 L 1599.0 369.6 L 1604.3 367.8 L 1609.6 366.0 L 1615.0 364.4 L 1620.3 362.7 L 1625.7 361.1 L 1631.1 359.5 L 1636.5 358.1 L 1641.9 356.7 L 1647.3 355.3 L 1652.7 354.1 L 1658.2 352.8 L 1663.7 351.7 L 1669.1 350.6 L 1674.6 349.6 L 1674.6 349.6 L 1680.1 348.7 L 1685.6 348.0 L 1691.2 347.3 L 1696.7 346.8 L 1702.2 346.3 L 1707.9 345.9 L 1713.4 345.6 L 1719.0 345.4 L 1724.6 345.1 L 1730.3 344.9 L 1735.9 344.6 L 1741.5 344.3 L 1747.1 344.1 L 1752.7 343.7 L 1758.3 343.4 L 1763.9 342.9 L 1763.9 342.9 L 1769.4 342.4 L 1775.0 341.8 L 1780.6 341.4 L 1786.1 340.9 L 1791.7 340.3 L 1797.3 339.9 L 1802.8 339.3 L 1808.4 338.7 L 1814.0 338.2 L 1819.5 337.6 L 1825.1 337.0 L 1830.6 336.4 L 1836.2 335.7 L 1841.8 335.0 L 1847.3 334.3 L 1852.8 333.6 L 1852.8 333.6 L 1858.5 332.6 L 1864.3 331.5 L 1870.2 330.2 L 1876.2 328.8 L 1882.3 327.2 L 1888.4 325.6 L 1894.5 324.0 L 1900.4 322.5 L 1906.3 321.1 L 1912.0 319.8 L 1917.5 318.8 L 1922.9 318.0 L 1927.9 317.5 L 1932.6 317.4 L 1937.0 317.6 L 1940.9 318.3 L 1940.9 318.3 L 1944.7 319.5 L 1948.4 321.0 L 1952.0 323.0 L 1955.5 325.3 L 1958.8 328.0 L 1962.0 330.8 L 1964.8 333.9 L 1967.5 337.2 L 1969.7 340.5 L 1971.6 343.9 L 1973.1 347.4 L 1974.2 350.8 L 1974.7 354.2 L 1974.8 357.4 L 1974.3 360.5 L 1973.2 363.5 L 1973.2 363.5 L 1971.4 366.3 L 1968.8 369.0 L 1965.5 371.9 L 1961.6 374.7 L 1957.1 377.4 L 1952.3 380.2 L 1947.0 383.0 L 1941.4 385.8 L 1935.6 388.6 L 1929.7 391.4 L 1923.7 394.2 L 1917.8 396.9 L 1911.9 399.7 L 1906.2 402.4 L 1900.8 405.1 L 1895.8 407.9 L 1895.8 407.9 L 1890.9 410.6 L 1886.0 413.3 L 1881.1 416.1 L 1876.2 418.8 L 1871.4 421.6 L 1866.4 424.3 L 1861.6 427.0 L 1856.6 429.7 L 1851.8 432.4 L 1846.8 435.0 L 1842.0 437.7 L 1837.0 440.4 L 1832.1 443.1 L 1827.2 445.8 L 1822.3 448.5 L 1817.4 451.1 L 1817.4 451.1 L 1812.4 453.8 L 1807.6 456.5 L 1802.7 459.3 L 1797.8 462.1 L 1793.0 464.8 L 1788.1 467.6 L 1783.2 470.4 L 1778.3 473.3 L 1773.4 476.0 L 1768.5 478.6 L 1763.5 481.2 L 1758.5 483.8 L 1753.5 486.2 L 1748.5 488.5 L 1743.4 490.8 L 1738.3 492.9 L 1738.3 492.9 L 1733.1 494.9 L 1727.9 496.9 L 1722.6 498.6 L 1717.3 500.4 L 1712.0 502.0 L 1706.6 503.6 L 1701.2 505.0 L 1695.8 506.5 L 1690.4 507.9 L 1684.9 509.2 L 1679.4 510.6 L 1674.0 512.0 L 1668.5 513.2 L 1663.1 514.6 L 1657.7 515.9 L 1652.3 517.2 L 1652.3 517.2 L 1646.9 518.6 L 1641.3 520.0 L 1635.9 521.2 L 1630.5 522.5 L 1625.0 523.7 L 1619.5 525.0 L 1614.1 526.1 L 1608.6 527.3 L 1603.1 528.5 L 1597.7 529.7 L 1592.2 530.9 L 1586.8 532.0 L 1581.3 533.3 L 1575.9 534.6 L 1570.4 535.9 L 1564.9 537.2 L 1564.9 537.2 L 1559.5 538.6 L 1554.2 540.1 L 1548.7 541.6 L 1543.3 543.2 L 1538.0 544.8 L 1532.6 546.4 L 1527.2 548.1 L 1521.8 549.6 L 1516.4 551.3 L 1511.1 552.8 L 1505.6 554.3 L 1500.3 555.8 L 1494.9 557.1 L 1489.4 558.3 L 1484.0 559.5 L 1478.4 560.5 L 1478.4 560.5 L 1473.0 561.4 L 1467.5 562.3 L 1462.0 563.2 L 1456.4 564.0 L 1450.8 564.8 L 1445.2 565.5 L 1439.6 566.2 L 1434.1 566.8 L 1428.5 567.2 L 1422.9 567.6 L 1417.4 567.9 L 1411.8 567.9 L 1406.3 568.0 L 1400.7 567.8 L 1395.2 567.4 L 1389.8 566.8 L 1389.8 566.8 L 1384.4 566.1 L 1378.8 564.9 L 1373.4 563.4 L 1368.0 561.6 L 1362.5 559.8 L 1357.0 557.7 L 1351.5 555.5 L 1346.1 553.3 L 1340.8 551.1 L 1335.4 549.0 L 1330.1 546.9 L 1324.9 545.1 L 1319.6 543.5 L 1314.5 542.1 L 1309.5 541.1 L 1304.4 540.3 L 1304.4 540.3 L 1299.6 540.0 L 1294.9 540.0 L 1290.2 540.2 L 1285.6 540.5 L 1281.1 541.1 L 1276.7 541.8 L 1272.2 542.6 L 1267.9 543.5 L 1263.5 544.6 L 1259.0 545.6 L 1254.6 546.8 L 1250.1 547.8 L 1245.6 548.9 L 1240.9 549.9 L 1236.1 550.7 L 1231.2 551.6 L 1231.2 551.6 L 1226.1 552.2 L 1220.7 552.7 L 1215.0 553.3 L 1209.1 553.7 L 1203.0 554.1 L 1196.9 554.5 L 1190.7 554.9 L 1184.7 555.3 L 1178.7 555.9 L 1173.0 556.5 L 1167.5 557.2 L 1162.4 558.1 L 1157.6 559.1 L 1153.3 560.3 L 1149.6 561.7 L 1146.4 563.4 L 1146.4 563.4 L 1143.8 565.4 L 1141.8 567.5 L 1140.3 569.9 L 1139.2 572.6 L 1138.6 575.3 L 1138.2 578.3 L 1138.2 581.3 L 1138.2 584.5 L 1138.5 587.7 L 1138.9 590.9 L 1139.3 594.1 L 1139.7 597.2 L 1139.9 600.2 L 1140.1 603.1 L 1140.1 606.0 L 1139.8 608.6 L 1139.8 608.6 L 1139.2 611.2 L 1138.3 613.7 L 1137.3 616.2 L 1136.1 618.7 L 1134.9 621.3 L 1133.6 623.6 L 1132.3 626.1 L 1131.1 628.4 L 1130.2 630.7 L 1129.3 633.0 L 1128.8 635.2 L 1128.6 637.3 L 1128.8 639.4 L 1129.5 641.4 L 1130.7 643.3 L 1132.5 645.0 L 1132.5 645.0 L 1134.7 646.9 L 1137.6 648.6 L 1140.9 650.4 L 1144.6 652.1 L 1148.7 653.7 L 1153.2 655.3 L 1157.9 656.9 L 1162.8 658.3 L 1168.0 659.7 L 1173.3 660.9 L 1178.6 662.0 L 1184.1 663.0 L 1189.5 663.8 L 1194.8 664.4 L 1200.1 664.8 L 1205.2 665.1 L 1205.2 665.1 L 1210.3 665.1 L 1215.5 664.9 L 1220.7 664.4 L 1226.1 663.6 L 1231.6 662.8 L 1237.1 661.7 L 1242.7 660.6 L 1248.2 659.4 L 1253.9 658.1 L 1259.5 656.7 L 1265.2 655.4 L 1270.9 654.1 L 1276.6 652.8 L 1282.1 651.7 L 1287.8 650.6 L 1293.3 649.7 L 1293.3 649.7 L 1298.9 648.9 L 1304.4 648.1 L 1309.9 647.3 L 1315.5 646.6 L 1321.0 645.9 L 1326.5 645.2 L 1332.1 644.5 L 1337.7 643.9 L 1343.2 643.2 L 1348.8 642.5 L 1354.4 641.8 L 1359.8 641.2 L 1365.4 640.5 L 1371.0 639.8 L 1376.6 639.1 L 1382.1 638.4 L 1382.1 638.4 L 1387.6 637.7 L 1393.2 636.9 L 1398.7 636.1 L 1404.3 635.4 L 1409.8 634.6 L 1415.4 633.9 L 1420.9 633.1 L 1426.5 632.4 L 1432.0 631.5 L 1437.5 630.7 L 1443.0 630.0 L 1448.6 629.2 L 1454.1 628.5 L 1459.7 627.7 L 1465.2 627.0 L 1470.8 626.2 L 1470.8 626.2 L 1476.3 625.4 L 1481.9 624.7 L 1487.5 623.9 L 1492.9 623.2 L 1498.5 622.5 L 1504.0 621.7 L 1509.6 621.0 L 1515.2 620.2 L 1520.7 619.5 L 1526.2 618.8 L 1531.8 618.1 L 1537.3 617.2 L 1542.9 616.5 L 1548.4 615.7 L 1554.0 614.9 L 1559.5 614.2 L 1559.5 614.2 L 1565.0 613.4 L 1570.6 612.6 L 1576.1 611.7 L 1581.6 610.8 L 1587.2 610.0 L 1592.7 609.2 L 1598.2 608.4 L 1603.8 607.5 L 1609.3 606.7 L 1614.9 605.8 L 1620.4 605.0 L 1625.9 604.1 L 1631.4 603.2 L 1636.9 602.3 L 1642.4 601.4 L 1648.0 600.5 L 1648.0 600.5 L 1653.5 599.6 L 1659.1 598.8 L 1664.6 597.9 L 1670.1 597.0 L 1675.6 596.1 L 1681.2 595.2 L 1686.7 594.3 L 1692.2 593.3 L 1697.7 592.4 L 1703.2 591.5 L 1708.8 590.6 L 1714.2 589.5 L 1719.8 588.5 L 1725.2 587.4 L 1730.7 586.2 L 1736.2 585.0 L 1736.2 585.0 L 1741.6 583.7 L 1747.1 582.5 L 1752.5 581.2 L 1757.9 579.8 L 1763.4 578.5 L 1768.8 577.0 L 1774.2 575.5 L 1779.6 574.1 L 1784.9 572.6 L 1790.4 571.1 L 1795.8 569.5 L 1801.1 567.9 L 1806.4 566.2 L 1811.7 564.6 L 1817.1 562.8 L 1822.4 561.1 L 1822.4 561.1 L 1827.7 559.2 L 1832.9 557.4 L 1838.2 555.5 L 1843.4 553.5 L 1848.6 551.5 L 1853.8 549.5 L 1859.0 547.3 L 1864.2 545.2 L 1869.4 543.1 L 1874.6 541.0 L 1879.7 538.8 L 1884.9 536.7 L 1890.1 534.5 L 1895.3 532.4 L 1900.4 530.3 L 1905.6 528.2 L 1905.6 528.2 L 1910.9 526.1 L 1916.1 524.1 L 1921.3 522.0 L 1926.5 519.9 L 1931.7 517.8 L 1936.9 515.8 L 1942.1 513.6 L 1947.3 511.6 L 1952.5 509.5 L 1957.7 507.4 L 1962.8 505.3 L 1968.0 503.2 L 1973.1 501.1 L 1978.3 499.0 L 1983.5 496.8 L 1988.7 494.8 L 1988.7 494.8 L 1993.9 492.7 L 1999.1 490.6 L 2000.0 490.2" fill="none" stroke="#a05bff" stroke-width="6.0" stroke-opacity="0.9"/><path d="M 1035.0 0.0 L 1031.3 0.9 L 1026.1 2.2 L 1020.7 3.6 L 1015.5 4.9 L 1010.2 6.3 L 1004.9 7.7 L 1004.9 7.7 L 999.7 9.1 L 994.3 10.5 L 989.1 11.9 L 983.8 13.4 L 978.6 14.9 L 973.3 16.5 L 968.1 18.0 L 962.9 19.6 L 957.6 21.1 L 952.4 22.8 L 947.2 24.4 L 942.0 26.1 L 936.8 27.7 L 931.6 29.5 L 926.4 31.2 L 921.3 33.0 L 921.3 33.0 L 916.1 34.8 L 911.0 36.7 L 905.8 38.6 L 900.8 40.5 L 895.7 42.6 L 890.6 44.6 L 885.5 46.7 L 880.4 48.7 L 875.4 50.8 L 870.3 52.8 L 865.3 54.9 L 860.2 57.0 L 855.1 58.9 L 850.1 60.9 L 844.9 62.8 L 839.8 64.7 L 839.8 64.7 L 834.7 66.6 L 829.5 68.3 L 824.4 70.1 L 819.2 71.9 L 814.0 73.7 L 808.8 75.3 L 803.7 77.1 L 798.5 78.8 L 793.3 80.5 L 788.1 82.1 L 782.9 83.8 L 777.6 85.5 L 772.4 87.1 L 767.3 88.8 L 762.1 90.5 L 756.9 92.2 L 756.9 92.2 L 751.7 93.8 L 746.5 95.4 L 741.2 97.0 L 736.0 98.5 L 730.7 100.1 L 725.5 101.6 L 720.2 103.1 L 714.9 104.6 L 709.7 106.2 L 704.5 107.8 L 699.2 109.4 L 694.1 111.1 L 688.9 112.9 L 683.8 114.7 L 678.7 116.6 L 673.7 118.6 L 673.7 118.6 L 668.7 120.8 L 663.6 122.9 L 658.7 125.1 L 653.7 127.4 L 648.8 129.8 L 643.9 132.1 L 639.0 134.6 L 634.1 137.0 L 629.2 139.5 L 624.4 142.1 L 619.6 144.7 L 614.7 147.3 L 610.0 149.9 L 605.2 152.6 L 600.5 155.3 L 595.7 158.0 L 595.7 158.0 L 590.9 160.7 L 586.2 163.5 L 581.6 166.4 L 576.9 169.2 L 572.3 172.1 L 567.8 175.0 L 563.1 178.0 L 558.6 181.0 L 554.0 184.0 L 549.5 187.0 L 544.8 190.0 L 540.3 193.0 L 535.7 196.1 L 531.2 199.0 L 526.6 202.1 L 522.0 205.0 L 522.0 205.0 L 517.4 208.0 L 512.9 211.1 L 508.4 214.1 L 503.8 217.2 L 499.4 220.4 L 494.9 223.5 L 490.4 226.7 L 485.9 229.8 L 481.3 232.9 L 476.8 236.0 L 472.2 238.9 L 467.6 241.9 L 463.0 244.7 L 458.3 247.5 L 453.6 250.1 L 448.8 252.7 L 448.8 252.7 L 444.0 255.2 L 439.1 257.7 L 434.2 260.0 L 429.2 262.4 L 424.3 264.7 L 419.3 266.9 L 414.3 269.2 L 409.3 271.3 L 404.2 273.3 L 399.0 275.2 L 393.9 277.1 L 388.7 278.9 L 383.6 280.6 L 378.4 282.1 L 373.1 283.6 L 367.9 284.9 L 367.9 284.9 L 362.6 286.0 L 357.3 287.0 L 352.0 288.0 L 346.7 288.7 L 341.2 289.4 L 335.8 290.0 L 330.4 290.5 L 324.9 291.0 L 319.4 291.2 L 313.9 291.5 L 308.4 291.8 L 302.9 292.0 L 297.4 292.2 L 292.0 292.4 L 286.5 292.6 L 281.1 292.8 L 281.1 292.8 L 275.6 292.9 L 270.1 292.9 L 264.6 292.8 L 259.2 292.7 L 253.7 292.4 L 248.2 292.2 L 242.7 291.8 L 237.2 291.5 L 231.8 291.2 L 226.3 291.0 L 220.8 290.8 L 215.3 290.6 L 209.9 290.5 L 204.4 290.6 L 199.0 290.7 L 193.6 291.0 L 193.6 291.0 L 188.2 291.4 L 182.5 291.7 L 176.9 291.8 L 171.1 292.0 L 165.3 292.2 L 159.4 292.4 L 153.7 292.8 L 148.0 293.2 L 142.3 293.8 L 136.8 294.5 L 131.5 295.6 L 126.4 296.8 L 121.5 298.3 L 116.9 300.3 L 112.5 302.5 L 108.5 305.2 L 108.5 305.2 L 104.8 308.4 L 101.3 312.4 L 98.0 316.9 L 95.0 321.9 L 92.2 327.3 L 89.5 333.0 L 87.0 338.9 L 84.6 344.8 L 82.5 350.8 L 80.5 356.6 L 78.6 362.1 L 76.9 367.3 L 75.3 372.1 L 73.9 376.4 L 72.6 380.0 L 71.4 382.8" fill="none" stroke="#a05bff" stroke-width="6.0" stroke-opacity="0.9"/><path d="M 78.1 406.0 L 80.7 406.8 L 84.0 407.8 L 87.6 409.1 L 91.6 410.5 L 96.1 412.0 L 100.8 413.7 L 105.8 415.4 L 111.0 417.1 L 116.4 418.8 L 121.9 420.5 L 127.6 422.0 L 133.2 423.4 L 138.9 424.5 L 144.5 425.5 L 150.1 426.3 L 155.6 426.7 L 155.6 426.7 L 160.9 426.8 L 166.5 426.7 L 172.1 426.4 L 177.8 425.8 L 183.7 425.1 L 189.5 424.3 L 195.4 423.3 L 201.4 422.3 L 207.4 421.2 L 213.4 420.1 L 219.4 418.9 L 225.5 417.8 L 231.5 416.8 L 237.5 415.8 L 243.5 414.9 L 249.3 414.2 L 249.3 414.2 L 255.2 413.6 L 261.1 413.2 L 267.0 412.9 L 273.1 412.7 L 279.1 412.5 L 285.1 412.4 L 291.1 412.3 L 297.1 412.1 L 303.0 411.9 L 308.9 411.5 L 314.8 411.1 L 320.7 410.4 L 326.3 409.5 L 332.0 408.4 L 337.6 407.0 L 343.0 405.3 L 343.0 405.3 L 348.4 403.2 L 353.6 400.8 L 358.7 398.1 L 363.7 395.1 L 368.6 391.9 L 373.5 388.5 L 378.3 385.0 L 383.1 381.4 L 387.9 377.8 L 392.7 374.0 L 397.5 370.4 L 402.3 366.8 L 407.2 363.3 L 412.2 360.0 L 417.2 356.8 L 422.4 354.0 L 422.4 354.0 L 427.6 351.2 L 432.8 348.5 L 438.1 345.9 L 443.4 343.3 L 448.7 340.8 L 454.1 338.3 L 459.4 335.9 L 464.9 333.5 L 470.4 331.2 L 475.8 328.9 L 481.3 326.8 L 486.8 324.6 L 492.3 322.5 L 497.9 320.5 L 503.4 318.5 L 509.0 316.6 L 509.0 316.6 L 514.6 314.8 L 520.3 313.1 L 525.9 311.5 L 531.7 309.9 L 537.4 308.4 L 543.2 307.0 L 548.9 305.6 L 554.7 304.3 L 560.5 303.0 L 566.3 301.7 L 572.1 300.5 L 577.9 299.3 L 583.7 298.1 L 589.5 296.8 L 595.3 295.6 L 601.1 294.4 L 601.1 294.4 L 606.9 293.1 L 612.7 291.8 L 618.5 290.7 L 624.3 289.5 L 630.2 288.4 L 635.9 287.3 L 641.7 286.1 L 647.6 285.0 L 653.4 283.9 L 659.2 282.9 L 665.0 281.8 L 670.8 280.7 L 676.7 279.5 L 682.5 278.4 L 688.3 277.3 L 694.1 276.1 L 694.1 276.1 L 699.9 275.0 L 705.7 273.8 L 711.6 272.8 L 717.5 271.8 L 723.3 270.9 L 729.2 269.9 L 735.1 268.8 L 741.0 267.8 L 746.8 266.7 L 752.7 265.6 L 758.4 264.4 L 764.2 263.1 L 769.9 261.6 L 775.5 260.1 L 781.2 258.3 L 786.7 256.4 L 786.7 256.4 L 792.2 254.3 L 797.7 252.2 L 803.0 249.7 L 808.3 247.2 L 813.6 244.5 L 818.8 241.8 L 823.9 238.9 L 829.1 236.1 L 834.3 233.2 L 839.4 230.1 L 844.6 227.2 L 849.8 224.3 L 854.9 221.4 L 860.1 218.6 L 865.4 215.9 L 870.7 213.2 L 870.7 213.2 L 875.9 210.6 L 881.2 207.9 L 886.5 205.2 L 891.7 202.4 L 896.9 199.6 L 902.1 196.8 L 907.5 194.1 L 912.8 191.3 L 918.1 188.7 L 923.3 186.1 L 928.7 183.7 L 934.1 181.4 L 939.5 179.2 L 945.0 177.3 L 950.5 175.5 L 956.1 174.0 L 956.1 174.0 L 961.7 172.5 L 967.5 171.4 L 973.2 170.4 L 979.1 169.6 L 984.9 168.9 L 990.8 168.4 L 996.8 168.0 L 1002.6 167.6 L 1008.7 167.3 L 1014.6 167.2 L 1020.6 167.0 L 1026.6 166.9 L 1032.6 166.9 L 1038.5 166.8 L 1044.5 166.7 L 1050.5 166.5 L 1050.5 166.5 L 1056.3 166.4 L 1062.2 166.3 L 1068.2 166.3 L 1074.1 166.2 L 1080.0 166.3 L 1086.0 166.4 L 1091.8 166.4 L 1097.8 166.6 L 1103.7 166.8 L 1109.6 167.0 L 1115.5 167.3 L 1121.5 167.6 L 1127.4 168.0 L 1133.3 168.4 L 1139.2 168.8 L 1145.0 169.3 L 1145.0 169.3 L 1150.9 169.8 L 1156.9 170.4 L 1162.8 171.1 L 1168.7 171.7 L 1174.5 172.4 L 1180.5 173.2 L 1186.3 174.0 L 1192.1 174.8 L 1198.1 175.7 L 1203.9 176.6 L 1209.8 177.6 L 1215.6 178.6 L 1221.4 179.6 L 1227.2 180.6 L 1233.0 181.8 L 1238.8 183.0 L 1238.8 183.0 L 1244.9 184.0 L 1251.3 185.2 L 1258.0 186.2 L 1264.9 187.1 L 1272.1 188.1 L 1279.1 189.2 L 1286.2 190.2 L 1293.0 191.5 L 1299.6 192.7 L 1305.8 194.1 L 1311.6 195.7 L 1316.7 197.4 L 1321.3 199.4 L 1325.1 201.5 L 1327.9 203.9 L 1329.9 206.5 L 1329.9 206.5 L 1330.9 209.6 L 1331.0 213.0 L 1330.4 216.7 L 1329.1 220.8 L 1327.1 225.1 L 1324.7 229.6 L 1321.7 234.1 L 1318.3 238.8 L 1314.6 243.5 L 1310.6 248.2 L 1306.4 252.8 L 1302.0 257.3 L 1297.6 261.6 L 1293.1 265.6 L 1288.8 269.4 L 1284.5 272.9 L 1284.5 272.9 L 1280.3 276.1 L 1275.7 279.0 L 1270.9 281.8 L 1265.8 284.5 L 1260.6 287.1 L 1255.2 289.5 L 1249.6 291.8 L 1243.9 294.0 L 1238.2 296.2 L 1232.4 298.3 L 1226.6 300.4 L 1220.6 302.5 L 1214.8 304.5 L 1209.1 306.7 L 1203.4 308.8 L 1197.8 310.8 L 1197.8 310.8 L 1192.3 313.0 L 1186.7 315.0 L 1181.2 317.0 L 1175.6 319.0 L 1170.0 320.9 L 1164.4 322.8 L 1158.7 324.7 L 1153.1 326.5 L 1147.5 328.3 L 1141.9 330.2 L 1136.2 332.1 L 1130.6 333.9 L 1125.0 335.8 L 1119.4 337.7 L 1113.8 339.6 L 1108.2 341.6 L 1108.2 341.6 L 1102.6 343.6 L 1097.0 345.7 L 1091.5 347.7 L 1086.0 349.7 L 1080.3 351.8 L 1074.8 353.8 L 1069.2 355.9 L 1063.7 358.1 L 1058.2 360.1 L 1052.7 362.3 L 1047.1 364.4 L 1041.6 366.6 L 1036.2 368.7 L 1030.7 371.0 L 1025.2 373.2 L 1019.7 375.5 L 1019.7 375.5 L 1014.3 377.8 L 1008.9 380.1 L 1003.4 382.5 L 998.0 384.9 L 992.6 387.3 L 987.2 389.8 L 981.9 392.3 L 976.5 394.8 L 971.1 397.3 L 965.7 399.8 L 960.4 402.3 L 955.0 404.8 L 949.7 407.3 L 944.2 409.8 L 938.9 412.3 L 933.4 414.7 L 933.4 414.7 L 928.0 417.0 L 922.7 419.5 L 917.2 421.9 L 911.8 424.4 L 906.4 426.8 L 901.0 429.3 L 895.6 431.6 L 890.2 434.1 L 884.8 436.4 L 879.4 438.9 L 874.0 441.2 L 868.5 443.5 L 863.1 445.8 L 857.6 448.1 L 852.1 450.4 L 846.6 452.6 L 846.6 452.6 L 841.1 454.8 L 835.6 456.9 L 830.0 458.9 L 824.5 461.0 L 818.9 463.0 L 813.3 465.0 L 807.8 467.0 L 802.2 468.9 L 796.5 470.9 L 791.0 472.9 L 785.4 474.8 L 779.8 476.8 L 774.2 478.8 L 768.7 480.8 L 763.1 482.9 L 757.6 485.0 L 757.6 485.0 L 752.0 487.2 L 746.5 489.2 L 740.9 491.3 L 735.4 493.3 L 729.8 495.3 L 724.2 497.4 L 718.6 499.4 L 713.0 501.6 L 707.6 503.6 L 702.1 505.9 L 696.6 508.1 L 691.2 510.5 L 685.8 512.9 L 680.5 515.5 L 675.3 518.1 L 670.1 521.0 L 670.1 521.0 L 665.0 523.9 L 660.1 527.1 L 655.2 530.3 L 650.4 533.7 L 645.5 537.2 L 640.8 540.7 L 636.1 544.4 L 631.5 548.0 L 626.8 551.8 L 622.2 555.5 L 617.5 559.2 L 612.9 562.9 L 608.2 566.5 L 603.5 570.1 L 598.7 573.6 L 593.8 577.1 L 593.8 577.1 L 589.0 580.4 L 584.1 583.8 L 579.3 587.4 L 574.5 590.8 L 569.7 594.3 L 564.9 597.9 L 560.0 601.4 L 555.2 604.7 L 550.2 608.1 L 545.2 611.4 L 540.3 614.5 L 535.2 617.6 L 530.2 620.4 L 525.0 623.2 L 519.7 625.7 L 514.4 628.1 L 514.4 628.1 L 509.0 630.2 L 503.5 632.2 L 497.9 633.9 L 492.3 635.4 L 486.6 636.8 L 480.8 638.1 L 475.0 639.2 L 469.2 640.3 L 463.3 641.3 L 457.4 642.4 L 451.5 643.3 L 445.7 644.3 L 439.8 645.3 L 434.0 646.4 L 428.2 647.6 L 422.4 648.9 L 422.4 648.9 L 416.6 650.2 L 410.9 651.4 L 405.0 652.5 L 399.2 653.6 L 393.4 654.7 L 387.5 655.9 L 381.7 657.0 L 376.0 658.2 L 370.1 659.4 L 364.4 660.6 L 358.7 662.0 L 353.0 663.5 L 347.4 665.1 L 341.8 666.9 L 336.3 668.8 L 330.8 670.9 L 330.8 670.9 L 325.5 673.2 L 320.2 675.7 L 315.0 678.5 L 309.9 681.3 L 304.8 684.3 L 299.8 687.5 L 294.7 690.6 L 289.7 693.9 L 284.7 697.2 L 279.8 700.5 L 274.8 703.8 L 269.8 707.1 L 264.7 710.2 L 259.7 713.4 L 254.5 716.4 L 249.4 719.2 L 249.4 719.2 L 244.1 722.0 L 238.8 724.5 L 233.4 727.1 L 227.9 729.5 L 222.4 731.8 L 216.9 734.2 L 211.4 736.5 L 205.9 738.7 L 200.4 741.1 L 195.0 743.5 L 189.6 746.0 L 184.2 748.5 L 179.0 751.2 L 173.9 753.9 L 168.8 756.9 L 163.9 759.9 L 163.9 759.9 L 158.7 763.1 L 153.4 766.5 L 147.9 769.9 L 142.2 773.4 L 136.5 777.1 L 130.8 780.8 L 125.2 784.6 L 119.8 788.4 L 114.7 792.4 L 110.0 796.4 L 105.6 800.4 L 101.9 804.4 L 98.6 808.5 L 96.1 812.6 L 94.4 816.8 L 93.5 820.9 L 93.5 820.9 L 93.6 825.2 L 94.9 829.8 L 97.1 834.6 L 100.0 839.6 L 103.7 844.7 L 107.9 850.0 L 112.5 855.1 L 117.3 860.3 L 122.3 865.4 L 127.3 870.2 L 132.2 874.8 L 136.8 879.1 L 141.0 883.0 L 144.7 886.6 L 147.7 889.6 L 149.9 892.1" fill="none" stroke="#a05bff" stroke-width="6.0" stroke-opacity="0.9"/></g><g id="clips"><circle cx="184.8" cy="907.5" r="2" fill="none" stroke="#0b5" stroke-width="0.6"/><circle cx="2000.0" cy="490.2" r="2" fill="none" stroke="#0b5" stroke-width="0.6"/><circle cx="1035.0" cy="0.0" r="2" fill="none" stroke="#0b5" stroke-width="0.6"/><circle cx="71.4" cy="382.8" r="2" fill="none" stroke="#0b5" stroke-width="0.6"/><circle cx="78.1" cy="406.0" r="2" fill="none" stroke="#0b5" stroke-width="0.6"/><circle cx="149.9" cy="892.1" r="2" fill="none" stroke="#0b5" stroke-width="0.6"/></g><g id="power"><circle cx="2000.0" cy="490.3" r="5" fill="none" stroke="#e33" stroke-width="1"/><circle cx="1035.0" cy="0.0" r="5" fill="none" stroke="#e33" stroke-width="1"/></g><g id="bridges"><circle cx="74.8" cy="394.4" r="9" fill="none" stroke="#e6a817" stroke-width="1.5"/></g></svg>