<svg xmlns="http://www.w3.org/2000/svg" width="1000mm" height="2000mm" viewBox="0 0 1000 2000"><g id="outline"><rect x="0" y="0" width="1000" height="2000" fill="none" stroke="#000" stroke-width="1"/></g><g id="channels"><path d="M 1000.0 556.7 L 996.2 552.8 L 991.8 548.3 L 987.4 544.0 L 983.0 539.8 L 983.0 539.8 L 978.4 535.6 L 973.8 531.6 L 969.0 527.7 L 964.1 524.0 L 959.1 520.2 L 954.1 516.6 L 949.0 513.0 L 943.9 509.5 L 938.8 505.9 L 933.6 502.4 L 928.5 498.8 L 923.5 495.2 L 918.4 491.5 L 913.4 487.9 L 908.5 484.1 L 903.7 480.2 L 903.7 480.2 L 898.9 476.2 L 894.1 472.4 L 889.2 468.5 L 884.4 464.5 L 879.6 460.6 L 874.8 456.7 L 870.0 452.6 L 865.3 448.6 L 860.6 444.6 L 856.0 440.4 L 851.4 436.2 L 846.9 431.9 L 842.5 427.6 L 838.3 423.2 L 834.2 418.6 L 830.1 413.9 L 830.1 413.9 L 826.3 409.2 L 822.6 404.3 L 818.9 399.4 L 815.4 394.4 L 811.9 389.3 L 808.5 384.1 L 805.2 378.8 L 802.0 373.4 L 798.9 368.2 L 795.7 362.7 L 792.6 357.3 L 789.6 351.8 L 786.6 346.4 L 783.6 341.0 L 780.6 335.5 L 777.6 330.0 L 777.6 330.0 L 774.7 324.7 L 771.9 319.2 L 769.1 313.6 L 766.3 308.1 L 763.6 302.5 L 761.0 296.8 L 758.4 291.3 L 755.8 285.6 L 753.3 279.9 L 750.7 274.3 L 748.1 268.6 L 745.5 263.0 L 742.9 257.4 L 740.2 251.8 L 737.4 246.2 L 734.6 240.7 L 734.6 240.7 L 731.8 235.1 L 729.1 229.6 L 726.2 224.1 L 723.4 218.6 L 720.5 213.1 L 717.6 207.6 L 714.8 202.1 L 711.9 196.6 L 708.9 191.1 L 705.9 185.8 L 702.9 180.3 L 700.0 174.8 L 697.0 169.4 L 693.9 164.1 L 690.9 158.7 L 687.8 153.3 L 687.8 153.3 L 684.6 147.9 L 681.3 142.6 L 678.1 137.5 L 674.7 132.2 L 671.3 127.0 L 667.9 121.8 L 664.5 116.6 L 661.0 111.4 L 657.5 106.3 L 654.2 101.1 L 650.8 95.9 L 647.5 90.6 L 644.2 85.3 L 641.0 80.1 L 638.0 74.7 L 635.0 69.3 L 635.0 69.3 L 632.0 63.8 L 629.2 58.4 L 626.4 52.8 L 623.7 47.2 L 621.2 41.7 L 618.6 36.0 L 616.1 30.3 L 613.6 24.7 L 611.1 19.0 L 608.6 13.3 L 606.1 7.6 L 603.6 1.9 L 602.8 0.0" fill="none" stroke="#00e5ff" stroke-width="6.0" stroke-opacity="0.9"/><path d="M 683.7 0.0 L 684.8 2.8 L 686.8 6.4 L 689.0 9.9 L 691.5 13.0 L 694.1 16.1 L 696.8 19.1 L 699.7 22.1 L 702.6 25.0 L 705.4 28.0 L 708.2 31.1 L 711.0 34.3 L 713.7 37.6 L 716.2 41.3 L 718.5 45.1 L 718.5 45.1 L 720.8 49.3 L 722.9 53.8 L 725.1 58.6 L 727.3 63.6 L 729.4 68.8 L 731.6 74.0 L 733.7 79.3 L 735.8 84.6 L 737.8 89.8 L 739.9 94.7 L 741.9 99.6 L 743.9 104.2 L 746.0 108.6 L 747.9 112.6 L 749.8 116.2 L 751.8 119.2 L 751.8 119.2 L 753.6 121.9 L 755.5 124.1 L 757.3 125.9 L 759.0 127.4 L 760.6 128.6 L 762.3 129.6 L 764.0 130.4 L 765.6 130.9 L 767.3 131.5 L 769.0 132.0 L 770.6 132.5 L 772.5 133.0 L 774.3 133.7 L 776.2 134.6 L 778.1 135.5 L 780.2 136.9 L 780.2 136.9 L 782.3 138.4 L 784.6 140.3 L 787.0 142.4 L 789.4 144.7 L 791.9 147.1 L 794.4 149.5 L 797.0 151.9 L 799.6 154.3 L 802.3 156.6 L 804.9 158.7 L 807.4 160.5 L 810.0 162.1 L 812.5 163.4 L 814.9 164.2 L 817.2 164.6 L 819.4 164.5 L 819.4 164.5 L 821.6 163.9 L 823.7 162.5 L 825.7 160.7 L 827.7 158.4 L 829.7 155.8 L 831.6 152.8 L 833.4 149.7 L 835.3 146.4 L 837.2 143.0 L 839.0 139.7 L 840.8 136.5 L 842.6 133.5 L 844.5 130.7 L 846.4 128.4 L 848.3 126.4 L 850.2 125.0 L 850.2 125.0 L 852.3 124.2 L 854.5 123.9 L 856.9 124.2 L 859.4 125.0 L 861.9 125.9 L 864.5 127.1 L 867.0 128.4 L 869.5 129.7 L 871.8 130.8 L 874.1 131.8 L 876.1 132.5 L 878.0 132.7 L 879.5 132.4 L 880.7 131.5 L 881.6 129.9 L 882.1 127.4 L 882.1 127.4 L 882.2 124.0 L 882.0 120.0 L 881.5 115.3 L 880.8 110.1 L 879.8 104.3 L 878.6 98.2 L 877.2 91.8 L 875.7 85.0 L 873.9 78.1 L 872.0 71.1 L 870.1 64.1 L 868.1 57.1 L 866.0 50.3 L 863.8 43.7 L 861.6 37.3 L 859.5 31.4 L 859.5 31.4 L 857.3 25.6 L 854.8 20.1 L 852.2 14.4 L 849.4 8.9 L 846.6 3.4 L 844.7 0.0" fill="none" stroke="#00e5ff" stroke-width="6.0" stroke-opacity="0.9"/><path d="M 0.0 197.6 L 0.8 202.4 L 1.7 208.4 L 2.6 214.4 L 3.7 220.3 L 4.7 226.3 L 6.0 232.2 L 6.0 232.2 L 7.2 238.2 L 8.5 244.1 L 9.8 250.1 L 11.2 255.9 L 12.5 261.9 L 14.0 267.7 L 15.5 273.7 L 16.9 279.5 L 18.5 285.4 L 20.1 291.3 L 21.7 297.1 L 23.4 303.0 L 25.1 308.8 L 26.9 314.6 L 28.7 320.3 L 30.6 326.1 L 30.6 326.1 L 32.5 331.9 L 34.5 337.6 L 36.5 343.3 L 38.6 349.0 L 40.7 354.7 L 42.9 360.4 L 45.2 366.0 L 47.5 371.7 L 49.8 377.3 L 52.1 382.9 L 54.5 388.5 L 56.8 394.1 L 59.3 399.6 L 61.7 405.2 L 64.2 410.8 L 66.7 416.2 L 66.7 416.2 L 69.2 421.8 L 71.7 427.3 L 74.3 432.8 L 77.0 438.2 L 79.6 443.7 L 82.3 449.2 L 85.1 454.6 L 87.9 459.9 L 90.7 465.4 L 93.4 470.8 L 96.2 476.2 L 99.1 481.5 L 102.0 486.8 L 104.9 492.2 L 107.7 497.6 L 110.6 502.8 L 110.6 502.8 L 113.6 508.2 L 116.5 513.5 L 119.5 518.8 L 122.4 524.1 L 125.4 529.3 L 128.5 534.6 L 131.5 539.9 L 134.5 545.2 L 137.6 550.4 L 140.8 555.6 L 143.8 560.8 L 147.0 566.0 L 150.2 571.2 L 153.3 576.4 L 156.5 581.6 L 159.8 586.6 L 159.8 586.6 L 163.0 591.8 L 166.3 596.9 L 169.7 602.0 L 172.9 607.0 L 176.4 612.1 L 179.7 617.1 L 183.1 622.2 L 186.6 627.2 L 190.0 632.2 L 193.5 637.1 L 196.9 642.1 L 200.4 647.1 L 203.8 652.1 L 207.4 657.0 L 210.9 662.0 L 214.3 667.0 L 214.3 667.0 L 217.9 671.9 L 221.4 676.8 L 225.1 681.7 L 228.7 686.6 L 232.4 691.4 L 236.0 696.3 L 239.7 701.1 L 243.4 706.0 L 247.0 710.8 L 250.7 715.7 L 254.3 720.5 L 257.9 725.5 L 261.3 730.4 L 264.8 735.4 L 268.3 740.3 L 271.5 745.4 L 271.5 745.4 L 274.8 750.5 L 278.0 755.7 L 280.9 761.0 L 284.0 766.3 L 286.9 771.5 L 289.8 776.9 L 292.6 782.3 L 295.5 787.7 L 298.4 793.0 L 301.2 798.4 L 304.1 803.7 L 307.0 809.1 L 309.9 814.4 L 312.9 819.6 L 316.0 824.9 L 319.1 830.1 L 319.1 830.1 L 322.3 835.3 L 325.6 840.4 L 328.7 845.6 L 332.0 850.7 L 335.3 855.8 L 338.5 860.9 L 341.8 866.0 L 345.2 871.1 L 348.5 876.2 L 352.0 881.2 L 355.4 886.2 L 358.9 891.2 L 362.5 896.1 L 366.1 900.9 L 369.7 905.8 L 373.5 910.5 L 373.5 910.5 L 377.3 915.2 L 381.2 919.9 L 385.0 924.5 L 389.0 929.1 L 393.1 933.6 L 397.1 938.1 L 401.2 942.6 L 405.3 947.0 L 409.6 951.4 L 413.8 955.9 L 418.0 960.2 L 422.2 964.6 L 426.5 968.9 L 430.8 973.2 L 435.0 977.6 L 439.3 981.8 L 439.3 981.8 L 443.7 986.1 L 448.0 990.3 L 452.3 994.6 L 456.7 998.8 L 461.1 1003.0 L 465.5 1007.1 L 470.0 1011.3 L 474.5 1015.4 L 478.9 1019.5 L 483.4 1023.5 L 487.9 1027.7 L 492.4 1031.7 L 496.9 1035.8 L 501.4 1039.9 L 505.9 1044.0 L 510.4 1048.0 L 510.4 1048.0 L 514.9 1052.2 L 519.5 1056.1 L 524.1 1060.1 L 528.7 1064.1 L 533.3 1068.0 L 537.9 1071.9 L 542.6 1075.9 L 547.2 1079.8 L 551.8 1083.7 L 556.5 1087.8 L 561.1 1091.7 L 565.6 1095.8 L 570.0 1099.9 L 574.4 1104.1 L 578.7 1108.2 L 583.0 1112.5 L 583.0 1112.5 L 587.3 1116.9 L 591.5 1121.3 L 595.7 1125.6 L 599.8 1130.0 L 604.1 1134.5 L 608.2 1139.0 L 612.2 1143.5 L 616.3 1148.1 L 620.3 1152.7 L 624.1 1157.4 L 628.0 1162.1 L 631.7 1166.9 L 635.3 1171.7 L 638.8 1176.6 L 642.2 1181.6 L 645.4 1186.6 L 645.4 1186.6 L 648.6 1191.7 L 651.6 1196.9 L 654.6 1202.2 L 657.3 1207.6 L 660.0 1213.0 L 662.7 1218.4 L 665.2 1224.0 L 667.7 1229.6 L 670.1 1235.1 L 672.4 1240.8 L 674.6 1246.5 L 676.8 1252.1 L 678.9 1257.9 L 681.1 1263.5 L 683.1 1269.3 L 685.1 1275.0 L 685.1 1275.0 L 687.0 1280.7 L 688.8 1286.5 L 690.5 1292.2 L 692.1 1298.1 L 693.6 1304.0 L 695.1 1309.9 L 696.5 1315.8 L 697.9 1321.7 L 699.2 1327.7 L 700.5 1333.6 L 701.8 1339.6 L 703.1 1345.5 L 704.5 1351.5 L 705.7 1357.4 L 707.2 1363.3 L 708.5 1369.2 L 708.5 1369.2 L 710.0 1375.2 L 711.2 1381.1 L 712.4 1387.2 L 713.5 1393.2 L 714.7 1399.3 L 715.7 1405.4 L 716.8 1411.5 L 717.9 1417.5 L 719.2 1423.6 L 720.4 1429.5 L 721.8 1435.5 L 723.2 1441.3 L 724.8 1447.1 L 726.7 1452.8 L 728.7 1458.3 L 730.8 1463.8 L 730.8 1463.8 L 733.2 1469.2 L 735.5 1474.7 L 738.0 1480.3 L 740.6 1485.9 L 743.2 1491.4 L 746.0 1497.0 L 748.8 1502.4 L 751.9 1507.8 L 755.1 1512.9 L 758.3 1517.8 L 761.8 1522.6 L 765.4 1527.0 L 769.3 1531.1 L 773.4 1534.9 L 777.6 1538.3 L 782.1 1541.4 L 782.1 1541.4 L 787.0 1543.9 L 792.6 1546.0 L 798.7 1547.7 L 805.2 1549.1 L 811.9 1550.2 L 818.9 1551.0 L 826.0 1551.5 L 833.1 1551.9 L 840.1 1552.1 L 846.9 1552.2 L 853.5 1552.3 L 859.5 1552.3 L 865.1 1552.3 L 870.1 1552.3 L 874.4 1552.5 L 877.8 1552.8" fill="none" stroke="#00e5ff" stroke-width="6.0" stroke-opacity="0.9"/><path d="M 895.9 1535.3 L 896.7 1532.7 L 897.8 1529.7 L 899.3 1526.1 L 900.9 1522.3 L 902.7 1517.9 L 904.6 1513.4 L 906.6 1508.6 L 908.5 1503.5 L 910.2 1498.4 L 911.9 1493.0 L 913.4 1487.4 L 914.5 1481.9 L 915.4 1476.4 L 915.9 1470.8 L 915.8 1465.3 L 915.3 1460.0 L 915.3 1460.0 L 914.1 1454.6 L 912.5 1449.1 L 910.5 1443.5 L 908.0 1437.9 L 905.1 1432.1 L 902.1 1426.3 L 898.7 1420.3 L 895.2 1414.4 L 891.7 1408.3 L 888.1 1402.3 L 884.6 1396.2 L 881.1 1390.1 L 877.9 1383.9 L 874.8 1377.8 L 872.0 1371.6 L 869.6 1365.5 L 869.6 1365.5 L 867.5 1359.4 L 865.6 1353.0 L 863.8 1346.7 L 862.3 1340.2 L 860.9 1333.8 L 859.5 1327.3 L 858.2 1320.9 L 856.9 1314.3 L 855.7 1307.8 L 854.3 1301.4 L 852.9 1294.9 L 851.4 1288.5 L 849.6 1282.3 L 847.8 1276.0 L 845.7 1270.0 L 843.4 1263.9 L 843.4 1263.9 L 840.8 1258.1 L 838.2 1252.2 L 835.4 1246.4 L 832.6 1240.6 L 829.7 1234.8 L 826.6 1229.2 L 823.4 1223.6 L 820.2 1218.0 L 816.8 1212.5 L 813.3 1207.1 L 809.7 1201.7 L 806.1 1196.5 L 802.2 1191.4 L 798.3 1186.3 L 794.2 1181.3 L 790.1 1176.5 L 790.1 1176.5 L 785.8 1171.8 L 781.2 1167.3 L 776.4 1162.9 L 771.3 1158.8 L 766.1 1154.8 L 760.8 1150.9 L 755.4 1147.0 L 750.0 1143.2 L 744.5 1139.4 L 739.0 1135.5 L 733.7 1131.6 L 728.4 1127.6 L 723.3 1123.5 L 718.3 1119.2 L 713.5 1114.7 L 709.0 1110.0 L 709.0 1110.0 L 704.8 1105.2 L 700.5 1100.2 L 696.5 1095.2 L 692.5 1090.0 L 688.6 1084.7 L 684.9 1079.3 L 681.2 1073.9 L 677.6 1068.4 L 674.1 1062.9 L 670.5 1057.2 L 667.0 1051.7 L 663.7 1046.0 L 660.2 1040.3 L 656.9 1034.7 L 653.5 1029.0 L 650.1 1023.4 L 650.1 1023.4 L 646.9 1017.8 L 643.6 1012.1 L 640.4 1006.4 L 637.2 1000.6 L 634.1 994.8 L 631.0 989.1 L 628.1 983.2 L 625.0 977.4 L 622.0 971.5 L 619.1 965.7 L 616.2 959.7 L 613.3 953.8 L 610.3 948.0 L 607.4 942.0 L 604.5 936.2 L 601.6 930.3 L 601.6 930.3 L 598.7 924.5 L 595.7 918.6 L 592.8 912.7 L 590.0 906.8 L 587.1 900.9 L 584.2 895.0 L 581.4 889.0 L 578.5 883.1 L 575.7 877.2 L 573.0 871.3 L 570.1 865.3 L 567.3 859.4 L 564.5 853.4 L 561.7 847.5 L 558.9 841.6 L 556.3 835.7 L 556.3 835.7 L 553.5 829.6 L 550.8 823.7 L 548.2 817.6 L 545.6 811.6 L 543.1 805.5 L 540.5 799.4 L 538.0 793.3 L 535.4 787.3 L 532.8 781.2 L 530.2 775.2 L 527.6 769.2 L 524.9 763.3 L 522.0 757.3 L 519.1 751.5 L 516.1 745.6 L 513.1 740.0 L 513.1 740.0 L 509.9 734.2 L 506.6 728.5 L 503.4 722.8 L 500.1 717.1 L 496.7 711.5 L 493.3 705.9 L 489.8 700.3 L 486.3 694.8 L 482.7 689.4 L 479.0 683.9 L 475.2 678.5 L 471.4 673.2 L 467.5 668.1 L 463.5 662.9 L 459.4 657.9 L 455.2 652.9 L 455.2 652.9 L 450.9 648.1 L 446.2 643.5 L 441.4 639.0 L 436.5 634.6 L 431.4 630.4 L 426.2 626.3 L 421.0 622.2 L 415.7 618.1 L 410.5 614.0 L 405.3 609.9 L 400.2 605.7 L 395.2 601.4 L 390.4 597.0 L 385.7 592.5 L 381.2 587.8 L 376.9 582.9 L 376.9 582.9 L 372.9 577.9 L 369.1 572.7 L 365.2 567.4 L 361.5 562.1 L 357.9 556.7 L 354.4 551.1 L 351.0 545.6 L 347.7 539.9 L 344.5 534.2 L 341.4 528.4 L 338.3 522.6 L 335.4 516.8 L 332.6 510.8 L 329.8 505.0 L 327.1 499.0 L 324.5 493.0 L 324.5 493.0 L 322.0 487.0 L 319.7 481.0 L 317.5 474.8 L 315.5 468.7 L 313.5 462.3 L 311.6 456.1 L 309.8 449.8 L 308.1 443.4 L 306.4 437.0 L 304.7 430.6 L 303.2 424.2 L 301.7 417.8 L 300.0 411.4 L 298.5 404.9 L 297.0 398.6 L 295.3 392.2 L 295.3 392.2 L 293.7 385.8 L 292.1 379.5 L 290.5 373.1 L 288.9 366.7 L 287.4 360.4 L 285.8 353.9 L 284.3 347.6 L 282.8 341.2 L 281.3 334.7 L 280.0 328.3 L 278.6 322.0 L 277.3 315.5 L 276.0 309.1 L 274.8 302.6 L 273.7 296.2 L 272.7 289.7 L 272.7 289.7 L 271.6 283.2 L 270.8 276.8 L 269.9 270.2 L 269.1 263.7 L 268.5 257.2 L 267.8 250.6 L 267.1 244.1 L 266.5 237.6 L 266.0 231.1 L 265.5 224.5 L 264.9 218.0 L 264.4 211.4 L 263.9 204.9 L 263.4 198.3 L 262.9 191.8 L 262.3 185.3 L 262.3 185.3 L 261.6 178.6 L 260.7 171.7 L 259.7 164.6 L 258.6 157.5 L 257.3 150.3 L 256.1 143.0 L 254.9 135.8 L 253.9 128.7 L 252.9 121.7 L 252.1 114.9 L 251.7 108.4 L 251.4 102.0 L 251.5 96.1 L 251.9 90.4 L 252.9 85.2 L 254.2 80.5 L 254.2 80.5 L 256.2 76.1 L 258.5 71.9 L 261.3 67.8 L 264.4 63.8 L 267.8 60.1 L 271.5 56.5 L 275.5 53.4 L 279.7 50.5 L 284.0 48.0 L 288.4 45.8 L 292.9 44.2 L 297.4 42.8 L 302.0 42.0 L 306.5 41.8 L 310.8 42.1 L 315.0 43.0 L 315.0 43.0 L 319.2 44.6 L 323.6 47.0 L 328.1 50.1 L 332.6 53.8 L 337.1 58.0 L 341.8 62.8 L 346.4 67.9 L 351.1 73.2 L 355.8 78.9 L 360.4 84.8 L 365.0 90.6 L 369.6 96.6 L 374.1 102.4 L 378.7 108.2 L 383.0 113.7 L 387.2 118.8 L 387.2 118.8 L 391.3 123.9 L 395.5 129.0 L 399.5 134.2 L 403.4 139.4 L 407.4 144.7 L 411.2 149.9 L 415.0 155.2 L 418.9 160.6 L 422.6 166.0 L 426.5 171.4 L 430.1 176.8 L 433.9 182.2 L 437.6 187.7 L 441.3 193.1 L 444.9 198.5 L 448.6 204.0 L 448.6 204.0 L 452.3 209.5 L 455.8 214.9 L 459.4 220.4 L 462.9 226.0 L 466.5 231.5 L 470.0 237.1 L 473.4 242.7 L 476.9 248.2 L 480.3 253.8 L 483.8 259.4 L 487.2 265.0 L 490.7 270.5 L 494.2 276.1 L 497.8 281.7 L 501.3 287.1 L 505.0 292.6 L 505.0 292.6 L 508.6 298.0 L 512.3 303.4 L 516.0 308.9 L 519.7 314.3 L 523.4 319.7 L 527.2 325.0 L 530.9 330.5 L 534.7 335.9 L 538.5 341.2 L 542.3 346.6 L 546.2 351.8 L 550.0 357.2 L 553.9 362.5 L 557.8 367.8 L 561.6 373.0 L 565.6 378.2 L 565.6 378.2 L 569.6 383.5 L 573.6 388.7 L 577.7 393.9 L 581.7 399.0 L 585.8 404.1 L 590.0 409.2 L 594.1 414.3 L 598.2 419.4 L 602.4 424.4 L 606.6 429.5 L 610.8 434.6 L 614.9 439.7 L 619.0 444.8 L 623.2 449.8 L 627.3 454.9 L 631.4 460.0 L 631.4 460.0 L 635.6 465.2 L 639.7 470.3 L 643.7 475.5 L 647.8 480.6 L 652.0 485.7 L 656.1 490.7 L 660.2 495.9 L 664.3 501.0 L 668.4 506.2 L 672.4 511.3 L 676.5 516.5 L 680.6 521.7 L 684.6 526.8 L 688.6 532.0 L 692.7 537.2 L 696.6 542.4 L 696.6 542.4 L 700.5 547.7 L 704.5 552.9 L 708.4 558.1 L 712.4 563.4 L 716.3 568.7 L 720.2 574.0 L 724.1 579.3 L 727.9 584.5 L 731.7 589.8 L 735.6 595.2 L 739.4 600.5 L 743.3 605.8 L 747.0 611.2 L 750.8 616.6 L 754.5 622.1 L 758.1 627.4 L 758.1 627.4 L 761.8 632.9 L 765.3 638.4 L 768.9 644.0 L 772.4 649.6 L 775.7 655.2 L 779.1 660.9 L 782.5 666.5 L 785.9 672.2 L 789.3 677.8 L 792.7 683.4 L 796.2 689.0 L 799.6 694.6 L 803.3 700.0 L 806.9 705.4 L 810.7 710.8 L 814.5 716.1 L 814.5 716.1 L 818.5 721.2 L 822.5 726.4 L 826.5 731.6 L 830.6 736.7 L 834.8 741.8 L 839.0 746.8 L 843.2 751.8 L 847.5 756.8 L 851.8 761.7 L 856.3 766.6 L 860.8 771.3 L 865.3 776.1 L 869.9 780.7 L 874.5 785.3 L 879.2 789.8 L 884.0 794.2 L 884.0 794.2 L 888.8 798.5 L 893.9 802.7 L 899.0 806.8 L 904.2 810.8 L 909.5 814.6 L 914.8 818.5 L 920.3 822.2 L 925.7 826.0 L 931.1 829.6 L 936.6 833.4 L 942.0 837.1 L 947.4 841.0 L 952.7 844.8 L 958.0 848.7 L 963.1 852.8 L 968.2 856.9 L 968.2 856.9 L 973.2 861.1 L 978.2 865.4 L 983.3 869.7 L 988.4 873.9 L 993.3 878.2 L 998.3 882.5 L 1000.0 884.0" fill="none" stroke="#00e5ff" stroke-width="6.0" stroke-opacity="0.9"/></g><g id="clips"><circle cx="1000.0" cy="556.7" r="2" fill="none" stroke="#0b5" stroke-width="0.6"/><circle cx="602.8" cy="0.0" r="2" fill="none" stroke="#0b5" stroke-width="0.6"/><circle cx="683.7" cy="0.0" r="2" fill="none" stroke="#0b5" stroke-width="0.6"/><circle cx="844.7" cy="0.0" r="2" fill="none" stroke="#0b5" stroke-width="0.6"/><circle cx="0.0" cy="197.6" r="2" fill="none" stroke="#0b5" stroke-width="0.6"/><circle cx="877.8" cy="1552.8" r="2" fill="none" stroke="#0b5" stroke-width="0.6"/><circle cx="895.9" cy="1535.3" r="2" fill="none" stroke="#0b5" stroke-width="0.6"/><circle cx="1000.0" cy="884.0" r="2" fill="none" stroke="#0b5" stroke-width="0.6"/></g><g id="power"><circle cx="602.8" cy="0.0" r="5" fill="none" stroke="#e33" stroke-width="1"/><circle cx="683.6" cy="0.0" r="5" fill="none" stroke="#e33" stroke-width="1"/><circle cx="844.7" cy="0.0" r="5" fill="none" stroke="#e33" stroke-width="1"/><circle cx="1000.0" cy="884.0" r="5" fill="none" stroke="#e33" stroke-width="1"/><circle cx="1000.0" cy="556.7" r="5" fill="none" stroke="#e33" stroke-width="1"/><circle cx="0.0" cy="197.6" r="5" fill="none" stroke="#e33" stroke-width="1"/></g><g id="bridges"><circle cx="886.8" cy="1544.0" r="9" fill="none" stroke="#e6a817" stroke-width="1.5"/><circle cx="886.8" cy="1544.0" r="9" fill="none" stroke="#e6a817" stroke-width="1.5"/></g></svg>