<svg xmlns="http://www.w3.org/2000/svg" width="2000mm" height="1000mm" viewBox="0 0 2000 1000"><g id="outline"><rect x="0" y="0" width="2000" height="1000" fill="none" stroke="#000" stroke-width="1"/></g><g id="channels"><path d="M 0.0 490.2 L 4.3 488.5 L 9.5 486.4 L 14.8 484.4 L 20.0 482.3 L 25.2 480.2 L 30.4 478.2 L 35.5 476.1 L 40.7 473.9 L 45.9 471.8 L 51.1 469.7 L 56.2 467.5 L 61.3 465.2 L 66.4 462.8 L 71.5 460.4 L 71.5 460.4 L 76.5 458.1 L 81.6 455.7 L 86.7 453.3 L 91.8 450.9 L 97.0 448.5 L 102.1 446.1 L 107.2 443.6 L 112.2 441.1 L 117.2 438.5 L 122.2 435.9 L 127.0 433.0 L 131.8 430.2 L 136.5 427.3 L 141.1 424.2 L 145.6 421.0 L 149.9 417.7 L 149.9 417.7 L 154.2 414.2 L 158.3 410.6 L 162.4 406.8 L 166.4 403.0 L 170.3 399.1 L 174.1 395.1 L 177.9 391.0 L 181.6 386.7 L 185.1 382.4 L 188.6 378.1 L 192.1 373.7 L 195.4 369.2 L 198.7 364.8 L 201.9 360.2 L 204.9 355.6 L 208.0 351.1 L 208.0 351.1 L 210.8 346.2 L 213.3 341.1 L 215.6 335.7 L 217.8 330.1 L 219.7 324.4 L 221.5 318.5 L 223.3 312.7 L 225.1 306.8 L 227.0 301.2 L 228.9 295.7 L 231.0 290.4 L 233.3 285.5 L 235.8 280.9 L 238.7 276.9 L 241.8 273.2 L 245.4 270.2 L 245.4 270.2 L 249.5 267.8 L 254.1 265.8 L 259.3 264.3 L 264.9 263.3 L 270.8 262.6 L 276.8 262.2 L 283.1 262.1 L 289.3 262.1 L 295.5 262.3 L 301.4 262.6 L 307.1 263.0 L 312.5 263.4 L 317.5 263.8 L 321.8 264.1 L 325.5 264.2 L 328.6 264.1" fill="none" stroke="#a05bff" stroke-width="6.0" stroke-opacity="0.9"/><path d="M 387.8 304.2 L 391.1 304.0 L 395.2 303.8 L 400.0 303.7 L 405.2 303.7 L 411.1 303.6 L 417.2 303.5 L 423.7 303.4 L 430.4 303.2 L 437.3 302.8 L 444.2 302.3 L 451.0 301.5 L 457.7 300.6 L 464.2 299.3 L 470.3 297.8 L 476.0 295.9 L 481.3 293.7 L 481.3 293.7 L 486.4 291.1 L 491.4 288.1 L 496.5 284.8 L 501.5 281.3 L 506.4 277.5 L 511.4 273.5 L 516.1 269.3 L 520.7 264.8 L 525.1 260.3 L 529.2 255.6 L 533.1 250.8 L 536.7 245.9 L 540.0 240.9 L 542.8 236.0 L 545.3 231.0 L 547.3 225.9 L 547.3 225.9 L 549.0 220.8 L 550.3 215.3 L 551.3 209.6 L 552.0 203.7 L 552.4 197.6 L 552.6 191.5 L 552.5 185.2 L 552.1 179.0 L 551.3 172.8 L 550.3 166.6 L 549.0 160.6 L 547.6 154.7 L 545.7 149.0 L 543.7 143.6 L 541.4 138.5 L 538.8 133.7 L 538.8 133.7 L 535.9 129.1 L 532.5 124.7 L 528.8 120.4 L 524.7 116.2 L 520.2 112.1 L 515.6 108.1 L 510.6 104.4 L 505.4 100.8 L 500.1 97.3 L 494.7 94.1 L 489.0 90.9 L 483.5 88.1 L 477.8 85.4 L 472.2 82.9 L 466.7 80.5 L 461.2 78.5 L 461.2 78.5 L 455.8 76.7 L 450.2 75.1 L 444.5 73.8 L 438.7 72.6 L 432.8 71.6 L 426.8 70.9 L 420.8 70.3 L 414.7 70.0 L 408.7 69.7 L 402.5 69.6 L 396.5 69.7 L 390.3 69.9 L 384.3 70.1 L 378.3 70.5 L 372.4 71.1 L 366.5 71.6 L 366.5 71.6 L 360.7 72.6 L 354.7 74.1 L 348.6 76.0 L 342.6 78.3 L 336.5 80.9 L 330.4 83.7 L 324.3 86.5 L 318.3 89.3 L 312.4 91.9 L 306.5 94.4 L 300.8 96.5 L 295.2 98.2 L 289.8 99.4 L 284.6 99.9 L 279.6 99.8 L 274.9 98.8 L 274.9 98.8 L 270.4 97.0 L 266.1 94.7 L 261.9 91.7 L 257.9 88.1 L 254.1 84.2 L 250.5 79.7 L 246.9 75.0 L 243.5 70.0 L 240.3 64.7 L 237.0 59.3 L 233.9 53.7 L 230.7 48.2 L 227.7 42.6 L 224.7 37.2 L 221.7 31.8 L 218.7 26.7 L 218.7 26.7 L 215.8 21.7 L 213.1 16.4 L 210.6 11.0 L 208.3 5.4 L 206.1 0.0" fill="none" stroke="#a05bff" stroke-width="6.0" stroke-opacity="0.9"/><path d="M 364.2 195.0 L 364.4 194.0 L 364.6 192.7 L 364.8 191.4 L 365.1 189.8 L 365.4 188.1 L 365.7 186.3 L 366.1 184.3 L 366.3 182.3 L 366.7 180.3 L 367.0 178.3 L 367.4 176.1 L 367.7 174.0 L 368.1 171.9 L 368.4 169.9 L 368.7 167.9 L 369.0 166.1 L 369.0 166.1 L 369.2 164.3 L 369.5 162.4 L 369.8 160.7 L 370.0 158.8 L 370.3 157.0 L 370.6 155.2 L 370.8 153.4 L 371.0 151.6 L 371.3 149.8 L 371.5 147.9 L 371.7 146.1 L 372.0 144.3 L 372.2 142.5 L 372.4 140.7 L 372.6 138.8 L 372.8 137.0 L 372.8 137.0 L 372.9 135.1 L 373.1 133.1 L 373.3 131.1 L 373.5 129.1 L 373.7 126.9 L 373.8 124.8 L 374.0 122.6 L 374.1 120.6 L 374.3 118.6 L 374.3 116.6 L 374.5 114.8 L 374.6 113.0 L 374.7 111.5 L 374.8 110.0 L 374.8 108.8 L 374.9 107.8" fill="none" stroke="#a05bff" stroke-width="6.0" stroke-opacity="0.9"/></g><g id="clips"><circle cx="0.0" cy="490.2" r="2" fill="none" stroke="#0b5" stroke-width="0.6"/><circle cx="328.6" cy="264.1" r="2" fill="none" stroke="#0b5" stroke-width="0.6"/><circle cx="387.8" cy="304.2" r="2" fill="none" stroke="#0b5" stroke-width="0.6"/><circle cx="206.1" cy="0.0" r="2" fill="none" stroke="#0b5" stroke-width="0.6"/><circle cx="364.2" cy="195.0" r="2" fill="none" stroke="#0b5" stroke-width="0.6"/><circle cx="374.9" cy="107.8" r="2" fill="none" stroke="#0b5" stroke-width="0.6"/></g><g id="power"><circle cx="0.0" cy="490.3" r="5" fill="none" stroke="#e33" stroke-width="1"/><circle cx="206.1" cy="0.0" r="5" fill="none" stroke="#e33" stroke-width="1"/></g><g id="bridges"></g></svg>