<svg xmlns="http://www.w3.org/2000/svg" width="2000mm" height="1000mm" viewBox="0 0 2000 1000"><g id="outline"><rect x="0" y="0" width="2000" height="1000" fill="none" stroke="#000" stroke-width="1"/></g><g id="channels"><path d="M 1239.2 1000.0 L 1235.2 995.2 L 1230.7 990.4 L 1226.1 985.8 L 1221.3 981.5 L 1216.4 977.4 L 1211.3 973.7 L 1206.0 970.4 L 1206.0 970.4 L 1200.3 967.6 L 1194.1 965.4 L 1187.3 963.6 L 1180.3 962.3 L 1172.9 961.3 L 1165.4 960.6 L 1157.8 960.0 L 1150.2 959.5 L 1142.8 959.1 L 1135.6 958.6 L 1128.7 957.9 L 1122.3 957.1 L 1116.3 955.9 L 1111.0 954.4 L 1106.4 952.4 L 1102.7 949.8 L 1102.7 949.8 L 1099.8 946.8 L 1097.9 943.5 L 1096.8 939.8 L 1096.3 935.8 L 1096.5 931.7 L 1097.0 927.3 L 1097.8 922.7 L 1098.9 918.0 L 1100.0 913.2 L 1101.0 908.4 L 1101.9 903.5 L 1102.5 898.6 L 1102.7 893.8 L 1102.3 889.0 L 1101.2 884.3 L 1099.4 879.8 L 1099.4 879.8 L 1096.7 875.3 L 1093.2 870.6 L 1089.1 865.8 L 1084.4 860.9 L 1079.4 856.0 L 1074.0 851.0 L 1068.4 846.1 L 1062.8 841.2 L 1057.3 836.4 L 1051.9 831.7 L 1046.8 827.1 L 1042.2 822.7 L 1038.1 818.5 L 1034.7 814.6 L 1032.0 810.9 L 1030.3 807.5 L 1030.3 807.5 L 1029.5 804.6 L 1029.7 802.1 L 1030.7 799.9 L 1032.4 798.1 L 1034.7 796.5 L 1037.3 795.1 L 1040.3 793.9 L 1043.4 792.6 L 1046.6 791.4 L 1049.7 790.1 L 1052.6 788.7 L 1055.1 787.1 L 1057.2 785.2 L 1058.7 783.0 L 1059.5 780.4 L 1059.4 777.3 L 1059.4 777.3 L 1058.4 773.7 L 1056.6 769.6 L 1053.9 765.0 L 1050.7 760.0 L 1047.0 754.7 L 1043.0 749.2 L 1038.8 743.6 L 1034.5 738.0 L 1030.2 732.4 L 1026.2 726.9 L 1022.5 721.7 L 1019.2 716.8 L 1016.5 712.2 L 1014.6 708.2 L 1013.4 704.7 L 1013.3 701.8 L 1013.3 701.8 L 1014.2 699.6 L 1015.9 698.1 L 1018.3 697.1 L 1021.4 696.5 L 1025.1 696.4 L 1029.1 696.6 L 1033.6 696.9 L 1038.2 697.5 L 1043.1 698.0 L 1047.9 698.6 L 1052.8 699.0 L 1057.4 699.3 L 1061.9 699.3 L 1065.9 698.9 L 1069.6 698.1 L 1072.7 696.8 L 1072.7 696.8 L 1075.3 695.0 L 1077.7 692.7 L 1079.8 690.0 L 1081.7 687.0 L 1083.5 683.7 L 1085.1 680.2 L 1086.6 676.7 L 1088.1 673.1 L 1089.6 669.5 L 1091.1 666.0 L 1092.6 662.6 L 1094.3 659.5 L 1096.1 656.7 L 1098.0 654.3 L 1100.2 652.3 L 1102.6 650.8 L 1102.6 650.8 L 1105.2 649.8 L 1108.1 649.0 L 1111.0 648.6 L 1114.1 648.4 L 1117.4 648.5 L 1120.7 648.8 L 1124.0 649.3 L 1127.5 649.9 L 1130.9 650.7 L 1134.4 651.6 L 1137.9 652.6 L 1141.3 653.6 L 1144.7 654.7 L 1148.0 655.8 L 1151.2 656.9 L 1154.3 657.9 L 1154.3 657.9 L 1157.3 658.9 L 1160.2 659.8 L 1163.1 660.6 L 1166.0 661.4 L 1168.8 662.2 L 1171.6 663.1 L 1174.4 664.1 L 1177.2 665.2 L 1179.9 666.5 L 1182.7 668.0 L 1185.4 669.7 L 1188.2 671.7 L 1191.0 674.1 L 1193.8 676.8 L 1196.7 679.9 L 1199.6 683.4 L 1199.6 683.4 L 1202.6 687.4 L 1205.5 691.9 L 1208.4 696.9 L 1211.4 702.3 L 1214.4 708.0 L 1217.4 714.0 L 1220.4 720.2 L 1223.4 726.6 L 1226.4 733.1 L 1229.4 739.7 L 1232.5 746.4 L 1235.6 753.0 L 1238.6 759.5 L 1241.8 765.9 L 1244.9 772.2 L 1248.0 778.1 L 1248.0 778.1 L 1251.2 784.0 L 1254.4 789.8 L 1257.7 795.6 L 1260.9 801.4 L 1264.2 807.2 L 1267.5 813.0 L 1270.9 818.7 L 1274.2 824.5 L 1277.5 830.2 L 1280.9 836.0 L 1284.2 841.7 L 1287.6 847.5 L 1290.9 853.2 L 1294.2 859.0 L 1297.5 864.8 L 1300.8 870.6 L 1300.8 870.6 L 1304.1 876.3 L 1307.3 882.2 L 1310.5 888.0 L 1313.7 893.9 L 1316.8 899.7 L 1320.0 905.6 L 1323.1 911.4 L 1326.3 917.3 L 1329.5 923.1 L 1332.7 929.0 L 1336.0 934.8 L 1339.3 940.5 L 1342.6 946.3 L 1346.1 952.0 L 1349.5 957.6 L 1353.1 963.2 L 1353.1 963.2 L 1356.7 968.8 L 1360.4 974.3 L 1364.2 979.8 L 1368.0 985.2 L 1371.8 990.7 L 1375.7 996.1 L 1378.6 1000.0" fill="none" stroke="#ffd23d" stroke-width="6.0" stroke-opacity="0.9"/></g><g id="clips"><circle cx="1239.2" cy="1000.0" r="2" fill="none" stroke="#0b5" stroke-width="0.6"/><circle cx="1378.6" cy="1000.0" r="2" fill="none" stroke="#0b5" stroke-width="0.6"/></g><g id="power"><circle cx="1239.2" cy="1000.0" r="5" fill="none" stroke="#e33" stroke-width="1"/><circle cx="1378.6" cy="1000.0" r="5" fill="none" stroke="#e33" stroke-width="1"/></g><g id="bridges"></g></svg>