<svg xmlns="http://www.w3.org/2000/svg" width="1000mm" height="2000mm" viewBox="0 0 1000 2000"><g id="outline"><rect x="0" y="0" width="1000" height="2000" fill="none" stroke="#000" stroke-width="1"/></g><g id="channels"><path d="M 602.8 2000.0 L 601.2 1996.2 L 598.6 1990.6 L 596.1 1984.9 L 593.5 1979.4 L 593.5 1979.4 L 590.9 1973.7 L 588.4 1968.0 L 585.9 1962.4 L 583.5 1956.6 L 581.0 1950.9 L 578.6 1945.2 L 576.1 1939.5 L 573.7 1933.8 L 571.2 1928.1 L 568.6 1922.4 L 566.1 1916.9 L 563.4 1911.3 L 560.6 1905.7 L 557.7 1900.2 L 554.7 1894.9 L 551.7 1889.5 L 551.7 1889.5 L 548.5 1884.3 L 545.1 1879.1 L 541.7 1873.9 L 538.2 1868.9 L 534.6 1863.9 L 530.9 1858.9 L 527.2 1853.9 L 523.4 1849.0 L 519.6 1844.1 L 515.7 1839.2 L 511.8 1834.3 L 508.0 1829.5 L 504.0 1824.6 L 500.2 1819.8 L 496.3 1814.9 L 492.4 1810.0 L 492.4 1810.0 L 488.6 1805.2 L 484.7 1800.3 L 480.8 1795.5 L 476.9 1790.7 L 472.9 1786.0 L 468.9 1781.2 L 465.0 1776.5 L 460.9 1771.7 L 457.0 1767.0 L 453.0 1762.2 L 448.9 1757.5 L 445.0 1752.7 L 441.1 1747.9 L 437.1 1743.1 L 433.3 1738.3 L 429.4 1733.4 L 429.4 1733.4 L 425.6 1728.6 L 421.7 1723.7 L 417.8 1718.9 L 414.0 1714.0 L 410.1 1709.1 L 406.2 1704.3 L 402.4 1699.4 L 398.5 1694.5 L 394.8 1689.5 L 391.0 1684.6 L 387.3 1679.6 L 383.7 1674.6 L 380.1 1669.6 L 376.6 1664.5 L 373.2 1659.3 L 369.9 1654.1 L 369.9 1654.1 L 366.7 1648.9 L 363.4 1643.5 L 360.2 1638.3 L 357.2 1632.9 L 354.1 1627.5 L 351.1 1622.0 L 348.2 1616.6 L 345.3 1611.1 L 342.5 1605.5 L 339.8 1600.0 L 337.1 1594.4 L 334.4 1588.7 L 331.8 1583.2 L 329.3 1577.5 L 326.9 1571.8 L 324.5 1566.1 L 324.5 1566.1 L 322.2 1560.3 L 320.1 1554.6 L 318.1 1548.7 L 316.1 1542.8 L 314.2 1537.0 L 312.4 1531.0 L 310.7 1525.1 L 309.0 1519.1 L 307.2 1513.2 L 305.6 1507.1 L 304.0 1501.2 L 302.2 1495.2 L 300.5 1489.2 L 298.8 1483.2 L 297.0 1477.4 L 295.0 1471.4 L 295.0 1471.4 L 293.1 1465.6 L 291.2 1459.6 L 289.4 1453.8 L 287.5 1447.8 L 285.5 1441.9 L 283.7 1436.0 L 281.8 1430.0 L 279.9 1424.2 L 277.9 1418.3 L 275.8 1412.5 L 273.8 1406.6 L 271.7 1400.8 L 269.6 1395.0 L 267.4 1389.1 L 265.2 1383.4 L 262.8 1377.7 L 262.8 1377.7 L 260.3 1372.1 L 257.6 1366.4 L 254.8 1360.8 L 251.9 1355.4 L 248.9 1349.8 L 245.8 1344.3 L 242.7 1338.8 L 239.7 1333.4 L 236.6 1327.9 L 233.6 1322.4 L 230.7 1317.0 L 227.8 1311.5 L 225.3 1305.9 L 222.8 1300.2 L 220.5 1294.7 L 218.5 1288.9 L 218.5 1288.9 L 216.6 1283.0 L 214.5 1276.5 L 212.4 1269.7 L 210.3 1262.6 L 208.3 1255.4 L 206.2 1248.2 L 204.4 1240.9 L 202.8 1233.9 L 201.3 1227.0 L 200.3 1220.5 L 199.5 1214.4 L 199.1 1209.0 L 199.2 1204.1 L 199.8 1199.8 L 200.9 1196.5 L 202.6 1194.1 L 202.6 1194.1 L 205.0 1192.6 L 208.2 1191.9 L 212.0 1191.9 L 216.3 1192.5 L 221.2 1193.7 L 226.4 1195.5 L 232.0 1197.7 L 237.8 1200.3 L 243.8 1203.2 L 249.8 1206.5 L 255.9 1209.8 L 261.8 1213.4 L 267.6 1217.0 L 273.2 1220.7 L 278.3 1224.2 L 283.0 1227.8 L 283.0 1227.8 L 287.6 1231.3 L 291.9 1235.2 L 296.1 1239.3 L 300.2 1243.7 L 304.3 1248.3 L 308.3 1253.1 L 312.2 1258.0 L 316.1 1263.0 L 320.0 1268.1 L 323.8 1273.3 L 327.7 1278.5 L 331.5 1283.5 L 335.5 1288.6 L 339.5 1293.5 L 343.5 1298.4 L 347.7 1303.1 L 347.7 1303.1 L 351.8 1307.6 L 356.0 1312.2 L 360.2 1316.8 L 364.5 1321.3 L 368.8 1325.7 L 373.1 1330.2 L 377.4 1334.6 L 381.7 1339.0 L 386.1 1343.5 L 390.4 1348.0 L 394.7 1352.4 L 399.0 1356.8 L 403.4 1361.2 L 407.7 1365.7 L 412.0 1370.1 L 416.3 1374.6 L 416.3 1374.6 L 420.6 1379.2 L 424.9 1383.6 L 429.3 1388.0 L 433.7 1392.3 L 438.2 1396.7 L 442.6 1401.0 L 447.0 1405.5 L 451.3 1409.9 L 455.7 1414.3 L 460.1 1418.7 L 464.3 1423.2 L 468.5 1427.8 L 472.5 1432.4 L 476.6 1437.1 L 480.4 1441.9 L 484.3 1446.7 L 484.3 1446.7 L 487.9 1451.7 L 491.5 1456.7 L 494.9 1461.9 L 498.3 1467.1 L 501.5 1472.3 L 504.8 1477.6 L 508.0 1482.9 L 511.0 1488.3 L 514.1 1493.7 L 517.2 1499.1 L 520.2 1504.5 L 523.1 1510.0 L 526.1 1515.5 L 529.0 1521.0 L 532.0 1526.4 L 534.9 1531.9 L 534.9 1531.9 L 537.8 1537.4 L 540.6 1542.8 L 543.5 1548.4 L 546.2 1554.0 L 548.9 1559.5 L 551.6 1565.1 L 554.2 1570.7 L 556.8 1576.3 L 559.5 1581.9 L 562.1 1587.6 L 564.8 1593.1 L 567.5 1598.8 L 570.2 1604.4 L 572.9 1609.9 L 575.7 1615.5 L 578.5 1621.0 L 578.5 1621.0 L 581.4 1626.5 L 584.3 1631.9 L 587.3 1637.4 L 590.3 1642.8 L 593.3 1648.2 L 596.4 1653.6 L 599.4 1659.0 L 602.4 1664.4 L 605.5 1669.8 L 608.6 1675.2 L 611.7 1680.6 L 614.7 1686.0 L 617.8 1691.4 L 620.9 1696.7 L 623.8 1702.2 L 626.8 1707.6 L 626.8 1707.6 L 629.9 1713.0 L 633.0 1718.4 L 636.1 1723.8 L 639.3 1729.2 L 642.6 1734.6 L 645.8 1739.9 L 649.0 1745.3 L 652.2 1750.7 L 655.2 1756.1 L 658.3 1761.5 L 661.3 1767.0 L 664.1 1772.5 L 666.8 1778.0 L 669.3 1783.6 L 671.7 1789.3 L 673.8 1794.9 L 673.8 1794.9 L 675.8 1800.7 L 677.6 1806.6 L 679.4 1812.5 L 681.1 1818.5 L 682.6 1824.4 L 684.0 1830.5 L 685.4 1836.5 L 686.6 1842.6 L 687.7 1848.7 L 688.7 1854.7 L 689.6 1860.9 L 690.4 1867.0 L 690.9 1873.2 L 691.5 1879.3 L 691.9 1885.5 L 692.2 1891.5 L 692.2 1891.5 L 692.2 1897.8 L 691.8 1904.1 L 691.1 1910.5 L 690.3 1917.0 L 689.1 1923.7 L 687.9 1930.3 L 686.6 1936.8 L 685.3 1943.4 L 683.9 1949.9 L 682.7 1956.2 L 681.6 1962.5 L 680.9 1968.4 L 680.3 1974.3 L 680.0 1979.8 L 680.2 1985.1 L 680.8 1990.1 L 680.8 1990.1 L 681.7 1994.7 L 683.2 1998.9 L 683.7 2000.0" fill="none" stroke="#00e5ff" stroke-width="6.0" stroke-opacity="0.9"/><path d="M 844.7 2000.0 L 843.6 1998.0 L 840.6 1992.5 L 837.5 1987.1 L 834.4 1981.8 L 831.3 1976.3 L 828.2 1970.9 L 825.2 1965.4 L 822.2 1960.0 L 819.4 1954.4 L 816.6 1948.8 L 814.1 1943.2 L 814.1 1943.2 L 811.7 1937.5 L 809.4 1931.7 L 807.1 1926.0 L 805.0 1920.2 L 802.9 1914.4 L 800.9 1908.5 L 798.9 1902.6 L 796.8 1896.8 L 794.9 1890.9 L 792.9 1885.0 L 791.0 1879.1 L 789.0 1873.3 L 786.9 1867.4 L 784.8 1861.6 L 782.7 1855.7 L 780.5 1849.9 L 780.5 1849.9 L 778.3 1844.2 L 776.0 1838.4 L 773.7 1832.7 L 771.3 1826.9 L 769.0 1821.2 L 766.6 1815.5 L 764.2 1809.8 L 761.8 1804.1 L 759.3 1798.4 L 756.9 1792.6 L 754.5 1787.0 L 752.1 1781.2 L 749.7 1775.5 L 747.3 1769.8 L 744.9 1764.1 L 742.6 1758.4 L 742.6 1758.4 L 740.2 1752.6 L 737.9 1746.8 L 735.6 1741.1 L 733.3 1735.3 L 731.0 1729.6 L 728.7 1723.8 L 726.4 1718.0 L 724.1 1712.3 L 721.8 1706.5 L 719.5 1700.8 L 717.2 1695.0 L 714.9 1689.3 L 712.5 1683.6 L 710.2 1677.8 L 707.9 1672.1 L 705.6 1666.3 L 705.6 1666.3 L 703.2 1660.5 L 700.9 1654.8 L 698.6 1649.0 L 696.3 1643.4 L 693.9 1637.6 L 691.6 1631.8 L 689.3 1626.1 L 686.9 1620.3 L 684.6 1614.6 L 682.2 1608.9 L 679.9 1603.1 L 677.5 1597.4 L 675.1 1591.7 L 672.7 1585.9 L 670.3 1580.3 L 667.9 1574.5 L 667.9 1574.5 L 665.5 1568.9 L 663.0 1563.1 L 660.6 1557.4 L 658.2 1551.8 L 655.7 1546.0 L 653.2 1540.3 L 650.8 1534.7 L 648.3 1528.9 L 645.8 1523.3 L 643.3 1517.6 L 640.8 1511.9 L 638.3 1506.3 L 635.8 1500.6 L 633.3 1494.9 L 630.8 1489.3 L 628.2 1483.6 L 628.2 1483.6 L 625.7 1477.9 L 623.1 1472.3 L 620.6 1466.6 L 618.1 1461.0 L 615.6 1455.3 L 613.0 1449.6 L 610.5 1444.0 L 607.9 1438.3 L 605.3 1432.6 L 602.7 1427.1 L 600.1 1421.4 L 597.4 1415.8 L 594.7 1410.3 L 591.9 1404.8 L 589.0 1399.2 L 586.1 1393.8 L 586.1 1393.8 L 583.1 1388.4 L 580.1 1383.0 L 577.0 1377.6 L 573.8 1372.3 L 570.7 1367.0 L 567.4 1361.7 L 564.1 1356.4 L 560.9 1351.2 L 557.5 1345.9 L 554.1 1340.8 L 550.7 1335.6 L 547.3 1330.4 L 543.9 1325.2 L 540.4 1320.0 L 537.0 1314.9 L 533.4 1309.8 L 533.4 1309.8 L 530.0 1304.7 L 526.4 1299.6 L 522.8 1294.6 L 519.2 1289.6 L 515.5 1284.6 L 511.8 1279.6 L 508.1 1274.6 L 504.3 1269.6 L 500.6 1264.7 L 496.8 1259.7 L 493.1 1254.8 L 489.3 1249.8 L 485.6 1245.0 L 482.0 1240.0 L 478.2 1235.0 L 474.6 1230.0 L 474.6 1230.0 L 470.8 1225.0 L 467.2 1220.0 L 463.5 1215.0 L 459.9 1210.0 L 456.2 1205.0 L 452.6 1199.9 L 448.9 1194.9 L 445.3 1189.9 L 441.5 1185.0 L 437.9 1180.0 L 434.2 1174.9 L 430.6 1169.9 L 426.9 1164.9 L 423.3 1159.9 L 419.7 1154.9 L 416.0 1149.8 L 416.0 1149.8 L 412.4 1144.8 L 408.8 1139.8 L 405.2 1134.7 L 401.6 1129.7 L 398.0 1124.7 L 394.4 1119.6 L 390.8 1114.5 L 387.2 1109.5 L 383.6 1104.4 L 380.0 1099.4 L 376.4 1094.3 L 372.7 1089.3 L 369.0 1084.3 L 365.2 1079.4 L 361.5 1074.6 L 357.7 1069.7 L 357.7 1069.7 L 353.9 1064.8 L 350.1 1059.9 L 346.2 1055.0 L 342.4 1050.1 L 338.5 1045.2 L 334.7 1040.3 L 330.8 1035.5 L 326.8 1030.6 L 322.9 1025.9 L 318.9 1021.1 L 314.8 1016.4 L 310.7 1011.8 L 306.6 1007.2 L 302.3 1002.6 L 298.0 998.2 L 293.7 993.8 L 293.7 993.8 L 289.3 989.5 L 284.9 985.2 L 280.5 980.8 L 275.9 976.3 L 271.3 971.9 L 266.8 967.6 L 262.1 963.4 L 257.4 959.2 L 252.7 955.1 L 247.8 951.2 L 242.9 947.4 L 237.9 943.8 L 232.9 940.3 L 227.7 937.2 L 222.5 934.2 L 217.2 931.5 L 217.2 931.5 L 211.6 929.1 L 206.1 927.1 L 200.3 925.3 L 194.3 923.7 L 188.4 922.4 L 182.3 921.3 L 176.2 920.3 L 170.0 919.4 L 163.8 918.6 L 157.6 917.8 L 151.3 917.0 L 145.1 916.2 L 138.9 915.3 L 132.9 914.2 L 126.9 913.1 L 120.9 911.6 L 120.9 911.6 L 114.9 910.3 L 108.7 909.0 L 102.3 908.0 L 95.7 906.9 L 89.1 905.9 L 82.5 904.9 L 76.0 903.8 L 69.5 902.6 L 63.3 901.3 L 57.3 899.7 L 51.6 898.0 L 46.2 895.9 L 41.2 893.6 L 36.7 890.8 L 32.7 887.6 L 29.3 884.1 L 29.3 884.1 L 26.5 879.8 L 24.3 874.7 L 22.6 869.0 L 21.3 862.7 L 20.5 856.0 L 20.0 849.0 L 19.8 841.8 L 19.9 834.6 L 20.1 827.4 L 20.5 820.2 L 20.9 813.5 L 21.3 807.2 L 21.6 801.4 L 21.9 796.2 L 22.0 791.9 L 21.9 788.5" fill="none" stroke="#00e5ff" stroke-width="6.0" stroke-opacity="0.9"/><path d="M 49.3 715.5 L 48.5 712.0 L 47.7 707.5 L 47.0 702.5 L 46.1 696.7 L 45.3 690.5 L 44.2 683.8 L 43.1 676.8 L 41.9 669.5 L 40.5 662.2 L 38.9 654.7 L 37.1 647.4 L 35.1 640.2 L 32.9 633.2 L 30.3 626.6 L 27.5 620.5 L 24.4 614.8 L 24.4 614.8 L 21.0 609.5 L 17.2 604.2 L 13.2 598.9 L 8.9 593.7 L 4.3 588.5 L 0.0 583.9" fill="none" stroke="#00e5ff" stroke-width="6.0" stroke-opacity="0.9"/></g><g id="clips"><circle cx="602.8" cy="2000.0" r="2" fill="none" stroke="#0b5" stroke-width="0.6"/><circle cx="683.7" cy="2000.0" r="2" fill="none" stroke="#0b5" stroke-width="0.6"/><circle cx="844.7" cy="2000.0" r="2" fill="none" stroke="#0b5" stroke-width="0.6"/><circle cx="21.9" cy="788.5" r="2" fill="none" stroke="#0b5" stroke-width="0.6"/><circle cx="49.3" cy="715.5" r="2" fill="none" stroke="#0b5" stroke-width="0.6"/><circle cx="0.0" cy="583.9" r="2" fill="none" stroke="#0b5" stroke-width="0.6"/></g><g id="power"><circle cx="602.8" cy="2000.0" r="5" fill="none" stroke="#e33" stroke-width="1"/><circle cx="683.6" cy="2000.0" r="5" fill="none" stroke="#e33" stroke-width="1"/><circle cx="844.7" cy="2000.0" r="5" fill="none" stroke="#e33" stroke-width="1"/><circle cx="0.0" cy="583.9" r="5" fill="none" stroke="#e33" stroke-width="1"/></g><g id="bridges"></g></svg>