<svg xmlns="http://www.w3.org/2000/svg" width="1000mm" height="500mm" viewBox="0 0 1000 500"><g id="outline"><rect x="0" y="0" width="1000" height="500" fill="none" stroke="#000" stroke-width="1"/></g><g id="channels"><path d="M 495.5 500.0 L 497.3 496.8 L 500.6 490.9 L 503.7 484.9 L 506.6 478.9 L 509.3 472.9 L 511.7 466.8 L 513.9 460.7 L 515.8 454.6 L 517.4 448.4 L 518.6 442.2 L 518.6 442.2 L 519.5 435.9 L 520.1 429.6 L 520.3 423.1 L 520.3 416.6 L 519.9 410.1 L 519.4 403.5 L 518.6 396.8 L 517.6 390.2 L 516.5 383.5 L 515.3 376.8 L 513.9 370.2 L 512.5 363.5 L 511.0 356.9 L 509.5 350.3 L 508.1 343.8 L 506.6 337.3 L 506.6 337.3 L 505.1 330.9 L 503.6 324.5 L 501.9 318.1 L 500.1 311.7 L 498.2 305.3 L 496.3 298.9 L 494.2 292.5 L 492.1 286.2 L 489.9 279.9 L 487.7 273.6 L 485.4 267.3 L 483.0 261.1 L 480.6 254.8 L 478.2 248.6 L 475.7 242.5 L 473.2 236.3 L 473.2 236.3 L 470.7 230.2 L 468.1 224.0 L 465.5 217.9 L 462.9 211.7 L 460.2 205.6 L 457.5 199.5 L 454.8 193.4 L 451.9 187.4 L 449.0 181.4 L 446.0 175.4 L 442.9 169.5 L 439.7 163.7 L 436.4 158.0 L 433.0 152.3 L 429.5 146.8 L 425.8 141.4 L 425.8 141.4 L 422.0 136.0 L 418.0 130.7 L 413.9 125.6 L 409.7 120.5 L 405.4 115.4 L 401.0 110.5 L 396.5 105.6 L 391.9 100.8 L 387.2 96.0 L 382.5 91.3 L 377.7 86.6 L 372.9 82.0 L 368.0 77.4 L 363.1 72.9 L 358.2 68.4 L 353.3 63.9 L 353.3 63.9 L 348.4 59.6 L 343.3 55.3 L 338.2 51.1 L 333.0 47.0 L 327.7 42.9 L 322.4 38.9 L 317.0 35.0 L 311.6 31.1 L 306.2 27.1 L 300.8 23.2 L 295.4 19.3 L 290.0 15.4 L 284.7 11.4 L 279.4 7.4 L 274.1 3.3 L 270.1 0.0" fill="none" stroke="#ffd23d" stroke-width="6.0" stroke-opacity="0.9"/></g><g id="clips"><circle cx="495.5" cy="500.0" r="2" fill="none" stroke="#0b5" stroke-width="0.6"/><circle cx="270.1" cy="0.0" r="2" fill="none" stroke="#0b5" stroke-width="0.6"/></g><g id="power"><circle cx="495.5" cy="500.0" r="5" fill="none" stroke="#e33" stroke-width="1"/><circle cx="270.0" cy="0.0" r="5" fill="none" stroke="#e33" stroke-width="1"/></g><g id="bridges"></g></svg>