<svg xmlns="http://www.w3.org/2000/svg" width="2000mm" height="1000mm" viewBox="0 0 2000 1000"><g id="outline"><rect x="0" y="0" width="2000" height="1000" fill="none" stroke="#000" stroke-width="1"/></g><g id="channels"><path d="M 1206.1 1000.0 L 1206.0 999.8 L 1203.8 994.1 L 1201.7 988.3 L 1199.6 982.6 L 1197.5 976.9 L 1195.2 971.1 L 1192.9 965.5 L 1190.4 960.0 L 1187.7 954.6 L 1184.9 949.5 L 1181.7 944.4 L 1178.4 939.6 L 1178.4 939.6 L 1174.7 935.0 L 1170.9 930.5 L 1166.8 926.3 L 1162.6 922.0 L 1158.2 917.9 L 1153.6 913.9 L 1149.0 910.0 L 1144.3 906.2 L 1139.5 902.4 L 1134.6 898.7 L 1129.7 895.0 L 1124.7 891.5 L 1119.8 887.8 L 1114.8 884.3 L 1109.9 880.8 L 1104.9 877.3 L 1104.9 877.3 L 1100.1 873.7 L 1095.1 870.3 L 1090.1 867.0 L 1085.1 863.7 L 1080.0 860.4 L 1074.9 857.2 L 1069.7 854.0 L 1064.6 850.9 L 1059.3 847.8 L 1054.1 844.7 L 1048.9 841.7 L 1043.7 838.6 L 1038.4 835.5 L 1033.1 832.5 L 1027.9 829.5 L 1022.8 826.3 L 1022.8 826.3 L 1017.5 823.3 L 1012.3 820.3 L 1007.0 817.3 L 1001.8 814.3 L 996.5 811.4 L 991.2 808.4 L 985.9 805.5 L 980.6 802.6 L 975.3 799.7 L 970.0 796.7 L 964.7 793.8 L 959.5 790.8 L 954.3 787.7 L 949.1 784.7 L 943.9 781.5 L 938.9 778.3 L 938.9 778.3 L 933.7 775.1 L 928.7 771.8 L 923.6 768.5 L 918.6 765.2 L 913.5 761.8 L 908.5 758.4 L 903.6 755.0 L 898.6 751.5 L 893.6 748.1 L 888.7 744.5 L 883.9 741.0 L 879.0 737.4 L 874.2 733.7 L 869.3 730.1 L 864.5 726.4 L 859.8 722.6 L 859.8 722.6 L 855.2 718.9 L 850.5 715.1 L 845.9 711.2 L 841.2 707.3 L 836.6 703.3 L 832.0 699.4 L 827.6 695.4 L 823.0 691.4 L 818.5 687.3 L 814.1 683.2 L 809.6 679.0 L 805.3 674.9 L 800.9 670.8 L 796.6 666.5 L 792.2 662.4 L 787.9 658.1 L 787.9 658.1 L 783.5 653.9 L 779.1 649.7 L 774.5 645.5 L 770.0 641.3 L 765.4 637.1 L 760.9 632.8 L 756.3 628.5 L 751.9 624.3 L 747.6 619.9 L 743.4 615.5 L 739.3 611.0 L 735.4 606.4 L 731.7 601.8 L 728.3 597.1 L 725.0 592.3 L 722.2 587.3 L 722.2 587.3 L 719.4 582.2 L 716.7 576.9 L 714.1 571.6 L 711.6 566.1 L 709.2 560.5 L 707.0 554.8 L 705.0 549.1 L 703.2 543.3 L 701.6 537.6 L 700.3 531.7 L 699.3 526.0 L 698.5 520.2 L 698.2 514.6 L 698.1 509.0 L 698.5 503.6 L 699.3 498.2 L 699.3 498.2 L 700.7 492.8 L 703.2 487.2 L 706.5 481.3 L 710.4 475.4 L 714.9 469.4 L 719.8 463.5 L 724.7 457.5 L 729.8 451.8 L 734.8 446.4 L 739.5 441.0 L 743.7 436.1 L 747.4 431.6 L 750.3 427.5 L 752.5 423.9 L 753.6 420.9 L 753.4 418.6 L 753.4 418.6 L 752.0 417.0 L 749.5 416.2 L 745.8 415.9 L 741.3 416.2 L 736.1 417.0 L 730.3 418.2 L 724.1 419.7 L 717.6 421.4 L 711.0 423.4 L 704.5 425.4 L 698.2 427.4 L 692.2 429.2 L 686.7 430.9 L 681.9 432.4 L 678.0 433.6 L 675.0 434.3" fill="none" stroke="#a05bff" stroke-width="6.0" stroke-opacity="0.9"/><path d="M 682.3 378.6 L 680.8 375.7 L 679.0 372.0 L 676.9 367.6 L 674.6 362.6 L 671.9 357.2 L 669.2 351.4 L 666.2 345.5 L 663.3 339.3 L 660.2 333.3 L 657.2 327.4 L 654.2 321.7 L 651.2 316.5 L 648.4 311.8 L 645.8 307.8 L 643.3 304.5 L 641.1 302.1 L 641.1 302.1 L 639.1 300.5 L 637.4 299.6 L 635.9 299.3 L 634.4 299.5 L 633.1 300.2 L 631.9 301.2 L 630.6 302.5 L 629.5 304.2 L 628.3 306.0 L 626.9 307.9 L 625.6 309.8 L 624.0 311.7 L 622.4 313.5 L 620.5 315.2 L 618.3 316.6 L 615.9 317.7 L 615.9 317.7 L 613.2 318.7 L 610.3 319.7 L 607.2 320.6 L 603.9 321.5 L 600.5 322.4 L 597.0 323.3 L 593.3 324.3 L 589.5 325.1 L 585.7 326.1 L 581.8 327.0 L 577.9 328.0 L 574.1 328.9 L 570.1 329.9 L 566.3 330.9 L 562.5 331.9 L 558.8 332.9 L 558.8 332.9 L 555.0 334.0 L 550.8 334.8 L 546.4 335.8 L 541.9 336.6 L 537.3 337.4 L 532.7 338.2 L 528.0 339.0 L 523.4 339.9 L 519.1 340.9 L 515.0 341.9 L 511.1 343.0 L 507.6 344.4 L 504.5 345.8 L 501.9 347.5 L 499.9 349.3 L 498.5 351.3 L 498.5 351.3 L 497.8 353.7 L 497.9 356.3 L 498.9 359.2 L 500.4 362.3 L 502.3 365.6 L 504.6 369.0 L 507.3 372.6 L 510.0 376.2 L 512.8 379.8 L 515.5 383.4 L 518.0 387.0 L 520.2 390.5 L 521.9 393.7 L 523.1 396.9 L 523.7 399.8 L 523.5 402.6 L 523.5 402.6 L 522.3 405.1 L 520.3 407.3 L 517.6 409.4 L 514.2 411.4 L 510.4 413.3 L 506.3 415.1 L 501.9 416.8 L 497.6 418.5 L 493.3 420.1 L 489.3 421.8 L 485.6 423.5 L 482.6 425.3 L 480.0 427.2 L 478.3 429.1 L 477.6 431.2 L 477.9 433.4 L 477.9 433.4 L 479.4 435.7 L 481.7 438.0 L 484.9 440.3 L 488.8 442.6 L 493.4 444.9 L 498.4 447.3 L 503.8 449.8 L 509.5 452.3 L 515.4 454.9 L 521.5 457.5 L 527.4 460.4 L 533.1 463.3 L 538.8 466.3 L 543.9 469.4 L 548.7 472.9 L 552.8 476.4 L 552.8 476.4 L 556.5 480.1 L 560.1 484.0 L 563.6 488.1 L 566.9 492.3 L 570.0 496.7 L 573.2 501.2 L 576.1 505.9 L 579.0 510.6 L 581.9 515.4 L 584.6 520.1 L 587.3 525.1 L 590.0 529.9 L 592.6 534.8 L 595.3 539.6 L 598.0 544.5 L 600.6 549.2 L 600.6 549.2 L 603.3 554.0 L 605.8 558.8 L 608.4 563.6 L 610.8 568.5 L 613.2 573.4 L 615.6 578.3 L 617.9 583.3 L 620.2 588.3 L 622.5 593.2 L 624.8 598.2 L 627.1 603.1 L 629.4 608.1 L 631.7 613.1 L 634.1 618.0 L 636.5 622.9 L 639.0 627.7 L 639.0 627.7 L 641.5 632.7 L 644.0 637.5 L 646.4 642.5 L 648.8 647.4 L 651.2 652.2 L 653.6 657.1 L 656.2 662.1 L 658.6 667.0 L 661.1 671.8 L 663.7 676.6 L 666.3 681.5 L 669.1 686.1 L 671.8 690.8 L 674.8 695.4 L 677.7 700.0 L 680.8 704.4 L 680.8 704.4 L 684.0 708.8 L 687.3 713.1 L 690.6 717.5 L 694.0 721.6 L 697.5 725.8 L 701.1 730.0 L 704.7 734.1 L 708.4 738.2 L 712.1 742.2 L 715.9 746.1 L 719.7 750.0 L 723.7 753.8 L 727.6 757.7 L 731.6 761.4 L 735.6 765.1 L 739.7 768.6 L 739.7 768.6 L 743.8 772.2 L 747.9 775.7 L 752.1 779.1 L 756.5 782.4 L 760.8 785.7 L 765.2 789.0 L 769.7 792.2 L 774.2 795.3 L 778.7 798.3 L 783.2 801.4 L 787.8 804.4 L 792.4 807.4 L 797.0 810.4 L 801.6 813.3 L 806.2 816.4 L 810.8 819.3 L 810.8 819.3 L 815.4 822.2 L 820.1 825.2 L 824.7 827.9 L 829.3 830.8 L 834.0 833.6 L 838.7 836.4 L 843.5 839.1 L 848.2 841.8 L 852.9 844.5 L 857.7 847.3 L 862.5 850.0 L 867.2 852.6 L 872.0 855.2 L 876.8 858.0 L 881.5 860.6 L 886.3 863.3 L 886.3 863.3 L 891.2 866.0 L 896.4 868.5 L 901.8 871.0 L 907.3 873.6 L 913.0 876.0 L 918.6 878.6 L 924.1 881.1 L 929.7 883.5 L 935.1 886.0 L 940.2 888.5 L 945.1 891.1 L 949.6 893.7 L 953.8 896.4 L 957.4 899.1 L 960.7 901.9 L 963.3 904.8 L 963.3 904.8 L 965.4 907.7 L 967.3 911.0 L 968.9 914.4 L 970.2 917.9 L 971.1 921.6 L 971.7 925.3 L 972.1 928.9 L 972.1 932.6 L 971.9 936.2 L 971.2 939.8 L 970.3 943.1 L 969.0 946.2 L 967.4 949.2 L 965.4 951.9 L 963.1 954.2 L 960.5 956.4 L 960.5 956.4 L 957.4 958.0 L 953.6 959.4 L 949.4 960.5 L 944.7 961.4 L 939.5 962.0 L 934.1 962.4 L 928.2 962.6 L 922.3 962.8 L 916.1 963.0 L 909.9 963.1 L 903.5 963.1 L 897.2 963.2 L 891.0 963.3 L 885.0 963.6 L 879.1 964.0 L 873.6 964.6 L 873.6 964.6 L 868.1 965.3 L 862.7 966.0 L 857.3 966.8 L 851.9 967.5 L 846.5 968.3 L 841.1 969.2 L 835.7 970.0 L 830.3 970.8 L 824.9 971.8 L 819.5 972.6 L 814.1 973.4 L 808.8 974.4 L 803.3 975.2 L 797.9 976.0 L 792.6 976.9 L 787.2 977.7 L 787.2 977.7 L 781.8 978.5 L 776.3 979.4 L 770.9 980.2 L 765.6 981.1 L 760.1 982.0 L 754.7 982.9 L 749.4 983.7 L 744.0 984.6 L 738.5 985.5 L 733.1 986.2 L 727.8 987.1 L 722.3 987.8 L 716.9 988.5 L 711.5 989.1 L 706.1 989.7 L 700.7 990.3 L 700.7 990.3 L 695.3 990.7 L 689.8 991.1 L 684.3 991.5 L 678.9 991.8 L 673.5 992.1 L 668.0 992.3 L 662.5 992.5 L 657.0 992.7 L 651.6 992.8 L 646.2 992.9 L 640.7 992.9 L 635.2 993.0 L 629.7 993.0 L 624.3 993.0 L 618.8 993.1 L 613.3 993.1 L 613.3 993.1 L 607.9 993.0 L 602.5 992.9 L 597.0 992.8 L 591.5 992.6 L 586.0 992.5 L 580.6 992.2 L 575.1 992.0 L 569.7 991.7 L 564.2 991.5 L 558.7 991.1 L 553.3 990.9 L 547.8 990.6 L 542.4 990.4 L 536.9 990.1 L 531.5 990.0 L 526.0 989.8 L 526.0 989.8 L 520.6 989.7 L 515.1 989.5 L 509.6 989.4 L 504.2 989.3 L 498.7 989.1 L 493.3 989.0 L 487.8 988.9 L 482.3 988.7 L 476.9 988.7 L 471.4 988.6 L 465.9 988.4 L 460.5 988.4 L 455.0 988.3 L 449.5 988.1 L 444.1 988.1 L 438.6 988.0 L 438.6 988.0 L 433.1 987.8 L 427.7 987.8 L 422.2 987.8 L 416.8 987.7 L 411.3 987.7 L 405.8 987.7 L 400.4 987.6 L 394.9 987.6 L 389.5 987.6 L 384.0 987.5 L 378.5 987.4 L 373.1 987.4 L 367.6 987.2 L 362.2 987.0 L 356.7 986.8 L 351.2 986.6 L 351.2 986.6 L 345.8 986.3 L 340.4 986.0 L 334.9 985.5 L 329.4 985.1 L 324.0 984.6 L 318.5 984.1 L 313.1 983.6 L 307.7 983.1 L 302.3 982.6 L 296.8 982.0 L 291.4 981.5 L 285.9 981.1 L 280.5 980.6 L 275.0 980.2 L 269.6 979.8 L 264.1 979.5 L 264.1 979.5 L 258.7 979.2 L 253.2 979.0 L 247.7 978.7 L 242.3 978.4 L 236.8 978.2 L 231.3 977.9 L 225.9 977.8 L 220.4 977.5 L 215.0 977.4 L 209.6 977.3 L 204.0 977.2 L 198.6 977.2 L 193.1 977.2 L 187.7 977.4 L 182.2 977.6 L 176.8 977.8 L 176.8 977.8 L 171.3 978.1 L 165.9 978.4 L 160.5 978.8 L 155.0 979.3 L 149.6 979.8 L 144.1 980.4 L 138.8 981.0 L 133.3 981.6 L 127.9 982.4 L 122.5 983.1 L 117.1 983.9 L 111.6 984.7 L 106.2 985.5 L 100.8 986.3 L 95.5 987.3 L 90.1 988.2 L 90.1 988.2 L 84.7 989.1 L 79.3 990.2 L 74.0 991.2 L 68.7 992.3 L 63.3 993.4 L 58.0 994.6 L 52.6 995.8 L 47.3 997.0 L 42.0 998.3 L 36.6 999.6 L 35.0 1000.0" fill="none" stroke="#a05bff" stroke-width="6.0" stroke-opacity="0.9"/></g><g id="clips"><circle cx="1206.1" cy="1000.0" r="2" fill="none" stroke="#0b5" stroke-width="0.6"/><circle cx="675.0" cy="434.3" r="2" fill="none" stroke="#0b5" stroke-width="0.6"/><circle cx="682.3" cy="378.6" r="2" fill="none" stroke="#0b5" stroke-width="0.6"/><circle cx="35.0" cy="1000.0" r="2" fill="none" stroke="#0b5" stroke-width="0.6"/></g><g id="power"><circle cx="35.0" cy="1000.0" r="5" fill="none" stroke="#e33" stroke-width="1"/><circle cx="1206.1" cy="1000.0" r="5" fill="none" stroke="#e33" stroke-width="1"/></g><g id="bridges"></g></svg>