<svg xmlns="http://www.w3.org/2000/svg" width="1000mm" height="2000mm" viewBox="0 0 1000 2000"><g id="outline"><rect x="0" y="0" width="1000" height="2000" fill="none" stroke="#000" stroke-width="1"/></g><g id="channels"><path d="M 270.1 2000.0 L 269.0 1999.1 L 269.0 1999.1 L 263.8 1994.9 L 258.7 1990.6 L 253.6 1986.3 L 248.6 1982.0 L 243.5 1977.7 L 238.5 1973.4 L 233.5 1969.0 L 228.5 1964.6 L 223.5 1960.2 L 218.5 1955.8 L 213.6 1951.4 L 208.6 1946.9 L 203.7 1942.5 L 198.7 1938.0 L 193.8 1933.6 L 188.9 1929.1 L 188.9 1929.1 L 184.0 1924.6 L 179.1 1920.0 L 174.3 1915.4 L 169.6 1910.8 L 164.8 1906.1 L 160.1 1901.4 L 155.4 1896.6 L 150.7 1891.9 L 145.9 1887.3 L 141.2 1882.6 L 136.4 1878.0 L 131.5 1873.5 L 126.6 1869.0 L 121.6 1864.6 L 116.6 1860.3 L 111.4 1856.2 L 111.4 1856.2 L 106.2 1852.1 L 100.9 1848.1 L 95.6 1844.1 L 90.2 1840.3 L 84.8 1836.5 L 79.3 1832.7 L 73.8 1829.0 L 68.2 1825.3 L 62.6 1821.7 L 57.0 1818.1 L 51.4 1814.6 L 45.7 1811.1 L 40.1 1807.6 L 34.4 1804.1 L 28.7 1800.7 L 23.0 1797.2 L 23.0 1797.2 L 17.3 1793.8 L 11.6 1790.5 L 5.8 1787.2 L 0.0 1784.0 L 0.0 1784.0" fill="none" stroke="#ffd23d" stroke-width="6.0" stroke-opacity="0.9"/><path d="M 0.0 1588.8 L 0.1 1588.9 L 6.0 1591.9 L 11.9 1595.0 L 17.8 1598.1 L 17.8 1598.1 L 23.6 1601.3 L 29.5 1604.5 L 35.2 1607.8 L 41.0 1611.2 L 46.8 1614.5 L 52.5 1617.9 L 58.3 1621.2 L 64.0 1624.6 L 69.8 1627.9 L 75.6 1631.3 L 81.3 1634.6 L 87.1 1637.8 L 93.0 1641.0 L 98.8 1644.1 L 104.7 1647.1 L 110.7 1650.0 L 110.7 1650.0 L 116.7 1652.9 L 122.7 1655.9 L 128.7 1658.9 L 134.7 1661.9 L 140.7 1664.9 L 146.8 1667.8 L 152.9 1670.7 L 159.0 1673.5 L 165.1 1676.2 L 171.3 1678.8 L 177.5 1681.2 L 183.7 1683.5 L 189.9 1685.6 L 196.1 1687.5 L 202.4 1689.1 L 208.7 1690.5 L 208.7 1690.5 L 215.3 1691.7 L 222.2 1693.0 L 229.5 1694.3 L 237.0 1695.4 L 244.7 1696.5 L 252.4 1697.4 L 260.1 1698.2 L 267.6 1698.7 L 274.9 1698.9 L 282.0 1698.8 L 288.6 1698.4 L 294.8 1697.7 L 300.4 1696.5 L 305.3 1694.8 L 309.5 1692.6 L 312.8 1689.9 L 312.8 1689.9 L 315.4 1686.5 L 317.4 1682.4 L 318.8 1677.5 L 319.7 1672.1 L 320.1 1666.2 L 320.1 1659.8 L 319.6 1653.2 L 318.7 1646.4 L 317.5 1639.4 L 315.9 1632.4 L 314.0 1625.5 L 311.8 1618.7 L 309.4 1612.1 L 306.8 1605.9 L 304.1 1600.2 L 301.1 1594.9 L 301.1 1594.9 L 297.9 1590.0 L 294.2 1585.4 L 290.0 1580.9 L 285.4 1576.6 L 280.5 1572.4 L 275.3 1568.3 L 269.8 1564.4 L 264.1 1560.5 L 258.3 1556.7 L 252.4 1553.0 L 246.4 1549.3 L 240.4 1545.7 L 234.5 1542.1 L 228.6 1538.4 L 222.9 1534.7 L 217.3 1531.0 L 217.3 1531.0 L 211.9 1527.4 L 206.3 1523.8 L 200.6 1520.4 L 194.8 1517.1 L 189.1 1513.8 L 183.2 1510.5 L 177.4 1507.3 L 171.6 1504.1 L 165.8 1500.8 L 160.0 1497.5 L 154.3 1494.1 L 148.6 1490.6 L 143.1 1487.0 L 137.7 1483.3 L 132.4 1479.4 L 127.2 1475.4 L 127.2 1475.4 L 122.1 1471.1 L 117.0 1466.9 L 111.9 1462.5 L 106.9 1458.0 L 101.9 1453.5 L 97.0 1448.8 L 92.1 1444.1 L 87.4 1439.3 L 82.7 1434.4 L 78.2 1429.4 L 73.8 1424.3 L 69.6 1419.2 L 65.6 1414.0 L 61.8 1408.6 L 58.1 1403.2 L 54.7 1397.8 L 54.7 1397.8 L 51.4 1392.1 L 48.2 1386.4 L 45.1 1380.5 L 42.1 1374.4 L 39.2 1368.3 L 36.5 1362.1 L 33.9 1355.8 L 31.5 1349.4 L 29.3 1343.0 L 27.4 1336.6 L 25.7 1330.2 L 24.3 1323.7 L 23.2 1317.3 L 22.3 1311.0 L 21.9 1304.7 L 21.7 1298.4 L 21.7 1298.4 L 21.9 1292.2 L 22.5 1285.8 L 23.3 1279.4 L 24.4 1272.8 L 25.8 1266.3 L 27.5 1259.7 L 29.4 1253.1 L 31.6 1246.6 L 34.0 1240.2 L 36.6 1233.9 L 39.4 1227.7 L 42.4 1221.7 L 45.7 1215.9 L 49.1 1210.3 L 52.6 1205.0 L 56.4 1199.9 L 56.4 1199.9 L 60.3 1195.1 L 64.6 1190.2 L 69.2 1185.5 L 74.0 1180.9 L 79.0 1176.4 L 84.3 1172.1 L 89.8 1168.0 L 95.4 1164.0 L 101.2 1160.2 L 107.0 1156.7 L 113.0 1153.4 L 119.0 1150.4 L 125.1 1147.7 L 131.1 1145.3 L 137.1 1143.2 L 143.1 1141.4 L 143.1 1141.4 L 149.2 1140.1 L 155.4 1139.1 L 161.7 1138.4 L 168.1 1138.0 L 174.6 1137.9 L 181.2 1138.1 L 187.9 1138.6 L 194.6 1139.2 L 201.3 1140.1 L 208.0 1141.1 L 214.7 1142.4 L 221.3 1143.7 L 227.9 1145.2 L 234.4 1146.7 L 240.8 1148.4 L 247.1 1150.1 L 247.1 1150.1 L 253.4 1151.9 L 259.6 1153.9 L 265.8 1156.1 L 272.1 1158.4 L 278.3 1160.9 L 284.4 1163.6 L 290.5 1166.4 L 296.6 1169.3 L 302.6 1172.3 L 308.6 1175.5 L 314.5 1178.8 L 320.3 1182.2 L 326.1 1185.6 L 331.8 1189.2 L 337.3 1192.8 L 342.8 1196.4 L 342.8 1196.4 L 348.2 1200.2 L 353.6 1204.0 L 359.1 1208.0 L 364.4 1212.0 L 369.8 1216.2 L 375.0 1220.5 L 380.2 1224.8 L 385.3 1229.3 L 390.3 1233.8 L 395.1 1238.5 L 399.8 1243.2 L 404.4 1248.1 L 408.7 1253.1 L 412.8 1258.1 L 416.8 1263.3 L 420.5 1268.5 L 420.5 1268.5 L 423.9 1273.9 L 427.1 1279.5 L 430.0 1285.2 L 432.8 1291.1 L 435.3 1297.1 L 437.7 1303.2 L 439.9 1309.4 L 442.1 1315.6 L 444.1 1321.9 L 446.0 1328.3 L 447.9 1334.6 L 449.7 1341.0 L 451.5 1347.4 L 453.4 1353.8 L 455.3 1360.1 L 457.2 1366.3 L 457.2 1366.3 L 459.0 1372.8 L 460.7 1379.7 L 462.1 1387.0 L 463.5 1394.5 L 464.7 1402.1 L 465.9 1409.8 L 467.1 1417.5 L 468.3 1425.0 L 469.5 1432.2 L 470.9 1439.1 L 472.3 1445.6 L 474.0 1451.5 L 475.9 1456.8 L 478.0 1461.3 L 480.4 1465.0 L 483.1 1467.8 L 483.1 1467.8 L 486.3 1469.7 L 490.0 1470.9 L 494.2 1471.5 L 498.7 1471.5 L 503.5 1471.0 L 508.5 1469.9 L 513.6 1468.4 L 518.7 1466.3 L 523.7 1463.9 L 528.6 1461.2 L 533.2 1458.1 L 537.6 1454.7 L 541.5 1451.0 L 545.0 1447.2 L 547.8 1443.2 L 550.1 1439.0 L 550.1 1439.0 L 551.6 1434.5 L 552.7 1429.5 L 553.3 1423.9 L 553.5 1417.9 L 553.3 1411.6 L 552.8 1404.9 L 552.0 1398.0 L 551.1 1390.9 L 550.0 1383.6 L 548.8 1376.2 L 547.5 1368.8 L 546.3 1361.4 L 545.2 1354.0 L 544.2 1346.8 L 543.3 1339.8 L 542.7 1333.0 L 542.7 1333.0 L 542.2 1326.4 L 541.7 1319.8 L 541.2 1313.2 L 540.6 1306.5 L 540.1 1299.9 L 539.5 1293.3 L 538.9 1286.7 L 538.4 1280.0 L 537.8 1273.4 L 537.3 1266.8 L 536.8 1260.2 L 536.3 1253.5 L 535.9 1246.9 L 535.6 1240.3 L 535.2 1233.6 L 535.0 1227.0 L 535.0 1227.0 L 534.8 1220.3 L 534.7 1213.7 L 534.7 1207.0 L 534.7 1200.4 L 534.8 1193.7 L 534.9 1187.1 L 535.1 1180.4 L 535.2 1173.8 L 535.4 1167.1 L 535.5 1160.5 L 535.6 1153.8 L 535.7 1147.1 L 535.8 1140.5 L 535.8 1133.8 L 535.7 1127.2 L 535.5 1120.6 L 535.5 1120.6 L 535.3 1113.9 L 535.2 1107.3 L 535.0 1100.6 L 534.9 1093.9 L 534.7 1087.2 L 534.6 1080.5 L 534.4 1073.8 L 534.1 1067.1 L 533.7 1060.5 L 533.3 1053.8 L 532.8 1047.2 L 532.2 1040.6 L 531.4 1034.0 L 530.5 1027.5 L 529.5 1021.0 L 528.2 1014.5 L 528.2 1014.5 L 526.9 1008.1 L 525.4 1001.7 L 523.7 995.3 L 522.0 988.9 L 520.1 982.5 L 518.2 976.1 L 516.1 969.8 L 513.9 963.5 L 511.7 957.2 L 509.3 951.0 L 506.9 944.8 L 504.3 938.6 L 501.7 932.5 L 499.0 926.5 L 496.2 920.4 L 493.4 914.5 L 493.4 914.5 L 490.5 908.6 L 487.4 902.8 L 484.1 897.0 L 480.8 891.3 L 477.3 885.6 L 473.8 880.0 L 470.1 874.4 L 466.5 868.8 L 462.7 863.3 L 459.0 857.8 L 455.2 852.3 L 451.4 846.8 L 447.6 841.3 L 443.8 835.7 L 440.1 830.2 L 436.5 824.6 L 436.5 824.6 L 432.8 819.1 L 429.2 813.5 L 425.5 808.0 L 421.7 802.5 L 418.0 797.0 L 414.3 791.5 L 410.5 786.0 L 406.8 780.5 L 403.0 775.0 L 399.3 769.5 L 395.6 764.0 L 391.9 758.4 L 388.2 752.9 L 384.6 747.3 L 381.0 741.7 L 377.5 736.1 L 377.5 736.1 L 374.0 730.5 L 370.5 724.8 L 367.0 719.1 L 363.6 713.4 L 360.2 707.7 L 356.8 702.0 L 353.4 696.3 L 350.0 690.5 L 346.7 684.8 L 343.4 679.0 L 340.1 673.2 L 336.8 667.4 L 333.6 661.6 L 330.3 655.8 L 327.1 650.0 L 323.9 644.2 L 323.9 644.2 L 320.7 638.3 L 317.6 632.4 L 314.7 626.4 L 311.7 620.4 L 308.8 614.4 L 306.0 608.3 L 303.1 602.3 L 300.2 596.2 L 297.3 590.2 L 294.4 584.2 L 291.4 578.3 L 288.3 572.4 L 285.1 566.6 L 281.8 560.9 L 278.3 555.3 L 274.7 549.8 L 274.7 549.8 L 271.0 544.3 L 267.3 538.8 L 263.5 533.2 L 259.7 527.5 L 255.9 521.9 L 251.9 516.4 L 247.9 510.9 L 243.8 505.5 L 239.5 500.3 L 235.2 495.2 L 230.7 490.4 L 226.1 485.8 L 221.3 481.5 L 216.4 477.4 L 211.3 473.7 L 206.0 470.4 L 206.0 470.4 L 200.3 467.6 L 194.1 465.4 L 187.3 463.6 L 180.3 462.3 L 172.9 461.3 L 165.4 460.6 L 157.8 460.0 L 150.2 459.5 L 142.8 459.1 L 135.6 458.6 L 128.7 457.9 L 122.3 457.1 L 116.3 455.9 L 111.0 454.4 L 106.4 452.4 L 102.7 449.8 L 102.7 449.8 L 99.8 446.8 L 97.9 443.5 L 96.8 439.8 L 96.3 435.8 L 96.5 431.7 L 97.0 427.3 L 97.8 422.7 L 98.9 418.0 L 100.0 413.2 L 101.0 408.4 L 101.9 403.5 L 102.5 398.6 L 102.7 393.8 L 102.3 389.0 L 101.2 384.3 L 99.4 379.8 L 99.4 379.8 L 96.7 375.3 L 93.2 370.6 L 89.1 365.8 L 84.4 360.9 L 79.4 356.0 L 74.0 351.0 L 68.4 346.1 L 62.8 341.2 L 57.3 336.4 L 51.9 331.7 L 46.8 327.1 L 42.2 322.7 L 38.1 318.5 L 34.7 314.6 L 32.0 310.9 L 30.3 307.5 L 30.3 307.5 L 29.5 304.6 L 29.7 302.1 L 30.7 299.9 L 32.4 298.1 L 34.7 296.5 L 37.3 295.1 L 40.3 293.9 L 43.4 292.6 L 46.6 291.4 L 49.7 290.1 L 52.6 288.7 L 55.1 287.1 L 57.2 285.2 L 58.7 283.0 L 59.5 280.4 L 59.4 277.3 L 59.4 277.3 L 58.4 273.7 L 56.6 269.6 L 53.9 265.0 L 50.7 260.0 L 47.0 254.7 L 43.0 249.2 L 38.8 243.6 L 34.5 238.0 L 30.2 232.4 L 26.2 226.9 L 22.5 221.7 L 19.2 216.8 L 16.5 212.2 L 14.6 208.2 L 13.4 204.7 L 13.3 201.8 L 13.3 201.8 L 14.2 199.6 L 15.9 198.1 L 18.3 197.1 L 21.4 196.5 L 25.1 196.4 L 29.1 196.6 L 33.6 196.9 L 38.2 197.5 L 43.1 198.0 L 47.9 198.6 L 52.8 199.0 L 57.4 199.3 L 61.9 199.3 L 65.9 198.9 L 69.6 198.1 L 72.7 196.8 L 72.7 196.8 L 75.3 195.0 L 77.7 192.7 L 79.8 190.0 L 81.7 187.0 L 83.5 183.7 L 85.1 180.2 L 86.6 176.7 L 88.1 173.1 L 89.6 169.5 L 91.1 166.0 L 92.6 162.6 L 94.3 159.5 L 96.1 156.7 L 98.0 154.3 L 100.2 152.3 L 102.6 150.8 L 102.6 150.8 L 105.2 149.8 L 108.1 149.0 L 111.0 148.6 L 114.1 148.4 L 117.4 148.5 L 120.7 148.8 L 124.0 149.3 L 127.5 149.9 L 130.9 150.7 L 134.4 151.6 L 137.9 152.6 L 141.3 153.6 L 144.7 154.7 L 148.0 155.8 L 151.2 156.9 L 154.3 157.9 L 154.3 157.9 L 157.3 158.9 L 160.2 159.8 L 163.1 160.6 L 166.0 161.4 L 168.8 162.2 L 171.6 163.1 L 174.4 164.1 L 177.2 165.2 L 179.9 166.5 L 182.7 168.0 L 185.4 169.7 L 188.2 171.7 L 191.0 174.1 L 193.8 176.8 L 196.7 179.9 L 199.6 183.4 L 199.6 183.4 L 202.6 187.4 L 205.5 191.9 L 208.4 196.9 L 211.4 202.3 L 214.4 208.0 L 217.4 214.0 L 220.4 220.2 L 223.4 226.6 L 226.4 233.1 L 229.4 239.7 L 232.5 246.4 L 235.6 253.0 L 238.6 259.5 L 241.8 265.9 L 244.9 272.2 L 248.0 278.1 L 248.0 278.1 L 251.2 284.0 L 254.4 289.8 L 257.7 295.6 L 260.9 301.4 L 264.2 307.2 L 267.5 313.0 L 270.9 318.7 L 274.2 324.5 L 277.5 330.2 L 280.9 336.0 L 284.2 341.7 L 287.6 347.5 L 290.9 353.2 L 294.2 359.0 L 297.5 364.8 L 300.8 370.6 L 300.8 370.6 L 304.1 376.3 L 307.3 382.2 L 310.5 388.0 L 313.7 393.9 L 316.8 399.7 L 320.0 405.6 L 323.1 411.4 L 326.3 417.3 L 329.5 423.1 L 332.7 429.0 L 336.0 434.8 L 339.3 440.5 L 342.6 446.3 L 346.1 452.0 L 349.5 457.6 L 353.1 463.2 L 353.1 463.2 L 356.7 468.8 L 360.4 474.3 L 364.2 479.8 L 368.0 485.2 L 371.8 490.7 L 375.7 496.1 L 379.6 501.4 L 383.5 506.8 L 387.5 512.1 L 391.5 517.4 L 395.6 522.7 L 399.7 528.0 L 403.7 533.2 L 407.8 538.5 L 411.9 543.7 L 416.0 548.9 L 416.0 548.9 L 420.2 554.1 L 424.3 559.3 L 428.5 564.5 L 432.7 569.6 L 437.0 574.8 L 441.2 579.9 L 445.5 584.9 L 449.8 590.0 L 454.1 595.1 L 458.5 600.1 L 462.8 605.2 L 467.2 610.2 L 471.5 615.2 L 475.9 620.3 L 480.2 625.3 L 484.6 630.3 L 484.6 630.3 L 488.9 635.4 L 493.3 640.3 L 497.8 645.3 L 502.2 650.2 L 506.7 655.2 L 511.2 660.1 L 515.7 665.0 L 520.2 669.9 L 524.7 674.8 L 529.1 679.8 L 533.6 684.7 L 538.0 689.7 L 542.4 694.7 L 546.7 699.8 L 550.9 704.8 L 555.1 710.0 L 555.1 710.0 L 559.3 715.2 L 563.5 720.3 L 567.6 725.5 L 571.7 730.8 L 575.8 736.0 L 579.9 741.3 L 583.9 746.6 L 587.9 751.9 L 591.9 757.2 L 595.8 762.6 L 599.7 768.0 L 603.5 773.5 L 607.2 779.0 L 610.9 784.5 L 614.6 790.0 L 618.1 795.6 L 618.1 795.6 L 621.6 801.2 L 625.1 806.9 L 628.5 812.6 L 631.8 818.4 L 635.1 824.2 L 638.3 830.0 L 641.5 835.8 L 644.7 841.7 L 647.8 847.6 L 650.8 853.5 L 653.8 859.5 L 656.7 865.5 L 659.6 871.5 L 662.5 877.5 L 665.3 883.5 L 668.1 889.5 L 668.1 889.5 L 670.8 895.6 L 673.5 901.6 L 676.2 907.7 L 678.9 913.8 L 681.6 920.0 L 684.2 926.1 L 686.8 932.3 L 689.3 938.5 L 691.7 944.7 L 694.0 950.9 L 696.3 957.2 L 698.4 963.4 L 700.5 969.8 L 702.4 976.1 L 704.2 982.4 L 705.8 988.8 L 705.8 988.8 L 707.3 995.3 L 708.5 1001.7 L 709.7 1008.2 L 710.7 1014.8 L 711.6 1021.3 L 712.3 1027.9 L 713.0 1034.5 L 713.6 1041.2 L 714.2 1047.8 L 714.7 1054.5 L 715.2 1061.1 L 715.7 1067.8 L 716.2 1074.4 L 716.7 1081.1 L 717.3 1087.7 L 717.9 1094.3 L 717.9 1094.3 L 718.5 1100.9 L 719.1 1107.5 L 719.7 1114.2 L 720.2 1120.8 L 720.7 1127.4 L 721.1 1134.1 L 721.6 1140.7 L 722.1 1147.3 L 722.6 1154.0 L 723.1 1160.6 L 723.6 1167.2 L 724.2 1173.8 L 724.9 1180.4 L 725.6 1187.0 L 726.5 1193.6 L 727.4 1200.2 L 727.4 1200.2 L 728.4 1206.8 L 729.5 1213.3 L 730.7 1219.8 L 732.0 1226.4 L 733.3 1232.9 L 734.7 1239.4 L 736.2 1245.9 L 737.6 1252.4 L 739.1 1258.9 L 740.6 1265.4 L 742.0 1271.9 L 743.5 1278.4 L 744.8 1284.9 L 746.2 1291.4 L 747.4 1297.9 L 748.6 1304.5 L 748.6 1304.5 L 749.7 1311.0 L 750.8 1317.6 L 751.8 1324.2 L 752.7 1330.8 L 753.6 1337.4 L 754.5 1343.9 L 755.3 1350.5 L 756.2 1357.2 L 757.0 1363.8 L 757.9 1370.3 L 758.8 1376.9 L 759.7 1383.5 L 760.7 1390.1 L 761.7 1396.7 L 762.8 1403.2 L 764.0 1409.8 L 764.0 1409.8 L 765.2 1416.3 L 766.4 1422.8 L 767.7 1429.4 L 769.0 1435.9 L 770.3 1442.4 L 771.7 1448.9 L 773.1 1455.4 L 774.5 1461.9 L 775.9 1468.4 L 777.4 1474.9 L 779.0 1481.4 L 780.5 1487.8 L 782.2 1494.3 L 783.8 1500.7 L 785.5 1507.1 L 787.3 1513.5 L 787.3 1513.5 L 789.1 1519.9 L 790.9 1526.3 L 792.8 1532.7 L 794.8 1539.0 L 796.8 1545.4 L 798.8 1551.7 L 800.9 1558.0 L 803.0 1564.3 L 805.1 1570.6 L 807.3 1576.9 L 809.5 1583.2 L 811.7 1589.5 L 814.0 1595.7 L 816.3 1602.0 L 818.6 1608.2 L 820.9 1614.5 L 820.9 1614.5 L 823.3 1620.7 L 825.7 1626.9 L 828.1 1633.0 L 830.6 1639.2 L 833.1 1645.4 L 835.6 1651.5 L 838.2 1657.7 L 840.8 1663.8 L 843.4 1669.9 L 846.0 1676.0 L 848.7 1682.1 L 851.3 1688.2 L 853.9 1694.3 L 856.6 1700.4 L 859.2 1706.5 L 861.9 1712.7 L 861.9 1712.7 L 864.5 1718.8 L 867.2 1724.9 L 869.8 1731.0 L 872.5 1737.1 L 875.2 1743.1 L 877.8 1749.2 L 880.5 1755.3 L 883.2 1761.4 L 885.9 1767.5 L 888.7 1773.5 L 891.4 1779.6 L 894.2 1785.7 L 896.9 1791.7 L 899.7 1797.7 L 902.5 1803.8 L 905.3 1809.8 L 905.3 1809.8 L 908.1 1815.8 L 911.0 1821.8 L 913.8 1827.9 L 916.7 1833.9 L 919.5 1839.9 L 922.4 1845.9 L 925.3 1851.8 L 928.2 1857.8 L 931.2 1863.8 L 934.1 1869.8 L 937.1 1875.7 L 940.0 1881.7 L 943.0 1887.6 L 946.0 1893.5 L 949.1 1899.5 L 952.1 1905.4 L 952.1 1905.4 L 955.2 1911.3 L 958.3 1917.1 L 961.5 1923.0 L 964.7 1928.8 L 967.9 1934.6 L 971.2 1940.4 L 974.4 1946.2 L 977.7 1952.0 L 981.0 1957.8 L 984.2 1963.6 L 987.4 1969.4 L 990.7 1975.3 L 993.8 1981.1 L 996.9 1987.0 L 1000.0 1992.9 L 1000.0 1992.9" fill="none" stroke="#ffd23d" stroke-width="6.0" stroke-opacity="0.9"/><path d="M 308.8 1477.7 L 309.5 1477.1 L 310.4 1476.4 L 311.5 1475.5 L 312.6 1474.6 L 313.8 1473.6 L 315.2 1472.5 L 316.6 1471.4 L 318.1 1470.2 L 319.6 1468.9 L 321.1 1467.7 L 322.6 1466.4 L 324.1 1465.2 L 325.6 1463.9 L 327.1 1462.7 L 328.5 1461.5 L 329.8 1460.4 L 329.8 1460.4 L 331.1 1459.3 L 332.4 1458.1 L 333.7 1457.0 L 335.0 1455.9 L 336.3 1454.8 L 337.5 1453.7 L 338.8 1452.5 L 340.1 1451.4 L 341.4 1450.2 L 342.6 1449.1 L 343.9 1448.0 L 345.1 1446.8 L 346.4 1445.7 L 347.6 1444.5 L 348.9 1443.3 L 350.1 1442.2 L 350.1 1442.2 L 351.4 1441.0 L 352.8 1439.7 L 354.2 1438.4 L 355.6 1437.1 L 357.0 1435.7 L 358.4 1434.3 L 359.8 1433.0 L 361.2 1431.6 L 362.6 1430.3 L 363.9 1429.0 L 365.1 1427.8 L 366.3 1426.7 L 367.3 1425.7 L 368.3 1424.8 L 369.1 1424.0 L 369.8 1423.3" fill="none" stroke="#ffd23d" stroke-width="6.0" stroke-opacity="0.9"/></g><g id="clips"><circle cx="270.1" cy="2000.0" r="2" fill="none" stroke="#0b5" stroke-width="0.6"/><circle cx="0.0" cy="1784.0" r="2" fill="none" stroke="#0b5" stroke-width="0.6"/><circle cx="0.0" cy="1588.8" r="2" fill="none" stroke="#0b5" stroke-width="0.6"/><circle cx="1000.0" cy="1992.9" r="2" fill="none" stroke="#0b5" stroke-width="0.6"/><circle cx="308.8" cy="1477.7" r="2" fill="none" stroke="#0b5" stroke-width="0.6"/><circle cx="369.8" cy="1423.3" r="2" fill="none" stroke="#0b5" stroke-width="0.6"/></g><g id="power"><circle cx="270.0" cy="2000.0" r="5" fill="none" stroke="#e33" stroke-width="1"/><circle cx="0.0" cy="1588.8" r="5" fill="none" stroke="#e33" stroke-width="1"/></g><g id="bridges"></g></svg>