<svg xmlns="http://www.w3.org/2000/svg" width="997mm" height="2000mm" viewBox="0 0 997 2000"><g id="outline"><rect x="0" y="0" width="997" height="2000" fill="none" stroke="#000" stroke-width="1"/></g><g id="channels"><path d="M 491.4 1255.8 L 489.1 1253.3 L 486.2 1250.3 L 482.9 1246.8 L 479.3 1243.0 L 475.4 1238.8 L 471.1 1234.3 L 466.6 1229.6 L 462.0 1224.6 L 457.2 1219.6 L 452.2 1214.4 L 447.3 1209.3 L 442.3 1204.2 L 437.3 1199.2 L 432.5 1194.4 L 427.7 1189.8 L 423.0 1185.5 L 423.0 1185.5 L 418.4 1181.4 L 413.8 1177.3 L 409.1 1173.4 L 404.3 1169.5 L 399.4 1165.6 L 394.5 1161.8 L 389.6 1157.9 L 384.7 1154.2 L 379.8 1150.4 L 374.9 1146.5 L 370.1 1142.7 L 365.3 1138.7 L 360.5 1134.8 L 355.8 1130.8 L 351.2 1126.6 L 346.7 1122.4 L 346.7 1122.4 L 342.2 1118.1 L 337.9 1113.8 L 333.5 1109.4 L 329.3 1104.9 L 325.0 1100.3 L 320.8 1095.7 L 316.6 1091.1 L 312.5 1086.5 L 308.3 1081.9 L 304.3 1077.2 L 300.2 1072.5 L 296.1 1067.8 L 292.1 1063.1 L 288.1 1058.4 L 283.9 1053.7 L 279.9 1049.1 L 279.9 1049.1 L 275.9 1044.4 L 271.7 1039.7 L 267.6 1035.1 L 263.5 1030.4 L 259.5 1025.8 L 255.3 1021.0 L 251.2 1016.3 L 247.2 1011.6 L 243.1 1006.9 L 239.2 1002.1 L 235.3 997.3 L 231.4 992.5 L 227.6 987.6 L 223.8 982.7 L 220.2 977.8 L 216.6 972.7 L 216.6 972.7 L 213.2 967.6 L 209.7 962.5 L 206.4 957.3 L 203.1 952.0 L 199.8 946.7 L 196.7 941.4 L 193.5 936.1 L 190.4 930.7 L 187.5 925.2 L 184.4 919.8 L 181.5 914.3 L 178.5 908.8 L 175.7 903.4 L 172.9 897.9 L 170.0 892.3 L 167.2 886.8 L 167.2 886.8 L 164.4 881.3 L 161.7 875.7 L 159.1 870.1 L 156.5 864.5 L 154.0 858.8 L 151.5 853.1 L 149.0 847.5 L 146.5 841.8 L 144.1 836.1 L 141.7 830.4 L 139.3 824.6 L 136.9 818.9 L 134.6 813.1 L 132.2 807.4 L 129.9 801.7 L 127.6 795.9 L 127.6 795.9 L 125.3 790.2 L 122.9 784.4 L 120.8 778.6 L 118.6 772.8 L 116.5 766.9 L 114.5 761.1 L 112.4 755.2 L 110.3 749.4 L 108.3 743.5 L 106.1 737.7 L 103.9 731.9 L 101.7 726.0 L 99.5 720.3 L 97.2 714.5 L 94.8 708.9 L 92.4 703.2 L 92.4 703.2 L 89.8 697.5 L 87.3 691.9 L 84.7 686.2 L 82.1 680.5 L 79.6 674.9 L 77.0 669.2 L 74.3 663.6 L 71.5 658.0 L 68.7 652.5 L 65.8 646.9 L 62.9 641.5 L 59.9 636.1 L 56.8 630.7 L 53.6 625.4 L 50.4 620.2 L 47.0 615.1 L 47.0 615.1 L 43.6 610.0 L 40.0 604.9 L 36.4 599.9 L 32.7 595.0 L 28.9 590.0 L 25.0 585.2 L 21.1 580.4 L 17.2 575.6 L 13.0 570.9 L 8.9 566.3 L 4.8 561.7 L 0.5 557.2 L 0.0 556.7" fill="none" stroke="#00e5ff" stroke-width="6.0" stroke-opacity="0.9"/><path d="M 0.0 884.0 L 3.3 886.8 L 8.2 891.3 L 13.0 895.8 L 17.8 900.3 L 22.4 905.0 L 26.9 909.7 L 31.4 914.5 L 35.6 919.4 L 39.6 924.4 L 43.6 929.6 L 43.6 929.6 L 47.2 934.8 L 50.8 940.2 L 54.1 945.8 L 57.3 951.4 L 60.4 957.2 L 63.2 963.0 L 66.1 968.9 L 68.9 974.9 L 71.5 980.9 L 74.2 987.0 L 76.8 993.0 L 79.4 999.2 L 82.0 1005.2 L 84.5 1011.3 L 87.1 1017.3 L 89.8 1023.3 L 89.8 1023.3 L 92.4 1029.3 L 94.9 1035.4 L 97.2 1041.6 L 99.5 1047.7 L 101.7 1054.1 L 103.8 1060.3 L 106.1 1066.6 L 108.3 1072.9 L 110.5 1079.0 L 112.8 1085.2 L 115.3 1091.3 L 117.8 1097.3 L 120.5 1103.1 L 123.5 1108.9 L 126.7 1114.5 L 130.1 1119.9 L 130.1 1119.9 L 133.8 1125.1 L 137.8 1130.2 L 142.0 1135.1 L 146.4 1139.9 L 151.0 1144.5 L 155.7 1149.0 L 160.5 1153.5 L 165.4 1157.9 L 170.4 1162.4 L 175.4 1166.7 L 180.4 1171.1 L 185.3 1175.5 L 190.1 1179.9 L 194.9 1184.4 L 199.7 1189.0 L 204.3 1193.8 L 204.3 1193.8 L 208.7 1198.6 L 213.1 1203.4 L 217.4 1208.2 L 221.8 1213.1 L 226.1 1218.0 L 230.5 1222.9 L 234.7 1227.9 L 239.0 1232.9 L 243.2 1237.9 L 247.5 1242.8 L 251.8 1247.8 L 256.0 1252.8 L 260.2 1257.8 L 264.5 1262.8 L 268.8 1267.8 L 273.1 1272.7 L 273.1 1272.7 L 277.3 1277.8 L 281.5 1282.9 L 285.8 1288.2 L 289.8 1293.6 L 293.9 1299.0 L 298.1 1304.4 L 302.2 1309.9 L 306.3 1315.2 L 310.4 1320.5 L 314.7 1325.7 L 319.0 1330.6 L 323.3 1335.4 L 327.8 1340.0 L 332.3 1344.2 L 337.0 1348.1 L 341.9 1351.8 L 341.9 1351.8 L 347.0 1355.2 L 352.3 1358.7 L 357.9 1362.1 L 363.5 1365.6 L 369.4 1368.9 L 375.3 1372.0 L 381.3 1374.9 L 387.3 1377.5 L 393.3 1379.8 L 399.1 1381.7 L 404.9 1383.2 L 410.6 1384.2 L 415.9 1384.7 L 421.1 1384.5 L 426.1 1383.7 L 430.6 1382.3 L 430.6 1382.3 L 435.0 1379.9 L 439.4 1376.3 L 443.5 1371.8 L 447.6 1366.5 L 451.6 1360.5 L 455.4 1354.0 L 459.0 1347.1 L 462.5 1340.0 L 465.9 1332.8 L 469.0 1325.7 L 471.9 1318.8 L 474.7 1312.4 L 477.2 1306.6 L 479.5 1301.4 L 481.5 1297.0 L 483.2 1293.7" fill="none" stroke="#00e5ff" stroke-width="6.0" stroke-opacity="0.9"/></g><g id="clips"><circle cx="491.4" cy="1255.8" r="2" fill="none" stroke="#0b5" stroke-width="0.6"/><circle cx="0.0" cy="556.7" r="2" fill="none" stroke="#0b5" stroke-width="0.6"/><circle cx="0.0" cy="884.0" r="2" fill="none" stroke="#0b5" stroke-width="0.6"/><circle cx="483.2" cy="1293.7" r="2" fill="none" stroke="#0b5" stroke-width="0.6"/></g><g id="power"><circle cx="0.0" cy="884.0" r="5" fill="none" stroke="#e33" stroke-width="1"/><circle cx="0.0" cy="556.7" r="5" fill="none" stroke="#e33" stroke-width="1"/></g><g id="bridges"></g></svg>