<svg xmlns="http://www.w3.org/2000/svg" width="997mm" height="2000mm" viewBox="0 0 997 2000"><g id="outline"><rect x="0" y="0" width="997" height="2000" fill="none" stroke="#000" stroke-width="1"/></g><g id="channels"><path d="M 0.0 1492.9 L 0.0 1492.9 L 3.0 1498.8 L 3.0 1498.8 L 6.0 1504.7 L 8.9 1510.7 L 11.8 1516.7 L 14.7 1522.7 L 17.5 1528.7 L 20.3 1534.7 L 23.1 1540.8 L 25.9 1546.8 L 28.6 1552.9 L 31.4 1558.9 L 34.1 1565.0 L 36.8 1571.1 L 39.5 1577.2 L 42.2 1583.2 L 44.9 1589.3 L 47.6 1595.4 L 47.6 1595.4 L 50.3 1601.5 L 53.0 1607.6 L 55.6 1613.7 L 58.2 1619.8 L 60.8 1625.9 L 63.3 1632.1 L 65.9 1638.2 L 68.5 1644.3 L 71.1 1650.5 L 73.6 1656.6 L 76.2 1662.7 L 78.9 1668.8 L 81.5 1674.9 L 84.2 1681.0 L 87.0 1687.0 L 89.8 1693.1 L 89.8 1693.1 L 92.6 1699.1 L 95.5 1705.1 L 98.5 1711.0 L 101.5 1716.9 L 104.5 1722.9 L 107.6 1728.8 L 110.7 1734.7 L 113.8 1740.6 L 116.9 1746.4 L 120.0 1752.3 L 123.0 1758.2 L 126.1 1764.1 L 129.1 1770.1 L 132.1 1776.0 L 135.0 1782.0 L 137.9 1788.0 L 137.9 1788.0 L 140.8 1794.0 L 143.7 1800.0 L 146.5 1806.0 L 149.4 1812.0 L 152.2 1818.0 L 155.1 1824.0 L 157.9 1830.1 L 160.7 1836.1 L 163.4 1842.2 L 166.1 1848.3 L 168.8 1854.4 L 171.4 1860.5 L 173.9 1866.6 L 176.4 1872.8 L 178.8 1879.0 L 181.1 1885.2 L 181.1 1885.2 L 183.3 1891.4 L 185.5 1897.7 L 187.7 1904.0 L 189.8 1910.3 L 191.8 1916.6 L 193.8 1923.0 L 195.7 1929.3 L 197.6 1935.7 L 199.4 1942.1 L 201.2 1948.6 L 202.9 1955.0 L 204.6 1961.4 L 206.2 1967.9 L 207.8 1974.3 L 209.3 1980.8 L 210.8 1987.3 L 210.8 1987.3 L 212.2 1993.8 L 213.4 2000.0" fill="none" stroke="#ffd23d" stroke-width="6.0" stroke-opacity="0.9"/></g><g id="clips"><circle cx="0.0" cy="1492.9" r="2" fill="none" stroke="#0b5" stroke-width="0.6"/><circle cx="213.4" cy="2000.0" r="2" fill="none" stroke="#0b5" stroke-width="0.6"/></g><g id="power"><circle cx="213.4" cy="2000.0" r="5" fill="none" stroke="#e33" stroke-width="1"/></g><g id="bridges"></g></svg>